<?xml version="1.0" encoding="utf-8" standalone="no"?>
<!DOCTYPE svg PUBLIC "-//W3C//DTD SVG 1.1//EN"
  "http://www.w3.org/Graphics/SVG/1.1/DTD/svg11.dtd">
<svg xmlns:xlink="http://www.w3.org/1999/xlink" width="402.828125pt" height="261.130625pt" viewBox="0 0 402.828125 261.130625" xmlns="http://www.w3.org/2000/svg" version="1.1">
 <metadata>
  <rdf:RDF xmlns:dc="http://purl.org/dc/elements/1.1/" xmlns:cc="http://creativecommons.org/ns#" xmlns:rdf="http://www.w3.org/1999/02/22-rdf-syntax-ns#">
   <cc:Work>
    <dc:type rdf:resource="http://purl.org/dc/dcmitype/StillImage"/>
    <dc:date>2022-02-04T21:33:59.383564</dc:date>
    <dc:format>image/svg+xml</dc:format>
    <dc:creator>
     <cc:Agent>
      <dc:title>Matplotlib v3.5.0, https://matplotlib.org/</dc:title>
     </cc:Agent>
    </dc:creator>
   </cc:Work>
  </rdf:RDF>
 </metadata>
 <defs>
  <style type="text/css">*{stroke-linejoin: round; stroke-linecap: butt}</style>
 </defs>
 <g id="figure_1">
  <g id="patch_1">
   <path d="M 0 261.130625 
L 402.828125 261.130625 
L 402.828125 0 
L 0 0 
z
" style="fill: #ffffff"/>
  </g>
  <g id="axes_1">
   <g id="patch_2">
    <path d="M 60.828125 224.64 
L 395.628125 224.64 
L 395.628125 7.2 
L 60.828125 7.2 
z
" style="fill: #ffffff"/>
   </g>
   <g id="matplotlib.axis_1">
    <g id="xtick_1">
     <g id="line2d_1">
      <path d="M 76.046307 224.64 
L 76.046307 7.2 
" clip-path="url(#p5690003e9e)" style="fill: none; stroke: #cccccc; stroke-width: 0.8; stroke-linecap: round"/>
     </g>
     <g id="text_1">
      <!-- 0 -->
      <g style="fill: #262626" transform="translate(73.265838 238.797812)scale(0.1 -0.1)">
       <defs>
        <path id="ArialMT-30" d="M 266 2259 
Q 266 3072 433 3567 
Q 600 4063 929 4331 
Q 1259 4600 1759 4600 
Q 2128 4600 2406 4451 
Q 2684 4303 2865 4023 
Q 3047 3744 3150 3342 
Q 3253 2941 3253 2259 
Q 3253 1453 3087 958 
Q 2922 463 2592 192 
Q 2263 -78 1759 -78 
Q 1097 -78 719 397 
Q 266 969 266 2259 
z
M 844 2259 
Q 844 1131 1108 757 
Q 1372 384 1759 384 
Q 2147 384 2411 759 
Q 2675 1134 2675 2259 
Q 2675 3391 2411 3762 
Q 2147 4134 1753 4134 
Q 1366 4134 1134 3806 
Q 844 3388 844 2259 
z
" transform="scale(0.015625)"/>
       </defs>
       <use xlink:href="#ArialMT-30"/>
      </g>
     </g>
    </g>
    <g id="xtick_2">
     <g id="line2d_2">
      <path d="M 135.725451 224.64 
L 135.725451 7.2 
" clip-path="url(#p5690003e9e)" style="fill: none; stroke: #cccccc; stroke-width: 0.8; stroke-linecap: round"/>
     </g>
     <g id="text_2">
      <!-- 10 -->
      <g style="fill: #262626" transform="translate(130.164514 238.797812)scale(0.1 -0.1)">
       <defs>
        <path id="ArialMT-31" d="M 2384 0 
L 1822 0 
L 1822 3584 
Q 1619 3391 1289 3197 
Q 959 3003 697 2906 
L 697 3450 
Q 1169 3672 1522 3987 
Q 1875 4303 2022 4600 
L 2384 4600 
L 2384 0 
z
" transform="scale(0.015625)"/>
       </defs>
       <use xlink:href="#ArialMT-31"/>
       <use xlink:href="#ArialMT-30" x="55.615234"/>
      </g>
     </g>
    </g>
    <g id="xtick_3">
     <g id="line2d_3">
      <path d="M 195.404596 224.64 
L 195.404596 7.2 
" clip-path="url(#p5690003e9e)" style="fill: none; stroke: #cccccc; stroke-width: 0.8; stroke-linecap: round"/>
     </g>
     <g id="text_3">
      <!-- 20 -->
      <g style="fill: #262626" transform="translate(189.843658 238.797812)scale(0.1 -0.1)">
       <defs>
        <path id="ArialMT-32" d="M 3222 541 
L 3222 0 
L 194 0 
Q 188 203 259 391 
Q 375 700 629 1000 
Q 884 1300 1366 1694 
Q 2113 2306 2375 2664 
Q 2638 3022 2638 3341 
Q 2638 3675 2398 3904 
Q 2159 4134 1775 4134 
Q 1369 4134 1125 3890 
Q 881 3647 878 3216 
L 300 3275 
Q 359 3922 746 4261 
Q 1134 4600 1788 4600 
Q 2447 4600 2831 4234 
Q 3216 3869 3216 3328 
Q 3216 3053 3103 2787 
Q 2991 2522 2730 2228 
Q 2469 1934 1863 1422 
Q 1356 997 1212 845 
Q 1069 694 975 541 
L 3222 541 
z
" transform="scale(0.015625)"/>
       </defs>
       <use xlink:href="#ArialMT-32"/>
       <use xlink:href="#ArialMT-30" x="55.615234"/>
      </g>
     </g>
    </g>
    <g id="xtick_4">
     <g id="line2d_4">
      <path d="M 255.08374 224.64 
L 255.08374 7.2 
" clip-path="url(#p5690003e9e)" style="fill: none; stroke: #cccccc; stroke-width: 0.8; stroke-linecap: round"/>
     </g>
     <g id="text_4">
      <!-- 30 -->
      <g style="fill: #262626" transform="translate(249.522802 238.797812)scale(0.1 -0.1)">
       <defs>
        <path id="ArialMT-33" d="M 269 1209 
L 831 1284 
Q 928 806 1161 595 
Q 1394 384 1728 384 
Q 2125 384 2398 659 
Q 2672 934 2672 1341 
Q 2672 1728 2419 1979 
Q 2166 2231 1775 2231 
Q 1616 2231 1378 2169 
L 1441 2663 
Q 1497 2656 1531 2656 
Q 1891 2656 2178 2843 
Q 2466 3031 2466 3422 
Q 2466 3731 2256 3934 
Q 2047 4138 1716 4138 
Q 1388 4138 1169 3931 
Q 950 3725 888 3313 
L 325 3413 
Q 428 3978 793 4289 
Q 1159 4600 1703 4600 
Q 2078 4600 2393 4439 
Q 2709 4278 2876 4000 
Q 3044 3722 3044 3409 
Q 3044 3113 2884 2869 
Q 2725 2625 2413 2481 
Q 2819 2388 3044 2092 
Q 3269 1797 3269 1353 
Q 3269 753 2831 336 
Q 2394 -81 1725 -81 
Q 1122 -81 723 278 
Q 325 638 269 1209 
z
" transform="scale(0.015625)"/>
       </defs>
       <use xlink:href="#ArialMT-33"/>
       <use xlink:href="#ArialMT-30" x="55.615234"/>
      </g>
     </g>
    </g>
    <g id="xtick_5">
     <g id="line2d_5">
      <path d="M 314.762884 224.64 
L 314.762884 7.2 
" clip-path="url(#p5690003e9e)" style="fill: none; stroke: #cccccc; stroke-width: 0.8; stroke-linecap: round"/>
     </g>
     <g id="text_5">
      <!-- 40 -->
      <g style="fill: #262626" transform="translate(309.201947 238.797812)scale(0.1 -0.1)">
       <defs>
        <path id="ArialMT-34" d="M 2069 0 
L 2069 1097 
L 81 1097 
L 81 1613 
L 2172 4581 
L 2631 4581 
L 2631 1613 
L 3250 1613 
L 3250 1097 
L 2631 1097 
L 2631 0 
L 2069 0 
z
M 2069 1613 
L 2069 3678 
L 634 1613 
L 2069 1613 
z
" transform="scale(0.015625)"/>
       </defs>
       <use xlink:href="#ArialMT-34"/>
       <use xlink:href="#ArialMT-30" x="55.615234"/>
      </g>
     </g>
    </g>
    <g id="xtick_6">
     <g id="line2d_6">
      <path d="M 374.442029 224.64 
L 374.442029 7.2 
" clip-path="url(#p5690003e9e)" style="fill: none; stroke: #cccccc; stroke-width: 0.8; stroke-linecap: round"/>
     </g>
     <g id="text_6">
      <!-- 50 -->
      <g style="fill: #262626" transform="translate(368.881091 238.797812)scale(0.1 -0.1)">
       <defs>
        <path id="ArialMT-35" d="M 266 1200 
L 856 1250 
Q 922 819 1161 601 
Q 1400 384 1738 384 
Q 2144 384 2425 690 
Q 2706 997 2706 1503 
Q 2706 1984 2436 2262 
Q 2166 2541 1728 2541 
Q 1456 2541 1237 2417 
Q 1019 2294 894 2097 
L 366 2166 
L 809 4519 
L 3088 4519 
L 3088 3981 
L 1259 3981 
L 1013 2750 
Q 1425 3038 1878 3038 
Q 2478 3038 2890 2622 
Q 3303 2206 3303 1553 
Q 3303 931 2941 478 
Q 2500 -78 1738 -78 
Q 1113 -78 717 272 
Q 322 622 266 1200 
z
" transform="scale(0.015625)"/>
       </defs>
       <use xlink:href="#ArialMT-35"/>
       <use xlink:href="#ArialMT-30" x="55.615234"/>
      </g>
     </g>
    </g>
    <g id="text_7">
     <!-- service -->
     <g style="fill: #262626" transform="translate(212.391406 251.943125)scale(0.1 -0.1)">
      <defs>
       <path id="ArialMT-73" d="M 197 991 
L 753 1078 
Q 800 744 1014 566 
Q 1228 388 1613 388 
Q 2000 388 2187 545 
Q 2375 703 2375 916 
Q 2375 1106 2209 1216 
Q 2094 1291 1634 1406 
Q 1016 1563 777 1677 
Q 538 1791 414 1992 
Q 291 2194 291 2438 
Q 291 2659 392 2848 
Q 494 3038 669 3163 
Q 800 3259 1026 3326 
Q 1253 3394 1513 3394 
Q 1903 3394 2198 3281 
Q 2494 3169 2634 2976 
Q 2775 2784 2828 2463 
L 2278 2388 
Q 2241 2644 2061 2787 
Q 1881 2931 1553 2931 
Q 1166 2931 1000 2803 
Q 834 2675 834 2503 
Q 834 2394 903 2306 
Q 972 2216 1119 2156 
Q 1203 2125 1616 2013 
Q 2213 1853 2448 1751 
Q 2684 1650 2818 1456 
Q 2953 1263 2953 975 
Q 2953 694 2789 445 
Q 2625 197 2315 61 
Q 2006 -75 1616 -75 
Q 969 -75 630 194 
Q 291 463 197 991 
z
" transform="scale(0.015625)"/>
       <path id="ArialMT-65" d="M 2694 1069 
L 3275 997 
Q 3138 488 2766 206 
Q 2394 -75 1816 -75 
Q 1088 -75 661 373 
Q 234 822 234 1631 
Q 234 2469 665 2931 
Q 1097 3394 1784 3394 
Q 2450 3394 2872 2941 
Q 3294 2488 3294 1666 
Q 3294 1616 3291 1516 
L 816 1516 
Q 847 969 1125 678 
Q 1403 388 1819 388 
Q 2128 388 2347 550 
Q 2566 713 2694 1069 
z
M 847 1978 
L 2700 1978 
Q 2663 2397 2488 2606 
Q 2219 2931 1791 2931 
Q 1403 2931 1139 2672 
Q 875 2413 847 1978 
z
" transform="scale(0.015625)"/>
       <path id="ArialMT-72" d="M 416 0 
L 416 3319 
L 922 3319 
L 922 2816 
Q 1116 3169 1280 3281 
Q 1444 3394 1641 3394 
Q 1925 3394 2219 3213 
L 2025 2691 
Q 1819 2813 1613 2813 
Q 1428 2813 1281 2702 
Q 1134 2591 1072 2394 
Q 978 2094 978 1738 
L 978 0 
L 416 0 
z
" transform="scale(0.015625)"/>
       <path id="ArialMT-76" d="M 1344 0 
L 81 3319 
L 675 3319 
L 1388 1331 
Q 1503 1009 1600 663 
Q 1675 925 1809 1294 
L 2547 3319 
L 3125 3319 
L 1869 0 
L 1344 0 
z
" transform="scale(0.015625)"/>
       <path id="ArialMT-69" d="M 425 3934 
L 425 4581 
L 988 4581 
L 988 3934 
L 425 3934 
z
M 425 0 
L 425 3319 
L 988 3319 
L 988 0 
L 425 0 
z
" transform="scale(0.015625)"/>
       <path id="ArialMT-63" d="M 2588 1216 
L 3141 1144 
Q 3050 572 2676 248 
Q 2303 -75 1759 -75 
Q 1078 -75 664 370 
Q 250 816 250 1647 
Q 250 2184 428 2587 
Q 606 2991 970 3192 
Q 1334 3394 1763 3394 
Q 2303 3394 2647 3120 
Q 2991 2847 3088 2344 
L 2541 2259 
Q 2463 2594 2264 2762 
Q 2066 2931 1784 2931 
Q 1359 2931 1093 2626 
Q 828 2322 828 1663 
Q 828 994 1084 691 
Q 1341 388 1753 388 
Q 2084 388 2306 591 
Q 2528 794 2588 1216 
z
" transform="scale(0.015625)"/>
      </defs>
      <use xlink:href="#ArialMT-73"/>
      <use xlink:href="#ArialMT-65" x="50"/>
      <use xlink:href="#ArialMT-72" x="105.615234"/>
      <use xlink:href="#ArialMT-76" x="138.916016"/>
      <use xlink:href="#ArialMT-69" x="188.916016"/>
      <use xlink:href="#ArialMT-63" x="211.132812"/>
      <use xlink:href="#ArialMT-65" x="261.132812"/>
     </g>
    </g>
   </g>
   <g id="matplotlib.axis_2">
    <g id="ytick_1">
     <g id="line2d_7">
      <path d="M 60.828125 211.389377 
L 395.628125 211.389377 
" clip-path="url(#p5690003e9e)" style="fill: none; stroke: #cccccc; stroke-width: 0.8; stroke-linecap: round"/>
     </g>
     <g id="text_8">
      <!-- 60000 -->
      <g style="fill: #262626" transform="translate(26.023438 214.968283)scale(0.1 -0.1)">
       <defs>
        <path id="ArialMT-36" d="M 3184 3459 
L 2625 3416 
Q 2550 3747 2413 3897 
Q 2184 4138 1850 4138 
Q 1581 4138 1378 3988 
Q 1113 3794 959 3422 
Q 806 3050 800 2363 
Q 1003 2672 1297 2822 
Q 1591 2972 1913 2972 
Q 2475 2972 2870 2558 
Q 3266 2144 3266 1488 
Q 3266 1056 3080 686 
Q 2894 316 2569 119 
Q 2244 -78 1831 -78 
Q 1128 -78 684 439 
Q 241 956 241 2144 
Q 241 3472 731 4075 
Q 1159 4600 1884 4600 
Q 2425 4600 2770 4297 
Q 3116 3994 3184 3459 
z
M 888 1484 
Q 888 1194 1011 928 
Q 1134 663 1356 523 
Q 1578 384 1822 384 
Q 2178 384 2434 671 
Q 2691 959 2691 1453 
Q 2691 1928 2437 2201 
Q 2184 2475 1800 2475 
Q 1419 2475 1153 2201 
Q 888 1928 888 1484 
z
" transform="scale(0.015625)"/>
       </defs>
       <use xlink:href="#ArialMT-36"/>
       <use xlink:href="#ArialMT-30" x="55.615234"/>
       <use xlink:href="#ArialMT-30" x="111.230469"/>
       <use xlink:href="#ArialMT-30" x="166.845703"/>
       <use xlink:href="#ArialMT-30" x="222.460938"/>
      </g>
     </g>
    </g>
    <g id="ytick_2">
     <g id="line2d_8">
      <path d="M 60.828125 180.780407 
L 395.628125 180.780407 
" clip-path="url(#p5690003e9e)" style="fill: none; stroke: #cccccc; stroke-width: 0.8; stroke-linecap: round"/>
     </g>
     <g id="text_9">
      <!-- 80000 -->
      <g style="fill: #262626" transform="translate(26.023438 184.359313)scale(0.1 -0.1)">
       <defs>
        <path id="ArialMT-38" d="M 1131 2484 
Q 781 2613 612 2850 
Q 444 3088 444 3419 
Q 444 3919 803 4259 
Q 1163 4600 1759 4600 
Q 2359 4600 2725 4251 
Q 3091 3903 3091 3403 
Q 3091 3084 2923 2848 
Q 2756 2613 2416 2484 
Q 2838 2347 3058 2040 
Q 3278 1734 3278 1309 
Q 3278 722 2862 322 
Q 2447 -78 1769 -78 
Q 1091 -78 675 323 
Q 259 725 259 1325 
Q 259 1772 486 2073 
Q 713 2375 1131 2484 
z
M 1019 3438 
Q 1019 3113 1228 2906 
Q 1438 2700 1772 2700 
Q 2097 2700 2305 2904 
Q 2513 3109 2513 3406 
Q 2513 3716 2298 3927 
Q 2084 4138 1766 4138 
Q 1444 4138 1231 3931 
Q 1019 3725 1019 3438 
z
M 838 1322 
Q 838 1081 952 856 
Q 1066 631 1291 507 
Q 1516 384 1775 384 
Q 2178 384 2440 643 
Q 2703 903 2703 1303 
Q 2703 1709 2433 1975 
Q 2163 2241 1756 2241 
Q 1359 2241 1098 1978 
Q 838 1716 838 1322 
z
" transform="scale(0.015625)"/>
       </defs>
       <use xlink:href="#ArialMT-38"/>
       <use xlink:href="#ArialMT-30" x="55.615234"/>
       <use xlink:href="#ArialMT-30" x="111.230469"/>
       <use xlink:href="#ArialMT-30" x="166.845703"/>
       <use xlink:href="#ArialMT-30" x="222.460938"/>
      </g>
     </g>
    </g>
    <g id="ytick_3">
     <g id="line2d_9">
      <path d="M 60.828125 150.171437 
L 395.628125 150.171437 
" clip-path="url(#p5690003e9e)" style="fill: none; stroke: #cccccc; stroke-width: 0.8; stroke-linecap: round"/>
     </g>
     <g id="text_10">
      <!-- 100000 -->
      <g style="fill: #262626" transform="translate(20.4625 153.750344)scale(0.1 -0.1)">
       <use xlink:href="#ArialMT-31"/>
       <use xlink:href="#ArialMT-30" x="55.615234"/>
       <use xlink:href="#ArialMT-30" x="111.230469"/>
       <use xlink:href="#ArialMT-30" x="166.845703"/>
       <use xlink:href="#ArialMT-30" x="222.460938"/>
       <use xlink:href="#ArialMT-30" x="278.076172"/>
      </g>
     </g>
    </g>
    <g id="ytick_4">
     <g id="line2d_10">
      <path d="M 60.828125 119.562467 
L 395.628125 119.562467 
" clip-path="url(#p5690003e9e)" style="fill: none; stroke: #cccccc; stroke-width: 0.8; stroke-linecap: round"/>
     </g>
     <g id="text_11">
      <!-- 120000 -->
      <g style="fill: #262626" transform="translate(20.4625 123.141374)scale(0.1 -0.1)">
       <use xlink:href="#ArialMT-31"/>
       <use xlink:href="#ArialMT-32" x="55.615234"/>
       <use xlink:href="#ArialMT-30" x="111.230469"/>
       <use xlink:href="#ArialMT-30" x="166.845703"/>
       <use xlink:href="#ArialMT-30" x="222.460938"/>
       <use xlink:href="#ArialMT-30" x="278.076172"/>
      </g>
     </g>
    </g>
    <g id="ytick_5">
     <g id="line2d_11">
      <path d="M 60.828125 88.953498 
L 395.628125 88.953498 
" clip-path="url(#p5690003e9e)" style="fill: none; stroke: #cccccc; stroke-width: 0.8; stroke-linecap: round"/>
     </g>
     <g id="text_12">
      <!-- 140000 -->
      <g style="fill: #262626" transform="translate(20.4625 92.532404)scale(0.1 -0.1)">
       <use xlink:href="#ArialMT-31"/>
       <use xlink:href="#ArialMT-34" x="55.615234"/>
       <use xlink:href="#ArialMT-30" x="111.230469"/>
       <use xlink:href="#ArialMT-30" x="166.845703"/>
       <use xlink:href="#ArialMT-30" x="222.460938"/>
       <use xlink:href="#ArialMT-30" x="278.076172"/>
      </g>
     </g>
    </g>
    <g id="ytick_6">
     <g id="line2d_12">
      <path d="M 60.828125 58.344528 
L 395.628125 58.344528 
" clip-path="url(#p5690003e9e)" style="fill: none; stroke: #cccccc; stroke-width: 0.8; stroke-linecap: round"/>
     </g>
     <g id="text_13">
      <!-- 160000 -->
      <g style="fill: #262626" transform="translate(20.4625 61.923434)scale(0.1 -0.1)">
       <use xlink:href="#ArialMT-31"/>
       <use xlink:href="#ArialMT-36" x="55.615234"/>
       <use xlink:href="#ArialMT-30" x="111.230469"/>
       <use xlink:href="#ArialMT-30" x="166.845703"/>
       <use xlink:href="#ArialMT-30" x="222.460938"/>
       <use xlink:href="#ArialMT-30" x="278.076172"/>
      </g>
     </g>
    </g>
    <g id="ytick_7">
     <g id="line2d_13">
      <path d="M 60.828125 27.735558 
L 395.628125 27.735558 
" clip-path="url(#p5690003e9e)" style="fill: none; stroke: #cccccc; stroke-width: 0.8; stroke-linecap: round"/>
     </g>
     <g id="text_14">
      <!-- 180000 -->
      <g style="fill: #262626" transform="translate(20.4625 31.314464)scale(0.1 -0.1)">
       <use xlink:href="#ArialMT-31"/>
       <use xlink:href="#ArialMT-38" x="55.615234"/>
       <use xlink:href="#ArialMT-30" x="111.230469"/>
       <use xlink:href="#ArialMT-30" x="166.845703"/>
       <use xlink:href="#ArialMT-30" x="222.460938"/>
       <use xlink:href="#ArialMT-30" x="278.076172"/>
      </g>
     </g>
    </g>
    <g id="text_15">
     <!-- salary -->
     <g style="fill: #262626" transform="translate(14.357812 129.256719)rotate(-90)scale(0.1 -0.1)">
      <defs>
       <path id="ArialMT-61" d="M 2588 409 
Q 2275 144 1986 34 
Q 1697 -75 1366 -75 
Q 819 -75 525 192 
Q 231 459 231 875 
Q 231 1119 342 1320 
Q 453 1522 633 1644 
Q 813 1766 1038 1828 
Q 1203 1872 1538 1913 
Q 2219 1994 2541 2106 
Q 2544 2222 2544 2253 
Q 2544 2597 2384 2738 
Q 2169 2928 1744 2928 
Q 1347 2928 1158 2789 
Q 969 2650 878 2297 
L 328 2372 
Q 403 2725 575 2942 
Q 747 3159 1072 3276 
Q 1397 3394 1825 3394 
Q 2250 3394 2515 3294 
Q 2781 3194 2906 3042 
Q 3031 2891 3081 2659 
Q 3109 2516 3109 2141 
L 3109 1391 
Q 3109 606 3145 398 
Q 3181 191 3288 0 
L 2700 0 
Q 2613 175 2588 409 
z
M 2541 1666 
Q 2234 1541 1622 1453 
Q 1275 1403 1131 1340 
Q 988 1278 909 1158 
Q 831 1038 831 891 
Q 831 666 1001 516 
Q 1172 366 1500 366 
Q 1825 366 2078 508 
Q 2331 650 2450 897 
Q 2541 1088 2541 1459 
L 2541 1666 
z
" transform="scale(0.015625)"/>
       <path id="ArialMT-6c" d="M 409 0 
L 409 4581 
L 972 4581 
L 972 0 
L 409 0 
z
" transform="scale(0.015625)"/>
       <path id="ArialMT-79" d="M 397 -1278 
L 334 -750 
Q 519 -800 656 -800 
Q 844 -800 956 -737 
Q 1069 -675 1141 -563 
Q 1194 -478 1313 -144 
Q 1328 -97 1363 -6 
L 103 3319 
L 709 3319 
L 1400 1397 
Q 1534 1031 1641 628 
Q 1738 1016 1872 1384 
L 2581 3319 
L 3144 3319 
L 1881 -56 
Q 1678 -603 1566 -809 
Q 1416 -1088 1222 -1217 
Q 1028 -1347 759 -1347 
Q 597 -1347 397 -1278 
z
" transform="scale(0.015625)"/>
      </defs>
      <use xlink:href="#ArialMT-73"/>
      <use xlink:href="#ArialMT-61" x="50"/>
      <use xlink:href="#ArialMT-6c" x="105.615234"/>
      <use xlink:href="#ArialMT-61" x="127.832031"/>
      <use xlink:href="#ArialMT-72" x="183.447266"/>
      <use xlink:href="#ArialMT-79" x="216.748047"/>
     </g>
    </g>
   </g>
   <g id="PathCollection_1">
    <defs>
     <path id="m7e50a167ec" d="M 0 3 
C 0.795609 3 1.55874 2.683901 2.12132 2.12132 
C 2.683901 1.55874 3 0.795609 3 0 
C 3 -0.795609 2.683901 -1.55874 2.12132 -2.12132 
C 1.55874 -2.683901 0.795609 -3 0 -3 
C -0.795609 -3 -1.55874 -2.683901 -2.12132 -2.12132 
C -2.683901 -1.55874 -3 -0.795609 -3 0 
C -3 0.795609 -2.683901 1.55874 -2.12132 2.12132 
C -1.55874 2.683901 -0.795609 3 0 3 
z
" style="stroke: #1f77b4; stroke-opacity: 0.8"/>
    </defs>
    <g clip-path="url(#p5690003e9e)">
     <use xlink:href="#m7e50a167ec" x="368.474114" y="17.083636" style="fill: #1f77b4; fill-opacity: 0.8; stroke: #1f77b4; stroke-opacity: 0.8"/>
     <use xlink:href="#m7e50a167ec" x="111.853793" y="160.884577" style="fill: #1f77b4; fill-opacity: 0.8; stroke: #1f77b4; stroke-opacity: 0.8"/>
     <use xlink:href="#m7e50a167ec" x="195.404596" y="134.078771" style="fill: #1f77b4; fill-opacity: 0.8; stroke: #1f77b4; stroke-opacity: 0.8"/>
     <use xlink:href="#m7e50a167ec" x="183.468767" y="142.825284" style="fill: #1f77b4; fill-opacity: 0.8; stroke: #1f77b4; stroke-opacity: 0.8"/>
     <use xlink:href="#m7e50a167ec" x="195.404596" y="115.889391" style="fill: #1f77b4; fill-opacity: 0.8; stroke: #1f77b4; stroke-opacity: 0.8"/>
     <use xlink:href="#m7e50a167ec" x="177.500852" y="178.813781" style="fill: #1f77b4; fill-opacity: 0.8; stroke: #1f77b4; stroke-opacity: 0.8"/>
     <use xlink:href="#m7e50a167ec" x="183.468767" y="109.920642" style="fill: #1f77b4; fill-opacity: 0.8; stroke: #1f77b4; stroke-opacity: 0.8"/>
     <use xlink:href="#m7e50a167ec" x="189.436681" y="158.818471" style="fill: #1f77b4; fill-opacity: 0.8; stroke: #1f77b4; stroke-opacity: 0.8"/>
     <use xlink:href="#m7e50a167ec" x="380.409943" y="214.756364" style="fill: #1f77b4; fill-opacity: 0.8; stroke: #1f77b4; stroke-opacity: 0.8"/>
     <use xlink:href="#m7e50a167ec" x="272.987483" y="106.936267" style="fill: #1f77b4; fill-opacity: 0.8; stroke: #1f77b4; stroke-opacity: 0.8"/>
     <use xlink:href="#m7e50a167ec" x="213.308339" y="96.9455" style="fill: #1f77b4; fill-opacity: 0.8; stroke: #1f77b4; stroke-opacity: 0.8"/>
     <use xlink:href="#m7e50a167ec" x="76.046307" y="168.536819" style="fill: #1f77b4; fill-opacity: 0.8; stroke: #1f77b4; stroke-opacity: 0.8"/>
     <use xlink:href="#m7e50a167ec" x="272.987483" y="54.977541" style="fill: #1f77b4; fill-opacity: 0.8; stroke: #1f77b4; stroke-opacity: 0.8"/>
     <use xlink:href="#m7e50a167ec" x="189.436681" y="67.909831" style="fill: #1f77b4; fill-opacity: 0.8; stroke: #1f77b4; stroke-opacity: 0.8"/>
     <use xlink:href="#m7e50a167ec" x="93.95005" y="72.914397" style="fill: #1f77b4; fill-opacity: 0.8; stroke: #1f77b4; stroke-opacity: 0.8"/>
     <use xlink:href="#m7e50a167ec" x="93.95005" y="188.36531" style="fill: #1f77b4; fill-opacity: 0.8; stroke: #1f77b4; stroke-opacity: 0.8"/>
     <use xlink:href="#m7e50a167ec" x="76.046307" y="162.415025" style="fill: #1f77b4; fill-opacity: 0.8; stroke: #1f77b4; stroke-opacity: 0.8"/>
     <use xlink:href="#m7e50a167ec" x="117.821708" y="138.999163" style="fill: #1f77b4; fill-opacity: 0.8; stroke: #1f77b4; stroke-opacity: 0.8"/>
     <use xlink:href="#m7e50a167ec" x="237.179997" y="72.883788" style="fill: #1f77b4; fill-opacity: 0.8; stroke: #1f77b4; stroke-opacity: 0.8"/>
     <use xlink:href="#m7e50a167ec" x="99.917965" y="162.415025" style="fill: #1f77b4; fill-opacity: 0.8; stroke: #1f77b4; stroke-opacity: 0.8"/>
     <use xlink:href="#m7e50a167ec" x="255.08374" y="145.417864" style="fill: #1f77b4; fill-opacity: 0.8; stroke: #1f77b4; stroke-opacity: 0.8"/>
     <use xlink:href="#m7e50a167ec" x="87.982136" y="191.493547" style="fill: #1f77b4; fill-opacity: 0.8; stroke: #1f77b4; stroke-opacity: 0.8"/>
     <use xlink:href="#m7e50a167ec" x="76.046307" y="173.128165" style="fill: #1f77b4; fill-opacity: 0.8; stroke: #1f77b4; stroke-opacity: 0.8"/>
     <use xlink:href="#m7e50a167ec" x="213.308339" y="163.792429" style="fill: #1f77b4; fill-opacity: 0.8; stroke: #1f77b4; stroke-opacity: 0.8"/>
     <use xlink:href="#m7e50a167ec" x="261.051654" y="151.062158" style="fill: #1f77b4; fill-opacity: 0.8; stroke: #1f77b4; stroke-opacity: 0.8"/>
     <use xlink:href="#m7e50a167ec" x="189.436681" y="75.562073" style="fill: #1f77b4; fill-opacity: 0.8; stroke: #1f77b4; stroke-opacity: 0.8"/>
     <use xlink:href="#m7e50a167ec" x="332.666628" y="64.672932" style="fill: #1f77b4; fill-opacity: 0.8; stroke: #1f77b4; stroke-opacity: 0.8"/>
     <use xlink:href="#m7e50a167ec" x="87.982136" y="163.486339" style="fill: #1f77b4; fill-opacity: 0.8; stroke: #1f77b4; stroke-opacity: 0.8"/>
     <use xlink:href="#m7e50a167ec" x="195.404596" y="113.925826" style="fill: #1f77b4; fill-opacity: 0.8; stroke: #1f77b4; stroke-opacity: 0.8"/>
     <use xlink:href="#m7e50a167ec" x="117.821708" y="139.446054" style="fill: #1f77b4; fill-opacity: 0.8; stroke: #1f77b4; stroke-opacity: 0.8"/>
     <use xlink:href="#m7e50a167ec" x="201.37251" y="64.848934" style="fill: #1f77b4; fill-opacity: 0.8; stroke: #1f77b4; stroke-opacity: 0.8"/>
     <use xlink:href="#m7e50a167ec" x="189.436681" y="145.159218" style="fill: #1f77b4; fill-opacity: 0.8; stroke: #1f77b4; stroke-opacity: 0.8"/>
     <use xlink:href="#m7e50a167ec" x="183.468767" y="119.562467" style="fill: #1f77b4; fill-opacity: 0.8; stroke: #1f77b4; stroke-opacity: 0.8"/>
     <use xlink:href="#m7e50a167ec" x="123.789622" y="119.868557" style="fill: #1f77b4; fill-opacity: 0.8; stroke: #1f77b4; stroke-opacity: 0.8"/>
     <use xlink:href="#m7e50a167ec" x="213.308339" y="108.951868" style="fill: #1f77b4; fill-opacity: 0.8; stroke: #1f77b4; stroke-opacity: 0.8"/>
     <use xlink:href="#m7e50a167ec" x="344.602457" y="78.460743" style="fill: #1f77b4; fill-opacity: 0.8; stroke: #1f77b4; stroke-opacity: 0.8"/>
     <use xlink:href="#m7e50a167ec" x="123.789622" y="147.11054" style="fill: #1f77b4; fill-opacity: 0.8; stroke: #1f77b4; stroke-opacity: 0.8"/>
     <use xlink:href="#m7e50a167ec" x="93.95005" y="163.945474" style="fill: #1f77b4; fill-opacity: 0.8; stroke: #1f77b4; stroke-opacity: 0.8"/>
     <use xlink:href="#m7e50a167ec" x="183.468767" y="105.788431" style="fill: #1f77b4; fill-opacity: 0.8; stroke: #1f77b4; stroke-opacity: 0.8"/>
     <use xlink:href="#m7e50a167ec" x="290.891227" y="93.544843" style="fill: #1f77b4; fill-opacity: 0.8; stroke: #1f77b4; stroke-opacity: 0.8"/>
     <use xlink:href="#m7e50a167ec" x="123.789622" y="188.692826" style="fill: #1f77b4; fill-opacity: 0.8; stroke: #1f77b4; stroke-opacity: 0.8"/>
     <use xlink:href="#m7e50a167ec" x="87.982136" y="180.436056" style="fill: #1f77b4; fill-opacity: 0.8; stroke: #1f77b4; stroke-opacity: 0.8"/>
     <use xlink:href="#m7e50a167ec" x="76.046307" y="185.371753" style="fill: #1f77b4; fill-opacity: 0.8; stroke: #1f77b4; stroke-opacity: 0.8"/>
     <use xlink:href="#m7e50a167ec" x="189.436681" y="70.94318" style="fill: #1f77b4; fill-opacity: 0.8; stroke: #1f77b4; stroke-opacity: 0.8"/>
     <use xlink:href="#m7e50a167ec" x="225.244168" y="88.806575" style="fill: #1f77b4; fill-opacity: 0.8; stroke: #1f77b4; stroke-opacity: 0.8"/>
     <use xlink:href="#m7e50a167ec" x="93.95005" y="188.904028" style="fill: #1f77b4; fill-opacity: 0.8; stroke: #1f77b4; stroke-opacity: 0.8"/>
     <use xlink:href="#m7e50a167ec" x="141.693366" y="144.641927" style="fill: #1f77b4; fill-opacity: 0.8; stroke: #1f77b4; stroke-opacity: 0.8"/>
     <use xlink:href="#m7e50a167ec" x="177.500852" y="132.552914" style="fill: #1f77b4; fill-opacity: 0.8; stroke: #1f77b4; stroke-opacity: 0.8"/>
     <use xlink:href="#m7e50a167ec" x="183.468767" y="115.03234" style="fill: #1f77b4; fill-opacity: 0.8; stroke: #1f77b4; stroke-opacity: 0.8"/>
     <use xlink:href="#m7e50a167ec" x="105.885879" y="154.713808" style="fill: #1f77b4; fill-opacity: 0.8; stroke: #1f77b4; stroke-opacity: 0.8"/>
     <use xlink:href="#m7e50a167ec" x="159.597109" y="108.065738" style="fill: #1f77b4; fill-opacity: 0.8; stroke: #1f77b4; stroke-opacity: 0.8"/>
     <use xlink:href="#m7e50a167ec" x="76.046307" y="142.519195" style="fill: #1f77b4; fill-opacity: 0.8; stroke: #1f77b4; stroke-opacity: 0.8"/>
     <use xlink:href="#m7e50a167ec" x="93.95005" y="190.728322" style="fill: #1f77b4; fill-opacity: 0.8; stroke: #1f77b4; stroke-opacity: 0.8"/>
     <use xlink:href="#m7e50a167ec" x="207.340424" y="206.975564" style="fill: #1f77b4; fill-opacity: 0.8; stroke: #1f77b4; stroke-opacity: 0.8"/>
     <use xlink:href="#m7e50a167ec" x="76.046307" y="192.258771" style="fill: #1f77b4; fill-opacity: 0.8; stroke: #1f77b4; stroke-opacity: 0.8"/>
     <use xlink:href="#m7e50a167ec" x="123.789622" y="184.606528" style="fill: #1f77b4; fill-opacity: 0.8; stroke: #1f77b4; stroke-opacity: 0.8"/>
     <use xlink:href="#m7e50a167ec" x="82.014221" y="192.258771" style="fill: #1f77b4; fill-opacity: 0.8; stroke: #1f77b4; stroke-opacity: 0.8"/>
     <use xlink:href="#m7e50a167ec" x="231.212082" y="81.835382" style="fill: #1f77b4; fill-opacity: 0.8; stroke: #1f77b4; stroke-opacity: 0.8"/>
     <use xlink:href="#m7e50a167ec" x="135.725451" y="144.058826" style="fill: #1f77b4; fill-opacity: 0.8; stroke: #1f77b4; stroke-opacity: 0.8"/>
     <use xlink:href="#m7e50a167ec" x="93.95005" y="162.415025" style="fill: #1f77b4; fill-opacity: 0.8; stroke: #1f77b4; stroke-opacity: 0.8"/>
     <use xlink:href="#m7e50a167ec" x="135.725451" y="144.432255" style="fill: #1f77b4; fill-opacity: 0.8; stroke: #1f77b4; stroke-opacity: 0.8"/>
     <use xlink:href="#m7e50a167ec" x="117.821708" y="135.402609" style="fill: #1f77b4; fill-opacity: 0.8; stroke: #1f77b4; stroke-opacity: 0.8"/>
     <use xlink:href="#m7e50a167ec" x="237.179997" y="163.945474" style="fill: #1f77b4; fill-opacity: 0.8; stroke: #1f77b4; stroke-opacity: 0.8"/>
     <use xlink:href="#m7e50a167ec" x="219.276253" y="191.034412" style="fill: #1f77b4; fill-opacity: 0.8; stroke: #1f77b4; stroke-opacity: 0.8"/>
     <use xlink:href="#m7e50a167ec" x="189.436681" y="123.304414" style="fill: #1f77b4; fill-opacity: 0.8; stroke: #1f77b4; stroke-opacity: 0.8"/>
     <use xlink:href="#m7e50a167ec" x="111.853793" y="206.644987" style="fill: #1f77b4; fill-opacity: 0.8; stroke: #1f77b4; stroke-opacity: 0.8"/>
     <use xlink:href="#m7e50a167ec" x="141.693366" y="164.78722" style="fill: #1f77b4; fill-opacity: 0.8; stroke: #1f77b4; stroke-opacity: 0.8"/>
     <use xlink:href="#m7e50a167ec" x="87.982136" y="184.606528" style="fill: #1f77b4; fill-opacity: 0.8; stroke: #1f77b4; stroke-opacity: 0.8"/>
     <use xlink:href="#m7e50a167ec" x="117.821708" y="124.99556" style="fill: #1f77b4; fill-opacity: 0.8; stroke: #1f77b4; stroke-opacity: 0.8"/>
     <use xlink:href="#m7e50a167ec" x="93.95005" y="183.07608" style="fill: #1f77b4; fill-opacity: 0.8; stroke: #1f77b4; stroke-opacity: 0.8"/>
     <use xlink:href="#m7e50a167ec" x="129.757537" y="194.454964" style="fill: #1f77b4; fill-opacity: 0.8; stroke: #1f77b4; stroke-opacity: 0.8"/>
     <use xlink:href="#m7e50a167ec" x="165.565023" y="56.659504" style="fill: #1f77b4; fill-opacity: 0.8; stroke: #1f77b4; stroke-opacity: 0.8"/>
     <use xlink:href="#m7e50a167ec" x="135.725451" y="141.830493" style="fill: #1f77b4; fill-opacity: 0.8; stroke: #1f77b4; stroke-opacity: 0.8"/>
     <use xlink:href="#m7e50a167ec" x="111.853793" y="143.22014" style="fill: #1f77b4; fill-opacity: 0.8; stroke: #1f77b4; stroke-opacity: 0.8"/>
     <use xlink:href="#m7e50a167ec" x="177.500852" y="112.963174" style="fill: #1f77b4; fill-opacity: 0.8; stroke: #1f77b4; stroke-opacity: 0.8"/>
     <use xlink:href="#m7e50a167ec" x="159.597109" y="134.937353" style="fill: #1f77b4; fill-opacity: 0.8; stroke: #1f77b4; stroke-opacity: 0.8"/>
     <use xlink:href="#m7e50a167ec" x="165.565023" y="135.408731" style="fill: #1f77b4; fill-opacity: 0.8; stroke: #1f77b4; stroke-opacity: 0.8"/>
    </g>
   </g>
   <g id="PolyCollection_1">
    <defs>
     <path id="m2dda7c180c" d="M 76.046307 -108.089816 
L 76.046307 -82.474985 
L 79.120687 -83.794701 
L 82.195067 -85.180043 
L 85.269447 -86.593869 
L 88.343827 -88.008754 
L 91.418208 -89.331861 
L 94.492588 -90.54137 
L 97.566968 -91.708222 
L 100.641348 -93.027725 
L 103.715728 -94.46969 
L 106.790108 -95.70859 
L 109.864489 -96.866734 
L 112.938869 -98.191891 
L 116.013249 -99.273405 
L 119.087629 -100.476939 
L 122.162009 -101.692191 
L 125.236389 -102.852991 
L 128.31077 -104.183661 
L 131.38515 -105.345376 
L 134.45953 -106.323078 
L 137.53391 -107.254262 
L 140.60829 -108.14256 
L 143.68267 -108.969861 
L 146.757051 -110.043988 
L 149.831431 -110.800647 
L 152.905811 -111.789345 
L 155.980191 -112.54838 
L 159.054571 -113.322211 
L 162.128951 -113.998116 
L 165.203332 -114.799517 
L 168.277712 -115.489402 
L 171.352092 -116.019486 
L 174.426472 -116.472328 
L 177.500852 -117.051806 
L 180.575232 -117.656571 
L 183.649613 -118.341168 
L 186.723993 -118.893716 
L 189.798373 -119.371541 
L 192.872753 -119.966215 
L 195.947133 -120.600907 
L 199.021513 -121.194884 
L 202.095894 -121.747159 
L 205.170274 -122.54502 
L 208.244654 -122.989855 
L 211.319034 -123.575472 
L 214.393414 -124.109842 
L 217.467794 -124.492387 
L 220.542175 -124.887664 
L 223.616555 -125.19007 
L 226.690935 -125.641801 
L 229.765315 -126.158708 
L 232.839695 -126.675615 
L 235.914075 -127.192523 
L 238.988456 -127.711714 
L 242.062836 -128.235981 
L 245.137216 -128.799367 
L 248.211596 -129.301042 
L 251.285976 -129.792614 
L 254.360356 -130.310305 
L 257.434737 -130.827997 
L 260.509117 -131.292102 
L 263.583497 -131.657666 
L 266.657877 -132.125182 
L 269.732257 -132.592699 
L 272.806637 -133.065535 
L 275.881018 -133.538986 
L 278.955398 -134.012438 
L 282.029778 -134.485889 
L 285.104158 -134.974493 
L 288.178538 -135.524595 
L 291.252918 -136.074696 
L 294.327299 -136.624797 
L 297.401679 -137.174898 
L 300.476059 -137.530713 
L 303.550439 -137.786763 
L 306.624819 -138.25191 
L 309.699199 -138.717057 
L 312.77358 -139.182204 
L 315.84796 -139.647351 
L 318.92234 -140.112975 
L 321.99672 -140.584661 
L 325.0711 -141.044459 
L 328.14548 -141.458749 
L 331.219861 -141.873173 
L 334.294241 -142.287676 
L 337.368621 -142.702179 
L 340.443001 -143.116682 
L 343.517381 -143.531185 
L 346.591761 -143.945689 
L 349.666142 -144.360192 
L 352.740522 -144.774695 
L 355.814902 -145.189198 
L 358.889282 -145.603701 
L 361.963662 -146.018204 
L 365.038042 -146.432707 
L 368.112423 -146.84721 
L 371.186803 -147.261713 
L 374.261183 -147.676216 
L 377.335563 -148.154026 
L 380.409943 -148.642128 
L 380.409943 -231.014764 
L 380.409943 -231.014764 
L 377.335563 -229.50714 
L 374.261183 -227.999516 
L 371.186803 -226.491892 
L 368.112423 -224.983015 
L 365.038042 -223.47372 
L 361.963662 -221.964425 
L 358.889282 -220.455129 
L 355.814902 -218.981618 
L 352.740522 -217.574177 
L 349.666142 -216.1424 
L 346.591761 -214.635062 
L 343.517381 -213.127724 
L 340.443001 -211.620386 
L 337.368621 -210.113048 
L 334.294241 -208.60571 
L 331.219861 -207.121287 
L 328.14548 -205.685833 
L 325.0711 -204.250379 
L 321.99672 -202.814926 
L 318.92234 -201.379472 
L 315.84796 -199.944018 
L 312.77358 -198.508565 
L 309.699199 -197.073111 
L 306.624819 -195.637657 
L 303.550439 -194.202204 
L 300.476059 -192.795728 
L 297.401679 -191.39568 
L 294.327299 -189.988723 
L 291.252918 -188.597658 
L 288.178538 -187.200218 
L 285.104158 -185.801409 
L 282.029778 -184.403747 
L 278.955398 -183.006322 
L 275.881018 -181.549337 
L 272.806637 -180.041198 
L 269.732257 -178.530828 
L 266.657877 -177.020458 
L 263.583497 -175.550235 
L 260.509117 -174.089031 
L 257.434737 -172.596288 
L 254.360356 -171.09807 
L 251.285976 -169.538831 
L 248.211596 -168.011586 
L 245.137216 -166.490352 
L 242.062836 -165.114625 
L 238.988456 -163.760593 
L 235.914075 -162.412355 
L 232.839695 -161.004065 
L 229.765315 -159.711371 
L 226.690935 -158.335617 
L 223.616555 -157.012895 
L 220.542175 -155.635131 
L 217.467794 -154.278712 
L 214.393414 -152.756554 
L 211.319034 -151.230609 
L 208.244654 -149.922065 
L 205.170274 -148.392612 
L 202.095894 -146.867264 
L 199.021513 -145.4278 
L 195.947133 -144.083082 
L 192.872753 -142.802918 
L 189.798373 -141.520825 
L 186.723993 -140.242588 
L 183.649613 -138.958716 
L 180.575232 -137.525206 
L 177.500852 -136.08705 
L 174.426472 -134.804987 
L 171.352092 -133.720759 
L 168.277712 -132.387628 
L 165.203332 -131.272969 
L 162.128951 -129.903743 
L 159.054571 -128.747294 
L 155.980191 -127.664392 
L 152.905811 -126.602858 
L 149.831431 -125.535824 
L 146.757051 -124.503645 
L 143.68267 -123.369747 
L 140.60829 -122.348978 
L 137.53391 -121.192332 
L 134.45953 -120.439185 
L 131.38515 -119.465475 
L 128.31077 -118.568814 
L 125.236389 -117.812054 
L 122.162009 -117.133771 
L 119.087629 -116.320627 
L 116.013249 -115.343094 
L 112.938869 -114.719838 
L 109.864489 -114.013861 
L 106.790108 -113.450657 
L 103.715728 -112.932059 
L 100.641348 -112.335796 
L 97.566968 -111.746454 
L 94.492588 -111.278632 
L 91.418208 -110.846513 
L 88.343827 -110.396731 
L 85.269447 -109.823325 
L 82.195067 -109.243521 
L 79.120687 -108.611429 
L 76.046307 -108.089816 
z
" style="stroke: #ffffff; stroke-opacity: 0.15"/>
    </defs>
    <g clip-path="url(#p5690003e9e)">
     <use xlink:href="#m2dda7c180c" x="0" y="261.130625" style="fill: #1f77b4; fill-opacity: 0.15; stroke: #ffffff; stroke-opacity: 0.15"/>
    </g>
   </g>
   <g id="line2d_14">
    <path d="M 76.046307 166.418396 
L 79.120687 165.444387 
L 82.195067 164.470378 
L 85.269447 163.496369 
L 88.343827 162.52236 
L 91.418208 161.548351 
L 94.492588 160.574341 
L 97.566968 159.600332 
L 100.641348 158.626323 
L 103.715728 157.652314 
L 106.790108 156.678305 
L 109.864489 155.704296 
L 112.938869 154.730287 
L 116.013249 153.756278 
L 119.087629 152.782269 
L 122.162009 151.80826 
L 125.236389 150.83425 
L 128.31077 149.860241 
L 131.38515 148.886232 
L 134.45953 147.912223 
L 137.53391 146.938214 
L 140.60829 145.964205 
L 143.68267 144.990196 
L 146.757051 144.016187 
L 149.831431 143.042178 
L 152.905811 142.068168 
L 155.980191 141.094159 
L 159.054571 140.12015 
L 162.128951 139.146141 
L 165.203332 138.172132 
L 168.277712 137.198123 
L 171.352092 136.224114 
L 174.426472 135.250105 
L 177.500852 134.276096 
L 180.575232 133.302087 
L 183.649613 132.328077 
L 186.723993 131.354068 
L 189.798373 130.380059 
L 192.872753 129.40605 
L 195.947133 128.432041 
L 199.021513 127.458032 
L 202.095894 126.484023 
L 205.170274 125.510014 
L 208.244654 124.536005 
L 211.319034 123.561995 
L 214.393414 122.587986 
L 217.467794 121.613977 
L 220.542175 120.639968 
L 223.616555 119.665959 
L 226.690935 118.69195 
L 229.765315 117.717941 
L 232.839695 116.743932 
L 235.914075 115.769923 
L 238.988456 114.795913 
L 242.062836 113.821904 
L 245.137216 112.847895 
L 248.211596 111.873886 
L 251.285976 110.899877 
L 254.360356 109.925868 
L 257.434737 108.951859 
L 260.509117 107.97785 
L 263.583497 107.003841 
L 266.657877 106.029832 
L 269.732257 105.055822 
L 272.806637 104.081813 
L 275.881018 103.107804 
L 278.955398 102.133795 
L 282.029778 101.159786 
L 285.104158 100.185777 
L 288.178538 99.211768 
L 291.252918 98.237759 
L 294.327299 97.26375 
L 297.401679 96.28974 
L 300.476059 95.315731 
L 303.550439 94.341722 
L 306.624819 93.367713 
L 309.699199 92.393704 
L 312.77358 91.419695 
L 315.84796 90.445686 
L 318.92234 89.471677 
L 321.99672 88.497668 
L 325.0711 87.523659 
L 328.14548 86.549649 
L 331.219861 85.57564 
L 334.294241 84.601631 
L 337.368621 83.627622 
L 340.443001 82.653613 
L 343.517381 81.679604 
L 346.591761 80.705595 
L 349.666142 79.731586 
L 352.740522 78.757577 
L 355.814902 77.783567 
L 358.889282 76.809558 
L 361.963662 75.835549 
L 365.038042 74.86154 
L 368.112423 73.887531 
L 371.186803 72.913522 
L 374.261183 71.939513 
L 377.335563 70.965504 
L 380.409943 69.991495 
" clip-path="url(#p5690003e9e)" style="fill: none; stroke: #1f77b4; stroke-width: 2.25; stroke-linecap: round"/>
   </g>
   <g id="patch_3">
    <path d="M 60.828125 224.64 
L 60.828125 7.2 
" style="fill: none; stroke: #cccccc; stroke-width: 0.8; stroke-linejoin: miter; stroke-linecap: square"/>
   </g>
   <g id="patch_4">
    <path d="M 395.628125 224.64 
L 395.628125 7.2 
" style="fill: none; stroke: #cccccc; stroke-width: 0.8; stroke-linejoin: miter; stroke-linecap: square"/>
   </g>
   <g id="patch_5">
    <path d="M 60.828125 224.64 
L 395.628125 224.64 
" style="fill: none; stroke: #cccccc; stroke-width: 0.8; stroke-linejoin: miter; stroke-linecap: square"/>
   </g>
   <g id="patch_6">
    <path d="M 60.828125 7.2 
L 395.628125 7.2 
" style="fill: none; stroke: #cccccc; stroke-width: 0.8; stroke-linejoin: miter; stroke-linecap: square"/>
   </g>
  </g>
 </g>
 <defs>
  <clipPath id="p5690003e9e">
   <rect x="60.828125" y="7.2" width="334.8" height="217.44"/>
  </clipPath>
 </defs>
</svg>
