<?xml version="1.0" encoding="utf-8" standalone="no"?>
<!DOCTYPE svg PUBLIC "-//W3C//DTD SVG 1.1//EN"
  "http://www.w3.org/Graphics/SVG/1.1/DTD/svg11.dtd">
<svg xmlns:xlink="http://www.w3.org/1999/xlink" width="349.2pt" height="261.247813pt" viewBox="0 0 349.2 261.247813" xmlns="http://www.w3.org/2000/svg" version="1.1">
 <metadata>
  <rdf:RDF xmlns:dc="http://purl.org/dc/elements/1.1/" xmlns:cc="http://creativecommons.org/ns#" xmlns:rdf="http://www.w3.org/1999/02/22-rdf-syntax-ns#">
   <cc:Work>
    <dc:type rdf:resource="http://purl.org/dc/dcmitype/StillImage"/>
    <dc:date>2022-02-04T21:33:52.058163</dc:date>
    <dc:format>image/svg+xml</dc:format>
    <dc:creator>
     <cc:Agent>
      <dc:title>Matplotlib v3.5.0, https://matplotlib.org/</dc:title>
     </cc:Agent>
    </dc:creator>
   </cc:Work>
  </rdf:RDF>
 </metadata>
 <defs>
  <style type="text/css">*{stroke-linejoin: round; stroke-linecap: butt}</style>
 </defs>
 <g id="figure_1">
  <g id="patch_1">
   <path d="M 0 261.247813 
L 349.2 261.247813 
L 349.2 0 
L 0 0 
z
" style="fill: #ffffff"/>
  </g>
  <g id="axes_1">
   <g id="patch_2">
    <path d="M 7.2 224.64 
L 342 224.64 
L 342 7.2 
L 7.2 7.2 
z
" style="fill: #ffffff"/>
   </g>
   <g id="matplotlib.axis_1">
    <g id="xtick_1">
     <g id="line2d_1">
      <path d="M 49.949818 224.64 
L 49.949818 7.2 
" clip-path="url(#p24628d3a09)" style="fill: none; stroke: #cccccc; stroke-width: 0.8; stroke-linecap: round"/>
     </g>
     <g id="text_1">
      <!-- 50000 -->
      <g style="fill: #262626" transform="translate(36.047474 238.797812)scale(0.1 -0.1)">
       <defs>
        <path id="ArialMT-35" d="M 266 1200 
L 856 1250 
Q 922 819 1161 601 
Q 1400 384 1738 384 
Q 2144 384 2425 690 
Q 2706 997 2706 1503 
Q 2706 1984 2436 2262 
Q 2166 2541 1728 2541 
Q 1456 2541 1237 2417 
Q 1019 2294 894 2097 
L 366 2166 
L 809 4519 
L 3088 4519 
L 3088 3981 
L 1259 3981 
L 1013 2750 
Q 1425 3038 1878 3038 
Q 2478 3038 2890 2622 
Q 3303 2206 3303 1553 
Q 3303 931 2941 478 
Q 2500 -78 1738 -78 
Q 1113 -78 717 272 
Q 322 622 266 1200 
z
" transform="scale(0.015625)"/>
        <path id="ArialMT-30" d="M 266 2259 
Q 266 3072 433 3567 
Q 600 4063 929 4331 
Q 1259 4600 1759 4600 
Q 2128 4600 2406 4451 
Q 2684 4303 2865 4023 
Q 3047 3744 3150 3342 
Q 3253 2941 3253 2259 
Q 3253 1453 3087 958 
Q 2922 463 2592 192 
Q 2263 -78 1759 -78 
Q 1097 -78 719 397 
Q 266 969 266 2259 
z
M 844 2259 
Q 844 1131 1108 757 
Q 1372 384 1759 384 
Q 2147 384 2411 759 
Q 2675 1134 2675 2259 
Q 2675 3391 2411 3762 
Q 2147 4134 1753 4134 
Q 1366 4134 1134 3806 
Q 844 3388 844 2259 
z
" transform="scale(0.015625)"/>
       </defs>
       <use xlink:href="#ArialMT-35"/>
       <use xlink:href="#ArialMT-30" x="55.615234"/>
       <use xlink:href="#ArialMT-30" x="111.230469"/>
       <use xlink:href="#ArialMT-30" x="166.845703"/>
       <use xlink:href="#ArialMT-30" x="222.460938"/>
      </g>
     </g>
    </g>
    <g id="xtick_2">
     <g id="line2d_2">
      <path d="M 93.003901 224.64 
L 93.003901 7.2 
" clip-path="url(#p24628d3a09)" style="fill: none; stroke: #cccccc; stroke-width: 0.8; stroke-linecap: round"/>
     </g>
     <g id="text_2">
      <!-- 75000 -->
      <g style="fill: #262626" transform="translate(79.101558 238.797812)scale(0.1 -0.1)">
       <defs>
        <path id="ArialMT-37" d="M 303 3981 
L 303 4522 
L 3269 4522 
L 3269 4084 
Q 2831 3619 2401 2847 
Q 1972 2075 1738 1259 
Q 1569 684 1522 0 
L 944 0 
Q 953 541 1156 1306 
Q 1359 2072 1739 2783 
Q 2119 3494 2547 3981 
L 303 3981 
z
" transform="scale(0.015625)"/>
       </defs>
       <use xlink:href="#ArialMT-37"/>
       <use xlink:href="#ArialMT-35" x="55.615234"/>
       <use xlink:href="#ArialMT-30" x="111.230469"/>
       <use xlink:href="#ArialMT-30" x="166.845703"/>
       <use xlink:href="#ArialMT-30" x="222.460938"/>
      </g>
     </g>
    </g>
    <g id="xtick_3">
     <g id="line2d_3">
      <path d="M 136.057985 224.64 
L 136.057985 7.2 
" clip-path="url(#p24628d3a09)" style="fill: none; stroke: #cccccc; stroke-width: 0.8; stroke-linecap: round"/>
     </g>
     <g id="text_3">
      <!-- 100000 -->
      <g style="fill: #262626" transform="translate(119.375172 238.797812)scale(0.1 -0.1)">
       <defs>
        <path id="ArialMT-31" d="M 2384 0 
L 1822 0 
L 1822 3584 
Q 1619 3391 1289 3197 
Q 959 3003 697 2906 
L 697 3450 
Q 1169 3672 1522 3987 
Q 1875 4303 2022 4600 
L 2384 4600 
L 2384 0 
z
" transform="scale(0.015625)"/>
       </defs>
       <use xlink:href="#ArialMT-31"/>
       <use xlink:href="#ArialMT-30" x="55.615234"/>
       <use xlink:href="#ArialMT-30" x="111.230469"/>
       <use xlink:href="#ArialMT-30" x="166.845703"/>
       <use xlink:href="#ArialMT-30" x="222.460938"/>
       <use xlink:href="#ArialMT-30" x="278.076172"/>
      </g>
     </g>
    </g>
    <g id="xtick_4">
     <g id="line2d_4">
      <path d="M 179.112068 224.64 
L 179.112068 7.2 
" clip-path="url(#p24628d3a09)" style="fill: none; stroke: #cccccc; stroke-width: 0.8; stroke-linecap: round"/>
     </g>
     <g id="text_4">
      <!-- 125000 -->
      <g style="fill: #262626" transform="translate(162.429255 238.797812)scale(0.1 -0.1)">
       <defs>
        <path id="ArialMT-32" d="M 3222 541 
L 3222 0 
L 194 0 
Q 188 203 259 391 
Q 375 700 629 1000 
Q 884 1300 1366 1694 
Q 2113 2306 2375 2664 
Q 2638 3022 2638 3341 
Q 2638 3675 2398 3904 
Q 2159 4134 1775 4134 
Q 1369 4134 1125 3890 
Q 881 3647 878 3216 
L 300 3275 
Q 359 3922 746 4261 
Q 1134 4600 1788 4600 
Q 2447 4600 2831 4234 
Q 3216 3869 3216 3328 
Q 3216 3053 3103 2787 
Q 2991 2522 2730 2228 
Q 2469 1934 1863 1422 
Q 1356 997 1212 845 
Q 1069 694 975 541 
L 3222 541 
z
" transform="scale(0.015625)"/>
       </defs>
       <use xlink:href="#ArialMT-31"/>
       <use xlink:href="#ArialMT-32" x="55.615234"/>
       <use xlink:href="#ArialMT-35" x="111.230469"/>
       <use xlink:href="#ArialMT-30" x="166.845703"/>
       <use xlink:href="#ArialMT-30" x="222.460938"/>
       <use xlink:href="#ArialMT-30" x="278.076172"/>
      </g>
     </g>
    </g>
    <g id="xtick_5">
     <g id="line2d_5">
      <path d="M 222.166151 224.64 
L 222.166151 7.2 
" clip-path="url(#p24628d3a09)" style="fill: none; stroke: #cccccc; stroke-width: 0.8; stroke-linecap: round"/>
     </g>
     <g id="text_5">
      <!-- 150000 -->
      <g style="fill: #262626" transform="translate(205.483339 238.797812)scale(0.1 -0.1)">
       <use xlink:href="#ArialMT-31"/>
       <use xlink:href="#ArialMT-35" x="55.615234"/>
       <use xlink:href="#ArialMT-30" x="111.230469"/>
       <use xlink:href="#ArialMT-30" x="166.845703"/>
       <use xlink:href="#ArialMT-30" x="222.460938"/>
       <use xlink:href="#ArialMT-30" x="278.076172"/>
      </g>
     </g>
    </g>
    <g id="xtick_6">
     <g id="line2d_6">
      <path d="M 265.220234 224.64 
L 265.220234 7.2 
" clip-path="url(#p24628d3a09)" style="fill: none; stroke: #cccccc; stroke-width: 0.8; stroke-linecap: round"/>
     </g>
     <g id="text_6">
      <!-- 175000 -->
      <g style="fill: #262626" transform="translate(248.537422 238.797812)scale(0.1 -0.1)">
       <use xlink:href="#ArialMT-31"/>
       <use xlink:href="#ArialMT-37" x="55.615234"/>
       <use xlink:href="#ArialMT-35" x="111.230469"/>
       <use xlink:href="#ArialMT-30" x="166.845703"/>
       <use xlink:href="#ArialMT-30" x="222.460938"/>
       <use xlink:href="#ArialMT-30" x="278.076172"/>
      </g>
     </g>
    </g>
    <g id="xtick_7">
     <g id="line2d_7">
      <path d="M 308.274318 224.64 
L 308.274318 7.2 
" clip-path="url(#p24628d3a09)" style="fill: none; stroke: #cccccc; stroke-width: 0.8; stroke-linecap: round"/>
     </g>
     <g id="text_7">
      <!-- 200000 -->
      <g style="fill: #262626" transform="translate(291.591505 238.797812)scale(0.1 -0.1)">
       <use xlink:href="#ArialMT-32"/>
       <use xlink:href="#ArialMT-30" x="55.615234"/>
       <use xlink:href="#ArialMT-30" x="111.230469"/>
       <use xlink:href="#ArialMT-30" x="166.845703"/>
       <use xlink:href="#ArialMT-30" x="222.460938"/>
       <use xlink:href="#ArialMT-30" x="278.076172"/>
      </g>
     </g>
    </g>
    <g id="text_8">
     <!-- salary -->
     <g style="fill: #262626" transform="translate(161.263281 251.943125)scale(0.1 -0.1)">
      <defs>
       <path id="ArialMT-73" d="M 197 991 
L 753 1078 
Q 800 744 1014 566 
Q 1228 388 1613 388 
Q 2000 388 2187 545 
Q 2375 703 2375 916 
Q 2375 1106 2209 1216 
Q 2094 1291 1634 1406 
Q 1016 1563 777 1677 
Q 538 1791 414 1992 
Q 291 2194 291 2438 
Q 291 2659 392 2848 
Q 494 3038 669 3163 
Q 800 3259 1026 3326 
Q 1253 3394 1513 3394 
Q 1903 3394 2198 3281 
Q 2494 3169 2634 2976 
Q 2775 2784 2828 2463 
L 2278 2388 
Q 2241 2644 2061 2787 
Q 1881 2931 1553 2931 
Q 1166 2931 1000 2803 
Q 834 2675 834 2503 
Q 834 2394 903 2306 
Q 972 2216 1119 2156 
Q 1203 2125 1616 2013 
Q 2213 1853 2448 1751 
Q 2684 1650 2818 1456 
Q 2953 1263 2953 975 
Q 2953 694 2789 445 
Q 2625 197 2315 61 
Q 2006 -75 1616 -75 
Q 969 -75 630 194 
Q 291 463 197 991 
z
" transform="scale(0.015625)"/>
       <path id="ArialMT-61" d="M 2588 409 
Q 2275 144 1986 34 
Q 1697 -75 1366 -75 
Q 819 -75 525 192 
Q 231 459 231 875 
Q 231 1119 342 1320 
Q 453 1522 633 1644 
Q 813 1766 1038 1828 
Q 1203 1872 1538 1913 
Q 2219 1994 2541 2106 
Q 2544 2222 2544 2253 
Q 2544 2597 2384 2738 
Q 2169 2928 1744 2928 
Q 1347 2928 1158 2789 
Q 969 2650 878 2297 
L 328 2372 
Q 403 2725 575 2942 
Q 747 3159 1072 3276 
Q 1397 3394 1825 3394 
Q 2250 3394 2515 3294 
Q 2781 3194 2906 3042 
Q 3031 2891 3081 2659 
Q 3109 2516 3109 2141 
L 3109 1391 
Q 3109 606 3145 398 
Q 3181 191 3288 0 
L 2700 0 
Q 2613 175 2588 409 
z
M 2541 1666 
Q 2234 1541 1622 1453 
Q 1275 1403 1131 1340 
Q 988 1278 909 1158 
Q 831 1038 831 891 
Q 831 666 1001 516 
Q 1172 366 1500 366 
Q 1825 366 2078 508 
Q 2331 650 2450 897 
Q 2541 1088 2541 1459 
L 2541 1666 
z
" transform="scale(0.015625)"/>
       <path id="ArialMT-6c" d="M 409 0 
L 409 4581 
L 972 4581 
L 972 0 
L 409 0 
z
" transform="scale(0.015625)"/>
       <path id="ArialMT-72" d="M 416 0 
L 416 3319 
L 922 3319 
L 922 2816 
Q 1116 3169 1280 3281 
Q 1444 3394 1641 3394 
Q 1925 3394 2219 3213 
L 2025 2691 
Q 1819 2813 1613 2813 
Q 1428 2813 1281 2702 
Q 1134 2591 1072 2394 
Q 978 2094 978 1738 
L 978 0 
L 416 0 
z
" transform="scale(0.015625)"/>
       <path id="ArialMT-79" d="M 397 -1278 
L 334 -750 
Q 519 -800 656 -800 
Q 844 -800 956 -737 
Q 1069 -675 1141 -563 
Q 1194 -478 1313 -144 
Q 1328 -97 1363 -6 
L 103 3319 
L 709 3319 
L 1400 1397 
Q 1534 1031 1641 628 
Q 1738 1016 1872 1384 
L 2581 3319 
L 3144 3319 
L 1881 -56 
Q 1678 -603 1566 -809 
Q 1416 -1088 1222 -1217 
Q 1028 -1347 759 -1347 
Q 597 -1347 397 -1278 
z
" transform="scale(0.015625)"/>
      </defs>
      <use xlink:href="#ArialMT-73"/>
      <use xlink:href="#ArialMT-61" x="50"/>
      <use xlink:href="#ArialMT-6c" x="105.615234"/>
      <use xlink:href="#ArialMT-61" x="127.832031"/>
      <use xlink:href="#ArialMT-72" x="183.447266"/>
      <use xlink:href="#ArialMT-79" x="216.748047"/>
     </g>
    </g>
   </g>
   <g id="matplotlib.axis_2">
    <g id="ytick_1"/>
   </g>
   <g id="PolyCollection_1">
    <defs>
     <path id="m439f574b3d" d="M 22.418182 -144.494224 
L 22.418182 -146.161401 
L 25.492562 -146.507724 
L 28.566942 -146.96972 
L 31.641322 -147.575123 
L 34.715702 -148.354788 
L 37.790083 -149.342018 
L 40.864463 -150.571539 
L 43.938843 -152.078087 
L 47.013223 -153.894559 
L 50.087603 -156.049736 
L 53.161983 -158.56561 
L 56.236364 -161.454444 
L 59.310744 -164.715769 
L 62.385124 -168.333677 
L 65.459504 -172.274817 
L 68.533884 -176.487586 
L 71.608264 -180.902952 
L 74.682645 -185.437207 
L 77.757025 -189.99672 
L 80.831405 -194.484386 
L 83.905785 -198.807178 
L 86.980165 -202.883864 
L 90.054545 -206.651834 
L 93.128926 -210.071969 
L 96.203306 -213.130759 
L 99.277686 -215.839235 
L 102.352066 -218.228826 
L 105.426446 -220.344716 
L 108.500826 -222.237682 
L 111.575207 -223.955617 
L 114.649587 -225.535951 
L 117.723967 -226.99997 
L 120.798347 -228.349751 
L 123.872727 -229.567978 
L 126.947107 -230.620534 
L 130.021488 -231.461401 
L 133.095868 -232.039103 
L 136.170248 -232.303812 
L 139.244628 -232.214119 
L 142.319008 -231.742588 
L 145.393388 -230.879358 
L 148.467769 -229.633346 
L 151.542149 -228.031002 
L 154.616529 -226.112925 
L 157.690909 -223.929047 
L 160.765289 -221.533312 
L 163.839669 -218.978849 
L 166.91405 -216.31449 
L 169.98843 -213.583136 
L 173.06281 -210.822054 
L 176.13719 -208.064684 
L 179.21157 -205.343195 
L 182.28595 -202.690841 
L 185.360331 -200.143202 
L 188.434711 -197.737701 
L 191.509091 -195.511198 
L 194.583471 -193.495926 
L 197.657851 -191.714505 
L 200.732231 -190.174997 
L 203.806612 -188.867069 
L 206.880992 -187.760155 
L 209.955372 -186.80419 
L 213.029752 -185.933066 
L 216.104132 -185.070448 
L 219.178512 -184.137272 
L 222.252893 -183.059899 
L 225.327273 -181.777862 
L 228.401653 -180.250206 
L 231.476033 -178.459627 
L 234.550413 -176.413986 
L 237.624793 -174.145102 
L 240.699174 -171.705107 
L 243.773554 -169.160919 
L 246.847934 -166.587566 
L 249.922314 -164.061176 
L 252.996694 -161.652397 
L 256.071074 -159.420896 
L 259.145455 -157.411379 
L 262.219835 -155.651406 
L 265.294215 -154.151003 
L 268.368595 -152.903925 
L 271.442975 -151.890269 
L 274.517355 -151.080008 
L 277.591736 -150.436999 
L 280.666116 -149.922992 
L 283.740496 -149.501249 
L 286.814876 -149.139434 
L 289.889256 -148.811588 
L 292.963636 -148.499099 
L 296.038017 -148.190728 
L 299.112397 -147.881841 
L 302.186777 -147.573077 
L 305.261157 -147.268718 
L 308.335537 -146.975006 
L 311.409917 -146.698639 
L 314.484298 -146.445583 
L 317.558678 -146.220279 
L 320.633058 -146.025262 
L 323.707438 -145.861124 
L 326.781818 -145.726747 
L 326.781818 -144.928878 
L 326.781818 -144.928878 
L 323.707438 -144.794501 
L 320.633058 -144.630363 
L 317.558678 -144.435346 
L 314.484298 -144.210042 
L 311.409917 -143.956986 
L 308.335537 -143.680619 
L 305.261157 -143.386907 
L 302.186777 -143.082548 
L 299.112397 -142.773784 
L 296.038017 -142.464897 
L 292.963636 -142.156526 
L 289.889256 -141.844037 
L 286.814876 -141.516191 
L 283.740496 -141.154376 
L 280.666116 -140.732633 
L 277.591736 -140.218626 
L 274.517355 -139.575617 
L 271.442975 -138.765356 
L 268.368595 -137.7517 
L 265.294215 -136.504622 
L 262.219835 -135.004219 
L 259.145455 -133.244246 
L 256.071074 -131.234729 
L 252.996694 -129.003228 
L 249.922314 -126.594449 
L 246.847934 -124.068059 
L 243.773554 -121.494706 
L 240.699174 -118.950518 
L 237.624793 -116.510523 
L 234.550413 -114.241639 
L 231.476033 -112.195998 
L 228.401653 -110.405419 
L 225.327273 -108.877763 
L 222.252893 -107.595726 
L 219.178512 -106.518353 
L 216.104132 -105.585177 
L 213.029752 -104.722559 
L 209.955372 -103.851435 
L 206.880992 -102.89547 
L 203.806612 -101.788556 
L 200.732231 -100.480628 
L 197.657851 -98.94112 
L 194.583471 -97.159699 
L 191.509091 -95.144427 
L 188.434711 -92.917924 
L 185.360331 -90.512423 
L 182.28595 -87.964784 
L 179.21157 -85.31243 
L 176.13719 -82.590941 
L 173.06281 -79.833571 
L 169.98843 -77.072489 
L 166.91405 -74.341135 
L 163.839669 -71.676776 
L 160.765289 -69.122313 
L 157.690909 -66.726578 
L 154.616529 -64.5427 
L 151.542149 -62.624623 
L 148.467769 -61.022279 
L 145.393388 -59.776267 
L 142.319008 -58.913037 
L 139.244628 -58.441506 
L 136.170248 -58.351812 
L 133.095868 -58.616522 
L 130.021488 -59.194224 
L 126.947107 -60.035091 
L 123.872727 -61.087647 
L 120.798347 -62.305874 
L 117.723967 -63.655655 
L 114.649587 -65.119674 
L 111.575207 -66.700008 
L 108.500826 -68.417943 
L 105.426446 -70.310909 
L 102.352066 -72.426799 
L 99.277686 -74.81639 
L 96.203306 -77.524866 
L 93.128926 -80.583656 
L 90.054545 -84.003791 
L 86.980165 -87.771761 
L 83.905785 -91.848447 
L 80.831405 -96.171239 
L 77.757025 -100.658905 
L 74.682645 -105.218418 
L 71.608264 -109.752673 
L 68.533884 -114.168039 
L 65.459504 -118.380808 
L 62.385124 -122.321948 
L 59.310744 -125.939856 
L 56.236364 -129.201181 
L 53.161983 -132.090015 
L 50.087603 -134.605889 
L 47.013223 -136.761066 
L 43.938843 -138.577538 
L 40.864463 -140.084086 
L 37.790083 -141.313607 
L 34.715702 -142.300837 
L 31.641322 -143.080502 
L 28.566942 -143.685905 
L 25.492562 -144.147901 
L 22.418182 -144.494224 
z
" style="stroke: #3f3f3f; stroke-width: 1.5"/>
    </defs>
    <g clip-path="url(#p24628d3a09)">
     <use xlink:href="#m439f574b3d" x="0" y="261.247813" style="fill: #3274a1; stroke: #3f3f3f; stroke-width: 1.5"/>
    </g>
   </g>
   <g id="line2d_8">
    <path d="M 63.382692 115.92 
L 243.176544 115.92 
" clip-path="url(#p24628d3a09)" style="fill: none; stroke: #3f3f3f; stroke-width: 1.5; stroke-linecap: round"/>
   </g>
   <g id="line2d_9">
    <path d="M 115.392025 115.92 
L 181.35088 115.92 
" clip-path="url(#p24628d3a09)" style="fill: none; stroke: #3f3f3f; stroke-width: 4.5; stroke-linecap: round"/>
   </g>
   <g id="patch_3">
    <path d="M 7.2 224.64 
L 7.2 7.2 
" style="fill: none; stroke: #cccccc; stroke-width: 0.8; stroke-linejoin: miter; stroke-linecap: square"/>
   </g>
   <g id="patch_4">
    <path d="M 342 224.64 
L 342 7.2 
" style="fill: none; stroke: #cccccc; stroke-width: 0.8; stroke-linejoin: miter; stroke-linecap: square"/>
   </g>
   <g id="patch_5">
    <path d="M 7.2 224.64 
L 342 224.64 
" style="fill: none; stroke: #cccccc; stroke-width: 0.8; stroke-linejoin: miter; stroke-linecap: square"/>
   </g>
   <g id="patch_6">
    <path d="M 7.2 7.2 
L 342 7.2 
" style="fill: none; stroke: #cccccc; stroke-width: 0.8; stroke-linejoin: miter; stroke-linecap: square"/>
   </g>
   <g id="PathCollection_1">
    <defs>
     <path id="mb9cc7964a8" d="M 0 1.5 
C 0.397805 1.5 0.77937 1.341951 1.06066 1.06066 
C 1.341951 0.77937 1.5 0.397805 1.5 0 
C 1.5 -0.397805 1.341951 -0.77937 1.06066 -1.06066 
C 0.77937 -1.341951 0.397805 -1.5 0 -1.5 
C -0.397805 -1.5 -0.77937 -1.341951 -1.06066 -1.06066 
C -1.341951 -0.77937 -1.5 -0.397805 -1.5 0 
C -1.5 0.397805 -1.341951 0.77937 -1.06066 1.06066 
C -0.77937 1.341951 -0.397805 1.5 0 1.5 
z
" style="stroke: #3f3f3f"/>
    </defs>
    <g clip-path="url(#p24628d3a09)">
     <use xlink:href="#mb9cc7964a8" x="143.880051" y="115.92" style="fill: #ffffff; stroke: #3f3f3f"/>
    </g>
   </g>
  </g>
 </g>
 <defs>
  <clipPath id="p24628d3a09">
   <rect x="7.2" y="7.2" width="334.8" height="217.44"/>
  </clipPath>
 </defs>
</svg>
