<?xml version="1.0" encoding="utf-8" standalone="no"?>
<!DOCTYPE svg PUBLIC "-//W3C//DTD SVG 1.1//EN"
  "http://www.w3.org/Graphics/SVG/1.1/DTD/svg11.dtd">
<svg xmlns:xlink="http://www.w3.org/1999/xlink" width="388.965625pt" height="277.314375pt" viewBox="0 0 388.965625 277.314375" xmlns="http://www.w3.org/2000/svg" version="1.1">
 <metadata>
  <rdf:RDF xmlns:dc="http://purl.org/dc/elements/1.1/" xmlns:cc="http://creativecommons.org/ns#" xmlns:rdf="http://www.w3.org/1999/02/22-rdf-syntax-ns#">
   <cc:Work>
    <dc:type rdf:resource="http://purl.org/dc/dcmitype/StillImage"/>
    <dc:date>2022-02-02T16:05:24.600127</dc:date>
    <dc:format>image/svg+xml</dc:format>
    <dc:creator>
     <cc:Agent>
      <dc:title>Matplotlib v3.5.0, https://matplotlib.org/</dc:title>
     </cc:Agent>
    </dc:creator>
   </cc:Work>
  </rdf:RDF>
 </metadata>
 <defs>
  <style type="text/css">*{stroke-linejoin: round; stroke-linecap: butt}</style>
 </defs>
 <g id="figure_1">
  <g id="patch_1">
   <path d="M 0 277.314375 
L 388.965625 277.314375 
L 388.965625 0 
L 0 0 
L 0 277.314375 
z
" style="fill: none"/>
  </g>
  <g id="axes_1">
   <g id="patch_2">
    <path d="M 46.965625 239.758125 
L 381.765625 239.758125 
L 381.765625 22.318125 
L 46.965625 22.318125 
z
" style="fill: #ffffff"/>
   </g>
   <g id="PathCollection_1">
    <path d="M 194.095866 107.079762 
C 194.978819 107.079762 195.825728 106.728961 196.45007 106.104619 
C 197.074413 105.480276 197.425214 104.633368 197.425214 103.750414 
C 197.425214 102.867461 197.074413 102.020552 196.45007 101.39621 
C 195.825728 100.771867 194.978819 100.421066 194.095866 100.421066 
C 193.212913 100.421066 192.366004 100.771867 191.741662 101.39621 
C 191.117319 102.020552 190.766518 102.867461 190.766518 103.750414 
C 190.766518 104.633368 191.117319 105.480276 191.741662 106.104619 
C 192.366004 106.728961 193.212913 107.079762 194.095866 107.079762 
z
" clip-path="url(#p4abd1bf5db)" style="fill: #1f77b4; fill-opacity: 0.5; stroke: #1f77b4; stroke-opacity: 0.5"/>
    <path d="M 112.331895 237.887567 
C 114.694191 237.887567 116.960052 236.949016 118.630447 235.278621 
C 120.300843 233.608225 121.239393 231.342364 121.239393 228.980068 
C 121.239393 226.617772 120.300843 224.351911 118.630447 222.681515 
C 116.960052 221.01112 114.694191 220.072569 112.331895 220.072569 
C 109.969598 220.072569 107.703738 221.01112 106.033342 222.681515 
C 104.362946 224.351911 103.424396 226.617772 103.424396 228.980068 
C 103.424396 231.342364 104.362946 233.608225 106.033342 235.278621 
C 107.703738 236.949016 109.969598 237.887567 112.331895 237.887567 
z
" clip-path="url(#p4abd1bf5db)" style="fill: #1f77b4; fill-opacity: 0.5; stroke: #1f77b4; stroke-opacity: 0.5"/>
    <path d="M 182.479244 176.538352 
C 185.46764 176.538352 188.334041 175.35105 190.447156 173.237935 
C 192.560271 171.12482 193.747573 168.258419 193.747573 165.270023 
C 193.747573 162.281627 192.560271 159.415226 190.447156 157.302111 
C 188.334041 155.188996 185.46764 154.001694 182.479244 154.001694 
C 179.490849 154.001694 176.624448 155.188996 174.511333 157.302111 
C 172.398218 159.415226 171.210916 162.281627 171.210916 165.270023 
C 171.210916 168.258419 172.398218 171.12482 174.511333 173.237935 
C 176.624448 175.35105 179.490849 176.538352 182.479244 176.538352 
z
" clip-path="url(#p4abd1bf5db)" style="fill: #1f77b4; fill-opacity: 0.5; stroke: #1f77b4; stroke-opacity: 0.5"/>
    <path d="M 240.865619 207.20313 
C 244.051569 207.20313 247.10746 205.937339 249.360267 203.684531 
C 251.613074 201.431724 252.878866 198.375833 252.878866 195.189883 
C 252.878866 192.003933 251.613074 188.948042 249.360267 186.695235 
C 247.10746 184.442427 244.051569 183.176636 240.865619 183.176636 
C 237.679668 183.176636 234.623777 184.442427 232.37097 186.695235 
C 230.118163 188.948042 228.852372 192.003933 228.852372 195.189883 
C 228.852372 198.375833 230.118163 201.431724 232.37097 203.684531 
C 234.623777 205.937339 237.679668 207.20313 240.865619 207.20313 
z
" clip-path="url(#p4abd1bf5db)" style="fill: #1f77b4; fill-opacity: 0.5; stroke: #1f77b4; stroke-opacity: 0.5"/>
    <path d="M 260.661471 106.447864 
C 264.467144 106.447864 268.117459 104.935854 270.808476 102.244837 
C 273.499493 99.55382 275.011503 95.903505 275.011503 92.097832 
C 275.011503 88.29216 273.499493 84.641845 270.808476 81.950828 
C 268.117459 79.25981 264.467144 77.747801 260.661471 77.747801 
C 256.855798 77.747801 253.205483 79.25981 250.514466 81.950828 
C 247.823449 84.641845 246.311439 88.29216 246.311439 92.097832 
C 246.311439 95.903505 247.823449 99.55382 250.514466 102.244837 
C 253.205483 104.935854 256.855798 106.447864 260.661471 106.447864 
z
" clip-path="url(#p4abd1bf5db)" style="fill: #1f77b4; fill-opacity: 0.5; stroke: #1f77b4; stroke-opacity: 0.5"/>
    <path d="M 248.86172 173.838522 
C 250.521947 173.838522 252.114398 173.178907 253.288356 172.004949 
C 254.462313 170.830992 255.121928 169.23854 255.121928 167.578314 
C 255.121928 165.918087 254.462313 164.325636 253.288356 163.151679 
C 252.114398 161.977721 250.521947 161.318106 248.86172 161.318106 
C 247.201494 161.318106 245.609042 161.977721 244.435085 163.151679 
C 243.261128 164.325636 242.601513 165.918087 242.601513 167.578314 
C 242.601513 169.23854 243.261128 170.830992 244.435085 172.004949 
C 245.609042 173.178907 247.201494 173.838522 248.86172 173.838522 
z
" clip-path="url(#p4abd1bf5db)" style="fill: #1f77b4; fill-opacity: 0.5; stroke: #1f77b4; stroke-opacity: 0.5"/>
    <path d="M 194.444051 152.123219 
C 195.815267 152.123219 197.130506 151.578429 198.100103 150.608833 
C 199.069699 149.639236 199.614489 148.323997 199.614489 146.95278 
C 199.614489 145.581564 199.069699 144.266325 198.100103 143.296728 
C 197.130506 142.327132 195.815267 141.782342 194.444051 141.782342 
C 193.072834 141.782342 191.757595 142.327132 190.787998 143.296728 
C 189.818402 144.266325 189.273612 145.581564 189.273612 146.95278 
C 189.273612 148.323997 189.818402 149.639236 190.787998 150.608833 
C 191.757595 151.578429 193.072834 152.123219 194.444051 152.123219 
z
" clip-path="url(#p4abd1bf5db)" style="fill: #1f77b4; fill-opacity: 0.5; stroke: #1f77b4; stroke-opacity: 0.5"/>
    <path d="M 62.183807 204.483075 
C 63.37359 204.483075 64.514802 204.010369 65.356106 203.169065 
C 66.19741 202.327762 66.670115 201.186549 66.670115 199.996766 
C 66.670115 198.806983 66.19741 197.665771 65.356106 196.824467 
C 64.514802 195.983163 63.37359 195.510458 62.183807 195.510458 
C 60.994024 195.510458 59.852811 195.983163 59.011508 196.824467 
C 58.170204 197.665771 57.697498 198.806983 57.697498 199.996766 
C 57.697498 201.186549 58.170204 202.327762 59.011508 203.169065 
C 59.852811 204.010369 60.994024 204.483075 62.183807 204.483075 
z
" clip-path="url(#p4abd1bf5db)" style="fill: #1f77b4; fill-opacity: 0.5; stroke: #1f77b4; stroke-opacity: 0.5"/>
    <path d="M 234.099816 116.392106 
C 234.903817 116.392106 235.674996 116.072673 236.243511 115.504158 
C 236.812026 114.935644 237.131459 114.164464 237.131459 113.360463 
C 237.131459 112.556462 236.812026 111.785282 236.243511 111.216768 
C 235.674996 110.648253 234.903817 110.32882 234.099816 110.32882 
C 233.295815 110.32882 232.524635 110.648253 231.95612 111.216768 
C 231.387606 111.785282 231.068173 112.556462 231.068173 113.360463 
C 231.068173 114.164464 231.387606 114.935644 231.95612 115.504158 
C 232.524635 116.072673 233.295815 116.392106 234.099816 116.392106 
z
" clip-path="url(#p4abd1bf5db)" style="fill: #1f77b4; fill-opacity: 0.5; stroke: #1f77b4; stroke-opacity: 0.5"/>
    <path d="M 280.959961 114.837254 
C 281.864073 114.837254 282.731276 114.478046 283.37058 113.838743 
C 284.009883 113.199439 284.369091 112.332236 284.369091 111.428124 
C 284.369091 110.524012 284.009883 109.656809 283.37058 109.017505 
C 282.731276 108.378201 281.864073 108.018994 280.959961 108.018994 
C 280.055849 108.018994 279.188646 108.378201 278.549342 109.017505 
C 277.910038 109.656809 277.550831 110.524012 277.550831 111.428124 
C 277.550831 112.332236 277.910038 113.199439 278.549342 113.838743 
C 279.188646 114.478046 280.055849 114.837254 280.959961 114.837254 
z
" clip-path="url(#p4abd1bf5db)" style="fill: #1f77b4; fill-opacity: 0.5; stroke: #1f77b4; stroke-opacity: 0.5"/>
    <path d="M 188.211751 142.180023 
C 192.08182 142.180023 195.793901 140.642429 198.530453 137.905877 
C 201.267005 135.169325 202.804599 131.457244 202.804599 127.587175 
C 202.804599 123.717107 201.267005 120.005026 198.530453 117.268474 
C 195.793901 114.531922 192.08182 112.994328 188.211751 112.994328 
C 184.341683 112.994328 180.629601 114.531922 177.89305 117.268474 
C 175.156498 120.005026 173.618904 123.717107 173.618904 127.587175 
C 173.618904 131.457244 175.156498 135.169325 177.89305 137.905877 
C 180.629601 140.642429 184.341683 142.180023 188.211751 142.180023 
z
" clip-path="url(#p4abd1bf5db)" style="fill: #1f77b4; fill-opacity: 0.5; stroke: #1f77b4; stroke-opacity: 0.5"/>
    <path d="M 163.844499 169.105825 
C 165.725594 169.105825 167.529897 168.358458 168.860033 167.028323 
C 170.190168 165.698188 170.937535 163.893885 170.937535 162.012789 
C 170.937535 160.131694 170.190168 158.327391 168.860033 156.997256 
C 167.529897 155.667121 165.725594 154.919753 163.844499 154.919753 
C 161.963404 154.919753 160.1591 155.667121 158.828965 156.997256 
C 157.49883 158.327391 156.751463 160.131694 156.751463 162.012789 
C 156.751463 163.893885 157.49883 165.698188 158.828965 167.028323 
C 160.1591 168.358458 161.963404 169.105825 163.844499 169.105825 
z
" clip-path="url(#p4abd1bf5db)" style="fill: #1f77b4; fill-opacity: 0.5; stroke: #1f77b4; stroke-opacity: 0.5"/>
    <path d="M 137.124431 199.711701 
C 139.859337 199.711701 142.482596 198.625111 144.416466 196.691241 
C 146.350337 194.75737 147.436926 192.134111 147.436926 189.399206 
C 147.436926 186.6643 146.350337 184.041041 144.416466 182.107171 
C 142.482596 180.1733 139.859337 179.086711 137.124431 179.086711 
C 134.389526 179.086711 131.766267 180.1733 129.832396 182.107171 
C 127.898526 184.041041 126.811936 186.6643 126.811936 189.399206 
C 126.811936 192.134111 127.898526 194.75737 129.832396 196.691241 
C 131.766267 198.625111 134.389526 199.711701 137.124431 199.711701 
z
" clip-path="url(#p4abd1bf5db)" style="fill: #1f77b4; fill-opacity: 0.5; stroke: #1f77b4; stroke-opacity: 0.5"/>
    <path d="M 214.304331 192.954037 
C 217.828126 192.954037 221.20807 191.554018 223.69977 189.062319 
C 226.191469 186.570619 227.591488 183.190675 227.591488 179.66688 
C 227.591488 176.143084 226.191469 172.76314 223.69977 170.27144 
C 221.20807 167.779741 217.828126 166.379722 214.304331 166.379722 
C 210.780535 166.379722 207.400591 167.779741 204.908891 170.27144 
C 202.417192 172.76314 201.017173 176.143084 201.017173 179.66688 
C 201.017173 183.190675 202.417192 186.570619 204.908891 189.062319 
C 207.400591 191.554018 210.780535 192.954037 214.304331 192.954037 
z
" clip-path="url(#p4abd1bf5db)" style="fill: #1f77b4; fill-opacity: 0.5; stroke: #1f77b4; stroke-opacity: 0.5"/>
    <path d="M 267.089386 140.326854 
C 270.193115 140.326854 273.170142 139.093729 275.36481 136.899061 
C 277.559478 134.704393 278.792603 131.727367 278.792603 128.623637 
C 278.792603 125.519908 277.559478 122.542881 275.36481 120.348213 
C 273.170142 118.153545 270.193115 116.92042 267.089386 116.92042 
C 263.985656 116.92042 261.00863 118.153545 258.813962 120.348213 
C 256.619293 122.542881 255.386169 125.519908 255.386169 128.623637 
C 255.386169 131.727367 256.619293 134.704393 258.813962 136.899061 
C 261.00863 139.093729 263.985656 140.326854 267.089386 140.326854 
z
" clip-path="url(#p4abd1bf5db)" style="fill: #1f77b4; fill-opacity: 0.5; stroke: #1f77b4; stroke-opacity: 0.5"/>
    <path d="M 249.332988 59.746433 
C 251.956838 59.746433 254.473574 58.703967 256.328916 56.848625 
C 258.184258 54.993283 259.226724 52.476546 259.226724 49.852697 
C 259.226724 47.228847 258.184258 44.712111 256.328916 42.856769 
C 254.473574 41.001427 251.956838 39.958961 249.332988 39.958961 
C 246.709138 39.958961 244.192402 41.001427 242.33706 42.856769 
C 240.481718 44.712111 239.439252 47.228847 239.439252 49.852697 
C 239.439252 52.476546 240.481718 54.993283 242.33706 56.848625 
C 244.192402 58.703967 246.709138 59.746433 249.332988 59.746433 
z
" clip-path="url(#p4abd1bf5db)" style="fill: #1f77b4; fill-opacity: 0.5; stroke: #1f77b4; stroke-opacity: 0.5"/>
    <path d="M 255.425129 156.493394 
C 257.9817 156.493394 260.433906 155.477657 262.241675 153.669888 
C 264.049444 151.862119 265.065181 149.409913 265.065181 146.853342 
C 265.065181 144.29677 264.049444 141.844564 262.241675 140.036795 
C 260.433906 138.229026 257.9817 137.213289 255.425129 137.213289 
C 252.868557 137.213289 250.416351 138.229026 248.608582 140.036795 
C 246.800813 141.844564 245.785076 144.29677 245.785076 146.853342 
C 245.785076 149.409913 246.800813 151.862119 248.608582 153.669888 
C 250.416351 155.477657 252.868557 156.493394 255.425129 156.493394 
z
" clip-path="url(#p4abd1bf5db)" style="fill: #1f77b4; fill-opacity: 0.5; stroke: #1f77b4; stroke-opacity: 0.5"/>
    <path d="M 100.193966 232.12525 
C 100.790875 232.12525 101.363416 231.888095 101.785495 231.466017 
C 102.207573 231.043939 102.444727 230.471397 102.444727 229.874489 
C 102.444727 229.27758 102.207573 228.705038 101.785495 228.28296 
C 101.363416 227.860882 100.790875 227.623728 100.193966 227.623728 
C 99.597057 227.623728 99.024516 227.860882 98.602438 228.28296 
C 98.180359 228.705038 97.943205 229.27758 97.943205 229.874489 
C 97.943205 230.471397 98.180359 231.043939 98.602438 231.466017 
C 99.024516 231.888095 99.597057 232.12525 100.193966 232.12525 
z
" clip-path="url(#p4abd1bf5db)" style="fill: #1f77b4; fill-opacity: 0.5; stroke: #1f77b4; stroke-opacity: 0.5"/>
    <path d="M 287.903707 95.664326 
C 290.727638 95.664326 293.436289 94.542366 295.43311 92.545545 
C 297.429931 90.548724 298.551891 87.840074 298.551891 85.016142 
C 298.551891 82.192211 297.429931 79.483561 295.43311 77.48674 
C 293.436289 75.489919 290.727638 74.367959 287.903707 74.367959 
C 285.079776 74.367959 282.371125 75.489919 280.374304 77.48674 
C 278.377483 79.483561 277.255523 82.192211 277.255523 85.016142 
C 277.255523 87.840074 278.377483 90.548724 280.374304 92.545545 
C 282.371125 94.542366 285.079776 95.664326 287.903707 95.664326 
z
" clip-path="url(#p4abd1bf5db)" style="fill: #1f77b4; fill-opacity: 0.5; stroke: #1f77b4; stroke-opacity: 0.5"/>
    <path d="M 299.725985 57.140002 
C 301.120425 57.140002 302.457941 56.585985 303.443959 55.599967 
C 304.429977 54.613948 304.983994 53.276433 304.983994 51.881992 
C 304.983994 50.487552 304.429977 49.150036 303.443959 48.164018 
C 302.457941 47.178 301.120425 46.623983 299.725985 46.623983 
C 298.331544 46.623983 296.994029 47.178 296.00801 48.164018 
C 295.021992 49.150036 294.467975 50.487552 294.467975 51.881992 
C 294.467975 53.276433 295.021992 54.613948 296.00801 55.599967 
C 296.994029 56.585985 298.331544 57.140002 299.725985 57.140002 
z
" clip-path="url(#p4abd1bf5db)" style="fill: #1f77b4; fill-opacity: 0.5; stroke: #1f77b4; stroke-opacity: 0.5"/>
    <path d="M 198.425732 182.334982 
C 199.363547 182.334982 200.263078 181.962384 200.926214 181.299249 
C 201.589349 180.636113 201.961947 179.736582 201.961947 178.798767 
C 201.961947 177.860952 201.589349 176.961421 200.926214 176.298286 
C 200.263078 175.63515 199.363547 175.262553 198.425732 175.262553 
C 197.487917 175.262553 196.588386 175.63515 195.925251 176.298286 
C 195.262115 176.961421 194.889517 177.860952 194.889517 178.798767 
C 194.889517 179.736582 195.262115 180.636113 195.925251 181.299249 
C 196.588386 181.962384 197.487917 182.334982 198.425732 182.334982 
z
" clip-path="url(#p4abd1bf5db)" style="fill: #1f77b4; fill-opacity: 0.5; stroke: #1f77b4; stroke-opacity: 0.5"/>
    <path d="M 190.757823 117.636482 
C 192.760222 117.636482 194.680877 116.84092 196.096787 115.425011 
C 197.512696 114.009101 198.308258 112.088446 198.308258 110.086047 
C 198.308258 108.083648 197.512696 106.162993 196.096787 104.747083 
C 194.680877 103.331173 192.760222 102.535612 190.757823 102.535612 
C 188.755424 102.535612 186.834769 103.331173 185.418859 104.747083 
C 184.002949 106.162993 183.207388 108.083648 183.207388 110.086047 
C 183.207388 112.088446 184.002949 114.009101 185.418859 115.425011 
C 186.834769 116.84092 188.755424 117.636482 190.757823 117.636482 
z
" clip-path="url(#p4abd1bf5db)" style="fill: #1f77b4; fill-opacity: 0.5; stroke: #1f77b4; stroke-opacity: 0.5"/>
    <path d="M 316.144652 95.166298 
C 319.715497 95.166298 323.140571 93.747586 325.66554 91.222617 
C 328.190509 88.697648 329.609221 85.272574 329.609221 81.701728 
C 329.609221 78.130883 328.190509 74.705809 325.66554 72.18084 
C 323.140571 69.655871 319.715497 68.237159 316.144652 68.237159 
C 312.573806 68.237159 309.148732 69.655871 306.623763 72.18084 
C 304.098794 74.705809 302.680082 78.130883 302.680082 81.701728 
C 302.680082 85.272574 304.098794 88.697648 306.623763 91.222617 
C 309.148732 93.747586 312.573806 95.166298 316.144652 95.166298 
z
" clip-path="url(#p4abd1bf5db)" style="fill: #1f77b4; fill-opacity: 0.5; stroke: #1f77b4; stroke-opacity: 0.5"/>
    <path d="M 239.877101 111.822736 
C 242.558955 111.822736 245.131329 110.757224 247.027686 108.860867 
C 248.924043 106.96451 249.989555 104.392136 249.989555 101.710282 
C 249.989555 99.028428 248.924043 96.456055 247.027686 94.559698 
C 245.131329 92.66334 242.558955 91.597828 239.877101 91.597828 
C 237.195247 91.597828 234.622874 92.66334 232.726517 94.559698 
C 230.830159 96.456055 229.764647 99.028428 229.764647 101.710282 
C 229.764647 104.392136 230.830159 106.96451 232.726517 108.860867 
C 234.622874 110.757224 237.195247 111.822736 239.877101 111.822736 
z
" clip-path="url(#p4abd1bf5db)" style="fill: #1f77b4; fill-opacity: 0.5; stroke: #1f77b4; stroke-opacity: 0.5"/>
    <path d="M 215.849554 212.067118 
C 219.029971 212.067118 222.080554 210.803525 224.329448 208.55463 
C 226.578343 206.305736 227.841936 203.255153 227.841936 200.074736 
C 227.841936 196.894319 226.578343 193.843736 224.329448 191.594842 
C 222.080554 189.345948 219.029971 188.082355 215.849554 188.082355 
C 212.669137 188.082355 209.618554 189.345948 207.36966 191.594842 
C 205.120765 193.843736 203.857172 196.894319 203.857172 200.074736 
C 203.857172 203.255153 205.120765 206.305736 207.36966 208.55463 
C 209.618554 210.803525 212.669137 212.067118 215.849554 212.067118 
z
" clip-path="url(#p4abd1bf5db)" style="fill: #1f77b4; fill-opacity: 0.5; stroke: #1f77b4; stroke-opacity: 0.5"/>
    <path d="M 180.462418 151.528092 
C 182.412917 151.528092 184.283792 150.75315 185.663003 149.373939 
C 187.042214 147.994728 187.817156 146.123853 187.817156 144.173354 
C 187.817156 142.222854 187.042214 140.35198 185.663003 138.972769 
C 184.283792 137.593557 182.412917 136.818616 180.462418 136.818616 
C 178.511919 136.818616 176.641044 137.593557 175.261833 138.972769 
C 173.882621 140.35198 173.10768 142.222854 173.10768 144.173354 
C 173.10768 146.123853 173.882621 147.994728 175.261833 149.373939 
C 176.641044 150.75315 178.511919 151.528092 180.462418 151.528092 
z
" clip-path="url(#p4abd1bf5db)" style="fill: #1f77b4; fill-opacity: 0.5; stroke: #1f77b4; stroke-opacity: 0.5"/>
    <path d="M 264.225295 93.152244 
C 265.349303 93.152244 266.427426 92.705671 267.22222 91.910877 
C 268.017013 91.116083 268.463586 90.037961 268.463586 88.913953 
C 268.463586 87.789945 268.017013 86.711822 267.22222 85.917028 
C 266.427426 85.122234 265.349303 84.675661 264.225295 84.675661 
C 263.101287 84.675661 262.023164 85.122234 261.22837 85.917028 
C 260.433577 86.711822 259.987004 87.789945 259.987004 88.913953 
C 259.987004 90.037961 260.433577 91.116083 261.22837 91.910877 
C 262.023164 92.705671 263.101287 93.152244 264.225295 93.152244 
z
" clip-path="url(#p4abd1bf5db)" style="fill: #1f77b4; fill-opacity: 0.5; stroke: #1f77b4; stroke-opacity: 0.5"/>
    <path d="M 165.224171 177.259574 
C 168.135437 177.259574 170.927858 176.102916 172.986434 174.044339 
C 175.045011 171.985763 176.201669 169.193342 176.201669 166.282076 
C 176.201669 163.370809 175.045011 160.578389 172.986434 158.519812 
C 170.927858 156.461236 168.135437 155.304577 165.224171 155.304577 
C 162.312904 155.304577 159.520484 156.461236 157.461907 158.519812 
C 155.403331 160.578389 154.246672 163.370809 154.246672 166.282076 
C 154.246672 169.193342 155.403331 171.985763 157.461907 174.044339 
C 159.520484 176.102916 162.312904 177.259574 165.224171 177.259574 
z
" clip-path="url(#p4abd1bf5db)" style="fill: #1f77b4; fill-opacity: 0.5; stroke: #1f77b4; stroke-opacity: 0.5"/>
    <path d="M 109.815441 170.704718 
C 113.494108 170.704718 117.022602 169.243168 119.623812 166.641958 
C 122.225023 164.040747 123.686573 160.512254 123.686573 156.833587 
C 123.686573 153.15492 122.225023 149.626426 119.623812 147.025216 
C 117.022602 144.424005 113.494108 142.962455 109.815441 142.962455 
C 106.136774 142.962455 102.608281 144.424005 100.007071 147.025216 
C 97.40586 149.626426 95.94431 153.15492 95.94431 156.833587 
C 95.94431 160.512254 97.40586 164.040747 100.007071 166.641958 
C 102.608281 169.243168 106.136774 170.704718 109.815441 170.704718 
z
" clip-path="url(#p4abd1bf5db)" style="fill: #1f77b4; fill-opacity: 0.5; stroke: #1f77b4; stroke-opacity: 0.5"/>
    <path d="M 349.602802 116.83253 
C 352.920108 116.83253 356.101993 115.514551 358.447682 113.168861 
C 360.793372 110.823171 362.111352 107.641286 362.111352 104.32398 
C 362.111352 101.006674 360.793372 97.824789 358.447682 95.479099 
C 356.101993 93.13341 352.920108 91.81543 349.602802 91.81543 
C 346.285495 91.81543 343.103611 93.13341 340.757921 95.479099 
C 338.412231 97.824789 337.094251 101.006674 337.094251 104.32398 
C 337.094251 107.641286 338.412231 110.823171 340.757921 113.168861 
C 343.103611 115.514551 346.285495 116.83253 349.602802 116.83253 
z
" clip-path="url(#p4abd1bf5db)" style="fill: #1f77b4; fill-opacity: 0.5; stroke: #1f77b4; stroke-opacity: 0.5"/>
    <path d="M 200.399703 117.860759 
C 201.242712 117.860759 202.051307 117.525828 202.647405 116.92973 
C 203.243502 116.333633 203.578433 115.525037 203.578433 114.682028 
C 203.578433 113.839019 203.243502 113.030424 202.647405 112.434326 
C 202.051307 111.838229 201.242712 111.503298 200.399703 111.503298 
C 199.556693 111.503298 198.748098 111.838229 198.152001 112.434326 
C 197.555903 113.030424 197.220972 113.839019 197.220972 114.682028 
C 197.220972 115.525037 197.555903 116.333633 198.152001 116.92973 
C 198.748098 117.525828 199.556693 117.860759 200.399703 117.860759 
z
" clip-path="url(#p4abd1bf5db)" style="fill: #1f77b4; fill-opacity: 0.5; stroke: #1f77b4; stroke-opacity: 0.5"/>
    <path d="M 93.352611 202.294882 
C 96.064335 202.294882 98.665359 201.217503 100.582837 199.300024 
C 102.500316 197.382546 103.577696 194.781522 103.577696 192.069797 
C 103.577696 189.358073 102.500316 186.757049 100.582837 184.83957 
C 98.665359 182.922092 96.064335 181.844712 93.352611 181.844712 
C 90.640886 181.844712 88.039862 182.922092 86.122384 184.83957 
C 84.204905 186.757049 83.127526 189.358073 83.127526 192.069797 
C 83.127526 194.781522 84.204905 197.382546 86.122384 199.300024 
C 88.039862 201.217503 90.640886 202.294882 93.352611 202.294882 
z
" clip-path="url(#p4abd1bf5db)" style="fill: #1f77b4; fill-opacity: 0.5; stroke: #1f77b4; stroke-opacity: 0.5"/>
    <path d="M 296.244088 135.560969 
C 296.572645 135.560969 296.887789 135.430432 297.120114 135.198107 
C 297.352439 134.965782 297.482977 134.650637 297.482977 134.32208 
C 297.482977 133.993523 297.352439 133.678379 297.120114 133.446054 
C 296.887789 133.213729 296.572645 133.083191 296.244088 133.083191 
C 295.915531 133.083191 295.600386 133.213729 295.368061 133.446054 
C 295.135736 133.678379 295.005199 133.993523 295.005199 134.32208 
C 295.005199 134.650637 295.135736 134.965782 295.368061 135.198107 
C 295.600386 135.430432 295.915531 135.560969 296.244088 135.560969 
z
" clip-path="url(#p4abd1bf5db)" style="fill: #1f77b4; fill-opacity: 0.5; stroke: #1f77b4; stroke-opacity: 0.5"/>
    <path d="M 204.139499 161.726558 
C 205.916789 161.726558 207.621526 161.020433 208.87826 159.763699 
C 210.134994 158.506965 210.841119 156.802228 210.841119 155.024938 
C 210.841119 153.247647 210.134994 151.542911 208.87826 150.286176 
C 207.621526 149.029442 205.916789 148.323317 204.139499 148.323317 
C 202.362208 148.323317 200.657472 149.029442 199.400738 150.286176 
C 198.144003 151.542911 197.437878 153.247647 197.437878 155.024938 
C 197.437878 156.802228 198.144003 158.506965 199.400738 159.763699 
C 200.657472 161.020433 202.362208 161.726558 204.139499 161.726558 
z
" clip-path="url(#p4abd1bf5db)" style="fill: #1f77b4; fill-opacity: 0.5; stroke: #1f77b4; stroke-opacity: 0.5"/>
    <path d="M 266.625343 86.011607 
C 270.356127 86.011607 273.93461 84.529351 276.572672 81.891288 
C 279.210735 79.253226 280.692991 75.674743 280.692991 71.943959 
C 280.692991 68.213175 279.210735 64.634692 276.572672 61.996629 
C 273.93461 59.358567 270.356127 57.876311 266.625343 57.876311 
C 262.894559 57.876311 259.316076 59.358567 256.678013 61.996629 
C 254.039951 64.634692 252.557695 68.213175 252.557695 71.943959 
C 252.557695 75.674743 254.039951 79.253226 256.678013 81.891288 
C 259.316076 84.529351 262.894559 86.011607 266.625343 86.011607 
z
" clip-path="url(#p4abd1bf5db)" style="fill: #1f77b4; fill-opacity: 0.5; stroke: #1f77b4; stroke-opacity: 0.5"/>
    <path d="M 288.145841 154.718922 
C 291.980754 154.718922 295.659115 153.195295 298.370808 150.483602 
C 301.082501 147.771909 302.606128 144.093548 302.606128 140.258635 
C 302.606128 136.423723 301.082501 132.745361 298.370808 130.033669 
C 295.659115 127.321976 291.980754 125.798349 288.145841 125.798349 
C 284.310928 125.798349 280.632567 127.321976 277.920874 130.033669 
C 275.209181 132.745361 273.685554 136.423723 273.685554 140.258635 
C 273.685554 144.093548 275.209181 147.771909 277.920874 150.483602 
C 280.632567 153.195295 284.310928 154.718922 288.145841 154.718922 
z
" clip-path="url(#p4abd1bf5db)" style="fill: #1f77b4; fill-opacity: 0.5; stroke: #1f77b4; stroke-opacity: 0.5"/>
    <path d="M 223.550093 117.922195 
C 223.984211 117.922195 224.400606 117.749719 224.707573 117.442751 
C 225.014541 117.135784 225.187017 116.719388 225.187017 116.285271 
C 225.187017 115.851154 225.014541 115.434758 224.707573 115.127791 
C 224.400606 114.820823 223.984211 114.648347 223.550093 114.648347 
C 223.115976 114.648347 222.69958 114.820823 222.392613 115.127791 
C 222.085646 115.434758 221.913169 115.851154 221.913169 116.285271 
C 221.913169 116.719388 222.085646 117.135784 222.392613 117.442751 
C 222.69958 117.749719 223.115976 117.922195 223.550093 117.922195 
z
" clip-path="url(#p4abd1bf5db)" style="fill: #1f77b4; fill-opacity: 0.5; stroke: #1f77b4; stroke-opacity: 0.5"/>
    <path d="M 240.307088 130.239549 
C 243.702055 130.239549 246.95843 128.890714 249.359035 126.49011 
C 251.759639 124.089505 253.108474 120.83313 253.108474 117.438163 
C 253.108474 114.043196 251.759639 110.786821 249.359035 108.386216 
C 246.95843 105.985612 243.702055 104.636777 240.307088 104.636777 
C 236.912121 104.636777 233.655746 105.985612 231.255141 108.386216 
C 228.854537 110.786821 227.505702 114.043196 227.505702 117.438163 
C 227.505702 120.83313 228.854537 124.089505 231.255141 126.49011 
C 233.655746 128.890714 236.912121 130.239549 240.307088 130.239549 
z
" clip-path="url(#p4abd1bf5db)" style="fill: #1f77b4; fill-opacity: 0.5; stroke: #1f77b4; stroke-opacity: 0.5"/>
    <path d="M 312.779064 127.508035 
C 314.509025 127.508035 316.168364 126.820714 317.391631 125.597447 
C 318.614898 124.37418 319.302219 122.714841 319.302219 120.98488 
C 319.302219 119.254919 318.614898 117.59558 317.391631 116.372313 
C 316.168364 115.149046 314.509025 114.461725 312.779064 114.461725 
C 311.049103 114.461725 309.389764 115.149046 308.166497 116.372313 
C 306.94323 117.59558 306.255909 119.254919 306.255909 120.98488 
C 306.255909 122.714841 306.94323 124.37418 308.166497 125.597447 
C 309.389764 126.820714 311.049103 127.508035 312.779064 127.508035 
z
" clip-path="url(#p4abd1bf5db)" style="fill: #1f77b4; fill-opacity: 0.5; stroke: #1f77b4; stroke-opacity: 0.5"/>
    <path d="M 136.117505 192.657788 
C 138.067895 192.657788 139.938665 191.88289 141.317798 190.503756 
C 142.696932 189.124622 143.47183 187.253852 143.47183 185.303462 
C 143.47183 183.353073 142.696932 181.482303 141.317798 180.103169 
C 139.938665 178.724035 138.067895 177.949137 136.117505 177.949137 
C 134.167115 177.949137 132.296346 178.724035 130.917212 180.103169 
C 129.538078 181.482303 128.76318 183.353073 128.76318 185.303462 
C 128.76318 187.253852 129.538078 189.124622 130.917212 190.503756 
C 132.296346 191.88289 134.167115 192.657788 136.117505 192.657788 
z
" clip-path="url(#p4abd1bf5db)" style="fill: #1f77b4; fill-opacity: 0.5; stroke: #1f77b4; stroke-opacity: 0.5"/>
    <path d="M 164.525855 166.677776 
C 167.223307 166.677776 169.810641 165.606067 171.718027 163.698681 
C 173.625413 161.791295 174.697122 159.203961 174.697122 156.506509 
C 174.697122 153.809058 173.625413 151.221724 171.718027 149.314338 
C 169.810641 147.406951 167.223307 146.335243 164.525855 146.335243 
C 161.828404 146.335243 159.24107 147.406951 157.333684 149.314338 
C 155.426298 151.221724 154.354589 153.809058 154.354589 156.506509 
C 154.354589 159.203961 155.426298 161.791295 157.333684 163.698681 
C 159.24107 165.606067 161.828404 166.677776 164.525855 166.677776 
z
" clip-path="url(#p4abd1bf5db)" style="fill: #1f77b4; fill-opacity: 0.5; stroke: #1f77b4; stroke-opacity: 0.5"/>
    <path d="M 218.737634 123.855333 
C 220.513772 123.855333 222.217404 123.149666 223.473323 121.893746 
C 224.729243 120.637827 225.43491 118.934195 225.43491 117.158056 
C 225.43491 115.381918 224.729243 113.678286 223.473323 112.422366 
C 222.217404 111.166447 220.513772 110.460779 218.737634 110.460779 
C 216.961495 110.460779 215.257863 111.166447 214.001944 112.422366 
C 212.746024 113.678286 212.040357 115.381918 212.040357 117.158056 
C 212.040357 118.934195 212.746024 120.637827 214.001944 121.893746 
C 215.257863 123.149666 216.961495 123.855333 218.737634 123.855333 
z
" clip-path="url(#p4abd1bf5db)" style="fill: #1f77b4; fill-opacity: 0.5; stroke: #1f77b4; stroke-opacity: 0.5"/>
    <path d="M 288.706833 173.265879 
C 290.543153 173.265879 292.304509 172.536301 293.602983 171.237827 
C 294.901458 169.939353 295.631035 168.177996 295.631035 166.341677 
C 295.631035 164.505357 294.901458 162.744001 293.602983 161.445527 
C 292.304509 160.147052 290.543153 159.417475 288.706833 159.417475 
C 286.870513 159.417475 285.109157 160.147052 283.810683 161.445527 
C 282.512209 162.744001 281.782631 164.505357 281.782631 166.341677 
C 281.782631 168.177996 282.512209 169.939353 283.810683 171.237827 
C 285.109157 172.536301 286.870513 173.265879 288.706833 173.265879 
z
" clip-path="url(#p4abd1bf5db)" style="fill: #1f77b4; fill-opacity: 0.5; stroke: #1f77b4; stroke-opacity: 0.5"/>
    <path d="M 363.718215 93.744178 
C 366.46936 93.744178 369.108197 92.651136 371.053551 90.705782 
C 372.998905 88.760428 374.091946 86.121592 374.091946 83.370446 
C 374.091946 80.6193 372.998905 77.980464 371.053551 76.03511 
C 369.108197 74.089756 366.46936 72.996714 363.718215 72.996714 
C 360.967069 72.996714 358.328232 74.089756 356.382878 76.03511 
C 354.437524 77.980464 353.344483 80.6193 353.344483 83.370446 
C 353.344483 86.121592 354.437524 88.760428 356.382878 90.705782 
C 358.328232 92.651136 360.967069 93.744178 363.718215 93.744178 
z
" clip-path="url(#p4abd1bf5db)" style="fill: #1f77b4; fill-opacity: 0.5; stroke: #1f77b4; stroke-opacity: 0.5"/>
    <path d="M 218.265928 164.047915 
C 218.27694 164.047915 218.287503 164.043539 218.29529 164.035752 
C 218.303077 164.027966 218.307452 164.017403 218.307452 164.00639 
C 218.307452 163.995378 218.303077 163.984815 218.29529 163.977029 
C 218.287503 163.969242 218.27694 163.964866 218.265928 163.964866 
C 218.254916 163.964866 218.244353 163.969242 218.236566 163.977029 
C 218.228779 163.984815 218.224404 163.995378 218.224404 164.00639 
C 218.224404 164.017403 218.228779 164.027966 218.236566 164.035752 
C 218.244353 164.043539 218.254916 164.047915 218.265928 164.047915 
z
" clip-path="url(#p4abd1bf5db)" style="fill: #1f77b4; fill-opacity: 0.5; stroke: #1f77b4; stroke-opacity: 0.5"/>
    <path d="M 231.730632 149.904958 
C 232.910261 149.904958 234.041733 149.436287 234.875856 148.602164 
C 235.709979 147.768041 236.178651 146.636568 236.178651 145.45694 
C 236.178651 144.277312 235.709979 143.14584 234.875856 142.311716 
C 234.041733 141.477593 232.910261 141.008922 231.730632 141.008922 
C 230.551004 141.008922 229.419532 141.477593 228.585409 142.311716 
C 227.751286 143.14584 227.282614 144.277312 227.282614 145.45694 
C 227.282614 146.636568 227.751286 147.768041 228.585409 148.602164 
C 229.419532 149.436287 230.551004 149.904958 231.730632 149.904958 
z
" clip-path="url(#p4abd1bf5db)" style="fill: #1f77b4; fill-opacity: 0.5; stroke: #1f77b4; stroke-opacity: 0.5"/>
    <path d="M 199.402416 130.20991 
C 200.898892 130.20991 202.334277 129.615354 203.392444 128.557186 
C 204.450612 127.499018 205.045168 126.063633 205.045168 124.567158 
C 205.045168 123.070682 204.450612 121.635297 203.392444 120.577129 
C 202.334277 119.518962 200.898892 118.924406 199.402416 118.924406 
C 197.905941 118.924406 196.470556 119.518962 195.412388 120.577129 
C 194.35422 121.635297 193.759664 123.070682 193.759664 124.567158 
C 193.759664 126.063633 194.35422 127.499018 195.412388 128.557186 
C 196.470556 129.615354 197.905941 130.20991 199.402416 130.20991 
z
" clip-path="url(#p4abd1bf5db)" style="fill: #1f77b4; fill-opacity: 0.5; stroke: #1f77b4; stroke-opacity: 0.5"/>
    <path d="M 280.705054 191.824826 
C 282.745623 191.824826 284.702891 191.014099 286.145791 189.571198 
C 287.588692 188.128298 288.399418 186.17103 288.399418 184.130461 
C 288.399418 182.089892 287.588692 180.132624 286.145791 178.689723 
C 284.702891 177.246823 282.745623 176.436096 280.705054 176.436096 
C 278.664484 176.436096 276.707217 177.246823 275.264316 178.689723 
C 273.821416 180.132624 273.010689 182.089892 273.010689 184.130461 
C 273.010689 186.17103 273.821416 188.128298 275.264316 189.571198 
C 276.707217 191.014099 278.664484 191.824826 280.705054 191.824826 
z
" clip-path="url(#p4abd1bf5db)" style="fill: #1f77b4; fill-opacity: 0.5; stroke: #1f77b4; stroke-opacity: 0.5"/>
    <path d="M 291.399173 33.964237 
C 291.866587 33.964237 292.31492 33.778531 292.645431 33.44802 
C 292.975943 33.117508 293.161648 32.669175 293.161648 32.201761 
C 293.161648 31.734347 292.975943 31.286015 292.645431 30.955503 
C 292.31492 30.624992 291.866587 30.439286 291.399173 30.439286 
C 290.931759 30.439286 290.483426 30.624992 290.152915 30.955503 
C 289.822403 31.286015 289.636698 31.734347 289.636698 32.201761 
C 289.636698 32.669175 289.822403 33.117508 290.152915 33.44802 
C 290.483426 33.778531 290.931759 33.964237 291.399173 33.964237 
z
" clip-path="url(#p4abd1bf5db)" style="fill: #1f77b4; fill-opacity: 0.5; stroke: #1f77b4; stroke-opacity: 0.5"/>
    <path d="M 366.547443 85.127591 
C 368.76869 85.127591 370.89926 84.245081 372.469918 82.674422 
C 374.040577 81.103763 374.923088 78.973194 374.923088 76.751947 
C 374.923088 74.5307 374.040577 72.40013 372.469918 70.829471 
C 370.89926 69.258813 368.76869 68.376302 366.547443 68.376302 
C 364.326196 68.376302 362.195627 69.258813 360.624968 70.829471 
C 359.054309 72.40013 358.171798 74.5307 358.171798 76.751947 
C 358.171798 78.973194 359.054309 81.103763 360.624968 82.674422 
C 362.195627 84.245081 364.326196 85.127591 366.547443 85.127591 
z
" clip-path="url(#p4abd1bf5db)" style="fill: #1f77b4; fill-opacity: 0.5; stroke: #1f77b4; stroke-opacity: 0.5"/>
   </g>
   <g id="matplotlib.axis_1">
    <g id="xtick_1">
     <g id="line2d_1">
      <defs>
       <path id="mb54b13be06" d="M 0 0 
L 0 3.5 
" style="stroke: #000000; stroke-width: 0.8"/>
      </defs>
      <g>
       <use xlink:href="#mb54b13be06" x="98.508086" y="239.758125" style="stroke: #000000; stroke-width: 0.8"/>
      </g>
     </g>
     <g id="text_1">
      <!-- 160 -->
      <g transform="translate(88.964336 254.356562)scale(0.1 -0.1)">
       <defs>
        <path id="DejaVuSans-31" d="M 794 531 
L 1825 531 
L 1825 4091 
L 703 3866 
L 703 4441 
L 1819 4666 
L 2450 4666 
L 2450 531 
L 3481 531 
L 3481 0 
L 794 0 
L 794 531 
z
" transform="scale(0.015625)"/>
        <path id="DejaVuSans-36" d="M 2113 2584 
Q 1688 2584 1439 2293 
Q 1191 2003 1191 1497 
Q 1191 994 1439 701 
Q 1688 409 2113 409 
Q 2538 409 2786 701 
Q 3034 994 3034 1497 
Q 3034 2003 2786 2293 
Q 2538 2584 2113 2584 
z
M 3366 4563 
L 3366 3988 
Q 3128 4100 2886 4159 
Q 2644 4219 2406 4219 
Q 1781 4219 1451 3797 
Q 1122 3375 1075 2522 
Q 1259 2794 1537 2939 
Q 1816 3084 2150 3084 
Q 2853 3084 3261 2657 
Q 3669 2231 3669 1497 
Q 3669 778 3244 343 
Q 2819 -91 2113 -91 
Q 1303 -91 875 529 
Q 447 1150 447 2328 
Q 447 3434 972 4092 
Q 1497 4750 2381 4750 
Q 2619 4750 2861 4703 
Q 3103 4656 3366 4563 
z
" transform="scale(0.015625)"/>
        <path id="DejaVuSans-30" d="M 2034 4250 
Q 1547 4250 1301 3770 
Q 1056 3291 1056 2328 
Q 1056 1369 1301 889 
Q 1547 409 2034 409 
Q 2525 409 2770 889 
Q 3016 1369 3016 2328 
Q 3016 3291 2770 3770 
Q 2525 4250 2034 4250 
z
M 2034 4750 
Q 2819 4750 3233 4129 
Q 3647 3509 3647 2328 
Q 3647 1150 3233 529 
Q 2819 -91 2034 -91 
Q 1250 -91 836 529 
Q 422 1150 422 2328 
Q 422 3509 836 4129 
Q 1250 4750 2034 4750 
z
" transform="scale(0.015625)"/>
       </defs>
       <use xlink:href="#DejaVuSans-31"/>
       <use xlink:href="#DejaVuSans-36" x="63.623047"/>
       <use xlink:href="#DejaVuSans-30" x="127.246094"/>
      </g>
     </g>
    </g>
    <g id="xtick_2">
     <g id="line2d_2">
      <g>
       <use xlink:href="#mb54b13be06" x="158.632129" y="239.758125" style="stroke: #000000; stroke-width: 0.8"/>
      </g>
     </g>
     <g id="text_2">
      <!-- 180 -->
      <g transform="translate(149.088379 254.356562)scale(0.1 -0.1)">
       <defs>
        <path id="DejaVuSans-38" d="M 2034 2216 
Q 1584 2216 1326 1975 
Q 1069 1734 1069 1313 
Q 1069 891 1326 650 
Q 1584 409 2034 409 
Q 2484 409 2743 651 
Q 3003 894 3003 1313 
Q 3003 1734 2745 1975 
Q 2488 2216 2034 2216 
z
M 1403 2484 
Q 997 2584 770 2862 
Q 544 3141 544 3541 
Q 544 4100 942 4425 
Q 1341 4750 2034 4750 
Q 2731 4750 3128 4425 
Q 3525 4100 3525 3541 
Q 3525 3141 3298 2862 
Q 3072 2584 2669 2484 
Q 3125 2378 3379 2068 
Q 3634 1759 3634 1313 
Q 3634 634 3220 271 
Q 2806 -91 2034 -91 
Q 1263 -91 848 271 
Q 434 634 434 1313 
Q 434 1759 690 2068 
Q 947 2378 1403 2484 
z
M 1172 3481 
Q 1172 3119 1398 2916 
Q 1625 2713 2034 2713 
Q 2441 2713 2670 2916 
Q 2900 3119 2900 3481 
Q 2900 3844 2670 4047 
Q 2441 4250 2034 4250 
Q 1625 4250 1398 4047 
Q 1172 3844 1172 3481 
z
" transform="scale(0.015625)"/>
       </defs>
       <use xlink:href="#DejaVuSans-31"/>
       <use xlink:href="#DejaVuSans-38" x="63.623047"/>
       <use xlink:href="#DejaVuSans-30" x="127.246094"/>
      </g>
     </g>
    </g>
    <g id="xtick_3">
     <g id="line2d_3">
      <g>
       <use xlink:href="#mb54b13be06" x="218.756173" y="239.758125" style="stroke: #000000; stroke-width: 0.8"/>
      </g>
     </g>
     <g id="text_3">
      <!-- 200 -->
      <g transform="translate(209.212423 254.356562)scale(0.1 -0.1)">
       <defs>
        <path id="DejaVuSans-32" d="M 1228 531 
L 3431 531 
L 3431 0 
L 469 0 
L 469 531 
Q 828 903 1448 1529 
Q 2069 2156 2228 2338 
Q 2531 2678 2651 2914 
Q 2772 3150 2772 3378 
Q 2772 3750 2511 3984 
Q 2250 4219 1831 4219 
Q 1534 4219 1204 4116 
Q 875 4013 500 3803 
L 500 4441 
Q 881 4594 1212 4672 
Q 1544 4750 1819 4750 
Q 2544 4750 2975 4387 
Q 3406 4025 3406 3419 
Q 3406 3131 3298 2873 
Q 3191 2616 2906 2266 
Q 2828 2175 2409 1742 
Q 1991 1309 1228 531 
z
" transform="scale(0.015625)"/>
       </defs>
       <use xlink:href="#DejaVuSans-32"/>
       <use xlink:href="#DejaVuSans-30" x="63.623047"/>
       <use xlink:href="#DejaVuSans-30" x="127.246094"/>
      </g>
     </g>
    </g>
    <g id="xtick_4">
     <g id="line2d_4">
      <g>
       <use xlink:href="#mb54b13be06" x="278.880216" y="239.758125" style="stroke: #000000; stroke-width: 0.8"/>
      </g>
     </g>
     <g id="text_4">
      <!-- 220 -->
      <g transform="translate(269.336466 254.356562)scale(0.1 -0.1)">
       <use xlink:href="#DejaVuSans-32"/>
       <use xlink:href="#DejaVuSans-32" x="63.623047"/>
       <use xlink:href="#DejaVuSans-30" x="127.246094"/>
      </g>
     </g>
    </g>
    <g id="xtick_5">
     <g id="line2d_5">
      <g>
       <use xlink:href="#mb54b13be06" x="339.00426" y="239.758125" style="stroke: #000000; stroke-width: 0.8"/>
      </g>
     </g>
     <g id="text_5">
      <!-- 240 -->
      <g transform="translate(329.46051 254.356562)scale(0.1 -0.1)">
       <defs>
        <path id="DejaVuSans-34" d="M 2419 4116 
L 825 1625 
L 2419 1625 
L 2419 4116 
z
M 2253 4666 
L 3047 4666 
L 3047 1625 
L 3713 1625 
L 3713 1100 
L 3047 1100 
L 3047 0 
L 2419 0 
L 2419 1100 
L 313 1100 
L 313 1709 
L 2253 4666 
z
" transform="scale(0.015625)"/>
       </defs>
       <use xlink:href="#DejaVuSans-32"/>
       <use xlink:href="#DejaVuSans-34" x="63.623047"/>
       <use xlink:href="#DejaVuSans-30" x="127.246094"/>
      </g>
     </g>
    </g>
    <g id="text_6">
     <!-- X axis -->
     <g transform="translate(199.334375 268.034687)scale(0.1 -0.1)">
      <defs>
       <path id="DejaVuSans-58" d="M 403 4666 
L 1081 4666 
L 2241 2931 
L 3406 4666 
L 4084 4666 
L 2584 2425 
L 4184 0 
L 3506 0 
L 2194 1984 
L 872 0 
L 191 0 
L 1856 2491 
L 403 4666 
z
" transform="scale(0.015625)"/>
       <path id="DejaVuSans-20" transform="scale(0.015625)"/>
       <path id="DejaVuSans-61" d="M 2194 1759 
Q 1497 1759 1228 1600 
Q 959 1441 959 1056 
Q 959 750 1161 570 
Q 1363 391 1709 391 
Q 2188 391 2477 730 
Q 2766 1069 2766 1631 
L 2766 1759 
L 2194 1759 
z
M 3341 1997 
L 3341 0 
L 2766 0 
L 2766 531 
Q 2569 213 2275 61 
Q 1981 -91 1556 -91 
Q 1019 -91 701 211 
Q 384 513 384 1019 
Q 384 1609 779 1909 
Q 1175 2209 1959 2209 
L 2766 2209 
L 2766 2266 
Q 2766 2663 2505 2880 
Q 2244 3097 1772 3097 
Q 1472 3097 1187 3025 
Q 903 2953 641 2809 
L 641 3341 
Q 956 3463 1253 3523 
Q 1550 3584 1831 3584 
Q 2591 3584 2966 3190 
Q 3341 2797 3341 1997 
z
" transform="scale(0.015625)"/>
       <path id="DejaVuSans-78" d="M 3513 3500 
L 2247 1797 
L 3578 0 
L 2900 0 
L 1881 1375 
L 863 0 
L 184 0 
L 1544 1831 
L 300 3500 
L 978 3500 
L 1906 2253 
L 2834 3500 
L 3513 3500 
z
" transform="scale(0.015625)"/>
       <path id="DejaVuSans-69" d="M 603 3500 
L 1178 3500 
L 1178 0 
L 603 0 
L 603 3500 
z
M 603 4863 
L 1178 4863 
L 1178 4134 
L 603 4134 
L 603 4863 
z
" transform="scale(0.015625)"/>
       <path id="DejaVuSans-73" d="M 2834 3397 
L 2834 2853 
Q 2591 2978 2328 3040 
Q 2066 3103 1784 3103 
Q 1356 3103 1142 2972 
Q 928 2841 928 2578 
Q 928 2378 1081 2264 
Q 1234 2150 1697 2047 
L 1894 2003 
Q 2506 1872 2764 1633 
Q 3022 1394 3022 966 
Q 3022 478 2636 193 
Q 2250 -91 1575 -91 
Q 1294 -91 989 -36 
Q 684 19 347 128 
L 347 722 
Q 666 556 975 473 
Q 1284 391 1588 391 
Q 1994 391 2212 530 
Q 2431 669 2431 922 
Q 2431 1156 2273 1281 
Q 2116 1406 1581 1522 
L 1381 1569 
Q 847 1681 609 1914 
Q 372 2147 372 2553 
Q 372 3047 722 3315 
Q 1072 3584 1716 3584 
Q 2034 3584 2315 3537 
Q 2597 3491 2834 3397 
z
" transform="scale(0.015625)"/>
      </defs>
      <use xlink:href="#DejaVuSans-58"/>
      <use xlink:href="#DejaVuSans-20" x="68.505859"/>
      <use xlink:href="#DejaVuSans-61" x="100.292969"/>
      <use xlink:href="#DejaVuSans-78" x="161.572266"/>
      <use xlink:href="#DejaVuSans-69" x="220.751953"/>
      <use xlink:href="#DejaVuSans-73" x="248.535156"/>
     </g>
    </g>
   </g>
   <g id="matplotlib.axis_2">
    <g id="ytick_1">
     <g id="line2d_6">
      <defs>
       <path id="m5a2847caef" d="M 0 0 
L -3.5 0 
" style="stroke: #000000; stroke-width: 0.8"/>
      </defs>
      <g>
       <use xlink:href="#m5a2847caef" x="46.965625" y="211.595567" style="stroke: #000000; stroke-width: 0.8"/>
      </g>
     </g>
     <g id="text_7">
      <!-- 160 -->
      <g transform="translate(20.878125 215.394786)scale(0.1 -0.1)">
       <use xlink:href="#DejaVuSans-31"/>
       <use xlink:href="#DejaVuSans-36" x="63.623047"/>
       <use xlink:href="#DejaVuSans-30" x="127.246094"/>
      </g>
     </g>
    </g>
    <g id="ytick_2">
     <g id="line2d_7">
      <g>
       <use xlink:href="#m5a2847caef" x="46.965625" y="181.349422" style="stroke: #000000; stroke-width: 0.8"/>
      </g>
     </g>
     <g id="text_8">
      <!-- 180 -->
      <g transform="translate(20.878125 185.148641)scale(0.1 -0.1)">
       <use xlink:href="#DejaVuSans-31"/>
       <use xlink:href="#DejaVuSans-38" x="63.623047"/>
       <use xlink:href="#DejaVuSans-30" x="127.246094"/>
      </g>
     </g>
    </g>
    <g id="ytick_3">
     <g id="line2d_8">
      <g>
       <use xlink:href="#m5a2847caef" x="46.965625" y="151.103277" style="stroke: #000000; stroke-width: 0.8"/>
      </g>
     </g>
     <g id="text_9">
      <!-- 200 -->
      <g transform="translate(20.878125 154.902495)scale(0.1 -0.1)">
       <use xlink:href="#DejaVuSans-32"/>
       <use xlink:href="#DejaVuSans-30" x="63.623047"/>
       <use xlink:href="#DejaVuSans-30" x="127.246094"/>
      </g>
     </g>
    </g>
    <g id="ytick_4">
     <g id="line2d_9">
      <g>
       <use xlink:href="#m5a2847caef" x="46.965625" y="120.857132" style="stroke: #000000; stroke-width: 0.8"/>
      </g>
     </g>
     <g id="text_10">
      <!-- 220 -->
      <g transform="translate(20.878125 124.65635)scale(0.1 -0.1)">
       <use xlink:href="#DejaVuSans-32"/>
       <use xlink:href="#DejaVuSans-32" x="63.623047"/>
       <use xlink:href="#DejaVuSans-30" x="127.246094"/>
      </g>
     </g>
    </g>
    <g id="ytick_5">
     <g id="line2d_10">
      <g>
       <use xlink:href="#m5a2847caef" x="46.965625" y="90.610986" style="stroke: #000000; stroke-width: 0.8"/>
      </g>
     </g>
     <g id="text_11">
      <!-- 240 -->
      <g transform="translate(20.878125 94.410205)scale(0.1 -0.1)">
       <use xlink:href="#DejaVuSans-32"/>
       <use xlink:href="#DejaVuSans-34" x="63.623047"/>
       <use xlink:href="#DejaVuSans-30" x="127.246094"/>
      </g>
     </g>
    </g>
    <g id="ytick_6">
     <g id="line2d_11">
      <g>
       <use xlink:href="#m5a2847caef" x="46.965625" y="60.364841" style="stroke: #000000; stroke-width: 0.8"/>
      </g>
     </g>
     <g id="text_12">
      <!-- 260 -->
      <g transform="translate(20.878125 64.16406)scale(0.1 -0.1)">
       <use xlink:href="#DejaVuSans-32"/>
       <use xlink:href="#DejaVuSans-36" x="63.623047"/>
       <use xlink:href="#DejaVuSans-30" x="127.246094"/>
      </g>
     </g>
    </g>
    <g id="ytick_7">
     <g id="line2d_12">
      <g>
       <use xlink:href="#m5a2847caef" x="46.965625" y="30.118696" style="stroke: #000000; stroke-width: 0.8"/>
      </g>
     </g>
     <g id="text_13">
      <!-- 280 -->
      <g transform="translate(20.878125 33.917915)scale(0.1 -0.1)">
       <use xlink:href="#DejaVuSans-32"/>
       <use xlink:href="#DejaVuSans-38" x="63.623047"/>
       <use xlink:href="#DejaVuSans-30" x="127.246094"/>
      </g>
     </g>
    </g>
    <g id="text_14">
     <!-- Y axis -->
     <g transform="translate(14.798438 145.698281)rotate(-90)scale(0.1 -0.1)">
      <defs>
       <path id="DejaVuSans-59" d="M -13 4666 
L 666 4666 
L 1959 2747 
L 3244 4666 
L 3922 4666 
L 2272 2222 
L 2272 0 
L 1638 0 
L 1638 2222 
L -13 4666 
z
" transform="scale(0.015625)"/>
      </defs>
      <use xlink:href="#DejaVuSans-59"/>
      <use xlink:href="#DejaVuSans-20" x="61.083984"/>
      <use xlink:href="#DejaVuSans-61" x="92.871094"/>
      <use xlink:href="#DejaVuSans-78" x="154.150391"/>
      <use xlink:href="#DejaVuSans-69" x="213.330078"/>
      <use xlink:href="#DejaVuSans-73" x="241.113281"/>
     </g>
    </g>
   </g>
   <g id="patch_3">
    <path d="M 46.965625 239.758125 
L 46.965625 22.318125 
" style="fill: none; stroke: #000000; stroke-width: 0.8; stroke-linejoin: miter; stroke-linecap: square"/>
   </g>
   <g id="patch_4">
    <path d="M 381.765625 239.758125 
L 381.765625 22.318125 
" style="fill: none; stroke: #000000; stroke-width: 0.8; stroke-linejoin: miter; stroke-linecap: square"/>
   </g>
   <g id="patch_5">
    <path d="M 46.965625 239.758125 
L 381.765625 239.758125 
" style="fill: none; stroke: #000000; stroke-width: 0.8; stroke-linejoin: miter; stroke-linecap: square"/>
   </g>
   <g id="patch_6">
    <path d="M 46.965625 22.318125 
L 381.765625 22.318125 
" style="fill: none; stroke: #000000; stroke-width: 0.8; stroke-linejoin: miter; stroke-linecap: square"/>
   </g>
   <g id="text_15">
    <!-- Title -->
    <g transform="translate(201.510625 16.318125)scale(0.12 -0.12)">
     <defs>
      <path id="DejaVuSans-54" d="M -19 4666 
L 3928 4666 
L 3928 4134 
L 2272 4134 
L 2272 0 
L 1638 0 
L 1638 4134 
L -19 4134 
L -19 4666 
z
" transform="scale(0.015625)"/>
      <path id="DejaVuSans-74" d="M 1172 4494 
L 1172 3500 
L 2356 3500 
L 2356 3053 
L 1172 3053 
L 1172 1153 
Q 1172 725 1289 603 
Q 1406 481 1766 481 
L 2356 481 
L 2356 0 
L 1766 0 
Q 1100 0 847 248 
Q 594 497 594 1153 
L 594 3053 
L 172 3053 
L 172 3500 
L 594 3500 
L 594 4494 
L 1172 4494 
z
" transform="scale(0.015625)"/>
      <path id="DejaVuSans-6c" d="M 603 4863 
L 1178 4863 
L 1178 0 
L 603 0 
L 603 4863 
z
" transform="scale(0.015625)"/>
      <path id="DejaVuSans-65" d="M 3597 1894 
L 3597 1613 
L 953 1613 
Q 991 1019 1311 708 
Q 1631 397 2203 397 
Q 2534 397 2845 478 
Q 3156 559 3463 722 
L 3463 178 
Q 3153 47 2828 -22 
Q 2503 -91 2169 -91 
Q 1331 -91 842 396 
Q 353 884 353 1716 
Q 353 2575 817 3079 
Q 1281 3584 2069 3584 
Q 2775 3584 3186 3129 
Q 3597 2675 3597 1894 
z
M 3022 2063 
Q 3016 2534 2758 2815 
Q 2500 3097 2075 3097 
Q 1594 3097 1305 2825 
Q 1016 2553 972 2059 
L 3022 2063 
z
" transform="scale(0.015625)"/>
     </defs>
     <use xlink:href="#DejaVuSans-54"/>
     <use xlink:href="#DejaVuSans-69" x="57.958984"/>
     <use xlink:href="#DejaVuSans-74" x="85.742188"/>
     <use xlink:href="#DejaVuSans-6c" x="124.951172"/>
     <use xlink:href="#DejaVuSans-65" x="152.734375"/>
    </g>
   </g>
  </g>
 </g>
 <defs>
  <clipPath id="p4abd1bf5db">
   <rect x="46.965625" y="22.318125" width="334.8" height="217.44"/>
  </clipPath>
 </defs>
</svg>
