<?xml version="1.0" encoding="utf-8" standalone="no"?>
<!DOCTYPE svg PUBLIC "-//W3C//DTD SVG 1.1//EN"
  "http://www.w3.org/Graphics/SVG/1.1/DTD/svg11.dtd">
<svg xmlns:xlink="http://www.w3.org/1999/xlink" width="414.2125pt" height="423.528125pt" viewBox="0 0 414.2125 423.528125" xmlns="http://www.w3.org/2000/svg" version="1.1">
 <metadata>
  <rdf:RDF xmlns:dc="http://purl.org/dc/elements/1.1/" xmlns:cc="http://creativecommons.org/ns#" xmlns:rdf="http://www.w3.org/1999/02/22-rdf-syntax-ns#">
   <cc:Work>
    <dc:type rdf:resource="http://purl.org/dc/dcmitype/StillImage"/>
    <dc:date>2022-02-02T16:10:57.368977</dc:date>
    <dc:format>image/svg+xml</dc:format>
    <dc:creator>
     <cc:Agent>
      <dc:title>Matplotlib v3.5.0, https://matplotlib.org/</dc:title>
     </cc:Agent>
    </dc:creator>
   </cc:Work>
  </rdf:RDF>
 </metadata>
 <defs>
  <style type="text/css">*{stroke-linejoin: round; stroke-linecap: butt}</style>
 </defs>
 <g id="figure_1">
  <g id="patch_1">
   <path d="M 0 423.528125 
L 414.2125 423.528125 
L 414.2125 0 
L 0 0 
L 0 423.528125 
z
" style="fill: none"/>
  </g>
  <g id="axes_1">
   <g id="patch_2">
    <path d="M 34.51875 385.69375 
L 343.156429 385.69375 
L 343.156429 72.084643 
L 34.51875 72.084643 
z
" style="fill: #ffffff"/>
   </g>
   <g id="PathCollection_1">
    <defs>
     <path id="m7a071c13a7" d="M 0 3 
C 0.795609 3 1.55874 2.683901 2.12132 2.12132 
C 2.683901 1.55874 3 0.795609 3 0 
C 3 -0.795609 2.683901 -1.55874 2.12132 -2.12132 
C 1.55874 -2.683901 0.795609 -3 0 -3 
C -0.795609 -3 -1.55874 -2.683901 -2.12132 -2.12132 
C -2.683901 -1.55874 -3 -0.795609 -3 0 
C -3 0.795609 -2.683901 1.55874 -2.12132 2.12132 
C -1.55874 2.683901 -0.795609 3 0 3 
z
" style="stroke: #1f77b4; stroke-opacity: 0.8"/>
    </defs>
    <g clip-path="url(#pccd4b2719f)">
     <use xlink:href="#m7a071c13a7" x="110.898782" y="340.594174" style="fill: #1f77b4; fill-opacity: 0.8; stroke: #1f77b4; stroke-opacity: 0.8"/>
     <use xlink:href="#m7a071c13a7" x="95.31102" y="340.594174" style="fill: #1f77b4; fill-opacity: 0.8; stroke: #1f77b4; stroke-opacity: 0.8"/>
     <use xlink:href="#m7a071c13a7" x="79.723258" y="344.500357" style="fill: #1f77b4; fill-opacity: 0.8; stroke: #1f77b4; stroke-opacity: 0.8"/>
     <use xlink:href="#m7a071c13a7" x="71.929378" y="336.68799" style="fill: #1f77b4; fill-opacity: 0.8; stroke: #1f77b4; stroke-opacity: 0.8"/>
     <use xlink:href="#m7a071c13a7" x="103.104901" y="340.594174" style="fill: #1f77b4; fill-opacity: 0.8; stroke: #1f77b4; stroke-opacity: 0.8"/>
     <use xlink:href="#m7a071c13a7" x="134.280424" y="328.875623" style="fill: #1f77b4; fill-opacity: 0.8; stroke: #1f77b4; stroke-opacity: 0.8"/>
     <use xlink:href="#m7a071c13a7" x="71.929378" y="340.594174" style="fill: #1f77b4; fill-opacity: 0.8; stroke: #1f77b4; stroke-opacity: 0.8"/>
     <use xlink:href="#m7a071c13a7" x="103.104901" y="336.68799" style="fill: #1f77b4; fill-opacity: 0.8; stroke: #1f77b4; stroke-opacity: 0.8"/>
     <use xlink:href="#m7a071c13a7" x="56.341616" y="340.594174" style="fill: #1f77b4; fill-opacity: 0.8; stroke: #1f77b4; stroke-opacity: 0.8"/>
     <use xlink:href="#m7a071c13a7" x="95.31102" y="336.68799" style="fill: #1f77b4; fill-opacity: 0.8; stroke: #1f77b4; stroke-opacity: 0.8"/>
     <use xlink:href="#m7a071c13a7" x="134.280424" y="336.68799" style="fill: #1f77b4; fill-opacity: 0.8; stroke: #1f77b4; stroke-opacity: 0.8"/>
     <use xlink:href="#m7a071c13a7" x="87.517139" y="332.781806" style="fill: #1f77b4; fill-opacity: 0.8; stroke: #1f77b4; stroke-opacity: 0.8"/>
     <use xlink:href="#m7a071c13a7" x="87.517139" y="340.594174" style="fill: #1f77b4; fill-opacity: 0.8; stroke: #1f77b4; stroke-opacity: 0.8"/>
     <use xlink:href="#m7a071c13a7" x="48.547735" y="352.312725" style="fill: #1f77b4; fill-opacity: 0.8; stroke: #1f77b4; stroke-opacity: 0.8"/>
     <use xlink:href="#m7a071c13a7" x="165.455947" y="348.406541" style="fill: #1f77b4; fill-opacity: 0.8; stroke: #1f77b4; stroke-opacity: 0.8"/>
     <use xlink:href="#m7a071c13a7" x="157.662066" y="336.68799" style="fill: #1f77b4; fill-opacity: 0.8; stroke: #1f77b4; stroke-opacity: 0.8"/>
     <use xlink:href="#m7a071c13a7" x="134.280424" y="344.500357" style="fill: #1f77b4; fill-opacity: 0.8; stroke: #1f77b4; stroke-opacity: 0.8"/>
     <use xlink:href="#m7a071c13a7" x="110.898782" y="340.594174" style="fill: #1f77b4; fill-opacity: 0.8; stroke: #1f77b4; stroke-opacity: 0.8"/>
     <use xlink:href="#m7a071c13a7" x="157.662066" y="328.875623" style="fill: #1f77b4; fill-opacity: 0.8; stroke: #1f77b4; stroke-opacity: 0.8"/>
     <use xlink:href="#m7a071c13a7" x="110.898782" y="336.68799" style="fill: #1f77b4; fill-opacity: 0.8; stroke: #1f77b4; stroke-opacity: 0.8"/>
     <use xlink:href="#m7a071c13a7" x="134.280424" y="328.875623" style="fill: #1f77b4; fill-opacity: 0.8; stroke: #1f77b4; stroke-opacity: 0.8"/>
     <use xlink:href="#m7a071c13a7" x="110.898782" y="336.68799" style="fill: #1f77b4; fill-opacity: 0.8; stroke: #1f77b4; stroke-opacity: 0.8"/>
     <use xlink:href="#m7a071c13a7" x="71.929378" y="356.218908" style="fill: #1f77b4; fill-opacity: 0.8; stroke: #1f77b4; stroke-opacity: 0.8"/>
     <use xlink:href="#m7a071c13a7" x="110.898782" y="328.875623" style="fill: #1f77b4; fill-opacity: 0.8; stroke: #1f77b4; stroke-opacity: 0.8"/>
     <use xlink:href="#m7a071c13a7" x="87.517139" y="321.063255" style="fill: #1f77b4; fill-opacity: 0.8; stroke: #1f77b4; stroke-opacity: 0.8"/>
     <use xlink:href="#m7a071c13a7" x="103.104901" y="332.781806" style="fill: #1f77b4; fill-opacity: 0.8; stroke: #1f77b4; stroke-opacity: 0.8"/>
     <use xlink:href="#m7a071c13a7" x="103.104901" y="332.781806" style="fill: #1f77b4; fill-opacity: 0.8; stroke: #1f77b4; stroke-opacity: 0.8"/>
     <use xlink:href="#m7a071c13a7" x="118.692662" y="336.68799" style="fill: #1f77b4; fill-opacity: 0.8; stroke: #1f77b4; stroke-opacity: 0.8"/>
     <use xlink:href="#m7a071c13a7" x="118.692662" y="340.594174" style="fill: #1f77b4; fill-opacity: 0.8; stroke: #1f77b4; stroke-opacity: 0.8"/>
     <use xlink:href="#m7a071c13a7" x="79.723258" y="332.781806" style="fill: #1f77b4; fill-opacity: 0.8; stroke: #1f77b4; stroke-opacity: 0.8"/>
     <use xlink:href="#m7a071c13a7" x="87.517139" y="332.781806" style="fill: #1f77b4; fill-opacity: 0.8; stroke: #1f77b4; stroke-opacity: 0.8"/>
     <use xlink:href="#m7a071c13a7" x="134.280424" y="336.68799" style="fill: #1f77b4; fill-opacity: 0.8; stroke: #1f77b4; stroke-opacity: 0.8"/>
     <use xlink:href="#m7a071c13a7" x="118.692662" y="336.68799" style="fill: #1f77b4; fill-opacity: 0.8; stroke: #1f77b4; stroke-opacity: 0.8"/>
     <use xlink:href="#m7a071c13a7" x="142.074305" y="340.594174" style="fill: #1f77b4; fill-opacity: 0.8; stroke: #1f77b4; stroke-opacity: 0.8"/>
     <use xlink:href="#m7a071c13a7" x="95.31102" y="336.68799" style="fill: #1f77b4; fill-opacity: 0.8; stroke: #1f77b4; stroke-opacity: 0.8"/>
     <use xlink:href="#m7a071c13a7" x="103.104901" y="348.406541" style="fill: #1f77b4; fill-opacity: 0.8; stroke: #1f77b4; stroke-opacity: 0.8"/>
     <use xlink:href="#m7a071c13a7" x="142.074305" y="344.500357" style="fill: #1f77b4; fill-opacity: 0.8; stroke: #1f77b4; stroke-opacity: 0.8"/>
     <use xlink:href="#m7a071c13a7" x="95.31102" y="336.68799" style="fill: #1f77b4; fill-opacity: 0.8; stroke: #1f77b4; stroke-opacity: 0.8"/>
     <use xlink:href="#m7a071c13a7" x="56.341616" y="344.500357" style="fill: #1f77b4; fill-opacity: 0.8; stroke: #1f77b4; stroke-opacity: 0.8"/>
     <use xlink:href="#m7a071c13a7" x="110.898782" y="336.68799" style="fill: #1f77b4; fill-opacity: 0.8; stroke: #1f77b4; stroke-opacity: 0.8"/>
     <use xlink:href="#m7a071c13a7" x="103.104901" y="344.500357" style="fill: #1f77b4; fill-opacity: 0.8; stroke: #1f77b4; stroke-opacity: 0.8"/>
     <use xlink:href="#m7a071c13a7" x="64.135497" y="344.500357" style="fill: #1f77b4; fill-opacity: 0.8; stroke: #1f77b4; stroke-opacity: 0.8"/>
     <use xlink:href="#m7a071c13a7" x="56.341616" y="344.500357" style="fill: #1f77b4; fill-opacity: 0.8; stroke: #1f77b4; stroke-opacity: 0.8"/>
     <use xlink:href="#m7a071c13a7" x="103.104901" y="332.781806" style="fill: #1f77b4; fill-opacity: 0.8; stroke: #1f77b4; stroke-opacity: 0.8"/>
     <use xlink:href="#m7a071c13a7" x="110.898782" y="321.063255" style="fill: #1f77b4; fill-opacity: 0.8; stroke: #1f77b4; stroke-opacity: 0.8"/>
     <use xlink:href="#m7a071c13a7" x="87.517139" y="340.594174" style="fill: #1f77b4; fill-opacity: 0.8; stroke: #1f77b4; stroke-opacity: 0.8"/>
     <use xlink:href="#m7a071c13a7" x="110.898782" y="332.781806" style="fill: #1f77b4; fill-opacity: 0.8; stroke: #1f77b4; stroke-opacity: 0.8"/>
     <use xlink:href="#m7a071c13a7" x="71.929378" y="340.594174" style="fill: #1f77b4; fill-opacity: 0.8; stroke: #1f77b4; stroke-opacity: 0.8"/>
     <use xlink:href="#m7a071c13a7" x="126.486543" y="336.68799" style="fill: #1f77b4; fill-opacity: 0.8; stroke: #1f77b4; stroke-opacity: 0.8"/>
     <use xlink:href="#m7a071c13a7" x="103.104901" y="340.594174" style="fill: #1f77b4; fill-opacity: 0.8; stroke: #1f77b4; stroke-opacity: 0.8"/>
     <use xlink:href="#m7a071c13a7" x="258.982516" y="211.690112" style="fill: #1f77b4; fill-opacity: 0.8; stroke: #1f77b4; stroke-opacity: 0.8"/>
     <use xlink:href="#m7a071c13a7" x="212.219232" y="219.50248" style="fill: #1f77b4; fill-opacity: 0.8; stroke: #1f77b4; stroke-opacity: 0.8"/>
     <use xlink:href="#m7a071c13a7" x="251.188635" y="203.877745" style="fill: #1f77b4; fill-opacity: 0.8; stroke: #1f77b4; stroke-opacity: 0.8"/>
     <use xlink:href="#m7a071c13a7" x="142.074305" y="239.033398" style="fill: #1f77b4; fill-opacity: 0.8; stroke: #1f77b4; stroke-opacity: 0.8"/>
     <use xlink:href="#m7a071c13a7" x="220.013112" y="215.596296" style="fill: #1f77b4; fill-opacity: 0.8; stroke: #1f77b4; stroke-opacity: 0.8"/>
     <use xlink:href="#m7a071c13a7" x="157.662066" y="219.50248" style="fill: #1f77b4; fill-opacity: 0.8; stroke: #1f77b4; stroke-opacity: 0.8"/>
     <use xlink:href="#m7a071c13a7" x="204.425351" y="211.690112" style="fill: #1f77b4; fill-opacity: 0.8; stroke: #1f77b4; stroke-opacity: 0.8"/>
     <use xlink:href="#m7a071c13a7" x="95.31102" y="266.376684" style="fill: #1f77b4; fill-opacity: 0.8; stroke: #1f77b4; stroke-opacity: 0.8"/>
     <use xlink:href="#m7a071c13a7" x="227.806993" y="215.596296" style="fill: #1f77b4; fill-opacity: 0.8; stroke: #1f77b4; stroke-opacity: 0.8"/>
     <use xlink:href="#m7a071c13a7" x="118.692662" y="242.939582" style="fill: #1f77b4; fill-opacity: 0.8; stroke: #1f77b4; stroke-opacity: 0.8"/>
     <use xlink:href="#m7a071c13a7" x="103.104901" y="258.564316" style="fill: #1f77b4; fill-opacity: 0.8; stroke: #1f77b4; stroke-opacity: 0.8"/>
     <use xlink:href="#m7a071c13a7" x="173.249828" y="231.221031" style="fill: #1f77b4; fill-opacity: 0.8; stroke: #1f77b4; stroke-opacity: 0.8"/>
     <use xlink:href="#m7a071c13a7" x="181.043709" y="239.033398" style="fill: #1f77b4; fill-opacity: 0.8; stroke: #1f77b4; stroke-opacity: 0.8"/>
     <use xlink:href="#m7a071c13a7" x="188.837589" y="211.690112" style="fill: #1f77b4; fill-opacity: 0.8; stroke: #1f77b4; stroke-opacity: 0.8"/>
     <use xlink:href="#m7a071c13a7" x="149.868185" y="254.658133" style="fill: #1f77b4; fill-opacity: 0.8; stroke: #1f77b4; stroke-opacity: 0.8"/>
     <use xlink:href="#m7a071c13a7" x="235.600874" y="223.408663" style="fill: #1f77b4; fill-opacity: 0.8; stroke: #1f77b4; stroke-opacity: 0.8"/>
     <use xlink:href="#m7a071c13a7" x="149.868185" y="219.50248" style="fill: #1f77b4; fill-opacity: 0.8; stroke: #1f77b4; stroke-opacity: 0.8"/>
     <use xlink:href="#m7a071c13a7" x="165.455947" y="235.127214" style="fill: #1f77b4; fill-opacity: 0.8; stroke: #1f77b4; stroke-opacity: 0.8"/>
     <use xlink:href="#m7a071c13a7" x="196.63147" y="219.50248" style="fill: #1f77b4; fill-opacity: 0.8; stroke: #1f77b4; stroke-opacity: 0.8"/>
     <use xlink:href="#m7a071c13a7" x="149.868185" y="242.939582" style="fill: #1f77b4; fill-opacity: 0.8; stroke: #1f77b4; stroke-opacity: 0.8"/>
     <use xlink:href="#m7a071c13a7" x="173.249828" y="207.783929" style="fill: #1f77b4; fill-opacity: 0.8; stroke: #1f77b4; stroke-opacity: 0.8"/>
     <use xlink:href="#m7a071c13a7" x="188.837589" y="239.033398" style="fill: #1f77b4; fill-opacity: 0.8; stroke: #1f77b4; stroke-opacity: 0.8"/>
     <use xlink:href="#m7a071c13a7" x="204.425351" y="203.877745" style="fill: #1f77b4; fill-opacity: 0.8; stroke: #1f77b4; stroke-opacity: 0.8"/>
     <use xlink:href="#m7a071c13a7" x="188.837589" y="211.690112" style="fill: #1f77b4; fill-opacity: 0.8; stroke: #1f77b4; stroke-opacity: 0.8"/>
     <use xlink:href="#m7a071c13a7" x="212.219232" y="227.314847" style="fill: #1f77b4; fill-opacity: 0.8; stroke: #1f77b4; stroke-opacity: 0.8"/>
     <use xlink:href="#m7a071c13a7" x="227.806993" y="223.408663" style="fill: #1f77b4; fill-opacity: 0.8; stroke: #1f77b4; stroke-opacity: 0.8"/>
     <use xlink:href="#m7a071c13a7" x="243.394755" y="207.783929" style="fill: #1f77b4; fill-opacity: 0.8; stroke: #1f77b4; stroke-opacity: 0.8"/>
     <use xlink:href="#m7a071c13a7" x="235.600874" y="199.971561" style="fill: #1f77b4; fill-opacity: 0.8; stroke: #1f77b4; stroke-opacity: 0.8"/>
     <use xlink:href="#m7a071c13a7" x="181.043709" y="219.50248" style="fill: #1f77b4; fill-opacity: 0.8; stroke: #1f77b4; stroke-opacity: 0.8"/>
     <use xlink:href="#m7a071c13a7" x="157.662066" y="258.564316" style="fill: #1f77b4; fill-opacity: 0.8; stroke: #1f77b4; stroke-opacity: 0.8"/>
     <use xlink:href="#m7a071c13a7" x="142.074305" y="246.845765" style="fill: #1f77b4; fill-opacity: 0.8; stroke: #1f77b4; stroke-opacity: 0.8"/>
     <use xlink:href="#m7a071c13a7" x="142.074305" y="250.751949" style="fill: #1f77b4; fill-opacity: 0.8; stroke: #1f77b4; stroke-opacity: 0.8"/>
     <use xlink:href="#m7a071c13a7" x="165.455947" y="242.939582" style="fill: #1f77b4; fill-opacity: 0.8; stroke: #1f77b4; stroke-opacity: 0.8"/>
     <use xlink:href="#m7a071c13a7" x="181.043709" y="196.065378" style="fill: #1f77b4; fill-opacity: 0.8; stroke: #1f77b4; stroke-opacity: 0.8"/>
     <use xlink:href="#m7a071c13a7" x="134.280424" y="219.50248" style="fill: #1f77b4; fill-opacity: 0.8; stroke: #1f77b4; stroke-opacity: 0.8"/>
     <use xlink:href="#m7a071c13a7" x="181.043709" y="219.50248" style="fill: #1f77b4; fill-opacity: 0.8; stroke: #1f77b4; stroke-opacity: 0.8"/>
     <use xlink:href="#m7a071c13a7" x="235.600874" y="211.690112" style="fill: #1f77b4; fill-opacity: 0.8; stroke: #1f77b4; stroke-opacity: 0.8"/>
     <use xlink:href="#m7a071c13a7" x="204.425351" y="223.408663" style="fill: #1f77b4; fill-opacity: 0.8; stroke: #1f77b4; stroke-opacity: 0.8"/>
     <use xlink:href="#m7a071c13a7" x="149.868185" y="235.127214" style="fill: #1f77b4; fill-opacity: 0.8; stroke: #1f77b4; stroke-opacity: 0.8"/>
     <use xlink:href="#m7a071c13a7" x="142.074305" y="239.033398" style="fill: #1f77b4; fill-opacity: 0.8; stroke: #1f77b4; stroke-opacity: 0.8"/>
     <use xlink:href="#m7a071c13a7" x="142.074305" y="223.408663" style="fill: #1f77b4; fill-opacity: 0.8; stroke: #1f77b4; stroke-opacity: 0.8"/>
     <use xlink:href="#m7a071c13a7" x="188.837589" y="215.596296" style="fill: #1f77b4; fill-opacity: 0.8; stroke: #1f77b4; stroke-opacity: 0.8"/>
     <use xlink:href="#m7a071c13a7" x="165.455947" y="239.033398" style="fill: #1f77b4; fill-opacity: 0.8; stroke: #1f77b4; stroke-opacity: 0.8"/>
     <use xlink:href="#m7a071c13a7" x="103.104901" y="266.376684" style="fill: #1f77b4; fill-opacity: 0.8; stroke: #1f77b4; stroke-opacity: 0.8"/>
     <use xlink:href="#m7a071c13a7" x="149.868185" y="231.221031" style="fill: #1f77b4; fill-opacity: 0.8; stroke: #1f77b4; stroke-opacity: 0.8"/>
     <use xlink:href="#m7a071c13a7" x="157.662066" y="231.221031" style="fill: #1f77b4; fill-opacity: 0.8; stroke: #1f77b4; stroke-opacity: 0.8"/>
     <use xlink:href="#m7a071c13a7" x="157.662066" y="231.221031" style="fill: #1f77b4; fill-opacity: 0.8; stroke: #1f77b4; stroke-opacity: 0.8"/>
     <use xlink:href="#m7a071c13a7" x="196.63147" y="227.314847" style="fill: #1f77b4; fill-opacity: 0.8; stroke: #1f77b4; stroke-opacity: 0.8"/>
     <use xlink:href="#m7a071c13a7" x="110.898782" y="278.095235" style="fill: #1f77b4; fill-opacity: 0.8; stroke: #1f77b4; stroke-opacity: 0.8"/>
     <use xlink:href="#m7a071c13a7" x="157.662066" y="235.127214" style="fill: #1f77b4; fill-opacity: 0.8; stroke: #1f77b4; stroke-opacity: 0.8"/>
     <use xlink:href="#m7a071c13a7" x="204.425351" y="160.909724" style="fill: #1f77b4; fill-opacity: 0.8; stroke: #1f77b4; stroke-opacity: 0.8"/>
     <use xlink:href="#m7a071c13a7" x="165.455947" y="196.065378" style="fill: #1f77b4; fill-opacity: 0.8; stroke: #1f77b4; stroke-opacity: 0.8"/>
     <use xlink:href="#m7a071c13a7" x="266.776397" y="164.815908" style="fill: #1f77b4; fill-opacity: 0.8; stroke: #1f77b4; stroke-opacity: 0.8"/>
     <use xlink:href="#m7a071c13a7" x="204.425351" y="176.534459" style="fill: #1f77b4; fill-opacity: 0.8; stroke: #1f77b4; stroke-opacity: 0.8"/>
     <use xlink:href="#m7a071c13a7" x="220.013112" y="168.722092" style="fill: #1f77b4; fill-opacity: 0.8; stroke: #1f77b4; stroke-opacity: 0.8"/>
     <use xlink:href="#m7a071c13a7" x="305.745801" y="137.472622" style="fill: #1f77b4; fill-opacity: 0.8; stroke: #1f77b4; stroke-opacity: 0.8"/>
     <use xlink:href="#m7a071c13a7" x="95.31102" y="219.50248" style="fill: #1f77b4; fill-opacity: 0.8; stroke: #1f77b4; stroke-opacity: 0.8"/>
     <use xlink:href="#m7a071c13a7" x="282.364159" y="149.191173" style="fill: #1f77b4; fill-opacity: 0.8; stroke: #1f77b4; stroke-opacity: 0.8"/>
     <use xlink:href="#m7a071c13a7" x="235.600874" y="168.722092" style="fill: #1f77b4; fill-opacity: 0.8; stroke: #1f77b4; stroke-opacity: 0.8"/>
     <use xlink:href="#m7a071c13a7" x="274.570278" y="157.003541" style="fill: #1f77b4; fill-opacity: 0.8; stroke: #1f77b4; stroke-opacity: 0.8"/>
     <use xlink:href="#m7a071c13a7" x="220.013112" y="196.065378" style="fill: #1f77b4; fill-opacity: 0.8; stroke: #1f77b4; stroke-opacity: 0.8"/>
     <use xlink:href="#m7a071c13a7" x="212.219232" y="188.25301" style="fill: #1f77b4; fill-opacity: 0.8; stroke: #1f77b4; stroke-opacity: 0.8"/>
     <use xlink:href="#m7a071c13a7" x="243.394755" y="180.440643" style="fill: #1f77b4; fill-opacity: 0.8; stroke: #1f77b4; stroke-opacity: 0.8"/>
     <use xlink:href="#m7a071c13a7" x="157.662066" y="199.971561" style="fill: #1f77b4; fill-opacity: 0.8; stroke: #1f77b4; stroke-opacity: 0.8"/>
     <use xlink:href="#m7a071c13a7" x="165.455947" y="196.065378" style="fill: #1f77b4; fill-opacity: 0.8; stroke: #1f77b4; stroke-opacity: 0.8"/>
     <use xlink:href="#m7a071c13a7" x="212.219232" y="188.25301" style="fill: #1f77b4; fill-opacity: 0.8; stroke: #1f77b4; stroke-opacity: 0.8"/>
     <use xlink:href="#m7a071c13a7" x="220.013112" y="180.440643" style="fill: #1f77b4; fill-opacity: 0.8; stroke: #1f77b4; stroke-opacity: 0.8"/>
     <use xlink:href="#m7a071c13a7" x="313.539682" y="133.566439" style="fill: #1f77b4; fill-opacity: 0.8; stroke: #1f77b4; stroke-opacity: 0.8"/>
     <use xlink:href="#m7a071c13a7" x="313.539682" y="125.754071" style="fill: #1f77b4; fill-opacity: 0.8; stroke: #1f77b4; stroke-opacity: 0.8"/>
     <use xlink:href="#m7a071c13a7" x="181.043709" y="199.971561" style="fill: #1f77b4; fill-opacity: 0.8; stroke: #1f77b4; stroke-opacity: 0.8"/>
     <use xlink:href="#m7a071c13a7" x="251.188635" y="172.628275" style="fill: #1f77b4; fill-opacity: 0.8; stroke: #1f77b4; stroke-opacity: 0.8"/>
     <use xlink:href="#m7a071c13a7" x="149.868185" y="203.877745" style="fill: #1f77b4; fill-opacity: 0.8; stroke: #1f77b4; stroke-opacity: 0.8"/>
     <use xlink:href="#m7a071c13a7" x="313.539682" y="133.566439" style="fill: #1f77b4; fill-opacity: 0.8; stroke: #1f77b4; stroke-opacity: 0.8"/>
     <use xlink:href="#m7a071c13a7" x="204.425351" y="203.877745" style="fill: #1f77b4; fill-opacity: 0.8; stroke: #1f77b4; stroke-opacity: 0.8"/>
     <use xlink:href="#m7a071c13a7" x="235.600874" y="172.628275" style="fill: #1f77b4; fill-opacity: 0.8; stroke: #1f77b4; stroke-opacity: 0.8"/>
     <use xlink:href="#m7a071c13a7" x="274.570278" y="160.909724" style="fill: #1f77b4; fill-opacity: 0.8; stroke: #1f77b4; stroke-opacity: 0.8"/>
     <use xlink:href="#m7a071c13a7" x="196.63147" y="207.783929" style="fill: #1f77b4; fill-opacity: 0.8; stroke: #1f77b4; stroke-opacity: 0.8"/>
     <use xlink:href="#m7a071c13a7" x="188.837589" y="203.877745" style="fill: #1f77b4; fill-opacity: 0.8; stroke: #1f77b4; stroke-opacity: 0.8"/>
     <use xlink:href="#m7a071c13a7" x="212.219232" y="176.534459" style="fill: #1f77b4; fill-opacity: 0.8; stroke: #1f77b4; stroke-opacity: 0.8"/>
     <use xlink:href="#m7a071c13a7" x="274.570278" y="168.722092" style="fill: #1f77b4; fill-opacity: 0.8; stroke: #1f77b4; stroke-opacity: 0.8"/>
     <use xlink:href="#m7a071c13a7" x="290.158039" y="157.003541" style="fill: #1f77b4; fill-opacity: 0.8; stroke: #1f77b4; stroke-opacity: 0.8"/>
     <use xlink:href="#m7a071c13a7" x="329.127443" y="145.28499" style="fill: #1f77b4; fill-opacity: 0.8; stroke: #1f77b4; stroke-opacity: 0.8"/>
     <use xlink:href="#m7a071c13a7" x="212.219232" y="176.534459" style="fill: #1f77b4; fill-opacity: 0.8; stroke: #1f77b4; stroke-opacity: 0.8"/>
     <use xlink:href="#m7a071c13a7" x="204.425351" y="196.065378" style="fill: #1f77b4; fill-opacity: 0.8; stroke: #1f77b4; stroke-opacity: 0.8"/>
     <use xlink:href="#m7a071c13a7" x="188.837589" y="176.534459" style="fill: #1f77b4; fill-opacity: 0.8; stroke: #1f77b4; stroke-opacity: 0.8"/>
     <use xlink:href="#m7a071c13a7" x="313.539682" y="157.003541" style="fill: #1f77b4; fill-opacity: 0.8; stroke: #1f77b4; stroke-opacity: 0.8"/>
     <use xlink:href="#m7a071c13a7" x="204.425351" y="176.534459" style="fill: #1f77b4; fill-opacity: 0.8; stroke: #1f77b4; stroke-opacity: 0.8"/>
     <use xlink:href="#m7a071c13a7" x="212.219232" y="180.440643" style="fill: #1f77b4; fill-opacity: 0.8; stroke: #1f77b4; stroke-opacity: 0.8"/>
     <use xlink:href="#m7a071c13a7" x="181.043709" y="207.783929" style="fill: #1f77b4; fill-opacity: 0.8; stroke: #1f77b4; stroke-opacity: 0.8"/>
     <use xlink:href="#m7a071c13a7" x="251.188635" y="184.346826" style="fill: #1f77b4; fill-opacity: 0.8; stroke: #1f77b4; stroke-opacity: 0.8"/>
     <use xlink:href="#m7a071c13a7" x="235.600874" y="176.534459" style="fill: #1f77b4; fill-opacity: 0.8; stroke: #1f77b4; stroke-opacity: 0.8"/>
     <use xlink:href="#m7a071c13a7" x="251.188635" y="196.065378" style="fill: #1f77b4; fill-opacity: 0.8; stroke: #1f77b4; stroke-opacity: 0.8"/>
     <use xlink:href="#m7a071c13a7" x="165.455947" y="196.065378" style="fill: #1f77b4; fill-opacity: 0.8; stroke: #1f77b4; stroke-opacity: 0.8"/>
     <use xlink:href="#m7a071c13a7" x="243.394755" y="164.815908" style="fill: #1f77b4; fill-opacity: 0.8; stroke: #1f77b4; stroke-opacity: 0.8"/>
     <use xlink:href="#m7a071c13a7" x="235.600874" y="172.628275" style="fill: #1f77b4; fill-opacity: 0.8; stroke: #1f77b4; stroke-opacity: 0.8"/>
     <use xlink:href="#m7a071c13a7" x="235.600874" y="192.159194" style="fill: #1f77b4; fill-opacity: 0.8; stroke: #1f77b4; stroke-opacity: 0.8"/>
     <use xlink:href="#m7a071c13a7" x="204.425351" y="199.971561" style="fill: #1f77b4; fill-opacity: 0.8; stroke: #1f77b4; stroke-opacity: 0.8"/>
     <use xlink:href="#m7a071c13a7" x="220.013112" y="192.159194" style="fill: #1f77b4; fill-opacity: 0.8; stroke: #1f77b4; stroke-opacity: 0.8"/>
     <use xlink:href="#m7a071c13a7" x="196.63147" y="184.346826" style="fill: #1f77b4; fill-opacity: 0.8; stroke: #1f77b4; stroke-opacity: 0.8"/>
     <use xlink:href="#m7a071c13a7" x="173.249828" y="196.065378" style="fill: #1f77b4; fill-opacity: 0.8; stroke: #1f77b4; stroke-opacity: 0.8"/>
    </g>
   </g>
   <g id="PolyCollection_1">
    <path d="M 48.547735 349.562401 
L 48.547735 371.438791 
L 51.381874 368.646984 
L 54.216012 365.87424 
L 57.050151 363.101495 
L 59.884289 360.328751 
L 62.718428 357.556007 
L 65.552566 354.783263 
L 68.386705 351.982762 
L 71.220843 349.15053 
L 74.054982 346.31096 
L 76.88912 343.476191 
L 79.723258 340.640289 
L 82.557397 337.802711 
L 85.391535 334.965133 
L 88.225674 332.127554 
L 91.059812 329.259398 
L 93.893951 326.424723 
L 96.728089 323.61889 
L 99.562228 320.786601 
L 102.396366 317.96918 
L 105.230505 315.214744 
L 108.064643 312.343776 
L 110.898782 309.520513 
L 113.73292 306.719697 
L 116.567058 303.940631 
L 119.401197 301.190726 
L 122.235335 298.391875 
L 125.069474 295.6387 
L 127.903612 292.785199 
L 130.737751 290.113319 
L 133.571889 287.390613 
L 136.406028 284.604509 
L 139.240166 281.898468 
L 142.074305 279.202105 
L 144.908443 276.455123 
L 147.742582 273.755185 
L 150.57672 271.042294 
L 153.410859 268.396945 
L 156.244997 265.724404 
L 159.079135 263.04377 
L 161.913274 260.360961 
L 164.747412 257.697193 
L 167.581551 255.035598 
L 170.415689 252.345042 
L 173.249828 249.744475 
L 176.083966 246.997569 
L 178.918105 244.30073 
L 181.752243 241.641986 
L 184.586382 239.021527 
L 187.42052 236.397932 
L 190.254659 233.735361 
L 193.088797 231.118639 
L 195.922935 228.359135 
L 198.757074 225.829316 
L 201.591212 223.291409 
L 204.425351 220.626435 
L 207.259489 218.004094 
L 210.093628 215.349113 
L 212.927766 212.694571 
L 215.761905 210.13752 
L 218.596043 207.441297 
L 221.430182 204.833002 
L 224.26432 202.186383 
L 227.098459 199.644259 
L 229.932597 197.081043 
L 232.766735 194.548294 
L 235.600874 192.038555 
L 238.435012 189.570344 
L 241.269151 187.107009 
L 244.103289 184.635012 
L 246.937428 182.13937 
L 249.771566 179.603604 
L 252.605705 177.06154 
L 255.439843 174.592769 
L 258.273982 172.088254 
L 261.10812 169.615722 
L 263.942259 167.089716 
L 266.776397 164.569268 
L 269.610535 162.020321 
L 272.444674 159.538702 
L 275.278812 156.973582 
L 278.112951 154.483269 
L 280.947089 152.03588 
L 283.781228 149.470984 
L 286.615366 146.896135 
L 289.449505 144.443069 
L 292.283643 141.915262 
L 295.117782 139.377611 
L 297.95192 136.97263 
L 300.786059 134.415392 
L 303.620197 131.908558 
L 306.454335 129.362546 
L 309.288474 126.885329 
L 312.122612 124.419157 
L 314.956751 121.9822 
L 317.790889 119.479021 
L 320.625028 116.977142 
L 323.459166 114.466632 
L 326.293305 112.023621 
L 329.127443 109.564051 
L 329.127443 86.339602 
L 329.127443 86.339602 
L 326.293305 89.155798 
L 323.459166 92.032762 
L 320.625028 94.909727 
L 317.790889 97.786691 
L 314.956751 100.663952 
L 312.122612 103.542753 
L 309.288474 106.398564 
L 306.454335 109.162522 
L 303.620197 111.918974 
L 300.786059 114.732155 
L 297.95192 117.63791 
L 295.117782 120.525166 
L 292.283643 123.414588 
L 289.449505 126.321892 
L 286.615366 129.200719 
L 283.781228 132.038827 
L 280.947089 134.915982 
L 278.112951 137.735606 
L 275.278812 140.537441 
L 272.444674 143.355725 
L 269.610535 146.138957 
L 266.776397 148.938664 
L 263.942259 151.73983 
L 261.10812 154.538603 
L 258.273982 157.342337 
L 255.439843 160.10869 
L 252.605705 162.839129 
L 249.771566 165.681811 
L 246.937428 168.503338 
L 244.103289 171.339606 
L 241.269151 174.191257 
L 238.435012 176.983506 
L 235.600874 179.74971 
L 232.766735 182.550713 
L 229.932597 185.353658 
L 227.098459 188.072966 
L 224.26432 190.828135 
L 221.430182 193.662701 
L 218.596043 196.472751 
L 215.761905 199.137807 
L 212.927766 201.806076 
L 210.093628 204.477462 
L 207.259489 207.148849 
L 204.425351 209.814837 
L 201.591212 212.544319 
L 198.757074 215.165245 
L 195.922935 217.85517 
L 193.088797 220.505781 
L 190.254659 223.242859 
L 187.42052 225.930977 
L 184.586382 228.532133 
L 181.752243 231.191327 
L 178.918105 233.862714 
L 176.083966 236.457147 
L 173.249828 239.101804 
L 170.415689 241.71989 
L 167.581551 244.336716 
L 164.747412 246.951806 
L 161.913274 249.421804 
L 159.079135 251.989339 
L 156.244997 254.600334 
L 153.410859 257.130726 
L 150.57672 259.699781 
L 147.742582 262.296293 
L 144.908443 264.892804 
L 142.074305 267.477206 
L 139.240166 269.962909 
L 136.406028 272.439555 
L 133.571889 274.940749 
L 130.737751 277.501574 
L 127.903612 280.05667 
L 125.069474 282.622955 
L 122.235335 285.101211 
L 119.401197 287.606225 
L 116.567058 290.196136 
L 113.73292 292.791957 
L 110.898782 295.337063 
L 108.064643 297.842232 
L 105.230505 300.276819 
L 102.396366 302.707675 
L 99.562228 305.199435 
L 96.728089 307.629524 
L 93.893951 310.094931 
L 91.059812 312.561514 
L 88.225674 315.029459 
L 85.391535 317.524087 
L 82.557397 320.039235 
L 79.723258 322.554383 
L 76.88912 325.069531 
L 74.054982 327.584679 
L 71.220843 330.095966 
L 68.386705 332.522455 
L 65.552566 334.948944 
L 62.718428 337.375433 
L 59.884289 339.801922 
L 57.050151 342.228411 
L 54.216012 344.654901 
L 51.381874 347.09673 
L 48.547735 349.562401 
z
" clip-path="url(#pccd4b2719f)" style="fill: #1f77b4; fill-opacity: 0.15"/>
   </g>
   <g id="matplotlib.axis_1">
    <g id="xtick_1">
     <g id="line2d_1">
      <defs>
       <path id="mc730972c23" d="M 0 0 
L 0 3.5 
" style="stroke: #000000; stroke-width: 0.8"/>
      </defs>
      <g>
       <use xlink:href="#mc730972c23" x="64.135497" y="385.69375" style="stroke: #000000; stroke-width: 0.8"/>
      </g>
     </g>
     <g id="text_1">
      <!-- 4.5 -->
      <g transform="translate(56.183934 400.292188)scale(0.1 -0.1)">
       <defs>
        <path id="DejaVuSans-34" d="M 2419 4116 
L 825 1625 
L 2419 1625 
L 2419 4116 
z
M 2253 4666 
L 3047 4666 
L 3047 1625 
L 3713 1625 
L 3713 1100 
L 3047 1100 
L 3047 0 
L 2419 0 
L 2419 1100 
L 313 1100 
L 313 1709 
L 2253 4666 
z
" transform="scale(0.015625)"/>
        <path id="DejaVuSans-2e" d="M 684 794 
L 1344 794 
L 1344 0 
L 684 0 
L 684 794 
z
" transform="scale(0.015625)"/>
        <path id="DejaVuSans-35" d="M 691 4666 
L 3169 4666 
L 3169 4134 
L 1269 4134 
L 1269 2991 
Q 1406 3038 1543 3061 
Q 1681 3084 1819 3084 
Q 2600 3084 3056 2656 
Q 3513 2228 3513 1497 
Q 3513 744 3044 326 
Q 2575 -91 1722 -91 
Q 1428 -91 1123 -41 
Q 819 9 494 109 
L 494 744 
Q 775 591 1075 516 
Q 1375 441 1709 441 
Q 2250 441 2565 725 
Q 2881 1009 2881 1497 
Q 2881 1984 2565 2268 
Q 2250 2553 1709 2553 
Q 1456 2553 1204 2497 
Q 953 2441 691 2322 
L 691 4666 
z
" transform="scale(0.015625)"/>
       </defs>
       <use xlink:href="#DejaVuSans-34"/>
       <use xlink:href="#DejaVuSans-2e" x="63.623047"/>
       <use xlink:href="#DejaVuSans-35" x="95.410156"/>
      </g>
     </g>
    </g>
    <g id="xtick_2">
     <g id="line2d_2">
      <g>
       <use xlink:href="#mc730972c23" x="103.104901" y="385.69375" style="stroke: #000000; stroke-width: 0.8"/>
      </g>
     </g>
     <g id="text_2">
      <!-- 5.0 -->
      <g transform="translate(95.153338 400.292188)scale(0.1 -0.1)">
       <defs>
        <path id="DejaVuSans-30" d="M 2034 4250 
Q 1547 4250 1301 3770 
Q 1056 3291 1056 2328 
Q 1056 1369 1301 889 
Q 1547 409 2034 409 
Q 2525 409 2770 889 
Q 3016 1369 3016 2328 
Q 3016 3291 2770 3770 
Q 2525 4250 2034 4250 
z
M 2034 4750 
Q 2819 4750 3233 4129 
Q 3647 3509 3647 2328 
Q 3647 1150 3233 529 
Q 2819 -91 2034 -91 
Q 1250 -91 836 529 
Q 422 1150 422 2328 
Q 422 3509 836 4129 
Q 1250 4750 2034 4750 
z
" transform="scale(0.015625)"/>
       </defs>
       <use xlink:href="#DejaVuSans-35"/>
       <use xlink:href="#DejaVuSans-2e" x="63.623047"/>
       <use xlink:href="#DejaVuSans-30" x="95.410156"/>
      </g>
     </g>
    </g>
    <g id="xtick_3">
     <g id="line2d_3">
      <g>
       <use xlink:href="#mc730972c23" x="142.074305" y="385.69375" style="stroke: #000000; stroke-width: 0.8"/>
      </g>
     </g>
     <g id="text_3">
      <!-- 5.5 -->
      <g transform="translate(134.122742 400.292188)scale(0.1 -0.1)">
       <use xlink:href="#DejaVuSans-35"/>
       <use xlink:href="#DejaVuSans-2e" x="63.623047"/>
       <use xlink:href="#DejaVuSans-35" x="95.410156"/>
      </g>
     </g>
    </g>
    <g id="xtick_4">
     <g id="line2d_4">
      <g>
       <use xlink:href="#mc730972c23" x="181.043709" y="385.69375" style="stroke: #000000; stroke-width: 0.8"/>
      </g>
     </g>
     <g id="text_4">
      <!-- 6.0 -->
      <g transform="translate(173.092146 400.292188)scale(0.1 -0.1)">
       <defs>
        <path id="DejaVuSans-36" d="M 2113 2584 
Q 1688 2584 1439 2293 
Q 1191 2003 1191 1497 
Q 1191 994 1439 701 
Q 1688 409 2113 409 
Q 2538 409 2786 701 
Q 3034 994 3034 1497 
Q 3034 2003 2786 2293 
Q 2538 2584 2113 2584 
z
M 3366 4563 
L 3366 3988 
Q 3128 4100 2886 4159 
Q 2644 4219 2406 4219 
Q 1781 4219 1451 3797 
Q 1122 3375 1075 2522 
Q 1259 2794 1537 2939 
Q 1816 3084 2150 3084 
Q 2853 3084 3261 2657 
Q 3669 2231 3669 1497 
Q 3669 778 3244 343 
Q 2819 -91 2113 -91 
Q 1303 -91 875 529 
Q 447 1150 447 2328 
Q 447 3434 972 4092 
Q 1497 4750 2381 4750 
Q 2619 4750 2861 4703 
Q 3103 4656 3366 4563 
z
" transform="scale(0.015625)"/>
       </defs>
       <use xlink:href="#DejaVuSans-36"/>
       <use xlink:href="#DejaVuSans-2e" x="63.623047"/>
       <use xlink:href="#DejaVuSans-30" x="95.410156"/>
      </g>
     </g>
    </g>
    <g id="xtick_5">
     <g id="line2d_5">
      <g>
       <use xlink:href="#mc730972c23" x="220.013112" y="385.69375" style="stroke: #000000; stroke-width: 0.8"/>
      </g>
     </g>
     <g id="text_5">
      <!-- 6.5 -->
      <g transform="translate(212.06155 400.292188)scale(0.1 -0.1)">
       <use xlink:href="#DejaVuSans-36"/>
       <use xlink:href="#DejaVuSans-2e" x="63.623047"/>
       <use xlink:href="#DejaVuSans-35" x="95.410156"/>
      </g>
     </g>
    </g>
    <g id="xtick_6">
     <g id="line2d_6">
      <g>
       <use xlink:href="#mc730972c23" x="258.982516" y="385.69375" style="stroke: #000000; stroke-width: 0.8"/>
      </g>
     </g>
     <g id="text_6">
      <!-- 7.0 -->
      <g transform="translate(251.030954 400.292188)scale(0.1 -0.1)">
       <defs>
        <path id="DejaVuSans-37" d="M 525 4666 
L 3525 4666 
L 3525 4397 
L 1831 0 
L 1172 0 
L 2766 4134 
L 525 4134 
L 525 4666 
z
" transform="scale(0.015625)"/>
       </defs>
       <use xlink:href="#DejaVuSans-37"/>
       <use xlink:href="#DejaVuSans-2e" x="63.623047"/>
       <use xlink:href="#DejaVuSans-30" x="95.410156"/>
      </g>
     </g>
    </g>
    <g id="xtick_7">
     <g id="line2d_7">
      <g>
       <use xlink:href="#mc730972c23" x="297.95192" y="385.69375" style="stroke: #000000; stroke-width: 0.8"/>
      </g>
     </g>
     <g id="text_7">
      <!-- 7.5 -->
      <g transform="translate(290.000358 400.292188)scale(0.1 -0.1)">
       <use xlink:href="#DejaVuSans-37"/>
       <use xlink:href="#DejaVuSans-2e" x="63.623047"/>
       <use xlink:href="#DejaVuSans-35" x="95.410156"/>
      </g>
     </g>
    </g>
    <g id="xtick_8">
     <g id="line2d_8">
      <g>
       <use xlink:href="#mc730972c23" x="336.921324" y="385.69375" style="stroke: #000000; stroke-width: 0.8"/>
      </g>
     </g>
     <g id="text_8">
      <!-- 8.0 -->
      <g transform="translate(328.969761 400.292188)scale(0.1 -0.1)">
       <defs>
        <path id="DejaVuSans-38" d="M 2034 2216 
Q 1584 2216 1326 1975 
Q 1069 1734 1069 1313 
Q 1069 891 1326 650 
Q 1584 409 2034 409 
Q 2484 409 2743 651 
Q 3003 894 3003 1313 
Q 3003 1734 2745 1975 
Q 2488 2216 2034 2216 
z
M 1403 2484 
Q 997 2584 770 2862 
Q 544 3141 544 3541 
Q 544 4100 942 4425 
Q 1341 4750 2034 4750 
Q 2731 4750 3128 4425 
Q 3525 4100 3525 3541 
Q 3525 3141 3298 2862 
Q 3072 2584 2669 2484 
Q 3125 2378 3379 2068 
Q 3634 1759 3634 1313 
Q 3634 634 3220 271 
Q 2806 -91 2034 -91 
Q 1263 -91 848 271 
Q 434 634 434 1313 
Q 434 1759 690 2068 
Q 947 2378 1403 2484 
z
M 1172 3481 
Q 1172 3119 1398 2916 
Q 1625 2713 2034 2713 
Q 2441 2713 2670 2916 
Q 2900 3119 2900 3481 
Q 2900 3844 2670 4047 
Q 2441 4250 2034 4250 
Q 1625 4250 1398 4047 
Q 1172 3844 1172 3481 
z
" transform="scale(0.015625)"/>
       </defs>
       <use xlink:href="#DejaVuSans-38"/>
       <use xlink:href="#DejaVuSans-2e" x="63.623047"/>
       <use xlink:href="#DejaVuSans-30" x="95.410156"/>
      </g>
     </g>
    </g>
    <g id="text_9">
     <!-- sepal_length -->
     <g transform="translate(157.091496 413.970313)scale(0.1 -0.1)">
      <defs>
       <path id="DejaVuSans-73" d="M 2834 3397 
L 2834 2853 
Q 2591 2978 2328 3040 
Q 2066 3103 1784 3103 
Q 1356 3103 1142 2972 
Q 928 2841 928 2578 
Q 928 2378 1081 2264 
Q 1234 2150 1697 2047 
L 1894 2003 
Q 2506 1872 2764 1633 
Q 3022 1394 3022 966 
Q 3022 478 2636 193 
Q 2250 -91 1575 -91 
Q 1294 -91 989 -36 
Q 684 19 347 128 
L 347 722 
Q 666 556 975 473 
Q 1284 391 1588 391 
Q 1994 391 2212 530 
Q 2431 669 2431 922 
Q 2431 1156 2273 1281 
Q 2116 1406 1581 1522 
L 1381 1569 
Q 847 1681 609 1914 
Q 372 2147 372 2553 
Q 372 3047 722 3315 
Q 1072 3584 1716 3584 
Q 2034 3584 2315 3537 
Q 2597 3491 2834 3397 
z
" transform="scale(0.015625)"/>
       <path id="DejaVuSans-65" d="M 3597 1894 
L 3597 1613 
L 953 1613 
Q 991 1019 1311 708 
Q 1631 397 2203 397 
Q 2534 397 2845 478 
Q 3156 559 3463 722 
L 3463 178 
Q 3153 47 2828 -22 
Q 2503 -91 2169 -91 
Q 1331 -91 842 396 
Q 353 884 353 1716 
Q 353 2575 817 3079 
Q 1281 3584 2069 3584 
Q 2775 3584 3186 3129 
Q 3597 2675 3597 1894 
z
M 3022 2063 
Q 3016 2534 2758 2815 
Q 2500 3097 2075 3097 
Q 1594 3097 1305 2825 
Q 1016 2553 972 2059 
L 3022 2063 
z
" transform="scale(0.015625)"/>
       <path id="DejaVuSans-70" d="M 1159 525 
L 1159 -1331 
L 581 -1331 
L 581 3500 
L 1159 3500 
L 1159 2969 
Q 1341 3281 1617 3432 
Q 1894 3584 2278 3584 
Q 2916 3584 3314 3078 
Q 3713 2572 3713 1747 
Q 3713 922 3314 415 
Q 2916 -91 2278 -91 
Q 1894 -91 1617 61 
Q 1341 213 1159 525 
z
M 3116 1747 
Q 3116 2381 2855 2742 
Q 2594 3103 2138 3103 
Q 1681 3103 1420 2742 
Q 1159 2381 1159 1747 
Q 1159 1113 1420 752 
Q 1681 391 2138 391 
Q 2594 391 2855 752 
Q 3116 1113 3116 1747 
z
" transform="scale(0.015625)"/>
       <path id="DejaVuSans-61" d="M 2194 1759 
Q 1497 1759 1228 1600 
Q 959 1441 959 1056 
Q 959 750 1161 570 
Q 1363 391 1709 391 
Q 2188 391 2477 730 
Q 2766 1069 2766 1631 
L 2766 1759 
L 2194 1759 
z
M 3341 1997 
L 3341 0 
L 2766 0 
L 2766 531 
Q 2569 213 2275 61 
Q 1981 -91 1556 -91 
Q 1019 -91 701 211 
Q 384 513 384 1019 
Q 384 1609 779 1909 
Q 1175 2209 1959 2209 
L 2766 2209 
L 2766 2266 
Q 2766 2663 2505 2880 
Q 2244 3097 1772 3097 
Q 1472 3097 1187 3025 
Q 903 2953 641 2809 
L 641 3341 
Q 956 3463 1253 3523 
Q 1550 3584 1831 3584 
Q 2591 3584 2966 3190 
Q 3341 2797 3341 1997 
z
" transform="scale(0.015625)"/>
       <path id="DejaVuSans-6c" d="M 603 4863 
L 1178 4863 
L 1178 0 
L 603 0 
L 603 4863 
z
" transform="scale(0.015625)"/>
       <path id="DejaVuSans-5f" d="M 3263 -1063 
L 3263 -1509 
L -63 -1509 
L -63 -1063 
L 3263 -1063 
z
" transform="scale(0.015625)"/>
       <path id="DejaVuSans-6e" d="M 3513 2113 
L 3513 0 
L 2938 0 
L 2938 2094 
Q 2938 2591 2744 2837 
Q 2550 3084 2163 3084 
Q 1697 3084 1428 2787 
Q 1159 2491 1159 1978 
L 1159 0 
L 581 0 
L 581 3500 
L 1159 3500 
L 1159 2956 
Q 1366 3272 1645 3428 
Q 1925 3584 2291 3584 
Q 2894 3584 3203 3211 
Q 3513 2838 3513 2113 
z
" transform="scale(0.015625)"/>
       <path id="DejaVuSans-67" d="M 2906 1791 
Q 2906 2416 2648 2759 
Q 2391 3103 1925 3103 
Q 1463 3103 1205 2759 
Q 947 2416 947 1791 
Q 947 1169 1205 825 
Q 1463 481 1925 481 
Q 2391 481 2648 825 
Q 2906 1169 2906 1791 
z
M 3481 434 
Q 3481 -459 3084 -895 
Q 2688 -1331 1869 -1331 
Q 1566 -1331 1297 -1286 
Q 1028 -1241 775 -1147 
L 775 -588 
Q 1028 -725 1275 -790 
Q 1522 -856 1778 -856 
Q 2344 -856 2625 -561 
Q 2906 -266 2906 331 
L 2906 616 
Q 2728 306 2450 153 
Q 2172 0 1784 0 
Q 1141 0 747 490 
Q 353 981 353 1791 
Q 353 2603 747 3093 
Q 1141 3584 1784 3584 
Q 2172 3584 2450 3431 
Q 2728 3278 2906 2969 
L 2906 3500 
L 3481 3500 
L 3481 434 
z
" transform="scale(0.015625)"/>
       <path id="DejaVuSans-74" d="M 1172 4494 
L 1172 3500 
L 2356 3500 
L 2356 3053 
L 1172 3053 
L 1172 1153 
Q 1172 725 1289 603 
Q 1406 481 1766 481 
L 2356 481 
L 2356 0 
L 1766 0 
Q 1100 0 847 248 
Q 594 497 594 1153 
L 594 3053 
L 172 3053 
L 172 3500 
L 594 3500 
L 594 4494 
L 1172 4494 
z
" transform="scale(0.015625)"/>
       <path id="DejaVuSans-68" d="M 3513 2113 
L 3513 0 
L 2938 0 
L 2938 2094 
Q 2938 2591 2744 2837 
Q 2550 3084 2163 3084 
Q 1697 3084 1428 2787 
Q 1159 2491 1159 1978 
L 1159 0 
L 581 0 
L 581 4863 
L 1159 4863 
L 1159 2956 
Q 1366 3272 1645 3428 
Q 1925 3584 2291 3584 
Q 2894 3584 3203 3211 
Q 3513 2838 3513 2113 
z
" transform="scale(0.015625)"/>
      </defs>
      <use xlink:href="#DejaVuSans-73"/>
      <use xlink:href="#DejaVuSans-65" x="52.099609"/>
      <use xlink:href="#DejaVuSans-70" x="113.623047"/>
      <use xlink:href="#DejaVuSans-61" x="177.099609"/>
      <use xlink:href="#DejaVuSans-6c" x="238.378906"/>
      <use xlink:href="#DejaVuSans-5f" x="266.162109"/>
      <use xlink:href="#DejaVuSans-6c" x="316.162109"/>
      <use xlink:href="#DejaVuSans-65" x="343.945312"/>
      <use xlink:href="#DejaVuSans-6e" x="405.46875"/>
      <use xlink:href="#DejaVuSans-67" x="468.847656"/>
      <use xlink:href="#DejaVuSans-74" x="532.324219"/>
      <use xlink:href="#DejaVuSans-68" x="571.533203"/>
     </g>
    </g>
   </g>
   <g id="matplotlib.axis_2">
    <g id="ytick_1">
     <g id="line2d_9">
      <defs>
       <path id="m26445edeaa" d="M 0 0 
L -3.5 0 
" style="stroke: #000000; stroke-width: 0.8"/>
      </defs>
      <g>
       <use xlink:href="#m26445edeaa" x="34.51875" y="356.218908" style="stroke: #000000; stroke-width: 0.8"/>
      </g>
     </g>
     <g id="text_10">
      <!-- 1 -->
      <g transform="translate(21.15625 360.018127)scale(0.1 -0.1)">
       <defs>
        <path id="DejaVuSans-31" d="M 794 531 
L 1825 531 
L 1825 4091 
L 703 3866 
L 703 4441 
L 1819 4666 
L 2450 4666 
L 2450 531 
L 3481 531 
L 3481 0 
L 794 0 
L 794 531 
z
" transform="scale(0.015625)"/>
       </defs>
       <use xlink:href="#DejaVuSans-31"/>
      </g>
     </g>
    </g>
    <g id="ytick_2">
     <g id="line2d_10">
      <g>
       <use xlink:href="#m26445edeaa" x="34.51875" y="317.157072" style="stroke: #000000; stroke-width: 0.8"/>
      </g>
     </g>
     <g id="text_11">
      <!-- 2 -->
      <g transform="translate(21.15625 320.95629)scale(0.1 -0.1)">
       <defs>
        <path id="DejaVuSans-32" d="M 1228 531 
L 3431 531 
L 3431 0 
L 469 0 
L 469 531 
Q 828 903 1448 1529 
Q 2069 2156 2228 2338 
Q 2531 2678 2651 2914 
Q 2772 3150 2772 3378 
Q 2772 3750 2511 3984 
Q 2250 4219 1831 4219 
Q 1534 4219 1204 4116 
Q 875 4013 500 3803 
L 500 4441 
Q 881 4594 1212 4672 
Q 1544 4750 1819 4750 
Q 2544 4750 2975 4387 
Q 3406 4025 3406 3419 
Q 3406 3131 3298 2873 
Q 3191 2616 2906 2266 
Q 2828 2175 2409 1742 
Q 1991 1309 1228 531 
z
" transform="scale(0.015625)"/>
       </defs>
       <use xlink:href="#DejaVuSans-32"/>
      </g>
     </g>
    </g>
    <g id="ytick_3">
     <g id="line2d_11">
      <g>
       <use xlink:href="#m26445edeaa" x="34.51875" y="278.095235" style="stroke: #000000; stroke-width: 0.8"/>
      </g>
     </g>
     <g id="text_12">
      <!-- 3 -->
      <g transform="translate(21.15625 281.894454)scale(0.1 -0.1)">
       <defs>
        <path id="DejaVuSans-33" d="M 2597 2516 
Q 3050 2419 3304 2112 
Q 3559 1806 3559 1356 
Q 3559 666 3084 287 
Q 2609 -91 1734 -91 
Q 1441 -91 1130 -33 
Q 819 25 488 141 
L 488 750 
Q 750 597 1062 519 
Q 1375 441 1716 441 
Q 2309 441 2620 675 
Q 2931 909 2931 1356 
Q 2931 1769 2642 2001 
Q 2353 2234 1838 2234 
L 1294 2234 
L 1294 2753 
L 1863 2753 
Q 2328 2753 2575 2939 
Q 2822 3125 2822 3475 
Q 2822 3834 2567 4026 
Q 2313 4219 1838 4219 
Q 1578 4219 1281 4162 
Q 984 4106 628 3988 
L 628 4550 
Q 988 4650 1302 4700 
Q 1616 4750 1894 4750 
Q 2613 4750 3031 4423 
Q 3450 4097 3450 3541 
Q 3450 3153 3228 2886 
Q 3006 2619 2597 2516 
z
" transform="scale(0.015625)"/>
       </defs>
       <use xlink:href="#DejaVuSans-33"/>
      </g>
     </g>
    </g>
    <g id="ytick_4">
     <g id="line2d_12">
      <g>
       <use xlink:href="#m26445edeaa" x="34.51875" y="239.033398" style="stroke: #000000; stroke-width: 0.8"/>
      </g>
     </g>
     <g id="text_13">
      <!-- 4 -->
      <g transform="translate(21.15625 242.832617)scale(0.1 -0.1)">
       <use xlink:href="#DejaVuSans-34"/>
      </g>
     </g>
    </g>
    <g id="ytick_5">
     <g id="line2d_13">
      <g>
       <use xlink:href="#m26445edeaa" x="34.51875" y="199.971561" style="stroke: #000000; stroke-width: 0.8"/>
      </g>
     </g>
     <g id="text_14">
      <!-- 5 -->
      <g transform="translate(21.15625 203.77078)scale(0.1 -0.1)">
       <use xlink:href="#DejaVuSans-35"/>
      </g>
     </g>
    </g>
    <g id="ytick_6">
     <g id="line2d_14">
      <g>
       <use xlink:href="#m26445edeaa" x="34.51875" y="160.909724" style="stroke: #000000; stroke-width: 0.8"/>
      </g>
     </g>
     <g id="text_15">
      <!-- 6 -->
      <g transform="translate(21.15625 164.708943)scale(0.1 -0.1)">
       <use xlink:href="#DejaVuSans-36"/>
      </g>
     </g>
    </g>
    <g id="ytick_7">
     <g id="line2d_15">
      <g>
       <use xlink:href="#m26445edeaa" x="34.51875" y="121.847888" style="stroke: #000000; stroke-width: 0.8"/>
      </g>
     </g>
     <g id="text_16">
      <!-- 7 -->
      <g transform="translate(21.15625 125.647106)scale(0.1 -0.1)">
       <use xlink:href="#DejaVuSans-37"/>
      </g>
     </g>
    </g>
    <g id="ytick_8">
     <g id="line2d_16">
      <g>
       <use xlink:href="#m26445edeaa" x="34.51875" y="82.786051" style="stroke: #000000; stroke-width: 0.8"/>
      </g>
     </g>
     <g id="text_17">
      <!-- 8 -->
      <g transform="translate(21.15625 86.58527)scale(0.1 -0.1)">
       <use xlink:href="#DejaVuSans-38"/>
      </g>
     </g>
    </g>
    <g id="text_18">
     <!-- petal_length -->
     <g transform="translate(14.798438 259.990759)rotate(-90)scale(0.1 -0.1)">
      <use xlink:href="#DejaVuSans-70"/>
      <use xlink:href="#DejaVuSans-65" x="63.476562"/>
      <use xlink:href="#DejaVuSans-74" x="125"/>
      <use xlink:href="#DejaVuSans-61" x="164.208984"/>
      <use xlink:href="#DejaVuSans-6c" x="225.488281"/>
      <use xlink:href="#DejaVuSans-5f" x="253.271484"/>
      <use xlink:href="#DejaVuSans-6c" x="303.271484"/>
      <use xlink:href="#DejaVuSans-65" x="331.054688"/>
      <use xlink:href="#DejaVuSans-6e" x="392.578125"/>
      <use xlink:href="#DejaVuSans-67" x="455.957031"/>
      <use xlink:href="#DejaVuSans-74" x="519.433594"/>
      <use xlink:href="#DejaVuSans-68" x="558.642578"/>
     </g>
    </g>
   </g>
   <g id="line2d_17">
    <path d="M 48.547735 360.441099 
L 51.381874 357.802636 
L 54.216012 355.164173 
L 57.050151 352.525709 
L 59.884289 349.887246 
L 62.718428 347.248783 
L 65.552566 344.61032 
L 68.386705 341.971856 
L 71.220843 339.333393 
L 74.054982 336.69493 
L 76.88912 334.056467 
L 79.723258 331.418003 
L 82.557397 328.77954 
L 85.391535 326.141077 
L 88.225674 323.502614 
L 91.059812 320.86415 
L 93.893951 318.225687 
L 96.728089 315.587224 
L 99.562228 312.948761 
L 102.396366 310.310297 
L 105.230505 307.671834 
L 108.064643 305.033371 
L 110.898782 302.394908 
L 113.73292 299.756444 
L 116.567058 297.117981 
L 119.401197 294.479518 
L 122.235335 291.841055 
L 125.069474 289.202591 
L 127.903612 286.564128 
L 130.737751 283.925665 
L 133.571889 281.287202 
L 136.406028 278.648738 
L 139.240166 276.010275 
L 142.074305 273.371812 
L 144.908443 270.733349 
L 147.742582 268.094885 
L 150.57672 265.456422 
L 153.410859 262.817959 
L 156.244997 260.179496 
L 159.079135 257.541032 
L 161.913274 254.902569 
L 164.747412 252.264106 
L 167.581551 249.625643 
L 170.415689 246.987179 
L 173.249828 244.348716 
L 176.083966 241.710253 
L 178.918105 239.07179 
L 181.752243 236.433326 
L 184.586382 233.794863 
L 187.42052 231.1564 
L 190.254659 228.517937 
L 193.088797 225.879473 
L 195.922935 223.24101 
L 198.757074 220.602547 
L 201.591212 217.964084 
L 204.425351 215.32562 
L 207.259489 212.687157 
L 210.093628 210.048694 
L 212.927766 207.410231 
L 215.761905 204.771767 
L 218.596043 202.133304 
L 221.430182 199.494841 
L 224.26432 196.856378 
L 227.098459 194.217914 
L 229.932597 191.579451 
L 232.766735 188.940988 
L 235.600874 186.302525 
L 238.435012 183.664061 
L 241.269151 181.025598 
L 244.103289 178.387135 
L 246.937428 175.748672 
L 249.771566 173.110208 
L 252.605705 170.471745 
L 255.439843 167.833282 
L 258.273982 165.194819 
L 261.10812 162.556355 
L 263.942259 159.917892 
L 266.776397 157.279429 
L 269.610535 154.640966 
L 272.444674 152.002502 
L 275.278812 149.364039 
L 278.112951 146.725576 
L 280.947089 144.087113 
L 283.781228 141.448649 
L 286.615366 138.810186 
L 289.449505 136.171723 
L 292.283643 133.53326 
L 295.117782 130.894796 
L 297.95192 128.256333 
L 300.786059 125.61787 
L 303.620197 122.979407 
L 306.454335 120.340943 
L 309.288474 117.70248 
L 312.122612 115.064017 
L 314.956751 112.425554 
L 317.790889 109.78709 
L 320.625028 107.148627 
L 323.459166 104.510164 
L 326.293305 101.871701 
L 329.127443 99.233237 
" clip-path="url(#pccd4b2719f)" style="fill: none; stroke: #1f77b4; stroke-width: 2.25; stroke-linecap: square"/>
   </g>
   <g id="patch_3">
    <path d="M 34.51875 385.69375 
L 34.51875 72.084643 
" style="fill: none; stroke: #000000; stroke-width: 0.8; stroke-linejoin: miter; stroke-linecap: square"/>
   </g>
   <g id="patch_4">
    <path d="M 34.51875 385.69375 
L 343.156429 385.69375 
" style="fill: none; stroke: #000000; stroke-width: 0.8; stroke-linejoin: miter; stroke-linecap: square"/>
   </g>
  </g>
  <g id="axes_2">
   <g id="patch_5">
    <path d="M 34.51875 61.270536 
L 343.156429 61.270536 
L 343.156429 7.2 
L 34.51875 7.2 
z
" style="fill: #ffffff"/>
   </g>
   <g id="patch_6">
    <path d="M 48.547735 61.270536 
L 79.723258 61.270536 
L 79.723258 44.718331 
L 48.547735 44.718331 
z
" clip-path="url(#p0ccc148f1e)" style="fill: #1f77b4; fill-opacity: 0.5; stroke: #000000; stroke-linejoin: miter"/>
   </g>
   <g id="patch_7">
    <path d="M 79.723258 61.270536 
L 110.898782 61.270536 
L 110.898782 18.970457 
L 79.723258 18.970457 
z
" clip-path="url(#p0ccc148f1e)" style="fill: #1f77b4; fill-opacity: 0.5; stroke: #000000; stroke-linejoin: miter"/>
   </g>
   <g id="patch_8">
    <path d="M 110.898782 61.270536 
L 142.074305 61.270536 
L 142.074305 24.487858 
L 110.898782 24.487858 
z
" clip-path="url(#p0ccc148f1e)" style="fill: #1f77b4; fill-opacity: 0.5; stroke: #000000; stroke-linejoin: miter"/>
   </g>
   <g id="patch_9">
    <path d="M 142.074305 61.270536 
L 173.249828 61.270536 
L 173.249828 9.774787 
L 142.074305 9.774787 
z
" clip-path="url(#p0ccc148f1e)" style="fill: #1f77b4; fill-opacity: 0.5; stroke: #000000; stroke-linejoin: miter"/>
   </g>
   <g id="patch_10">
    <path d="M 173.249828 61.270536 
L 204.425351 61.270536 
L 204.425351 9.774787 
L 173.249828 9.774787 
z
" clip-path="url(#p0ccc148f1e)" style="fill: #1f77b4; fill-opacity: 0.5; stroke: #000000; stroke-linejoin: miter"/>
   </g>
   <g id="patch_11">
    <path d="M 204.425351 61.270536 
L 235.600874 61.270536 
L 235.600874 35.522662 
L 204.425351 35.522662 
z
" clip-path="url(#p0ccc148f1e)" style="fill: #1f77b4; fill-opacity: 0.5; stroke: #000000; stroke-linejoin: miter"/>
   </g>
   <g id="patch_12">
    <path d="M 235.600874 61.270536 
L 266.776397 61.270536 
L 266.776397 30.00526 
L 235.600874 30.00526 
z
" clip-path="url(#p0ccc148f1e)" style="fill: #1f77b4; fill-opacity: 0.5; stroke: #000000; stroke-linejoin: miter"/>
   </g>
   <g id="patch_13">
    <path d="M 266.776397 61.270536 
L 297.95192 61.270536 
L 297.95192 52.074866 
L 266.776397 52.074866 
z
" clip-path="url(#p0ccc148f1e)" style="fill: #1f77b4; fill-opacity: 0.5; stroke: #000000; stroke-linejoin: miter"/>
   </g>
   <g id="patch_14">
    <path d="M 297.95192 61.270536 
L 329.127443 61.270536 
L 329.127443 50.235733 
L 297.95192 50.235733 
z
" clip-path="url(#p0ccc148f1e)" style="fill: #1f77b4; fill-opacity: 0.5; stroke: #000000; stroke-linejoin: miter"/>
   </g>
   <g id="matplotlib.axis_3">
    <g id="xtick_9">
     <g id="line2d_18">
      <g>
       <use xlink:href="#mc730972c23" x="64.135497" y="61.270536" style="stroke: #000000; stroke-width: 0.8"/>
      </g>
     </g>
    </g>
    <g id="xtick_10">
     <g id="line2d_19">
      <g>
       <use xlink:href="#mc730972c23" x="103.104901" y="61.270536" style="stroke: #000000; stroke-width: 0.8"/>
      </g>
     </g>
    </g>
    <g id="xtick_11">
     <g id="line2d_20">
      <g>
       <use xlink:href="#mc730972c23" x="142.074305" y="61.270536" style="stroke: #000000; stroke-width: 0.8"/>
      </g>
     </g>
    </g>
    <g id="xtick_12">
     <g id="line2d_21">
      <g>
       <use xlink:href="#mc730972c23" x="181.043709" y="61.270536" style="stroke: #000000; stroke-width: 0.8"/>
      </g>
     </g>
    </g>
    <g id="xtick_13">
     <g id="line2d_22">
      <g>
       <use xlink:href="#mc730972c23" x="220.013112" y="61.270536" style="stroke: #000000; stroke-width: 0.8"/>
      </g>
     </g>
    </g>
    <g id="xtick_14">
     <g id="line2d_23">
      <g>
       <use xlink:href="#mc730972c23" x="258.982516" y="61.270536" style="stroke: #000000; stroke-width: 0.8"/>
      </g>
     </g>
    </g>
    <g id="xtick_15">
     <g id="line2d_24">
      <g>
       <use xlink:href="#mc730972c23" x="297.95192" y="61.270536" style="stroke: #000000; stroke-width: 0.8"/>
      </g>
     </g>
    </g>
    <g id="xtick_16">
     <g id="line2d_25">
      <g>
       <use xlink:href="#mc730972c23" x="336.921324" y="61.270536" style="stroke: #000000; stroke-width: 0.8"/>
      </g>
     </g>
    </g>
   </g>
   <g id="matplotlib.axis_4">
    <g id="ytick_9"/>
    <g id="ytick_10"/>
   </g>
   <g id="line2d_26">
    <path d="M 48.547735 50.506459 
L 52.77758 48.444249 
L 58.417373 45.40065 
L 64.057166 42.06236 
L 71.106908 37.592275 
L 82.386494 30.352795 
L 86.616339 27.851245 
L 90.846184 25.590476 
L 95.076029 23.638263 
L 97.895925 22.532171 
L 100.715822 21.591084 
L 103.535718 20.815335 
L 107.765563 19.946539 
L 111.995408 19.388734 
L 116.225253 19.073015 
L 121.865046 18.888966 
L 138.784425 18.518134 
L 158.523701 17.802404 
L 166.983391 17.82659 
L 179.672925 18.146272 
L 192.36246 18.633241 
L 198.002253 19.025461 
L 203.642046 19.647881 
L 207.871891 20.316854 
L 212.101736 21.188354 
L 216.331581 22.276111 
L 220.561426 23.581218 
L 224.79127 25.092888 
L 230.431064 27.39236 
L 236.070857 29.949834 
L 244.530546 34.073299 
L 255.810133 39.58056 
L 261.449926 42.118018 
L 267.089719 44.404065 
L 271.319564 45.921429 
L 275.549409 47.256661 
L 279.779253 48.40871 
L 285.419046 49.676508 
L 291.05884 50.681552 
L 298.108581 51.675156 
L 320.667753 54.57725 
L 329.127443 55.942677 
L 329.127443 55.942677 
" clip-path="url(#p0ccc148f1e)" style="fill: none; stroke: #1f77b4; stroke-width: 1.5; stroke-linecap: square"/>
   </g>
   <g id="patch_15">
    <path d="M 34.51875 61.270536 
L 343.156429 61.270536 
" style="fill: none; stroke: #000000; stroke-width: 0.8; stroke-linejoin: miter; stroke-linecap: square"/>
   </g>
  </g>
  <g id="axes_3">
   <g id="patch_16">
    <path d="M 353.799107 385.69375 
L 407.0125 385.69375 
L 407.0125 72.084643 
L 353.799107 72.084643 
z
" style="fill: #ffffff"/>
   </g>
   <g id="patch_17">
    <path d="M 353.799107 356.218908 
L 404.478529 356.218908 
L 404.478529 330.611704 
L 353.799107 330.611704 
z
" clip-path="url(#p14f5023843)" style="fill: #1f77b4; fill-opacity: 0.5; stroke: #000000; stroke-linejoin: miter"/>
   </g>
   <g id="patch_18">
    <path d="M 353.799107 330.611704 
L 360.709937 330.611704 
L 360.709937 305.0045 
L 353.799107 305.0045 
z
" clip-path="url(#p14f5023843)" style="fill: #1f77b4; fill-opacity: 0.5; stroke: #000000; stroke-linejoin: miter"/>
   </g>
   <g id="patch_19">
    <path d="M 353.799107 305.0045 
L 353.799107 305.0045 
L 353.799107 279.397296 
L 353.799107 279.397296 
z
" clip-path="url(#p14f5023843)" style="fill: #1f77b4; fill-opacity: 0.5; stroke: #000000; stroke-linejoin: miter"/>
   </g>
   <g id="patch_20">
    <path d="M 353.799107 279.397296 
L 360.709937 279.397296 
L 360.709937 253.790092 
L 353.799107 253.790092 
z
" clip-path="url(#p14f5023843)" style="fill: #1f77b4; fill-opacity: 0.5; stroke: #000000; stroke-linejoin: miter"/>
   </g>
   <g id="patch_21">
    <path d="M 353.799107 253.790092 
L 373.379793 253.790092 
L 373.379793 228.182888 
L 353.799107 228.182888 
z
" clip-path="url(#p14f5023843)" style="fill: #1f77b4; fill-opacity: 0.5; stroke: #000000; stroke-linejoin: miter"/>
   </g>
   <g id="patch_22">
    <path d="M 353.799107 228.182888 
L 389.505063 228.182888 
L 389.505063 202.575684 
L 353.799107 202.575684 
z
" clip-path="url(#p14f5023843)" style="fill: #1f77b4; fill-opacity: 0.5; stroke: #000000; stroke-linejoin: miter"/>
   </g>
   <g id="patch_23">
    <path d="M 353.799107 202.575684 
L 377.987013 202.575684 
L 377.987013 176.96848 
L 353.799107 176.96848 
z
" clip-path="url(#p14f5023843)" style="fill: #1f77b4; fill-opacity: 0.5; stroke: #000000; stroke-linejoin: miter"/>
   </g>
   <g id="patch_24">
    <path d="M 353.799107 176.96848 
L 375.683403 176.96848 
L 375.683403 151.361275 
L 353.799107 151.361275 
z
" clip-path="url(#p14f5023843)" style="fill: #1f77b4; fill-opacity: 0.5; stroke: #000000; stroke-linejoin: miter"/>
   </g>
   <g id="patch_25">
    <path d="M 353.799107 151.361275 
L 360.709937 151.361275 
L 360.709937 125.754071 
L 353.799107 125.754071 
z
" clip-path="url(#p14f5023843)" style="fill: #1f77b4; fill-opacity: 0.5; stroke: #000000; stroke-linejoin: miter"/>
   </g>
   <g id="matplotlib.axis_5">
    <g id="xtick_17"/>
    <g id="xtick_18"/>
   </g>
   <g id="matplotlib.axis_6">
    <g id="ytick_11">
     <g id="line2d_27">
      <g>
       <use xlink:href="#m26445edeaa" x="353.799107" y="356.218908" style="stroke: #000000; stroke-width: 0.8"/>
      </g>
     </g>
    </g>
    <g id="ytick_12">
     <g id="line2d_28">
      <g>
       <use xlink:href="#m26445edeaa" x="353.799107" y="317.157072" style="stroke: #000000; stroke-width: 0.8"/>
      </g>
     </g>
    </g>
    <g id="ytick_13">
     <g id="line2d_29">
      <g>
       <use xlink:href="#m26445edeaa" x="353.799107" y="278.095235" style="stroke: #000000; stroke-width: 0.8"/>
      </g>
     </g>
    </g>
    <g id="ytick_14">
     <g id="line2d_30">
      <g>
       <use xlink:href="#m26445edeaa" x="353.799107" y="239.033398" style="stroke: #000000; stroke-width: 0.8"/>
      </g>
     </g>
    </g>
    <g id="ytick_15">
     <g id="line2d_31">
      <g>
       <use xlink:href="#m26445edeaa" x="353.799107" y="199.971561" style="stroke: #000000; stroke-width: 0.8"/>
      </g>
     </g>
    </g>
    <g id="ytick_16">
     <g id="line2d_32">
      <g>
       <use xlink:href="#m26445edeaa" x="353.799107" y="160.909724" style="stroke: #000000; stroke-width: 0.8"/>
      </g>
     </g>
    </g>
    <g id="ytick_17">
     <g id="line2d_33">
      <g>
       <use xlink:href="#m26445edeaa" x="353.799107" y="121.847888" style="stroke: #000000; stroke-width: 0.8"/>
      </g>
     </g>
    </g>
    <g id="ytick_18">
     <g id="line2d_34">
      <g>
       <use xlink:href="#m26445edeaa" x="353.799107" y="82.786051" style="stroke: #000000; stroke-width: 0.8"/>
      </g>
     </g>
    </g>
   </g>
   <g id="line2d_35">
    <path d="M 371.498137 356.218908 
L 373.0367 352.744564 
L 374.34466 349.27022 
L 375.35991 345.795876 
L 375.849011 343.479646 
L 376.174997 341.163416 
L 376.330999 338.847187 
L 376.314223 336.530957 
L 376.126095 334.214728 
L 375.772235 331.898498 
L 374.952791 328.424154 
L 373.83055 324.94981 
L 372.467883 321.475466 
L 370.403028 316.843007 
L 365.602822 306.419974 
L 363.772828 301.787515 
L 362.630147 298.31317 
L 361.72033 294.838826 
L 361.062469 291.364482 
L 360.664807 287.890138 
L 360.526486 284.415793 
L 360.639477 280.941449 
L 360.990418 277.467105 
L 361.5622 273.99276 
L 362.33517 270.518416 
L 363.641618 265.885957 
L 365.213464 261.253498 
L 367.463333 255.462924 
L 370.926563 247.356121 
L 375.384154 236.933088 
L 377.597806 231.142514 
L 379.12491 226.510055 
L 380.37754 221.877596 
L 381.112063 218.403252 
L 381.657372 214.928908 
L 382.006456 211.454563 
L 382.157071 207.980219 
L 382.111498 204.505875 
L 381.87609 201.031531 
L 381.460678 197.557186 
L 380.648955 192.924727 
L 379.575456 188.292268 
L 378.279789 183.659809 
L 376.411223 177.869235 
L 373.91214 170.920547 
L 364.024766 144.283907 
L 361.852765 137.335219 
L 360.260989 131.544645 
L 358.878131 125.754071 
L 358.878131 125.754071 
" clip-path="url(#p14f5023843)" style="fill: none; stroke: #1f77b4; stroke-width: 1.5; stroke-linecap: square"/>
   </g>
   <g id="patch_26">
    <path d="M 353.799107 385.69375 
L 353.799107 72.084643 
" style="fill: none; stroke: #000000; stroke-width: 0.8; stroke-linejoin: miter; stroke-linecap: square"/>
   </g>
  </g>
 </g>
 <defs>
  <clipPath id="pccd4b2719f">
   <rect x="34.51875" y="72.084643" width="308.637679" height="313.609107"/>
  </clipPath>
  <clipPath id="p0ccc148f1e">
   <rect x="34.51875" y="7.2" width="308.637679" height="54.070536"/>
  </clipPath>
  <clipPath id="p14f5023843">
   <rect x="353.799107" y="72.084643" width="53.213393" height="313.609107"/>
  </clipPath>
 </defs>
</svg>
