<?xml version="1.0" encoding="utf-8" standalone="no"?>
<!DOCTYPE svg PUBLIC "-//W3C//DTD SVG 1.1//EN"
  "http://www.w3.org/Graphics/SVG/1.1/DTD/svg11.dtd">
<svg xmlns:xlink="http://www.w3.org/1999/xlink" width="362.5625pt" height="263.63625pt" viewBox="0 0 362.5625 263.63625" xmlns="http://www.w3.org/2000/svg" version="1.1">
 <metadata>
  <rdf:RDF xmlns:dc="http://purl.org/dc/elements/1.1/" xmlns:cc="http://creativecommons.org/ns#" xmlns:rdf="http://www.w3.org/1999/02/22-rdf-syntax-ns#">
   <cc:Work>
    <dc:type rdf:resource="http://purl.org/dc/dcmitype/StillImage"/>
    <dc:date>2022-02-02T16:04:01.832398</dc:date>
    <dc:format>image/svg+xml</dc:format>
    <dc:creator>
     <cc:Agent>
      <dc:title>Matplotlib v3.5.0, https://matplotlib.org/</dc:title>
     </cc:Agent>
    </dc:creator>
   </cc:Work>
  </rdf:RDF>
 </metadata>
 <defs>
  <style type="text/css">*{stroke-linejoin: round; stroke-linecap: butt}</style>
 </defs>
 <g id="figure_1">
  <g id="patch_1">
   <path d="M 0 263.63625 
L 362.5625 263.63625 
L 362.5625 0 
L 0 0 
L 0 263.63625 
z
" style="fill: none"/>
  </g>
  <g id="axes_1">
   <g id="patch_2">
    <path d="M 20.5625 239.758125 
L 355.3625 239.758125 
L 355.3625 22.318125 
L 20.5625 22.318125 
z
" style="fill: #ffffff"/>
   </g>
   <g id="matplotlib.axis_1">
    <g id="xtick_1">
     <g id="line2d_1">
      <defs>
       <path id="m9f19118530" d="M 0 0 
L 0 3.5 
" style="stroke: #000000; stroke-width: 0.8"/>
      </defs>
      <g>
       <use xlink:href="#m9f19118530" x="35.780682" y="239.758125" style="stroke: #000000; stroke-width: 0.8"/>
      </g>
     </g>
     <g id="text_1">
      <!-- 0 -->
      <g transform="translate(32.599432 254.356563)scale(0.1 -0.1)">
       <defs>
        <path id="DejaVuSans-30" d="M 2034 4250 
Q 1547 4250 1301 3770 
Q 1056 3291 1056 2328 
Q 1056 1369 1301 889 
Q 1547 409 2034 409 
Q 2525 409 2770 889 
Q 3016 1369 3016 2328 
Q 3016 3291 2770 3770 
Q 2525 4250 2034 4250 
z
M 2034 4750 
Q 2819 4750 3233 4129 
Q 3647 3509 3647 2328 
Q 3647 1150 3233 529 
Q 2819 -91 2034 -91 
Q 1250 -91 836 529 
Q 422 1150 422 2328 
Q 422 3509 836 4129 
Q 1250 4750 2034 4750 
z
" transform="scale(0.015625)"/>
       </defs>
       <use xlink:href="#DejaVuSans-30"/>
      </g>
     </g>
    </g>
    <g id="xtick_2">
     <g id="line2d_2">
      <g>
       <use xlink:href="#m9f19118530" x="76.634861" y="239.758125" style="stroke: #000000; stroke-width: 0.8"/>
      </g>
     </g>
     <g id="text_2">
      <!-- 20 -->
      <g transform="translate(70.272361 254.356563)scale(0.1 -0.1)">
       <defs>
        <path id="DejaVuSans-32" d="M 1228 531 
L 3431 531 
L 3431 0 
L 469 0 
L 469 531 
Q 828 903 1448 1529 
Q 2069 2156 2228 2338 
Q 2531 2678 2651 2914 
Q 2772 3150 2772 3378 
Q 2772 3750 2511 3984 
Q 2250 4219 1831 4219 
Q 1534 4219 1204 4116 
Q 875 4013 500 3803 
L 500 4441 
Q 881 4594 1212 4672 
Q 1544 4750 1819 4750 
Q 2544 4750 2975 4387 
Q 3406 4025 3406 3419 
Q 3406 3131 3298 2873 
Q 3191 2616 2906 2266 
Q 2828 2175 2409 1742 
Q 1991 1309 1228 531 
z
" transform="scale(0.015625)"/>
       </defs>
       <use xlink:href="#DejaVuSans-32"/>
       <use xlink:href="#DejaVuSans-30" x="63.623047"/>
      </g>
     </g>
    </g>
    <g id="xtick_3">
     <g id="line2d_3">
      <g>
       <use xlink:href="#m9f19118530" x="117.489041" y="239.758125" style="stroke: #000000; stroke-width: 0.8"/>
      </g>
     </g>
     <g id="text_3">
      <!-- 40 -->
      <g transform="translate(111.126541 254.356563)scale(0.1 -0.1)">
       <defs>
        <path id="DejaVuSans-34" d="M 2419 4116 
L 825 1625 
L 2419 1625 
L 2419 4116 
z
M 2253 4666 
L 3047 4666 
L 3047 1625 
L 3713 1625 
L 3713 1100 
L 3047 1100 
L 3047 0 
L 2419 0 
L 2419 1100 
L 313 1100 
L 313 1709 
L 2253 4666 
z
" transform="scale(0.015625)"/>
       </defs>
       <use xlink:href="#DejaVuSans-34"/>
       <use xlink:href="#DejaVuSans-30" x="63.623047"/>
      </g>
     </g>
    </g>
    <g id="xtick_4">
     <g id="line2d_4">
      <g>
       <use xlink:href="#m9f19118530" x="158.34322" y="239.758125" style="stroke: #000000; stroke-width: 0.8"/>
      </g>
     </g>
     <g id="text_4">
      <!-- 60 -->
      <g transform="translate(151.98072 254.356563)scale(0.1 -0.1)">
       <defs>
        <path id="DejaVuSans-36" d="M 2113 2584 
Q 1688 2584 1439 2293 
Q 1191 2003 1191 1497 
Q 1191 994 1439 701 
Q 1688 409 2113 409 
Q 2538 409 2786 701 
Q 3034 994 3034 1497 
Q 3034 2003 2786 2293 
Q 2538 2584 2113 2584 
z
M 3366 4563 
L 3366 3988 
Q 3128 4100 2886 4159 
Q 2644 4219 2406 4219 
Q 1781 4219 1451 3797 
Q 1122 3375 1075 2522 
Q 1259 2794 1537 2939 
Q 1816 3084 2150 3084 
Q 2853 3084 3261 2657 
Q 3669 2231 3669 1497 
Q 3669 778 3244 343 
Q 2819 -91 2113 -91 
Q 1303 -91 875 529 
Q 447 1150 447 2328 
Q 447 3434 972 4092 
Q 1497 4750 2381 4750 
Q 2619 4750 2861 4703 
Q 3103 4656 3366 4563 
z
" transform="scale(0.015625)"/>
       </defs>
       <use xlink:href="#DejaVuSans-36"/>
       <use xlink:href="#DejaVuSans-30" x="63.623047"/>
      </g>
     </g>
    </g>
    <g id="xtick_5">
     <g id="line2d_5">
      <g>
       <use xlink:href="#m9f19118530" x="199.197399" y="239.758125" style="stroke: #000000; stroke-width: 0.8"/>
      </g>
     </g>
     <g id="text_5">
      <!-- 80 -->
      <g transform="translate(192.834899 254.356563)scale(0.1 -0.1)">
       <defs>
        <path id="DejaVuSans-38" d="M 2034 2216 
Q 1584 2216 1326 1975 
Q 1069 1734 1069 1313 
Q 1069 891 1326 650 
Q 1584 409 2034 409 
Q 2484 409 2743 651 
Q 3003 894 3003 1313 
Q 3003 1734 2745 1975 
Q 2488 2216 2034 2216 
z
M 1403 2484 
Q 997 2584 770 2862 
Q 544 3141 544 3541 
Q 544 4100 942 4425 
Q 1341 4750 2034 4750 
Q 2731 4750 3128 4425 
Q 3525 4100 3525 3541 
Q 3525 3141 3298 2862 
Q 3072 2584 2669 2484 
Q 3125 2378 3379 2068 
Q 3634 1759 3634 1313 
Q 3634 634 3220 271 
Q 2806 -91 2034 -91 
Q 1263 -91 848 271 
Q 434 634 434 1313 
Q 434 1759 690 2068 
Q 947 2378 1403 2484 
z
M 1172 3481 
Q 1172 3119 1398 2916 
Q 1625 2713 2034 2713 
Q 2441 2713 2670 2916 
Q 2900 3119 2900 3481 
Q 2900 3844 2670 4047 
Q 2441 4250 2034 4250 
Q 1625 4250 1398 4047 
Q 1172 3844 1172 3481 
z
" transform="scale(0.015625)"/>
       </defs>
       <use xlink:href="#DejaVuSans-38"/>
       <use xlink:href="#DejaVuSans-30" x="63.623047"/>
      </g>
     </g>
    </g>
    <g id="xtick_6">
     <g id="line2d_6">
      <g>
       <use xlink:href="#m9f19118530" x="240.051579" y="239.758125" style="stroke: #000000; stroke-width: 0.8"/>
      </g>
     </g>
     <g id="text_6">
      <!-- 100 -->
      <g transform="translate(230.507829 254.356563)scale(0.1 -0.1)">
       <defs>
        <path id="DejaVuSans-31" d="M 794 531 
L 1825 531 
L 1825 4091 
L 703 3866 
L 703 4441 
L 1819 4666 
L 2450 4666 
L 2450 531 
L 3481 531 
L 3481 0 
L 794 0 
L 794 531 
z
" transform="scale(0.015625)"/>
       </defs>
       <use xlink:href="#DejaVuSans-31"/>
       <use xlink:href="#DejaVuSans-30" x="63.623047"/>
       <use xlink:href="#DejaVuSans-30" x="127.246094"/>
      </g>
     </g>
    </g>
    <g id="xtick_7">
     <g id="line2d_7">
      <g>
       <use xlink:href="#m9f19118530" x="280.905758" y="239.758125" style="stroke: #000000; stroke-width: 0.8"/>
      </g>
     </g>
     <g id="text_7">
      <!-- 120 -->
      <g transform="translate(271.362008 254.356563)scale(0.1 -0.1)">
       <use xlink:href="#DejaVuSans-31"/>
       <use xlink:href="#DejaVuSans-32" x="63.623047"/>
       <use xlink:href="#DejaVuSans-30" x="127.246094"/>
      </g>
     </g>
    </g>
    <g id="xtick_8">
     <g id="line2d_8">
      <g>
       <use xlink:href="#m9f19118530" x="321.759937" y="239.758125" style="stroke: #000000; stroke-width: 0.8"/>
      </g>
     </g>
     <g id="text_8">
      <!-- 140 -->
      <g transform="translate(312.216187 254.356563)scale(0.1 -0.1)">
       <use xlink:href="#DejaVuSans-31"/>
       <use xlink:href="#DejaVuSans-34" x="63.623047"/>
       <use xlink:href="#DejaVuSans-30" x="127.246094"/>
      </g>
     </g>
    </g>
   </g>
   <g id="matplotlib.axis_2">
    <g id="ytick_1">
     <g id="line2d_9">
      <defs>
       <path id="me324d36a0d" d="M 0 0 
L -3.5 0 
" style="stroke: #000000; stroke-width: 0.8"/>
      </defs>
      <g>
       <use xlink:href="#me324d36a0d" x="20.5625" y="232.408754" style="stroke: #000000; stroke-width: 0.8"/>
      </g>
     </g>
     <g id="text_9">
      <!-- 0 -->
      <g transform="translate(7.2 236.207973)scale(0.1 -0.1)">
       <use xlink:href="#DejaVuSans-30"/>
      </g>
     </g>
    </g>
    <g id="ytick_2">
     <g id="line2d_10">
      <g>
       <use xlink:href="#me324d36a0d" x="20.5625" y="207.066097" style="stroke: #000000; stroke-width: 0.8"/>
      </g>
     </g>
     <g id="text_10">
      <!-- 1 -->
      <g transform="translate(7.2 210.865316)scale(0.1 -0.1)">
       <use xlink:href="#DejaVuSans-31"/>
      </g>
     </g>
    </g>
    <g id="ytick_3">
     <g id="line2d_11">
      <g>
       <use xlink:href="#me324d36a0d" x="20.5625" y="181.72344" style="stroke: #000000; stroke-width: 0.8"/>
      </g>
     </g>
     <g id="text_11">
      <!-- 2 -->
      <g transform="translate(7.2 185.522658)scale(0.1 -0.1)">
       <use xlink:href="#DejaVuSans-32"/>
      </g>
     </g>
    </g>
    <g id="ytick_4">
     <g id="line2d_12">
      <g>
       <use xlink:href="#me324d36a0d" x="20.5625" y="156.380782" style="stroke: #000000; stroke-width: 0.8"/>
      </g>
     </g>
     <g id="text_12">
      <!-- 3 -->
      <g transform="translate(7.2 160.180001)scale(0.1 -0.1)">
       <defs>
        <path id="DejaVuSans-33" d="M 2597 2516 
Q 3050 2419 3304 2112 
Q 3559 1806 3559 1356 
Q 3559 666 3084 287 
Q 2609 -91 1734 -91 
Q 1441 -91 1130 -33 
Q 819 25 488 141 
L 488 750 
Q 750 597 1062 519 
Q 1375 441 1716 441 
Q 2309 441 2620 675 
Q 2931 909 2931 1356 
Q 2931 1769 2642 2001 
Q 2353 2234 1838 2234 
L 1294 2234 
L 1294 2753 
L 1863 2753 
Q 2328 2753 2575 2939 
Q 2822 3125 2822 3475 
Q 2822 3834 2567 4026 
Q 2313 4219 1838 4219 
Q 1578 4219 1281 4162 
Q 984 4106 628 3988 
L 628 4550 
Q 988 4650 1302 4700 
Q 1616 4750 1894 4750 
Q 2613 4750 3031 4423 
Q 3450 4097 3450 3541 
Q 3450 3153 3228 2886 
Q 3006 2619 2597 2516 
z
" transform="scale(0.015625)"/>
       </defs>
       <use xlink:href="#DejaVuSans-33"/>
      </g>
     </g>
    </g>
    <g id="ytick_5">
     <g id="line2d_13">
      <g>
       <use xlink:href="#me324d36a0d" x="20.5625" y="131.038125" style="stroke: #000000; stroke-width: 0.8"/>
      </g>
     </g>
     <g id="text_13">
      <!-- 4 -->
      <g transform="translate(7.2 134.837344)scale(0.1 -0.1)">
       <use xlink:href="#DejaVuSans-34"/>
      </g>
     </g>
    </g>
    <g id="ytick_6">
     <g id="line2d_14">
      <g>
       <use xlink:href="#me324d36a0d" x="20.5625" y="105.695468" style="stroke: #000000; stroke-width: 0.8"/>
      </g>
     </g>
     <g id="text_14">
      <!-- 5 -->
      <g transform="translate(7.2 109.494686)scale(0.1 -0.1)">
       <defs>
        <path id="DejaVuSans-35" d="M 691 4666 
L 3169 4666 
L 3169 4134 
L 1269 4134 
L 1269 2991 
Q 1406 3038 1543 3061 
Q 1681 3084 1819 3084 
Q 2600 3084 3056 2656 
Q 3513 2228 3513 1497 
Q 3513 744 3044 326 
Q 2575 -91 1722 -91 
Q 1428 -91 1123 -41 
Q 819 9 494 109 
L 494 744 
Q 775 591 1075 516 
Q 1375 441 1709 441 
Q 2250 441 2565 725 
Q 2881 1009 2881 1497 
Q 2881 1984 2565 2268 
Q 2250 2553 1709 2553 
Q 1456 2553 1204 2497 
Q 953 2441 691 2322 
L 691 4666 
z
" transform="scale(0.015625)"/>
       </defs>
       <use xlink:href="#DejaVuSans-35"/>
      </g>
     </g>
    </g>
    <g id="ytick_7">
     <g id="line2d_15">
      <g>
       <use xlink:href="#me324d36a0d" x="20.5625" y="80.35281" style="stroke: #000000; stroke-width: 0.8"/>
      </g>
     </g>
     <g id="text_15">
      <!-- 6 -->
      <g transform="translate(7.2 84.152029)scale(0.1 -0.1)">
       <use xlink:href="#DejaVuSans-36"/>
      </g>
     </g>
    </g>
    <g id="ytick_8">
     <g id="line2d_16">
      <g>
       <use xlink:href="#me324d36a0d" x="20.5625" y="55.010153" style="stroke: #000000; stroke-width: 0.8"/>
      </g>
     </g>
     <g id="text_16">
      <!-- 7 -->
      <g transform="translate(7.2 58.809372)scale(0.1 -0.1)">
       <defs>
        <path id="DejaVuSans-37" d="M 525 4666 
L 3525 4666 
L 3525 4397 
L 1831 0 
L 1172 0 
L 2766 4134 
L 525 4134 
L 525 4666 
z
" transform="scale(0.015625)"/>
       </defs>
       <use xlink:href="#DejaVuSans-37"/>
      </g>
     </g>
    </g>
    <g id="ytick_9">
     <g id="line2d_17">
      <g>
       <use xlink:href="#me324d36a0d" x="20.5625" y="29.667496" style="stroke: #000000; stroke-width: 0.8"/>
      </g>
     </g>
     <g id="text_17">
      <!-- 8 -->
      <g transform="translate(7.2 33.466714)scale(0.1 -0.1)">
       <use xlink:href="#DejaVuSans-38"/>
      </g>
     </g>
    </g>
   </g>
   <g id="line2d_18">
    <path d="M 35.780682 103.161202 
L 39.8661 113.298265 
L 41.908809 115.832531 
L 45.994227 95.558405 
L 48.036936 115.832531 
L 50.079645 105.695468 
L 52.122354 120.901062 
L 56.207772 95.558405 
L 58.25048 110.763999 
L 60.293189 110.763999 
L 62.335898 123.435328 
L 64.378607 85.421342 
L 66.421316 87.955608 
L 70.506734 103.161202 
L 72.549443 87.955608 
L 74.592152 103.161202 
L 76.634861 95.558405 
L 78.67757 103.161202 
L 80.720279 115.832531 
L 82.762988 103.161202 
L 84.805697 110.763999 
L 86.848406 105.695468 
L 88.891115 105.695468 
L 90.933824 100.626936 
L 92.976533 100.626936 
L 95.019242 113.298265 
L 97.061951 110.763999 
L 99.10466 95.558405 
L 101.147369 100.626936 
L 103.190078 93.024139 
L 105.232787 108.229733 
L 107.275496 105.695468 
L 109.318205 93.024139 
L 111.360914 108.229733 
L 113.403623 120.901062 
L 115.446332 103.161202 
L 117.489041 105.695468 
L 119.53175 118.366796 
L 121.574459 120.901062 
L 123.617167 105.695468 
L 125.659876 103.161202 
L 127.702585 110.763999 
L 129.745294 103.161202 
L 131.788003 115.832531 
L 133.830712 98.09267 
L 135.873421 105.695468 
L 137.91613 55.010153 
L 139.958839 70.215747 
L 142.001548 57.544419 
L 144.044257 93.024139 
L 146.086966 67.681482 
L 148.129675 87.955608 
L 150.172384 72.750013 
L 152.215093 108.229733 
L 154.257802 65.147216 
L 156.300511 100.626936 
L 158.34322 105.695468 
L 160.385929 82.887076 
L 164.471347 77.818545 
L 166.514056 90.489873 
L 168.556765 62.61295 
L 170.599474 90.489873 
L 172.642183 85.421342 
L 174.684892 75.284279 
L 176.727601 90.489873 
L 178.77031 82.887076 
L 182.855728 72.750013 
L 184.898437 77.818545 
L 186.941146 70.215747 
L 191.026563 60.078684 
L 193.069272 62.61295 
L 195.111981 80.35281 
L 197.15469 87.955608 
L 199.197399 93.024139 
L 201.240108 93.024139 
L 203.282817 85.421342 
L 205.325526 80.35281 
L 207.368235 95.558405 
L 209.410944 80.35281 
L 211.453653 62.61295 
L 213.496362 72.750013 
L 215.539071 90.489873 
L 217.58178 93.024139 
L 219.624489 93.024139 
L 221.667198 77.818545 
L 223.709907 85.421342 
L 225.752616 105.695468 
L 227.795325 90.489873 
L 229.838034 87.955608 
L 231.880743 87.955608 
L 233.923452 75.284279 
L 235.966161 103.161202 
L 240.051579 72.750013 
L 242.094288 85.421342 
L 244.136997 52.475887 
L 246.179706 72.750013 
L 248.222415 67.681482 
L 250.265124 39.804559 
L 252.307833 108.229733 
L 254.350541 47.407356 
L 256.39325 62.61295 
L 258.435959 49.941622 
L 260.478668 67.681482 
L 262.521377 70.215747 
L 264.564086 60.078684 
L 266.606795 87.955608 
L 268.649504 85.421342 
L 270.692213 70.215747 
L 272.734922 67.681482 
L 274.777631 37.270293 
L 276.82034 37.270293 
L 278.863049 80.35281 
L 280.905758 57.544419 
L 282.948467 90.489873 
L 284.991176 37.270293 
L 287.033885 72.750013 
L 289.076594 62.61295 
L 291.119303 49.941622 
L 293.162012 75.284279 
L 295.204721 77.818545 
L 297.24743 70.215747 
L 299.290139 49.941622 
L 301.332848 44.87309 
L 303.375557 32.201761 
L 305.418266 70.215747 
L 307.460975 72.750013 
L 309.503684 77.818545 
L 311.546393 37.270293 
L 313.589102 72.750013 
L 315.631811 70.215747 
L 317.67452 80.35281 
L 319.717228 57.544419 
L 321.759937 62.61295 
L 323.802646 57.544419 
L 325.845355 85.421342 
L 327.888064 60.078684 
L 329.930773 62.61295 
L 331.973482 62.61295 
L 334.016191 72.750013 
L 336.0589 67.681482 
L 340.144318 82.887076 
L 340.144318 82.887076 
" clip-path="url(#p107e51df5a)" style="fill: none; stroke: #1f77b4; stroke-width: 1.5; stroke-linecap: square"/>
   </g>
   <g id="line2d_19">
    <path d="M 35.780682 143.709454 
L 37.823391 156.380782 
L 39.8661 151.312251 
L 41.908809 153.846517 
L 43.951518 141.175188 
L 45.994227 133.572391 
L 48.036936 146.243719 
L 50.079645 146.243719 
L 52.122354 158.915048 
L 54.165063 153.846517 
L 56.207772 138.640922 
L 58.25048 146.243719 
L 60.293189 156.380782 
L 62.335898 156.380782 
L 64.378607 131.038125 
L 66.421316 120.901062 
L 68.464025 133.572391 
L 70.506734 143.709454 
L 72.549443 136.106656 
L 74.592152 136.106656 
L 76.634861 146.243719 
L 78.67757 138.640922 
L 80.720279 141.175188 
L 82.762988 148.777985 
L 84.805697 146.243719 
L 86.848406 156.380782 
L 88.891115 146.243719 
L 90.933824 143.709454 
L 92.976533 146.243719 
L 95.019242 151.312251 
L 97.061951 153.846517 
L 99.10466 146.243719 
L 101.147369 128.503859 
L 103.190078 125.969594 
L 105.232787 153.846517 
L 107.275496 151.312251 
L 109.318205 143.709454 
L 111.360914 153.846517 
L 113.403623 156.380782 
L 115.446332 146.243719 
L 117.489041 143.709454 
L 119.53175 174.120642 
L 121.574459 151.312251 
L 125.659876 136.106656 
L 127.702585 156.380782 
L 129.745294 136.106656 
L 131.788003 151.312251 
L 133.830712 138.640922 
L 135.873421 148.777985 
L 137.91613 151.312251 
L 139.958839 151.312251 
L 142.001548 153.846517 
L 144.044257 174.120642 
L 146.086966 161.449314 
L 148.129675 161.449314 
L 150.172384 148.777985 
L 152.215093 171.586377 
L 154.257802 158.915048 
L 156.300511 163.98358 
L 158.34322 181.72344 
L 160.385929 156.380782 
L 162.428638 176.654908 
L 164.471347 158.915048 
L 166.514056 158.915048 
L 168.556765 153.846517 
L 170.599474 156.380782 
L 172.642183 163.98358 
L 174.684892 176.654908 
L 176.727601 169.052111 
L 178.77031 151.312251 
L 180.813019 161.449314 
L 182.855728 169.052111 
L 184.898437 161.449314 
L 188.983854 156.380782 
L 191.026563 161.449314 
L 193.069272 156.380782 
L 195.111981 158.915048 
L 197.15469 166.517845 
L 199.197399 171.586377 
L 201.240108 171.586377 
L 203.282817 163.98358 
L 205.325526 163.98358 
L 207.368235 156.380782 
L 209.410944 146.243719 
L 211.453653 153.846517 
L 213.496362 174.120642 
L 215.539071 156.380782 
L 217.58178 169.052111 
L 219.624489 166.517845 
L 221.667198 156.380782 
L 223.709907 166.517845 
L 225.752616 174.120642 
L 227.795325 163.98358 
L 229.838034 156.380782 
L 231.880743 158.915048 
L 233.923452 158.915048 
L 235.966161 169.052111 
L 238.00887 161.449314 
L 240.051579 148.777985 
L 242.094288 163.98358 
L 244.136997 156.380782 
L 246.179706 158.915048 
L 248.222415 156.380782 
L 250.265124 156.380782 
L 252.307833 169.052111 
L 254.350541 158.915048 
L 256.39325 169.052111 
L 258.435959 141.175188 
L 260.478668 151.312251 
L 262.521377 163.98358 
L 264.564086 156.380782 
L 266.606795 169.052111 
L 268.649504 161.449314 
L 270.692213 151.312251 
L 272.734922 156.380782 
L 274.777631 136.106656 
L 276.82034 166.517845 
L 278.863049 176.654908 
L 280.905758 151.312251 
L 282.948467 161.449314 
L 284.991176 161.449314 
L 287.033885 163.98358 
L 289.076594 148.777985 
L 291.119303 151.312251 
L 293.162012 161.449314 
L 295.204721 156.380782 
L 297.24743 161.449314 
L 299.290139 156.380782 
L 301.332848 161.449314 
L 303.375557 136.106656 
L 305.418266 161.449314 
L 307.460975 161.449314 
L 309.503684 166.517845 
L 313.589102 146.243719 
L 315.631811 153.846517 
L 317.67452 156.380782 
L 319.717228 153.846517 
L 323.802646 153.846517 
L 325.845355 163.98358 
L 327.888064 151.312251 
L 329.930773 148.777985 
L 331.973482 156.380782 
L 334.016191 169.052111 
L 336.0589 156.380782 
L 338.101609 146.243719 
L 340.144318 156.380782 
L 340.144318 156.380782 
" clip-path="url(#p107e51df5a)" style="fill: none; stroke: #ff7f0e; stroke-width: 1.5; stroke-linecap: square"/>
   </g>
   <g id="line2d_20">
    <path d="M 35.780682 196.929034 
L 37.823391 196.929034 
L 39.8661 199.4633 
L 41.908809 194.394768 
L 43.951518 196.929034 
L 45.994227 189.326237 
L 48.036936 196.929034 
L 50.079645 194.394768 
L 52.122354 196.929034 
L 54.165063 194.394768 
L 56.207772 194.394768 
L 58.25048 191.860503 
L 60.293189 196.929034 
L 62.335898 204.531831 
L 64.378607 201.997566 
L 66.421316 194.394768 
L 68.464025 199.4633 
L 70.506734 196.929034 
L 72.549443 189.326237 
L 74.592152 194.394768 
L 76.634861 189.326237 
L 78.67757 194.394768 
L 80.720279 207.066097 
L 82.762988 189.326237 
L 84.805697 184.257705 
L 86.848406 191.860503 
L 88.891115 191.860503 
L 92.976533 196.929034 
L 95.019242 191.860503 
L 97.061951 191.860503 
L 99.10466 194.394768 
L 101.147369 194.394768 
L 103.190078 196.929034 
L 105.232787 194.394768 
L 107.275496 201.997566 
L 109.318205 199.4633 
L 111.360914 194.394768 
L 113.403623 199.4633 
L 115.446332 194.394768 
L 117.489041 199.4633 
L 121.574459 199.4633 
L 125.659876 184.257705 
L 127.702585 196.929034 
L 129.745294 191.860503 
L 131.788003 196.929034 
L 133.830712 194.394768 
L 135.873421 196.929034 
L 137.91613 113.298265 
L 139.958839 118.366796 
L 142.001548 108.229733 
L 144.044257 131.038125 
L 146.086966 115.832531 
L 148.129675 118.366796 
L 150.172384 113.298265 
L 152.215093 148.777985 
L 154.257802 115.832531 
L 156.300511 133.572391 
L 158.34322 143.709454 
L 160.385929 125.969594 
L 162.428638 131.038125 
L 164.471347 113.298265 
L 166.514056 141.175188 
L 168.556765 120.901062 
L 170.599474 118.366796 
L 172.642183 128.503859 
L 174.684892 118.366796 
L 176.727601 133.572391 
L 178.77031 110.763999 
L 180.813019 131.038125 
L 182.855728 108.229733 
L 184.898437 113.298265 
L 186.941146 123.435328 
L 188.983854 120.901062 
L 191.026563 110.763999 
L 193.069272 105.695468 
L 195.111981 118.366796 
L 197.15469 143.709454 
L 199.197399 136.106656 
L 201.240108 138.640922 
L 203.282817 133.572391 
L 205.325526 103.161202 
L 207.368235 118.366796 
L 209.410944 118.366796 
L 211.453653 113.298265 
L 215.539071 128.503859 
L 217.58178 131.038125 
L 219.624489 120.901062 
L 221.667198 115.832531 
L 223.709907 131.038125 
L 225.752616 148.777985 
L 227.795325 125.969594 
L 231.880743 125.969594 
L 233.923452 123.435328 
L 235.966161 156.380782 
L 238.00887 128.503859 
L 240.051579 80.35281 
L 242.094288 103.161202 
L 244.136997 82.887076 
L 246.179706 90.489873 
L 248.222415 85.421342 
L 250.265124 65.147216 
L 252.307833 118.366796 
L 254.350541 72.750013 
L 256.39325 85.421342 
L 258.435959 77.818545 
L 260.478668 103.161202 
L 264.564086 93.024139 
L 266.606795 105.695468 
L 268.649504 103.161202 
L 272.734922 93.024139 
L 274.777631 62.61295 
L 276.82034 57.544419 
L 278.863049 105.695468 
L 280.905758 87.955608 
L 282.948467 108.229733 
L 284.991176 62.61295 
L 287.033885 108.229733 
L 289.076594 87.955608 
L 291.119303 80.35281 
L 293.162012 110.763999 
L 295.204721 108.229733 
L 297.24743 90.489873 
L 299.290139 85.421342 
L 303.375557 70.215747 
L 305.418266 90.489873 
L 307.460975 103.161202 
L 311.546393 77.818545 
L 313.589102 90.489873 
L 315.631811 93.024139 
L 317.67452 110.763999 
L 319.717228 95.558405 
L 321.759937 90.489873 
L 323.802646 103.161202 
L 325.845355 103.161202 
L 327.888064 82.887076 
L 329.930773 87.955608 
L 331.973482 100.626936 
L 334.016191 105.695468 
L 338.101609 95.558405 
L 340.144318 103.161202 
L 340.144318 103.161202 
" clip-path="url(#p107e51df5a)" style="fill: none; stroke: #2ca02c; stroke-width: 1.5; stroke-linecap: square"/>
   </g>
   <g id="line2d_21">
    <path d="M 35.780682 227.340223 
L 43.951518 227.340223 
L 45.994227 222.271691 
L 50.079645 227.340223 
L 52.122354 227.340223 
L 54.165063 229.874489 
L 56.207772 227.340223 
L 58.25048 227.340223 
L 60.293189 229.874489 
L 62.335898 229.874489 
L 64.378607 227.340223 
L 66.421316 222.271691 
L 68.464025 222.271691 
L 70.506734 224.805957 
L 74.592152 224.805957 
L 76.634861 227.340223 
L 78.67757 222.271691 
L 80.720279 227.340223 
L 82.762988 219.737426 
L 84.805697 227.340223 
L 86.848406 227.340223 
L 88.891115 222.271691 
L 90.933824 227.340223 
L 97.061951 227.340223 
L 99.10466 222.271691 
L 101.147369 229.874489 
L 103.190078 227.340223 
L 105.232787 229.874489 
L 107.275496 227.340223 
L 109.318205 227.340223 
L 111.360914 229.874489 
L 113.403623 227.340223 
L 115.446332 227.340223 
L 117.489041 224.805957 
L 119.53175 224.805957 
L 121.574459 227.340223 
L 123.617167 217.20316 
L 125.659876 222.271691 
L 129.745294 227.340223 
L 135.873421 227.340223 
L 137.91613 196.929034 
L 139.958839 194.394768 
L 142.001548 194.394768 
L 144.044257 199.4633 
L 146.086966 194.394768 
L 148.129675 199.4633 
L 150.172384 191.860503 
L 152.215093 207.066097 
L 154.257802 199.4633 
L 156.300511 196.929034 
L 158.34322 207.066097 
L 160.385929 194.394768 
L 162.428638 207.066097 
L 164.471347 196.929034 
L 166.514056 199.4633 
L 170.599474 194.394768 
L 172.642183 207.066097 
L 174.684892 194.394768 
L 176.727601 204.531831 
L 178.77031 186.791971 
L 180.813019 199.4633 
L 182.855728 194.394768 
L 184.898437 201.997566 
L 188.983854 196.929034 
L 191.026563 196.929034 
L 193.069272 189.326237 
L 195.111981 194.394768 
L 197.15469 207.066097 
L 199.197399 204.531831 
L 201.240108 207.066097 
L 203.282817 201.997566 
L 205.325526 191.860503 
L 207.368235 194.394768 
L 209.410944 191.860503 
L 211.453653 194.394768 
L 213.496362 199.4633 
L 217.58178 199.4633 
L 219.624489 201.997566 
L 221.667198 196.929034 
L 225.752616 207.066097 
L 227.795325 199.4633 
L 229.838034 201.997566 
L 231.880743 199.4633 
L 233.923452 199.4633 
L 235.966161 204.531831 
L 238.00887 199.4633 
L 240.051579 169.052111 
L 242.094288 184.257705 
L 244.136997 179.189174 
L 246.179706 186.791971 
L 248.222415 176.654908 
L 250.265124 179.189174 
L 252.307833 189.326237 
L 254.350541 186.791971 
L 256.39325 186.791971 
L 258.435959 169.052111 
L 260.478668 181.72344 
L 262.521377 184.257705 
L 264.564086 179.189174 
L 266.606795 181.72344 
L 268.649504 171.586377 
L 270.692213 174.120642 
L 272.734922 186.791971 
L 274.777631 176.654908 
L 276.82034 174.120642 
L 278.863049 194.394768 
L 280.905758 174.120642 
L 282.948467 181.72344 
L 284.991176 181.72344 
L 287.033885 186.791971 
L 289.076594 179.189174 
L 291.119303 186.791971 
L 295.204721 186.791971 
L 297.24743 179.189174 
L 299.290139 191.860503 
L 301.332848 184.257705 
L 303.375557 181.72344 
L 305.418266 176.654908 
L 307.460975 194.394768 
L 309.503684 196.929034 
L 311.546393 174.120642 
L 313.589102 171.586377 
L 315.631811 186.791971 
L 317.67452 186.791971 
L 321.759937 171.586377 
L 323.802646 174.120642 
L 325.845355 184.257705 
L 327.888064 174.120642 
L 329.930773 169.052111 
L 331.973482 174.120642 
L 334.016191 184.257705 
L 336.0589 181.72344 
L 338.101609 174.120642 
L 340.144318 186.791971 
L 340.144318 186.791971 
" clip-path="url(#p107e51df5a)" style="fill: none; stroke: #d62728; stroke-width: 1.5; stroke-linecap: square"/>
   </g>
   <g id="patch_3">
    <path d="M 20.5625 239.758125 
L 20.5625 22.318125 
" style="fill: none; stroke: #000000; stroke-width: 0.8; stroke-linejoin: miter; stroke-linecap: square"/>
   </g>
   <g id="patch_4">
    <path d="M 355.3625 239.758125 
L 355.3625 22.318125 
" style="fill: none; stroke: #000000; stroke-width: 0.8; stroke-linejoin: miter; stroke-linecap: square"/>
   </g>
   <g id="patch_5">
    <path d="M 20.5625 239.758125 
L 355.3625 239.758125 
" style="fill: none; stroke: #000000; stroke-width: 0.8; stroke-linejoin: miter; stroke-linecap: square"/>
   </g>
   <g id="patch_6">
    <path d="M 20.5625 22.318125 
L 355.3625 22.318125 
" style="fill: none; stroke: #000000; stroke-width: 0.8; stroke-linejoin: miter; stroke-linecap: square"/>
   </g>
   <g id="text_18">
    <!-- Iris Dataset -->
    <g transform="translate(153.530937 16.318125)scale(0.12 -0.12)">
     <defs>
      <path id="DejaVuSans-49" d="M 628 4666 
L 1259 4666 
L 1259 0 
L 628 0 
L 628 4666 
z
" transform="scale(0.015625)"/>
      <path id="DejaVuSans-72" d="M 2631 2963 
Q 2534 3019 2420 3045 
Q 2306 3072 2169 3072 
Q 1681 3072 1420 2755 
Q 1159 2438 1159 1844 
L 1159 0 
L 581 0 
L 581 3500 
L 1159 3500 
L 1159 2956 
Q 1341 3275 1631 3429 
Q 1922 3584 2338 3584 
Q 2397 3584 2469 3576 
Q 2541 3569 2628 3553 
L 2631 2963 
z
" transform="scale(0.015625)"/>
      <path id="DejaVuSans-69" d="M 603 3500 
L 1178 3500 
L 1178 0 
L 603 0 
L 603 3500 
z
M 603 4863 
L 1178 4863 
L 1178 4134 
L 603 4134 
L 603 4863 
z
" transform="scale(0.015625)"/>
      <path id="DejaVuSans-73" d="M 2834 3397 
L 2834 2853 
Q 2591 2978 2328 3040 
Q 2066 3103 1784 3103 
Q 1356 3103 1142 2972 
Q 928 2841 928 2578 
Q 928 2378 1081 2264 
Q 1234 2150 1697 2047 
L 1894 2003 
Q 2506 1872 2764 1633 
Q 3022 1394 3022 966 
Q 3022 478 2636 193 
Q 2250 -91 1575 -91 
Q 1294 -91 989 -36 
Q 684 19 347 128 
L 347 722 
Q 666 556 975 473 
Q 1284 391 1588 391 
Q 1994 391 2212 530 
Q 2431 669 2431 922 
Q 2431 1156 2273 1281 
Q 2116 1406 1581 1522 
L 1381 1569 
Q 847 1681 609 1914 
Q 372 2147 372 2553 
Q 372 3047 722 3315 
Q 1072 3584 1716 3584 
Q 2034 3584 2315 3537 
Q 2597 3491 2834 3397 
z
" transform="scale(0.015625)"/>
      <path id="DejaVuSans-20" transform="scale(0.015625)"/>
      <path id="DejaVuSans-44" d="M 1259 4147 
L 1259 519 
L 2022 519 
Q 2988 519 3436 956 
Q 3884 1394 3884 2338 
Q 3884 3275 3436 3711 
Q 2988 4147 2022 4147 
L 1259 4147 
z
M 628 4666 
L 1925 4666 
Q 3281 4666 3915 4102 
Q 4550 3538 4550 2338 
Q 4550 1131 3912 565 
Q 3275 0 1925 0 
L 628 0 
L 628 4666 
z
" transform="scale(0.015625)"/>
      <path id="DejaVuSans-61" d="M 2194 1759 
Q 1497 1759 1228 1600 
Q 959 1441 959 1056 
Q 959 750 1161 570 
Q 1363 391 1709 391 
Q 2188 391 2477 730 
Q 2766 1069 2766 1631 
L 2766 1759 
L 2194 1759 
z
M 3341 1997 
L 3341 0 
L 2766 0 
L 2766 531 
Q 2569 213 2275 61 
Q 1981 -91 1556 -91 
Q 1019 -91 701 211 
Q 384 513 384 1019 
Q 384 1609 779 1909 
Q 1175 2209 1959 2209 
L 2766 2209 
L 2766 2266 
Q 2766 2663 2505 2880 
Q 2244 3097 1772 3097 
Q 1472 3097 1187 3025 
Q 903 2953 641 2809 
L 641 3341 
Q 956 3463 1253 3523 
Q 1550 3584 1831 3584 
Q 2591 3584 2966 3190 
Q 3341 2797 3341 1997 
z
" transform="scale(0.015625)"/>
      <path id="DejaVuSans-74" d="M 1172 4494 
L 1172 3500 
L 2356 3500 
L 2356 3053 
L 1172 3053 
L 1172 1153 
Q 1172 725 1289 603 
Q 1406 481 1766 481 
L 2356 481 
L 2356 0 
L 1766 0 
Q 1100 0 847 248 
Q 594 497 594 1153 
L 594 3053 
L 172 3053 
L 172 3500 
L 594 3500 
L 594 4494 
L 1172 4494 
z
" transform="scale(0.015625)"/>
      <path id="DejaVuSans-65" d="M 3597 1894 
L 3597 1613 
L 953 1613 
Q 991 1019 1311 708 
Q 1631 397 2203 397 
Q 2534 397 2845 478 
Q 3156 559 3463 722 
L 3463 178 
Q 3153 47 2828 -22 
Q 2503 -91 2169 -91 
Q 1331 -91 842 396 
Q 353 884 353 1716 
Q 353 2575 817 3079 
Q 1281 3584 2069 3584 
Q 2775 3584 3186 3129 
Q 3597 2675 3597 1894 
z
M 3022 2063 
Q 3016 2534 2758 2815 
Q 2500 3097 2075 3097 
Q 1594 3097 1305 2825 
Q 1016 2553 972 2059 
L 3022 2063 
z
" transform="scale(0.015625)"/>
     </defs>
     <use xlink:href="#DejaVuSans-49"/>
     <use xlink:href="#DejaVuSans-72" x="29.492188"/>
     <use xlink:href="#DejaVuSans-69" x="70.605469"/>
     <use xlink:href="#DejaVuSans-73" x="98.388672"/>
     <use xlink:href="#DejaVuSans-20" x="150.488281"/>
     <use xlink:href="#DejaVuSans-44" x="182.275391"/>
     <use xlink:href="#DejaVuSans-61" x="259.277344"/>
     <use xlink:href="#DejaVuSans-74" x="320.556641"/>
     <use xlink:href="#DejaVuSans-61" x="359.765625"/>
     <use xlink:href="#DejaVuSans-73" x="421.044922"/>
     <use xlink:href="#DejaVuSans-65" x="473.144531"/>
     <use xlink:href="#DejaVuSans-74" x="534.667969"/>
    </g>
   </g>
   <g id="legend_1">
    <g id="patch_7">
     <path d="M 27.5625 90.143125 
L 123.054688 90.143125 
Q 125.054688 90.143125 125.054688 88.143125 
L 125.054688 29.318125 
Q 125.054688 27.318125 123.054688 27.318125 
L 27.5625 27.318125 
Q 25.5625 27.318125 25.5625 29.318125 
L 25.5625 88.143125 
Q 25.5625 90.143125 27.5625 90.143125 
z
" style="fill: #ffffff; opacity: 0.8; stroke: #cccccc; stroke-linejoin: miter"/>
    </g>
    <g id="line2d_22">
     <path d="M 29.5625 35.416562 
L 39.5625 35.416562 
L 49.5625 35.416562 
" style="fill: none; stroke: #1f77b4; stroke-width: 1.5; stroke-linecap: square"/>
    </g>
    <g id="text_19">
     <!-- sepal_length -->
     <g transform="translate(57.5625 38.916562)scale(0.1 -0.1)">
      <defs>
       <path id="DejaVuSans-70" d="M 1159 525 
L 1159 -1331 
L 581 -1331 
L 581 3500 
L 1159 3500 
L 1159 2969 
Q 1341 3281 1617 3432 
Q 1894 3584 2278 3584 
Q 2916 3584 3314 3078 
Q 3713 2572 3713 1747 
Q 3713 922 3314 415 
Q 2916 -91 2278 -91 
Q 1894 -91 1617 61 
Q 1341 213 1159 525 
z
M 3116 1747 
Q 3116 2381 2855 2742 
Q 2594 3103 2138 3103 
Q 1681 3103 1420 2742 
Q 1159 2381 1159 1747 
Q 1159 1113 1420 752 
Q 1681 391 2138 391 
Q 2594 391 2855 752 
Q 3116 1113 3116 1747 
z
" transform="scale(0.015625)"/>
       <path id="DejaVuSans-6c" d="M 603 4863 
L 1178 4863 
L 1178 0 
L 603 0 
L 603 4863 
z
" transform="scale(0.015625)"/>
       <path id="DejaVuSans-5f" d="M 3263 -1063 
L 3263 -1509 
L -63 -1509 
L -63 -1063 
L 3263 -1063 
z
" transform="scale(0.015625)"/>
       <path id="DejaVuSans-6e" d="M 3513 2113 
L 3513 0 
L 2938 0 
L 2938 2094 
Q 2938 2591 2744 2837 
Q 2550 3084 2163 3084 
Q 1697 3084 1428 2787 
Q 1159 2491 1159 1978 
L 1159 0 
L 581 0 
L 581 3500 
L 1159 3500 
L 1159 2956 
Q 1366 3272 1645 3428 
Q 1925 3584 2291 3584 
Q 2894 3584 3203 3211 
Q 3513 2838 3513 2113 
z
" transform="scale(0.015625)"/>
       <path id="DejaVuSans-67" d="M 2906 1791 
Q 2906 2416 2648 2759 
Q 2391 3103 1925 3103 
Q 1463 3103 1205 2759 
Q 947 2416 947 1791 
Q 947 1169 1205 825 
Q 1463 481 1925 481 
Q 2391 481 2648 825 
Q 2906 1169 2906 1791 
z
M 3481 434 
Q 3481 -459 3084 -895 
Q 2688 -1331 1869 -1331 
Q 1566 -1331 1297 -1286 
Q 1028 -1241 775 -1147 
L 775 -588 
Q 1028 -725 1275 -790 
Q 1522 -856 1778 -856 
Q 2344 -856 2625 -561 
Q 2906 -266 2906 331 
L 2906 616 
Q 2728 306 2450 153 
Q 2172 0 1784 0 
Q 1141 0 747 490 
Q 353 981 353 1791 
Q 353 2603 747 3093 
Q 1141 3584 1784 3584 
Q 2172 3584 2450 3431 
Q 2728 3278 2906 2969 
L 2906 3500 
L 3481 3500 
L 3481 434 
z
" transform="scale(0.015625)"/>
       <path id="DejaVuSans-68" d="M 3513 2113 
L 3513 0 
L 2938 0 
L 2938 2094 
Q 2938 2591 2744 2837 
Q 2550 3084 2163 3084 
Q 1697 3084 1428 2787 
Q 1159 2491 1159 1978 
L 1159 0 
L 581 0 
L 581 4863 
L 1159 4863 
L 1159 2956 
Q 1366 3272 1645 3428 
Q 1925 3584 2291 3584 
Q 2894 3584 3203 3211 
Q 3513 2838 3513 2113 
z
" transform="scale(0.015625)"/>
      </defs>
      <use xlink:href="#DejaVuSans-73"/>
      <use xlink:href="#DejaVuSans-65" x="52.099609"/>
      <use xlink:href="#DejaVuSans-70" x="113.623047"/>
      <use xlink:href="#DejaVuSans-61" x="177.099609"/>
      <use xlink:href="#DejaVuSans-6c" x="238.378906"/>
      <use xlink:href="#DejaVuSans-5f" x="266.162109"/>
      <use xlink:href="#DejaVuSans-6c" x="316.162109"/>
      <use xlink:href="#DejaVuSans-65" x="343.945312"/>
      <use xlink:href="#DejaVuSans-6e" x="405.46875"/>
      <use xlink:href="#DejaVuSans-67" x="468.847656"/>
      <use xlink:href="#DejaVuSans-74" x="532.324219"/>
      <use xlink:href="#DejaVuSans-68" x="571.533203"/>
     </g>
    </g>
    <g id="line2d_23">
     <path d="M 29.5625 50.372813 
L 39.5625 50.372813 
L 49.5625 50.372813 
" style="fill: none; stroke: #ff7f0e; stroke-width: 1.5; stroke-linecap: square"/>
    </g>
    <g id="text_20">
     <!-- sepal_width -->
     <g transform="translate(57.5625 53.872813)scale(0.1 -0.1)">
      <defs>
       <path id="DejaVuSans-77" d="M 269 3500 
L 844 3500 
L 1563 769 
L 2278 3500 
L 2956 3500 
L 3675 769 
L 4391 3500 
L 4966 3500 
L 4050 0 
L 3372 0 
L 2619 2869 
L 1863 0 
L 1184 0 
L 269 3500 
z
" transform="scale(0.015625)"/>
       <path id="DejaVuSans-64" d="M 2906 2969 
L 2906 4863 
L 3481 4863 
L 3481 0 
L 2906 0 
L 2906 525 
Q 2725 213 2448 61 
Q 2172 -91 1784 -91 
Q 1150 -91 751 415 
Q 353 922 353 1747 
Q 353 2572 751 3078 
Q 1150 3584 1784 3584 
Q 2172 3584 2448 3432 
Q 2725 3281 2906 2969 
z
M 947 1747 
Q 947 1113 1208 752 
Q 1469 391 1925 391 
Q 2381 391 2643 752 
Q 2906 1113 2906 1747 
Q 2906 2381 2643 2742 
Q 2381 3103 1925 3103 
Q 1469 3103 1208 2742 
Q 947 2381 947 1747 
z
" transform="scale(0.015625)"/>
      </defs>
      <use xlink:href="#DejaVuSans-73"/>
      <use xlink:href="#DejaVuSans-65" x="52.099609"/>
      <use xlink:href="#DejaVuSans-70" x="113.623047"/>
      <use xlink:href="#DejaVuSans-61" x="177.099609"/>
      <use xlink:href="#DejaVuSans-6c" x="238.378906"/>
      <use xlink:href="#DejaVuSans-5f" x="266.162109"/>
      <use xlink:href="#DejaVuSans-77" x="316.162109"/>
      <use xlink:href="#DejaVuSans-69" x="397.949219"/>
      <use xlink:href="#DejaVuSans-64" x="425.732422"/>
      <use xlink:href="#DejaVuSans-74" x="489.208984"/>
      <use xlink:href="#DejaVuSans-68" x="528.417969"/>
     </g>
    </g>
    <g id="line2d_24">
     <path d="M 29.5625 65.329062 
L 39.5625 65.329062 
L 49.5625 65.329062 
" style="fill: none; stroke: #2ca02c; stroke-width: 1.5; stroke-linecap: square"/>
    </g>
    <g id="text_21">
     <!-- petal_length -->
     <g transform="translate(57.5625 68.829062)scale(0.1 -0.1)">
      <use xlink:href="#DejaVuSans-70"/>
      <use xlink:href="#DejaVuSans-65" x="63.476562"/>
      <use xlink:href="#DejaVuSans-74" x="125"/>
      <use xlink:href="#DejaVuSans-61" x="164.208984"/>
      <use xlink:href="#DejaVuSans-6c" x="225.488281"/>
      <use xlink:href="#DejaVuSans-5f" x="253.271484"/>
      <use xlink:href="#DejaVuSans-6c" x="303.271484"/>
      <use xlink:href="#DejaVuSans-65" x="331.054688"/>
      <use xlink:href="#DejaVuSans-6e" x="392.578125"/>
      <use xlink:href="#DejaVuSans-67" x="455.957031"/>
      <use xlink:href="#DejaVuSans-74" x="519.433594"/>
      <use xlink:href="#DejaVuSans-68" x="558.642578"/>
     </g>
    </g>
    <g id="line2d_25">
     <path d="M 29.5625 80.285313 
L 39.5625 80.285313 
L 49.5625 80.285313 
" style="fill: none; stroke: #d62728; stroke-width: 1.5; stroke-linecap: square"/>
    </g>
    <g id="text_22">
     <!-- petal_width -->
     <g transform="translate(57.5625 83.785313)scale(0.1 -0.1)">
      <use xlink:href="#DejaVuSans-70"/>
      <use xlink:href="#DejaVuSans-65" x="63.476562"/>
      <use xlink:href="#DejaVuSans-74" x="125"/>
      <use xlink:href="#DejaVuSans-61" x="164.208984"/>
      <use xlink:href="#DejaVuSans-6c" x="225.488281"/>
      <use xlink:href="#DejaVuSans-5f" x="253.271484"/>
      <use xlink:href="#DejaVuSans-77" x="303.271484"/>
      <use xlink:href="#DejaVuSans-69" x="385.058594"/>
      <use xlink:href="#DejaVuSans-64" x="412.841797"/>
      <use xlink:href="#DejaVuSans-74" x="476.318359"/>
      <use xlink:href="#DejaVuSans-68" x="515.527344"/>
     </g>
    </g>
   </g>
  </g>
 </g>
 <defs>
  <clipPath id="p107e51df5a">
   <rect x="20.5625" y="22.318125" width="334.8" height="217.44"/>
  </clipPath>
 </defs>
</svg>
