<?xml version="1.0" encoding="utf-8" standalone="no"?>
<!DOCTYPE svg PUBLIC "-//W3C//DTD SVG 1.1//EN"
  "http://www.w3.org/Graphics/SVG/1.1/DTD/svg11.dtd">
<svg xmlns:xlink="http://www.w3.org/1999/xlink" width="231.84pt" height="231.84pt" viewBox="0 0 231.84 231.84" xmlns="http://www.w3.org/2000/svg" version="1.1">
 <metadata>
  <rdf:RDF xmlns:dc="http://purl.org/dc/elements/1.1/" xmlns:cc="http://creativecommons.org/ns#" xmlns:rdf="http://www.w3.org/1999/02/22-rdf-syntax-ns#">
   <cc:Work>
    <dc:type rdf:resource="http://purl.org/dc/dcmitype/StillImage"/>
    <dc:date>2022-02-02T16:05:33.269328</dc:date>
    <dc:format>image/svg+xml</dc:format>
    <dc:creator>
     <cc:Agent>
      <dc:title>Matplotlib v3.5.0, https://matplotlib.org/</dc:title>
     </cc:Agent>
    </dc:creator>
   </cc:Work>
  </rdf:RDF>
 </metadata>
 <defs>
  <style type="text/css">*{stroke-linejoin: round; stroke-linecap: butt}</style>
 </defs>
 <g id="figure_1">
  <g id="patch_1">
   <path d="M 0 231.84 
L 231.84 231.84 
L 231.84 0 
L 0 0 
L 0 231.84 
z
" style="fill: none"/>
  </g>
  <g id="axes_1">
   <g id="patch_2">
    <path d="M 202.896 115.92 
C 202.896 95.476577 195.688261 75.673475 182.547481 60.012905 
C 169.406702 44.352334 151.156065 33.815324 131.023223 30.265361 
L 115.92 115.92 
L 202.896 115.92 
z
" style="fill: #ef8fff"/>
   </g>
   <g id="patch_3">
    <path d="M 125.054568 23.938956 
C 111.706397 21.585313 97.991019 22.384143 85.006345 26.2715 
C 72.021672 30.158856 60.123676 37.028167 50.264791 46.329546 
C 40.405905 55.630925 32.856409 67.109377 28.220639 79.846053 
C 23.584868 92.582729 21.989912 106.228455 23.563445 119.690895 
L 109.951345 109.593595 
L 125.054568 23.938956 
z
" style="fill: #ff6347"/>
   </g>
   <g id="patch_4">
    <path d="M 29.532101 126.017299 
C 31.503925 142.88733 38.374851 158.815925 49.292519 171.827095 
C 60.210187 184.838266 74.703668 194.370778 90.975001 199.242095 
C 107.246334 204.113413 124.593662 204.113414 140.864995 199.242097 
C 157.136329 194.37078 171.62981 184.838268 182.547479 171.827099 
L 115.92 115.92 
L 29.532101 126.017299 
z
" style="fill: #b0e0e6"/>
   </g>
   <g id="patch_5">
    <path d="M 182.547479 171.827099 
C 186.88909 166.652968 190.613245 160.990667 193.644591 154.954761 
C 196.675936 148.918856 198.99389 142.550333 200.55155 135.97805 
L 115.92 115.92 
L 182.547479 171.827099 
z
" style="fill: #7b68ee"/>
   </g>
   <g id="patch_6">
    <path d="M 200.55155 135.97805 
C 201.329722 132.694682 201.916164 129.368809 202.307899 126.017301 
C 202.699634 122.665794 202.896 119.294328 202.896 115.920004 
L 115.92 115.92 
L 200.55155 135.97805 
z
" style="fill: #483d8b"/>
   </g>
   <g id="matplotlib.axis_1"/>
   <g id="matplotlib.axis_2"/>
   <g id="text_1">
    <!-- A -->
    <g transform="translate(189.210229 57.18157)scale(0.1 -0.1)">
     <defs>
      <path id="DejaVuSans-41" d="M 2188 4044 
L 1331 1722 
L 3047 1722 
L 2188 4044 
z
M 1831 4666 
L 2547 4666 
L 4325 0 
L 3669 0 
L 3244 1197 
L 1141 1197 
L 716 0 
L 50 0 
L 1831 4666 
z
" transform="scale(0.015625)"/>
     </defs>
     <use xlink:href="#DejaVuSans-41"/>
    </g>
   </g>
   <g id="text_2">
    <!-- B -->
    <g transform="translate(37.435198 42.762516)scale(0.1 -0.1)">
     <defs>
      <path id="DejaVuSans-42" d="M 1259 2228 
L 1259 519 
L 2272 519 
Q 2781 519 3026 730 
Q 3272 941 3272 1375 
Q 3272 1813 3026 2020 
Q 2781 2228 2272 2228 
L 1259 2228 
z
M 1259 4147 
L 1259 2741 
L 2194 2741 
Q 2656 2741 2882 2914 
Q 3109 3088 3109 3444 
Q 3109 3797 2882 3972 
Q 2656 4147 2194 4147 
L 1259 4147 
z
M 628 4666 
L 2241 4666 
Q 2963 4666 3353 4366 
Q 3744 4066 3744 3513 
Q 3744 3084 3544 2831 
Q 3344 2578 2956 2516 
Q 3422 2416 3680 2098 
Q 3938 1781 3938 1306 
Q 3938 681 3513 340 
Q 3088 0 2303 0 
L 628 0 
L 628 4666 
z
" transform="scale(0.015625)"/>
     </defs>
     <use xlink:href="#DejaVuSans-42"/>
    </g>
   </g>
   <g id="text_3">
    <!-- C -->
    <g transform="translate(81.497688 210.33368)scale(0.1 -0.1)">
     <defs>
      <path id="DejaVuSans-43" d="M 4122 4306 
L 4122 3641 
Q 3803 3938 3442 4084 
Q 3081 4231 2675 4231 
Q 1875 4231 1450 3742 
Q 1025 3253 1025 2328 
Q 1025 1406 1450 917 
Q 1875 428 2675 428 
Q 3081 428 3442 575 
Q 3803 722 4122 1019 
L 4122 359 
Q 3791 134 3420 21 
Q 3050 -91 2638 -91 
Q 1578 -91 968 557 
Q 359 1206 359 2328 
Q 359 3453 968 4101 
Q 1578 4750 2638 4750 
Q 3056 4750 3426 4639 
Q 3797 4528 4122 4306 
z
" transform="scale(0.015625)"/>
     </defs>
     <use xlink:href="#DejaVuSans-43"/>
    </g>
   </g>
   <g id="text_4">
    <!-- D -->
    <g transform="translate(201.41705 161.617613)scale(0.1 -0.1)">
     <defs>
      <path id="DejaVuSans-44" d="M 1259 4147 
L 1259 519 
L 2022 519 
Q 2988 519 3436 956 
Q 3884 1394 3884 2338 
Q 3884 3275 3436 3711 
Q 2988 4147 2022 4147 
L 1259 4147 
z
M 628 4666 
L 1925 4666 
Q 3281 4666 3915 4102 
Q 4550 3538 4550 2338 
Q 4550 1131 3912 565 
Q 3275 0 1925 0 
L 628 0 
L 628 4666 
z
" transform="scale(0.015625)"/>
     </defs>
     <use xlink:href="#DejaVuSans-44"/>
    </g>
   </g>
   <g id="text_5">
    <!-- E -->
    <g transform="translate(210.946689 129.786407)scale(0.1 -0.1)">
     <defs>
      <path id="DejaVuSans-45" d="M 628 4666 
L 3578 4666 
L 3578 4134 
L 1259 4134 
L 1259 2753 
L 3481 2753 
L 3481 2222 
L 1259 2222 
L 1259 531 
L 3634 531 
L 3634 0 
L 628 0 
L 628 4666 
z
" transform="scale(0.015625)"/>
     </defs>
     <use xlink:href="#DejaVuSans-45"/>
    </g>
   </g>
  </g>
 </g>
</svg>
