<?xml version="1.0" encoding="utf-8" standalone="no"?>
<!DOCTYPE svg PUBLIC "-//W3C//DTD SVG 1.1//EN"
  "http://www.w3.org/Graphics/SVG/1.1/DTD/svg11.dtd">
<svg xmlns:xlink="http://www.w3.org/1999/xlink" width="268.98046pt" height="233.696635pt" viewBox="0 0 268.98046 233.696635" xmlns="http://www.w3.org/2000/svg" version="1.1">
 <metadata>
  <rdf:RDF xmlns:dc="http://purl.org/dc/elements/1.1/" xmlns:cc="http://creativecommons.org/ns#" xmlns:rdf="http://www.w3.org/1999/02/22-rdf-syntax-ns#">
   <cc:Work>
    <dc:type rdf:resource="http://purl.org/dc/dcmitype/StillImage"/>
    <dc:date>2022-02-02T16:10:25.152443</dc:date>
    <dc:format>image/svg+xml</dc:format>
    <dc:creator>
     <cc:Agent>
      <dc:title>Matplotlib v3.5.0, https://matplotlib.org/</dc:title>
     </cc:Agent>
    </dc:creator>
   </cc:Work>
  </rdf:RDF>
 </metadata>
 <defs>
  <style type="text/css">*{stroke-linejoin: round; stroke-linecap: butt}</style>
 </defs>
 <g id="figure_1">
  <g id="patch_1">
   <path d="M 0 233.696635 
L 268.98046 233.696635 
L 268.98046 0 
L 0 0 
L 0 233.696635 
z
" style="fill: none"/>
  </g>
  <g id="axes_1">
   <g id="patch_2">
    <path d="M 185.013777 175.754761 
C 177.123678 175.805965 169.300814 174.296027 161.99655 171.312069 
C 154.692286 168.328111 148.049859 163.928648 142.452525 158.367521 
C 136.855192 152.806394 132.412715 146.192657 129.381419 138.907911 
C 126.350122 131.623166 124.78945 123.810265 124.78945 115.92 
C 124.78945 108.029735 126.350122 100.216834 129.381419 92.932089 
C 132.412715 85.647343 136.855192 79.033606 142.452525 73.472479 
C 148.049859 67.911352 154.692286 63.511889 161.99655 60.527931 
C 169.300814 57.543973 177.123678 56.034035 185.013777 56.085239 
C 178.949186 49.082194 171.854992 43.041696 163.9747 38.17108 
C 156.094407 33.300465 147.51922 29.656103 138.543476 27.363086 
C 129.567732 25.070069 120.295315 24.154935 111.044493 24.649095 
C 101.79367 25.143255 92.671511 27.040991 83.991125 30.277163 
C 75.310739 33.513335 67.172592 38.050489 59.856021 43.73289 
C 52.539449 49.415291 46.129133 56.177173 40.845101 63.786438 
C 35.56107 71.395704 31.46448 79.764285 28.695944 88.604936 
C 25.927408 97.445587 24.518968 106.655989 24.518968 115.92 
C 24.518968 125.184011 25.927408 134.394413 28.695944 143.235064 
C 31.46448 152.075715 35.56107 160.444296 40.845101 168.053562 
C 46.129133 175.662827 52.539449 182.424709 59.856021 188.10711 
C 67.172592 193.789511 75.310739 198.326665 83.991125 201.562837 
C 92.671511 204.799009 101.79367 206.696745 111.044493 207.190905 
C 120.295315 207.685065 129.567732 206.769931 138.543476 204.476914 
C 147.51922 202.183897 156.094407 198.539535 163.9747 193.66892 
C 171.854992 188.798304 178.949186 182.757806 185.013777 175.754761 
" clip-path="url(#pf908b3c312)" style="fill: #ff0000; opacity: 0.5"/>
   </g>
   <g id="patch_3">
    <path d="M 185.013777 56.085239 
C 199.397856 72.695154 207.321032 93.947494 207.321032 115.92 
C 207.321032 137.892506 199.397856 159.144846 185.013777 175.754761 
C 200.809717 175.652251 215.939643 169.298781 227.072992 158.092946 
C 238.206342 146.887111 244.461492 131.716272 244.461492 115.92 
C 244.461492 100.123728 238.206342 84.952889 227.072992 73.747054 
C 215.939643 62.541219 200.809717 56.187749 185.013777 56.085239 
" clip-path="url(#pf908b3c312)" style="fill: #008000; opacity: 0.5"/>
   </g>
   <g id="patch_4">
    <path d="M 185.013777 175.754761 
C 199.397856 159.144846 207.321032 137.892506 207.321032 115.92 
C 207.321032 93.947494 199.397856 72.695154 185.013777 56.085239 
C 177.123678 56.034035 169.300814 57.543973 161.99655 60.527931 
C 154.692286 63.511889 148.049859 67.911352 142.452525 73.472479 
C 136.855192 79.033606 132.412715 85.647343 129.381419 92.932089 
C 126.350122 100.216834 124.78945 108.029735 124.78945 115.92 
C 124.78945 123.810265 126.350122 131.623166 129.381419 138.907911 
C 132.412715 146.192657 136.855192 152.806394 142.452525 158.367521 
C 148.049859 163.928648 154.692286 168.328111 161.99655 171.312069 
C 169.300814 174.296027 177.123678 175.805965 185.013777 175.754761 
" clip-path="url(#pf908b3c312)" style="fill: #b25900; opacity: 0.5"/>
   </g>
   <g id="text_1">
    <!-- 50 -->
    <g transform="translate(68.291709 118.679375)scale(0.1 -0.1)">
     <defs>
      <path id="DejaVuSans-35" d="M 691 4666 
L 3169 4666 
L 3169 4134 
L 1269 4134 
L 1269 2991 
Q 1406 3038 1543 3061 
Q 1681 3084 1819 3084 
Q 2600 3084 3056 2656 
Q 3513 2228 3513 1497 
Q 3513 744 3044 326 
Q 2575 -91 1722 -91 
Q 1428 -91 1123 -41 
Q 819 9 494 109 
L 494 744 
Q 775 591 1075 516 
Q 1375 441 1709 441 
Q 2250 441 2565 725 
Q 2881 1009 2881 1497 
Q 2881 1984 2565 2268 
Q 2250 2553 1709 2553 
Q 1456 2553 1204 2497 
Q 953 2441 691 2322 
L 691 4666 
z
" transform="scale(0.015625)"/>
      <path id="DejaVuSans-30" d="M 2034 4250 
Q 1547 4250 1301 3770 
Q 1056 3291 1056 2328 
Q 1056 1369 1301 889 
Q 1547 409 2034 409 
Q 2525 409 2770 889 
Q 3016 1369 3016 2328 
Q 3016 3291 2770 3770 
Q 2525 4250 2034 4250 
z
M 2034 4750 
Q 2819 4750 3233 4129 
Q 3647 3509 3647 2328 
Q 3647 1150 3233 529 
Q 2819 -91 2034 -91 
Q 1250 -91 836 529 
Q 422 1150 422 2328 
Q 422 3509 836 4129 
Q 1250 4750 2034 4750 
z
" transform="scale(0.015625)"/>
     </defs>
     <use xlink:href="#DejaVuSans-35"/>
     <use xlink:href="#DejaVuSans-30" x="63.623047"/>
    </g>
   </g>
   <g id="text_2">
    <!-- 10 -->
    <g transform="translate(219.528762 118.679375)scale(0.1 -0.1)">
     <defs>
      <path id="DejaVuSans-31" d="M 794 531 
L 1825 531 
L 1825 4091 
L 703 3866 
L 703 4441 
L 1819 4666 
L 2450 4666 
L 2450 531 
L 3481 531 
L 3481 0 
L 794 0 
L 794 531 
z
" transform="scale(0.015625)"/>
     </defs>
     <use xlink:href="#DejaVuSans-31"/>
     <use xlink:href="#DejaVuSans-30" x="63.623047"/>
    </g>
   </g>
   <g id="text_3">
    <!-- 20 -->
    <g transform="translate(159.692741 118.679375)scale(0.1 -0.1)">
     <defs>
      <path id="DejaVuSans-32" d="M 1228 531 
L 3431 531 
L 3431 0 
L 469 0 
L 469 531 
Q 828 903 1448 1529 
Q 2069 2156 2228 2338 
Q 2531 2678 2651 2914 
Q 2772 3150 2772 3378 
Q 2772 3750 2511 3984 
Q 2250 4219 1831 4219 
Q 1534 4219 1204 4116 
Q 875 4013 500 3803 
L 500 4441 
Q 881 4594 1212 4672 
Q 1544 4750 1819 4750 
Q 2544 4750 2975 4387 
Q 3406 4025 3406 3419 
Q 3406 3131 3298 2873 
Q 3191 2616 2906 2266 
Q 2828 2175 2409 1742 
Q 1991 1309 1228 531 
z
" transform="scale(0.015625)"/>
     </defs>
     <use xlink:href="#DejaVuSans-32"/>
     <use xlink:href="#DejaVuSans-30" x="63.623047"/>
    </g>
   </g>
   <g id="text_4">
    <!-- A -->
    <g transform="translate(107.71125 224.00101)scale(0.12 -0.12)">
     <defs>
      <path id="DejaVuSans-41" d="M 2188 4044 
L 1331 1722 
L 3047 1722 
L 2188 4044 
z
M 1831 4666 
L 2547 4666 
L 4325 0 
L 3669 0 
L 3244 1197 
L 1141 1197 
L 716 0 
L 50 0 
L 1831 4666 
z
" transform="scale(0.015625)"/>
     </defs>
     <use xlink:href="#DejaVuSans-41"/>
    </g>
   </g>
   <g id="text_5">
    <!-- B -->
    <g transform="translate(184.625471 192.435999)scale(0.12 -0.12)">
     <defs>
      <path id="DejaVuSans-42" d="M 1259 2228 
L 1259 519 
L 2272 519 
Q 2781 519 3026 730 
Q 3272 941 3272 1375 
Q 3272 1813 3026 2020 
Q 2781 2228 2272 2228 
L 1259 2228 
z
M 1259 4147 
L 1259 2741 
L 2194 2741 
Q 2656 2741 2882 2914 
Q 3109 3088 3109 3444 
Q 3109 3797 2882 3972 
Q 2656 4147 2194 4147 
L 1259 4147 
z
M 628 4666 
L 2241 4666 
Q 2963 4666 3353 4366 
Q 3744 4066 3744 3513 
Q 3744 3084 3544 2831 
Q 3344 2578 2956 2516 
Q 3422 2416 3680 2098 
Q 3938 1781 3938 1306 
Q 3938 681 3513 340 
Q 3088 0 2303 0 
L 628 0 
L 628 4666 
z
" transform="scale(0.015625)"/>
     </defs>
     <use xlink:href="#DejaVuSans-42"/>
    </g>
   </g>
  </g>
 </g>
 <defs>
  <clipPath id="pf908b3c312">
   <rect x="7.2" y="7.2" width="254.58046" height="217.44"/>
  </clipPath>
 </defs>
</svg>
