<?xml version="1.0" encoding="utf-8" standalone="no"?>
<!DOCTYPE svg PUBLIC "-//W3C//DTD SVG 1.1//EN"
  "http://www.w3.org/Graphics/SVG/1.1/DTD/svg11.dtd">
<svg xmlns:xlink="http://www.w3.org/1999/xlink" width="376.51875pt" height="262.19625pt" viewBox="0 0 376.51875 262.19625" xmlns="http://www.w3.org/2000/svg" version="1.1">
 <metadata>
  <rdf:RDF xmlns:dc="http://purl.org/dc/elements/1.1/" xmlns:cc="http://creativecommons.org/ns#" xmlns:rdf="http://www.w3.org/1999/02/22-rdf-syntax-ns#">
   <cc:Work>
    <dc:type rdf:resource="http://purl.org/dc/dcmitype/StillImage"/>
    <dc:date>2022-02-02T16:11:01.155354</dc:date>
    <dc:format>image/svg+xml</dc:format>
    <dc:creator>
     <cc:Agent>
      <dc:title>Matplotlib v3.5.0, https://matplotlib.org/</dc:title>
     </cc:Agent>
    </dc:creator>
   </cc:Work>
  </rdf:RDF>
 </metadata>
 <defs>
  <style type="text/css">*{stroke-linejoin: round; stroke-linecap: butt}</style>
 </defs>
 <g id="figure_1">
  <g id="patch_1">
   <path d="M 0 262.19625 
L 376.51875 262.19625 
L 376.51875 0 
L 0 0 
L 0 262.19625 
z
" style="fill: none"/>
  </g>
  <g id="axes_1">
   <g id="patch_2">
    <path d="M 34.51875 224.64 
L 369.31875 224.64 
L 369.31875 7.2 
L 34.51875 7.2 
z
" style="fill: #ffffff"/>
   </g>
   <g id="PolyCollection_1">
    <defs>
     <path id="m846efa317c" d="M 90.582207 -47.439886 
L 90.055293 -47.439886 
L 89.961079 -47.810233 
L 89.843909 -48.180579 
L 89.702073 -48.550926 
L 89.534969 -48.921272 
L 89.343354 -49.291619 
L 89.129478 -49.661965 
L 88.897031 -50.032312 
L 88.650905 -50.402658 
L 88.396741 -50.773005 
L 88.140335 -51.143351 
L 87.886953 -51.513698 
L 87.640645 -51.884044 
L 87.40365 -52.254391 
L 87.175956 -52.624737 
L 86.955068 -52.995084 
L 86.735981 -53.365431 
L 86.511324 -53.735777 
L 86.271643 -54.106124 
L 86.00575 -54.47647 
L 85.701082 -54.846817 
L 85.344073 -55.217163 
L 84.92049 -55.58751 
L 84.415811 -55.957856 
L 83.815637 -56.328203 
L 83.106217 -56.698549 
L 82.275085 -57.068896 
L 81.311813 -57.439242 
L 80.208821 -57.809589 
L 78.96215 -58.179935 
L 77.572072 -58.550282 
L 76.043423 -58.920628 
L 74.385576 -59.290975 
L 72.612025 -59.661321 
L 70.739673 -60.031668 
L 68.787938 -60.402014 
L 66.777869 -60.772361 
L 64.731436 -61.142707 
L 62.671101 -61.513054 
L 60.619676 -61.8834 
L 58.600408 -62.253747 
L 56.637148 -62.624093 
L 54.754492 -62.99444 
L 52.977793 -63.364786 
L 51.33304 -63.735133 
L 49.846624 -64.105479 
L 48.545039 -64.475826 
L 47.4545 -64.846172 
L 46.600409 -65.216519 
L 46.006544 -65.586865 
L 45.693844 -65.957212 
L 45.67875 -66.327558 
L 45.971233 -66.697905 
L 46.572791 -67.068251 
L 47.474839 -67.438598 
L 48.657914 -67.808944 
L 50.092047 -68.179291 
L 51.738391 -68.549637 
L 53.551972 -68.919984 
L 55.485163 -69.29033 
L 57.491354 -69.660677 
L 59.528272 -70.031023 
L 61.560494 -70.40137 
L 63.560875 -70.771716 
L 65.510833 -71.142063 
L 67.399578 -71.512409 
L 69.222513 -71.882756 
L 70.979104 -72.253103 
L 72.670518 -72.623449 
L 74.297361 -72.993796 
L 75.857783 -73.364142 
L 77.34621 -73.734489 
L 78.752896 -74.104835 
L 80.064381 -74.475182 
L 81.264825 -74.845528 
L 82.338055 -75.215875 
L 83.270022 -75.586221 
L 84.051296 -75.956568 
L 84.679174 -76.326914 
L 85.159037 -76.697261 
L 85.504713 -77.067607 
L 85.737724 -77.437954 
L 85.885508 -77.8083 
L 85.97886 -78.178647 
L 86.048936 -78.548993 
L 86.124256 -78.91934 
L 86.22811 -79.289686 
L 86.376702 -79.660033 
L 86.578248 -80.030379 
L 86.833076 -80.400726 
L 87.134632 -80.771072 
L 87.471172 -81.141419 
L 87.827838 -81.511765 
L 88.188788 -81.882112 
L 88.539098 -82.252458 
L 88.866219 -82.622805 
L 89.160882 -82.993151 
L 89.417427 -83.363498 
L 89.633656 -83.733844 
L 89.810305 -84.104191 
L 90.827195 -84.104191 
L 90.827195 -84.104191 
L 91.003844 -83.733844 
L 91.220073 -83.363498 
L 91.476618 -82.993151 
L 91.771281 -82.622805 
L 92.098402 -82.252458 
L 92.448712 -81.882112 
L 92.809662 -81.511765 
L 93.166328 -81.141419 
L 93.502868 -80.771072 
L 93.804424 -80.400726 
L 94.059252 -80.030379 
L 94.260798 -79.660033 
L 94.40939 -79.289686 
L 94.513244 -78.91934 
L 94.588564 -78.548993 
L 94.65864 -78.178647 
L 94.751992 -77.8083 
L 94.899776 -77.437954 
L 95.132787 -77.067607 
L 95.478463 -76.697261 
L 95.958326 -76.326914 
L 96.586204 -75.956568 
L 97.367478 -75.586221 
L 98.299445 -75.215875 
L 99.372675 -74.845528 
L 100.573119 -74.475182 
L 101.884604 -74.104835 
L 103.29129 -73.734489 
L 104.779717 -73.364142 
L 106.340139 -72.993796 
L 107.966982 -72.623449 
L 109.658396 -72.253103 
L 111.414987 -71.882756 
L 113.237922 -71.512409 
L 115.126667 -71.142063 
L 117.076625 -70.771716 
L 119.077006 -70.40137 
L 121.109228 -70.031023 
L 123.146146 -69.660677 
L 125.152337 -69.29033 
L 127.085528 -68.919984 
L 128.899109 -68.549637 
L 130.545453 -68.179291 
L 131.979586 -67.808944 
L 133.162661 -67.438598 
L 134.064709 -67.068251 
L 134.666267 -66.697905 
L 134.95875 -66.327558 
L 134.943656 -65.957212 
L 134.630956 -65.586865 
L 134.037091 -65.216519 
L 133.183 -64.846172 
L 132.092461 -64.475826 
L 130.790876 -64.105479 
L 129.30446 -63.735133 
L 127.659707 -63.364786 
L 125.883008 -62.99444 
L 124.000352 -62.624093 
L 122.037092 -62.253747 
L 120.017824 -61.8834 
L 117.966399 -61.513054 
L 115.906064 -61.142707 
L 113.859631 -60.772361 
L 111.849562 -60.402014 
L 109.897827 -60.031668 
L 108.025475 -59.661321 
L 106.251924 -59.290975 
L 104.594077 -58.920628 
L 103.065428 -58.550282 
L 101.67535 -58.179935 
L 100.428679 -57.809589 
L 99.325687 -57.439242 
L 98.362415 -57.068896 
L 97.531283 -56.698549 
L 96.821863 -56.328203 
L 96.221689 -55.957856 
L 95.71701 -55.58751 
L 95.293427 -55.217163 
L 94.936418 -54.846817 
L 94.63175 -54.47647 
L 94.365857 -54.106124 
L 94.126176 -53.735777 
L 93.901519 -53.365431 
L 93.682432 -52.995084 
L 93.461544 -52.624737 
L 93.23385 -52.254391 
L 92.996855 -51.884044 
L 92.750547 -51.513698 
L 92.497165 -51.143351 
L 92.240759 -50.773005 
L 91.986595 -50.402658 
L 91.740469 -50.032312 
L 91.508022 -49.661965 
L 91.294146 -49.291619 
L 91.102531 -48.921272 
L 90.935427 -48.550926 
L 90.793591 -48.180579 
L 90.676421 -47.810233 
L 90.582207 -47.439886 
z
" style="stroke: #3d3d3d; stroke-width: 1.5"/>
    </defs>
    <g clip-path="url(#p0844e5cfd0)">
     <use xlink:href="#m846efa317c" x="0" y="262.19625" style="fill: #3274a1; stroke: #3d3d3d; stroke-width: 1.5"/>
    </g>
   </g>
   <g id="PolyCollection_2">
    <defs>
     <path id="m91e8711914" d="M 202.017037 -99.509697 
L 201.820463 -99.509697 
L 201.788903 -100.410038 
L 201.750145 -101.31038 
L 201.703477 -102.210721 
L 201.648351 -103.111062 
L 201.584427 -104.011404 
L 201.511593 -104.911745 
L 201.429955 -105.812086 
L 201.339811 -106.712428 
L 201.241583 -107.612769 
L 201.135742 -108.51311 
L 201.022726 -109.413452 
L 200.902861 -110.313793 
L 200.776318 -111.214134 
L 200.643094 -112.114476 
L 200.503052 -113.014817 
L 200.355989 -113.915158 
L 200.20174 -114.8155 
L 200.040293 -115.715841 
L 199.871897 -116.616182 
L 199.697132 -117.516524 
L 199.516931 -118.416865 
L 199.332532 -119.317207 
L 199.145366 -120.217548 
L 198.956876 -121.117889 
L 198.768295 -122.018231 
L 198.580391 -122.918572 
L 198.393224 -123.818913 
L 198.205925 -124.719255 
L 198.01655 -125.619596 
L 197.822012 -126.519937 
L 197.618136 -127.420279 
L 197.39984 -128.32062 
L 197.16144 -129.220961 
L 196.897093 -130.121303 
L 196.601317 -131.021644 
L 196.269581 -131.921985 
L 195.898886 -132.822327 
L 195.488275 -133.722668 
L 195.03921 -134.623009 
L 194.555745 -135.523351 
L 194.04446 -136.423692 
L 193.514122 -137.324034 
L 192.975107 -138.224375 
L 192.438603 -139.124716 
L 191.915693 -140.025058 
L 191.416411 -140.925399 
L 190.948869 -141.82574 
L 190.518583 -142.726082 
L 190.128069 -143.626423 
L 189.776777 -144.526764 
L 189.461381 -145.427106 
L 189.176393 -146.327447 
L 188.915043 -147.227788 
L 188.670329 -148.12813 
L 188.436095 -149.028471 
L 188.208027 -149.928812 
L 187.984445 -150.829154 
L 187.766782 -151.729495 
L 187.559708 -152.629836 
L 187.370878 -153.530178 
L 187.210341 -154.430519 
L 187.089671 -155.330861 
L 187.020942 -156.231202 
L 187.015647 -157.131543 
L 187.083691 -158.031885 
L 187.232547 -158.932226 
L 187.466664 -159.832567 
L 187.787155 -160.732909 
L 188.191775 -161.63325 
L 188.67516 -162.533591 
L 189.22928 -163.433933 
L 189.844035 -164.334274 
L 190.507925 -165.234615 
L 191.208735 -166.134957 
L 191.934164 -167.035298 
L 192.67237 -167.935639 
L 193.412391 -168.835981 
L 194.144445 -169.736322 
L 194.860092 -170.636663 
L 195.552293 -171.537005 
L 196.215364 -172.437346 
L 196.844873 -173.337688 
L 197.437495 -174.238029 
L 197.990852 -175.13837 
L 198.503364 -176.038712 
L 198.974124 -176.939053 
L 199.402807 -177.839394 
L 199.789608 -178.739736 
L 200.135208 -179.640077 
L 200.440754 -180.540418 
L 200.707846 -181.44076 
L 200.938508 -182.341101 
L 201.135156 -183.241442 
L 201.300531 -184.141784 
L 201.437626 -185.042125 
L 201.549584 -185.942466 
L 201.639601 -186.842808 
L 201.710821 -187.743149 
L 201.766243 -188.64349 
L 202.071257 -188.64349 
L 202.071257 -188.64349 
L 202.126679 -187.743149 
L 202.197899 -186.842808 
L 202.287916 -185.942466 
L 202.399874 -185.042125 
L 202.536969 -184.141784 
L 202.702344 -183.241442 
L 202.898992 -182.341101 
L 203.129654 -181.44076 
L 203.396746 -180.540418 
L 203.702292 -179.640077 
L 204.047892 -178.739736 
L 204.434693 -177.839394 
L 204.863376 -176.939053 
L 205.334136 -176.038712 
L 205.846648 -175.13837 
L 206.400005 -174.238029 
L 206.992627 -173.337688 
L 207.622136 -172.437346 
L 208.285207 -171.537005 
L 208.977408 -170.636663 
L 209.693055 -169.736322 
L 210.425109 -168.835981 
L 211.16513 -167.935639 
L 211.903336 -167.035298 
L 212.628765 -166.134957 
L 213.329575 -165.234615 
L 213.993465 -164.334274 
L 214.60822 -163.433933 
L 215.16234 -162.533591 
L 215.645725 -161.63325 
L 216.050345 -160.732909 
L 216.370836 -159.832567 
L 216.604953 -158.932226 
L 216.753809 -158.031885 
L 216.821853 -157.131543 
L 216.816558 -156.231202 
L 216.747829 -155.330861 
L 216.627159 -154.430519 
L 216.466622 -153.530178 
L 216.277792 -152.629836 
L 216.070718 -151.729495 
L 215.853055 -150.829154 
L 215.629473 -149.928812 
L 215.401405 -149.028471 
L 215.167171 -148.12813 
L 214.922457 -147.227788 
L 214.661107 -146.327447 
L 214.376119 -145.427106 
L 214.060723 -144.526764 
L 213.709431 -143.626423 
L 213.318917 -142.726082 
L 212.888631 -141.82574 
L 212.421089 -140.925399 
L 211.921807 -140.025058 
L 211.398897 -139.124716 
L 210.862393 -138.224375 
L 210.323378 -137.324034 
L 209.79304 -136.423692 
L 209.281755 -135.523351 
L 208.79829 -134.623009 
L 208.349225 -133.722668 
L 207.938614 -132.822327 
L 207.567919 -131.921985 
L 207.236183 -131.021644 
L 206.940407 -130.121303 
L 206.67606 -129.220961 
L 206.43766 -128.32062 
L 206.219364 -127.420279 
L 206.015488 -126.519937 
L 205.82095 -125.619596 
L 205.631575 -124.719255 
L 205.444276 -123.818913 
L 205.257109 -122.918572 
L 205.069205 -122.018231 
L 204.880624 -121.117889 
L 204.692134 -120.217548 
L 204.504968 -119.317207 
L 204.320569 -118.416865 
L 204.140368 -117.516524 
L 203.965603 -116.616182 
L 203.797207 -115.715841 
L 203.63576 -114.8155 
L 203.481511 -113.915158 
L 203.334448 -113.014817 
L 203.194406 -112.114476 
L 203.061182 -111.214134 
L 202.934639 -110.313793 
L 202.814774 -109.413452 
L 202.701758 -108.51311 
L 202.595917 -107.612769 
L 202.497689 -106.712428 
L 202.407545 -105.812086 
L 202.325907 -104.911745 
L 202.253073 -104.011404 
L 202.189149 -103.111062 
L 202.134023 -102.210721 
L 202.087355 -101.31038 
L 202.048597 -100.410038 
L 202.017037 -99.509697 
z
" style="stroke: #3d3d3d; stroke-width: 1.5"/>
    </defs>
    <g clip-path="url(#p0844e5cfd0)">
     <use xlink:href="#m91e8711914" x="0" y="262.19625" style="fill: #e1812c; stroke: #3d3d3d; stroke-width: 1.5"/>
    </g>
   </g>
   <g id="PolyCollection_3">
    <defs>
     <path id="mf6951390fc" d="M 313.609756 -142.427124 
L 313.427744 -142.427124 
L 313.397307 -143.464351 
L 313.358943 -144.501579 
L 313.311225 -145.538806 
L 313.252577 -146.576033 
L 313.181252 -147.61326 
L 313.095293 -148.650487 
L 312.992478 -149.687714 
L 312.870274 -150.724942 
L 312.725773 -151.762169 
L 312.555671 -152.799396 
L 312.356269 -153.836623 
L 312.123543 -154.87385 
L 311.853288 -155.911077 
L 311.541351 -156.948305 
L 311.183956 -157.985532 
L 310.778106 -159.022759 
L 310.322037 -160.059986 
L 309.815685 -161.097213 
L 309.261116 -162.13444 
L 308.662848 -163.171668 
L 308.028037 -164.208895 
L 307.366441 -165.246122 
L 306.690164 -166.283349 
L 306.013145 -167.320576 
L 305.350423 -168.357803 
L 304.717219 -169.395031 
L 304.127909 -170.432258 
L 303.594984 -171.469485 
L 303.128094 -172.506712 
L 302.733305 -173.543939 
L 302.412633 -174.581166 
L 302.163953 -175.618394 
L 301.981288 -176.655621 
L 301.855481 -177.692848 
L 301.775181 -178.730075 
L 301.728045 -179.767302 
L 301.702023 -180.804529 
L 301.686584 -181.841757 
L 301.673742 -182.878984 
L 301.65876 -183.916211 
L 301.640477 -184.953438 
L 301.621207 -185.990665 
L 301.60626 -187.027892 
L 301.603149 -188.06512 
L 301.620606 -189.102347 
L 301.667525 -190.139574 
L 301.751974 -191.176801 
L 301.88038 -192.214028 
L 302.056965 -193.251255 
L 302.283476 -194.288483 
L 302.559189 -195.32571 
L 302.881162 -196.362937 
L 303.244646 -197.400164 
L 303.64359 -198.437391 
L 304.07115 -199.474618 
L 304.520142 -200.511846 
L 304.983394 -201.549073 
L 305.453984 -202.5863 
L 305.925367 -203.623527 
L 306.391422 -204.660754 
L 306.846454 -205.697981 
L 307.285195 -206.735209 
L 307.702822 -207.772436 
L 308.095025 -208.809663 
L 308.458126 -209.84689 
L 308.789234 -210.884117 
L 309.086418 -211.921344 
L 309.348874 -212.958572 
L 309.577043 -213.995799 
L 309.772675 -215.033026 
L 309.938789 -216.070253 
L 310.079551 -217.10748 
L 310.200049 -218.144707 
L 310.305997 -219.181935 
L 310.403371 -220.219162 
L 310.498028 -221.256389 
L 310.595333 -222.293616 
L 310.699819 -223.330843 
L 310.81493 -224.36807 
L 310.942841 -225.405298 
L 311.0844 -226.442525 
L 311.239159 -227.479752 
L 311.405508 -228.516979 
L 311.580888 -229.554206 
L 311.762052 -230.591433 
L 311.945357 -231.62866 
L 312.127051 -232.665888 
L 312.303537 -233.703115 
L 312.471595 -234.740342 
L 312.628546 -235.777569 
L 312.772355 -236.814796 
L 312.901677 -237.852023 
L 313.015843 -238.889251 
L 313.114807 -239.926478 
L 313.199056 -240.963705 
L 313.269501 -242.000932 
L 313.327359 -243.038159 
L 313.374037 -244.075386 
L 313.41103 -245.112614 
L 313.62647 -245.112614 
L 313.62647 -245.112614 
L 313.663463 -244.075386 
L 313.710141 -243.038159 
L 313.767999 -242.000932 
L 313.838444 -240.963705 
L 313.922693 -239.926478 
L 314.021657 -238.889251 
L 314.135823 -237.852023 
L 314.265145 -236.814796 
L 314.408954 -235.777569 
L 314.565905 -234.740342 
L 314.733963 -233.703115 
L 314.910449 -232.665888 
L 315.092143 -231.62866 
L 315.275448 -230.591433 
L 315.456612 -229.554206 
L 315.631992 -228.516979 
L 315.798341 -227.479752 
L 315.9531 -226.442525 
L 316.094659 -225.405298 
L 316.22257 -224.36807 
L 316.337681 -223.330843 
L 316.442167 -222.293616 
L 316.539472 -221.256389 
L 316.634129 -220.219162 
L 316.731503 -219.181935 
L 316.837451 -218.144707 
L 316.957949 -217.10748 
L 317.098711 -216.070253 
L 317.264825 -215.033026 
L 317.460457 -213.995799 
L 317.688626 -212.958572 
L 317.951082 -211.921344 
L 318.248266 -210.884117 
L 318.579374 -209.84689 
L 318.942475 -208.809663 
L 319.334678 -207.772436 
L 319.752305 -206.735209 
L 320.191046 -205.697981 
L 320.646078 -204.660754 
L 321.112133 -203.623527 
L 321.583516 -202.5863 
L 322.054106 -201.549073 
L 322.517358 -200.511846 
L 322.96635 -199.474618 
L 323.39391 -198.437391 
L 323.792854 -197.400164 
L 324.156338 -196.362937 
L 324.478311 -195.32571 
L 324.754024 -194.288483 
L 324.980535 -193.251255 
L 325.15712 -192.214028 
L 325.285526 -191.176801 
L 325.369975 -190.139574 
L 325.416894 -189.102347 
L 325.434351 -188.06512 
L 325.43124 -187.027892 
L 325.416293 -185.990665 
L 325.397023 -184.953438 
L 325.37874 -183.916211 
L 325.363758 -182.878984 
L 325.350916 -181.841757 
L 325.335477 -180.804529 
L 325.309455 -179.767302 
L 325.262319 -178.730075 
L 325.182019 -177.692848 
L 325.056212 -176.655621 
L 324.873547 -175.618394 
L 324.624867 -174.581166 
L 324.304195 -173.543939 
L 323.909406 -172.506712 
L 323.442516 -171.469485 
L 322.909591 -170.432258 
L 322.320281 -169.395031 
L 321.687077 -168.357803 
L 321.024355 -167.320576 
L 320.347336 -166.283349 
L 319.671059 -165.246122 
L 319.009463 -164.208895 
L 318.374652 -163.171668 
L 317.776384 -162.13444 
L 317.221815 -161.097213 
L 316.715463 -160.059986 
L 316.259394 -159.022759 
L 315.853544 -157.985532 
L 315.496149 -156.948305 
L 315.184212 -155.911077 
L 314.913957 -154.87385 
L 314.681231 -153.836623 
L 314.481829 -152.799396 
L 314.311727 -151.762169 
L 314.167226 -150.724942 
L 314.045022 -149.687714 
L 313.942207 -148.650487 
L 313.856248 -147.61326 
L 313.784923 -146.576033 
L 313.726275 -145.538806 
L 313.678557 -144.501579 
L 313.640193 -143.464351 
L 313.609756 -142.427124 
z
" style="stroke: #3d3d3d; stroke-width: 1.5"/>
    </defs>
    <g clip-path="url(#p0844e5cfd0)">
     <use xlink:href="#mf6951390fc" x="0" y="262.19625" style="fill: #3a923a; stroke: #3d3d3d; stroke-width: 1.5"/>
    </g>
   </g>
   <g id="matplotlib.axis_1">
    <g id="xtick_1">
     <g id="line2d_1">
      <defs>
       <path id="m573aec8890" d="M 0 0 
L 0 3.5 
" style="stroke: #000000; stroke-width: 0.8"/>
      </defs>
      <g>
       <use xlink:href="#m573aec8890" x="90.31875" y="224.64" style="stroke: #000000; stroke-width: 0.8"/>
      </g>
     </g>
     <g id="text_1">
      <!-- Iris-setosa -->
      <g transform="translate(64.621094 239.238438)scale(0.1 -0.1)">
       <defs>
        <path id="DejaVuSans-49" d="M 628 4666 
L 1259 4666 
L 1259 0 
L 628 0 
L 628 4666 
z
" transform="scale(0.015625)"/>
        <path id="DejaVuSans-72" d="M 2631 2963 
Q 2534 3019 2420 3045 
Q 2306 3072 2169 3072 
Q 1681 3072 1420 2755 
Q 1159 2438 1159 1844 
L 1159 0 
L 581 0 
L 581 3500 
L 1159 3500 
L 1159 2956 
Q 1341 3275 1631 3429 
Q 1922 3584 2338 3584 
Q 2397 3584 2469 3576 
Q 2541 3569 2628 3553 
L 2631 2963 
z
" transform="scale(0.015625)"/>
        <path id="DejaVuSans-69" d="M 603 3500 
L 1178 3500 
L 1178 0 
L 603 0 
L 603 3500 
z
M 603 4863 
L 1178 4863 
L 1178 4134 
L 603 4134 
L 603 4863 
z
" transform="scale(0.015625)"/>
        <path id="DejaVuSans-73" d="M 2834 3397 
L 2834 2853 
Q 2591 2978 2328 3040 
Q 2066 3103 1784 3103 
Q 1356 3103 1142 2972 
Q 928 2841 928 2578 
Q 928 2378 1081 2264 
Q 1234 2150 1697 2047 
L 1894 2003 
Q 2506 1872 2764 1633 
Q 3022 1394 3022 966 
Q 3022 478 2636 193 
Q 2250 -91 1575 -91 
Q 1294 -91 989 -36 
Q 684 19 347 128 
L 347 722 
Q 666 556 975 473 
Q 1284 391 1588 391 
Q 1994 391 2212 530 
Q 2431 669 2431 922 
Q 2431 1156 2273 1281 
Q 2116 1406 1581 1522 
L 1381 1569 
Q 847 1681 609 1914 
Q 372 2147 372 2553 
Q 372 3047 722 3315 
Q 1072 3584 1716 3584 
Q 2034 3584 2315 3537 
Q 2597 3491 2834 3397 
z
" transform="scale(0.015625)"/>
        <path id="DejaVuSans-2d" d="M 313 2009 
L 1997 2009 
L 1997 1497 
L 313 1497 
L 313 2009 
z
" transform="scale(0.015625)"/>
        <path id="DejaVuSans-65" d="M 3597 1894 
L 3597 1613 
L 953 1613 
Q 991 1019 1311 708 
Q 1631 397 2203 397 
Q 2534 397 2845 478 
Q 3156 559 3463 722 
L 3463 178 
Q 3153 47 2828 -22 
Q 2503 -91 2169 -91 
Q 1331 -91 842 396 
Q 353 884 353 1716 
Q 353 2575 817 3079 
Q 1281 3584 2069 3584 
Q 2775 3584 3186 3129 
Q 3597 2675 3597 1894 
z
M 3022 2063 
Q 3016 2534 2758 2815 
Q 2500 3097 2075 3097 
Q 1594 3097 1305 2825 
Q 1016 2553 972 2059 
L 3022 2063 
z
" transform="scale(0.015625)"/>
        <path id="DejaVuSans-74" d="M 1172 4494 
L 1172 3500 
L 2356 3500 
L 2356 3053 
L 1172 3053 
L 1172 1153 
Q 1172 725 1289 603 
Q 1406 481 1766 481 
L 2356 481 
L 2356 0 
L 1766 0 
Q 1100 0 847 248 
Q 594 497 594 1153 
L 594 3053 
L 172 3053 
L 172 3500 
L 594 3500 
L 594 4494 
L 1172 4494 
z
" transform="scale(0.015625)"/>
        <path id="DejaVuSans-6f" d="M 1959 3097 
Q 1497 3097 1228 2736 
Q 959 2375 959 1747 
Q 959 1119 1226 758 
Q 1494 397 1959 397 
Q 2419 397 2687 759 
Q 2956 1122 2956 1747 
Q 2956 2369 2687 2733 
Q 2419 3097 1959 3097 
z
M 1959 3584 
Q 2709 3584 3137 3096 
Q 3566 2609 3566 1747 
Q 3566 888 3137 398 
Q 2709 -91 1959 -91 
Q 1206 -91 779 398 
Q 353 888 353 1747 
Q 353 2609 779 3096 
Q 1206 3584 1959 3584 
z
" transform="scale(0.015625)"/>
        <path id="DejaVuSans-61" d="M 2194 1759 
Q 1497 1759 1228 1600 
Q 959 1441 959 1056 
Q 959 750 1161 570 
Q 1363 391 1709 391 
Q 2188 391 2477 730 
Q 2766 1069 2766 1631 
L 2766 1759 
L 2194 1759 
z
M 3341 1997 
L 3341 0 
L 2766 0 
L 2766 531 
Q 2569 213 2275 61 
Q 1981 -91 1556 -91 
Q 1019 -91 701 211 
Q 384 513 384 1019 
Q 384 1609 779 1909 
Q 1175 2209 1959 2209 
L 2766 2209 
L 2766 2266 
Q 2766 2663 2505 2880 
Q 2244 3097 1772 3097 
Q 1472 3097 1187 3025 
Q 903 2953 641 2809 
L 641 3341 
Q 956 3463 1253 3523 
Q 1550 3584 1831 3584 
Q 2591 3584 2966 3190 
Q 3341 2797 3341 1997 
z
" transform="scale(0.015625)"/>
       </defs>
       <use xlink:href="#DejaVuSans-49"/>
       <use xlink:href="#DejaVuSans-72" x="29.492188"/>
       <use xlink:href="#DejaVuSans-69" x="70.605469"/>
       <use xlink:href="#DejaVuSans-73" x="98.388672"/>
       <use xlink:href="#DejaVuSans-2d" x="150.488281"/>
       <use xlink:href="#DejaVuSans-73" x="186.572266"/>
       <use xlink:href="#DejaVuSans-65" x="238.671875"/>
       <use xlink:href="#DejaVuSans-74" x="300.195312"/>
       <use xlink:href="#DejaVuSans-6f" x="339.404297"/>
       <use xlink:href="#DejaVuSans-73" x="400.585938"/>
       <use xlink:href="#DejaVuSans-61" x="452.685547"/>
      </g>
     </g>
    </g>
    <g id="xtick_2">
     <g id="line2d_2">
      <g>
       <use xlink:href="#m573aec8890" x="201.91875" y="224.64" style="stroke: #000000; stroke-width: 0.8"/>
      </g>
     </g>
     <g id="text_2">
      <!-- Iris-versicolor -->
      <g transform="translate(168.324219 239.238438)scale(0.1 -0.1)">
       <defs>
        <path id="DejaVuSans-76" d="M 191 3500 
L 800 3500 
L 1894 563 
L 2988 3500 
L 3597 3500 
L 2284 0 
L 1503 0 
L 191 3500 
z
" transform="scale(0.015625)"/>
        <path id="DejaVuSans-63" d="M 3122 3366 
L 3122 2828 
Q 2878 2963 2633 3030 
Q 2388 3097 2138 3097 
Q 1578 3097 1268 2742 
Q 959 2388 959 1747 
Q 959 1106 1268 751 
Q 1578 397 2138 397 
Q 2388 397 2633 464 
Q 2878 531 3122 666 
L 3122 134 
Q 2881 22 2623 -34 
Q 2366 -91 2075 -91 
Q 1284 -91 818 406 
Q 353 903 353 1747 
Q 353 2603 823 3093 
Q 1294 3584 2113 3584 
Q 2378 3584 2631 3529 
Q 2884 3475 3122 3366 
z
" transform="scale(0.015625)"/>
        <path id="DejaVuSans-6c" d="M 603 4863 
L 1178 4863 
L 1178 0 
L 603 0 
L 603 4863 
z
" transform="scale(0.015625)"/>
       </defs>
       <use xlink:href="#DejaVuSans-49"/>
       <use xlink:href="#DejaVuSans-72" x="29.492188"/>
       <use xlink:href="#DejaVuSans-69" x="70.605469"/>
       <use xlink:href="#DejaVuSans-73" x="98.388672"/>
       <use xlink:href="#DejaVuSans-2d" x="150.488281"/>
       <use xlink:href="#DejaVuSans-76" x="183.947266"/>
       <use xlink:href="#DejaVuSans-65" x="243.126953"/>
       <use xlink:href="#DejaVuSans-72" x="304.650391"/>
       <use xlink:href="#DejaVuSans-73" x="345.763672"/>
       <use xlink:href="#DejaVuSans-69" x="397.863281"/>
       <use xlink:href="#DejaVuSans-63" x="425.646484"/>
       <use xlink:href="#DejaVuSans-6f" x="480.626953"/>
       <use xlink:href="#DejaVuSans-6c" x="541.808594"/>
       <use xlink:href="#DejaVuSans-6f" x="569.591797"/>
       <use xlink:href="#DejaVuSans-72" x="630.773438"/>
      </g>
     </g>
    </g>
    <g id="xtick_3">
     <g id="line2d_3">
      <g>
       <use xlink:href="#m573aec8890" x="313.51875" y="224.64" style="stroke: #000000; stroke-width: 0.8"/>
      </g>
     </g>
     <g id="text_3">
      <!-- Iris-virginica -->
      <g transform="translate(283.071094 239.238438)scale(0.1 -0.1)">
       <defs>
        <path id="DejaVuSans-67" d="M 2906 1791 
Q 2906 2416 2648 2759 
Q 2391 3103 1925 3103 
Q 1463 3103 1205 2759 
Q 947 2416 947 1791 
Q 947 1169 1205 825 
Q 1463 481 1925 481 
Q 2391 481 2648 825 
Q 2906 1169 2906 1791 
z
M 3481 434 
Q 3481 -459 3084 -895 
Q 2688 -1331 1869 -1331 
Q 1566 -1331 1297 -1286 
Q 1028 -1241 775 -1147 
L 775 -588 
Q 1028 -725 1275 -790 
Q 1522 -856 1778 -856 
Q 2344 -856 2625 -561 
Q 2906 -266 2906 331 
L 2906 616 
Q 2728 306 2450 153 
Q 2172 0 1784 0 
Q 1141 0 747 490 
Q 353 981 353 1791 
Q 353 2603 747 3093 
Q 1141 3584 1784 3584 
Q 2172 3584 2450 3431 
Q 2728 3278 2906 2969 
L 2906 3500 
L 3481 3500 
L 3481 434 
z
" transform="scale(0.015625)"/>
        <path id="DejaVuSans-6e" d="M 3513 2113 
L 3513 0 
L 2938 0 
L 2938 2094 
Q 2938 2591 2744 2837 
Q 2550 3084 2163 3084 
Q 1697 3084 1428 2787 
Q 1159 2491 1159 1978 
L 1159 0 
L 581 0 
L 581 3500 
L 1159 3500 
L 1159 2956 
Q 1366 3272 1645 3428 
Q 1925 3584 2291 3584 
Q 2894 3584 3203 3211 
Q 3513 2838 3513 2113 
z
" transform="scale(0.015625)"/>
       </defs>
       <use xlink:href="#DejaVuSans-49"/>
       <use xlink:href="#DejaVuSans-72" x="29.492188"/>
       <use xlink:href="#DejaVuSans-69" x="70.605469"/>
       <use xlink:href="#DejaVuSans-73" x="98.388672"/>
       <use xlink:href="#DejaVuSans-2d" x="150.488281"/>
       <use xlink:href="#DejaVuSans-76" x="183.947266"/>
       <use xlink:href="#DejaVuSans-69" x="243.126953"/>
       <use xlink:href="#DejaVuSans-72" x="270.910156"/>
       <use xlink:href="#DejaVuSans-67" x="310.273438"/>
       <use xlink:href="#DejaVuSans-69" x="373.75"/>
       <use xlink:href="#DejaVuSans-6e" x="401.533203"/>
       <use xlink:href="#DejaVuSans-69" x="464.912109"/>
       <use xlink:href="#DejaVuSans-63" x="492.695312"/>
       <use xlink:href="#DejaVuSans-61" x="547.675781"/>
      </g>
     </g>
    </g>
    <g id="text_4">
     <!-- species -->
     <g transform="translate(183.24375 252.916563)scale(0.1 -0.1)">
      <defs>
       <path id="DejaVuSans-70" d="M 1159 525 
L 1159 -1331 
L 581 -1331 
L 581 3500 
L 1159 3500 
L 1159 2969 
Q 1341 3281 1617 3432 
Q 1894 3584 2278 3584 
Q 2916 3584 3314 3078 
Q 3713 2572 3713 1747 
Q 3713 922 3314 415 
Q 2916 -91 2278 -91 
Q 1894 -91 1617 61 
Q 1341 213 1159 525 
z
M 3116 1747 
Q 3116 2381 2855 2742 
Q 2594 3103 2138 3103 
Q 1681 3103 1420 2742 
Q 1159 2381 1159 1747 
Q 1159 1113 1420 752 
Q 1681 391 2138 391 
Q 2594 391 2855 752 
Q 3116 1113 3116 1747 
z
" transform="scale(0.015625)"/>
      </defs>
      <use xlink:href="#DejaVuSans-73"/>
      <use xlink:href="#DejaVuSans-70" x="52.099609"/>
      <use xlink:href="#DejaVuSans-65" x="115.576172"/>
      <use xlink:href="#DejaVuSans-63" x="177.099609"/>
      <use xlink:href="#DejaVuSans-69" x="232.080078"/>
      <use xlink:href="#DejaVuSans-65" x="259.863281"/>
      <use xlink:href="#DejaVuSans-73" x="321.386719"/>
     </g>
    </g>
   </g>
   <g id="matplotlib.axis_2">
    <g id="ytick_1">
     <g id="line2d_4">
      <defs>
       <path id="mc30cd14a4b" d="M 0 0 
L -3.5 0 
" style="stroke: #000000; stroke-width: 0.8"/>
      </defs>
      <g>
       <use xlink:href="#mc30cd14a4b" x="34.51875" y="209.976923" style="stroke: #000000; stroke-width: 0.8"/>
      </g>
     </g>
     <g id="text_5">
      <!-- 1 -->
      <g transform="translate(21.15625 213.776142)scale(0.1 -0.1)">
       <defs>
        <path id="DejaVuSans-31" d="M 794 531 
L 1825 531 
L 1825 4091 
L 703 3866 
L 703 4441 
L 1819 4666 
L 2450 4666 
L 2450 531 
L 3481 531 
L 3481 0 
L 794 0 
L 794 531 
z
" transform="scale(0.015625)"/>
       </defs>
       <use xlink:href="#DejaVuSans-31"/>
      </g>
     </g>
    </g>
    <g id="ytick_2">
     <g id="line2d_5">
      <g>
       <use xlink:href="#mc30cd14a4b" x="34.51875" y="179.859786" style="stroke: #000000; stroke-width: 0.8"/>
      </g>
     </g>
     <g id="text_6">
      <!-- 2 -->
      <g transform="translate(21.15625 183.659005)scale(0.1 -0.1)">
       <defs>
        <path id="DejaVuSans-32" d="M 1228 531 
L 3431 531 
L 3431 0 
L 469 0 
L 469 531 
Q 828 903 1448 1529 
Q 2069 2156 2228 2338 
Q 2531 2678 2651 2914 
Q 2772 3150 2772 3378 
Q 2772 3750 2511 3984 
Q 2250 4219 1831 4219 
Q 1534 4219 1204 4116 
Q 875 4013 500 3803 
L 500 4441 
Q 881 4594 1212 4672 
Q 1544 4750 1819 4750 
Q 2544 4750 2975 4387 
Q 3406 4025 3406 3419 
Q 3406 3131 3298 2873 
Q 3191 2616 2906 2266 
Q 2828 2175 2409 1742 
Q 1991 1309 1228 531 
z
" transform="scale(0.015625)"/>
       </defs>
       <use xlink:href="#DejaVuSans-32"/>
      </g>
     </g>
    </g>
    <g id="ytick_3">
     <g id="line2d_6">
      <g>
       <use xlink:href="#mc30cd14a4b" x="34.51875" y="149.74265" style="stroke: #000000; stroke-width: 0.8"/>
      </g>
     </g>
     <g id="text_7">
      <!-- 3 -->
      <g transform="translate(21.15625 153.541868)scale(0.1 -0.1)">
       <defs>
        <path id="DejaVuSans-33" d="M 2597 2516 
Q 3050 2419 3304 2112 
Q 3559 1806 3559 1356 
Q 3559 666 3084 287 
Q 2609 -91 1734 -91 
Q 1441 -91 1130 -33 
Q 819 25 488 141 
L 488 750 
Q 750 597 1062 519 
Q 1375 441 1716 441 
Q 2309 441 2620 675 
Q 2931 909 2931 1356 
Q 2931 1769 2642 2001 
Q 2353 2234 1838 2234 
L 1294 2234 
L 1294 2753 
L 1863 2753 
Q 2328 2753 2575 2939 
Q 2822 3125 2822 3475 
Q 2822 3834 2567 4026 
Q 2313 4219 1838 4219 
Q 1578 4219 1281 4162 
Q 984 4106 628 3988 
L 628 4550 
Q 988 4650 1302 4700 
Q 1616 4750 1894 4750 
Q 2613 4750 3031 4423 
Q 3450 4097 3450 3541 
Q 3450 3153 3228 2886 
Q 3006 2619 2597 2516 
z
" transform="scale(0.015625)"/>
       </defs>
       <use xlink:href="#DejaVuSans-33"/>
      </g>
     </g>
    </g>
    <g id="ytick_4">
     <g id="line2d_7">
      <g>
       <use xlink:href="#mc30cd14a4b" x="34.51875" y="119.625513" style="stroke: #000000; stroke-width: 0.8"/>
      </g>
     </g>
     <g id="text_8">
      <!-- 4 -->
      <g transform="translate(21.15625 123.424732)scale(0.1 -0.1)">
       <defs>
        <path id="DejaVuSans-34" d="M 2419 4116 
L 825 1625 
L 2419 1625 
L 2419 4116 
z
M 2253 4666 
L 3047 4666 
L 3047 1625 
L 3713 1625 
L 3713 1100 
L 3047 1100 
L 3047 0 
L 2419 0 
L 2419 1100 
L 313 1100 
L 313 1709 
L 2253 4666 
z
" transform="scale(0.015625)"/>
       </defs>
       <use xlink:href="#DejaVuSans-34"/>
      </g>
     </g>
    </g>
    <g id="ytick_5">
     <g id="line2d_8">
      <g>
       <use xlink:href="#mc30cd14a4b" x="34.51875" y="89.508377" style="stroke: #000000; stroke-width: 0.8"/>
      </g>
     </g>
     <g id="text_9">
      <!-- 5 -->
      <g transform="translate(21.15625 93.307595)scale(0.1 -0.1)">
       <defs>
        <path id="DejaVuSans-35" d="M 691 4666 
L 3169 4666 
L 3169 4134 
L 1269 4134 
L 1269 2991 
Q 1406 3038 1543 3061 
Q 1681 3084 1819 3084 
Q 2600 3084 3056 2656 
Q 3513 2228 3513 1497 
Q 3513 744 3044 326 
Q 2575 -91 1722 -91 
Q 1428 -91 1123 -41 
Q 819 9 494 109 
L 494 744 
Q 775 591 1075 516 
Q 1375 441 1709 441 
Q 2250 441 2565 725 
Q 2881 1009 2881 1497 
Q 2881 1984 2565 2268 
Q 2250 2553 1709 2553 
Q 1456 2553 1204 2497 
Q 953 2441 691 2322 
L 691 4666 
z
" transform="scale(0.015625)"/>
       </defs>
       <use xlink:href="#DejaVuSans-35"/>
      </g>
     </g>
    </g>
    <g id="ytick_6">
     <g id="line2d_9">
      <g>
       <use xlink:href="#mc30cd14a4b" x="34.51875" y="59.39124" style="stroke: #000000; stroke-width: 0.8"/>
      </g>
     </g>
     <g id="text_10">
      <!-- 6 -->
      <g transform="translate(21.15625 63.190459)scale(0.1 -0.1)">
       <defs>
        <path id="DejaVuSans-36" d="M 2113 2584 
Q 1688 2584 1439 2293 
Q 1191 2003 1191 1497 
Q 1191 994 1439 701 
Q 1688 409 2113 409 
Q 2538 409 2786 701 
Q 3034 994 3034 1497 
Q 3034 2003 2786 2293 
Q 2538 2584 2113 2584 
z
M 3366 4563 
L 3366 3988 
Q 3128 4100 2886 4159 
Q 2644 4219 2406 4219 
Q 1781 4219 1451 3797 
Q 1122 3375 1075 2522 
Q 1259 2794 1537 2939 
Q 1816 3084 2150 3084 
Q 2853 3084 3261 2657 
Q 3669 2231 3669 1497 
Q 3669 778 3244 343 
Q 2819 -91 2113 -91 
Q 1303 -91 875 529 
Q 447 1150 447 2328 
Q 447 3434 972 4092 
Q 1497 4750 2381 4750 
Q 2619 4750 2861 4703 
Q 3103 4656 3366 4563 
z
" transform="scale(0.015625)"/>
       </defs>
       <use xlink:href="#DejaVuSans-36"/>
      </g>
     </g>
    </g>
    <g id="ytick_7">
     <g id="line2d_10">
      <g>
       <use xlink:href="#mc30cd14a4b" x="34.51875" y="29.274103" style="stroke: #000000; stroke-width: 0.8"/>
      </g>
     </g>
     <g id="text_11">
      <!-- 7 -->
      <g transform="translate(21.15625 33.073322)scale(0.1 -0.1)">
       <defs>
        <path id="DejaVuSans-37" d="M 525 4666 
L 3525 4666 
L 3525 4397 
L 1831 0 
L 1172 0 
L 2766 4134 
L 525 4134 
L 525 4666 
z
" transform="scale(0.015625)"/>
       </defs>
       <use xlink:href="#DejaVuSans-37"/>
      </g>
     </g>
    </g>
    <g id="text_12">
     <!-- petal_length -->
     <g transform="translate(14.798438 147.021563)rotate(-90)scale(0.1 -0.1)">
      <defs>
       <path id="DejaVuSans-5f" d="M 3263 -1063 
L 3263 -1509 
L -63 -1509 
L -63 -1063 
L 3263 -1063 
z
" transform="scale(0.015625)"/>
       <path id="DejaVuSans-68" d="M 3513 2113 
L 3513 0 
L 2938 0 
L 2938 2094 
Q 2938 2591 2744 2837 
Q 2550 3084 2163 3084 
Q 1697 3084 1428 2787 
Q 1159 2491 1159 1978 
L 1159 0 
L 581 0 
L 581 4863 
L 1159 4863 
L 1159 2956 
Q 1366 3272 1645 3428 
Q 1925 3584 2291 3584 
Q 2894 3584 3203 3211 
Q 3513 2838 3513 2113 
z
" transform="scale(0.015625)"/>
      </defs>
      <use xlink:href="#DejaVuSans-70"/>
      <use xlink:href="#DejaVuSans-65" x="63.476562"/>
      <use xlink:href="#DejaVuSans-74" x="125"/>
      <use xlink:href="#DejaVuSans-61" x="164.208984"/>
      <use xlink:href="#DejaVuSans-6c" x="225.488281"/>
      <use xlink:href="#DejaVuSans-5f" x="253.271484"/>
      <use xlink:href="#DejaVuSans-6c" x="303.271484"/>
      <use xlink:href="#DejaVuSans-65" x="331.054688"/>
      <use xlink:href="#DejaVuSans-6e" x="392.578125"/>
      <use xlink:href="#DejaVuSans-67" x="455.957031"/>
      <use xlink:href="#DejaVuSans-74" x="519.433594"/>
      <use xlink:href="#DejaVuSans-68" x="558.642578"/>
     </g>
    </g>
   </g>
   <g id="line2d_11">
    <path d="M 90.31875 203.953496 
L 90.31875 188.894927 
" clip-path="url(#p0844e5cfd0)" style="fill: none; stroke: #3d3d3d; stroke-width: 1.5; stroke-linecap: square"/>
   </g>
   <g id="line2d_12">
    <path d="M 90.31875 197.930068 
L 90.31875 192.659569 
" clip-path="url(#p0844e5cfd0)" style="fill: none; stroke: #3d3d3d; stroke-width: 4.5; stroke-linecap: square"/>
   </g>
   <g id="line2d_13">
    <path d="M 201.91875 140.707509 
L 201.91875 86.496663 
" clip-path="url(#p0844e5cfd0)" style="fill: none; stroke: #3d3d3d; stroke-width: 1.5; stroke-linecap: square"/>
   </g>
   <g id="line2d_14">
    <path d="M 201.91875 119.625513 
L 201.91875 101.555231 
" clip-path="url(#p0844e5cfd0)" style="fill: none; stroke: #3d3d3d; stroke-width: 4.5; stroke-linecap: square"/>
   </g>
   <g id="line2d_15">
    <path d="M 313.51875 104.566945 
L 313.51875 32.285817 
" clip-path="url(#p0844e5cfd0)" style="fill: none; stroke: #3d3d3d; stroke-width: 1.5; stroke-linecap: square"/>
   </g>
   <g id="line2d_16">
    <path d="M 313.51875 86.496663 
L 313.51875 63.155882 
" clip-path="url(#p0844e5cfd0)" style="fill: none; stroke: #3d3d3d; stroke-width: 4.5; stroke-linecap: square"/>
   </g>
   <g id="patch_3">
    <path d="M 34.51875 224.64 
L 34.51875 7.2 
" style="fill: none; stroke: #000000; stroke-width: 0.8; stroke-linejoin: miter; stroke-linecap: square"/>
   </g>
   <g id="patch_4">
    <path d="M 369.31875 224.64 
L 369.31875 7.2 
" style="fill: none; stroke: #000000; stroke-width: 0.8; stroke-linejoin: miter; stroke-linecap: square"/>
   </g>
   <g id="patch_5">
    <path d="M 34.51875 224.64 
L 369.31875 224.64 
" style="fill: none; stroke: #000000; stroke-width: 0.8; stroke-linejoin: miter; stroke-linecap: square"/>
   </g>
   <g id="patch_6">
    <path d="M 34.51875 7.2 
L 369.31875 7.2 
" style="fill: none; stroke: #000000; stroke-width: 0.8; stroke-linejoin: miter; stroke-linecap: square"/>
   </g>
   <g id="PathCollection_1">
    <defs>
     <path id="ma9a0a285cf" d="M 0 1.5 
C 0.397805 1.5 0.77937 1.341951 1.06066 1.06066 
C 1.341951 0.77937 1.5 0.397805 1.5 0 
C 1.5 -0.397805 1.341951 -0.77937 1.06066 -1.06066 
C 0.77937 -1.341951 0.397805 -1.5 0 -1.5 
C -0.397805 -1.5 -0.77937 -1.341951 -1.06066 -1.06066 
C -1.341951 -0.77937 -1.5 -0.397805 -1.5 0 
C -1.5 0.397805 -1.341951 0.77937 -1.06066 1.06066 
C -0.77937 1.341951 -0.397805 1.5 0 1.5 
z
" style="stroke: #3d3d3d"/>
    </defs>
    <g clip-path="url(#p0844e5cfd0)">
     <use xlink:href="#ma9a0a285cf" x="90.31875" y="194.918355" style="fill: #ffffff; stroke: #3d3d3d"/>
    </g>
   </g>
   <g id="PathCollection_2">
    <g clip-path="url(#p0844e5cfd0)">
     <use xlink:href="#ma9a0a285cf" x="201.91875" y="109.084515" style="fill: #ffffff; stroke: #3d3d3d"/>
    </g>
   </g>
   <g id="PathCollection_3">
    <g clip-path="url(#p0844e5cfd0)">
     <use xlink:href="#ma9a0a285cf" x="313.51875" y="72.943952" style="fill: #ffffff; stroke: #3d3d3d"/>
    </g>
   </g>
  </g>
 </g>
 <defs>
  <clipPath id="p0844e5cfd0">
   <rect x="34.51875" y="7.2" width="334.8" height="217.44"/>
  </clipPath>
 </defs>
</svg>
