<?xml version="1.0" encoding="utf-8" standalone="no"?>
<!DOCTYPE svg PUBLIC "-//W3C//DTD SVG 1.1//EN"
  "http://www.w3.org/Graphics/SVG/1.1/DTD/svg11.dtd">
<svg xmlns:xlink="http://www.w3.org/1999/xlink" width="415.15pt" height="423.59625pt" viewBox="0 0 415.15 423.59625" xmlns="http://www.w3.org/2000/svg" version="1.1">
 <metadata>
  <rdf:RDF xmlns:dc="http://purl.org/dc/elements/1.1/" xmlns:cc="http://creativecommons.org/ns#" xmlns:rdf="http://www.w3.org/1999/02/22-rdf-syntax-ns#">
   <cc:Work>
    <dc:type rdf:resource="http://purl.org/dc/dcmitype/StillImage"/>
    <dc:date>2022-02-06T17:02:38.347611</dc:date>
    <dc:format>image/svg+xml</dc:format>
    <dc:creator>
     <cc:Agent>
      <dc:title>Matplotlib v3.5.0, https://matplotlib.org/</dc:title>
     </cc:Agent>
    </dc:creator>
   </cc:Work>
  </rdf:RDF>
 </metadata>
 <defs>
  <style type="text/css">*{stroke-linejoin: round; stroke-linecap: butt}</style>
 </defs>
 <g id="figure_1">
  <g id="patch_1">
   <path d="M 0 423.59625 
L 415.15 423.59625 
L 415.15 0 
L 0 0 
L 0 423.59625 
z
" style="fill: none"/>
  </g>
  <g id="axes_1">
   <g id="patch_2">
    <path d="M 26.925 189.118125 
L 202.039106 189.118125 
L 202.039106 22.318125 
L 26.925 22.318125 
z
" style="fill: #ffffff"/>
   </g>
   <g id="patch_3">
    <path d="M 34.884732 189.118125 
L 41.252518 189.118125 
L 41.252518 143.73037 
L 34.884732 143.73037 
z
" clip-path="url(#p2771319ec8)" style="fill: #1f77b4"/>
   </g>
   <g id="patch_4">
    <path d="M 41.252518 189.118125 
L 47.620303 189.118125 
L 47.620303 177.771186 
L 41.252518 177.771186 
z
" clip-path="url(#p2771319ec8)" style="fill: #1f77b4"/>
   </g>
   <g id="patch_5">
    <path d="M 47.620303 189.118125 
L 53.988089 189.118125 
L 53.988089 121.036492 
L 47.620303 121.036492 
z
" clip-path="url(#p2771319ec8)" style="fill: #1f77b4"/>
   </g>
   <g id="patch_6">
    <path d="M 53.988089 189.118125 
L 60.355875 189.118125 
L 60.355875 132.383431 
L 53.988089 132.383431 
z
" clip-path="url(#p2771319ec8)" style="fill: #1f77b4"/>
   </g>
   <g id="patch_7">
    <path d="M 60.355875 189.118125 
L 66.72366 189.118125 
L 66.72366 30.260982 
L 60.355875 30.260982 
z
" clip-path="url(#p2771319ec8)" style="fill: #1f77b4"/>
   </g>
   <g id="patch_8">
    <path d="M 66.72366 189.118125 
L 73.091446 189.118125 
L 73.091446 86.995676 
L 66.72366 86.995676 
z
" clip-path="url(#p2771319ec8)" style="fill: #1f77b4"/>
   </g>
   <g id="patch_9">
    <path d="M 73.091446 189.118125 
L 79.459232 189.118125 
L 79.459232 132.383431 
L 73.091446 132.383431 
z
" clip-path="url(#p2771319ec8)" style="fill: #1f77b4"/>
   </g>
   <g id="patch_10">
    <path d="M 79.459232 189.118125 
L 85.827017 189.118125 
L 85.827017 121.036492 
L 79.459232 121.036492 
z
" clip-path="url(#p2771319ec8)" style="fill: #1f77b4"/>
   </g>
   <g id="patch_11">
    <path d="M 85.827017 189.118125 
L 92.194803 189.118125 
L 92.194803 109.689554 
L 85.827017 109.689554 
z
" clip-path="url(#p2771319ec8)" style="fill: #1f77b4"/>
   </g>
   <g id="patch_12">
    <path d="M 92.194803 189.118125 
L 98.562589 189.118125 
L 98.562589 30.260982 
L 92.194803 30.260982 
z
" clip-path="url(#p2771319ec8)" style="fill: #1f77b4"/>
   </g>
   <g id="patch_13">
    <path d="M 98.562589 189.118125 
L 104.930374 189.118125 
L 104.930374 121.036492 
L 98.562589 121.036492 
z
" clip-path="url(#p2771319ec8)" style="fill: #1f77b4"/>
   </g>
   <g id="patch_14">
    <path d="M 104.930374 189.118125 
L 111.29816 189.118125 
L 111.29816 86.995676 
L 104.930374 86.995676 
z
" clip-path="url(#p2771319ec8)" style="fill: #1f77b4"/>
   </g>
   <g id="patch_15">
    <path d="M 111.29816 189.118125 
L 117.665946 189.118125 
L 117.665946 121.036492 
L 111.29816 121.036492 
z
" clip-path="url(#p2771319ec8)" style="fill: #1f77b4"/>
   </g>
   <g id="patch_16">
    <path d="M 117.665946 189.118125 
L 124.033731 189.118125 
L 124.033731 41.607921 
L 117.665946 41.607921 
z
" clip-path="url(#p2771319ec8)" style="fill: #1f77b4"/>
   </g>
   <g id="patch_17">
    <path d="M 124.033731 189.118125 
L 130.401517 189.118125 
L 130.401517 109.689554 
L 124.033731 109.689554 
z
" clip-path="url(#p2771319ec8)" style="fill: #1f77b4"/>
   </g>
   <g id="patch_18">
    <path d="M 130.401517 189.118125 
L 136.769303 189.118125 
L 136.769303 109.689554 
L 130.401517 109.689554 
z
" clip-path="url(#p2771319ec8)" style="fill: #1f77b4"/>
   </g>
   <g id="patch_19">
    <path d="M 136.769303 189.118125 
L 143.137088 189.118125 
L 143.137088 98.342615 
L 136.769303 98.342615 
z
" clip-path="url(#p2771319ec8)" style="fill: #1f77b4"/>
   </g>
   <g id="patch_20">
    <path d="M 143.137088 189.118125 
L 149.504874 189.118125 
L 149.504874 155.077309 
L 143.137088 155.077309 
z
" clip-path="url(#p2771319ec8)" style="fill: #1f77b4"/>
   </g>
   <g id="patch_21">
    <path d="M 149.504874 189.118125 
L 155.87266 189.118125 
L 155.87266 132.383431 
L 149.504874 132.383431 
z
" clip-path="url(#p2771319ec8)" style="fill: #1f77b4"/>
   </g>
   <g id="patch_22">
    <path d="M 155.87266 189.118125 
L 162.240445 189.118125 
L 162.240445 177.771186 
L 155.87266 177.771186 
z
" clip-path="url(#p2771319ec8)" style="fill: #1f77b4"/>
   </g>
   <g id="patch_23">
    <path d="M 162.240445 189.118125 
L 168.608231 189.118125 
L 168.608231 143.73037 
L 162.240445 143.73037 
z
" clip-path="url(#p2771319ec8)" style="fill: #1f77b4"/>
   </g>
   <g id="patch_24">
    <path d="M 168.608231 189.118125 
L 174.976017 189.118125 
L 174.976017 177.771186 
L 168.608231 177.771186 
z
" clip-path="url(#p2771319ec8)" style="fill: #1f77b4"/>
   </g>
   <g id="patch_25">
    <path d="M 174.976017 189.118125 
L 181.343802 189.118125 
L 181.343802 177.771186 
L 174.976017 177.771186 
z
" clip-path="url(#p2771319ec8)" style="fill: #1f77b4"/>
   </g>
   <g id="patch_26">
    <path d="M 181.343802 189.118125 
L 187.711588 189.118125 
L 187.711588 143.73037 
L 181.343802 143.73037 
z
" clip-path="url(#p2771319ec8)" style="fill: #1f77b4"/>
   </g>
   <g id="patch_27">
    <path d="M 187.711588 189.118125 
L 194.079374 189.118125 
L 194.079374 177.771186 
L 187.711588 177.771186 
z
" clip-path="url(#p2771319ec8)" style="fill: #1f77b4"/>
   </g>
   <g id="matplotlib.axis_1">
    <g id="xtick_1">
     <g id="line2d_1">
      <path d="M 65.839246 189.118125 
L 65.839246 22.318125 
" clip-path="url(#p2771319ec8)" style="fill: none; stroke: #b0b0b0; stroke-width: 0.8; stroke-linecap: square"/>
     </g>
     <g id="line2d_2">
      <defs>
       <path id="md862e37cc8" d="M 0 0 
L 0 3.5 
" style="stroke: #000000; stroke-width: 0.8"/>
      </defs>
      <g>
       <use xlink:href="#md862e37cc8" x="65.839246" y="189.118125" style="stroke: #000000; stroke-width: 0.8"/>
      </g>
     </g>
     <g id="text_1">
      <!-- 5 -->
      <g transform="translate(62.657996 203.716562)scale(0.1 -0.1)">
       <defs>
        <path id="DejaVuSans-35" d="M 691 4666 
L 3169 4666 
L 3169 4134 
L 1269 4134 
L 1269 2991 
Q 1406 3038 1543 3061 
Q 1681 3084 1819 3084 
Q 2600 3084 3056 2656 
Q 3513 2228 3513 1497 
Q 3513 744 3044 326 
Q 2575 -91 1722 -91 
Q 1428 -91 1123 -41 
Q 819 9 494 109 
L 494 744 
Q 775 591 1075 516 
Q 1375 441 1709 441 
Q 2250 441 2565 725 
Q 2881 1009 2881 1497 
Q 2881 1984 2565 2268 
Q 2250 2553 1709 2553 
Q 1456 2553 1204 2497 
Q 953 2441 691 2322 
L 691 4666 
z
" transform="scale(0.015625)"/>
       </defs>
       <use xlink:href="#DejaVuSans-35"/>
      </g>
     </g>
    </g>
    <g id="xtick_2">
     <g id="line2d_3">
      <path d="M 110.059979 189.118125 
L 110.059979 22.318125 
" clip-path="url(#p2771319ec8)" style="fill: none; stroke: #b0b0b0; stroke-width: 0.8; stroke-linecap: square"/>
     </g>
     <g id="line2d_4">
      <g>
       <use xlink:href="#md862e37cc8" x="110.059979" y="189.118125" style="stroke: #000000; stroke-width: 0.8"/>
      </g>
     </g>
     <g id="text_2">
      <!-- 6 -->
      <g transform="translate(106.878729 203.716562)scale(0.1 -0.1)">
       <defs>
        <path id="DejaVuSans-36" d="M 2113 2584 
Q 1688 2584 1439 2293 
Q 1191 2003 1191 1497 
Q 1191 994 1439 701 
Q 1688 409 2113 409 
Q 2538 409 2786 701 
Q 3034 994 3034 1497 
Q 3034 2003 2786 2293 
Q 2538 2584 2113 2584 
z
M 3366 4563 
L 3366 3988 
Q 3128 4100 2886 4159 
Q 2644 4219 2406 4219 
Q 1781 4219 1451 3797 
Q 1122 3375 1075 2522 
Q 1259 2794 1537 2939 
Q 1816 3084 2150 3084 
Q 2853 3084 3261 2657 
Q 3669 2231 3669 1497 
Q 3669 778 3244 343 
Q 2819 -91 2113 -91 
Q 1303 -91 875 529 
Q 447 1150 447 2328 
Q 447 3434 972 4092 
Q 1497 4750 2381 4750 
Q 2619 4750 2861 4703 
Q 3103 4656 3366 4563 
z
" transform="scale(0.015625)"/>
       </defs>
       <use xlink:href="#DejaVuSans-36"/>
      </g>
     </g>
    </g>
    <g id="xtick_3">
     <g id="line2d_5">
      <path d="M 154.280713 189.118125 
L 154.280713 22.318125 
" clip-path="url(#p2771319ec8)" style="fill: none; stroke: #b0b0b0; stroke-width: 0.8; stroke-linecap: square"/>
     </g>
     <g id="line2d_6">
      <g>
       <use xlink:href="#md862e37cc8" x="154.280713" y="189.118125" style="stroke: #000000; stroke-width: 0.8"/>
      </g>
     </g>
     <g id="text_3">
      <!-- 7 -->
      <g transform="translate(151.099463 203.716562)scale(0.1 -0.1)">
       <defs>
        <path id="DejaVuSans-37" d="M 525 4666 
L 3525 4666 
L 3525 4397 
L 1831 0 
L 1172 0 
L 2766 4134 
L 525 4134 
L 525 4666 
z
" transform="scale(0.015625)"/>
       </defs>
       <use xlink:href="#DejaVuSans-37"/>
      </g>
     </g>
    </g>
    <g id="xtick_4">
     <g id="line2d_7">
      <path d="M 198.501447 189.118125 
L 198.501447 22.318125 
" clip-path="url(#p2771319ec8)" style="fill: none; stroke: #b0b0b0; stroke-width: 0.8; stroke-linecap: square"/>
     </g>
     <g id="line2d_8">
      <g>
       <use xlink:href="#md862e37cc8" x="198.501447" y="189.118125" style="stroke: #000000; stroke-width: 0.8"/>
      </g>
     </g>
     <g id="text_4">
      <!-- 8 -->
      <g transform="translate(195.320197 203.716562)scale(0.1 -0.1)">
       <defs>
        <path id="DejaVuSans-38" d="M 2034 2216 
Q 1584 2216 1326 1975 
Q 1069 1734 1069 1313 
Q 1069 891 1326 650 
Q 1584 409 2034 409 
Q 2484 409 2743 651 
Q 3003 894 3003 1313 
Q 3003 1734 2745 1975 
Q 2488 2216 2034 2216 
z
M 1403 2484 
Q 997 2584 770 2862 
Q 544 3141 544 3541 
Q 544 4100 942 4425 
Q 1341 4750 2034 4750 
Q 2731 4750 3128 4425 
Q 3525 4100 3525 3541 
Q 3525 3141 3298 2862 
Q 3072 2584 2669 2484 
Q 3125 2378 3379 2068 
Q 3634 1759 3634 1313 
Q 3634 634 3220 271 
Q 2806 -91 2034 -91 
Q 1263 -91 848 271 
Q 434 634 434 1313 
Q 434 1759 690 2068 
Q 947 2378 1403 2484 
z
M 1172 3481 
Q 1172 3119 1398 2916 
Q 1625 2713 2034 2713 
Q 2441 2713 2670 2916 
Q 2900 3119 2900 3481 
Q 2900 3844 2670 4047 
Q 2441 4250 2034 4250 
Q 1625 4250 1398 4047 
Q 1172 3844 1172 3481 
z
" transform="scale(0.015625)"/>
       </defs>
       <use xlink:href="#DejaVuSans-38"/>
      </g>
     </g>
    </g>
   </g>
   <g id="matplotlib.axis_2">
    <g id="ytick_1">
     <g id="line2d_9">
      <path d="M 26.925 189.118125 
L 202.039106 189.118125 
" clip-path="url(#p2771319ec8)" style="fill: none; stroke: #b0b0b0; stroke-width: 0.8; stroke-linecap: square"/>
     </g>
     <g id="line2d_10">
      <defs>
       <path id="m5a66e9d56b" d="M 0 0 
L -3.5 0 
" style="stroke: #000000; stroke-width: 0.8"/>
      </defs>
      <g>
       <use xlink:href="#m5a66e9d56b" x="26.925" y="189.118125" style="stroke: #000000; stroke-width: 0.8"/>
      </g>
     </g>
     <g id="text_5">
      <!-- 0 -->
      <g transform="translate(13.5625 192.917344)scale(0.1 -0.1)">
       <defs>
        <path id="DejaVuSans-30" d="M 2034 4250 
Q 1547 4250 1301 3770 
Q 1056 3291 1056 2328 
Q 1056 1369 1301 889 
Q 1547 409 2034 409 
Q 2525 409 2770 889 
Q 3016 1369 3016 2328 
Q 3016 3291 2770 3770 
Q 2525 4250 2034 4250 
z
M 2034 4750 
Q 2819 4750 3233 4129 
Q 3647 3509 3647 2328 
Q 3647 1150 3233 529 
Q 2819 -91 2034 -91 
Q 1250 -91 836 529 
Q 422 1150 422 2328 
Q 422 3509 836 4129 
Q 1250 4750 2034 4750 
z
" transform="scale(0.015625)"/>
       </defs>
       <use xlink:href="#DejaVuSans-30"/>
      </g>
     </g>
    </g>
    <g id="ytick_2">
     <g id="line2d_11">
      <path d="M 26.925 166.424247 
L 202.039106 166.424247 
" clip-path="url(#p2771319ec8)" style="fill: none; stroke: #b0b0b0; stroke-width: 0.8; stroke-linecap: square"/>
     </g>
     <g id="line2d_12">
      <g>
       <use xlink:href="#m5a66e9d56b" x="26.925" y="166.424247" style="stroke: #000000; stroke-width: 0.8"/>
      </g>
     </g>
     <g id="text_6">
      <!-- 2 -->
      <g transform="translate(13.5625 170.223466)scale(0.1 -0.1)">
       <defs>
        <path id="DejaVuSans-32" d="M 1228 531 
L 3431 531 
L 3431 0 
L 469 0 
L 469 531 
Q 828 903 1448 1529 
Q 2069 2156 2228 2338 
Q 2531 2678 2651 2914 
Q 2772 3150 2772 3378 
Q 2772 3750 2511 3984 
Q 2250 4219 1831 4219 
Q 1534 4219 1204 4116 
Q 875 4013 500 3803 
L 500 4441 
Q 881 4594 1212 4672 
Q 1544 4750 1819 4750 
Q 2544 4750 2975 4387 
Q 3406 4025 3406 3419 
Q 3406 3131 3298 2873 
Q 3191 2616 2906 2266 
Q 2828 2175 2409 1742 
Q 1991 1309 1228 531 
z
" transform="scale(0.015625)"/>
       </defs>
       <use xlink:href="#DejaVuSans-32"/>
      </g>
     </g>
    </g>
    <g id="ytick_3">
     <g id="line2d_13">
      <path d="M 26.925 143.73037 
L 202.039106 143.73037 
" clip-path="url(#p2771319ec8)" style="fill: none; stroke: #b0b0b0; stroke-width: 0.8; stroke-linecap: square"/>
     </g>
     <g id="line2d_14">
      <g>
       <use xlink:href="#m5a66e9d56b" x="26.925" y="143.73037" style="stroke: #000000; stroke-width: 0.8"/>
      </g>
     </g>
     <g id="text_7">
      <!-- 4 -->
      <g transform="translate(13.5625 147.529589)scale(0.1 -0.1)">
       <defs>
        <path id="DejaVuSans-34" d="M 2419 4116 
L 825 1625 
L 2419 1625 
L 2419 4116 
z
M 2253 4666 
L 3047 4666 
L 3047 1625 
L 3713 1625 
L 3713 1100 
L 3047 1100 
L 3047 0 
L 2419 0 
L 2419 1100 
L 313 1100 
L 313 1709 
L 2253 4666 
z
" transform="scale(0.015625)"/>
       </defs>
       <use xlink:href="#DejaVuSans-34"/>
      </g>
     </g>
    </g>
    <g id="ytick_4">
     <g id="line2d_15">
      <path d="M 26.925 121.036492 
L 202.039106 121.036492 
" clip-path="url(#p2771319ec8)" style="fill: none; stroke: #b0b0b0; stroke-width: 0.8; stroke-linecap: square"/>
     </g>
     <g id="line2d_16">
      <g>
       <use xlink:href="#m5a66e9d56b" x="26.925" y="121.036492" style="stroke: #000000; stroke-width: 0.8"/>
      </g>
     </g>
     <g id="text_8">
      <!-- 6 -->
      <g transform="translate(13.5625 124.835711)scale(0.1 -0.1)">
       <use xlink:href="#DejaVuSans-36"/>
      </g>
     </g>
    </g>
    <g id="ytick_5">
     <g id="line2d_17">
      <path d="M 26.925 98.342615 
L 202.039106 98.342615 
" clip-path="url(#p2771319ec8)" style="fill: none; stroke: #b0b0b0; stroke-width: 0.8; stroke-linecap: square"/>
     </g>
     <g id="line2d_18">
      <g>
       <use xlink:href="#m5a66e9d56b" x="26.925" y="98.342615" style="stroke: #000000; stroke-width: 0.8"/>
      </g>
     </g>
     <g id="text_9">
      <!-- 8 -->
      <g transform="translate(13.5625 102.141834)scale(0.1 -0.1)">
       <use xlink:href="#DejaVuSans-38"/>
      </g>
     </g>
    </g>
    <g id="ytick_6">
     <g id="line2d_19">
      <path d="M 26.925 75.648737 
L 202.039106 75.648737 
" clip-path="url(#p2771319ec8)" style="fill: none; stroke: #b0b0b0; stroke-width: 0.8; stroke-linecap: square"/>
     </g>
     <g id="line2d_20">
      <g>
       <use xlink:href="#m5a66e9d56b" x="26.925" y="75.648737" style="stroke: #000000; stroke-width: 0.8"/>
      </g>
     </g>
     <g id="text_10">
      <!-- 10 -->
      <g transform="translate(7.2 79.447956)scale(0.1 -0.1)">
       <defs>
        <path id="DejaVuSans-31" d="M 794 531 
L 1825 531 
L 1825 4091 
L 703 3866 
L 703 4441 
L 1819 4666 
L 2450 4666 
L 2450 531 
L 3481 531 
L 3481 0 
L 794 0 
L 794 531 
z
" transform="scale(0.015625)"/>
       </defs>
       <use xlink:href="#DejaVuSans-31"/>
       <use xlink:href="#DejaVuSans-30" x="63.623047"/>
      </g>
     </g>
    </g>
    <g id="ytick_7">
     <g id="line2d_21">
      <path d="M 26.925 52.95486 
L 202.039106 52.95486 
" clip-path="url(#p2771319ec8)" style="fill: none; stroke: #b0b0b0; stroke-width: 0.8; stroke-linecap: square"/>
     </g>
     <g id="line2d_22">
      <g>
       <use xlink:href="#m5a66e9d56b" x="26.925" y="52.95486" style="stroke: #000000; stroke-width: 0.8"/>
      </g>
     </g>
     <g id="text_11">
      <!-- 12 -->
      <g transform="translate(7.2 56.754078)scale(0.1 -0.1)">
       <use xlink:href="#DejaVuSans-31"/>
       <use xlink:href="#DejaVuSans-32" x="63.623047"/>
      </g>
     </g>
    </g>
    <g id="ytick_8">
     <g id="line2d_23">
      <path d="M 26.925 30.260982 
L 202.039106 30.260982 
" clip-path="url(#p2771319ec8)" style="fill: none; stroke: #b0b0b0; stroke-width: 0.8; stroke-linecap: square"/>
     </g>
     <g id="line2d_24">
      <g>
       <use xlink:href="#m5a66e9d56b" x="26.925" y="30.260982" style="stroke: #000000; stroke-width: 0.8"/>
      </g>
     </g>
     <g id="text_12">
      <!-- 14 -->
      <g transform="translate(7.2 34.060201)scale(0.1 -0.1)">
       <use xlink:href="#DejaVuSans-31"/>
       <use xlink:href="#DejaVuSans-34" x="63.623047"/>
      </g>
     </g>
    </g>
   </g>
   <g id="patch_28">
    <path d="M 26.925 189.118125 
L 26.925 22.318125 
" style="fill: none; stroke: #000000; stroke-width: 0.8; stroke-linejoin: miter; stroke-linecap: square"/>
   </g>
   <g id="patch_29">
    <path d="M 202.039106 189.118125 
L 202.039106 22.318125 
" style="fill: none; stroke: #000000; stroke-width: 0.8; stroke-linejoin: miter; stroke-linecap: square"/>
   </g>
   <g id="patch_30">
    <path d="M 26.925 189.118125 
L 202.039106 189.118125 
" style="fill: none; stroke: #000000; stroke-width: 0.8; stroke-linejoin: miter; stroke-linecap: square"/>
   </g>
   <g id="patch_31">
    <path d="M 26.925 22.318125 
L 202.039106 22.318125 
" style="fill: none; stroke: #000000; stroke-width: 0.8; stroke-linejoin: miter; stroke-linecap: square"/>
   </g>
   <g id="text_13">
    <!-- SepalLengthCm -->
    <g transform="translate(67.09799 16.318125)scale(0.12 -0.12)">
     <defs>
      <path id="DejaVuSans-53" d="M 3425 4513 
L 3425 3897 
Q 3066 4069 2747 4153 
Q 2428 4238 2131 4238 
Q 1616 4238 1336 4038 
Q 1056 3838 1056 3469 
Q 1056 3159 1242 3001 
Q 1428 2844 1947 2747 
L 2328 2669 
Q 3034 2534 3370 2195 
Q 3706 1856 3706 1288 
Q 3706 609 3251 259 
Q 2797 -91 1919 -91 
Q 1588 -91 1214 -16 
Q 841 59 441 206 
L 441 856 
Q 825 641 1194 531 
Q 1563 422 1919 422 
Q 2459 422 2753 634 
Q 3047 847 3047 1241 
Q 3047 1584 2836 1778 
Q 2625 1972 2144 2069 
L 1759 2144 
Q 1053 2284 737 2584 
Q 422 2884 422 3419 
Q 422 4038 858 4394 
Q 1294 4750 2059 4750 
Q 2388 4750 2728 4690 
Q 3069 4631 3425 4513 
z
" transform="scale(0.015625)"/>
      <path id="DejaVuSans-65" d="M 3597 1894 
L 3597 1613 
L 953 1613 
Q 991 1019 1311 708 
Q 1631 397 2203 397 
Q 2534 397 2845 478 
Q 3156 559 3463 722 
L 3463 178 
Q 3153 47 2828 -22 
Q 2503 -91 2169 -91 
Q 1331 -91 842 396 
Q 353 884 353 1716 
Q 353 2575 817 3079 
Q 1281 3584 2069 3584 
Q 2775 3584 3186 3129 
Q 3597 2675 3597 1894 
z
M 3022 2063 
Q 3016 2534 2758 2815 
Q 2500 3097 2075 3097 
Q 1594 3097 1305 2825 
Q 1016 2553 972 2059 
L 3022 2063 
z
" transform="scale(0.015625)"/>
      <path id="DejaVuSans-70" d="M 1159 525 
L 1159 -1331 
L 581 -1331 
L 581 3500 
L 1159 3500 
L 1159 2969 
Q 1341 3281 1617 3432 
Q 1894 3584 2278 3584 
Q 2916 3584 3314 3078 
Q 3713 2572 3713 1747 
Q 3713 922 3314 415 
Q 2916 -91 2278 -91 
Q 1894 -91 1617 61 
Q 1341 213 1159 525 
z
M 3116 1747 
Q 3116 2381 2855 2742 
Q 2594 3103 2138 3103 
Q 1681 3103 1420 2742 
Q 1159 2381 1159 1747 
Q 1159 1113 1420 752 
Q 1681 391 2138 391 
Q 2594 391 2855 752 
Q 3116 1113 3116 1747 
z
" transform="scale(0.015625)"/>
      <path id="DejaVuSans-61" d="M 2194 1759 
Q 1497 1759 1228 1600 
Q 959 1441 959 1056 
Q 959 750 1161 570 
Q 1363 391 1709 391 
Q 2188 391 2477 730 
Q 2766 1069 2766 1631 
L 2766 1759 
L 2194 1759 
z
M 3341 1997 
L 3341 0 
L 2766 0 
L 2766 531 
Q 2569 213 2275 61 
Q 1981 -91 1556 -91 
Q 1019 -91 701 211 
Q 384 513 384 1019 
Q 384 1609 779 1909 
Q 1175 2209 1959 2209 
L 2766 2209 
L 2766 2266 
Q 2766 2663 2505 2880 
Q 2244 3097 1772 3097 
Q 1472 3097 1187 3025 
Q 903 2953 641 2809 
L 641 3341 
Q 956 3463 1253 3523 
Q 1550 3584 1831 3584 
Q 2591 3584 2966 3190 
Q 3341 2797 3341 1997 
z
" transform="scale(0.015625)"/>
      <path id="DejaVuSans-6c" d="M 603 4863 
L 1178 4863 
L 1178 0 
L 603 0 
L 603 4863 
z
" transform="scale(0.015625)"/>
      <path id="DejaVuSans-4c" d="M 628 4666 
L 1259 4666 
L 1259 531 
L 3531 531 
L 3531 0 
L 628 0 
L 628 4666 
z
" transform="scale(0.015625)"/>
      <path id="DejaVuSans-6e" d="M 3513 2113 
L 3513 0 
L 2938 0 
L 2938 2094 
Q 2938 2591 2744 2837 
Q 2550 3084 2163 3084 
Q 1697 3084 1428 2787 
Q 1159 2491 1159 1978 
L 1159 0 
L 581 0 
L 581 3500 
L 1159 3500 
L 1159 2956 
Q 1366 3272 1645 3428 
Q 1925 3584 2291 3584 
Q 2894 3584 3203 3211 
Q 3513 2838 3513 2113 
z
" transform="scale(0.015625)"/>
      <path id="DejaVuSans-67" d="M 2906 1791 
Q 2906 2416 2648 2759 
Q 2391 3103 1925 3103 
Q 1463 3103 1205 2759 
Q 947 2416 947 1791 
Q 947 1169 1205 825 
Q 1463 481 1925 481 
Q 2391 481 2648 825 
Q 2906 1169 2906 1791 
z
M 3481 434 
Q 3481 -459 3084 -895 
Q 2688 -1331 1869 -1331 
Q 1566 -1331 1297 -1286 
Q 1028 -1241 775 -1147 
L 775 -588 
Q 1028 -725 1275 -790 
Q 1522 -856 1778 -856 
Q 2344 -856 2625 -561 
Q 2906 -266 2906 331 
L 2906 616 
Q 2728 306 2450 153 
Q 2172 0 1784 0 
Q 1141 0 747 490 
Q 353 981 353 1791 
Q 353 2603 747 3093 
Q 1141 3584 1784 3584 
Q 2172 3584 2450 3431 
Q 2728 3278 2906 2969 
L 2906 3500 
L 3481 3500 
L 3481 434 
z
" transform="scale(0.015625)"/>
      <path id="DejaVuSans-74" d="M 1172 4494 
L 1172 3500 
L 2356 3500 
L 2356 3053 
L 1172 3053 
L 1172 1153 
Q 1172 725 1289 603 
Q 1406 481 1766 481 
L 2356 481 
L 2356 0 
L 1766 0 
Q 1100 0 847 248 
Q 594 497 594 1153 
L 594 3053 
L 172 3053 
L 172 3500 
L 594 3500 
L 594 4494 
L 1172 4494 
z
" transform="scale(0.015625)"/>
      <path id="DejaVuSans-68" d="M 3513 2113 
L 3513 0 
L 2938 0 
L 2938 2094 
Q 2938 2591 2744 2837 
Q 2550 3084 2163 3084 
Q 1697 3084 1428 2787 
Q 1159 2491 1159 1978 
L 1159 0 
L 581 0 
L 581 4863 
L 1159 4863 
L 1159 2956 
Q 1366 3272 1645 3428 
Q 1925 3584 2291 3584 
Q 2894 3584 3203 3211 
Q 3513 2838 3513 2113 
z
" transform="scale(0.015625)"/>
      <path id="DejaVuSans-43" d="M 4122 4306 
L 4122 3641 
Q 3803 3938 3442 4084 
Q 3081 4231 2675 4231 
Q 1875 4231 1450 3742 
Q 1025 3253 1025 2328 
Q 1025 1406 1450 917 
Q 1875 428 2675 428 
Q 3081 428 3442 575 
Q 3803 722 4122 1019 
L 4122 359 
Q 3791 134 3420 21 
Q 3050 -91 2638 -91 
Q 1578 -91 968 557 
Q 359 1206 359 2328 
Q 359 3453 968 4101 
Q 1578 4750 2638 4750 
Q 3056 4750 3426 4639 
Q 3797 4528 4122 4306 
z
" transform="scale(0.015625)"/>
      <path id="DejaVuSans-6d" d="M 3328 2828 
Q 3544 3216 3844 3400 
Q 4144 3584 4550 3584 
Q 5097 3584 5394 3201 
Q 5691 2819 5691 2113 
L 5691 0 
L 5113 0 
L 5113 2094 
Q 5113 2597 4934 2840 
Q 4756 3084 4391 3084 
Q 3944 3084 3684 2787 
Q 3425 2491 3425 1978 
L 3425 0 
L 2847 0 
L 2847 2094 
Q 2847 2600 2669 2842 
Q 2491 3084 2119 3084 
Q 1678 3084 1418 2786 
Q 1159 2488 1159 1978 
L 1159 0 
L 581 0 
L 581 3500 
L 1159 3500 
L 1159 2956 
Q 1356 3278 1631 3431 
Q 1906 3584 2284 3584 
Q 2666 3584 2933 3390 
Q 3200 3197 3328 2828 
z
" transform="scale(0.015625)"/>
     </defs>
     <use xlink:href="#DejaVuSans-53"/>
     <use xlink:href="#DejaVuSans-65" x="63.476562"/>
     <use xlink:href="#DejaVuSans-70" x="125"/>
     <use xlink:href="#DejaVuSans-61" x="188.476562"/>
     <use xlink:href="#DejaVuSans-6c" x="249.755859"/>
     <use xlink:href="#DejaVuSans-4c" x="277.539062"/>
     <use xlink:href="#DejaVuSans-65" x="331.501953"/>
     <use xlink:href="#DejaVuSans-6e" x="393.025391"/>
     <use xlink:href="#DejaVuSans-67" x="456.404297"/>
     <use xlink:href="#DejaVuSans-74" x="519.880859"/>
     <use xlink:href="#DejaVuSans-68" x="559.089844"/>
     <use xlink:href="#DejaVuSans-43" x="622.46875"/>
     <use xlink:href="#DejaVuSans-6d" x="692.292969"/>
    </g>
   </g>
  </g>
  <g id="axes_2">
   <g id="patch_32">
    <path d="M 232.835894 189.118125 
L 407.95 189.118125 
L 407.95 22.318125 
L 232.835894 22.318125 
z
" style="fill: #ffffff"/>
   </g>
   <g id="patch_33">
    <path d="M 240.795626 189.118125 
L 247.163412 189.118125 
L 247.163412 183.008235 
L 240.795626 183.008235 
z
" clip-path="url(#p179b6f010c)" style="fill: #1f77b4"/>
   </g>
   <g id="patch_34">
    <path d="M 247.163412 189.118125 
L 253.531198 189.118125 
L 253.531198 189.118125 
L 247.163412 189.118125 
z
" clip-path="url(#p179b6f010c)" style="fill: #1f77b4"/>
   </g>
   <g id="patch_35">
    <path d="M 253.531198 189.118125 
L 259.898983 189.118125 
L 259.898983 170.788455 
L 253.531198 170.788455 
z
" clip-path="url(#p179b6f010c)" style="fill: #1f77b4"/>
   </g>
   <g id="patch_36">
    <path d="M 259.898983 189.118125 
L 266.266769 189.118125 
L 266.266769 164.678565 
L 259.898983 164.678565 
z
" clip-path="url(#p179b6f010c)" style="fill: #1f77b4"/>
   </g>
   <g id="patch_37">
    <path d="M 266.266769 189.118125 
L 272.634555 189.118125 
L 272.634555 170.788455 
L 266.266769 170.788455 
z
" clip-path="url(#p179b6f010c)" style="fill: #1f77b4"/>
   </g>
   <g id="patch_38">
    <path d="M 272.634555 189.118125 
L 279.00234 189.118125 
L 279.00234 140.239004 
L 272.634555 140.239004 
z
" clip-path="url(#p179b6f010c)" style="fill: #1f77b4"/>
   </g>
   <g id="patch_39">
    <path d="M 279.00234 189.118125 
L 285.370126 189.118125 
L 285.370126 158.568674 
L 279.00234 158.568674 
z
" clip-path="url(#p179b6f010c)" style="fill: #1f77b4"/>
   </g>
   <g id="patch_40">
    <path d="M 285.370126 189.118125 
L 291.737912 189.118125 
L 291.737912 140.239004 
L 285.370126 140.239004 
z
" clip-path="url(#p179b6f010c)" style="fill: #1f77b4"/>
   </g>
   <g id="patch_41">
    <path d="M 291.737912 189.118125 
L 298.105697 189.118125 
L 298.105697 103.579663 
L 291.737912 103.579663 
z
" clip-path="url(#p179b6f010c)" style="fill: #1f77b4"/>
   </g>
   <g id="patch_42">
    <path d="M 298.105697 189.118125 
L 304.473483 189.118125 
L 304.473483 128.019224 
L 298.105697 128.019224 
z
" clip-path="url(#p179b6f010c)" style="fill: #1f77b4"/>
   </g>
   <g id="patch_43">
    <path d="M 304.473483 189.118125 
L 310.841269 189.118125 
L 310.841269 30.260982 
L 304.473483 30.260982 
z
" clip-path="url(#p179b6f010c)" style="fill: #1f77b4"/>
   </g>
   <g id="patch_44">
    <path d="M 310.841269 189.118125 
L 317.209054 189.118125 
L 317.209054 128.019224 
L 310.841269 128.019224 
z
" clip-path="url(#p179b6f010c)" style="fill: #1f77b4"/>
   </g>
   <g id="patch_45">
    <path d="M 317.209054 189.118125 
L 323.57684 189.118125 
L 323.57684 109.689554 
L 317.209054 109.689554 
z
" clip-path="url(#p179b6f010c)" style="fill: #1f77b4"/>
   </g>
   <g id="patch_46">
    <path d="M 323.57684 189.118125 
L 329.944626 189.118125 
L 329.944626 152.458784 
L 323.57684 152.458784 
z
" clip-path="url(#p179b6f010c)" style="fill: #1f77b4"/>
   </g>
   <g id="patch_47">
    <path d="M 329.944626 189.118125 
L 336.312411 189.118125 
L 336.312411 115.799444 
L 329.944626 115.799444 
z
" clip-path="url(#p179b6f010c)" style="fill: #1f77b4"/>
   </g>
   <g id="patch_48">
    <path d="M 336.312411 189.118125 
L 342.680197 189.118125 
L 342.680197 152.458784 
L 336.312411 152.458784 
z
" clip-path="url(#p179b6f010c)" style="fill: #1f77b4"/>
   </g>
   <g id="patch_49">
    <path d="M 342.680197 189.118125 
L 349.047983 189.118125 
L 349.047983 170.788455 
L 342.680197 170.788455 
z
" clip-path="url(#p179b6f010c)" style="fill: #1f77b4"/>
   </g>
   <g id="patch_50">
    <path d="M 349.047983 189.118125 
L 355.415768 189.118125 
L 355.415768 170.788455 
L 349.047983 170.788455 
z
" clip-path="url(#p179b6f010c)" style="fill: #1f77b4"/>
   </g>
   <g id="patch_51">
    <path d="M 355.415768 189.118125 
L 361.783554 189.118125 
L 361.783554 152.458784 
L 355.415768 152.458784 
z
" clip-path="url(#p179b6f010c)" style="fill: #1f77b4"/>
   </g>
   <g id="patch_52">
    <path d="M 361.783554 189.118125 
L 368.15134 189.118125 
L 368.15134 176.898345 
L 361.783554 176.898345 
z
" clip-path="url(#p179b6f010c)" style="fill: #1f77b4"/>
   </g>
   <g id="patch_53">
    <path d="M 368.15134 189.118125 
L 374.519125 189.118125 
L 374.519125 183.008235 
L 368.15134 183.008235 
z
" clip-path="url(#p179b6f010c)" style="fill: #1f77b4"/>
   </g>
   <g id="patch_54">
    <path d="M 374.519125 189.118125 
L 380.886911 189.118125 
L 380.886911 183.008235 
L 374.519125 183.008235 
z
" clip-path="url(#p179b6f010c)" style="fill: #1f77b4"/>
   </g>
   <g id="patch_55">
    <path d="M 380.886911 189.118125 
L 387.254697 189.118125 
L 387.254697 183.008235 
L 380.886911 183.008235 
z
" clip-path="url(#p179b6f010c)" style="fill: #1f77b4"/>
   </g>
   <g id="patch_56">
    <path d="M 387.254697 189.118125 
L 393.622482 189.118125 
L 393.622482 189.118125 
L 387.254697 189.118125 
z
" clip-path="url(#p179b6f010c)" style="fill: #1f77b4"/>
   </g>
   <g id="patch_57">
    <path d="M 393.622482 189.118125 
L 399.990268 189.118125 
L 399.990268 183.008235 
L 393.622482 183.008235 
z
" clip-path="url(#p179b6f010c)" style="fill: #1f77b4"/>
   </g>
   <g id="matplotlib.axis_3">
    <g id="xtick_5">
     <g id="line2d_25">
      <path d="M 240.795626 189.118125 
L 240.795626 22.318125 
" clip-path="url(#p179b6f010c)" style="fill: none; stroke: #b0b0b0; stroke-width: 0.8; stroke-linecap: square"/>
     </g>
     <g id="line2d_26">
      <g>
       <use xlink:href="#md862e37cc8" x="240.795626" y="189.118125" style="stroke: #000000; stroke-width: 0.8"/>
      </g>
     </g>
     <g id="text_14">
      <!-- 2 -->
      <g transform="translate(237.614376 203.716562)scale(0.1 -0.1)">
       <use xlink:href="#DejaVuSans-32"/>
      </g>
     </g>
    </g>
    <g id="xtick_6">
     <g id="line2d_27">
      <path d="M 307.126727 189.118125 
L 307.126727 22.318125 
" clip-path="url(#p179b6f010c)" style="fill: none; stroke: #b0b0b0; stroke-width: 0.8; stroke-linecap: square"/>
     </g>
     <g id="line2d_28">
      <g>
       <use xlink:href="#md862e37cc8" x="307.126727" y="189.118125" style="stroke: #000000; stroke-width: 0.8"/>
      </g>
     </g>
     <g id="text_15">
      <!-- 3 -->
      <g transform="translate(303.945477 203.716562)scale(0.1 -0.1)">
       <defs>
        <path id="DejaVuSans-33" d="M 2597 2516 
Q 3050 2419 3304 2112 
Q 3559 1806 3559 1356 
Q 3559 666 3084 287 
Q 2609 -91 1734 -91 
Q 1441 -91 1130 -33 
Q 819 25 488 141 
L 488 750 
Q 750 597 1062 519 
Q 1375 441 1716 441 
Q 2309 441 2620 675 
Q 2931 909 2931 1356 
Q 2931 1769 2642 2001 
Q 2353 2234 1838 2234 
L 1294 2234 
L 1294 2753 
L 1863 2753 
Q 2328 2753 2575 2939 
Q 2822 3125 2822 3475 
Q 2822 3834 2567 4026 
Q 2313 4219 1838 4219 
Q 1578 4219 1281 4162 
Q 984 4106 628 3988 
L 628 4550 
Q 988 4650 1302 4700 
Q 1616 4750 1894 4750 
Q 2613 4750 3031 4423 
Q 3450 4097 3450 3541 
Q 3450 3153 3228 2886 
Q 3006 2619 2597 2516 
z
" transform="scale(0.015625)"/>
       </defs>
       <use xlink:href="#DejaVuSans-33"/>
      </g>
     </g>
    </g>
    <g id="xtick_7">
     <g id="line2d_29">
      <path d="M 373.457828 189.118125 
L 373.457828 22.318125 
" clip-path="url(#p179b6f010c)" style="fill: none; stroke: #b0b0b0; stroke-width: 0.8; stroke-linecap: square"/>
     </g>
     <g id="line2d_30">
      <g>
       <use xlink:href="#md862e37cc8" x="373.457828" y="189.118125" style="stroke: #000000; stroke-width: 0.8"/>
      </g>
     </g>
     <g id="text_16">
      <!-- 4 -->
      <g transform="translate(370.276578 203.716562)scale(0.1 -0.1)">
       <use xlink:href="#DejaVuSans-34"/>
      </g>
     </g>
    </g>
   </g>
   <g id="matplotlib.axis_4">
    <g id="ytick_9">
     <g id="line2d_31">
      <path d="M 232.835894 189.118125 
L 407.95 189.118125 
" clip-path="url(#p179b6f010c)" style="fill: none; stroke: #b0b0b0; stroke-width: 0.8; stroke-linecap: square"/>
     </g>
     <g id="line2d_32">
      <g>
       <use xlink:href="#m5a66e9d56b" x="232.835894" y="189.118125" style="stroke: #000000; stroke-width: 0.8"/>
      </g>
     </g>
     <g id="text_17">
      <!-- 0 -->
      <g transform="translate(219.473394 192.917344)scale(0.1 -0.1)">
       <use xlink:href="#DejaVuSans-30"/>
      </g>
     </g>
    </g>
    <g id="ytick_10">
     <g id="line2d_33">
      <path d="M 232.835894 158.568674 
L 407.95 158.568674 
" clip-path="url(#p179b6f010c)" style="fill: none; stroke: #b0b0b0; stroke-width: 0.8; stroke-linecap: square"/>
     </g>
     <g id="line2d_34">
      <g>
       <use xlink:href="#m5a66e9d56b" x="232.835894" y="158.568674" style="stroke: #000000; stroke-width: 0.8"/>
      </g>
     </g>
     <g id="text_18">
      <!-- 5 -->
      <g transform="translate(219.473394 162.367893)scale(0.1 -0.1)">
       <use xlink:href="#DejaVuSans-35"/>
      </g>
     </g>
    </g>
    <g id="ytick_11">
     <g id="line2d_35">
      <path d="M 232.835894 128.019224 
L 407.95 128.019224 
" clip-path="url(#p179b6f010c)" style="fill: none; stroke: #b0b0b0; stroke-width: 0.8; stroke-linecap: square"/>
     </g>
     <g id="line2d_36">
      <g>
       <use xlink:href="#m5a66e9d56b" x="232.835894" y="128.019224" style="stroke: #000000; stroke-width: 0.8"/>
      </g>
     </g>
     <g id="text_19">
      <!-- 10 -->
      <g transform="translate(213.110894 131.818443)scale(0.1 -0.1)">
       <use xlink:href="#DejaVuSans-31"/>
       <use xlink:href="#DejaVuSans-30" x="63.623047"/>
      </g>
     </g>
    </g>
    <g id="ytick_12">
     <g id="line2d_37">
      <path d="M 232.835894 97.469773 
L 407.95 97.469773 
" clip-path="url(#p179b6f010c)" style="fill: none; stroke: #b0b0b0; stroke-width: 0.8; stroke-linecap: square"/>
     </g>
     <g id="line2d_38">
      <g>
       <use xlink:href="#m5a66e9d56b" x="232.835894" y="97.469773" style="stroke: #000000; stroke-width: 0.8"/>
      </g>
     </g>
     <g id="text_20">
      <!-- 15 -->
      <g transform="translate(213.110894 101.268992)scale(0.1 -0.1)">
       <use xlink:href="#DejaVuSans-31"/>
       <use xlink:href="#DejaVuSans-35" x="63.623047"/>
      </g>
     </g>
    </g>
    <g id="ytick_13">
     <g id="line2d_39">
      <path d="M 232.835894 66.920323 
L 407.95 66.920323 
" clip-path="url(#p179b6f010c)" style="fill: none; stroke: #b0b0b0; stroke-width: 0.8; stroke-linecap: square"/>
     </g>
     <g id="line2d_40">
      <g>
       <use xlink:href="#m5a66e9d56b" x="232.835894" y="66.920323" style="stroke: #000000; stroke-width: 0.8"/>
      </g>
     </g>
     <g id="text_21">
      <!-- 20 -->
      <g transform="translate(213.110894 70.719542)scale(0.1 -0.1)">
       <use xlink:href="#DejaVuSans-32"/>
       <use xlink:href="#DejaVuSans-30" x="63.623047"/>
      </g>
     </g>
    </g>
    <g id="ytick_14">
     <g id="line2d_41">
      <path d="M 232.835894 36.370872 
L 407.95 36.370872 
" clip-path="url(#p179b6f010c)" style="fill: none; stroke: #b0b0b0; stroke-width: 0.8; stroke-linecap: square"/>
     </g>
     <g id="line2d_42">
      <g>
       <use xlink:href="#m5a66e9d56b" x="232.835894" y="36.370872" style="stroke: #000000; stroke-width: 0.8"/>
      </g>
     </g>
     <g id="text_22">
      <!-- 25 -->
      <g transform="translate(213.110894 40.170091)scale(0.1 -0.1)">
       <use xlink:href="#DejaVuSans-32"/>
       <use xlink:href="#DejaVuSans-35" x="63.623047"/>
      </g>
     </g>
    </g>
   </g>
   <g id="patch_58">
    <path d="M 232.835894 189.118125 
L 232.835894 22.318125 
" style="fill: none; stroke: #000000; stroke-width: 0.8; stroke-linejoin: miter; stroke-linecap: square"/>
   </g>
   <g id="patch_59">
    <path d="M 407.95 189.118125 
L 407.95 22.318125 
" style="fill: none; stroke: #000000; stroke-width: 0.8; stroke-linejoin: miter; stroke-linecap: square"/>
   </g>
   <g id="patch_60">
    <path d="M 232.835894 189.118125 
L 407.95 189.118125 
" style="fill: none; stroke: #000000; stroke-width: 0.8; stroke-linejoin: miter; stroke-linecap: square"/>
   </g>
   <g id="patch_61">
    <path d="M 232.835894 22.318125 
L 407.95 22.318125 
" style="fill: none; stroke: #000000; stroke-width: 0.8; stroke-linejoin: miter; stroke-linecap: square"/>
   </g>
   <g id="text_23">
    <!-- SepalWidthCm -->
    <g transform="translate(276.27701 16.318125)scale(0.12 -0.12)">
     <defs>
      <path id="DejaVuSans-57" d="M 213 4666 
L 850 4666 
L 1831 722 
L 2809 4666 
L 3519 4666 
L 4500 722 
L 5478 4666 
L 6119 4666 
L 4947 0 
L 4153 0 
L 3169 4050 
L 2175 0 
L 1381 0 
L 213 4666 
z
" transform="scale(0.015625)"/>
      <path id="DejaVuSans-69" d="M 603 3500 
L 1178 3500 
L 1178 0 
L 603 0 
L 603 3500 
z
M 603 4863 
L 1178 4863 
L 1178 4134 
L 603 4134 
L 603 4863 
z
" transform="scale(0.015625)"/>
      <path id="DejaVuSans-64" d="M 2906 2969 
L 2906 4863 
L 3481 4863 
L 3481 0 
L 2906 0 
L 2906 525 
Q 2725 213 2448 61 
Q 2172 -91 1784 -91 
Q 1150 -91 751 415 
Q 353 922 353 1747 
Q 353 2572 751 3078 
Q 1150 3584 1784 3584 
Q 2172 3584 2448 3432 
Q 2725 3281 2906 2969 
z
M 947 1747 
Q 947 1113 1208 752 
Q 1469 391 1925 391 
Q 2381 391 2643 752 
Q 2906 1113 2906 1747 
Q 2906 2381 2643 2742 
Q 2381 3103 1925 3103 
Q 1469 3103 1208 2742 
Q 947 2381 947 1747 
z
" transform="scale(0.015625)"/>
     </defs>
     <use xlink:href="#DejaVuSans-53"/>
     <use xlink:href="#DejaVuSans-65" x="63.476562"/>
     <use xlink:href="#DejaVuSans-70" x="125"/>
     <use xlink:href="#DejaVuSans-61" x="188.476562"/>
     <use xlink:href="#DejaVuSans-6c" x="249.755859"/>
     <use xlink:href="#DejaVuSans-57" x="277.539062"/>
     <use xlink:href="#DejaVuSans-69" x="374.166016"/>
     <use xlink:href="#DejaVuSans-64" x="401.949219"/>
     <use xlink:href="#DejaVuSans-74" x="465.425781"/>
     <use xlink:href="#DejaVuSans-68" x="504.634766"/>
     <use xlink:href="#DejaVuSans-43" x="568.013672"/>
     <use xlink:href="#DejaVuSans-6d" x="637.837891"/>
    </g>
   </g>
  </g>
  <g id="axes_3">
   <g id="patch_62">
    <path d="M 26.925 399.718125 
L 202.039106 399.718125 
L 202.039106 232.918125 
L 26.925 232.918125 
z
" style="fill: #ffffff"/>
   </g>
   <g id="patch_63">
    <path d="M 34.884732 399.718125 
L 41.252518 399.718125 
L 41.252518 372.090796 
L 34.884732 372.090796 
z
" clip-path="url(#pa6cf3b7354)" style="fill: #1f77b4"/>
   </g>
   <g id="patch_64">
    <path d="M 41.252518 399.718125 
L 47.620303 399.718125 
L 47.620303 268.488311 
L 41.252518 268.488311 
z
" clip-path="url(#pa6cf3b7354)" style="fill: #1f77b4"/>
   </g>
   <g id="patch_65">
    <path d="M 47.620303 399.718125 
L 53.988089 399.718125 
L 53.988089 240.860982 
L 47.620303 240.860982 
z
" clip-path="url(#pa6cf3b7354)" style="fill: #1f77b4"/>
   </g>
   <g id="patch_66">
    <path d="M 53.988089 399.718125 
L 60.355875 399.718125 
L 60.355875 385.90446 
L 53.988089 385.90446 
z
" clip-path="url(#pa6cf3b7354)" style="fill: #1f77b4"/>
   </g>
   <g id="patch_67">
    <path d="M 60.355875 399.718125 
L 66.72366 399.718125 
L 66.72366 399.718125 
L 60.355875 399.718125 
z
" clip-path="url(#pa6cf3b7354)" style="fill: #1f77b4"/>
   </g>
   <g id="patch_68">
    <path d="M 66.72366 399.718125 
L 73.091446 399.718125 
L 73.091446 399.718125 
L 66.72366 399.718125 
z
" clip-path="url(#pa6cf3b7354)" style="fill: #1f77b4"/>
   </g>
   <g id="patch_69">
    <path d="M 73.091446 399.718125 
L 79.459232 399.718125 
L 79.459232 399.718125 
L 73.091446 399.718125 
z
" clip-path="url(#pa6cf3b7354)" style="fill: #1f77b4"/>
   </g>
   <g id="patch_70">
    <path d="M 79.459232 399.718125 
L 85.827017 399.718125 
L 85.827017 399.718125 
L 79.459232 399.718125 
z
" clip-path="url(#pa6cf3b7354)" style="fill: #1f77b4"/>
   </g>
   <g id="patch_71">
    <path d="M 85.827017 399.718125 
L 92.194803 399.718125 
L 92.194803 392.811293 
L 85.827017 392.811293 
z
" clip-path="url(#pa6cf3b7354)" style="fill: #1f77b4"/>
   </g>
   <g id="patch_72">
    <path d="M 92.194803 399.718125 
L 98.562589 399.718125 
L 98.562589 385.90446 
L 92.194803 385.90446 
z
" clip-path="url(#pa6cf3b7354)" style="fill: #1f77b4"/>
   </g>
   <g id="patch_73">
    <path d="M 98.562589 399.718125 
L 104.930374 399.718125 
L 104.930374 385.90446 
L 98.562589 385.90446 
z
" clip-path="url(#pa6cf3b7354)" style="fill: #1f77b4"/>
   </g>
   <g id="patch_74">
    <path d="M 104.930374 399.718125 
L 111.29816 399.718125 
L 111.29816 378.997628 
L 104.930374 378.997628 
z
" clip-path="url(#pa6cf3b7354)" style="fill: #1f77b4"/>
   </g>
   <g id="patch_75">
    <path d="M 111.29816 399.718125 
L 117.665946 399.718125 
L 117.665946 344.463467 
L 111.29816 344.463467 
z
" clip-path="url(#pa6cf3b7354)" style="fill: #1f77b4"/>
   </g>
   <g id="patch_76">
    <path d="M 117.665946 399.718125 
L 124.033731 399.718125 
L 124.033731 337.556634 
L 117.665946 337.556634 
z
" clip-path="url(#pa6cf3b7354)" style="fill: #1f77b4"/>
   </g>
   <g id="patch_77">
    <path d="M 124.033731 399.718125 
L 130.401517 399.718125 
L 130.401517 316.836137 
L 124.033731 316.836137 
z
" clip-path="url(#pa6cf3b7354)" style="fill: #1f77b4"/>
   </g>
   <g id="patch_78">
    <path d="M 130.401517 399.718125 
L 136.769303 399.718125 
L 136.769303 344.463467 
L 130.401517 344.463467 
z
" clip-path="url(#pa6cf3b7354)" style="fill: #1f77b4"/>
   </g>
   <g id="patch_79">
    <path d="M 136.769303 399.718125 
L 143.137088 399.718125 
L 143.137088 309.929305 
L 136.769303 309.929305 
z
" clip-path="url(#pa6cf3b7354)" style="fill: #1f77b4"/>
   </g>
   <g id="patch_80">
    <path d="M 143.137088 399.718125 
L 149.504874 399.718125 
L 149.504874 337.556634 
L 143.137088 337.556634 
z
" clip-path="url(#pa6cf3b7354)" style="fill: #1f77b4"/>
   </g>
   <g id="patch_81">
    <path d="M 149.504874 399.718125 
L 155.87266 399.718125 
L 155.87266 372.090796 
L 149.504874 372.090796 
z
" clip-path="url(#pa6cf3b7354)" style="fill: #1f77b4"/>
   </g>
   <g id="patch_82">
    <path d="M 155.87266 399.718125 
L 162.240445 399.718125 
L 162.240445 316.836137 
L 155.87266 316.836137 
z
" clip-path="url(#pa6cf3b7354)" style="fill: #1f77b4"/>
   </g>
   <g id="patch_83">
    <path d="M 162.240445 399.718125 
L 168.608231 399.718125 
L 168.608231 365.183964 
L 162.240445 365.183964 
z
" clip-path="url(#pa6cf3b7354)" style="fill: #1f77b4"/>
   </g>
   <g id="patch_84">
    <path d="M 168.608231 399.718125 
L 174.976017 399.718125 
L 174.976017 365.183964 
L 168.608231 365.183964 
z
" clip-path="url(#pa6cf3b7354)" style="fill: #1f77b4"/>
   </g>
   <g id="patch_85">
    <path d="M 174.976017 399.718125 
L 181.343802 399.718125 
L 181.343802 385.90446 
L 174.976017 385.90446 
z
" clip-path="url(#pa6cf3b7354)" style="fill: #1f77b4"/>
   </g>
   <g id="patch_86">
    <path d="M 181.343802 399.718125 
L 187.711588 399.718125 
L 187.711588 392.811293 
L 181.343802 392.811293 
z
" clip-path="url(#pa6cf3b7354)" style="fill: #1f77b4"/>
   </g>
   <g id="patch_87">
    <path d="M 187.711588 399.718125 
L 194.079374 399.718125 
L 194.079374 378.997628 
L 187.711588 378.997628 
z
" clip-path="url(#pa6cf3b7354)" style="fill: #1f77b4"/>
   </g>
   <g id="matplotlib.axis_5">
    <g id="xtick_8">
     <g id="line2d_43">
      <path d="M 61.866875 399.718125 
L 61.866875 232.918125 
" clip-path="url(#pa6cf3b7354)" style="fill: none; stroke: #b0b0b0; stroke-width: 0.8; stroke-linecap: square"/>
     </g>
     <g id="line2d_44">
      <g>
       <use xlink:href="#md862e37cc8" x="61.866875" y="399.718125" style="stroke: #000000; stroke-width: 0.8"/>
      </g>
     </g>
     <g id="text_24">
      <!-- 2 -->
      <g transform="translate(58.685625 414.316562)scale(0.1 -0.1)">
       <use xlink:href="#DejaVuSans-32"/>
      </g>
     </g>
    </g>
    <g id="xtick_9">
     <g id="line2d_45">
      <path d="M 115.83116 399.718125 
L 115.83116 232.918125 
" clip-path="url(#pa6cf3b7354)" style="fill: none; stroke: #b0b0b0; stroke-width: 0.8; stroke-linecap: square"/>
     </g>
     <g id="line2d_46">
      <g>
       <use xlink:href="#md862e37cc8" x="115.83116" y="399.718125" style="stroke: #000000; stroke-width: 0.8"/>
      </g>
     </g>
     <g id="text_25">
      <!-- 4 -->
      <g transform="translate(112.64991 414.316562)scale(0.1 -0.1)">
       <use xlink:href="#DejaVuSans-34"/>
      </g>
     </g>
    </g>
    <g id="xtick_10">
     <g id="line2d_47">
      <path d="M 169.795445 399.718125 
L 169.795445 232.918125 
" clip-path="url(#pa6cf3b7354)" style="fill: none; stroke: #b0b0b0; stroke-width: 0.8; stroke-linecap: square"/>
     </g>
     <g id="line2d_48">
      <g>
       <use xlink:href="#md862e37cc8" x="169.795445" y="399.718125" style="stroke: #000000; stroke-width: 0.8"/>
      </g>
     </g>
     <g id="text_26">
      <!-- 6 -->
      <g transform="translate(166.614195 414.316562)scale(0.1 -0.1)">
       <use xlink:href="#DejaVuSans-36"/>
      </g>
     </g>
    </g>
   </g>
   <g id="matplotlib.axis_6">
    <g id="ytick_15">
     <g id="line2d_49">
      <path d="M 26.925 399.718125 
L 202.039106 399.718125 
" clip-path="url(#pa6cf3b7354)" style="fill: none; stroke: #b0b0b0; stroke-width: 0.8; stroke-linecap: square"/>
     </g>
     <g id="line2d_50">
      <g>
       <use xlink:href="#m5a66e9d56b" x="26.925" y="399.718125" style="stroke: #000000; stroke-width: 0.8"/>
      </g>
     </g>
     <g id="text_27">
      <!-- 0 -->
      <g transform="translate(13.5625 403.517344)scale(0.1 -0.1)">
       <use xlink:href="#DejaVuSans-30"/>
      </g>
     </g>
    </g>
    <g id="ytick_16">
     <g id="line2d_51">
      <path d="M 26.925 365.183964 
L 202.039106 365.183964 
" clip-path="url(#pa6cf3b7354)" style="fill: none; stroke: #b0b0b0; stroke-width: 0.8; stroke-linecap: square"/>
     </g>
     <g id="line2d_52">
      <g>
       <use xlink:href="#m5a66e9d56b" x="26.925" y="365.183964" style="stroke: #000000; stroke-width: 0.8"/>
      </g>
     </g>
     <g id="text_28">
      <!-- 5 -->
      <g transform="translate(13.5625 368.983182)scale(0.1 -0.1)">
       <use xlink:href="#DejaVuSans-35"/>
      </g>
     </g>
    </g>
    <g id="ytick_17">
     <g id="line2d_53">
      <path d="M 26.925 330.649802 
L 202.039106 330.649802 
" clip-path="url(#pa6cf3b7354)" style="fill: none; stroke: #b0b0b0; stroke-width: 0.8; stroke-linecap: square"/>
     </g>
     <g id="line2d_54">
      <g>
       <use xlink:href="#m5a66e9d56b" x="26.925" y="330.649802" style="stroke: #000000; stroke-width: 0.8"/>
      </g>
     </g>
     <g id="text_29">
      <!-- 10 -->
      <g transform="translate(7.2 334.449021)scale(0.1 -0.1)">
       <use xlink:href="#DejaVuSans-31"/>
       <use xlink:href="#DejaVuSans-30" x="63.623047"/>
      </g>
     </g>
    </g>
    <g id="ytick_18">
     <g id="line2d_55">
      <path d="M 26.925 296.115641 
L 202.039106 296.115641 
" clip-path="url(#pa6cf3b7354)" style="fill: none; stroke: #b0b0b0; stroke-width: 0.8; stroke-linecap: square"/>
     </g>
     <g id="line2d_56">
      <g>
       <use xlink:href="#m5a66e9d56b" x="26.925" y="296.115641" style="stroke: #000000; stroke-width: 0.8"/>
      </g>
     </g>
     <g id="text_30">
      <!-- 15 -->
      <g transform="translate(7.2 299.914859)scale(0.1 -0.1)">
       <use xlink:href="#DejaVuSans-31"/>
       <use xlink:href="#DejaVuSans-35" x="63.623047"/>
      </g>
     </g>
    </g>
    <g id="ytick_19">
     <g id="line2d_57">
      <path d="M 26.925 261.581479 
L 202.039106 261.581479 
" clip-path="url(#pa6cf3b7354)" style="fill: none; stroke: #b0b0b0; stroke-width: 0.8; stroke-linecap: square"/>
     </g>
     <g id="line2d_58">
      <g>
       <use xlink:href="#m5a66e9d56b" x="26.925" y="261.581479" style="stroke: #000000; stroke-width: 0.8"/>
      </g>
     </g>
     <g id="text_31">
      <!-- 20 -->
      <g transform="translate(7.2 265.380698)scale(0.1 -0.1)">
       <use xlink:href="#DejaVuSans-32"/>
       <use xlink:href="#DejaVuSans-30" x="63.623047"/>
      </g>
     </g>
    </g>
   </g>
   <g id="patch_88">
    <path d="M 26.925 399.718125 
L 26.925 232.918125 
" style="fill: none; stroke: #000000; stroke-width: 0.8; stroke-linejoin: miter; stroke-linecap: square"/>
   </g>
   <g id="patch_89">
    <path d="M 202.039106 399.718125 
L 202.039106 232.918125 
" style="fill: none; stroke: #000000; stroke-width: 0.8; stroke-linejoin: miter; stroke-linecap: square"/>
   </g>
   <g id="patch_90">
    <path d="M 26.925 399.718125 
L 202.039106 399.718125 
" style="fill: none; stroke: #000000; stroke-width: 0.8; stroke-linejoin: miter; stroke-linecap: square"/>
   </g>
   <g id="patch_91">
    <path d="M 26.925 232.918125 
L 202.039106 232.918125 
" style="fill: none; stroke: #000000; stroke-width: 0.8; stroke-linejoin: miter; stroke-linecap: square"/>
   </g>
   <g id="text_32">
    <!-- PetalLengthCm -->
    <g transform="translate(68.963615 226.918125)scale(0.12 -0.12)">
     <defs>
      <path id="DejaVuSans-50" d="M 1259 4147 
L 1259 2394 
L 2053 2394 
Q 2494 2394 2734 2622 
Q 2975 2850 2975 3272 
Q 2975 3691 2734 3919 
Q 2494 4147 2053 4147 
L 1259 4147 
z
M 628 4666 
L 2053 4666 
Q 2838 4666 3239 4311 
Q 3641 3956 3641 3272 
Q 3641 2581 3239 2228 
Q 2838 1875 2053 1875 
L 1259 1875 
L 1259 0 
L 628 0 
L 628 4666 
z
" transform="scale(0.015625)"/>
     </defs>
     <use xlink:href="#DejaVuSans-50"/>
     <use xlink:href="#DejaVuSans-65" x="56.677734"/>
     <use xlink:href="#DejaVuSans-74" x="118.201172"/>
     <use xlink:href="#DejaVuSans-61" x="157.410156"/>
     <use xlink:href="#DejaVuSans-6c" x="218.689453"/>
     <use xlink:href="#DejaVuSans-4c" x="246.472656"/>
     <use xlink:href="#DejaVuSans-65" x="300.435547"/>
     <use xlink:href="#DejaVuSans-6e" x="361.958984"/>
     <use xlink:href="#DejaVuSans-67" x="425.337891"/>
     <use xlink:href="#DejaVuSans-74" x="488.814453"/>
     <use xlink:href="#DejaVuSans-68" x="528.023438"/>
     <use xlink:href="#DejaVuSans-43" x="591.402344"/>
     <use xlink:href="#DejaVuSans-6d" x="661.226562"/>
    </g>
   </g>
  </g>
  <g id="axes_4">
   <g id="patch_92">
    <path d="M 232.835894 399.718125 
L 407.95 399.718125 
L 407.95 232.918125 
L 232.835894 232.918125 
z
" style="fill: #ffffff"/>
   </g>
   <g id="patch_93">
    <path d="M 240.795626 399.718125 
L 247.163412 399.718125 
L 247.163412 377.024247 
L 240.795626 377.024247 
z
" clip-path="url(#p15537a9abd)" style="fill: #1f77b4"/>
   </g>
   <g id="patch_94">
    <path d="M 247.163412 399.718125 
L 253.531198 399.718125 
L 253.531198 240.860982 
L 247.163412 240.860982 
z
" clip-path="url(#p15537a9abd)" style="fill: #1f77b4"/>
   </g>
   <g id="patch_95">
    <path d="M 253.531198 399.718125 
L 259.898983 399.718125 
L 259.898983 360.003839 
L 253.531198 360.003839 
z
" clip-path="url(#p15537a9abd)" style="fill: #1f77b4"/>
   </g>
   <g id="patch_96">
    <path d="M 259.898983 399.718125 
L 266.266769 399.718125 
L 266.266769 360.003839 
L 259.898983 360.003839 
z
" clip-path="url(#p15537a9abd)" style="fill: #1f77b4"/>
   </g>
   <g id="patch_97">
    <path d="M 266.266769 399.718125 
L 272.634555 399.718125 
L 272.634555 394.044656 
L 266.266769 394.044656 
z
" clip-path="url(#p15537a9abd)" style="fill: #1f77b4"/>
   </g>
   <g id="patch_98">
    <path d="M 272.634555 399.718125 
L 279.00234 399.718125 
L 279.00234 394.044656 
L 272.634555 394.044656 
z
" clip-path="url(#p15537a9abd)" style="fill: #1f77b4"/>
   </g>
   <g id="patch_99">
    <path d="M 279.00234 399.718125 
L 285.370126 399.718125 
L 285.370126 399.718125 
L 279.00234 399.718125 
z
" clip-path="url(#p15537a9abd)" style="fill: #1f77b4"/>
   </g>
   <g id="patch_100">
    <path d="M 285.370126 399.718125 
L 291.737912 399.718125 
L 291.737912 399.718125 
L 285.370126 399.718125 
z
" clip-path="url(#p15537a9abd)" style="fill: #1f77b4"/>
   </g>
   <g id="patch_101">
    <path d="M 291.737912 399.718125 
L 298.105697 399.718125 
L 298.105697 399.718125 
L 291.737912 399.718125 
z
" clip-path="url(#p15537a9abd)" style="fill: #1f77b4"/>
   </g>
   <g id="patch_102">
    <path d="M 298.105697 399.718125 
L 304.473483 399.718125 
L 304.473483 360.003839 
L 298.105697 360.003839 
z
" clip-path="url(#p15537a9abd)" style="fill: #1f77b4"/>
   </g>
   <g id="patch_103">
    <path d="M 304.473483 399.718125 
L 310.841269 399.718125 
L 310.841269 382.697717 
L 304.473483 382.697717 
z
" clip-path="url(#p15537a9abd)" style="fill: #1f77b4"/>
   </g>
   <g id="patch_104">
    <path d="M 310.841269 399.718125 
L 317.209054 399.718125 
L 317.209054 371.350778 
L 310.841269 371.350778 
z
" clip-path="url(#p15537a9abd)" style="fill: #1f77b4"/>
   </g>
   <g id="patch_105">
    <path d="M 317.209054 399.718125 
L 323.57684 399.718125 
L 323.57684 325.963023 
L 317.209054 325.963023 
z
" clip-path="url(#p15537a9abd)" style="fill: #1f77b4"/>
   </g>
   <g id="patch_106">
    <path d="M 323.57684 399.718125 
L 329.944626 399.718125 
L 329.944626 354.33037 
L 323.57684 354.33037 
z
" clip-path="url(#p15537a9abd)" style="fill: #1f77b4"/>
   </g>
   <g id="patch_107">
    <path d="M 329.944626 399.718125 
L 336.312411 399.718125 
L 336.312411 331.636492 
L 329.944626 331.636492 
z
" clip-path="url(#p15537a9abd)" style="fill: #1f77b4"/>
   </g>
   <g id="patch_108">
    <path d="M 336.312411 399.718125 
L 342.680197 399.718125 
L 342.680197 377.024247 
L 336.312411 377.024247 
z
" clip-path="url(#p15537a9abd)" style="fill: #1f77b4"/>
   </g>
   <g id="patch_109">
    <path d="M 342.680197 399.718125 
L 349.047983 399.718125 
L 349.047983 388.371186 
L 342.680197 388.371186 
z
" clip-path="url(#p15537a9abd)" style="fill: #1f77b4"/>
   </g>
   <g id="patch_110">
    <path d="M 349.047983 399.718125 
L 355.415768 399.718125 
L 355.415768 331.636492 
L 349.047983 331.636492 
z
" clip-path="url(#p15537a9abd)" style="fill: #1f77b4"/>
   </g>
   <g id="patch_111">
    <path d="M 355.415768 399.718125 
L 361.783554 399.718125 
L 361.783554 377.024247 
L 355.415768 377.024247 
z
" clip-path="url(#p15537a9abd)" style="fill: #1f77b4"/>
   </g>
   <g id="patch_112">
    <path d="M 361.783554 399.718125 
L 368.15134 399.718125 
L 368.15134 365.677309 
L 361.783554 365.677309 
z
" clip-path="url(#p15537a9abd)" style="fill: #1f77b4"/>
   </g>
   <g id="patch_113">
    <path d="M 368.15134 399.718125 
L 374.519125 399.718125 
L 374.519125 365.677309 
L 368.15134 365.677309 
z
" clip-path="url(#p15537a9abd)" style="fill: #1f77b4"/>
   </g>
   <g id="patch_114">
    <path d="M 374.519125 399.718125 
L 380.886911 399.718125 
L 380.886911 382.697717 
L 374.519125 382.697717 
z
" clip-path="url(#p15537a9abd)" style="fill: #1f77b4"/>
   </g>
   <g id="patch_115">
    <path d="M 380.886911 399.718125 
L 387.254697 399.718125 
L 387.254697 354.33037 
L 380.886911 354.33037 
z
" clip-path="url(#p15537a9abd)" style="fill: #1f77b4"/>
   </g>
   <g id="patch_116">
    <path d="M 387.254697 399.718125 
L 393.622482 399.718125 
L 393.622482 382.697717 
L 387.254697 382.697717 
z
" clip-path="url(#p15537a9abd)" style="fill: #1f77b4"/>
   </g>
   <g id="patch_117">
    <path d="M 393.622482 399.718125 
L 399.990268 399.718125 
L 399.990268 382.697717 
L 393.622482 382.697717 
z
" clip-path="url(#p15537a9abd)" style="fill: #1f77b4"/>
   </g>
   <g id="matplotlib.axis_7">
    <g id="xtick_11">
     <g id="line2d_59">
      <path d="M 234.162516 399.718125 
L 234.162516 232.918125 
" clip-path="url(#p15537a9abd)" style="fill: none; stroke: #b0b0b0; stroke-width: 0.8; stroke-linecap: square"/>
     </g>
     <g id="line2d_60">
      <g>
       <use xlink:href="#md862e37cc8" x="234.162516" y="399.718125" style="stroke: #000000; stroke-width: 0.8"/>
      </g>
     </g>
     <g id="text_33">
      <!-- 0 -->
      <g transform="translate(230.981266 414.316562)scale(0.1 -0.1)">
       <use xlink:href="#DejaVuSans-30"/>
      </g>
     </g>
    </g>
    <g id="xtick_12">
     <g id="line2d_61">
      <path d="M 300.493617 399.718125 
L 300.493617 232.918125 
" clip-path="url(#p15537a9abd)" style="fill: none; stroke: #b0b0b0; stroke-width: 0.8; stroke-linecap: square"/>
     </g>
     <g id="line2d_62">
      <g>
       <use xlink:href="#md862e37cc8" x="300.493617" y="399.718125" style="stroke: #000000; stroke-width: 0.8"/>
      </g>
     </g>
     <g id="text_34">
      <!-- 1 -->
      <g transform="translate(297.312367 414.316562)scale(0.1 -0.1)">
       <use xlink:href="#DejaVuSans-31"/>
      </g>
     </g>
    </g>
    <g id="xtick_13">
     <g id="line2d_63">
      <path d="M 366.824718 399.718125 
L 366.824718 232.918125 
" clip-path="url(#p15537a9abd)" style="fill: none; stroke: #b0b0b0; stroke-width: 0.8; stroke-linecap: square"/>
     </g>
     <g id="line2d_64">
      <g>
       <use xlink:href="#md862e37cc8" x="366.824718" y="399.718125" style="stroke: #000000; stroke-width: 0.8"/>
      </g>
     </g>
     <g id="text_35">
      <!-- 2 -->
      <g transform="translate(363.643468 414.316562)scale(0.1 -0.1)">
       <use xlink:href="#DejaVuSans-32"/>
      </g>
     </g>
    </g>
   </g>
   <g id="matplotlib.axis_8">
    <g id="ytick_20">
     <g id="line2d_65">
      <path d="M 232.835894 399.718125 
L 407.95 399.718125 
" clip-path="url(#p15537a9abd)" style="fill: none; stroke: #b0b0b0; stroke-width: 0.8; stroke-linecap: square"/>
     </g>
     <g id="line2d_66">
      <g>
       <use xlink:href="#m5a66e9d56b" x="232.835894" y="399.718125" style="stroke: #000000; stroke-width: 0.8"/>
      </g>
     </g>
     <g id="text_36">
      <!-- 0 -->
      <g transform="translate(219.473394 403.517344)scale(0.1 -0.1)">
       <use xlink:href="#DejaVuSans-30"/>
      </g>
     </g>
    </g>
    <g id="ytick_21">
     <g id="line2d_67">
      <path d="M 232.835894 371.350778 
L 407.95 371.350778 
" clip-path="url(#p15537a9abd)" style="fill: none; stroke: #b0b0b0; stroke-width: 0.8; stroke-linecap: square"/>
     </g>
     <g id="line2d_68">
      <g>
       <use xlink:href="#m5a66e9d56b" x="232.835894" y="371.350778" style="stroke: #000000; stroke-width: 0.8"/>
      </g>
     </g>
     <g id="text_37">
      <!-- 5 -->
      <g transform="translate(219.473394 375.149997)scale(0.1 -0.1)">
       <use xlink:href="#DejaVuSans-35"/>
      </g>
     </g>
    </g>
    <g id="ytick_22">
     <g id="line2d_69">
      <path d="M 232.835894 342.983431 
L 407.95 342.983431 
" clip-path="url(#p15537a9abd)" style="fill: none; stroke: #b0b0b0; stroke-width: 0.8; stroke-linecap: square"/>
     </g>
     <g id="line2d_70">
      <g>
       <use xlink:href="#m5a66e9d56b" x="232.835894" y="342.983431" style="stroke: #000000; stroke-width: 0.8"/>
      </g>
     </g>
     <g id="text_38">
      <!-- 10 -->
      <g transform="translate(213.110894 346.78265)scale(0.1 -0.1)">
       <use xlink:href="#DejaVuSans-31"/>
       <use xlink:href="#DejaVuSans-30" x="63.623047"/>
      </g>
     </g>
    </g>
    <g id="ytick_23">
     <g id="line2d_71">
      <path d="M 232.835894 314.616084 
L 407.95 314.616084 
" clip-path="url(#p15537a9abd)" style="fill: none; stroke: #b0b0b0; stroke-width: 0.8; stroke-linecap: square"/>
     </g>
     <g id="line2d_72">
      <g>
       <use xlink:href="#m5a66e9d56b" x="232.835894" y="314.616084" style="stroke: #000000; stroke-width: 0.8"/>
      </g>
     </g>
     <g id="text_39">
      <!-- 15 -->
      <g transform="translate(213.110894 318.415303)scale(0.1 -0.1)">
       <use xlink:href="#DejaVuSans-31"/>
       <use xlink:href="#DejaVuSans-35" x="63.623047"/>
      </g>
     </g>
    </g>
    <g id="ytick_24">
     <g id="line2d_73">
      <path d="M 232.835894 286.248737 
L 407.95 286.248737 
" clip-path="url(#p15537a9abd)" style="fill: none; stroke: #b0b0b0; stroke-width: 0.8; stroke-linecap: square"/>
     </g>
     <g id="line2d_74">
      <g>
       <use xlink:href="#m5a66e9d56b" x="232.835894" y="286.248737" style="stroke: #000000; stroke-width: 0.8"/>
      </g>
     </g>
     <g id="text_40">
      <!-- 20 -->
      <g transform="translate(213.110894 290.047956)scale(0.1 -0.1)">
       <use xlink:href="#DejaVuSans-32"/>
       <use xlink:href="#DejaVuSans-30" x="63.623047"/>
      </g>
     </g>
    </g>
    <g id="ytick_25">
     <g id="line2d_75">
      <path d="M 232.835894 257.88139 
L 407.95 257.88139 
" clip-path="url(#p15537a9abd)" style="fill: none; stroke: #b0b0b0; stroke-width: 0.8; stroke-linecap: square"/>
     </g>
     <g id="line2d_76">
      <g>
       <use xlink:href="#m5a66e9d56b" x="232.835894" y="257.88139" style="stroke: #000000; stroke-width: 0.8"/>
      </g>
     </g>
     <g id="text_41">
      <!-- 25 -->
      <g transform="translate(213.110894 261.680609)scale(0.1 -0.1)">
       <use xlink:href="#DejaVuSans-32"/>
       <use xlink:href="#DejaVuSans-35" x="63.623047"/>
      </g>
     </g>
    </g>
   </g>
   <g id="patch_118">
    <path d="M 232.835894 399.718125 
L 232.835894 232.918125 
" style="fill: none; stroke: #000000; stroke-width: 0.8; stroke-linejoin: miter; stroke-linecap: square"/>
   </g>
   <g id="patch_119">
    <path d="M 407.95 399.718125 
L 407.95 232.918125 
" style="fill: none; stroke: #000000; stroke-width: 0.8; stroke-linejoin: miter; stroke-linecap: square"/>
   </g>
   <g id="patch_120">
    <path d="M 232.835894 399.718125 
L 407.95 399.718125 
" style="fill: none; stroke: #000000; stroke-width: 0.8; stroke-linejoin: miter; stroke-linecap: square"/>
   </g>
   <g id="patch_121">
    <path d="M 232.835894 232.918125 
L 407.95 232.918125 
" style="fill: none; stroke: #000000; stroke-width: 0.8; stroke-linejoin: miter; stroke-linecap: square"/>
   </g>
   <g id="text_42">
    <!-- PetalWidthCm -->
    <g transform="translate(278.142635 226.918125)scale(0.12 -0.12)">
     <use xlink:href="#DejaVuSans-50"/>
     <use xlink:href="#DejaVuSans-65" x="56.677734"/>
     <use xlink:href="#DejaVuSans-74" x="118.201172"/>
     <use xlink:href="#DejaVuSans-61" x="157.410156"/>
     <use xlink:href="#DejaVuSans-6c" x="218.689453"/>
     <use xlink:href="#DejaVuSans-57" x="246.472656"/>
     <use xlink:href="#DejaVuSans-69" x="343.099609"/>
     <use xlink:href="#DejaVuSans-64" x="370.882812"/>
     <use xlink:href="#DejaVuSans-74" x="434.359375"/>
     <use xlink:href="#DejaVuSans-68" x="473.568359"/>
     <use xlink:href="#DejaVuSans-43" x="536.947266"/>
     <use xlink:href="#DejaVuSans-6d" x="606.771484"/>
    </g>
   </g>
  </g>
 </g>
 <defs>
  <clipPath id="p2771319ec8">
   <rect x="26.925" y="22.318125" width="175.114106" height="166.8"/>
  </clipPath>
  <clipPath id="p179b6f010c">
   <rect x="232.835894" y="22.318125" width="175.114106" height="166.8"/>
  </clipPath>
  <clipPath id="pa6cf3b7354">
   <rect x="26.925" y="232.918125" width="175.114106" height="166.8"/>
  </clipPath>
  <clipPath id="p15537a9abd">
   <rect x="232.835894" y="232.918125" width="175.114106" height="166.8"/>
  </clipPath>
 </defs>
</svg>
