<?xml version="1.0" encoding="utf-8" standalone="no"?>
<!DOCTYPE svg PUBLIC "-//W3C//DTD SVG 1.1//EN"
  "http://www.w3.org/Graphics/SVG/1.1/DTD/svg11.dtd">
<svg xmlns:xlink="http://www.w3.org/1999/xlink" width="485.26174pt" height="481.07625pt" viewBox="0 0 485.26174 481.07625" xmlns="http://www.w3.org/2000/svg" version="1.1">
 <metadata>
  <rdf:RDF xmlns:dc="http://purl.org/dc/elements/1.1/" xmlns:cc="http://creativecommons.org/ns#" xmlns:rdf="http://www.w3.org/1999/02/22-rdf-syntax-ns#">
   <cc:Work>
    <dc:type rdf:resource="http://purl.org/dc/dcmitype/StillImage"/>
    <dc:date>2022-02-06T17:02:32.697372</dc:date>
    <dc:format>image/svg+xml</dc:format>
    <dc:creator>
     <cc:Agent>
      <dc:title>Matplotlib v3.5.0, https://matplotlib.org/</dc:title>
     </cc:Agent>
    </dc:creator>
   </cc:Work>
  </rdf:RDF>
 </metadata>
 <defs>
  <style type="text/css">*{stroke-linejoin: round; stroke-linecap: butt}</style>
 </defs>
 <g id="figure_1">
  <g id="patch_1">
   <path d="M 0 481.07625 
L 485.26174 481.07625 
L 485.26174 0 
L 0 0 
L 0 481.07625 
z
" style="fill: none"/>
  </g>
  <g id="axes_1">
   <g id="patch_2">
    <path d="M 30.103125 219.990852 
L 233.012216 219.990852 
L 233.012216 22.318125 
L 30.103125 22.318125 
z
" style="fill: #ffffff"/>
   </g>
   <g id="matplotlib.axis_1">
    <g id="xtick_1">
     <g id="line2d_1">
      <defs>
       <path id="mef8bfe57b1" d="M 0 0 
L 0 3.5 
" style="stroke: #000000; stroke-width: 0.8"/>
      </defs>
      <g>
       <use xlink:href="#mef8bfe57b1" x="39.326265" y="219.990852" style="stroke: #000000; stroke-width: 0.8"/>
      </g>
     </g>
     <g id="text_1">
      <!-- 0 -->
      <g transform="translate(36.145015 234.58929)scale(0.1 -0.1)">
       <defs>
        <path id="DejaVuSans-30" d="M 2034 4250 
Q 1547 4250 1301 3770 
Q 1056 3291 1056 2328 
Q 1056 1369 1301 889 
Q 1547 409 2034 409 
Q 2525 409 2770 889 
Q 3016 1369 3016 2328 
Q 3016 3291 2770 3770 
Q 2525 4250 2034 4250 
z
M 2034 4750 
Q 2819 4750 3233 4129 
Q 3647 3509 3647 2328 
Q 3647 1150 3233 529 
Q 2819 -91 2034 -91 
Q 1250 -91 836 529 
Q 422 1150 422 2328 
Q 422 3509 836 4129 
Q 1250 4750 2034 4750 
z
" transform="scale(0.015625)"/>
       </defs>
       <use xlink:href="#DejaVuSans-30"/>
      </g>
     </g>
    </g>
    <g id="xtick_2">
     <g id="line2d_2">
      <g>
       <use xlink:href="#mef8bfe57b1" x="101.226537" y="219.990852" style="stroke: #000000; stroke-width: 0.8"/>
      </g>
     </g>
     <g id="text_2">
      <!-- 50 -->
      <g transform="translate(94.864037 234.58929)scale(0.1 -0.1)">
       <defs>
        <path id="DejaVuSans-35" d="M 691 4666 
L 3169 4666 
L 3169 4134 
L 1269 4134 
L 1269 2991 
Q 1406 3038 1543 3061 
Q 1681 3084 1819 3084 
Q 2600 3084 3056 2656 
Q 3513 2228 3513 1497 
Q 3513 744 3044 326 
Q 2575 -91 1722 -91 
Q 1428 -91 1123 -41 
Q 819 9 494 109 
L 494 744 
Q 775 591 1075 516 
Q 1375 441 1709 441 
Q 2250 441 2565 725 
Q 2881 1009 2881 1497 
Q 2881 1984 2565 2268 
Q 2250 2553 1709 2553 
Q 1456 2553 1204 2497 
Q 953 2441 691 2322 
L 691 4666 
z
" transform="scale(0.015625)"/>
       </defs>
       <use xlink:href="#DejaVuSans-35"/>
       <use xlink:href="#DejaVuSans-30" x="63.623047"/>
      </g>
     </g>
    </g>
    <g id="xtick_3">
     <g id="line2d_3">
      <g>
       <use xlink:href="#mef8bfe57b1" x="163.126809" y="219.990852" style="stroke: #000000; stroke-width: 0.8"/>
      </g>
     </g>
     <g id="text_3">
      <!-- 100 -->
      <g transform="translate(153.583059 234.58929)scale(0.1 -0.1)">
       <defs>
        <path id="DejaVuSans-31" d="M 794 531 
L 1825 531 
L 1825 4091 
L 703 3866 
L 703 4441 
L 1819 4666 
L 2450 4666 
L 2450 531 
L 3481 531 
L 3481 0 
L 794 0 
L 794 531 
z
" transform="scale(0.015625)"/>
       </defs>
       <use xlink:href="#DejaVuSans-31"/>
       <use xlink:href="#DejaVuSans-30" x="63.623047"/>
       <use xlink:href="#DejaVuSans-30" x="127.246094"/>
      </g>
     </g>
    </g>
    <g id="xtick_4">
     <g id="line2d_4">
      <g>
       <use xlink:href="#mef8bfe57b1" x="225.027081" y="219.990852" style="stroke: #000000; stroke-width: 0.8"/>
      </g>
     </g>
     <g id="text_4">
      <!-- 150 -->
      <g transform="translate(215.483331 234.58929)scale(0.1 -0.1)">
       <use xlink:href="#DejaVuSans-31"/>
       <use xlink:href="#DejaVuSans-35" x="63.623047"/>
       <use xlink:href="#DejaVuSans-30" x="127.246094"/>
      </g>
     </g>
    </g>
   </g>
   <g id="matplotlib.axis_2">
    <g id="ytick_1">
     <g id="line2d_5">
      <defs>
       <path id="mc091a87e8d" d="M 0 0 
L -3.5 0 
" style="stroke: #000000; stroke-width: 0.8"/>
      </defs>
      <g>
       <use xlink:href="#mc091a87e8d" x="30.103125" y="201.022257" style="stroke: #000000; stroke-width: 0.8"/>
      </g>
     </g>
     <g id="text_5">
      <!-- 4.5 -->
      <g transform="translate(7.2 204.821476)scale(0.1 -0.1)">
       <defs>
        <path id="DejaVuSans-34" d="M 2419 4116 
L 825 1625 
L 2419 1625 
L 2419 4116 
z
M 2253 4666 
L 3047 4666 
L 3047 1625 
L 3713 1625 
L 3713 1100 
L 3047 1100 
L 3047 0 
L 2419 0 
L 2419 1100 
L 313 1100 
L 313 1709 
L 2253 4666 
z
" transform="scale(0.015625)"/>
        <path id="DejaVuSans-2e" d="M 684 794 
L 1344 794 
L 1344 0 
L 684 0 
L 684 794 
z
" transform="scale(0.015625)"/>
       </defs>
       <use xlink:href="#DejaVuSans-34"/>
       <use xlink:href="#DejaVuSans-2e" x="63.623047"/>
       <use xlink:href="#DejaVuSans-35" x="95.410156"/>
      </g>
     </g>
    </g>
    <g id="ytick_2">
     <g id="line2d_6">
      <g>
       <use xlink:href="#mc091a87e8d" x="30.103125" y="176.06358" style="stroke: #000000; stroke-width: 0.8"/>
      </g>
     </g>
     <g id="text_6">
      <!-- 5.0 -->
      <g transform="translate(7.2 179.862798)scale(0.1 -0.1)">
       <use xlink:href="#DejaVuSans-35"/>
       <use xlink:href="#DejaVuSans-2e" x="63.623047"/>
       <use xlink:href="#DejaVuSans-30" x="95.410156"/>
      </g>
     </g>
    </g>
    <g id="ytick_3">
     <g id="line2d_7">
      <g>
       <use xlink:href="#mc091a87e8d" x="30.103125" y="151.104902" style="stroke: #000000; stroke-width: 0.8"/>
      </g>
     </g>
     <g id="text_7">
      <!-- 5.5 -->
      <g transform="translate(7.2 154.904121)scale(0.1 -0.1)">
       <use xlink:href="#DejaVuSans-35"/>
       <use xlink:href="#DejaVuSans-2e" x="63.623047"/>
       <use xlink:href="#DejaVuSans-35" x="95.410156"/>
      </g>
     </g>
    </g>
    <g id="ytick_4">
     <g id="line2d_8">
      <g>
       <use xlink:href="#mc091a87e8d" x="30.103125" y="126.146224" style="stroke: #000000; stroke-width: 0.8"/>
      </g>
     </g>
     <g id="text_8">
      <!-- 6.0 -->
      <g transform="translate(7.2 129.945443)scale(0.1 -0.1)">
       <defs>
        <path id="DejaVuSans-36" d="M 2113 2584 
Q 1688 2584 1439 2293 
Q 1191 2003 1191 1497 
Q 1191 994 1439 701 
Q 1688 409 2113 409 
Q 2538 409 2786 701 
Q 3034 994 3034 1497 
Q 3034 2003 2786 2293 
Q 2538 2584 2113 2584 
z
M 3366 4563 
L 3366 3988 
Q 3128 4100 2886 4159 
Q 2644 4219 2406 4219 
Q 1781 4219 1451 3797 
Q 1122 3375 1075 2522 
Q 1259 2794 1537 2939 
Q 1816 3084 2150 3084 
Q 2853 3084 3261 2657 
Q 3669 2231 3669 1497 
Q 3669 778 3244 343 
Q 2819 -91 2113 -91 
Q 1303 -91 875 529 
Q 447 1150 447 2328 
Q 447 3434 972 4092 
Q 1497 4750 2381 4750 
Q 2619 4750 2861 4703 
Q 3103 4656 3366 4563 
z
" transform="scale(0.015625)"/>
       </defs>
       <use xlink:href="#DejaVuSans-36"/>
       <use xlink:href="#DejaVuSans-2e" x="63.623047"/>
       <use xlink:href="#DejaVuSans-30" x="95.410156"/>
      </g>
     </g>
    </g>
    <g id="ytick_5">
     <g id="line2d_9">
      <g>
       <use xlink:href="#mc091a87e8d" x="30.103125" y="101.187546" style="stroke: #000000; stroke-width: 0.8"/>
      </g>
     </g>
     <g id="text_9">
      <!-- 6.5 -->
      <g transform="translate(7.2 104.986765)scale(0.1 -0.1)">
       <use xlink:href="#DejaVuSans-36"/>
       <use xlink:href="#DejaVuSans-2e" x="63.623047"/>
       <use xlink:href="#DejaVuSans-35" x="95.410156"/>
      </g>
     </g>
    </g>
    <g id="ytick_6">
     <g id="line2d_10">
      <g>
       <use xlink:href="#mc091a87e8d" x="30.103125" y="76.228869" style="stroke: #000000; stroke-width: 0.8"/>
      </g>
     </g>
     <g id="text_10">
      <!-- 7.0 -->
      <g transform="translate(7.2 80.028088)scale(0.1 -0.1)">
       <defs>
        <path id="DejaVuSans-37" d="M 525 4666 
L 3525 4666 
L 3525 4397 
L 1831 0 
L 1172 0 
L 2766 4134 
L 525 4134 
L 525 4666 
z
" transform="scale(0.015625)"/>
       </defs>
       <use xlink:href="#DejaVuSans-37"/>
       <use xlink:href="#DejaVuSans-2e" x="63.623047"/>
       <use xlink:href="#DejaVuSans-30" x="95.410156"/>
      </g>
     </g>
    </g>
    <g id="ytick_7">
     <g id="line2d_11">
      <g>
       <use xlink:href="#mc091a87e8d" x="30.103125" y="51.270191" style="stroke: #000000; stroke-width: 0.8"/>
      </g>
     </g>
     <g id="text_11">
      <!-- 7.5 -->
      <g transform="translate(7.2 55.06941)scale(0.1 -0.1)">
       <use xlink:href="#DejaVuSans-37"/>
       <use xlink:href="#DejaVuSans-2e" x="63.623047"/>
       <use xlink:href="#DejaVuSans-35" x="95.410156"/>
      </g>
     </g>
    </g>
    <g id="ytick_8">
     <g id="line2d_12">
      <g>
       <use xlink:href="#mc091a87e8d" x="30.103125" y="26.311513" style="stroke: #000000; stroke-width: 0.8"/>
      </g>
     </g>
     <g id="text_12">
      <!-- 8.0 -->
      <g transform="translate(7.2 30.110732)scale(0.1 -0.1)">
       <defs>
        <path id="DejaVuSans-38" d="M 2034 2216 
Q 1584 2216 1326 1975 
Q 1069 1734 1069 1313 
Q 1069 891 1326 650 
Q 1584 409 2034 409 
Q 2484 409 2743 651 
Q 3003 894 3003 1313 
Q 3003 1734 2745 1975 
Q 2488 2216 2034 2216 
z
M 1403 2484 
Q 997 2584 770 2862 
Q 544 3141 544 3541 
Q 544 4100 942 4425 
Q 1341 4750 2034 4750 
Q 2731 4750 3128 4425 
Q 3525 4100 3525 3541 
Q 3525 3141 3298 2862 
Q 3072 2584 2669 2484 
Q 3125 2378 3379 2068 
Q 3634 1759 3634 1313 
Q 3634 634 3220 271 
Q 2806 -91 2034 -91 
Q 1263 -91 848 271 
Q 434 634 434 1313 
Q 434 1759 690 2068 
Q 947 2378 1403 2484 
z
M 1172 3481 
Q 1172 3119 1398 2916 
Q 1625 2713 2034 2713 
Q 2441 2713 2670 2916 
Q 2900 3119 2900 3481 
Q 2900 3844 2670 4047 
Q 2441 4250 2034 4250 
Q 1625 4250 1398 4047 
Q 1172 3844 1172 3481 
z
" transform="scale(0.015625)"/>
       </defs>
       <use xlink:href="#DejaVuSans-38"/>
       <use xlink:href="#DejaVuSans-2e" x="63.623047"/>
       <use xlink:href="#DejaVuSans-30" x="95.410156"/>
      </g>
     </g>
    </g>
   </g>
   <g id="line2d_13">
    <path d="M 39.326265 171.071844 
L 41.802276 191.038786 
L 43.040282 196.030522 
L 45.516293 156.096637 
L 46.754298 196.030522 
L 47.992304 176.06358 
L 49.230309 206.013993 
L 51.70632 156.096637 
L 52.944325 186.047051 
L 54.182331 186.047051 
L 55.420336 211.005728 
L 56.658342 136.129695 
L 57.896347 141.121431 
L 60.372358 171.071844 
L 61.610363 141.121431 
L 62.848369 171.071844 
L 64.086374 156.096637 
L 65.32438 171.071844 
L 66.562385 196.030522 
L 67.800391 171.071844 
L 69.038396 186.047051 
L 70.276401 176.06358 
L 71.514407 176.06358 
L 72.752412 166.080108 
L 73.990418 166.080108 
L 75.228423 191.038786 
L 76.466429 186.047051 
L 77.704434 156.096637 
L 78.942439 166.080108 
L 80.180445 151.104902 
L 82.656456 176.06358 
L 83.894461 151.104902 
L 86.370472 206.013993 
L 87.608477 171.071844 
L 88.846483 176.06358 
L 90.084488 201.022257 
L 91.322494 206.013993 
L 92.560499 176.06358 
L 93.798505 171.071844 
L 95.03651 186.047051 
L 96.274516 171.071844 
L 97.512521 196.030522 
L 98.750526 161.088373 
L 99.988532 176.06358 
L 101.226537 76.228869 
L 102.464543 106.179282 
L 103.702548 81.220604 
L 104.940554 151.104902 
L 106.178559 101.187546 
L 107.416564 141.121431 
L 108.65457 111.171018 
L 109.892575 181.055315 
L 111.130581 96.195811 
L 112.368586 166.080108 
L 113.606592 176.06358 
L 114.844597 131.13796 
L 117.320608 121.154489 
L 118.558613 146.113166 
L 119.796619 91.204075 
L 121.034624 146.113166 
L 122.27263 136.129695 
L 123.510635 116.162753 
L 124.748641 146.113166 
L 125.986646 131.13796 
L 128.462657 111.171018 
L 129.700662 121.154489 
L 130.938668 106.179282 
L 133.414679 86.21234 
L 134.652684 91.204075 
L 135.890689 126.146224 
L 137.128695 141.121431 
L 138.3667 151.104902 
L 139.604706 151.104902 
L 140.842711 136.129695 
L 142.080717 126.146224 
L 143.318722 156.096637 
L 144.556728 126.146224 
L 145.794733 91.204075 
L 147.032738 111.171018 
L 148.270744 146.113166 
L 149.508749 151.104902 
L 150.746755 151.104902 
L 151.98476 121.154489 
L 153.222766 136.129695 
L 154.460771 176.06358 
L 155.698776 146.113166 
L 156.936782 141.121431 
L 158.174787 141.121431 
L 159.412793 116.162753 
L 160.650798 171.071844 
L 163.126809 111.171018 
L 164.364815 136.129695 
L 165.60282 71.237133 
L 166.840825 111.171018 
L 168.078831 101.187546 
L 169.316836 46.278456 
L 170.554842 181.055315 
L 171.792847 61.253662 
L 173.030853 91.204075 
L 174.268858 66.245398 
L 175.506863 101.187546 
L 176.744869 106.179282 
L 177.982874 86.21234 
L 179.22088 141.121431 
L 180.458885 136.129695 
L 181.696891 106.179282 
L 182.934896 101.187546 
L 184.172901 41.28672 
L 185.410907 41.28672 
L 186.648912 126.146224 
L 187.886918 81.220604 
L 189.124923 146.113166 
L 190.362929 41.28672 
L 191.600934 111.171018 
L 192.83894 91.204075 
L 194.076945 66.245398 
L 195.31495 116.162753 
L 196.552956 121.154489 
L 197.790961 106.179282 
L 199.028967 66.245398 
L 200.266972 56.261927 
L 201.504978 31.303249 
L 202.742983 106.179282 
L 203.980988 111.171018 
L 205.218994 121.154489 
L 206.456999 41.28672 
L 207.695005 111.171018 
L 208.93301 106.179282 
L 210.171016 126.146224 
L 211.409021 81.220604 
L 212.647026 91.204075 
L 213.885032 81.220604 
L 216.361043 86.21234 
L 217.599048 91.204075 
L 218.837054 91.204075 
L 220.075059 111.171018 
L 221.313065 101.187546 
L 223.789075 131.13796 
L 223.789075 131.13796 
" clip-path="url(#p3d6caa1334)" style="fill: none; stroke: #1f77b4; stroke-width: 1.5; stroke-linecap: square"/>
   </g>
   <g id="patch_3">
    <path d="M 30.103125 219.990852 
L 30.103125 22.318125 
" style="fill: none; stroke: #000000; stroke-width: 0.8; stroke-linejoin: miter; stroke-linecap: square"/>
   </g>
   <g id="patch_4">
    <path d="M 233.012216 219.990852 
L 233.012216 22.318125 
" style="fill: none; stroke: #000000; stroke-width: 0.8; stroke-linejoin: miter; stroke-linecap: square"/>
   </g>
   <g id="patch_5">
    <path d="M 30.103125 219.990852 
L 233.012216 219.990852 
" style="fill: none; stroke: #000000; stroke-width: 0.8; stroke-linejoin: miter; stroke-linecap: square"/>
   </g>
   <g id="patch_6">
    <path d="M 30.103125 22.318125 
L 233.012216 22.318125 
" style="fill: none; stroke: #000000; stroke-width: 0.8; stroke-linejoin: miter; stroke-linecap: square"/>
   </g>
   <g id="text_13">
    <!-- Sepal Length -->
    <g transform="translate(92.300795 16.318125)scale(0.12 -0.12)">
     <defs>
      <path id="DejaVuSans-53" d="M 3425 4513 
L 3425 3897 
Q 3066 4069 2747 4153 
Q 2428 4238 2131 4238 
Q 1616 4238 1336 4038 
Q 1056 3838 1056 3469 
Q 1056 3159 1242 3001 
Q 1428 2844 1947 2747 
L 2328 2669 
Q 3034 2534 3370 2195 
Q 3706 1856 3706 1288 
Q 3706 609 3251 259 
Q 2797 -91 1919 -91 
Q 1588 -91 1214 -16 
Q 841 59 441 206 
L 441 856 
Q 825 641 1194 531 
Q 1563 422 1919 422 
Q 2459 422 2753 634 
Q 3047 847 3047 1241 
Q 3047 1584 2836 1778 
Q 2625 1972 2144 2069 
L 1759 2144 
Q 1053 2284 737 2584 
Q 422 2884 422 3419 
Q 422 4038 858 4394 
Q 1294 4750 2059 4750 
Q 2388 4750 2728 4690 
Q 3069 4631 3425 4513 
z
" transform="scale(0.015625)"/>
      <path id="DejaVuSans-65" d="M 3597 1894 
L 3597 1613 
L 953 1613 
Q 991 1019 1311 708 
Q 1631 397 2203 397 
Q 2534 397 2845 478 
Q 3156 559 3463 722 
L 3463 178 
Q 3153 47 2828 -22 
Q 2503 -91 2169 -91 
Q 1331 -91 842 396 
Q 353 884 353 1716 
Q 353 2575 817 3079 
Q 1281 3584 2069 3584 
Q 2775 3584 3186 3129 
Q 3597 2675 3597 1894 
z
M 3022 2063 
Q 3016 2534 2758 2815 
Q 2500 3097 2075 3097 
Q 1594 3097 1305 2825 
Q 1016 2553 972 2059 
L 3022 2063 
z
" transform="scale(0.015625)"/>
      <path id="DejaVuSans-70" d="M 1159 525 
L 1159 -1331 
L 581 -1331 
L 581 3500 
L 1159 3500 
L 1159 2969 
Q 1341 3281 1617 3432 
Q 1894 3584 2278 3584 
Q 2916 3584 3314 3078 
Q 3713 2572 3713 1747 
Q 3713 922 3314 415 
Q 2916 -91 2278 -91 
Q 1894 -91 1617 61 
Q 1341 213 1159 525 
z
M 3116 1747 
Q 3116 2381 2855 2742 
Q 2594 3103 2138 3103 
Q 1681 3103 1420 2742 
Q 1159 2381 1159 1747 
Q 1159 1113 1420 752 
Q 1681 391 2138 391 
Q 2594 391 2855 752 
Q 3116 1113 3116 1747 
z
" transform="scale(0.015625)"/>
      <path id="DejaVuSans-61" d="M 2194 1759 
Q 1497 1759 1228 1600 
Q 959 1441 959 1056 
Q 959 750 1161 570 
Q 1363 391 1709 391 
Q 2188 391 2477 730 
Q 2766 1069 2766 1631 
L 2766 1759 
L 2194 1759 
z
M 3341 1997 
L 3341 0 
L 2766 0 
L 2766 531 
Q 2569 213 2275 61 
Q 1981 -91 1556 -91 
Q 1019 -91 701 211 
Q 384 513 384 1019 
Q 384 1609 779 1909 
Q 1175 2209 1959 2209 
L 2766 2209 
L 2766 2266 
Q 2766 2663 2505 2880 
Q 2244 3097 1772 3097 
Q 1472 3097 1187 3025 
Q 903 2953 641 2809 
L 641 3341 
Q 956 3463 1253 3523 
Q 1550 3584 1831 3584 
Q 2591 3584 2966 3190 
Q 3341 2797 3341 1997 
z
" transform="scale(0.015625)"/>
      <path id="DejaVuSans-6c" d="M 603 4863 
L 1178 4863 
L 1178 0 
L 603 0 
L 603 4863 
z
" transform="scale(0.015625)"/>
      <path id="DejaVuSans-20" transform="scale(0.015625)"/>
      <path id="DejaVuSans-4c" d="M 628 4666 
L 1259 4666 
L 1259 531 
L 3531 531 
L 3531 0 
L 628 0 
L 628 4666 
z
" transform="scale(0.015625)"/>
      <path id="DejaVuSans-6e" d="M 3513 2113 
L 3513 0 
L 2938 0 
L 2938 2094 
Q 2938 2591 2744 2837 
Q 2550 3084 2163 3084 
Q 1697 3084 1428 2787 
Q 1159 2491 1159 1978 
L 1159 0 
L 581 0 
L 581 3500 
L 1159 3500 
L 1159 2956 
Q 1366 3272 1645 3428 
Q 1925 3584 2291 3584 
Q 2894 3584 3203 3211 
Q 3513 2838 3513 2113 
z
" transform="scale(0.015625)"/>
      <path id="DejaVuSans-67" d="M 2906 1791 
Q 2906 2416 2648 2759 
Q 2391 3103 1925 3103 
Q 1463 3103 1205 2759 
Q 947 2416 947 1791 
Q 947 1169 1205 825 
Q 1463 481 1925 481 
Q 2391 481 2648 825 
Q 2906 1169 2906 1791 
z
M 3481 434 
Q 3481 -459 3084 -895 
Q 2688 -1331 1869 -1331 
Q 1566 -1331 1297 -1286 
Q 1028 -1241 775 -1147 
L 775 -588 
Q 1028 -725 1275 -790 
Q 1522 -856 1778 -856 
Q 2344 -856 2625 -561 
Q 2906 -266 2906 331 
L 2906 616 
Q 2728 306 2450 153 
Q 2172 0 1784 0 
Q 1141 0 747 490 
Q 353 981 353 1791 
Q 353 2603 747 3093 
Q 1141 3584 1784 3584 
Q 2172 3584 2450 3431 
Q 2728 3278 2906 2969 
L 2906 3500 
L 3481 3500 
L 3481 434 
z
" transform="scale(0.015625)"/>
      <path id="DejaVuSans-74" d="M 1172 4494 
L 1172 3500 
L 2356 3500 
L 2356 3053 
L 1172 3053 
L 1172 1153 
Q 1172 725 1289 603 
Q 1406 481 1766 481 
L 2356 481 
L 2356 0 
L 1766 0 
Q 1100 0 847 248 
Q 594 497 594 1153 
L 594 3053 
L 172 3053 
L 172 3500 
L 594 3500 
L 594 4494 
L 1172 4494 
z
" transform="scale(0.015625)"/>
      <path id="DejaVuSans-68" d="M 3513 2113 
L 3513 0 
L 2938 0 
L 2938 2094 
Q 2938 2591 2744 2837 
Q 2550 3084 2163 3084 
Q 1697 3084 1428 2787 
Q 1159 2491 1159 1978 
L 1159 0 
L 581 0 
L 581 4863 
L 1159 4863 
L 1159 2956 
Q 1366 3272 1645 3428 
Q 1925 3584 2291 3584 
Q 2894 3584 3203 3211 
Q 3513 2838 3513 2113 
z
" transform="scale(0.015625)"/>
     </defs>
     <use xlink:href="#DejaVuSans-53"/>
     <use xlink:href="#DejaVuSans-65" x="63.476562"/>
     <use xlink:href="#DejaVuSans-70" x="125"/>
     <use xlink:href="#DejaVuSans-61" x="188.476562"/>
     <use xlink:href="#DejaVuSans-6c" x="249.755859"/>
     <use xlink:href="#DejaVuSans-20" x="277.539062"/>
     <use xlink:href="#DejaVuSans-4c" x="309.326172"/>
     <use xlink:href="#DejaVuSans-65" x="363.289062"/>
     <use xlink:href="#DejaVuSans-6e" x="424.8125"/>
     <use xlink:href="#DejaVuSans-67" x="488.191406"/>
     <use xlink:href="#DejaVuSans-74" x="551.667969"/>
     <use xlink:href="#DejaVuSans-68" x="590.876953"/>
    </g>
   </g>
  </g>
  <g id="axes_2">
   <g id="patch_7">
    <path d="M 273.594034 219.990852 
L 476.503125 219.990852 
L 476.503125 22.318125 
L 273.594034 22.318125 
z
" style="fill: #ffffff"/>
   </g>
   <g id="matplotlib.axis_3">
    <g id="xtick_5">
     <g id="line2d_14">
      <g>
       <use xlink:href="#mef8bfe57b1" x="282.817175" y="219.990852" style="stroke: #000000; stroke-width: 0.8"/>
      </g>
     </g>
     <g id="text_14">
      <!-- 0 -->
      <g transform="translate(279.635925 234.58929)scale(0.1 -0.1)">
       <use xlink:href="#DejaVuSans-30"/>
      </g>
     </g>
    </g>
    <g id="xtick_6">
     <g id="line2d_15">
      <g>
       <use xlink:href="#mef8bfe57b1" x="344.717446" y="219.990852" style="stroke: #000000; stroke-width: 0.8"/>
      </g>
     </g>
     <g id="text_15">
      <!-- 50 -->
      <g transform="translate(338.354946 234.58929)scale(0.1 -0.1)">
       <use xlink:href="#DejaVuSans-35"/>
       <use xlink:href="#DejaVuSans-30" x="63.623047"/>
      </g>
     </g>
    </g>
    <g id="xtick_7">
     <g id="line2d_16">
      <g>
       <use xlink:href="#mef8bfe57b1" x="406.617718" y="219.990852" style="stroke: #000000; stroke-width: 0.8"/>
      </g>
     </g>
     <g id="text_16">
      <!-- 100 -->
      <g transform="translate(397.073968 234.58929)scale(0.1 -0.1)">
       <use xlink:href="#DejaVuSans-31"/>
       <use xlink:href="#DejaVuSans-30" x="63.623047"/>
       <use xlink:href="#DejaVuSans-30" x="127.246094"/>
      </g>
     </g>
    </g>
    <g id="xtick_8">
     <g id="line2d_17">
      <g>
       <use xlink:href="#mef8bfe57b1" x="468.51799" y="219.990852" style="stroke: #000000; stroke-width: 0.8"/>
      </g>
     </g>
     <g id="text_17">
      <!-- 150 -->
      <g transform="translate(458.97424 234.58929)scale(0.1 -0.1)">
       <use xlink:href="#DejaVuSans-31"/>
       <use xlink:href="#DejaVuSans-35" x="63.623047"/>
       <use xlink:href="#DejaVuSans-30" x="127.246094"/>
      </g>
     </g>
    </g>
   </g>
   <g id="matplotlib.axis_4">
    <g id="ytick_9">
     <g id="line2d_18">
      <g>
       <use xlink:href="#mc091a87e8d" x="273.594034" y="211.005728" style="stroke: #000000; stroke-width: 0.8"/>
      </g>
     </g>
     <g id="text_18">
      <!-- 2.0 -->
      <g transform="translate(250.690909 214.804947)scale(0.1 -0.1)">
       <defs>
        <path id="DejaVuSans-32" d="M 1228 531 
L 3431 531 
L 3431 0 
L 469 0 
L 469 531 
Q 828 903 1448 1529 
Q 2069 2156 2228 2338 
Q 2531 2678 2651 2914 
Q 2772 3150 2772 3378 
Q 2772 3750 2511 3984 
Q 2250 4219 1831 4219 
Q 1534 4219 1204 4116 
Q 875 4013 500 3803 
L 500 4441 
Q 881 4594 1212 4672 
Q 1544 4750 1819 4750 
Q 2544 4750 2975 4387 
Q 3406 4025 3406 3419 
Q 3406 3131 3298 2873 
Q 3191 2616 2906 2266 
Q 2828 2175 2409 1742 
Q 1991 1309 1228 531 
z
" transform="scale(0.015625)"/>
       </defs>
       <use xlink:href="#DejaVuSans-32"/>
       <use xlink:href="#DejaVuSans-2e" x="63.623047"/>
       <use xlink:href="#DejaVuSans-30" x="95.410156"/>
      </g>
     </g>
    </g>
    <g id="ytick_10">
     <g id="line2d_19">
      <g>
       <use xlink:href="#mc091a87e8d" x="273.594034" y="173.567712" style="stroke: #000000; stroke-width: 0.8"/>
      </g>
     </g>
     <g id="text_19">
      <!-- 2.5 -->
      <g transform="translate(250.690909 177.366931)scale(0.1 -0.1)">
       <use xlink:href="#DejaVuSans-32"/>
       <use xlink:href="#DejaVuSans-2e" x="63.623047"/>
       <use xlink:href="#DejaVuSans-35" x="95.410156"/>
      </g>
     </g>
    </g>
    <g id="ytick_11">
     <g id="line2d_20">
      <g>
       <use xlink:href="#mc091a87e8d" x="273.594034" y="136.129695" style="stroke: #000000; stroke-width: 0.8"/>
      </g>
     </g>
     <g id="text_20">
      <!-- 3.0 -->
      <g transform="translate(250.690909 139.928914)scale(0.1 -0.1)">
       <defs>
        <path id="DejaVuSans-33" d="M 2597 2516 
Q 3050 2419 3304 2112 
Q 3559 1806 3559 1356 
Q 3559 666 3084 287 
Q 2609 -91 1734 -91 
Q 1441 -91 1130 -33 
Q 819 25 488 141 
L 488 750 
Q 750 597 1062 519 
Q 1375 441 1716 441 
Q 2309 441 2620 675 
Q 2931 909 2931 1356 
Q 2931 1769 2642 2001 
Q 2353 2234 1838 2234 
L 1294 2234 
L 1294 2753 
L 1863 2753 
Q 2328 2753 2575 2939 
Q 2822 3125 2822 3475 
Q 2822 3834 2567 4026 
Q 2313 4219 1838 4219 
Q 1578 4219 1281 4162 
Q 984 4106 628 3988 
L 628 4550 
Q 988 4650 1302 4700 
Q 1616 4750 1894 4750 
Q 2613 4750 3031 4423 
Q 3450 4097 3450 3541 
Q 3450 3153 3228 2886 
Q 3006 2619 2597 2516 
z
" transform="scale(0.015625)"/>
       </defs>
       <use xlink:href="#DejaVuSans-33"/>
       <use xlink:href="#DejaVuSans-2e" x="63.623047"/>
       <use xlink:href="#DejaVuSans-30" x="95.410156"/>
      </g>
     </g>
    </g>
    <g id="ytick_12">
     <g id="line2d_21">
      <g>
       <use xlink:href="#mc091a87e8d" x="273.594034" y="98.691679" style="stroke: #000000; stroke-width: 0.8"/>
      </g>
     </g>
     <g id="text_21">
      <!-- 3.5 -->
      <g transform="translate(250.690909 102.490897)scale(0.1 -0.1)">
       <use xlink:href="#DejaVuSans-33"/>
       <use xlink:href="#DejaVuSans-2e" x="63.623047"/>
       <use xlink:href="#DejaVuSans-35" x="95.410156"/>
      </g>
     </g>
    </g>
    <g id="ytick_13">
     <g id="line2d_22">
      <g>
       <use xlink:href="#mc091a87e8d" x="273.594034" y="61.253662" style="stroke: #000000; stroke-width: 0.8"/>
      </g>
     </g>
     <g id="text_22">
      <!-- 4.0 -->
      <g transform="translate(250.690909 65.052881)scale(0.1 -0.1)">
       <use xlink:href="#DejaVuSans-34"/>
       <use xlink:href="#DejaVuSans-2e" x="63.623047"/>
       <use xlink:href="#DejaVuSans-30" x="95.410156"/>
      </g>
     </g>
    </g>
    <g id="ytick_14">
     <g id="line2d_23">
      <g>
       <use xlink:href="#mc091a87e8d" x="273.594034" y="23.815646" style="stroke: #000000; stroke-width: 0.8"/>
      </g>
     </g>
     <g id="text_23">
      <!-- 4.5 -->
      <g transform="translate(250.690909 27.614864)scale(0.1 -0.1)">
       <use xlink:href="#DejaVuSans-34"/>
       <use xlink:href="#DejaVuSans-2e" x="63.623047"/>
       <use xlink:href="#DejaVuSans-35" x="95.410156"/>
      </g>
     </g>
    </g>
   </g>
   <g id="line2d_24">
    <path d="M 282.817175 98.691679 
L 284.05518 136.129695 
L 285.293185 121.154489 
L 286.531191 128.642092 
L 287.769196 91.204075 
L 289.007202 68.741265 
L 290.245207 106.179282 
L 291.483213 106.179282 
L 292.721218 143.617299 
L 293.959224 128.642092 
L 295.197229 83.716472 
L 296.435234 106.179282 
L 297.67324 136.129695 
L 298.911245 136.129695 
L 300.149251 61.253662 
L 301.387256 31.303249 
L 302.625262 68.741265 
L 303.863267 98.691679 
L 305.101272 76.228869 
L 306.339278 76.228869 
L 307.577283 106.179282 
L 308.815289 83.716472 
L 310.053294 91.204075 
L 311.2913 113.666885 
L 312.529305 106.179282 
L 313.76731 136.129695 
L 315.005316 106.179282 
L 316.243321 98.691679 
L 317.481327 106.179282 
L 318.719332 121.154489 
L 319.957338 128.642092 
L 321.195343 106.179282 
L 322.433349 53.766059 
L 323.671354 46.278456 
L 326.147365 121.154489 
L 327.38537 98.691679 
L 329.861381 136.129695 
L 331.099387 106.179282 
L 332.337392 98.691679 
L 333.575397 188.542918 
L 334.813403 121.154489 
L 337.289414 76.228869 
L 338.527419 136.129695 
L 339.765425 76.228869 
L 341.00343 121.154489 
L 342.241435 83.716472 
L 343.479441 113.666885 
L 344.717446 121.154489 
L 345.955452 121.154489 
L 347.193457 128.642092 
L 348.431463 188.542918 
L 349.669468 151.104902 
L 350.907474 151.104902 
L 352.145479 113.666885 
L 353.383484 181.055315 
L 354.62149 143.617299 
L 355.859495 158.592505 
L 357.097501 211.005728 
L 358.335506 136.129695 
L 359.573512 196.030522 
L 360.811517 143.617299 
L 362.049522 143.617299 
L 363.287528 128.642092 
L 364.525533 136.129695 
L 365.763539 158.592505 
L 367.001544 196.030522 
L 368.23955 173.567712 
L 369.477555 121.154489 
L 370.715561 151.104902 
L 371.953566 173.567712 
L 373.191571 151.104902 
L 375.667582 136.129695 
L 376.905588 151.104902 
L 378.143593 136.129695 
L 379.381599 143.617299 
L 380.619604 166.080108 
L 381.857609 181.055315 
L 383.095615 181.055315 
L 384.33362 158.592505 
L 385.571626 158.592505 
L 386.809631 136.129695 
L 388.047637 106.179282 
L 389.285642 128.642092 
L 390.523647 188.542918 
L 391.761653 136.129695 
L 392.999658 173.567712 
L 394.237664 166.080108 
L 395.475669 136.129695 
L 396.713675 166.080108 
L 397.95168 188.542918 
L 399.189686 158.592505 
L 400.427691 136.129695 
L 401.665696 143.617299 
L 402.903702 143.617299 
L 404.141707 173.567712 
L 405.379713 151.104902 
L 406.617718 113.666885 
L 407.855724 158.592505 
L 409.093729 136.129695 
L 410.331734 143.617299 
L 411.56974 136.129695 
L 412.807745 136.129695 
L 414.045751 173.567712 
L 415.283756 143.617299 
L 416.521762 173.567712 
L 417.759767 91.204075 
L 418.997773 121.154489 
L 420.235778 158.592505 
L 421.473783 136.129695 
L 422.711789 173.567712 
L 423.949794 151.104902 
L 425.1878 121.154489 
L 426.425805 136.129695 
L 427.663811 76.228869 
L 428.901816 166.080108 
L 430.139821 196.030522 
L 431.377827 121.154489 
L 432.615832 151.104902 
L 433.853838 151.104902 
L 435.091843 158.592505 
L 436.329849 113.666885 
L 437.567854 121.154489 
L 438.805859 151.104902 
L 440.043865 136.129695 
L 441.28187 151.104902 
L 442.519876 136.129695 
L 443.757881 151.104902 
L 444.995887 76.228869 
L 446.233892 151.104902 
L 447.471898 151.104902 
L 448.709903 166.080108 
L 451.185914 106.179282 
L 452.423919 128.642092 
L 453.661925 136.129695 
L 454.89993 128.642092 
L 457.375941 128.642092 
L 459.851952 121.154489 
L 461.089957 113.666885 
L 462.327963 136.129695 
L 463.565968 173.567712 
L 464.803974 136.129695 
L 466.041979 106.179282 
L 467.279985 136.129695 
L 467.279985 136.129695 
" clip-path="url(#p6ef7a8bc09)" style="fill: none; stroke: #1f77b4; stroke-width: 1.5; stroke-linecap: square"/>
   </g>
   <g id="patch_8">
    <path d="M 273.594034 219.990852 
L 273.594034 22.318125 
" style="fill: none; stroke: #000000; stroke-width: 0.8; stroke-linejoin: miter; stroke-linecap: square"/>
   </g>
   <g id="patch_9">
    <path d="M 476.503125 219.990852 
L 476.503125 22.318125 
" style="fill: none; stroke: #000000; stroke-width: 0.8; stroke-linejoin: miter; stroke-linecap: square"/>
   </g>
   <g id="patch_10">
    <path d="M 273.594034 219.990852 
L 476.503125 219.990852 
" style="fill: none; stroke: #000000; stroke-width: 0.8; stroke-linejoin: miter; stroke-linecap: square"/>
   </g>
   <g id="patch_11">
    <path d="M 273.594034 22.318125 
L 476.503125 22.318125 
" style="fill: none; stroke: #000000; stroke-width: 0.8; stroke-linejoin: miter; stroke-linecap: square"/>
   </g>
   <g id="text_24">
    <!-- Sepal Width -->
    <g transform="translate(339.05983 16.318125)scale(0.12 -0.12)">
     <defs>
      <path id="DejaVuSans-57" d="M 213 4666 
L 850 4666 
L 1831 722 
L 2809 4666 
L 3519 4666 
L 4500 722 
L 5478 4666 
L 6119 4666 
L 4947 0 
L 4153 0 
L 3169 4050 
L 2175 0 
L 1381 0 
L 213 4666 
z
" transform="scale(0.015625)"/>
      <path id="DejaVuSans-69" d="M 603 3500 
L 1178 3500 
L 1178 0 
L 603 0 
L 603 3500 
z
M 603 4863 
L 1178 4863 
L 1178 4134 
L 603 4134 
L 603 4863 
z
" transform="scale(0.015625)"/>
      <path id="DejaVuSans-64" d="M 2906 2969 
L 2906 4863 
L 3481 4863 
L 3481 0 
L 2906 0 
L 2906 525 
Q 2725 213 2448 61 
Q 2172 -91 1784 -91 
Q 1150 -91 751 415 
Q 353 922 353 1747 
Q 353 2572 751 3078 
Q 1150 3584 1784 3584 
Q 2172 3584 2448 3432 
Q 2725 3281 2906 2969 
z
M 947 1747 
Q 947 1113 1208 752 
Q 1469 391 1925 391 
Q 2381 391 2643 752 
Q 2906 1113 2906 1747 
Q 2906 2381 2643 2742 
Q 2381 3103 1925 3103 
Q 1469 3103 1208 2742 
Q 947 2381 947 1747 
z
" transform="scale(0.015625)"/>
     </defs>
     <use xlink:href="#DejaVuSans-53"/>
     <use xlink:href="#DejaVuSans-65" x="63.476562"/>
     <use xlink:href="#DejaVuSans-70" x="125"/>
     <use xlink:href="#DejaVuSans-61" x="188.476562"/>
     <use xlink:href="#DejaVuSans-6c" x="249.755859"/>
     <use xlink:href="#DejaVuSans-20" x="277.539062"/>
     <use xlink:href="#DejaVuSans-57" x="309.326172"/>
     <use xlink:href="#DejaVuSans-69" x="405.953125"/>
     <use xlink:href="#DejaVuSans-64" x="433.736328"/>
     <use xlink:href="#DejaVuSans-74" x="497.212891"/>
     <use xlink:href="#DejaVuSans-68" x="536.421875"/>
    </g>
   </g>
  </g>
  <g id="axes_3">
   <g id="patch_12">
    <path d="M 30.103125 457.198125 
L 233.012216 457.198125 
L 233.012216 259.525398 
L 30.103125 259.525398 
z
" style="fill: #ffffff"/>
   </g>
   <g id="matplotlib.axis_5">
    <g id="xtick_9">
     <g id="line2d_25">
      <g>
       <use xlink:href="#mef8bfe57b1" x="39.326265" y="457.198125" style="stroke: #000000; stroke-width: 0.8"/>
      </g>
     </g>
     <g id="text_25">
      <!-- 0 -->
      <g transform="translate(36.145015 471.796562)scale(0.1 -0.1)">
       <use xlink:href="#DejaVuSans-30"/>
      </g>
     </g>
    </g>
    <g id="xtick_10">
     <g id="line2d_26">
      <g>
       <use xlink:href="#mef8bfe57b1" x="101.226537" y="457.198125" style="stroke: #000000; stroke-width: 0.8"/>
      </g>
     </g>
     <g id="text_26">
      <!-- 50 -->
      <g transform="translate(94.864037 471.796562)scale(0.1 -0.1)">
       <use xlink:href="#DejaVuSans-35"/>
       <use xlink:href="#DejaVuSans-30" x="63.623047"/>
      </g>
     </g>
    </g>
    <g id="xtick_11">
     <g id="line2d_27">
      <g>
       <use xlink:href="#mef8bfe57b1" x="163.126809" y="457.198125" style="stroke: #000000; stroke-width: 0.8"/>
      </g>
     </g>
     <g id="text_27">
      <!-- 100 -->
      <g transform="translate(153.583059 471.796562)scale(0.1 -0.1)">
       <use xlink:href="#DejaVuSans-31"/>
       <use xlink:href="#DejaVuSans-30" x="63.623047"/>
       <use xlink:href="#DejaVuSans-30" x="127.246094"/>
      </g>
     </g>
    </g>
    <g id="xtick_12">
     <g id="line2d_28">
      <g>
       <use xlink:href="#mef8bfe57b1" x="225.027081" y="457.198125" style="stroke: #000000; stroke-width: 0.8"/>
      </g>
     </g>
     <g id="text_28">
      <!-- 150 -->
      <g transform="translate(215.483331 471.796562)scale(0.1 -0.1)">
       <use xlink:href="#DejaVuSans-31"/>
       <use xlink:href="#DejaVuSans-35" x="63.623047"/>
       <use xlink:href="#DejaVuSans-30" x="127.246094"/>
      </g>
     </g>
    </g>
   </g>
   <g id="matplotlib.axis_6">
    <g id="ytick_15">
     <g id="line2d_29">
      <g>
       <use xlink:href="#mc091a87e8d" x="30.103125" y="448.213001" style="stroke: #000000; stroke-width: 0.8"/>
      </g>
     </g>
     <g id="text_29">
      <!-- 1 -->
      <g transform="translate(16.740625 452.01222)scale(0.1 -0.1)">
       <use xlink:href="#DejaVuSans-31"/>
      </g>
     </g>
    </g>
    <g id="ytick_16">
     <g id="line2d_30">
      <g>
       <use xlink:href="#mc091a87e8d" x="30.103125" y="417.754954" style="stroke: #000000; stroke-width: 0.8"/>
      </g>
     </g>
     <g id="text_30">
      <!-- 2 -->
      <g transform="translate(16.740625 421.554172)scale(0.1 -0.1)">
       <use xlink:href="#DejaVuSans-32"/>
      </g>
     </g>
    </g>
    <g id="ytick_17">
     <g id="line2d_31">
      <g>
       <use xlink:href="#mc091a87e8d" x="30.103125" y="387.296906" style="stroke: #000000; stroke-width: 0.8"/>
      </g>
     </g>
     <g id="text_31">
      <!-- 3 -->
      <g transform="translate(16.740625 391.096125)scale(0.1 -0.1)">
       <use xlink:href="#DejaVuSans-33"/>
      </g>
     </g>
    </g>
    <g id="ytick_18">
     <g id="line2d_32">
      <g>
       <use xlink:href="#mc091a87e8d" x="30.103125" y="356.838859" style="stroke: #000000; stroke-width: 0.8"/>
      </g>
     </g>
     <g id="text_32">
      <!-- 4 -->
      <g transform="translate(16.740625 360.638078)scale(0.1 -0.1)">
       <use xlink:href="#DejaVuSans-34"/>
      </g>
     </g>
    </g>
    <g id="ytick_19">
     <g id="line2d_33">
      <g>
       <use xlink:href="#mc091a87e8d" x="30.103125" y="326.380812" style="stroke: #000000; stroke-width: 0.8"/>
      </g>
     </g>
     <g id="text_33">
      <!-- 5 -->
      <g transform="translate(16.740625 330.18003)scale(0.1 -0.1)">
       <use xlink:href="#DejaVuSans-35"/>
      </g>
     </g>
    </g>
    <g id="ytick_20">
     <g id="line2d_34">
      <g>
       <use xlink:href="#mc091a87e8d" x="30.103125" y="295.922764" style="stroke: #000000; stroke-width: 0.8"/>
      </g>
     </g>
     <g id="text_34">
      <!-- 6 -->
      <g transform="translate(16.740625 299.721983)scale(0.1 -0.1)">
       <use xlink:href="#DejaVuSans-36"/>
      </g>
     </g>
    </g>
    <g id="ytick_21">
     <g id="line2d_35">
      <g>
       <use xlink:href="#mc091a87e8d" x="30.103125" y="265.464717" style="stroke: #000000; stroke-width: 0.8"/>
      </g>
     </g>
     <g id="text_35">
      <!-- 7 -->
      <g transform="translate(16.740625 269.263936)scale(0.1 -0.1)">
       <use xlink:href="#DejaVuSans-37"/>
      </g>
     </g>
    </g>
   </g>
   <g id="line2d_36">
    <path d="M 39.326265 436.029782 
L 40.564271 436.029782 
L 41.802276 439.075587 
L 43.040282 432.983977 
L 44.278287 436.029782 
L 45.516293 426.892368 
L 46.754298 436.029782 
L 47.992304 432.983977 
L 49.230309 436.029782 
L 50.468314 432.983977 
L 51.70632 432.983977 
L 52.944325 429.938173 
L 54.182331 436.029782 
L 55.420336 445.167196 
L 56.658342 442.121392 
L 57.896347 432.983977 
L 59.134352 439.075587 
L 60.372358 436.029782 
L 61.610363 426.892368 
L 62.848369 432.983977 
L 64.086374 426.892368 
L 65.32438 432.983977 
L 66.562385 448.213001 
L 67.800391 426.892368 
L 69.038396 420.800758 
L 70.276401 429.938173 
L 71.514407 429.938173 
L 73.990418 436.029782 
L 75.228423 429.938173 
L 76.466429 429.938173 
L 77.704434 432.983977 
L 78.942439 432.983977 
L 82.656456 442.121392 
L 83.894461 439.075587 
L 86.370472 439.075587 
L 87.608477 432.983977 
L 88.846483 439.075587 
L 91.322494 439.075587 
L 93.798505 420.800758 
L 95.03651 436.029782 
L 96.274516 429.938173 
L 97.512521 436.029782 
L 98.750526 432.983977 
L 99.988532 436.029782 
L 101.226537 335.518226 
L 102.464543 341.609835 
L 103.702548 329.426616 
L 104.940554 356.838859 
L 106.178559 338.564031 
L 107.416564 341.609835 
L 108.65457 335.518226 
L 109.892575 378.159492 
L 111.130581 338.564031 
L 112.368586 359.884664 
L 113.606592 372.067883 
L 114.844597 350.74725 
L 116.082603 356.838859 
L 117.320608 335.518226 
L 118.558613 369.022078 
L 119.796619 344.65564 
L 121.034624 341.609835 
L 122.27263 353.793054 
L 123.510635 341.609835 
L 124.748641 359.884664 
L 125.986646 332.472421 
L 127.224651 356.838859 
L 128.462657 329.426616 
L 129.700662 335.518226 
L 130.938668 347.701445 
L 132.176673 344.65564 
L 133.414679 332.472421 
L 134.652684 326.380812 
L 135.890689 341.609835 
L 137.128695 372.067883 
L 138.3667 362.930468 
L 139.604706 365.976273 
L 140.842711 359.884664 
L 142.080717 323.335007 
L 143.318722 341.609835 
L 144.556728 341.609835 
L 145.794733 335.518226 
L 148.270744 353.793054 
L 149.508749 356.838859 
L 150.746755 344.65564 
L 151.98476 338.564031 
L 153.222766 356.838859 
L 154.460771 378.159492 
L 155.698776 350.74725 
L 158.174787 350.74725 
L 159.412793 347.701445 
L 160.650798 387.296906 
L 161.888804 353.793054 
L 163.126809 295.922764 
L 164.364815 323.335007 
L 165.60282 298.968569 
L 166.840825 308.105983 
L 168.078831 302.014374 
L 169.316836 277.647936 
L 170.554842 341.609835 
L 171.792847 286.78535 
L 173.030853 302.014374 
L 174.268858 292.87696 
L 175.506863 323.335007 
L 177.982874 311.151788 
L 179.22088 326.380812 
L 180.458885 323.335007 
L 182.934896 311.151788 
L 184.172901 274.602131 
L 185.410907 268.510522 
L 186.648912 326.380812 
L 187.886918 305.060179 
L 189.124923 329.426616 
L 190.362929 274.602131 
L 191.600934 329.426616 
L 192.83894 305.060179 
L 194.076945 295.922764 
L 195.31495 332.472421 
L 196.552956 329.426616 
L 197.790961 308.105983 
L 199.028967 302.014374 
L 201.504978 283.739545 
L 202.742983 308.105983 
L 203.980988 323.335007 
L 206.456999 292.87696 
L 207.695005 308.105983 
L 208.93301 311.151788 
L 210.171016 332.472421 
L 211.409021 314.197593 
L 212.647026 308.105983 
L 213.885032 323.335007 
L 216.361043 298.968569 
L 217.599048 305.060179 
L 218.837054 320.289202 
L 220.075059 326.380812 
L 222.55107 314.197593 
L 223.789075 323.335007 
L 223.789075 323.335007 
" clip-path="url(#p4739f19e5e)" style="fill: none; stroke: #1f77b4; stroke-width: 1.5; stroke-linecap: square"/>
   </g>
   <g id="patch_13">
    <path d="M 30.103125 457.198125 
L 30.103125 259.525398 
" style="fill: none; stroke: #000000; stroke-width: 0.8; stroke-linejoin: miter; stroke-linecap: square"/>
   </g>
   <g id="patch_14">
    <path d="M 233.012216 457.198125 
L 233.012216 259.525398 
" style="fill: none; stroke: #000000; stroke-width: 0.8; stroke-linejoin: miter; stroke-linecap: square"/>
   </g>
   <g id="patch_15">
    <path d="M 30.103125 457.198125 
L 233.012216 457.198125 
" style="fill: none; stroke: #000000; stroke-width: 0.8; stroke-linejoin: miter; stroke-linecap: square"/>
   </g>
   <g id="patch_16">
    <path d="M 30.103125 259.525398 
L 233.012216 259.525398 
" style="fill: none; stroke: #000000; stroke-width: 0.8; stroke-linejoin: miter; stroke-linecap: square"/>
   </g>
   <g id="text_36">
    <!-- Petal Length -->
    <g transform="translate(94.16642 253.525398)scale(0.12 -0.12)">
     <defs>
      <path id="DejaVuSans-50" d="M 1259 4147 
L 1259 2394 
L 2053 2394 
Q 2494 2394 2734 2622 
Q 2975 2850 2975 3272 
Q 2975 3691 2734 3919 
Q 2494 4147 2053 4147 
L 1259 4147 
z
M 628 4666 
L 2053 4666 
Q 2838 4666 3239 4311 
Q 3641 3956 3641 3272 
Q 3641 2581 3239 2228 
Q 2838 1875 2053 1875 
L 1259 1875 
L 1259 0 
L 628 0 
L 628 4666 
z
" transform="scale(0.015625)"/>
     </defs>
     <use xlink:href="#DejaVuSans-50"/>
     <use xlink:href="#DejaVuSans-65" x="56.677734"/>
     <use xlink:href="#DejaVuSans-74" x="118.201172"/>
     <use xlink:href="#DejaVuSans-61" x="157.410156"/>
     <use xlink:href="#DejaVuSans-6c" x="218.689453"/>
     <use xlink:href="#DejaVuSans-20" x="246.472656"/>
     <use xlink:href="#DejaVuSans-4c" x="278.259766"/>
     <use xlink:href="#DejaVuSans-65" x="332.222656"/>
     <use xlink:href="#DejaVuSans-6e" x="393.746094"/>
     <use xlink:href="#DejaVuSans-67" x="457.125"/>
     <use xlink:href="#DejaVuSans-74" x="520.601562"/>
     <use xlink:href="#DejaVuSans-68" x="559.810547"/>
    </g>
   </g>
  </g>
  <g id="axes_4">
   <g id="patch_17">
    <path d="M 273.594034 457.198125 
L 476.503125 457.198125 
L 476.503125 259.525398 
L 273.594034 259.525398 
z
" style="fill: #ffffff"/>
   </g>
   <g id="matplotlib.axis_7">
    <g id="xtick_13">
     <g id="line2d_37">
      <g>
       <use xlink:href="#mef8bfe57b1" x="282.817175" y="457.198125" style="stroke: #000000; stroke-width: 0.8"/>
      </g>
     </g>
     <g id="text_37">
      <!-- 0 -->
      <g transform="translate(279.635925 471.796562)scale(0.1 -0.1)">
       <use xlink:href="#DejaVuSans-30"/>
      </g>
     </g>
    </g>
    <g id="xtick_14">
     <g id="line2d_38">
      <g>
       <use xlink:href="#mef8bfe57b1" x="344.717446" y="457.198125" style="stroke: #000000; stroke-width: 0.8"/>
      </g>
     </g>
     <g id="text_38">
      <!-- 50 -->
      <g transform="translate(338.354946 471.796562)scale(0.1 -0.1)">
       <use xlink:href="#DejaVuSans-35"/>
       <use xlink:href="#DejaVuSans-30" x="63.623047"/>
      </g>
     </g>
    </g>
    <g id="xtick_15">
     <g id="line2d_39">
      <g>
       <use xlink:href="#mef8bfe57b1" x="406.617718" y="457.198125" style="stroke: #000000; stroke-width: 0.8"/>
      </g>
     </g>
     <g id="text_39">
      <!-- 100 -->
      <g transform="translate(397.073968 471.796562)scale(0.1 -0.1)">
       <use xlink:href="#DejaVuSans-31"/>
       <use xlink:href="#DejaVuSans-30" x="63.623047"/>
       <use xlink:href="#DejaVuSans-30" x="127.246094"/>
      </g>
     </g>
    </g>
    <g id="xtick_16">
     <g id="line2d_40">
      <g>
       <use xlink:href="#mef8bfe57b1" x="468.51799" y="457.198125" style="stroke: #000000; stroke-width: 0.8"/>
      </g>
     </g>
     <g id="text_40">
      <!-- 150 -->
      <g transform="translate(458.97424 471.796562)scale(0.1 -0.1)">
       <use xlink:href="#DejaVuSans-31"/>
       <use xlink:href="#DejaVuSans-35" x="63.623047"/>
       <use xlink:href="#DejaVuSans-30" x="127.246094"/>
      </g>
     </g>
    </g>
   </g>
   <g id="matplotlib.axis_8">
    <g id="ytick_22">
     <g id="line2d_41">
      <g>
       <use xlink:href="#mc091a87e8d" x="273.594034" y="455.700604" style="stroke: #000000; stroke-width: 0.8"/>
      </g>
     </g>
     <g id="text_41">
      <!-- 0.0 -->
      <g transform="translate(250.690909 459.499823)scale(0.1 -0.1)">
       <use xlink:href="#DejaVuSans-30"/>
       <use xlink:href="#DejaVuSans-2e" x="63.623047"/>
       <use xlink:href="#DejaVuSans-30" x="95.410156"/>
      </g>
     </g>
    </g>
    <g id="ytick_23">
     <g id="line2d_42">
      <g>
       <use xlink:href="#mc091a87e8d" x="273.594034" y="418.262588" style="stroke: #000000; stroke-width: 0.8"/>
      </g>
     </g>
     <g id="text_42">
      <!-- 0.5 -->
      <g transform="translate(250.690909 422.061807)scale(0.1 -0.1)">
       <use xlink:href="#DejaVuSans-30"/>
       <use xlink:href="#DejaVuSans-2e" x="63.623047"/>
       <use xlink:href="#DejaVuSans-35" x="95.410156"/>
      </g>
     </g>
    </g>
    <g id="ytick_24">
     <g id="line2d_43">
      <g>
       <use xlink:href="#mc091a87e8d" x="273.594034" y="380.824571" style="stroke: #000000; stroke-width: 0.8"/>
      </g>
     </g>
     <g id="text_43">
      <!-- 1.0 -->
      <g transform="translate(250.690909 384.62379)scale(0.1 -0.1)">
       <use xlink:href="#DejaVuSans-31"/>
       <use xlink:href="#DejaVuSans-2e" x="63.623047"/>
       <use xlink:href="#DejaVuSans-30" x="95.410156"/>
      </g>
     </g>
    </g>
    <g id="ytick_25">
     <g id="line2d_44">
      <g>
       <use xlink:href="#mc091a87e8d" x="273.594034" y="343.386555" style="stroke: #000000; stroke-width: 0.8"/>
      </g>
     </g>
     <g id="text_44">
      <!-- 1.5 -->
      <g transform="translate(250.690909 347.185774)scale(0.1 -0.1)">
       <use xlink:href="#DejaVuSans-31"/>
       <use xlink:href="#DejaVuSans-2e" x="63.623047"/>
       <use xlink:href="#DejaVuSans-35" x="95.410156"/>
      </g>
     </g>
    </g>
    <g id="ytick_26">
     <g id="line2d_45">
      <g>
       <use xlink:href="#mc091a87e8d" x="273.594034" y="305.948538" style="stroke: #000000; stroke-width: 0.8"/>
      </g>
     </g>
     <g id="text_45">
      <!-- 2.0 -->
      <g transform="translate(250.690909 309.747757)scale(0.1 -0.1)">
       <use xlink:href="#DejaVuSans-32"/>
       <use xlink:href="#DejaVuSans-2e" x="63.623047"/>
       <use xlink:href="#DejaVuSans-30" x="95.410156"/>
      </g>
     </g>
    </g>
    <g id="ytick_27">
     <g id="line2d_46">
      <g>
       <use xlink:href="#mc091a87e8d" x="273.594034" y="268.510522" style="stroke: #000000; stroke-width: 0.8"/>
      </g>
     </g>
     <g id="text_46">
      <!-- 2.5 -->
      <g transform="translate(250.690909 272.30974)scale(0.1 -0.1)">
       <use xlink:href="#DejaVuSans-32"/>
       <use xlink:href="#DejaVuSans-2e" x="63.623047"/>
       <use xlink:href="#DejaVuSans-35" x="95.410156"/>
      </g>
     </g>
    </g>
   </g>
   <g id="line2d_47">
    <path d="M 282.817175 440.725398 
L 287.769196 440.725398 
L 289.007202 425.750191 
L 291.483213 440.725398 
L 292.721218 440.725398 
L 293.959224 448.213001 
L 295.197229 440.725398 
L 296.435234 440.725398 
L 297.67324 448.213001 
L 298.911245 448.213001 
L 300.149251 440.725398 
L 301.387256 425.750191 
L 302.625262 425.750191 
L 303.863267 433.237794 
L 306.339278 433.237794 
L 307.577283 440.725398 
L 308.815289 425.750191 
L 310.053294 440.725398 
L 311.2913 418.262588 
L 312.529305 440.725398 
L 313.76731 440.725398 
L 315.005316 425.750191 
L 316.243321 440.725398 
L 319.957338 440.725398 
L 321.195343 425.750191 
L 322.433349 448.213001 
L 323.671354 440.725398 
L 331.099387 440.725398 
L 332.337392 433.237794 
L 333.575397 433.237794 
L 334.813403 440.725398 
L 336.051408 410.774985 
L 337.289414 425.750191 
L 339.765425 440.725398 
L 343.479441 440.725398 
L 344.717446 350.874158 
L 345.955452 343.386555 
L 347.193457 343.386555 
L 348.431463 358.361761 
L 349.669468 343.386555 
L 350.907474 358.361761 
L 352.145479 335.898951 
L 353.383484 380.824571 
L 354.62149 358.361761 
L 355.859495 350.874158 
L 357.097501 380.824571 
L 358.335506 343.386555 
L 359.573512 380.824571 
L 360.811517 350.874158 
L 362.049522 358.361761 
L 364.525533 343.386555 
L 365.763539 380.824571 
L 367.001544 343.386555 
L 368.23955 373.336968 
L 369.477555 320.923745 
L 370.715561 358.361761 
L 371.953566 343.386555 
L 373.191571 365.849365 
L 375.667582 350.874158 
L 376.905588 350.874158 
L 378.143593 328.411348 
L 379.381599 343.386555 
L 380.619604 380.824571 
L 381.857609 373.336968 
L 383.095615 380.824571 
L 384.33362 365.849365 
L 385.571626 335.898951 
L 386.809631 343.386555 
L 388.047637 335.898951 
L 389.285642 343.386555 
L 390.523647 358.361761 
L 392.999658 358.361761 
L 394.237664 365.849365 
L 395.475669 350.874158 
L 397.95168 380.824571 
L 399.189686 358.361761 
L 400.427691 365.849365 
L 401.665696 358.361761 
L 402.903702 358.361761 
L 404.141707 373.336968 
L 405.379713 358.361761 
L 406.617718 268.510522 
L 407.855724 313.436142 
L 409.093729 298.460935 
L 410.331734 320.923745 
L 411.56974 290.973332 
L 412.807745 298.460935 
L 414.045751 328.411348 
L 415.283756 320.923745 
L 416.521762 320.923745 
L 417.759767 268.510522 
L 418.997773 305.948538 
L 420.235778 313.436142 
L 421.473783 298.460935 
L 422.711789 305.948538 
L 423.949794 275.998125 
L 425.1878 283.485728 
L 426.425805 320.923745 
L 427.663811 290.973332 
L 428.901816 283.485728 
L 430.139821 343.386555 
L 431.377827 283.485728 
L 432.615832 305.948538 
L 433.853838 305.948538 
L 435.091843 320.923745 
L 436.329849 298.460935 
L 437.567854 320.923745 
L 440.043865 320.923745 
L 441.28187 298.460935 
L 442.519876 335.898951 
L 443.757881 313.436142 
L 444.995887 305.948538 
L 446.233892 290.973332 
L 447.471898 343.386555 
L 448.709903 350.874158 
L 449.947908 283.485728 
L 451.185914 275.998125 
L 452.423919 320.923745 
L 453.661925 320.923745 
L 456.137936 275.998125 
L 457.375941 283.485728 
L 459.851952 283.485728 
L 461.089957 268.510522 
L 462.327963 283.485728 
L 463.565968 313.436142 
L 464.803974 305.948538 
L 466.041979 283.485728 
L 467.279985 320.923745 
L 467.279985 320.923745 
" clip-path="url(#pdba5eada28)" style="fill: none; stroke: #1f77b4; stroke-width: 1.5; stroke-linecap: square"/>
   </g>
   <g id="patch_18">
    <path d="M 273.594034 457.198125 
L 273.594034 259.525398 
" style="fill: none; stroke: #000000; stroke-width: 0.8; stroke-linejoin: miter; stroke-linecap: square"/>
   </g>
   <g id="patch_19">
    <path d="M 476.503125 457.198125 
L 476.503125 259.525398 
" style="fill: none; stroke: #000000; stroke-width: 0.8; stroke-linejoin: miter; stroke-linecap: square"/>
   </g>
   <g id="patch_20">
    <path d="M 273.594034 457.198125 
L 476.503125 457.198125 
" style="fill: none; stroke: #000000; stroke-width: 0.8; stroke-linejoin: miter; stroke-linecap: square"/>
   </g>
   <g id="patch_21">
    <path d="M 273.594034 259.525398 
L 476.503125 259.525398 
" style="fill: none; stroke: #000000; stroke-width: 0.8; stroke-linejoin: miter; stroke-linecap: square"/>
   </g>
   <g id="text_47">
    <!-- Petal Width -->
    <g transform="translate(340.925455 253.525398)scale(0.12 -0.12)">
     <use xlink:href="#DejaVuSans-50"/>
     <use xlink:href="#DejaVuSans-65" x="56.677734"/>
     <use xlink:href="#DejaVuSans-74" x="118.201172"/>
     <use xlink:href="#DejaVuSans-61" x="157.410156"/>
     <use xlink:href="#DejaVuSans-6c" x="218.689453"/>
     <use xlink:href="#DejaVuSans-20" x="246.472656"/>
     <use xlink:href="#DejaVuSans-57" x="278.259766"/>
     <use xlink:href="#DejaVuSans-69" x="374.886719"/>
     <use xlink:href="#DejaVuSans-64" x="402.669922"/>
     <use xlink:href="#DejaVuSans-74" x="466.146484"/>
     <use xlink:href="#DejaVuSans-68" x="505.355469"/>
    </g>
   </g>
  </g>
 </g>
 <defs>
  <clipPath id="p3d6caa1334">
   <rect x="30.103125" y="22.318125" width="202.909091" height="197.672727"/>
  </clipPath>
  <clipPath id="p6ef7a8bc09">
   <rect x="273.594034" y="22.318125" width="202.909091" height="197.672727"/>
  </clipPath>
  <clipPath id="p4739f19e5e">
   <rect x="30.103125" y="259.525398" width="202.909091" height="197.672727"/>
  </clipPath>
  <clipPath id="pdba5eada28">
   <rect x="273.594034" y="259.525398" width="202.909091" height="197.672727"/>
  </clipPath>
 </defs>
</svg>
