<?xml version="1.0" encoding="utf-8" standalone="no"?>
<!DOCTYPE svg PUBLIC "-//W3C//DTD SVG 1.1//EN"
  "http://www.w3.org/Graphics/SVG/1.1/DTD/svg11.dtd">
<svg xmlns:xlink="http://www.w3.org/1999/xlink" width="424.7875pt" height="280.478125pt" viewBox="0 0 424.7875 280.478125" xmlns="http://www.w3.org/2000/svg" version="1.1">
 <metadata>
  <rdf:RDF xmlns:dc="http://purl.org/dc/elements/1.1/" xmlns:cc="http://creativecommons.org/ns#" xmlns:rdf="http://www.w3.org/1999/02/22-rdf-syntax-ns#">
   <cc:Work>
    <dc:type rdf:resource="http://purl.org/dc/dcmitype/StillImage"/>
    <dc:date>2022-02-06T17:02:35.621818</dc:date>
    <dc:format>image/svg+xml</dc:format>
    <dc:creator>
     <cc:Agent>
      <dc:title>Matplotlib v3.5.0, https://matplotlib.org/</dc:title>
     </cc:Agent>
    </dc:creator>
   </cc:Work>
  </rdf:RDF>
 </metadata>
 <defs>
  <style type="text/css">*{stroke-linejoin: round; stroke-linecap: butt}</style>
 </defs>
 <g id="figure_1">
  <g id="patch_1">
   <path d="M 0 280.478125 
L 424.7875 280.478125 
L 424.7875 0 
L 0 0 
L 0 280.478125 
z
" style="fill: none"/>
  </g>
  <g id="axes_1">
   <g id="patch_2">
    <path d="M 20.5625 256.6 
L 417.5875 256.6 
L 417.5875 7.2 
L 20.5625 7.2 
z
" style="fill: #ffffff"/>
   </g>
   <g id="matplotlib.axis_1">
    <g id="xtick_1">
     <g id="line2d_1">
      <defs>
       <path id="m8ba66f3e0a" d="M 0 0 
L 0 3.5 
" style="stroke: #000000; stroke-width: 0.8"/>
      </defs>
      <g>
       <use xlink:href="#m8ba66f3e0a" x="38.609091" y="256.6" style="stroke: #000000; stroke-width: 0.8"/>
      </g>
     </g>
     <g id="text_1">
      <!-- 0 -->
      <g transform="translate(35.427841 271.198437)scale(0.1 -0.1)">
       <defs>
        <path id="DejaVuSans-30" d="M 2034 4250 
Q 1547 4250 1301 3770 
Q 1056 3291 1056 2328 
Q 1056 1369 1301 889 
Q 1547 409 2034 409 
Q 2525 409 2770 889 
Q 3016 1369 3016 2328 
Q 3016 3291 2770 3770 
Q 2525 4250 2034 4250 
z
M 2034 4750 
Q 2819 4750 3233 4129 
Q 3647 3509 3647 2328 
Q 3647 1150 3233 529 
Q 2819 -91 2034 -91 
Q 1250 -91 836 529 
Q 422 1150 422 2328 
Q 422 3509 836 4129 
Q 1250 4750 2034 4750 
z
" transform="scale(0.015625)"/>
       </defs>
       <use xlink:href="#DejaVuSans-30"/>
      </g>
     </g>
    </g>
    <g id="xtick_2">
     <g id="line2d_2">
      <g>
       <use xlink:href="#m8ba66f3e0a" x="87.056315" y="256.6" style="stroke: #000000; stroke-width: 0.8"/>
      </g>
     </g>
     <g id="text_2">
      <!-- 20 -->
      <g transform="translate(80.693815 271.198437)scale(0.1 -0.1)">
       <defs>
        <path id="DejaVuSans-32" d="M 1228 531 
L 3431 531 
L 3431 0 
L 469 0 
L 469 531 
Q 828 903 1448 1529 
Q 2069 2156 2228 2338 
Q 2531 2678 2651 2914 
Q 2772 3150 2772 3378 
Q 2772 3750 2511 3984 
Q 2250 4219 1831 4219 
Q 1534 4219 1204 4116 
Q 875 4013 500 3803 
L 500 4441 
Q 881 4594 1212 4672 
Q 1544 4750 1819 4750 
Q 2544 4750 2975 4387 
Q 3406 4025 3406 3419 
Q 3406 3131 3298 2873 
Q 3191 2616 2906 2266 
Q 2828 2175 2409 1742 
Q 1991 1309 1228 531 
z
" transform="scale(0.015625)"/>
       </defs>
       <use xlink:href="#DejaVuSans-32"/>
       <use xlink:href="#DejaVuSans-30" x="63.623047"/>
      </g>
     </g>
    </g>
    <g id="xtick_3">
     <g id="line2d_3">
      <g>
       <use xlink:href="#m8ba66f3e0a" x="135.503539" y="256.6" style="stroke: #000000; stroke-width: 0.8"/>
      </g>
     </g>
     <g id="text_3">
      <!-- 40 -->
      <g transform="translate(129.141039 271.198437)scale(0.1 -0.1)">
       <defs>
        <path id="DejaVuSans-34" d="M 2419 4116 
L 825 1625 
L 2419 1625 
L 2419 4116 
z
M 2253 4666 
L 3047 4666 
L 3047 1625 
L 3713 1625 
L 3713 1100 
L 3047 1100 
L 3047 0 
L 2419 0 
L 2419 1100 
L 313 1100 
L 313 1709 
L 2253 4666 
z
" transform="scale(0.015625)"/>
       </defs>
       <use xlink:href="#DejaVuSans-34"/>
       <use xlink:href="#DejaVuSans-30" x="63.623047"/>
      </g>
     </g>
    </g>
    <g id="xtick_4">
     <g id="line2d_4">
      <g>
       <use xlink:href="#m8ba66f3e0a" x="183.950763" y="256.6" style="stroke: #000000; stroke-width: 0.8"/>
      </g>
     </g>
     <g id="text_4">
      <!-- 60 -->
      <g transform="translate(177.588263 271.198437)scale(0.1 -0.1)">
       <defs>
        <path id="DejaVuSans-36" d="M 2113 2584 
Q 1688 2584 1439 2293 
Q 1191 2003 1191 1497 
Q 1191 994 1439 701 
Q 1688 409 2113 409 
Q 2538 409 2786 701 
Q 3034 994 3034 1497 
Q 3034 2003 2786 2293 
Q 2538 2584 2113 2584 
z
M 3366 4563 
L 3366 3988 
Q 3128 4100 2886 4159 
Q 2644 4219 2406 4219 
Q 1781 4219 1451 3797 
Q 1122 3375 1075 2522 
Q 1259 2794 1537 2939 
Q 1816 3084 2150 3084 
Q 2853 3084 3261 2657 
Q 3669 2231 3669 1497 
Q 3669 778 3244 343 
Q 2819 -91 2113 -91 
Q 1303 -91 875 529 
Q 447 1150 447 2328 
Q 447 3434 972 4092 
Q 1497 4750 2381 4750 
Q 2619 4750 2861 4703 
Q 3103 4656 3366 4563 
z
" transform="scale(0.015625)"/>
       </defs>
       <use xlink:href="#DejaVuSans-36"/>
       <use xlink:href="#DejaVuSans-30" x="63.623047"/>
      </g>
     </g>
    </g>
    <g id="xtick_5">
     <g id="line2d_5">
      <g>
       <use xlink:href="#m8ba66f3e0a" x="232.397987" y="256.6" style="stroke: #000000; stroke-width: 0.8"/>
      </g>
     </g>
     <g id="text_5">
      <!-- 80 -->
      <g transform="translate(226.035487 271.198437)scale(0.1 -0.1)">
       <defs>
        <path id="DejaVuSans-38" d="M 2034 2216 
Q 1584 2216 1326 1975 
Q 1069 1734 1069 1313 
Q 1069 891 1326 650 
Q 1584 409 2034 409 
Q 2484 409 2743 651 
Q 3003 894 3003 1313 
Q 3003 1734 2745 1975 
Q 2488 2216 2034 2216 
z
M 1403 2484 
Q 997 2584 770 2862 
Q 544 3141 544 3541 
Q 544 4100 942 4425 
Q 1341 4750 2034 4750 
Q 2731 4750 3128 4425 
Q 3525 4100 3525 3541 
Q 3525 3141 3298 2862 
Q 3072 2584 2669 2484 
Q 3125 2378 3379 2068 
Q 3634 1759 3634 1313 
Q 3634 634 3220 271 
Q 2806 -91 2034 -91 
Q 1263 -91 848 271 
Q 434 634 434 1313 
Q 434 1759 690 2068 
Q 947 2378 1403 2484 
z
M 1172 3481 
Q 1172 3119 1398 2916 
Q 1625 2713 2034 2713 
Q 2441 2713 2670 2916 
Q 2900 3119 2900 3481 
Q 2900 3844 2670 4047 
Q 2441 4250 2034 4250 
Q 1625 4250 1398 4047 
Q 1172 3844 1172 3481 
z
" transform="scale(0.015625)"/>
       </defs>
       <use xlink:href="#DejaVuSans-38"/>
       <use xlink:href="#DejaVuSans-30" x="63.623047"/>
      </g>
     </g>
    </g>
    <g id="xtick_6">
     <g id="line2d_6">
      <g>
       <use xlink:href="#m8ba66f3e0a" x="280.84521" y="256.6" style="stroke: #000000; stroke-width: 0.8"/>
      </g>
     </g>
     <g id="text_6">
      <!-- 100 -->
      <g transform="translate(271.30146 271.198437)scale(0.1 -0.1)">
       <defs>
        <path id="DejaVuSans-31" d="M 794 531 
L 1825 531 
L 1825 4091 
L 703 3866 
L 703 4441 
L 1819 4666 
L 2450 4666 
L 2450 531 
L 3481 531 
L 3481 0 
L 794 0 
L 794 531 
z
" transform="scale(0.015625)"/>
       </defs>
       <use xlink:href="#DejaVuSans-31"/>
       <use xlink:href="#DejaVuSans-30" x="63.623047"/>
       <use xlink:href="#DejaVuSans-30" x="127.246094"/>
      </g>
     </g>
    </g>
    <g id="xtick_7">
     <g id="line2d_7">
      <g>
       <use xlink:href="#m8ba66f3e0a" x="329.292434" y="256.6" style="stroke: #000000; stroke-width: 0.8"/>
      </g>
     </g>
     <g id="text_7">
      <!-- 120 -->
      <g transform="translate(319.748684 271.198437)scale(0.1 -0.1)">
       <use xlink:href="#DejaVuSans-31"/>
       <use xlink:href="#DejaVuSans-32" x="63.623047"/>
       <use xlink:href="#DejaVuSans-30" x="127.246094"/>
      </g>
     </g>
    </g>
    <g id="xtick_8">
     <g id="line2d_8">
      <g>
       <use xlink:href="#m8ba66f3e0a" x="377.739658" y="256.6" style="stroke: #000000; stroke-width: 0.8"/>
      </g>
     </g>
     <g id="text_8">
      <!-- 140 -->
      <g transform="translate(368.195908 271.198437)scale(0.1 -0.1)">
       <use xlink:href="#DejaVuSans-31"/>
       <use xlink:href="#DejaVuSans-34" x="63.623047"/>
       <use xlink:href="#DejaVuSans-30" x="127.246094"/>
      </g>
     </g>
    </g>
   </g>
   <g id="matplotlib.axis_2">
    <g id="ytick_1">
     <g id="line2d_9">
      <defs>
       <path id="mf322d58fa5" d="M 0 0 
L -3.5 0 
" style="stroke: #000000; stroke-width: 0.8"/>
      </defs>
      <g>
       <use xlink:href="#mf322d58fa5" x="20.5625" y="248.170396" style="stroke: #000000; stroke-width: 0.8"/>
      </g>
     </g>
     <g id="text_9">
      <!-- 0 -->
      <g transform="translate(7.2 251.969615)scale(0.1 -0.1)">
       <use xlink:href="#DejaVuSans-30"/>
      </g>
     </g>
    </g>
    <g id="ytick_2">
     <g id="line2d_10">
      <g>
       <use xlink:href="#mf322d58fa5" x="20.5625" y="219.102797" style="stroke: #000000; stroke-width: 0.8"/>
      </g>
     </g>
     <g id="text_10">
      <!-- 1 -->
      <g transform="translate(7.2 222.902016)scale(0.1 -0.1)">
       <use xlink:href="#DejaVuSans-31"/>
      </g>
     </g>
    </g>
    <g id="ytick_3">
     <g id="line2d_11">
      <g>
       <use xlink:href="#mf322d58fa5" x="20.5625" y="190.035198" style="stroke: #000000; stroke-width: 0.8"/>
      </g>
     </g>
     <g id="text_11">
      <!-- 2 -->
      <g transform="translate(7.2 193.834417)scale(0.1 -0.1)">
       <use xlink:href="#DejaVuSans-32"/>
      </g>
     </g>
    </g>
    <g id="ytick_4">
     <g id="line2d_12">
      <g>
       <use xlink:href="#mf322d58fa5" x="20.5625" y="160.967599" style="stroke: #000000; stroke-width: 0.8"/>
      </g>
     </g>
     <g id="text_12">
      <!-- 3 -->
      <g transform="translate(7.2 164.766818)scale(0.1 -0.1)">
       <defs>
        <path id="DejaVuSans-33" d="M 2597 2516 
Q 3050 2419 3304 2112 
Q 3559 1806 3559 1356 
Q 3559 666 3084 287 
Q 2609 -91 1734 -91 
Q 1441 -91 1130 -33 
Q 819 25 488 141 
L 488 750 
Q 750 597 1062 519 
Q 1375 441 1716 441 
Q 2309 441 2620 675 
Q 2931 909 2931 1356 
Q 2931 1769 2642 2001 
Q 2353 2234 1838 2234 
L 1294 2234 
L 1294 2753 
L 1863 2753 
Q 2328 2753 2575 2939 
Q 2822 3125 2822 3475 
Q 2822 3834 2567 4026 
Q 2313 4219 1838 4219 
Q 1578 4219 1281 4162 
Q 984 4106 628 3988 
L 628 4550 
Q 988 4650 1302 4700 
Q 1616 4750 1894 4750 
Q 2613 4750 3031 4423 
Q 3450 4097 3450 3541 
Q 3450 3153 3228 2886 
Q 3006 2619 2597 2516 
z
" transform="scale(0.015625)"/>
       </defs>
       <use xlink:href="#DejaVuSans-33"/>
      </g>
     </g>
    </g>
    <g id="ytick_5">
     <g id="line2d_13">
      <g>
       <use xlink:href="#mf322d58fa5" x="20.5625" y="131.9" style="stroke: #000000; stroke-width: 0.8"/>
      </g>
     </g>
     <g id="text_13">
      <!-- 4 -->
      <g transform="translate(7.2 135.699219)scale(0.1 -0.1)">
       <use xlink:href="#DejaVuSans-34"/>
      </g>
     </g>
    </g>
    <g id="ytick_6">
     <g id="line2d_14">
      <g>
       <use xlink:href="#mf322d58fa5" x="20.5625" y="102.832401" style="stroke: #000000; stroke-width: 0.8"/>
      </g>
     </g>
     <g id="text_14">
      <!-- 5 -->
      <g transform="translate(7.2 106.63162)scale(0.1 -0.1)">
       <defs>
        <path id="DejaVuSans-35" d="M 691 4666 
L 3169 4666 
L 3169 4134 
L 1269 4134 
L 1269 2991 
Q 1406 3038 1543 3061 
Q 1681 3084 1819 3084 
Q 2600 3084 3056 2656 
Q 3513 2228 3513 1497 
Q 3513 744 3044 326 
Q 2575 -91 1722 -91 
Q 1428 -91 1123 -41 
Q 819 9 494 109 
L 494 744 
Q 775 591 1075 516 
Q 1375 441 1709 441 
Q 2250 441 2565 725 
Q 2881 1009 2881 1497 
Q 2881 1984 2565 2268 
Q 2250 2553 1709 2553 
Q 1456 2553 1204 2497 
Q 953 2441 691 2322 
L 691 4666 
z
" transform="scale(0.015625)"/>
       </defs>
       <use xlink:href="#DejaVuSans-35"/>
      </g>
     </g>
    </g>
    <g id="ytick_7">
     <g id="line2d_15">
      <g>
       <use xlink:href="#mf322d58fa5" x="20.5625" y="73.764802" style="stroke: #000000; stroke-width: 0.8"/>
      </g>
     </g>
     <g id="text_15">
      <!-- 6 -->
      <g transform="translate(7.2 77.564021)scale(0.1 -0.1)">
       <use xlink:href="#DejaVuSans-36"/>
      </g>
     </g>
    </g>
    <g id="ytick_8">
     <g id="line2d_16">
      <g>
       <use xlink:href="#mf322d58fa5" x="20.5625" y="44.697203" style="stroke: #000000; stroke-width: 0.8"/>
      </g>
     </g>
     <g id="text_16">
      <!-- 7 -->
      <g transform="translate(7.2 48.496422)scale(0.1 -0.1)">
       <defs>
        <path id="DejaVuSans-37" d="M 525 4666 
L 3525 4666 
L 3525 4397 
L 1831 0 
L 1172 0 
L 2766 4134 
L 525 4134 
L 525 4666 
z
" transform="scale(0.015625)"/>
       </defs>
       <use xlink:href="#DejaVuSans-37"/>
      </g>
     </g>
    </g>
    <g id="ytick_9">
     <g id="line2d_17">
      <g>
       <use xlink:href="#mf322d58fa5" x="20.5625" y="15.629604" style="stroke: #000000; stroke-width: 0.8"/>
      </g>
     </g>
     <g id="text_17">
      <!-- 8 -->
      <g transform="translate(7.2 19.428822)scale(0.1 -0.1)">
       <use xlink:href="#DejaVuSans-38"/>
      </g>
     </g>
    </g>
   </g>
   <g id="line2d_18">
    <path d="M 38.609091 99.925641 
L 43.453813 111.552681 
L 45.876174 114.459441 
L 50.720897 91.205361 
L 53.143258 114.459441 
L 55.565619 102.832401 
L 57.98798 120.27296 
L 62.832703 91.205361 
L 65.255064 108.645921 
L 67.677425 108.645921 
L 70.099786 123.17972 
L 72.522148 79.578322 
L 74.944509 82.485082 
L 79.789231 99.925641 
L 82.211592 82.485082 
L 84.633954 99.925641 
L 87.056315 91.205361 
L 89.478676 99.925641 
L 91.901037 114.459441 
L 94.323398 99.925641 
L 96.74576 108.645921 
L 99.168121 102.832401 
L 101.590482 102.832401 
L 104.012843 97.018881 
L 106.435204 97.018881 
L 108.857566 111.552681 
L 111.279927 108.645921 
L 113.702288 91.205361 
L 116.124649 97.018881 
L 118.54701 88.298601 
L 123.391733 102.832401 
L 125.814094 88.298601 
L 130.658816 120.27296 
L 133.081178 99.925641 
L 135.503539 102.832401 
L 137.9259 117.3662 
L 140.348261 120.27296 
L 142.770622 102.832401 
L 145.192984 99.925641 
L 147.615345 108.645921 
L 150.037706 99.925641 
L 152.460067 114.459441 
L 154.882428 94.112121 
L 157.30479 102.832401 
L 159.727151 44.697203 
L 162.149512 62.137762 
L 164.571873 47.603963 
L 166.994234 88.298601 
L 169.416595 59.231002 
L 171.838957 82.485082 
L 174.261318 65.044522 
L 176.683679 105.739161 
L 179.10604 56.324242 
L 181.528401 97.018881 
L 183.950763 102.832401 
L 186.373124 76.671562 
L 191.217846 70.858042 
L 193.640207 85.391841 
L 196.062569 53.417483 
L 198.48493 85.391841 
L 200.907291 79.578322 
L 203.329652 67.951282 
L 205.752013 85.391841 
L 208.174375 76.671562 
L 213.019097 65.044522 
L 215.441458 70.858042 
L 217.863819 62.137762 
L 222.708542 50.510723 
L 225.130903 53.417483 
L 227.553264 73.764802 
L 229.975625 82.485082 
L 232.397987 88.298601 
L 234.820348 88.298601 
L 237.242709 79.578322 
L 239.66507 73.764802 
L 242.087431 91.205361 
L 244.509793 73.764802 
L 246.932154 53.417483 
L 249.354515 65.044522 
L 251.776876 85.391841 
L 254.199237 88.298601 
L 256.621599 88.298601 
L 259.04396 70.858042 
L 261.466321 79.578322 
L 263.888682 102.832401 
L 266.311043 85.391841 
L 268.733405 82.485082 
L 271.155766 82.485082 
L 273.578127 67.951282 
L 276.000488 99.925641 
L 280.84521 65.044522 
L 283.267572 79.578322 
L 285.689933 41.790443 
L 288.112294 65.044522 
L 290.534655 59.231002 
L 292.957016 27.256643 
L 295.379378 105.739161 
L 297.801739 35.976923 
L 300.2241 53.417483 
L 302.646461 38.883683 
L 305.068822 59.231002 
L 307.491184 62.137762 
L 309.913545 50.510723 
L 312.335906 82.485082 
L 314.758267 79.578322 
L 317.180628 62.137762 
L 319.60299 59.231002 
L 322.025351 24.349883 
L 324.447712 24.349883 
L 326.870073 73.764802 
L 329.292434 47.603963 
L 331.714796 85.391841 
L 334.137157 24.349883 
L 336.559518 65.044522 
L 338.981879 53.417483 
L 341.40424 38.883683 
L 343.826602 67.951282 
L 346.248963 70.858042 
L 348.671324 62.137762 
L 351.093685 38.883683 
L 353.516046 33.070163 
L 355.938408 18.536364 
L 358.360769 62.137762 
L 360.78313 65.044522 
L 363.205491 70.858042 
L 365.627852 24.349883 
L 368.050214 65.044522 
L 370.472575 62.137762 
L 372.894936 73.764802 
L 375.317297 47.603963 
L 377.739658 53.417483 
L 380.16202 47.603963 
L 385.006742 50.510723 
L 387.429103 53.417483 
L 389.851464 53.417483 
L 392.273826 65.044522 
L 394.696187 59.231002 
L 399.540909 76.671562 
L 399.540909 76.671562 
" clip-path="url(#p29bef2d5fa)" style="fill: none; stroke: #1f77b4; stroke-width: 1.5; stroke-linecap: square"/>
   </g>
   <g id="line2d_19">
    <path d="M 38.609091 146.4338 
L 41.031452 160.967599 
L 43.453813 155.154079 
L 45.876174 158.060839 
L 48.298536 143.52704 
L 50.720897 134.80676 
L 53.143258 149.340559 
L 55.565619 149.340559 
L 57.98798 163.874359 
L 60.410342 158.060839 
L 62.832703 140.62028 
L 65.255064 149.340559 
L 67.677425 160.967599 
L 70.099786 160.967599 
L 72.522148 131.9 
L 74.944509 120.27296 
L 77.36687 134.80676 
L 79.789231 146.4338 
L 82.211592 137.71352 
L 84.633954 137.71352 
L 87.056315 149.340559 
L 89.478676 140.62028 
L 91.901037 143.52704 
L 94.323398 152.247319 
L 96.74576 149.340559 
L 99.168121 160.967599 
L 101.590482 149.340559 
L 104.012843 146.4338 
L 106.435204 149.340559 
L 108.857566 155.154079 
L 111.279927 158.060839 
L 113.702288 149.340559 
L 116.124649 128.99324 
L 118.54701 126.08648 
L 123.391733 155.154079 
L 125.814094 146.4338 
L 130.658816 160.967599 
L 133.081178 149.340559 
L 135.503539 146.4338 
L 137.9259 181.314918 
L 140.348261 155.154079 
L 145.192984 137.71352 
L 147.615345 160.967599 
L 150.037706 137.71352 
L 152.460067 155.154079 
L 154.882428 140.62028 
L 157.30479 152.247319 
L 159.727151 155.154079 
L 162.149512 155.154079 
L 164.571873 158.060839 
L 166.994234 181.314918 
L 169.416595 166.781119 
L 171.838957 166.781119 
L 174.261318 152.247319 
L 176.683679 178.408159 
L 179.10604 163.874359 
L 181.528401 169.687879 
L 183.950763 190.035198 
L 186.373124 160.967599 
L 188.795485 184.221678 
L 191.217846 163.874359 
L 193.640207 163.874359 
L 196.062569 158.060839 
L 198.48493 160.967599 
L 200.907291 169.687879 
L 203.329652 184.221678 
L 205.752013 175.501399 
L 208.174375 155.154079 
L 210.596736 166.781119 
L 213.019097 175.501399 
L 215.441458 166.781119 
L 220.286181 160.967599 
L 222.708542 166.781119 
L 225.130903 160.967599 
L 227.553264 163.874359 
L 229.975625 172.594639 
L 232.397987 178.408159 
L 234.820348 178.408159 
L 237.242709 169.687879 
L 239.66507 169.687879 
L 242.087431 160.967599 
L 244.509793 149.340559 
L 246.932154 158.060839 
L 249.354515 181.314918 
L 251.776876 160.967599 
L 254.199237 175.501399 
L 256.621599 172.594639 
L 259.04396 160.967599 
L 261.466321 172.594639 
L 263.888682 181.314918 
L 266.311043 169.687879 
L 268.733405 160.967599 
L 271.155766 163.874359 
L 273.578127 163.874359 
L 276.000488 175.501399 
L 278.422849 166.781119 
L 280.84521 152.247319 
L 283.267572 169.687879 
L 285.689933 160.967599 
L 288.112294 163.874359 
L 290.534655 160.967599 
L 292.957016 160.967599 
L 295.379378 175.501399 
L 297.801739 163.874359 
L 300.2241 175.501399 
L 302.646461 143.52704 
L 305.068822 155.154079 
L 307.491184 169.687879 
L 309.913545 160.967599 
L 312.335906 175.501399 
L 314.758267 166.781119 
L 317.180628 155.154079 
L 319.60299 160.967599 
L 322.025351 137.71352 
L 324.447712 172.594639 
L 326.870073 184.221678 
L 329.292434 155.154079 
L 331.714796 166.781119 
L 334.137157 166.781119 
L 336.559518 169.687879 
L 338.981879 152.247319 
L 341.40424 155.154079 
L 343.826602 166.781119 
L 346.248963 160.967599 
L 348.671324 166.781119 
L 351.093685 160.967599 
L 353.516046 166.781119 
L 355.938408 137.71352 
L 358.360769 166.781119 
L 360.78313 166.781119 
L 363.205491 172.594639 
L 368.050214 149.340559 
L 370.472575 158.060839 
L 372.894936 160.967599 
L 375.317297 158.060839 
L 380.16202 158.060839 
L 385.006742 155.154079 
L 387.429103 152.247319 
L 389.851464 160.967599 
L 392.273826 175.501399 
L 394.696187 160.967599 
L 397.118548 149.340559 
L 399.540909 160.967599 
L 399.540909 160.967599 
" clip-path="url(#p29bef2d5fa)" style="fill: none; stroke: #ff7f0e; stroke-width: 1.5; stroke-linecap: square"/>
   </g>
   <g id="line2d_20">
    <path d="M 38.609091 207.475758 
L 41.031452 207.475758 
L 43.453813 210.382517 
L 45.876174 204.568998 
L 48.298536 207.475758 
L 50.720897 198.755478 
L 53.143258 207.475758 
L 55.565619 204.568998 
L 57.98798 207.475758 
L 60.410342 204.568998 
L 62.832703 204.568998 
L 65.255064 201.662238 
L 67.677425 207.475758 
L 70.099786 216.196037 
L 72.522148 213.289277 
L 74.944509 204.568998 
L 77.36687 210.382517 
L 79.789231 207.475758 
L 82.211592 198.755478 
L 84.633954 204.568998 
L 87.056315 198.755478 
L 89.478676 204.568998 
L 91.901037 219.102797 
L 94.323398 198.755478 
L 96.74576 192.941958 
L 99.168121 201.662238 
L 101.590482 201.662238 
L 106.435204 207.475758 
L 108.857566 201.662238 
L 111.279927 201.662238 
L 113.702288 204.568998 
L 116.124649 204.568998 
L 123.391733 213.289277 
L 125.814094 210.382517 
L 130.658816 210.382517 
L 133.081178 204.568998 
L 135.503539 210.382517 
L 140.348261 210.382517 
L 145.192984 192.941958 
L 147.615345 207.475758 
L 150.037706 201.662238 
L 152.460067 207.475758 
L 154.882428 204.568998 
L 157.30479 207.475758 
L 159.727151 111.552681 
L 162.149512 117.3662 
L 164.571873 105.739161 
L 166.994234 131.9 
L 169.416595 114.459441 
L 171.838957 117.3662 
L 174.261318 111.552681 
L 176.683679 152.247319 
L 179.10604 114.459441 
L 181.528401 134.80676 
L 183.950763 146.4338 
L 186.373124 126.08648 
L 188.795485 131.9 
L 191.217846 111.552681 
L 193.640207 143.52704 
L 196.062569 120.27296 
L 198.48493 117.3662 
L 200.907291 128.99324 
L 203.329652 117.3662 
L 205.752013 134.80676 
L 208.174375 108.645921 
L 210.596736 131.9 
L 213.019097 105.739161 
L 215.441458 111.552681 
L 217.863819 123.17972 
L 220.286181 120.27296 
L 222.708542 108.645921 
L 225.130903 102.832401 
L 227.553264 117.3662 
L 229.975625 146.4338 
L 232.397987 137.71352 
L 234.820348 140.62028 
L 237.242709 134.80676 
L 239.66507 99.925641 
L 242.087431 117.3662 
L 244.509793 117.3662 
L 246.932154 111.552681 
L 251.776876 128.99324 
L 254.199237 131.9 
L 256.621599 120.27296 
L 259.04396 114.459441 
L 261.466321 131.9 
L 263.888682 152.247319 
L 266.311043 126.08648 
L 271.155766 126.08648 
L 273.578127 123.17972 
L 276.000488 160.967599 
L 278.422849 128.99324 
L 280.84521 73.764802 
L 283.267572 99.925641 
L 285.689933 76.671562 
L 288.112294 85.391841 
L 290.534655 79.578322 
L 292.957016 56.324242 
L 295.379378 117.3662 
L 297.801739 65.044522 
L 300.2241 79.578322 
L 302.646461 70.858042 
L 305.068822 99.925641 
L 309.913545 88.298601 
L 312.335906 102.832401 
L 314.758267 99.925641 
L 319.60299 88.298601 
L 322.025351 53.417483 
L 324.447712 47.603963 
L 326.870073 102.832401 
L 329.292434 82.485082 
L 331.714796 105.739161 
L 334.137157 53.417483 
L 336.559518 105.739161 
L 338.981879 82.485082 
L 341.40424 73.764802 
L 343.826602 108.645921 
L 346.248963 105.739161 
L 348.671324 85.391841 
L 351.093685 79.578322 
L 355.938408 62.137762 
L 358.360769 85.391841 
L 360.78313 99.925641 
L 365.627852 70.858042 
L 368.050214 85.391841 
L 370.472575 88.298601 
L 372.894936 108.645921 
L 375.317297 91.205361 
L 377.739658 85.391841 
L 380.16202 99.925641 
L 385.006742 76.671562 
L 387.429103 82.485082 
L 389.851464 97.018881 
L 392.273826 102.832401 
L 397.118548 91.205361 
L 399.540909 99.925641 
L 399.540909 99.925641 
" clip-path="url(#p29bef2d5fa)" style="fill: none; stroke: #2ca02c; stroke-width: 1.5; stroke-linecap: square"/>
   </g>
   <g id="line2d_21">
    <path d="M 38.609091 242.356876 
L 48.298536 242.356876 
L 50.720897 236.543357 
L 55.565619 242.356876 
L 57.98798 242.356876 
L 60.410342 245.263636 
L 62.832703 242.356876 
L 65.255064 242.356876 
L 67.677425 245.263636 
L 70.099786 245.263636 
L 72.522148 242.356876 
L 74.944509 236.543357 
L 77.36687 236.543357 
L 79.789231 239.450117 
L 84.633954 239.450117 
L 87.056315 242.356876 
L 89.478676 236.543357 
L 91.901037 242.356876 
L 94.323398 233.636597 
L 96.74576 242.356876 
L 99.168121 242.356876 
L 101.590482 236.543357 
L 104.012843 242.356876 
L 111.279927 242.356876 
L 113.702288 236.543357 
L 116.124649 245.263636 
L 118.54701 242.356876 
L 133.081178 242.356876 
L 135.503539 239.450117 
L 137.9259 239.450117 
L 140.348261 242.356876 
L 142.770622 230.729837 
L 145.192984 236.543357 
L 150.037706 242.356876 
L 157.30479 242.356876 
L 159.727151 207.475758 
L 162.149512 204.568998 
L 164.571873 204.568998 
L 166.994234 210.382517 
L 169.416595 204.568998 
L 171.838957 210.382517 
L 174.261318 201.662238 
L 176.683679 219.102797 
L 179.10604 210.382517 
L 181.528401 207.475758 
L 183.950763 219.102797 
L 186.373124 204.568998 
L 188.795485 219.102797 
L 191.217846 207.475758 
L 193.640207 210.382517 
L 198.48493 204.568998 
L 200.907291 219.102797 
L 203.329652 204.568998 
L 205.752013 216.196037 
L 208.174375 195.848718 
L 210.596736 210.382517 
L 213.019097 204.568998 
L 215.441458 213.289277 
L 220.286181 207.475758 
L 222.708542 207.475758 
L 225.130903 198.755478 
L 227.553264 204.568998 
L 229.975625 219.102797 
L 232.397987 216.196037 
L 234.820348 219.102797 
L 237.242709 213.289277 
L 239.66507 201.662238 
L 242.087431 204.568998 
L 244.509793 201.662238 
L 246.932154 204.568998 
L 249.354515 210.382517 
L 254.199237 210.382517 
L 256.621599 213.289277 
L 259.04396 207.475758 
L 263.888682 219.102797 
L 266.311043 210.382517 
L 268.733405 213.289277 
L 271.155766 210.382517 
L 273.578127 210.382517 
L 276.000488 216.196037 
L 278.422849 210.382517 
L 280.84521 175.501399 
L 283.267572 192.941958 
L 285.689933 187.128438 
L 288.112294 195.848718 
L 290.534655 184.221678 
L 292.957016 187.128438 
L 295.379378 198.755478 
L 297.801739 195.848718 
L 300.2241 195.848718 
L 302.646461 175.501399 
L 305.068822 190.035198 
L 307.491184 192.941958 
L 309.913545 187.128438 
L 312.335906 190.035198 
L 314.758267 178.408159 
L 317.180628 181.314918 
L 319.60299 195.848718 
L 322.025351 184.221678 
L 324.447712 181.314918 
L 326.870073 204.568998 
L 329.292434 181.314918 
L 331.714796 190.035198 
L 334.137157 190.035198 
L 336.559518 195.848718 
L 338.981879 187.128438 
L 341.40424 195.848718 
L 346.248963 195.848718 
L 348.671324 187.128438 
L 351.093685 201.662238 
L 353.516046 192.941958 
L 355.938408 190.035198 
L 358.360769 184.221678 
L 360.78313 204.568998 
L 363.205491 207.475758 
L 365.627852 181.314918 
L 368.050214 178.408159 
L 370.472575 195.848718 
L 372.894936 195.848718 
L 377.739658 178.408159 
L 380.16202 181.314918 
L 385.006742 181.314918 
L 387.429103 175.501399 
L 389.851464 181.314918 
L 392.273826 192.941958 
L 394.696187 190.035198 
L 397.118548 181.314918 
L 399.540909 195.848718 
L 399.540909 195.848718 
" clip-path="url(#p29bef2d5fa)" style="fill: none; stroke: #d62728; stroke-width: 1.5; stroke-linecap: square"/>
   </g>
   <g id="patch_3">
    <path d="M 20.5625 256.6 
L 20.5625 7.2 
" style="fill: none; stroke: #000000; stroke-width: 0.8; stroke-linejoin: miter; stroke-linecap: square"/>
   </g>
   <g id="patch_4">
    <path d="M 417.5875 256.6 
L 417.5875 7.2 
" style="fill: none; stroke: #000000; stroke-width: 0.8; stroke-linejoin: miter; stroke-linecap: square"/>
   </g>
   <g id="patch_5">
    <path d="M 20.5625 256.6 
L 417.5875 256.6 
" style="fill: none; stroke: #000000; stroke-width: 0.8; stroke-linejoin: miter; stroke-linecap: square"/>
   </g>
   <g id="patch_6">
    <path d="M 20.5625 7.2 
L 417.5875 7.2 
" style="fill: none; stroke: #000000; stroke-width: 0.8; stroke-linejoin: miter; stroke-linecap: square"/>
   </g>
   <g id="legend_1">
    <g id="patch_7">
     <path d="M 27.5625 73.9125 
L 138.535937 73.9125 
Q 140.535937 73.9125 140.535937 71.9125 
L 140.535937 14.2 
Q 140.535937 12.2 138.535937 12.2 
L 27.5625 12.2 
Q 25.5625 12.2 25.5625 14.2 
L 25.5625 71.9125 
Q 25.5625 73.9125 27.5625 73.9125 
z
" style="fill: #ffffff; opacity: 0.8; stroke: #cccccc; stroke-linejoin: miter"/>
    </g>
    <g id="line2d_22">
     <path d="M 29.5625 20.298437 
L 39.5625 20.298437 
L 49.5625 20.298437 
" style="fill: none; stroke: #1f77b4; stroke-width: 1.5; stroke-linecap: square"/>
    </g>
    <g id="text_18">
     <!-- SepalLengthCm -->
     <g transform="translate(57.5625 23.798437)scale(0.1 -0.1)">
      <defs>
       <path id="DejaVuSans-53" d="M 3425 4513 
L 3425 3897 
Q 3066 4069 2747 4153 
Q 2428 4238 2131 4238 
Q 1616 4238 1336 4038 
Q 1056 3838 1056 3469 
Q 1056 3159 1242 3001 
Q 1428 2844 1947 2747 
L 2328 2669 
Q 3034 2534 3370 2195 
Q 3706 1856 3706 1288 
Q 3706 609 3251 259 
Q 2797 -91 1919 -91 
Q 1588 -91 1214 -16 
Q 841 59 441 206 
L 441 856 
Q 825 641 1194 531 
Q 1563 422 1919 422 
Q 2459 422 2753 634 
Q 3047 847 3047 1241 
Q 3047 1584 2836 1778 
Q 2625 1972 2144 2069 
L 1759 2144 
Q 1053 2284 737 2584 
Q 422 2884 422 3419 
Q 422 4038 858 4394 
Q 1294 4750 2059 4750 
Q 2388 4750 2728 4690 
Q 3069 4631 3425 4513 
z
" transform="scale(0.015625)"/>
       <path id="DejaVuSans-65" d="M 3597 1894 
L 3597 1613 
L 953 1613 
Q 991 1019 1311 708 
Q 1631 397 2203 397 
Q 2534 397 2845 478 
Q 3156 559 3463 722 
L 3463 178 
Q 3153 47 2828 -22 
Q 2503 -91 2169 -91 
Q 1331 -91 842 396 
Q 353 884 353 1716 
Q 353 2575 817 3079 
Q 1281 3584 2069 3584 
Q 2775 3584 3186 3129 
Q 3597 2675 3597 1894 
z
M 3022 2063 
Q 3016 2534 2758 2815 
Q 2500 3097 2075 3097 
Q 1594 3097 1305 2825 
Q 1016 2553 972 2059 
L 3022 2063 
z
" transform="scale(0.015625)"/>
       <path id="DejaVuSans-70" d="M 1159 525 
L 1159 -1331 
L 581 -1331 
L 581 3500 
L 1159 3500 
L 1159 2969 
Q 1341 3281 1617 3432 
Q 1894 3584 2278 3584 
Q 2916 3584 3314 3078 
Q 3713 2572 3713 1747 
Q 3713 922 3314 415 
Q 2916 -91 2278 -91 
Q 1894 -91 1617 61 
Q 1341 213 1159 525 
z
M 3116 1747 
Q 3116 2381 2855 2742 
Q 2594 3103 2138 3103 
Q 1681 3103 1420 2742 
Q 1159 2381 1159 1747 
Q 1159 1113 1420 752 
Q 1681 391 2138 391 
Q 2594 391 2855 752 
Q 3116 1113 3116 1747 
z
" transform="scale(0.015625)"/>
       <path id="DejaVuSans-61" d="M 2194 1759 
Q 1497 1759 1228 1600 
Q 959 1441 959 1056 
Q 959 750 1161 570 
Q 1363 391 1709 391 
Q 2188 391 2477 730 
Q 2766 1069 2766 1631 
L 2766 1759 
L 2194 1759 
z
M 3341 1997 
L 3341 0 
L 2766 0 
L 2766 531 
Q 2569 213 2275 61 
Q 1981 -91 1556 -91 
Q 1019 -91 701 211 
Q 384 513 384 1019 
Q 384 1609 779 1909 
Q 1175 2209 1959 2209 
L 2766 2209 
L 2766 2266 
Q 2766 2663 2505 2880 
Q 2244 3097 1772 3097 
Q 1472 3097 1187 3025 
Q 903 2953 641 2809 
L 641 3341 
Q 956 3463 1253 3523 
Q 1550 3584 1831 3584 
Q 2591 3584 2966 3190 
Q 3341 2797 3341 1997 
z
" transform="scale(0.015625)"/>
       <path id="DejaVuSans-6c" d="M 603 4863 
L 1178 4863 
L 1178 0 
L 603 0 
L 603 4863 
z
" transform="scale(0.015625)"/>
       <path id="DejaVuSans-4c" d="M 628 4666 
L 1259 4666 
L 1259 531 
L 3531 531 
L 3531 0 
L 628 0 
L 628 4666 
z
" transform="scale(0.015625)"/>
       <path id="DejaVuSans-6e" d="M 3513 2113 
L 3513 0 
L 2938 0 
L 2938 2094 
Q 2938 2591 2744 2837 
Q 2550 3084 2163 3084 
Q 1697 3084 1428 2787 
Q 1159 2491 1159 1978 
L 1159 0 
L 581 0 
L 581 3500 
L 1159 3500 
L 1159 2956 
Q 1366 3272 1645 3428 
Q 1925 3584 2291 3584 
Q 2894 3584 3203 3211 
Q 3513 2838 3513 2113 
z
" transform="scale(0.015625)"/>
       <path id="DejaVuSans-67" d="M 2906 1791 
Q 2906 2416 2648 2759 
Q 2391 3103 1925 3103 
Q 1463 3103 1205 2759 
Q 947 2416 947 1791 
Q 947 1169 1205 825 
Q 1463 481 1925 481 
Q 2391 481 2648 825 
Q 2906 1169 2906 1791 
z
M 3481 434 
Q 3481 -459 3084 -895 
Q 2688 -1331 1869 -1331 
Q 1566 -1331 1297 -1286 
Q 1028 -1241 775 -1147 
L 775 -588 
Q 1028 -725 1275 -790 
Q 1522 -856 1778 -856 
Q 2344 -856 2625 -561 
Q 2906 -266 2906 331 
L 2906 616 
Q 2728 306 2450 153 
Q 2172 0 1784 0 
Q 1141 0 747 490 
Q 353 981 353 1791 
Q 353 2603 747 3093 
Q 1141 3584 1784 3584 
Q 2172 3584 2450 3431 
Q 2728 3278 2906 2969 
L 2906 3500 
L 3481 3500 
L 3481 434 
z
" transform="scale(0.015625)"/>
       <path id="DejaVuSans-74" d="M 1172 4494 
L 1172 3500 
L 2356 3500 
L 2356 3053 
L 1172 3053 
L 1172 1153 
Q 1172 725 1289 603 
Q 1406 481 1766 481 
L 2356 481 
L 2356 0 
L 1766 0 
Q 1100 0 847 248 
Q 594 497 594 1153 
L 594 3053 
L 172 3053 
L 172 3500 
L 594 3500 
L 594 4494 
L 1172 4494 
z
" transform="scale(0.015625)"/>
       <path id="DejaVuSans-68" d="M 3513 2113 
L 3513 0 
L 2938 0 
L 2938 2094 
Q 2938 2591 2744 2837 
Q 2550 3084 2163 3084 
Q 1697 3084 1428 2787 
Q 1159 2491 1159 1978 
L 1159 0 
L 581 0 
L 581 4863 
L 1159 4863 
L 1159 2956 
Q 1366 3272 1645 3428 
Q 1925 3584 2291 3584 
Q 2894 3584 3203 3211 
Q 3513 2838 3513 2113 
z
" transform="scale(0.015625)"/>
       <path id="DejaVuSans-43" d="M 4122 4306 
L 4122 3641 
Q 3803 3938 3442 4084 
Q 3081 4231 2675 4231 
Q 1875 4231 1450 3742 
Q 1025 3253 1025 2328 
Q 1025 1406 1450 917 
Q 1875 428 2675 428 
Q 3081 428 3442 575 
Q 3803 722 4122 1019 
L 4122 359 
Q 3791 134 3420 21 
Q 3050 -91 2638 -91 
Q 1578 -91 968 557 
Q 359 1206 359 2328 
Q 359 3453 968 4101 
Q 1578 4750 2638 4750 
Q 3056 4750 3426 4639 
Q 3797 4528 4122 4306 
z
" transform="scale(0.015625)"/>
       <path id="DejaVuSans-6d" d="M 3328 2828 
Q 3544 3216 3844 3400 
Q 4144 3584 4550 3584 
Q 5097 3584 5394 3201 
Q 5691 2819 5691 2113 
L 5691 0 
L 5113 0 
L 5113 2094 
Q 5113 2597 4934 2840 
Q 4756 3084 4391 3084 
Q 3944 3084 3684 2787 
Q 3425 2491 3425 1978 
L 3425 0 
L 2847 0 
L 2847 2094 
Q 2847 2600 2669 2842 
Q 2491 3084 2119 3084 
Q 1678 3084 1418 2786 
Q 1159 2488 1159 1978 
L 1159 0 
L 581 0 
L 581 3500 
L 1159 3500 
L 1159 2956 
Q 1356 3278 1631 3431 
Q 1906 3584 2284 3584 
Q 2666 3584 2933 3390 
Q 3200 3197 3328 2828 
z
" transform="scale(0.015625)"/>
      </defs>
      <use xlink:href="#DejaVuSans-53"/>
      <use xlink:href="#DejaVuSans-65" x="63.476562"/>
      <use xlink:href="#DejaVuSans-70" x="125"/>
      <use xlink:href="#DejaVuSans-61" x="188.476562"/>
      <use xlink:href="#DejaVuSans-6c" x="249.755859"/>
      <use xlink:href="#DejaVuSans-4c" x="277.539062"/>
      <use xlink:href="#DejaVuSans-65" x="331.501953"/>
      <use xlink:href="#DejaVuSans-6e" x="393.025391"/>
      <use xlink:href="#DejaVuSans-67" x="456.404297"/>
      <use xlink:href="#DejaVuSans-74" x="519.880859"/>
      <use xlink:href="#DejaVuSans-68" x="559.089844"/>
      <use xlink:href="#DejaVuSans-43" x="622.46875"/>
      <use xlink:href="#DejaVuSans-6d" x="692.292969"/>
     </g>
    </g>
    <g id="line2d_23">
     <path d="M 29.5625 34.976562 
L 39.5625 34.976562 
L 49.5625 34.976562 
" style="fill: none; stroke: #ff7f0e; stroke-width: 1.5; stroke-linecap: square"/>
    </g>
    <g id="text_19">
     <!-- SepalWidthCm -->
     <g transform="translate(57.5625 38.476562)scale(0.1 -0.1)">
      <defs>
       <path id="DejaVuSans-57" d="M 213 4666 
L 850 4666 
L 1831 722 
L 2809 4666 
L 3519 4666 
L 4500 722 
L 5478 4666 
L 6119 4666 
L 4947 0 
L 4153 0 
L 3169 4050 
L 2175 0 
L 1381 0 
L 213 4666 
z
" transform="scale(0.015625)"/>
       <path id="DejaVuSans-69" d="M 603 3500 
L 1178 3500 
L 1178 0 
L 603 0 
L 603 3500 
z
M 603 4863 
L 1178 4863 
L 1178 4134 
L 603 4134 
L 603 4863 
z
" transform="scale(0.015625)"/>
       <path id="DejaVuSans-64" d="M 2906 2969 
L 2906 4863 
L 3481 4863 
L 3481 0 
L 2906 0 
L 2906 525 
Q 2725 213 2448 61 
Q 2172 -91 1784 -91 
Q 1150 -91 751 415 
Q 353 922 353 1747 
Q 353 2572 751 3078 
Q 1150 3584 1784 3584 
Q 2172 3584 2448 3432 
Q 2725 3281 2906 2969 
z
M 947 1747 
Q 947 1113 1208 752 
Q 1469 391 1925 391 
Q 2381 391 2643 752 
Q 2906 1113 2906 1747 
Q 2906 2381 2643 2742 
Q 2381 3103 1925 3103 
Q 1469 3103 1208 2742 
Q 947 2381 947 1747 
z
" transform="scale(0.015625)"/>
      </defs>
      <use xlink:href="#DejaVuSans-53"/>
      <use xlink:href="#DejaVuSans-65" x="63.476562"/>
      <use xlink:href="#DejaVuSans-70" x="125"/>
      <use xlink:href="#DejaVuSans-61" x="188.476562"/>
      <use xlink:href="#DejaVuSans-6c" x="249.755859"/>
      <use xlink:href="#DejaVuSans-57" x="277.539062"/>
      <use xlink:href="#DejaVuSans-69" x="374.166016"/>
      <use xlink:href="#DejaVuSans-64" x="401.949219"/>
      <use xlink:href="#DejaVuSans-74" x="465.425781"/>
      <use xlink:href="#DejaVuSans-68" x="504.634766"/>
      <use xlink:href="#DejaVuSans-43" x="568.013672"/>
      <use xlink:href="#DejaVuSans-6d" x="637.837891"/>
     </g>
    </g>
    <g id="line2d_24">
     <path d="M 29.5625 49.654687 
L 39.5625 49.654687 
L 49.5625 49.654687 
" style="fill: none; stroke: #2ca02c; stroke-width: 1.5; stroke-linecap: square"/>
    </g>
    <g id="text_20">
     <!-- PetalLengthCm -->
     <g transform="translate(57.5625 53.154687)scale(0.1 -0.1)">
      <defs>
       <path id="DejaVuSans-50" d="M 1259 4147 
L 1259 2394 
L 2053 2394 
Q 2494 2394 2734 2622 
Q 2975 2850 2975 3272 
Q 2975 3691 2734 3919 
Q 2494 4147 2053 4147 
L 1259 4147 
z
M 628 4666 
L 2053 4666 
Q 2838 4666 3239 4311 
Q 3641 3956 3641 3272 
Q 3641 2581 3239 2228 
Q 2838 1875 2053 1875 
L 1259 1875 
L 1259 0 
L 628 0 
L 628 4666 
z
" transform="scale(0.015625)"/>
      </defs>
      <use xlink:href="#DejaVuSans-50"/>
      <use xlink:href="#DejaVuSans-65" x="56.677734"/>
      <use xlink:href="#DejaVuSans-74" x="118.201172"/>
      <use xlink:href="#DejaVuSans-61" x="157.410156"/>
      <use xlink:href="#DejaVuSans-6c" x="218.689453"/>
      <use xlink:href="#DejaVuSans-4c" x="246.472656"/>
      <use xlink:href="#DejaVuSans-65" x="300.435547"/>
      <use xlink:href="#DejaVuSans-6e" x="361.958984"/>
      <use xlink:href="#DejaVuSans-67" x="425.337891"/>
      <use xlink:href="#DejaVuSans-74" x="488.814453"/>
      <use xlink:href="#DejaVuSans-68" x="528.023438"/>
      <use xlink:href="#DejaVuSans-43" x="591.402344"/>
      <use xlink:href="#DejaVuSans-6d" x="661.226562"/>
     </g>
    </g>
    <g id="line2d_25">
     <path d="M 29.5625 64.332812 
L 39.5625 64.332812 
L 49.5625 64.332812 
" style="fill: none; stroke: #d62728; stroke-width: 1.5; stroke-linecap: square"/>
    </g>
    <g id="text_21">
     <!-- PetalWidthCm -->
     <g transform="translate(57.5625 67.832812)scale(0.1 -0.1)">
      <use xlink:href="#DejaVuSans-50"/>
      <use xlink:href="#DejaVuSans-65" x="56.677734"/>
      <use xlink:href="#DejaVuSans-74" x="118.201172"/>
      <use xlink:href="#DejaVuSans-61" x="157.410156"/>
      <use xlink:href="#DejaVuSans-6c" x="218.689453"/>
      <use xlink:href="#DejaVuSans-57" x="246.472656"/>
      <use xlink:href="#DejaVuSans-69" x="343.099609"/>
      <use xlink:href="#DejaVuSans-64" x="370.882812"/>
      <use xlink:href="#DejaVuSans-74" x="434.359375"/>
      <use xlink:href="#DejaVuSans-68" x="473.568359"/>
      <use xlink:href="#DejaVuSans-43" x="536.947266"/>
      <use xlink:href="#DejaVuSans-6d" x="606.771484"/>
     </g>
    </g>
   </g>
  </g>
 </g>
 <defs>
  <clipPath id="p29bef2d5fa">
   <rect x="20.5625" y="7.2" width="397.025" height="249.4"/>
  </clipPath>
 </defs>
</svg>
