<?xml version="1.0" encoding="utf-8" standalone="no"?>
<!DOCTYPE svg PUBLIC "-//W3C//DTD SVG 1.1//EN"
  "http://www.w3.org/Graphics/SVG/1.1/DTD/svg11.dtd">
<svg xmlns:xlink="http://www.w3.org/1999/xlink" width="424.417187pt" height="280.15625pt" viewBox="0 0 424.417187 280.15625" xmlns="http://www.w3.org/2000/svg" version="1.1">
 <metadata>
  <rdf:RDF xmlns:dc="http://purl.org/dc/elements/1.1/" xmlns:cc="http://creativecommons.org/ns#" xmlns:rdf="http://www.w3.org/1999/02/22-rdf-syntax-ns#">
   <cc:Work>
    <dc:type rdf:resource="http://purl.org/dc/dcmitype/StillImage"/>
    <dc:date>2022-02-06T17:02:54.078150</dc:date>
    <dc:format>image/svg+xml</dc:format>
    <dc:creator>
     <cc:Agent>
      <dc:title>Matplotlib v3.5.0, https://matplotlib.org/</dc:title>
     </cc:Agent>
    </dc:creator>
   </cc:Work>
  </rdf:RDF>
 </metadata>
 <defs>
  <style type="text/css">*{stroke-linejoin: round; stroke-linecap: butt}</style>
 </defs>
 <g id="figure_1">
  <g id="patch_1">
   <path d="M -0 280.15625 
L 424.417187 280.15625 
L 424.417187 0 
L -0 0 
L -0 280.15625 
z
" style="fill: none"/>
  </g>
  <g id="axes_1">
   <g id="patch_2">
    <path d="M 95.067188 242.6 
L 417.217188 242.6 
L 417.217188 7.2 
L 95.067188 7.2 
z
" style="fill: #ffffff"/>
   </g>
   <g id="PolyCollection_1">
    <defs>
     <path id="m1fb298fa71" d="M 109.710369 -233.364339 
L 109.710369 -234.081495 
L 111.128251 -234.20493 
L 112.546133 -234.361284 
L 113.964015 -234.556001 
L 115.381896 -234.794412 
L 116.799778 -235.081419 
L 118.21766 -235.421144 
L 119.635542 -235.816572 
L 121.053423 -236.269223 
L 122.471305 -236.778895 
L 123.889187 -237.343506 
L 125.307068 -237.959072 
L 126.72495 -238.619836 
L 128.142832 -239.318544 
L 129.560714 -240.046856 
L 130.978595 -240.795858 
L 132.396477 -241.556615 
L 133.814359 -242.320723 
L 135.232241 -243.080791 
L 136.650122 -243.830819 
L 138.068004 -244.566428 
L 139.485886 -245.284945 
L 140.903768 -245.985338 
L 142.321649 -246.668058 
L 143.739531 -247.334797 
L 145.157413 -247.988244 
L 146.575295 -248.631852 
L 147.993176 -249.269671 
L 149.411058 -249.906235 
L 150.82894 -250.546516 
L 152.246822 -251.195906 
L 153.664703 -251.860182 
L 155.082585 -252.545413 
L 156.500467 -253.257747 
L 157.918349 -254.003049 
L 159.33623 -254.786362 
L 160.754112 -255.611196 
L 162.171994 -256.478691 
L 163.589875 -257.386712 
L 165.007757 -258.328991 
L 166.425639 -259.294434 
L 167.843521 -260.266728 
L 169.261402 -261.224371 
L 170.679284 -262.141212 
L 172.097166 -262.987557 
L 173.515048 -263.731793 
L 174.932929 -264.342459 
L 176.350811 -264.790572 
L 177.768693 -265.051993 
L 179.186575 -265.109583 
L 180.604456 -264.954886 
L 182.022338 -264.589121 
L 183.44022 -264.023345 
L 184.858102 -263.277724 
L 186.275983 -262.379976 
L 187.693865 -261.36312 
L 189.111747 -260.262805 
L 190.529629 -259.11448 
L 191.94751 -257.950743 
L 193.365392 -256.799142 
L 194.783274 -255.680658 
L 196.201156 -254.608995 
L 197.619037 -253.590709 
L 199.036919 -252.626083 
L 200.454801 -251.710582 
L 201.872682 -250.836646 
L 203.290564 -249.995554 
L 204.708446 -249.179112 
L 206.126328 -248.380951 
L 207.544209 -247.597317 
L 208.962091 -246.827288 
L 210.379973 -246.072484 
L 211.797855 -245.33636 
L 213.215736 -244.623267 
L 214.633618 -243.937451 
L 216.0515 -243.28217 
L 217.469382 -242.659061 
L 218.887263 -242.067837 
L 220.305145 -241.506341 
L 221.723027 -240.970907 
L 223.140909 -240.456959 
L 224.55879 -239.959715 
L 225.976672 -239.4749 
L 227.394554 -238.999338 
L 228.812436 -238.531366 
L 230.230317 -238.071008 
L 231.648199 -237.619919 
L 233.066081 -237.181119 
L 234.483963 -236.758579 
L 235.901844 -236.356727 
L 237.319726 -235.979939 
L 238.737608 -235.632087 
L 240.155489 -235.316181 
L 241.573371 -235.034142 
L 242.991253 -234.786707 
L 244.409135 -234.573448 
L 245.827016 -234.392908 
L 247.244898 -234.24279 
L 248.66278 -234.120195 
L 250.080662 -234.021862 
L 250.080662 -233.423972 
L 250.080662 -233.423972 
L 248.66278 -233.325639 
L 247.244898 -233.203044 
L 245.827016 -233.052926 
L 244.409135 -232.872385 
L 242.991253 -232.659127 
L 241.573371 -232.411691 
L 240.155489 -232.129653 
L 238.737608 -231.813747 
L 237.319726 -231.465894 
L 235.901844 -231.089106 
L 234.483963 -230.687254 
L 233.066081 -230.264714 
L 231.648199 -229.825914 
L 230.230317 -229.374825 
L 228.812436 -228.914467 
L 227.394554 -228.446495 
L 225.976672 -227.970933 
L 224.55879 -227.486118 
L 223.140909 -226.988874 
L 221.723027 -226.474926 
L 220.305145 -225.939493 
L 218.887263 -225.377996 
L 217.469382 -224.786772 
L 216.0515 -224.163663 
L 214.633618 -223.508382 
L 213.215736 -222.822566 
L 211.797855 -222.109473 
L 210.379973 -221.373349 
L 208.962091 -220.618545 
L 207.544209 -219.848517 
L 206.126328 -219.064882 
L 204.708446 -218.266722 
L 203.290564 -217.450279 
L 201.872682 -216.609187 
L 200.454801 -215.735252 
L 199.036919 -214.819751 
L 197.619037 -213.855124 
L 196.201156 -212.836838 
L 194.783274 -211.765175 
L 193.365392 -210.646691 
L 191.94751 -209.49509 
L 190.529629 -208.331353 
L 189.111747 -207.183028 
L 187.693865 -206.082713 
L 186.275983 -205.065858 
L 184.858102 -204.168109 
L 183.44022 -203.422489 
L 182.022338 -202.856712 
L 180.604456 -202.490947 
L 179.186575 -202.33625 
L 177.768693 -202.393841 
L 176.350811 -202.655262 
L 174.932929 -203.103374 
L 173.515048 -203.71404 
L 172.097166 -204.458277 
L 170.679284 -205.304621 
L 169.261402 -206.221463 
L 167.843521 -207.179105 
L 166.425639 -208.151399 
L 165.007757 -209.116843 
L 163.589875 -210.059121 
L 162.171994 -210.967142 
L 160.754112 -211.834637 
L 159.33623 -212.659472 
L 157.918349 -213.442784 
L 156.500467 -214.188086 
L 155.082585 -214.90042 
L 153.664703 -215.585651 
L 152.246822 -216.249928 
L 150.82894 -216.899318 
L 149.411058 -217.539599 
L 147.993176 -218.176162 
L 146.575295 -218.813981 
L 145.157413 -219.45759 
L 143.739531 -220.111036 
L 142.321649 -220.777776 
L 140.903768 -221.460495 
L 139.485886 -222.160889 
L 138.068004 -222.879405 
L 136.650122 -223.615015 
L 135.232241 -224.365043 
L 133.814359 -225.125111 
L 132.396477 -225.889218 
L 130.978595 -226.649975 
L 129.560714 -227.398977 
L 128.142832 -228.127289 
L 126.72495 -228.825997 
L 125.307068 -229.486761 
L 123.889187 -230.102327 
L 122.471305 -230.666938 
L 121.053423 -231.17661 
L 119.635542 -231.629262 
L 118.21766 -232.024689 
L 116.799778 -232.364415 
L 115.381896 -232.651422 
L 113.964015 -232.889832 
L 112.546133 -233.084549 
L 111.128251 -233.240904 
L 109.710369 -233.364339 
z
" style="stroke: #3d3d3d; stroke-width: 1.5"/>
    </defs>
    <g clip-path="url(#pe02efe2dcb)">
     <use xlink:href="#m1fb298fa71" x="0" y="280.15625" style="fill: #3274a1; stroke: #3d3d3d; stroke-width: 1.5"/>
    </g>
   </g>
   <g id="PolyCollection_2">
    <defs>
     <path id="mba889d4eda" d="M 139.51418 -154.996358 
L 139.51418 -155.516142 
L 141.51018 -155.6021 
L 143.506179 -155.709504 
L 145.502178 -155.841312 
L 147.498177 -156.000168 
L 149.494177 -156.188159 
L 151.490176 -156.406581 
L 153.486175 -156.655713 
L 155.482175 -156.934652 
L 157.478174 -157.241226 
L 159.474173 -157.572018 
L 161.470172 -157.922531 
L 163.466172 -158.287493 
L 165.462171 -158.661296 
L 167.45817 -159.038562 
L 169.45417 -159.414769 
L 171.450169 -159.786897 
L 173.446168 -160.154013 
L 175.442167 -160.51773 
L 177.438167 -160.882445 
L 179.434166 -161.255331 
L 181.430165 -161.64602 
L 183.426165 -162.065971 
L 185.422164 -162.527568 
L 187.418163 -163.042988 
L 189.414162 -163.622947 
L 191.410162 -164.275425 
L 193.406161 -165.004518 
L 195.40216 -165.809525 
L 197.39816 -166.6844 
L 199.394159 -167.617632 
L 201.390158 -168.592611 
L 203.386157 -169.588458 
L 205.382157 -170.581265 
L 207.378156 -171.54564 
L 209.374155 -172.456408 
L 211.370155 -173.290318 
L 213.366154 -174.027584 
L 215.362153 -174.65311 
L 217.358152 -175.157297 
L 219.354152 -175.536351 
L 221.350151 -175.792092 
L 223.34615 -175.931303 
L 225.342149 -175.964702 
L 227.338149 -175.905681 
L 229.334148 -175.768943 
L 231.330147 -175.569196 
L 233.326147 -175.320028 
L 235.322146 -175.033068 
L 237.318145 -174.717485 
L 239.314144 -174.379847 
L 241.310144 -174.024302 
L 243.306143 -173.653017 
L 245.302142 -173.266792 
L 247.298142 -172.865736 
L 249.294141 -172.449929 
L 251.29014 -172.01996 
L 253.286139 -171.577313 
L 255.282139 -171.124532 
L 257.278138 -170.665196 
L 259.274137 -170.203691 
L 261.270137 -169.744847 
L 263.266136 -169.293464 
L 265.262135 -168.853821 
L 267.258134 -168.429201 
L 269.254134 -168.021507 
L 271.250133 -167.631002 
L 273.246132 -167.256211 
L 275.242132 -166.894 
L 277.238131 -166.539809 
L 279.23413 -166.188043 
L 281.230129 -165.832551 
L 283.226129 -165.467172 
L 285.222128 -165.086271 
L 287.218127 -164.685229 
L 289.214127 -164.26083 
L 291.210126 -163.81153 
L 293.206125 -163.337566 
L 295.202124 -162.840936 
L 297.198124 -162.325238 
L 299.194123 -161.795411 
L 301.190122 -161.257402 
L 303.186122 -160.717795 
L 305.182121 -160.183437 
L 307.17812 -159.661083 
L 309.174119 -159.157081 
L 311.170119 -158.677116 
L 313.166118 -158.226011 
L 315.162117 -157.807591 
L 317.158117 -157.424611 
L 319.154116 -157.078737 
L 321.150115 -156.77058 
L 323.146114 -156.499772 
L 325.142114 -156.265082 
L 327.138113 -156.064554 
L 329.134112 -155.895666 
L 331.130111 -155.755492 
L 333.126111 -155.640869 
L 335.12211 -155.548544 
L 337.118109 -155.475311 
L 337.118109 -155.037189 
L 337.118109 -155.037189 
L 335.12211 -154.963956 
L 333.126111 -154.871631 
L 331.130111 -154.757008 
L 329.134112 -154.616834 
L 327.138113 -154.447946 
L 325.142114 -154.247418 
L 323.146114 -154.012728 
L 321.150115 -153.74192 
L 319.154116 -153.433763 
L 317.158117 -153.087889 
L 315.162117 -152.704909 
L 313.166118 -152.286489 
L 311.170119 -151.835384 
L 309.174119 -151.355419 
L 307.17812 -150.851417 
L 305.182121 -150.329063 
L 303.186122 -149.794705 
L 301.190122 -149.255098 
L 299.194123 -148.717089 
L 297.198124 -148.187262 
L 295.202124 -147.671564 
L 293.206125 -147.174934 
L 291.210126 -146.70097 
L 289.214127 -146.25167 
L 287.218127 -145.827271 
L 285.222128 -145.426229 
L 283.226129 -145.045328 
L 281.230129 -144.679949 
L 279.23413 -144.324457 
L 277.238131 -143.972691 
L 275.242132 -143.6185 
L 273.246132 -143.256289 
L 271.250133 -142.881498 
L 269.254134 -142.490993 
L 267.258134 -142.083299 
L 265.262135 -141.658679 
L 263.266136 -141.219036 
L 261.270137 -140.767653 
L 259.274137 -140.308809 
L 257.278138 -139.847304 
L 255.282139 -139.387968 
L 253.286139 -138.935187 
L 251.29014 -138.49254 
L 249.294141 -138.062571 
L 247.298142 -137.646764 
L 245.302142 -137.245708 
L 243.306143 -136.859483 
L 241.310144 -136.488198 
L 239.314144 -136.132653 
L 237.318145 -135.795015 
L 235.322146 -135.479432 
L 233.326147 -135.192472 
L 231.330147 -134.943304 
L 229.334148 -134.743557 
L 227.338149 -134.606819 
L 225.342149 -134.547798 
L 223.34615 -134.581197 
L 221.350151 -134.720408 
L 219.354152 -134.976149 
L 217.358152 -135.355203 
L 215.362153 -135.85939 
L 213.366154 -136.484916 
L 211.370155 -137.222182 
L 209.374155 -138.056092 
L 207.378156 -138.96686 
L 205.382157 -139.931235 
L 203.386157 -140.924042 
L 201.390158 -141.919889 
L 199.394159 -142.894868 
L 197.39816 -143.8281 
L 195.40216 -144.702975 
L 193.406161 -145.507982 
L 191.410162 -146.237075 
L 189.414162 -146.889553 
L 187.418163 -147.469512 
L 185.422164 -147.984932 
L 183.426165 -148.446529 
L 181.430165 -148.86648 
L 179.434166 -149.257169 
L 177.438167 -149.630055 
L 175.442167 -149.99477 
L 173.446168 -150.358487 
L 171.450169 -150.725603 
L 169.45417 -151.097731 
L 167.45817 -151.473938 
L 165.462171 -151.851204 
L 163.466172 -152.225007 
L 161.470172 -152.589969 
L 159.474173 -152.940482 
L 157.478174 -153.271274 
L 155.482175 -153.577848 
L 153.486175 -153.856787 
L 151.490176 -154.105919 
L 149.494177 -154.324341 
L 147.498177 -154.512332 
L 145.502178 -154.671188 
L 143.506179 -154.802996 
L 141.51018 -154.9104 
L 139.51418 -154.996358 
z
" style="stroke: #3d3d3d; stroke-width: 1.5"/>
    </defs>
    <g clip-path="url(#pe02efe2dcb)">
     <use xlink:href="#mba889d4eda" x="0" y="280.15625" style="fill: #e1812c; stroke: #3d3d3d; stroke-width: 1.5"/>
    </g>
   </g>
   <g id="PolyCollection_3">
    <defs>
     <path id="m847df1c8f5" d="M 132.478913 -76.67891 
L 132.478913 -76.900257 
L 135.207147 -76.935929 
L 137.93538 -76.979103 
L 140.663613 -77.029961 
L 143.391846 -77.088208 
L 146.12008 -77.152994 
L 148.848313 -77.22287 
L 151.576546 -77.295822 
L 154.304779 -77.369385 
L 157.033013 -77.440842 
L 159.761246 -77.507506 
L 162.489479 -77.567051 
L 165.217712 -77.617883 
L 167.945946 -77.659486 
L 170.674179 -77.692708 
L 173.402412 -77.719956 
L 176.130645 -77.745253 
L 178.858879 -77.774151 
L 181.587112 -77.813498 
L 184.315345 -77.871061 
L 187.043578 -77.955066 
L 189.771812 -78.073672 
L 192.500045 -78.234435 
L 195.228278 -78.443835 
L 197.956511 -78.706884 
L 200.684745 -79.026882 
L 203.412978 -79.405331 
L 206.141211 -79.842033 
L 208.869444 -80.335342 
L 211.597678 -80.882553 
L 214.325911 -81.480368 
L 217.054144 -82.125363 
L 219.782378 -82.814388 
L 222.510611 -83.544805 
L 225.238844 -84.314512 
L 227.967077 -85.121706 
L 230.695311 -85.964396 
L 233.423544 -86.839699 
L 236.151777 -87.743034 
L 238.88001 -88.667311 
L 241.608244 -89.602293 
L 244.336477 -90.53426 
L 247.06471 -91.446079 
L 249.792943 -92.317765 
L 252.521177 -93.127493 
L 255.24941 -93.852993 
L 257.977643 -94.473161 
L 260.705876 -94.969699 
L 263.43411 -95.328568 
L 266.162343 -95.541065 
L 268.890576 -95.604404 
L 271.618809 -95.521747 
L 274.347043 -95.301706 
L 277.075276 -94.957435 
L 279.803509 -94.50546 
L 282.531742 -93.964406 
L 285.259976 -93.353782 
L 287.988209 -92.692946 
L 290.716442 -92.000286 
L 293.444675 -91.292658 
L 296.172909 -90.585033 
L 298.901142 -89.890314 
L 301.629375 -89.219279 
L 304.357608 -88.580602 
L 307.085842 -87.98093 
L 309.814075 -87.42501 
L 312.542308 -86.915832 
L 315.270541 -86.454803 
L 317.998775 -86.041901 
L 320.727008 -85.675795 
L 323.455241 -85.353913 
L 326.183475 -85.072433 
L 328.911708 -84.826232 
L 331.639941 -84.608826 
L 334.368174 -84.412363 
L 337.096408 -84.227743 
L 339.824641 -84.044921 
L 342.552874 -83.853419 
L 345.281107 -83.643025 
L 348.009341 -83.404623 
L 350.737574 -83.131042 
L 353.465807 -82.817806 
L 356.19404 -82.463666 
L 358.922274 -82.070817 
L 361.650507 -81.644768 
L 364.37874 -81.193856 
L 367.106973 -80.728482 
L 369.835207 -80.260167 
L 372.56344 -79.800554 
L 375.291673 -79.360463 
L 378.019906 -78.94913 
L 380.74814 -78.573667 
L 383.476373 -78.238795 
L 386.204606 -77.946827 
L 388.932839 -77.69787 
L 391.661073 -77.490175 
L 394.389306 -77.320589 
L 397.117539 -77.185022 
L 399.845772 -77.078893 
L 402.574006 -76.997508 
L 402.574006 -76.581659 
L 402.574006 -76.581659 
L 399.845772 -76.500274 
L 397.117539 -76.394144 
L 394.389306 -76.258578 
L 391.661073 -76.088992 
L 388.932839 -75.881297 
L 386.204606 -75.632339 
L 383.476373 -75.340372 
L 380.74814 -75.0055 
L 378.019906 -74.630037 
L 375.291673 -74.218704 
L 372.56344 -73.778613 
L 369.835207 -73.318999 
L 367.106973 -72.850685 
L 364.37874 -72.385311 
L 361.650507 -71.934398 
L 358.922274 -71.50835 
L 356.19404 -71.115501 
L 353.465807 -70.76136 
L 350.737574 -70.448124 
L 348.009341 -70.174543 
L 345.281107 -69.936141 
L 342.552874 -69.725748 
L 339.824641 -69.534245 
L 337.096408 -69.351424 
L 334.368174 -69.166803 
L 331.639941 -68.97034 
L 328.911708 -68.752934 
L 326.183475 -68.506734 
L 323.455241 -68.225254 
L 320.727008 -67.903371 
L 317.998775 -67.537266 
L 315.270541 -67.124364 
L 312.542308 -66.663335 
L 309.814075 -66.154157 
L 307.085842 -65.598236 
L 304.357608 -64.998565 
L 301.629375 -64.359887 
L 298.901142 -63.688852 
L 296.172909 -62.994133 
L 293.444675 -62.286508 
L 290.716442 -61.578881 
L 287.988209 -60.886221 
L 285.259976 -60.225385 
L 282.531742 -59.614761 
L 279.803509 -59.073706 
L 277.075276 -58.621732 
L 274.347043 -58.277461 
L 271.618809 -58.057419 
L 268.890576 -57.974762 
L 266.162343 -58.038102 
L 263.43411 -58.250599 
L 260.705876 -58.609468 
L 257.977643 -59.106006 
L 255.24941 -59.726174 
L 252.521177 -60.451674 
L 249.792943 -61.261402 
L 247.06471 -62.133088 
L 244.336477 -63.044907 
L 241.608244 -63.976873 
L 238.88001 -64.911856 
L 236.151777 -65.836133 
L 233.423544 -66.739467 
L 230.695311 -67.614771 
L 227.967077 -68.45746 
L 225.238844 -69.264655 
L 222.510611 -70.034361 
L 219.782378 -70.764779 
L 217.054144 -71.453804 
L 214.325911 -72.098799 
L 211.597678 -72.696614 
L 208.869444 -73.243825 
L 206.141211 -73.737134 
L 203.412978 -74.173836 
L 200.684745 -74.552285 
L 197.956511 -74.872282 
L 195.228278 -75.135331 
L 192.500045 -75.344731 
L 189.771812 -75.505495 
L 187.043578 -75.6241 
L 184.315345 -75.708106 
L 181.587112 -75.765669 
L 178.858879 -75.805015 
L 176.130645 -75.833914 
L 173.402412 -75.859211 
L 170.674179 -75.886459 
L 167.945946 -75.919681 
L 165.217712 -75.961283 
L 162.489479 -76.012116 
L 159.761246 -76.071661 
L 157.033013 -76.138324 
L 154.304779 -76.209782 
L 151.576546 -76.283345 
L 148.848313 -76.356297 
L 146.12008 -76.426173 
L 143.391846 -76.490958 
L 140.663613 -76.549206 
L 137.93538 -76.600063 
L 135.207147 -76.643238 
L 132.478913 -76.67891 
z
" style="stroke: #3d3d3d; stroke-width: 1.5"/>
    </defs>
    <g clip-path="url(#pe02efe2dcb)">
     <use xlink:href="#m847df1c8f5" x="0" y="280.15625" style="fill: #3a923a; stroke: #3d3d3d; stroke-width: 1.5"/>
    </g>
   </g>
   <g id="matplotlib.axis_1">
    <g id="xtick_1">
     <g id="line2d_1">
      <defs>
       <path id="m7f0a9b65d2" d="M 0 0 
L 0 3.5 
" style="stroke: #000000; stroke-width: 0.8"/>
      </defs>
      <g>
       <use xlink:href="#m7f0a9b65d2" x="111.738115" y="242.6" style="stroke: #000000; stroke-width: 0.8"/>
      </g>
     </g>
     <g id="text_1">
      <!-- 4 -->
      <g transform="translate(108.556865 257.198437)scale(0.1 -0.1)">
       <defs>
        <path id="DejaVuSans-34" d="M 2419 4116 
L 825 1625 
L 2419 1625 
L 2419 4116 
z
M 2253 4666 
L 3047 4666 
L 3047 1625 
L 3713 1625 
L 3713 1100 
L 3047 1100 
L 3047 0 
L 2419 0 
L 2419 1100 
L 313 1100 
L 313 1709 
L 2253 4666 
z
" transform="scale(0.015625)"/>
       </defs>
       <use xlink:href="#DejaVuSans-34"/>
      </g>
     </g>
    </g>
    <g id="xtick_2">
     <g id="line2d_2">
      <g>
       <use xlink:href="#m7f0a9b65d2" x="176.649925" y="242.6" style="stroke: #000000; stroke-width: 0.8"/>
      </g>
     </g>
     <g id="text_2">
      <!-- 5 -->
      <g transform="translate(173.468675 257.198437)scale(0.1 -0.1)">
       <defs>
        <path id="DejaVuSans-35" d="M 691 4666 
L 3169 4666 
L 3169 4134 
L 1269 4134 
L 1269 2991 
Q 1406 3038 1543 3061 
Q 1681 3084 1819 3084 
Q 2600 3084 3056 2656 
Q 3513 2228 3513 1497 
Q 3513 744 3044 326 
Q 2575 -91 1722 -91 
Q 1428 -91 1123 -41 
Q 819 9 494 109 
L 494 744 
Q 775 591 1075 516 
Q 1375 441 1709 441 
Q 2250 441 2565 725 
Q 2881 1009 2881 1497 
Q 2881 1984 2565 2268 
Q 2250 2553 1709 2553 
Q 1456 2553 1204 2497 
Q 953 2441 691 2322 
L 691 4666 
z
" transform="scale(0.015625)"/>
       </defs>
       <use xlink:href="#DejaVuSans-35"/>
      </g>
     </g>
    </g>
    <g id="xtick_3">
     <g id="line2d_3">
      <g>
       <use xlink:href="#m7f0a9b65d2" x="241.561735" y="242.6" style="stroke: #000000; stroke-width: 0.8"/>
      </g>
     </g>
     <g id="text_3">
      <!-- 6 -->
      <g transform="translate(238.380485 257.198437)scale(0.1 -0.1)">
       <defs>
        <path id="DejaVuSans-36" d="M 2113 2584 
Q 1688 2584 1439 2293 
Q 1191 2003 1191 1497 
Q 1191 994 1439 701 
Q 1688 409 2113 409 
Q 2538 409 2786 701 
Q 3034 994 3034 1497 
Q 3034 2003 2786 2293 
Q 2538 2584 2113 2584 
z
M 3366 4563 
L 3366 3988 
Q 3128 4100 2886 4159 
Q 2644 4219 2406 4219 
Q 1781 4219 1451 3797 
Q 1122 3375 1075 2522 
Q 1259 2794 1537 2939 
Q 1816 3084 2150 3084 
Q 2853 3084 3261 2657 
Q 3669 2231 3669 1497 
Q 3669 778 3244 343 
Q 2819 -91 2113 -91 
Q 1303 -91 875 529 
Q 447 1150 447 2328 
Q 447 3434 972 4092 
Q 1497 4750 2381 4750 
Q 2619 4750 2861 4703 
Q 3103 4656 3366 4563 
z
" transform="scale(0.015625)"/>
       </defs>
       <use xlink:href="#DejaVuSans-36"/>
      </g>
     </g>
    </g>
    <g id="xtick_4">
     <g id="line2d_4">
      <g>
       <use xlink:href="#m7f0a9b65d2" x="306.473546" y="242.6" style="stroke: #000000; stroke-width: 0.8"/>
      </g>
     </g>
     <g id="text_4">
      <!-- 7 -->
      <g transform="translate(303.292296 257.198437)scale(0.1 -0.1)">
       <defs>
        <path id="DejaVuSans-37" d="M 525 4666 
L 3525 4666 
L 3525 4397 
L 1831 0 
L 1172 0 
L 2766 4134 
L 525 4134 
L 525 4666 
z
" transform="scale(0.015625)"/>
       </defs>
       <use xlink:href="#DejaVuSans-37"/>
      </g>
     </g>
    </g>
    <g id="xtick_5">
     <g id="line2d_5">
      <g>
       <use xlink:href="#m7f0a9b65d2" x="371.385356" y="242.6" style="stroke: #000000; stroke-width: 0.8"/>
      </g>
     </g>
     <g id="text_5">
      <!-- 8 -->
      <g transform="translate(368.204106 257.198437)scale(0.1 -0.1)">
       <defs>
        <path id="DejaVuSans-38" d="M 2034 2216 
Q 1584 2216 1326 1975 
Q 1069 1734 1069 1313 
Q 1069 891 1326 650 
Q 1584 409 2034 409 
Q 2484 409 2743 651 
Q 3003 894 3003 1313 
Q 3003 1734 2745 1975 
Q 2488 2216 2034 2216 
z
M 1403 2484 
Q 997 2584 770 2862 
Q 544 3141 544 3541 
Q 544 4100 942 4425 
Q 1341 4750 2034 4750 
Q 2731 4750 3128 4425 
Q 3525 4100 3525 3541 
Q 3525 3141 3298 2862 
Q 3072 2584 2669 2484 
Q 3125 2378 3379 2068 
Q 3634 1759 3634 1313 
Q 3634 634 3220 271 
Q 2806 -91 2034 -91 
Q 1263 -91 848 271 
Q 434 634 434 1313 
Q 434 1759 690 2068 
Q 947 2378 1403 2484 
z
M 1172 3481 
Q 1172 3119 1398 2916 
Q 1625 2713 2034 2713 
Q 2441 2713 2670 2916 
Q 2900 3119 2900 3481 
Q 2900 3844 2670 4047 
Q 2441 4250 2034 4250 
Q 1625 4250 1398 4047 
Q 1172 3844 1172 3481 
z
" transform="scale(0.015625)"/>
       </defs>
       <use xlink:href="#DejaVuSans-38"/>
      </g>
     </g>
    </g>
    <g id="text_6">
     <!-- SepalLengthCm -->
     <g transform="translate(216.655469 270.876562)scale(0.1 -0.1)">
      <defs>
       <path id="DejaVuSans-53" d="M 3425 4513 
L 3425 3897 
Q 3066 4069 2747 4153 
Q 2428 4238 2131 4238 
Q 1616 4238 1336 4038 
Q 1056 3838 1056 3469 
Q 1056 3159 1242 3001 
Q 1428 2844 1947 2747 
L 2328 2669 
Q 3034 2534 3370 2195 
Q 3706 1856 3706 1288 
Q 3706 609 3251 259 
Q 2797 -91 1919 -91 
Q 1588 -91 1214 -16 
Q 841 59 441 206 
L 441 856 
Q 825 641 1194 531 
Q 1563 422 1919 422 
Q 2459 422 2753 634 
Q 3047 847 3047 1241 
Q 3047 1584 2836 1778 
Q 2625 1972 2144 2069 
L 1759 2144 
Q 1053 2284 737 2584 
Q 422 2884 422 3419 
Q 422 4038 858 4394 
Q 1294 4750 2059 4750 
Q 2388 4750 2728 4690 
Q 3069 4631 3425 4513 
z
" transform="scale(0.015625)"/>
       <path id="DejaVuSans-65" d="M 3597 1894 
L 3597 1613 
L 953 1613 
Q 991 1019 1311 708 
Q 1631 397 2203 397 
Q 2534 397 2845 478 
Q 3156 559 3463 722 
L 3463 178 
Q 3153 47 2828 -22 
Q 2503 -91 2169 -91 
Q 1331 -91 842 396 
Q 353 884 353 1716 
Q 353 2575 817 3079 
Q 1281 3584 2069 3584 
Q 2775 3584 3186 3129 
Q 3597 2675 3597 1894 
z
M 3022 2063 
Q 3016 2534 2758 2815 
Q 2500 3097 2075 3097 
Q 1594 3097 1305 2825 
Q 1016 2553 972 2059 
L 3022 2063 
z
" transform="scale(0.015625)"/>
       <path id="DejaVuSans-70" d="M 1159 525 
L 1159 -1331 
L 581 -1331 
L 581 3500 
L 1159 3500 
L 1159 2969 
Q 1341 3281 1617 3432 
Q 1894 3584 2278 3584 
Q 2916 3584 3314 3078 
Q 3713 2572 3713 1747 
Q 3713 922 3314 415 
Q 2916 -91 2278 -91 
Q 1894 -91 1617 61 
Q 1341 213 1159 525 
z
M 3116 1747 
Q 3116 2381 2855 2742 
Q 2594 3103 2138 3103 
Q 1681 3103 1420 2742 
Q 1159 2381 1159 1747 
Q 1159 1113 1420 752 
Q 1681 391 2138 391 
Q 2594 391 2855 752 
Q 3116 1113 3116 1747 
z
" transform="scale(0.015625)"/>
       <path id="DejaVuSans-61" d="M 2194 1759 
Q 1497 1759 1228 1600 
Q 959 1441 959 1056 
Q 959 750 1161 570 
Q 1363 391 1709 391 
Q 2188 391 2477 730 
Q 2766 1069 2766 1631 
L 2766 1759 
L 2194 1759 
z
M 3341 1997 
L 3341 0 
L 2766 0 
L 2766 531 
Q 2569 213 2275 61 
Q 1981 -91 1556 -91 
Q 1019 -91 701 211 
Q 384 513 384 1019 
Q 384 1609 779 1909 
Q 1175 2209 1959 2209 
L 2766 2209 
L 2766 2266 
Q 2766 2663 2505 2880 
Q 2244 3097 1772 3097 
Q 1472 3097 1187 3025 
Q 903 2953 641 2809 
L 641 3341 
Q 956 3463 1253 3523 
Q 1550 3584 1831 3584 
Q 2591 3584 2966 3190 
Q 3341 2797 3341 1997 
z
" transform="scale(0.015625)"/>
       <path id="DejaVuSans-6c" d="M 603 4863 
L 1178 4863 
L 1178 0 
L 603 0 
L 603 4863 
z
" transform="scale(0.015625)"/>
       <path id="DejaVuSans-4c" d="M 628 4666 
L 1259 4666 
L 1259 531 
L 3531 531 
L 3531 0 
L 628 0 
L 628 4666 
z
" transform="scale(0.015625)"/>
       <path id="DejaVuSans-6e" d="M 3513 2113 
L 3513 0 
L 2938 0 
L 2938 2094 
Q 2938 2591 2744 2837 
Q 2550 3084 2163 3084 
Q 1697 3084 1428 2787 
Q 1159 2491 1159 1978 
L 1159 0 
L 581 0 
L 581 3500 
L 1159 3500 
L 1159 2956 
Q 1366 3272 1645 3428 
Q 1925 3584 2291 3584 
Q 2894 3584 3203 3211 
Q 3513 2838 3513 2113 
z
" transform="scale(0.015625)"/>
       <path id="DejaVuSans-67" d="M 2906 1791 
Q 2906 2416 2648 2759 
Q 2391 3103 1925 3103 
Q 1463 3103 1205 2759 
Q 947 2416 947 1791 
Q 947 1169 1205 825 
Q 1463 481 1925 481 
Q 2391 481 2648 825 
Q 2906 1169 2906 1791 
z
M 3481 434 
Q 3481 -459 3084 -895 
Q 2688 -1331 1869 -1331 
Q 1566 -1331 1297 -1286 
Q 1028 -1241 775 -1147 
L 775 -588 
Q 1028 -725 1275 -790 
Q 1522 -856 1778 -856 
Q 2344 -856 2625 -561 
Q 2906 -266 2906 331 
L 2906 616 
Q 2728 306 2450 153 
Q 2172 0 1784 0 
Q 1141 0 747 490 
Q 353 981 353 1791 
Q 353 2603 747 3093 
Q 1141 3584 1784 3584 
Q 2172 3584 2450 3431 
Q 2728 3278 2906 2969 
L 2906 3500 
L 3481 3500 
L 3481 434 
z
" transform="scale(0.015625)"/>
       <path id="DejaVuSans-74" d="M 1172 4494 
L 1172 3500 
L 2356 3500 
L 2356 3053 
L 1172 3053 
L 1172 1153 
Q 1172 725 1289 603 
Q 1406 481 1766 481 
L 2356 481 
L 2356 0 
L 1766 0 
Q 1100 0 847 248 
Q 594 497 594 1153 
L 594 3053 
L 172 3053 
L 172 3500 
L 594 3500 
L 594 4494 
L 1172 4494 
z
" transform="scale(0.015625)"/>
       <path id="DejaVuSans-68" d="M 3513 2113 
L 3513 0 
L 2938 0 
L 2938 2094 
Q 2938 2591 2744 2837 
Q 2550 3084 2163 3084 
Q 1697 3084 1428 2787 
Q 1159 2491 1159 1978 
L 1159 0 
L 581 0 
L 581 4863 
L 1159 4863 
L 1159 2956 
Q 1366 3272 1645 3428 
Q 1925 3584 2291 3584 
Q 2894 3584 3203 3211 
Q 3513 2838 3513 2113 
z
" transform="scale(0.015625)"/>
       <path id="DejaVuSans-43" d="M 4122 4306 
L 4122 3641 
Q 3803 3938 3442 4084 
Q 3081 4231 2675 4231 
Q 1875 4231 1450 3742 
Q 1025 3253 1025 2328 
Q 1025 1406 1450 917 
Q 1875 428 2675 428 
Q 3081 428 3442 575 
Q 3803 722 4122 1019 
L 4122 359 
Q 3791 134 3420 21 
Q 3050 -91 2638 -91 
Q 1578 -91 968 557 
Q 359 1206 359 2328 
Q 359 3453 968 4101 
Q 1578 4750 2638 4750 
Q 3056 4750 3426 4639 
Q 3797 4528 4122 4306 
z
" transform="scale(0.015625)"/>
       <path id="DejaVuSans-6d" d="M 3328 2828 
Q 3544 3216 3844 3400 
Q 4144 3584 4550 3584 
Q 5097 3584 5394 3201 
Q 5691 2819 5691 2113 
L 5691 0 
L 5113 0 
L 5113 2094 
Q 5113 2597 4934 2840 
Q 4756 3084 4391 3084 
Q 3944 3084 3684 2787 
Q 3425 2491 3425 1978 
L 3425 0 
L 2847 0 
L 2847 2094 
Q 2847 2600 2669 2842 
Q 2491 3084 2119 3084 
Q 1678 3084 1418 2786 
Q 1159 2488 1159 1978 
L 1159 0 
L 581 0 
L 581 3500 
L 1159 3500 
L 1159 2956 
Q 1356 3278 1631 3431 
Q 1906 3584 2284 3584 
Q 2666 3584 2933 3390 
Q 3200 3197 3328 2828 
z
" transform="scale(0.015625)"/>
      </defs>
      <use xlink:href="#DejaVuSans-53"/>
      <use xlink:href="#DejaVuSans-65" x="63.476562"/>
      <use xlink:href="#DejaVuSans-70" x="125"/>
      <use xlink:href="#DejaVuSans-61" x="188.476562"/>
      <use xlink:href="#DejaVuSans-6c" x="249.755859"/>
      <use xlink:href="#DejaVuSans-4c" x="277.539062"/>
      <use xlink:href="#DejaVuSans-65" x="331.501953"/>
      <use xlink:href="#DejaVuSans-6e" x="393.025391"/>
      <use xlink:href="#DejaVuSans-67" x="456.404297"/>
      <use xlink:href="#DejaVuSans-74" x="519.880859"/>
      <use xlink:href="#DejaVuSans-68" x="559.089844"/>
      <use xlink:href="#DejaVuSans-43" x="622.46875"/>
      <use xlink:href="#DejaVuSans-6d" x="692.292969"/>
     </g>
    </g>
   </g>
   <g id="matplotlib.axis_2">
    <g id="ytick_1">
     <g id="line2d_6">
      <defs>
       <path id="ma77b82f877" d="M 0 0 
L -3.5 0 
" style="stroke: #000000; stroke-width: 0.8"/>
      </defs>
      <g>
       <use xlink:href="#ma77b82f877" x="95.067188" y="46.433333" style="stroke: #000000; stroke-width: 0.8"/>
      </g>
     </g>
     <g id="text_7">
      <!-- Iris-setosa -->
      <g transform="translate(36.671875 50.232552)scale(0.1 -0.1)">
       <defs>
        <path id="DejaVuSans-49" d="M 628 4666 
L 1259 4666 
L 1259 0 
L 628 0 
L 628 4666 
z
" transform="scale(0.015625)"/>
        <path id="DejaVuSans-72" d="M 2631 2963 
Q 2534 3019 2420 3045 
Q 2306 3072 2169 3072 
Q 1681 3072 1420 2755 
Q 1159 2438 1159 1844 
L 1159 0 
L 581 0 
L 581 3500 
L 1159 3500 
L 1159 2956 
Q 1341 3275 1631 3429 
Q 1922 3584 2338 3584 
Q 2397 3584 2469 3576 
Q 2541 3569 2628 3553 
L 2631 2963 
z
" transform="scale(0.015625)"/>
        <path id="DejaVuSans-69" d="M 603 3500 
L 1178 3500 
L 1178 0 
L 603 0 
L 603 3500 
z
M 603 4863 
L 1178 4863 
L 1178 4134 
L 603 4134 
L 603 4863 
z
" transform="scale(0.015625)"/>
        <path id="DejaVuSans-73" d="M 2834 3397 
L 2834 2853 
Q 2591 2978 2328 3040 
Q 2066 3103 1784 3103 
Q 1356 3103 1142 2972 
Q 928 2841 928 2578 
Q 928 2378 1081 2264 
Q 1234 2150 1697 2047 
L 1894 2003 
Q 2506 1872 2764 1633 
Q 3022 1394 3022 966 
Q 3022 478 2636 193 
Q 2250 -91 1575 -91 
Q 1294 -91 989 -36 
Q 684 19 347 128 
L 347 722 
Q 666 556 975 473 
Q 1284 391 1588 391 
Q 1994 391 2212 530 
Q 2431 669 2431 922 
Q 2431 1156 2273 1281 
Q 2116 1406 1581 1522 
L 1381 1569 
Q 847 1681 609 1914 
Q 372 2147 372 2553 
Q 372 3047 722 3315 
Q 1072 3584 1716 3584 
Q 2034 3584 2315 3537 
Q 2597 3491 2834 3397 
z
" transform="scale(0.015625)"/>
        <path id="DejaVuSans-2d" d="M 313 2009 
L 1997 2009 
L 1997 1497 
L 313 1497 
L 313 2009 
z
" transform="scale(0.015625)"/>
        <path id="DejaVuSans-6f" d="M 1959 3097 
Q 1497 3097 1228 2736 
Q 959 2375 959 1747 
Q 959 1119 1226 758 
Q 1494 397 1959 397 
Q 2419 397 2687 759 
Q 2956 1122 2956 1747 
Q 2956 2369 2687 2733 
Q 2419 3097 1959 3097 
z
M 1959 3584 
Q 2709 3584 3137 3096 
Q 3566 2609 3566 1747 
Q 3566 888 3137 398 
Q 2709 -91 1959 -91 
Q 1206 -91 779 398 
Q 353 888 353 1747 
Q 353 2609 779 3096 
Q 1206 3584 1959 3584 
z
" transform="scale(0.015625)"/>
       </defs>
       <use xlink:href="#DejaVuSans-49"/>
       <use xlink:href="#DejaVuSans-72" x="29.492188"/>
       <use xlink:href="#DejaVuSans-69" x="70.605469"/>
       <use xlink:href="#DejaVuSans-73" x="98.388672"/>
       <use xlink:href="#DejaVuSans-2d" x="150.488281"/>
       <use xlink:href="#DejaVuSans-73" x="186.572266"/>
       <use xlink:href="#DejaVuSans-65" x="238.671875"/>
       <use xlink:href="#DejaVuSans-74" x="300.195312"/>
       <use xlink:href="#DejaVuSans-6f" x="339.404297"/>
       <use xlink:href="#DejaVuSans-73" x="400.585938"/>
       <use xlink:href="#DejaVuSans-61" x="452.685547"/>
      </g>
     </g>
    </g>
    <g id="ytick_2">
     <g id="line2d_7">
      <g>
       <use xlink:href="#ma77b82f877" x="95.067188" y="124.9" style="stroke: #000000; stroke-width: 0.8"/>
      </g>
     </g>
     <g id="text_8">
      <!-- Iris-versicolor -->
      <g transform="translate(20.878125 128.699219)scale(0.1 -0.1)">
       <defs>
        <path id="DejaVuSans-76" d="M 191 3500 
L 800 3500 
L 1894 563 
L 2988 3500 
L 3597 3500 
L 2284 0 
L 1503 0 
L 191 3500 
z
" transform="scale(0.015625)"/>
        <path id="DejaVuSans-63" d="M 3122 3366 
L 3122 2828 
Q 2878 2963 2633 3030 
Q 2388 3097 2138 3097 
Q 1578 3097 1268 2742 
Q 959 2388 959 1747 
Q 959 1106 1268 751 
Q 1578 397 2138 397 
Q 2388 397 2633 464 
Q 2878 531 3122 666 
L 3122 134 
Q 2881 22 2623 -34 
Q 2366 -91 2075 -91 
Q 1284 -91 818 406 
Q 353 903 353 1747 
Q 353 2603 823 3093 
Q 1294 3584 2113 3584 
Q 2378 3584 2631 3529 
Q 2884 3475 3122 3366 
z
" transform="scale(0.015625)"/>
       </defs>
       <use xlink:href="#DejaVuSans-49"/>
       <use xlink:href="#DejaVuSans-72" x="29.492188"/>
       <use xlink:href="#DejaVuSans-69" x="70.605469"/>
       <use xlink:href="#DejaVuSans-73" x="98.388672"/>
       <use xlink:href="#DejaVuSans-2d" x="150.488281"/>
       <use xlink:href="#DejaVuSans-76" x="183.947266"/>
       <use xlink:href="#DejaVuSans-65" x="243.126953"/>
       <use xlink:href="#DejaVuSans-72" x="304.650391"/>
       <use xlink:href="#DejaVuSans-73" x="345.763672"/>
       <use xlink:href="#DejaVuSans-69" x="397.863281"/>
       <use xlink:href="#DejaVuSans-63" x="425.646484"/>
       <use xlink:href="#DejaVuSans-6f" x="480.626953"/>
       <use xlink:href="#DejaVuSans-6c" x="541.808594"/>
       <use xlink:href="#DejaVuSans-6f" x="569.591797"/>
       <use xlink:href="#DejaVuSans-72" x="630.773438"/>
      </g>
     </g>
    </g>
    <g id="ytick_3">
     <g id="line2d_8">
      <g>
       <use xlink:href="#ma77b82f877" x="95.067188" y="203.366667" style="stroke: #000000; stroke-width: 0.8"/>
      </g>
     </g>
     <g id="text_9">
      <!-- Iris-virginica -->
      <g transform="translate(27.171875 207.165885)scale(0.1 -0.1)">
       <use xlink:href="#DejaVuSans-49"/>
       <use xlink:href="#DejaVuSans-72" x="29.492188"/>
       <use xlink:href="#DejaVuSans-69" x="70.605469"/>
       <use xlink:href="#DejaVuSans-73" x="98.388672"/>
       <use xlink:href="#DejaVuSans-2d" x="150.488281"/>
       <use xlink:href="#DejaVuSans-76" x="183.947266"/>
       <use xlink:href="#DejaVuSans-69" x="243.126953"/>
       <use xlink:href="#DejaVuSans-72" x="270.910156"/>
       <use xlink:href="#DejaVuSans-67" x="310.273438"/>
       <use xlink:href="#DejaVuSans-69" x="373.75"/>
       <use xlink:href="#DejaVuSans-6e" x="401.533203"/>
       <use xlink:href="#DejaVuSans-69" x="464.912109"/>
       <use xlink:href="#DejaVuSans-63" x="492.695312"/>
       <use xlink:href="#DejaVuSans-61" x="547.675781"/>
      </g>
     </g>
    </g>
    <g id="text_10">
     <!-- Species -->
     <g transform="translate(14.798438 144.144531)rotate(-90)scale(0.1 -0.1)">
      <use xlink:href="#DejaVuSans-53"/>
      <use xlink:href="#DejaVuSans-70" x="63.476562"/>
      <use xlink:href="#DejaVuSans-65" x="126.953125"/>
      <use xlink:href="#DejaVuSans-63" x="188.476562"/>
      <use xlink:href="#DejaVuSans-69" x="243.457031"/>
      <use xlink:href="#DejaVuSans-65" x="271.240234"/>
      <use xlink:href="#DejaVuSans-73" x="332.763672"/>
     </g>
    </g>
   </g>
   <g id="line2d_9">
    <path d="M 163.667563 23.006176 
L 163.667563 69.860491 
" clip-path="url(#pe02efe2dcb)" style="fill: none; stroke-dasharray: 3.375,3.375; stroke-dashoffset: 0; stroke: #3d3d3d; stroke-width: 1.5"/>
   </g>
   <g id="line2d_10">
    <path d="M 176.649925 15.676355 
L 176.649925 77.190312 
" clip-path="url(#pe02efe2dcb)" style="fill: none; stroke-dasharray: 6.75,6.75; stroke-dashoffset: 0; stroke: #3d3d3d; stroke-width: 1.5"/>
   </g>
   <g id="line2d_11">
    <path d="M 189.632287 20.158844 
L 189.632287 72.707823 
" clip-path="url(#pe02efe2dcb)" style="fill: none; stroke-dasharray: 3.375,3.375; stroke-dashoffset: 0; stroke: #3d3d3d; stroke-width: 1.5"/>
   </g>
   <g id="line2d_12">
    <path d="M 215.597011 105.697108 
L 215.597011 144.102892 
" clip-path="url(#pe02efe2dcb)" style="fill: none; stroke-dasharray: 3.375,3.375; stroke-dashoffset: 0; stroke: #3d3d3d; stroke-width: 1.5"/>
   </g>
   <g id="line2d_13">
    <path d="M 235.070554 105.32095 
L 235.070554 144.47905 
" clip-path="url(#pe02efe2dcb)" style="fill: none; stroke-dasharray: 6.75,6.75; stroke-dashoffset: 0; stroke: #3d3d3d; stroke-width: 1.5"/>
   </g>
   <g id="line2d_14">
    <path d="M 261.035278 110.556289 
L 261.035278 139.243711 
" clip-path="url(#pe02efe2dcb)" style="fill: none; stroke-dasharray: 3.375,3.375; stroke-dashoffset: 0; stroke: #3d3d3d; stroke-width: 1.5"/>
   </g>
   <g id="line2d_15">
    <path d="M 261.035278 185.368352 
L 261.035278 221.364981 
" clip-path="url(#pe02efe2dcb)" style="fill: none; stroke-dasharray: 3.375,3.375; stroke-dashoffset: 0; stroke: #3d3d3d; stroke-width: 1.5"/>
   </g>
   <g id="line2d_16">
    <path d="M 274.017641 185.039666 
L 274.017641 221.693668 
" clip-path="url(#pe02efe2dcb)" style="fill: none; stroke-dasharray: 6.75,6.75; stroke-dashoffset: 0; stroke: #3d3d3d; stroke-width: 1.5"/>
   </g>
   <g id="line2d_17">
    <path d="M 299.982365 190.396943 
L 299.982365 216.33639 
" clip-path="url(#pe02efe2dcb)" style="fill: none; stroke-dasharray: 3.375,3.375; stroke-dashoffset: 0; stroke: #3d3d3d; stroke-width: 1.5"/>
   </g>
   <g id="patch_3">
    <path d="M 95.067188 242.6 
L 95.067188 7.2 
" style="fill: none; stroke: #000000; stroke-width: 0.8; stroke-linejoin: miter; stroke-linecap: square"/>
   </g>
   <g id="patch_4">
    <path d="M 417.217188 242.6 
L 417.217188 7.2 
" style="fill: none; stroke: #000000; stroke-width: 0.8; stroke-linejoin: miter; stroke-linecap: square"/>
   </g>
   <g id="patch_5">
    <path d="M 95.067187 242.6 
L 417.217187 242.6 
" style="fill: none; stroke: #000000; stroke-width: 0.8; stroke-linejoin: miter; stroke-linecap: square"/>
   </g>
   <g id="patch_6">
    <path d="M 95.067187 7.2 
L 417.217187 7.2 
" style="fill: none; stroke: #000000; stroke-width: 0.8; stroke-linejoin: miter; stroke-linecap: square"/>
   </g>
  </g>
 </g>
 <defs>
  <clipPath id="pe02efe2dcb">
   <rect x="95.067188" y="7.2" width="322.15" height="235.4"/>
  </clipPath>
 </defs>
</svg>
