<?xml version="1.0" encoding="utf-8" standalone="no"?>
<!DOCTYPE svg PUBLIC "-//W3C//DTD SVG 1.1//EN"
  "http://www.w3.org/Graphics/SVG/1.1/DTD/svg11.dtd">
<svg xmlns:xlink="http://www.w3.org/1999/xlink" width="497.38125pt" height="370.91625pt" viewBox="0 0 497.38125 370.91625" xmlns="http://www.w3.org/2000/svg" version="1.1">
 <metadata>
  <rdf:RDF xmlns:dc="http://purl.org/dc/elements/1.1/" xmlns:cc="http://creativecommons.org/ns#" xmlns:rdf="http://www.w3.org/1999/02/22-rdf-syntax-ns#">
   <cc:Work>
    <dc:type rdf:resource="http://purl.org/dc/dcmitype/StillImage"/>
    <dc:date>2022-02-06T14:46:53.825945</dc:date>
    <dc:format>image/svg+xml</dc:format>
    <dc:creator>
     <cc:Agent>
      <dc:title>Matplotlib v3.5.0, https://matplotlib.org/</dc:title>
     </cc:Agent>
    </dc:creator>
   </cc:Work>
  </rdf:RDF>
 </metadata>
 <defs>
  <style type="text/css">*{stroke-linejoin: round; stroke-linecap: butt}</style>
 </defs>
 <g id="figure_1">
  <g id="patch_1">
   <path d="M 0 370.91625 
L 497.38125 370.91625 
L 497.38125 0 
L 0 0 
L 0 370.91625 
z
" style="fill: none"/>
  </g>
  <g id="axes_1">
   <g id="patch_2">
    <path d="M 43.78125 333.36 
L 490.18125 333.36 
L 490.18125 7.2 
L 43.78125 7.2 
z
" style="fill: #ffffff"/>
   </g>
   <g id="patch_3">
    <path d="M 121.81574 333.36 
L 142.55367 333.36 
L 142.55367 302.686646 
L 121.81574 302.686646 
z
" clip-path="url(#pd17d708f0f)" style="fill: #1f77b4; opacity: 0.4"/>
   </g>
   <g id="patch_4">
    <path d="M 142.55367 333.36 
L 163.2916 333.36 
L 163.2916 331.31511 
L 142.55367 331.31511 
z
" clip-path="url(#pd17d708f0f)" style="fill: #1f77b4; opacity: 0.4"/>
   </g>
   <g id="patch_5">
    <path d="M 163.2916 333.36 
L 184.02953 333.36 
L 184.02953 331.31511 
L 163.2916 331.31511 
z
" clip-path="url(#pd17d708f0f)" style="fill: #1f77b4; opacity: 0.4"/>
   </g>
   <g id="patch_6">
    <path d="M 184.02953 333.36 
L 204.76746 333.36 
L 204.76746 220.891034 
L 184.02953 220.891034 
z
" clip-path="url(#pd17d708f0f)" style="fill: #1f77b4; opacity: 0.4"/>
   </g>
   <g id="patch_7">
    <path d="M 204.76746 333.36 
L 225.50539 333.36 
L 225.50539 317.000878 
L 204.76746 317.000878 
z
" clip-path="url(#pd17d708f0f)" style="fill: #1f77b4; opacity: 0.4"/>
   </g>
   <g id="patch_8">
    <path d="M 225.50539 333.36 
L 246.24332 333.36 
L 246.24332 267.923511 
L 225.50539 267.923511 
z
" clip-path="url(#pd17d708f0f)" style="fill: #1f77b4; opacity: 0.4"/>
   </g>
   <g id="patch_9">
    <path d="M 246.24332 333.36 
L 266.98125 333.36 
L 266.98125 306.776426 
L 246.24332 306.776426 
z
" clip-path="url(#pd17d708f0f)" style="fill: #1f77b4; opacity: 0.4"/>
   </g>
   <g id="patch_10">
    <path d="M 266.98125 333.36 
L 287.71918 333.36 
L 287.71918 210.666583 
L 266.98125 210.666583 
z
" clip-path="url(#pd17d708f0f)" style="fill: #1f77b4; opacity: 0.4"/>
   </g>
   <g id="patch_11">
    <path d="M 287.71918 333.36 
L 308.45711 333.36 
L 308.45711 231.115486 
L 287.71918 231.115486 
z
" clip-path="url(#pd17d708f0f)" style="fill: #1f77b4; opacity: 0.4"/>
   </g>
   <g id="patch_12">
    <path d="M 308.45711 333.36 
L 329.19504 333.36 
L 329.19504 222.935925 
L 308.45711 222.935925 
z
" clip-path="url(#pd17d708f0f)" style="fill: #1f77b4; opacity: 0.4"/>
   </g>
   <g id="patch_13">
    <path d="M 329.19504 333.36 
L 349.93297 333.36 
L 349.93297 300.641755 
L 329.19504 300.641755 
z
" clip-path="url(#pd17d708f0f)" style="fill: #1f77b4; opacity: 0.4"/>
   </g>
   <g id="patch_14">
    <path d="M 349.93297 333.36 
L 370.6709 333.36 
L 370.6709 36.850909 
L 349.93297 36.850909 
z
" clip-path="url(#pd17d708f0f)" style="fill: #1f77b4; opacity: 0.4"/>
   </g>
   <g id="patch_15">
    <path d="M 370.6709 333.36 
L 391.40883 333.36 
L 391.40883 222.935925 
L 370.6709 222.935925 
z
" clip-path="url(#pd17d708f0f)" style="fill: #1f77b4; opacity: 0.4"/>
   </g>
   <g id="patch_16">
    <path d="M 391.40883 333.36 
L 412.14676 333.36 
L 412.14676 329.270219 
L 391.40883 329.270219 
z
" clip-path="url(#pd17d708f0f)" style="fill: #1f77b4; opacity: 0.4"/>
   </g>
   <g id="matplotlib.axis_1">
    <g id="xtick_1">
     <g id="line2d_1">
      <defs>
       <path id="m4a0ccd61cb" d="M 0 0 
L 0 3.5 
" style="stroke: #000000; stroke-width: 0.8"/>
      </defs>
      <g>
       <use xlink:href="#m4a0ccd61cb" x="103.283973" y="333.36" style="stroke: #000000; stroke-width: 0.8"/>
      </g>
     </g>
     <g id="text_1">
      <!-- 12 -->
      <g transform="translate(96.921473 347.958438)scale(0.1 -0.1)">
       <defs>
        <path id="DejaVuSans-31" d="M 794 531 
L 1825 531 
L 1825 4091 
L 703 3866 
L 703 4441 
L 1819 4666 
L 2450 4666 
L 2450 531 
L 3481 531 
L 3481 0 
L 794 0 
L 794 531 
z
" transform="scale(0.015625)"/>
        <path id="DejaVuSans-32" d="M 1228 531 
L 3431 531 
L 3431 0 
L 469 0 
L 469 531 
Q 828 903 1448 1529 
Q 2069 2156 2228 2338 
Q 2531 2678 2651 2914 
Q 2772 3150 2772 3378 
Q 2772 3750 2511 3984 
Q 2250 4219 1831 4219 
Q 1534 4219 1204 4116 
Q 875 4013 500 3803 
L 500 4441 
Q 881 4594 1212 4672 
Q 1544 4750 1819 4750 
Q 2544 4750 2975 4387 
Q 3406 4025 3406 3419 
Q 3406 3131 3298 2873 
Q 3191 2616 2906 2266 
Q 2828 2175 2409 1742 
Q 1991 1309 1228 531 
z
" transform="scale(0.015625)"/>
       </defs>
       <use xlink:href="#DejaVuSans-31"/>
       <use xlink:href="#DejaVuSans-32" x="63.623047"/>
      </g>
     </g>
    </g>
    <g id="xtick_2">
     <g id="line2d_2">
      <g>
       <use xlink:href="#m4a0ccd61cb" x="165.05653" y="333.36" style="stroke: #000000; stroke-width: 0.8"/>
      </g>
     </g>
     <g id="text_2">
      <!-- 14 -->
      <g transform="translate(158.69403 347.958438)scale(0.1 -0.1)">
       <defs>
        <path id="DejaVuSans-34" d="M 2419 4116 
L 825 1625 
L 2419 1625 
L 2419 4116 
z
M 2253 4666 
L 3047 4666 
L 3047 1625 
L 3713 1625 
L 3713 1100 
L 3047 1100 
L 3047 0 
L 2419 0 
L 2419 1100 
L 313 1100 
L 313 1709 
L 2253 4666 
z
" transform="scale(0.015625)"/>
       </defs>
       <use xlink:href="#DejaVuSans-31"/>
       <use xlink:href="#DejaVuSans-34" x="63.623047"/>
      </g>
     </g>
    </g>
    <g id="xtick_3">
     <g id="line2d_3">
      <g>
       <use xlink:href="#m4a0ccd61cb" x="226.829088" y="333.36" style="stroke: #000000; stroke-width: 0.8"/>
      </g>
     </g>
     <g id="text_3">
      <!-- 16 -->
      <g transform="translate(220.466588 347.958438)scale(0.1 -0.1)">
       <defs>
        <path id="DejaVuSans-36" d="M 2113 2584 
Q 1688 2584 1439 2293 
Q 1191 2003 1191 1497 
Q 1191 994 1439 701 
Q 1688 409 2113 409 
Q 2538 409 2786 701 
Q 3034 994 3034 1497 
Q 3034 2003 2786 2293 
Q 2538 2584 2113 2584 
z
M 3366 4563 
L 3366 3988 
Q 3128 4100 2886 4159 
Q 2644 4219 2406 4219 
Q 1781 4219 1451 3797 
Q 1122 3375 1075 2522 
Q 1259 2794 1537 2939 
Q 1816 3084 2150 3084 
Q 2853 3084 3261 2657 
Q 3669 2231 3669 1497 
Q 3669 778 3244 343 
Q 2819 -91 2113 -91 
Q 1303 -91 875 529 
Q 447 1150 447 2328 
Q 447 3434 972 4092 
Q 1497 4750 2381 4750 
Q 2619 4750 2861 4703 
Q 3103 4656 3366 4563 
z
" transform="scale(0.015625)"/>
       </defs>
       <use xlink:href="#DejaVuSans-31"/>
       <use xlink:href="#DejaVuSans-36" x="63.623047"/>
      </g>
     </g>
    </g>
    <g id="xtick_4">
     <g id="line2d_4">
      <g>
       <use xlink:href="#m4a0ccd61cb" x="288.601645" y="333.36" style="stroke: #000000; stroke-width: 0.8"/>
      </g>
     </g>
     <g id="text_4">
      <!-- 18 -->
      <g transform="translate(282.239145 347.958438)scale(0.1 -0.1)">
       <defs>
        <path id="DejaVuSans-38" d="M 2034 2216 
Q 1584 2216 1326 1975 
Q 1069 1734 1069 1313 
Q 1069 891 1326 650 
Q 1584 409 2034 409 
Q 2484 409 2743 651 
Q 3003 894 3003 1313 
Q 3003 1734 2745 1975 
Q 2488 2216 2034 2216 
z
M 1403 2484 
Q 997 2584 770 2862 
Q 544 3141 544 3541 
Q 544 4100 942 4425 
Q 1341 4750 2034 4750 
Q 2731 4750 3128 4425 
Q 3525 4100 3525 3541 
Q 3525 3141 3298 2862 
Q 3072 2584 2669 2484 
Q 3125 2378 3379 2068 
Q 3634 1759 3634 1313 
Q 3634 634 3220 271 
Q 2806 -91 2034 -91 
Q 1263 -91 848 271 
Q 434 634 434 1313 
Q 434 1759 690 2068 
Q 947 2378 1403 2484 
z
M 1172 3481 
Q 1172 3119 1398 2916 
Q 1625 2713 2034 2713 
Q 2441 2713 2670 2916 
Q 2900 3119 2900 3481 
Q 2900 3844 2670 4047 
Q 2441 4250 2034 4250 
Q 1625 4250 1398 4047 
Q 1172 3844 1172 3481 
z
" transform="scale(0.015625)"/>
       </defs>
       <use xlink:href="#DejaVuSans-31"/>
       <use xlink:href="#DejaVuSans-38" x="63.623047"/>
      </g>
     </g>
    </g>
    <g id="xtick_5">
     <g id="line2d_5">
      <g>
       <use xlink:href="#m4a0ccd61cb" x="350.374203" y="333.36" style="stroke: #000000; stroke-width: 0.8"/>
      </g>
     </g>
     <g id="text_5">
      <!-- 20 -->
      <g transform="translate(344.011703 347.958438)scale(0.1 -0.1)">
       <defs>
        <path id="DejaVuSans-30" d="M 2034 4250 
Q 1547 4250 1301 3770 
Q 1056 3291 1056 2328 
Q 1056 1369 1301 889 
Q 1547 409 2034 409 
Q 2525 409 2770 889 
Q 3016 1369 3016 2328 
Q 3016 3291 2770 3770 
Q 2525 4250 2034 4250 
z
M 2034 4750 
Q 2819 4750 3233 4129 
Q 3647 3509 3647 2328 
Q 3647 1150 3233 529 
Q 2819 -91 2034 -91 
Q 1250 -91 836 529 
Q 422 1150 422 2328 
Q 422 3509 836 4129 
Q 1250 4750 2034 4750 
z
" transform="scale(0.015625)"/>
       </defs>
       <use xlink:href="#DejaVuSans-32"/>
       <use xlink:href="#DejaVuSans-30" x="63.623047"/>
      </g>
     </g>
    </g>
    <g id="xtick_6">
     <g id="line2d_6">
      <g>
       <use xlink:href="#m4a0ccd61cb" x="412.14676" y="333.36" style="stroke: #000000; stroke-width: 0.8"/>
      </g>
     </g>
     <g id="text_6">
      <!-- 22 -->
      <g transform="translate(405.78426 347.958438)scale(0.1 -0.1)">
       <use xlink:href="#DejaVuSans-32"/>
       <use xlink:href="#DejaVuSans-32" x="63.623047"/>
      </g>
     </g>
    </g>
    <g id="xtick_7">
     <g id="line2d_7">
      <g>
       <use xlink:href="#m4a0ccd61cb" x="473.919318" y="333.36" style="stroke: #000000; stroke-width: 0.8"/>
      </g>
     </g>
     <g id="text_7">
      <!-- 24 -->
      <g transform="translate(467.556818 347.958438)scale(0.1 -0.1)">
       <use xlink:href="#DejaVuSans-32"/>
       <use xlink:href="#DejaVuSans-34" x="63.623047"/>
      </g>
     </g>
    </g>
    <g id="text_8">
     <!-- PTRATIO -->
     <g transform="translate(246.140625 361.636562)scale(0.1 -0.1)">
      <defs>
       <path id="DejaVuSans-50" d="M 1259 4147 
L 1259 2394 
L 2053 2394 
Q 2494 2394 2734 2622 
Q 2975 2850 2975 3272 
Q 2975 3691 2734 3919 
Q 2494 4147 2053 4147 
L 1259 4147 
z
M 628 4666 
L 2053 4666 
Q 2838 4666 3239 4311 
Q 3641 3956 3641 3272 
Q 3641 2581 3239 2228 
Q 2838 1875 2053 1875 
L 1259 1875 
L 1259 0 
L 628 0 
L 628 4666 
z
" transform="scale(0.015625)"/>
       <path id="DejaVuSans-54" d="M -19 4666 
L 3928 4666 
L 3928 4134 
L 2272 4134 
L 2272 0 
L 1638 0 
L 1638 4134 
L -19 4134 
L -19 4666 
z
" transform="scale(0.015625)"/>
       <path id="DejaVuSans-52" d="M 2841 2188 
Q 3044 2119 3236 1894 
Q 3428 1669 3622 1275 
L 4263 0 
L 3584 0 
L 2988 1197 
Q 2756 1666 2539 1819 
Q 2322 1972 1947 1972 
L 1259 1972 
L 1259 0 
L 628 0 
L 628 4666 
L 2053 4666 
Q 2853 4666 3247 4331 
Q 3641 3997 3641 3322 
Q 3641 2881 3436 2590 
Q 3231 2300 2841 2188 
z
M 1259 4147 
L 1259 2491 
L 2053 2491 
Q 2509 2491 2742 2702 
Q 2975 2913 2975 3322 
Q 2975 3731 2742 3939 
Q 2509 4147 2053 4147 
L 1259 4147 
z
" transform="scale(0.015625)"/>
       <path id="DejaVuSans-41" d="M 2188 4044 
L 1331 1722 
L 3047 1722 
L 2188 4044 
z
M 1831 4666 
L 2547 4666 
L 4325 0 
L 3669 0 
L 3244 1197 
L 1141 1197 
L 716 0 
L 50 0 
L 1831 4666 
z
" transform="scale(0.015625)"/>
       <path id="DejaVuSans-49" d="M 628 4666 
L 1259 4666 
L 1259 0 
L 628 0 
L 628 4666 
z
" transform="scale(0.015625)"/>
       <path id="DejaVuSans-4f" d="M 2522 4238 
Q 1834 4238 1429 3725 
Q 1025 3213 1025 2328 
Q 1025 1447 1429 934 
Q 1834 422 2522 422 
Q 3209 422 3611 934 
Q 4013 1447 4013 2328 
Q 4013 3213 3611 3725 
Q 3209 4238 2522 4238 
z
M 2522 4750 
Q 3503 4750 4090 4092 
Q 4678 3434 4678 2328 
Q 4678 1225 4090 567 
Q 3503 -91 2522 -91 
Q 1538 -91 948 565 
Q 359 1222 359 2328 
Q 359 3434 948 4092 
Q 1538 4750 2522 4750 
z
" transform="scale(0.015625)"/>
      </defs>
      <use xlink:href="#DejaVuSans-50"/>
      <use xlink:href="#DejaVuSans-54" x="60.302734"/>
      <use xlink:href="#DejaVuSans-52" x="121.386719"/>
      <use xlink:href="#DejaVuSans-41" x="186.869141"/>
      <use xlink:href="#DejaVuSans-54" x="247.527344"/>
      <use xlink:href="#DejaVuSans-49" x="308.611328"/>
      <use xlink:href="#DejaVuSans-4f" x="338.103516"/>
     </g>
    </g>
   </g>
   <g id="matplotlib.axis_2">
    <g id="ytick_1">
     <g id="line2d_8">
      <defs>
       <path id="mb26022af64" d="M 0 0 
L -3.5 0 
" style="stroke: #000000; stroke-width: 0.8"/>
      </defs>
      <g>
       <use xlink:href="#mb26022af64" x="43.78125" y="333.36" style="stroke: #000000; stroke-width: 0.8"/>
      </g>
     </g>
     <g id="text_9">
      <!-- 0.0 -->
      <g transform="translate(20.878125 337.159219)scale(0.1 -0.1)">
       <defs>
        <path id="DejaVuSans-2e" d="M 684 794 
L 1344 794 
L 1344 0 
L 684 0 
L 684 794 
z
" transform="scale(0.015625)"/>
       </defs>
       <use xlink:href="#DejaVuSans-30"/>
       <use xlink:href="#DejaVuSans-2e" x="63.623047"/>
       <use xlink:href="#DejaVuSans-30" x="95.410156"/>
      </g>
     </g>
    </g>
    <g id="ytick_2">
     <g id="line2d_9">
      <g>
       <use xlink:href="#mb26022af64" x="43.78125" y="263.886313" style="stroke: #000000; stroke-width: 0.8"/>
      </g>
     </g>
     <g id="text_10">
      <!-- 0.1 -->
      <g transform="translate(20.878125 267.685532)scale(0.1 -0.1)">
       <use xlink:href="#DejaVuSans-30"/>
       <use xlink:href="#DejaVuSans-2e" x="63.623047"/>
       <use xlink:href="#DejaVuSans-31" x="95.410156"/>
      </g>
     </g>
    </g>
    <g id="ytick_3">
     <g id="line2d_10">
      <g>
       <use xlink:href="#mb26022af64" x="43.78125" y="194.412627" style="stroke: #000000; stroke-width: 0.8"/>
      </g>
     </g>
     <g id="text_11">
      <!-- 0.2 -->
      <g transform="translate(20.878125 198.211845)scale(0.1 -0.1)">
       <use xlink:href="#DejaVuSans-30"/>
       <use xlink:href="#DejaVuSans-2e" x="63.623047"/>
       <use xlink:href="#DejaVuSans-32" x="95.410156"/>
      </g>
     </g>
    </g>
    <g id="ytick_4">
     <g id="line2d_11">
      <g>
       <use xlink:href="#mb26022af64" x="43.78125" y="124.93894" style="stroke: #000000; stroke-width: 0.8"/>
      </g>
     </g>
     <g id="text_12">
      <!-- 0.3 -->
      <g transform="translate(20.878125 128.738159)scale(0.1 -0.1)">
       <defs>
        <path id="DejaVuSans-33" d="M 2597 2516 
Q 3050 2419 3304 2112 
Q 3559 1806 3559 1356 
Q 3559 666 3084 287 
Q 2609 -91 1734 -91 
Q 1441 -91 1130 -33 
Q 819 25 488 141 
L 488 750 
Q 750 597 1062 519 
Q 1375 441 1716 441 
Q 2309 441 2620 675 
Q 2931 909 2931 1356 
Q 2931 1769 2642 2001 
Q 2353 2234 1838 2234 
L 1294 2234 
L 1294 2753 
L 1863 2753 
Q 2328 2753 2575 2939 
Q 2822 3125 2822 3475 
Q 2822 3834 2567 4026 
Q 2313 4219 1838 4219 
Q 1578 4219 1281 4162 
Q 984 4106 628 3988 
L 628 4550 
Q 988 4650 1302 4700 
Q 1616 4750 1894 4750 
Q 2613 4750 3031 4423 
Q 3450 4097 3450 3541 
Q 3450 3153 3228 2886 
Q 3006 2619 2597 2516 
z
" transform="scale(0.015625)"/>
       </defs>
       <use xlink:href="#DejaVuSans-30"/>
       <use xlink:href="#DejaVuSans-2e" x="63.623047"/>
       <use xlink:href="#DejaVuSans-33" x="95.410156"/>
      </g>
     </g>
    </g>
    <g id="ytick_5">
     <g id="line2d_12">
      <g>
       <use xlink:href="#mb26022af64" x="43.78125" y="55.465253" style="stroke: #000000; stroke-width: 0.8"/>
      </g>
     </g>
     <g id="text_13">
      <!-- 0.4 -->
      <g transform="translate(20.878125 59.264472)scale(0.1 -0.1)">
       <use xlink:href="#DejaVuSans-30"/>
       <use xlink:href="#DejaVuSans-2e" x="63.623047"/>
       <use xlink:href="#DejaVuSans-34" x="95.410156"/>
      </g>
     </g>
    </g>
    <g id="text_14">
     <!-- Density -->
     <g transform="translate(14.798438 189.288594)rotate(-90)scale(0.1 -0.1)">
      <defs>
       <path id="DejaVuSans-44" d="M 1259 4147 
L 1259 519 
L 2022 519 
Q 2988 519 3436 956 
Q 3884 1394 3884 2338 
Q 3884 3275 3436 3711 
Q 2988 4147 2022 4147 
L 1259 4147 
z
M 628 4666 
L 1925 4666 
Q 3281 4666 3915 4102 
Q 4550 3538 4550 2338 
Q 4550 1131 3912 565 
Q 3275 0 1925 0 
L 628 0 
L 628 4666 
z
" transform="scale(0.015625)"/>
       <path id="DejaVuSans-65" d="M 3597 1894 
L 3597 1613 
L 953 1613 
Q 991 1019 1311 708 
Q 1631 397 2203 397 
Q 2534 397 2845 478 
Q 3156 559 3463 722 
L 3463 178 
Q 3153 47 2828 -22 
Q 2503 -91 2169 -91 
Q 1331 -91 842 396 
Q 353 884 353 1716 
Q 353 2575 817 3079 
Q 1281 3584 2069 3584 
Q 2775 3584 3186 3129 
Q 3597 2675 3597 1894 
z
M 3022 2063 
Q 3016 2534 2758 2815 
Q 2500 3097 2075 3097 
Q 1594 3097 1305 2825 
Q 1016 2553 972 2059 
L 3022 2063 
z
" transform="scale(0.015625)"/>
       <path id="DejaVuSans-6e" d="M 3513 2113 
L 3513 0 
L 2938 0 
L 2938 2094 
Q 2938 2591 2744 2837 
Q 2550 3084 2163 3084 
Q 1697 3084 1428 2787 
Q 1159 2491 1159 1978 
L 1159 0 
L 581 0 
L 581 3500 
L 1159 3500 
L 1159 2956 
Q 1366 3272 1645 3428 
Q 1925 3584 2291 3584 
Q 2894 3584 3203 3211 
Q 3513 2838 3513 2113 
z
" transform="scale(0.015625)"/>
       <path id="DejaVuSans-73" d="M 2834 3397 
L 2834 2853 
Q 2591 2978 2328 3040 
Q 2066 3103 1784 3103 
Q 1356 3103 1142 2972 
Q 928 2841 928 2578 
Q 928 2378 1081 2264 
Q 1234 2150 1697 2047 
L 1894 2003 
Q 2506 1872 2764 1633 
Q 3022 1394 3022 966 
Q 3022 478 2636 193 
Q 2250 -91 1575 -91 
Q 1294 -91 989 -36 
Q 684 19 347 128 
L 347 722 
Q 666 556 975 473 
Q 1284 391 1588 391 
Q 1994 391 2212 530 
Q 2431 669 2431 922 
Q 2431 1156 2273 1281 
Q 2116 1406 1581 1522 
L 1381 1569 
Q 847 1681 609 1914 
Q 372 2147 372 2553 
Q 372 3047 722 3315 
Q 1072 3584 1716 3584 
Q 2034 3584 2315 3537 
Q 2597 3491 2834 3397 
z
" transform="scale(0.015625)"/>
       <path id="DejaVuSans-69" d="M 603 3500 
L 1178 3500 
L 1178 0 
L 603 0 
L 603 3500 
z
M 603 4863 
L 1178 4863 
L 1178 4134 
L 603 4134 
L 603 4863 
z
" transform="scale(0.015625)"/>
       <path id="DejaVuSans-74" d="M 1172 4494 
L 1172 3500 
L 2356 3500 
L 2356 3053 
L 1172 3053 
L 1172 1153 
Q 1172 725 1289 603 
Q 1406 481 1766 481 
L 2356 481 
L 2356 0 
L 1766 0 
Q 1100 0 847 248 
Q 594 497 594 1153 
L 594 3053 
L 172 3053 
L 172 3500 
L 594 3500 
L 594 4494 
L 1172 4494 
z
" transform="scale(0.015625)"/>
       <path id="DejaVuSans-79" d="M 2059 -325 
Q 1816 -950 1584 -1140 
Q 1353 -1331 966 -1331 
L 506 -1331 
L 506 -850 
L 844 -850 
Q 1081 -850 1212 -737 
Q 1344 -625 1503 -206 
L 1606 56 
L 191 3500 
L 800 3500 
L 1894 763 
L 2988 3500 
L 3597 3500 
L 2059 -325 
z
" transform="scale(0.015625)"/>
      </defs>
      <use xlink:href="#DejaVuSans-44"/>
      <use xlink:href="#DejaVuSans-65" x="77.001953"/>
      <use xlink:href="#DejaVuSans-6e" x="138.525391"/>
      <use xlink:href="#DejaVuSans-73" x="201.904297"/>
      <use xlink:href="#DejaVuSans-69" x="254.003906"/>
      <use xlink:href="#DejaVuSans-74" x="281.787109"/>
      <use xlink:href="#DejaVuSans-79" x="320.996094"/>
     </g>
    </g>
   </g>
   <g id="line2d_13">
    <path d="M 64.072159 333.316783 
L 74.268596 333.151859 
L 80.386458 332.886525 
L 86.50432 332.376099 
L 90.582895 331.836116 
L 94.661469 331.092439 
L 98.740044 330.11822 
L 102.818619 328.907169 
L 106.897193 327.483187 
L 115.054343 324.273001 
L 121.172205 321.984212 
L 125.250779 320.745378 
L 129.329354 319.839447 
L 133.407929 319.284794 
L 137.486504 319.014096 
L 145.643653 318.610734 
L 147.68294 318.351785 
L 149.722228 317.957425 
L 151.761515 317.393006 
L 153.800802 316.627591 
L 155.84009 315.635779 
L 157.879377 314.399408 
L 159.918664 312.909038 
L 161.957952 311.165116 
L 163.997239 309.178746 
L 166.036526 306.97197 
L 170.115101 302.038035 
L 178.27225 291.538201 
L 180.311538 289.137181 
L 182.350825 286.947317 
L 184.390112 285.020436 
L 186.4294 283.399112 
L 188.468687 282.114645 
L 190.507975 281.18562 
L 192.547262 280.617104 
L 194.586549 280.400553 
L 196.625837 280.514411 
L 198.665124 280.925357 
L 200.704411 281.590115 
L 202.743699 282.457701 
L 206.822273 284.574273 
L 210.900848 286.811759 
L 214.979423 288.746834 
L 217.01871 289.495427 
L 219.057997 290.058106 
L 221.097285 290.416025 
L 223.136572 290.559047 
L 225.175859 290.485045 
L 227.215147 290.198845 
L 229.254434 289.710879 
L 231.293721 289.035665 
L 233.333009 288.190218 
L 235.372296 287.192509 
L 239.450871 284.808775 
L 243.529446 282.000389 
L 247.60802 278.838097 
L 251.686595 275.347864 
L 255.76517 271.530551 
L 259.843744 267.392129 
L 263.922319 262.972619 
L 278.19733 247.000266 
L 282.275905 242.969723 
L 286.35448 239.446541 
L 288.393767 237.901477 
L 290.433054 236.50749 
L 292.472342 235.264906 
L 294.511629 234.17022 
L 296.550917 233.215993 
L 300.629491 231.678219 
L 304.708066 230.503579 
L 310.825928 228.890955 
L 312.865215 228.22613 
L 314.904503 227.413023 
L 316.94379 226.395824 
L 318.983077 225.118247 
L 321.022365 223.526444 
L 323.061652 221.572463 
L 325.100939 219.218086 
L 327.140227 216.438792 
L 329.179514 213.227567 
L 331.218801 209.598202 
L 333.258089 205.587752 
L 337.336663 196.694453 
L 343.454525 182.783459 
L 345.493813 178.542533 
L 347.5331 174.751743 
L 349.572388 171.557856 
L 351.611675 169.094378 
L 353.650962 167.474876 
L 355.69025 166.787424 
L 357.729537 167.090585 
L 359.768824 168.411197 
L 361.808112 170.744058 
L 363.847399 174.053484 
L 365.886686 178.276496 
L 367.925974 183.327314 
L 369.965261 189.102735 
L 372.004548 195.487903 
L 376.083123 209.603715 
L 382.200985 232.397626 
L 386.27956 247.513635 
L 390.358134 261.872499 
L 394.436709 275.077372 
L 396.475996 281.163214 
L 398.515284 286.875078 
L 400.554571 292.198816 
L 402.593858 297.126022 
L 404.633146 301.653627 
L 406.672433 305.783584 
L 408.711721 309.522577 
L 410.751008 312.881693 
L 412.790295 315.876023 
L 414.829583 318.524165 
L 416.86887 320.847629 
L 418.908157 322.87017 
L 420.947445 324.61706 
L 422.986732 326.114361 
L 425.026019 327.388225 
L 427.065307 328.464257 
L 429.104594 329.366978 
L 431.143881 330.119399 
L 435.222456 331.256101 
L 439.301031 332.019445 
L 443.379605 332.521893 
L 449.497467 332.961325 
L 457.654617 333.223897 
L 469.890341 333.338353 
L 469.890341 333.338353 
" clip-path="url(#pd17d708f0f)" style="fill: none; stroke: #1f77b4; stroke-width: 1.5; stroke-linecap: square"/>
   </g>
   <g id="LineCollection_1">
    <path d="M 205.208692 333.36 
L 205.208692 325.206 
" clip-path="url(#pd17d708f0f)" style="fill: none; stroke: #1f77b4"/>
    <path d="M 282.424389 333.36 
L 282.424389 325.206 
" clip-path="url(#pd17d708f0f)" style="fill: none; stroke: #1f77b4"/>
    <path d="M 282.424389 333.36 
L 282.424389 325.206 
" clip-path="url(#pd17d708f0f)" style="fill: none; stroke: #1f77b4"/>
    <path d="M 310.22204 333.36 
L 310.22204 325.206 
" clip-path="url(#pd17d708f0f)" style="fill: none; stroke: #1f77b4"/>
    <path d="M 310.22204 333.36 
L 310.22204 325.206 
" clip-path="url(#pd17d708f0f)" style="fill: none; stroke: #1f77b4"/>
    <path d="M 310.22204 333.36 
L 310.22204 325.206 
" clip-path="url(#pd17d708f0f)" style="fill: none; stroke: #1f77b4"/>
    <path d="M 202.120065 333.36 
L 202.120065 325.206 
" clip-path="url(#pd17d708f0f)" style="fill: none; stroke: #1f77b4"/>
    <path d="M 202.120065 333.36 
L 202.120065 325.206 
" clip-path="url(#pd17d708f0f)" style="fill: none; stroke: #1f77b4"/>
    <path d="M 202.120065 333.36 
L 202.120065 325.206 
" clip-path="url(#pd17d708f0f)" style="fill: none; stroke: #1f77b4"/>
    <path d="M 202.120065 333.36 
L 202.120065 325.206 
" clip-path="url(#pd17d708f0f)" style="fill: none; stroke: #1f77b4"/>
    <path d="M 202.120065 333.36 
L 202.120065 325.206 
" clip-path="url(#pd17d708f0f)" style="fill: none; stroke: #1f77b4"/>
    <path d="M 202.120065 333.36 
L 202.120065 325.206 
" clip-path="url(#pd17d708f0f)" style="fill: none; stroke: #1f77b4"/>
    <path d="M 202.120065 333.36 
L 202.120065 325.206 
" clip-path="url(#pd17d708f0f)" style="fill: none; stroke: #1f77b4"/>
    <path d="M 381.260481 333.36 
L 381.260481 325.206 
" clip-path="url(#pd17d708f0f)" style="fill: none; stroke: #1f77b4"/>
    <path d="M 381.260481 333.36 
L 381.260481 325.206 
" clip-path="url(#pd17d708f0f)" style="fill: none; stroke: #1f77b4"/>
    <path d="M 381.260481 333.36 
L 381.260481 325.206 
" clip-path="url(#pd17d708f0f)" style="fill: none; stroke: #1f77b4"/>
    <path d="M 381.260481 333.36 
L 381.260481 325.206 
" clip-path="url(#pd17d708f0f)" style="fill: none; stroke: #1f77b4"/>
    <path d="M 381.260481 333.36 
L 381.260481 325.206 
" clip-path="url(#pd17d708f0f)" style="fill: none; stroke: #1f77b4"/>
    <path d="M 381.260481 333.36 
L 381.260481 325.206 
" clip-path="url(#pd17d708f0f)" style="fill: none; stroke: #1f77b4"/>
    <path d="M 381.260481 333.36 
L 381.260481 325.206 
" clip-path="url(#pd17d708f0f)" style="fill: none; stroke: #1f77b4"/>
    <path d="M 381.260481 333.36 
L 381.260481 325.206 
" clip-path="url(#pd17d708f0f)" style="fill: none; stroke: #1f77b4"/>
    <path d="M 381.260481 333.36 
L 381.260481 325.206 
" clip-path="url(#pd17d708f0f)" style="fill: none; stroke: #1f77b4"/>
    <path d="M 381.260481 333.36 
L 381.260481 325.206 
" clip-path="url(#pd17d708f0f)" style="fill: none; stroke: #1f77b4"/>
    <path d="M 381.260481 333.36 
L 381.260481 325.206 
" clip-path="url(#pd17d708f0f)" style="fill: none; stroke: #1f77b4"/>
    <path d="M 381.260481 333.36 
L 381.260481 325.206 
" clip-path="url(#pd17d708f0f)" style="fill: none; stroke: #1f77b4"/>
    <path d="M 381.260481 333.36 
L 381.260481 325.206 
" clip-path="url(#pd17d708f0f)" style="fill: none; stroke: #1f77b4"/>
    <path d="M 381.260481 333.36 
L 381.260481 325.206 
" clip-path="url(#pd17d708f0f)" style="fill: none; stroke: #1f77b4"/>
    <path d="M 381.260481 333.36 
L 381.260481 325.206 
" clip-path="url(#pd17d708f0f)" style="fill: none; stroke: #1f77b4"/>
    <path d="M 381.260481 333.36 
L 381.260481 325.206 
" clip-path="url(#pd17d708f0f)" style="fill: none; stroke: #1f77b4"/>
    <path d="M 381.260481 333.36 
L 381.260481 325.206 
" clip-path="url(#pd17d708f0f)" style="fill: none; stroke: #1f77b4"/>
    <path d="M 381.260481 333.36 
L 381.260481 325.206 
" clip-path="url(#pd17d708f0f)" style="fill: none; stroke: #1f77b4"/>
    <path d="M 381.260481 333.36 
L 381.260481 325.206 
" clip-path="url(#pd17d708f0f)" style="fill: none; stroke: #1f77b4"/>
    <path d="M 381.260481 333.36 
L 381.260481 325.206 
" clip-path="url(#pd17d708f0f)" style="fill: none; stroke: #1f77b4"/>
    <path d="M 381.260481 333.36 
L 381.260481 325.206 
" clip-path="url(#pd17d708f0f)" style="fill: none; stroke: #1f77b4"/>
    <path d="M 381.260481 333.36 
L 381.260481 325.206 
" clip-path="url(#pd17d708f0f)" style="fill: none; stroke: #1f77b4"/>
    <path d="M 325.66518 333.36 
L 325.66518 325.206 
" clip-path="url(#pd17d708f0f)" style="fill: none; stroke: #1f77b4"/>
    <path d="M 325.66518 333.36 
L 325.66518 325.206 
" clip-path="url(#pd17d708f0f)" style="fill: none; stroke: #1f77b4"/>
    <path d="M 325.66518 333.36 
L 325.66518 325.206 
" clip-path="url(#pd17d708f0f)" style="fill: none; stroke: #1f77b4"/>
    <path d="M 325.66518 333.36 
L 325.66518 325.206 
" clip-path="url(#pd17d708f0f)" style="fill: none; stroke: #1f77b4"/>
    <path d="M 297.867529 333.36 
L 297.867529 325.206 
" clip-path="url(#pd17d708f0f)" style="fill: none; stroke: #1f77b4"/>
    <path d="M 297.867529 333.36 
L 297.867529 325.206 
" clip-path="url(#pd17d708f0f)" style="fill: none; stroke: #1f77b4"/>
    <path d="M 285.513017 333.36 
L 285.513017 325.206 
" clip-path="url(#pd17d708f0f)" style="fill: none; stroke: #1f77b4"/>
    <path d="M 285.513017 333.36 
L 285.513017 325.206 
" clip-path="url(#pd17d708f0f)" style="fill: none; stroke: #1f77b4"/>
    <path d="M 285.513017 333.36 
L 285.513017 325.206 
" clip-path="url(#pd17d708f0f)" style="fill: none; stroke: #1f77b4"/>
    <path d="M 285.513017 333.36 
L 285.513017 325.206 
" clip-path="url(#pd17d708f0f)" style="fill: none; stroke: #1f77b4"/>
    <path d="M 285.513017 333.36 
L 285.513017 325.206 
" clip-path="url(#pd17d708f0f)" style="fill: none; stroke: #1f77b4"/>
    <path d="M 285.513017 333.36 
L 285.513017 325.206 
" clip-path="url(#pd17d708f0f)" style="fill: none; stroke: #1f77b4"/>
    <path d="M 285.513017 333.36 
L 285.513017 325.206 
" clip-path="url(#pd17d708f0f)" style="fill: none; stroke: #1f77b4"/>
    <path d="M 285.513017 333.36 
L 285.513017 325.206 
" clip-path="url(#pd17d708f0f)" style="fill: none; stroke: #1f77b4"/>
    <path d="M 285.513017 333.36 
L 285.513017 325.206 
" clip-path="url(#pd17d708f0f)" style="fill: none; stroke: #1f77b4"/>
    <path d="M 251.538111 333.36 
L 251.538111 325.206 
" clip-path="url(#pd17d708f0f)" style="fill: none; stroke: #1f77b4"/>
    <path d="M 251.538111 333.36 
L 251.538111 325.206 
" clip-path="url(#pd17d708f0f)" style="fill: none; stroke: #1f77b4"/>
    <path d="M 251.538111 333.36 
L 251.538111 325.206 
" clip-path="url(#pd17d708f0f)" style="fill: none; stroke: #1f77b4"/>
    <path d="M 251.538111 333.36 
L 251.538111 325.206 
" clip-path="url(#pd17d708f0f)" style="fill: none; stroke: #1f77b4"/>
    <path d="M 384.349109 333.36 
L 384.349109 325.206 
" clip-path="url(#pd17d708f0f)" style="fill: none; stroke: #1f77b4"/>
    <path d="M 285.513017 333.36 
L 285.513017 325.206 
" clip-path="url(#pd17d708f0f)" style="fill: none; stroke: #1f77b4"/>
    <path d="M 266.98125 333.36 
L 266.98125 325.206 
" clip-path="url(#pd17d708f0f)" style="fill: none; stroke: #1f77b4"/>
    <path d="M 199.031437 333.36 
L 199.031437 325.206 
" clip-path="url(#pd17d708f0f)" style="fill: none; stroke: #1f77b4"/>
    <path d="M 341.108319 333.36 
L 341.108319 325.206 
" clip-path="url(#pd17d708f0f)" style="fill: none; stroke: #1f77b4"/>
    <path d="M 341.108319 333.36 
L 341.108319 325.206 
" clip-path="url(#pd17d708f0f)" style="fill: none; stroke: #1f77b4"/>
    <path d="M 341.108319 333.36 
L 341.108319 325.206 
" clip-path="url(#pd17d708f0f)" style="fill: none; stroke: #1f77b4"/>
    <path d="M 341.108319 333.36 
L 341.108319 325.206 
" clip-path="url(#pd17d708f0f)" style="fill: none; stroke: #1f77b4"/>
    <path d="M 341.108319 333.36 
L 341.108319 325.206 
" clip-path="url(#pd17d708f0f)" style="fill: none; stroke: #1f77b4"/>
    <path d="M 341.108319 333.36 
L 341.108319 325.206 
" clip-path="url(#pd17d708f0f)" style="fill: none; stroke: #1f77b4"/>
    <path d="M 307.133412 333.36 
L 307.133412 325.206 
" clip-path="url(#pd17d708f0f)" style="fill: none; stroke: #1f77b4"/>
    <path d="M 229.917715 333.36 
L 229.917715 325.206 
" clip-path="url(#pd17d708f0f)" style="fill: none; stroke: #1f77b4"/>
    <path d="M 229.917715 333.36 
L 229.917715 325.206 
" clip-path="url(#pd17d708f0f)" style="fill: none; stroke: #1f77b4"/>
    <path d="M 316.399296 333.36 
L 316.399296 325.206 
" clip-path="url(#pd17d708f0f)" style="fill: none; stroke: #1f77b4"/>
    <path d="M 316.399296 333.36 
L 316.399296 325.206 
" clip-path="url(#pd17d708f0f)" style="fill: none; stroke: #1f77b4"/>
    <path d="M 316.399296 333.36 
L 316.399296 325.206 
" clip-path="url(#pd17d708f0f)" style="fill: none; stroke: #1f77b4"/>
    <path d="M 325.66518 333.36 
L 325.66518 325.206 
" clip-path="url(#pd17d708f0f)" style="fill: none; stroke: #1f77b4"/>
    <path d="M 325.66518 333.36 
L 325.66518 325.206 
" clip-path="url(#pd17d708f0f)" style="fill: none; stroke: #1f77b4"/>
    <path d="M 325.66518 333.36 
L 325.66518 325.206 
" clip-path="url(#pd17d708f0f)" style="fill: none; stroke: #1f77b4"/>
    <path d="M 325.66518 333.36 
L 325.66518 325.206 
" clip-path="url(#pd17d708f0f)" style="fill: none; stroke: #1f77b4"/>
    <path d="M 310.22204 333.36 
L 310.22204 325.206 
" clip-path="url(#pd17d708f0f)" style="fill: none; stroke: #1f77b4"/>
    <path d="M 310.22204 333.36 
L 310.22204 325.206 
" clip-path="url(#pd17d708f0f)" style="fill: none; stroke: #1f77b4"/>
    <path d="M 310.22204 333.36 
L 310.22204 325.206 
" clip-path="url(#pd17d708f0f)" style="fill: none; stroke: #1f77b4"/>
    <path d="M 310.22204 333.36 
L 310.22204 325.206 
" clip-path="url(#pd17d708f0f)" style="fill: none; stroke: #1f77b4"/>
    <path d="M 310.22204 333.36 
L 310.22204 325.206 
" clip-path="url(#pd17d708f0f)" style="fill: none; stroke: #1f77b4"/>
    <path d="M 310.22204 333.36 
L 310.22204 325.206 
" clip-path="url(#pd17d708f0f)" style="fill: none; stroke: #1f77b4"/>
    <path d="M 319.487924 333.36 
L 319.487924 325.206 
" clip-path="url(#pd17d708f0f)" style="fill: none; stroke: #1f77b4"/>
    <path d="M 319.487924 333.36 
L 319.487924 325.206 
" clip-path="url(#pd17d708f0f)" style="fill: none; stroke: #1f77b4"/>
    <path d="M 319.487924 333.36 
L 319.487924 325.206 
" clip-path="url(#pd17d708f0f)" style="fill: none; stroke: #1f77b4"/>
    <path d="M 319.487924 333.36 
L 319.487924 325.206 
" clip-path="url(#pd17d708f0f)" style="fill: none; stroke: #1f77b4"/>
    <path d="M 304.044785 333.36 
L 304.044785 325.206 
" clip-path="url(#pd17d708f0f)" style="fill: none; stroke: #1f77b4"/>
    <path d="M 304.044785 333.36 
L 304.044785 325.206 
" clip-path="url(#pd17d708f0f)" style="fill: none; stroke: #1f77b4"/>
    <path d="M 304.044785 333.36 
L 304.044785 325.206 
" clip-path="url(#pd17d708f0f)" style="fill: none; stroke: #1f77b4"/>
    <path d="M 304.044785 333.36 
L 304.044785 325.206 
" clip-path="url(#pd17d708f0f)" style="fill: none; stroke: #1f77b4"/>
    <path d="M 282.424389 333.36 
L 282.424389 325.206 
" clip-path="url(#pd17d708f0f)" style="fill: none; stroke: #1f77b4"/>
    <path d="M 282.424389 333.36 
L 282.424389 325.206 
" clip-path="url(#pd17d708f0f)" style="fill: none; stroke: #1f77b4"/>
    <path d="M 282.424389 333.36 
L 282.424389 325.206 
" clip-path="url(#pd17d708f0f)" style="fill: none; stroke: #1f77b4"/>
    <path d="M 282.424389 333.36 
L 282.424389 325.206 
" clip-path="url(#pd17d708f0f)" style="fill: none; stroke: #1f77b4"/>
    <path d="M 294.778901 333.36 
L 294.778901 325.206 
" clip-path="url(#pd17d708f0f)" style="fill: none; stroke: #1f77b4"/>
    <path d="M 294.778901 333.36 
L 294.778901 325.206 
" clip-path="url(#pd17d708f0f)" style="fill: none; stroke: #1f77b4"/>
    <path d="M 294.778901 333.36 
L 294.778901 325.206 
" clip-path="url(#pd17d708f0f)" style="fill: none; stroke: #1f77b4"/>
    <path d="M 288.601645 333.36 
L 288.601645 325.206 
" clip-path="url(#pd17d708f0f)" style="fill: none; stroke: #1f77b4"/>
    <path d="M 288.601645 333.36 
L 288.601645 325.206 
" clip-path="url(#pd17d708f0f)" style="fill: none; stroke: #1f77b4"/>
    <path d="M 288.601645 333.36 
L 288.601645 325.206 
" clip-path="url(#pd17d708f0f)" style="fill: none; stroke: #1f77b4"/>
    <path d="M 288.601645 333.36 
L 288.601645 325.206 
" clip-path="url(#pd17d708f0f)" style="fill: none; stroke: #1f77b4"/>
    <path d="M 288.601645 333.36 
L 288.601645 325.206 
" clip-path="url(#pd17d708f0f)" style="fill: none; stroke: #1f77b4"/>
    <path d="M 378.171854 333.36 
L 378.171854 325.206 
" clip-path="url(#pd17d708f0f)" style="fill: none; stroke: #1f77b4"/>
    <path d="M 378.171854 333.36 
L 378.171854 325.206 
" clip-path="url(#pd17d708f0f)" style="fill: none; stroke: #1f77b4"/>
    <path d="M 378.171854 333.36 
L 378.171854 325.206 
" clip-path="url(#pd17d708f0f)" style="fill: none; stroke: #1f77b4"/>
    <path d="M 378.171854 333.36 
L 378.171854 325.206 
" clip-path="url(#pd17d708f0f)" style="fill: none; stroke: #1f77b4"/>
    <path d="M 378.171854 333.36 
L 378.171854 325.206 
" clip-path="url(#pd17d708f0f)" style="fill: none; stroke: #1f77b4"/>
    <path d="M 378.171854 333.36 
L 378.171854 325.206 
" clip-path="url(#pd17d708f0f)" style="fill: none; stroke: #1f77b4"/>
    <path d="M 378.171854 333.36 
L 378.171854 325.206 
" clip-path="url(#pd17d708f0f)" style="fill: none; stroke: #1f77b4"/>
    <path d="M 378.171854 333.36 
L 378.171854 325.206 
" clip-path="url(#pd17d708f0f)" style="fill: none; stroke: #1f77b4"/>
    <path d="M 378.171854 333.36 
L 378.171854 325.206 
" clip-path="url(#pd17d708f0f)" style="fill: none; stroke: #1f77b4"/>
    <path d="M 378.171854 333.36 
L 378.171854 325.206 
" clip-path="url(#pd17d708f0f)" style="fill: none; stroke: #1f77b4"/>
    <path d="M 378.171854 333.36 
L 378.171854 325.206 
" clip-path="url(#pd17d708f0f)" style="fill: none; stroke: #1f77b4"/>
    <path d="M 282.424389 333.36 
L 282.424389 325.206 
" clip-path="url(#pd17d708f0f)" style="fill: none; stroke: #1f77b4"/>
    <path d="M 282.424389 333.36 
L 282.424389 325.206 
" clip-path="url(#pd17d708f0f)" style="fill: none; stroke: #1f77b4"/>
    <path d="M 282.424389 333.36 
L 282.424389 325.206 
" clip-path="url(#pd17d708f0f)" style="fill: none; stroke: #1f77b4"/>
    <path d="M 282.424389 333.36 
L 282.424389 325.206 
" clip-path="url(#pd17d708f0f)" style="fill: none; stroke: #1f77b4"/>
    <path d="M 282.424389 333.36 
L 282.424389 325.206 
" clip-path="url(#pd17d708f0f)" style="fill: none; stroke: #1f77b4"/>
    <path d="M 282.424389 333.36 
L 282.424389 325.206 
" clip-path="url(#pd17d708f0f)" style="fill: none; stroke: #1f77b4"/>
    <path d="M 282.424389 333.36 
L 282.424389 325.206 
" clip-path="url(#pd17d708f0f)" style="fill: none; stroke: #1f77b4"/>
    <path d="M 282.424389 333.36 
L 282.424389 325.206 
" clip-path="url(#pd17d708f0f)" style="fill: none; stroke: #1f77b4"/>
    <path d="M 282.424389 333.36 
L 282.424389 325.206 
" clip-path="url(#pd17d708f0f)" style="fill: none; stroke: #1f77b4"/>
    <path d="M 322.576552 333.36 
L 322.576552 325.206 
" clip-path="url(#pd17d708f0f)" style="fill: none; stroke: #1f77b4"/>
    <path d="M 322.576552 333.36 
L 322.576552 325.206 
" clip-path="url(#pd17d708f0f)" style="fill: none; stroke: #1f77b4"/>
    <path d="M 322.576552 333.36 
L 322.576552 325.206 
" clip-path="url(#pd17d708f0f)" style="fill: none; stroke: #1f77b4"/>
    <path d="M 322.576552 333.36 
L 322.576552 325.206 
" clip-path="url(#pd17d708f0f)" style="fill: none; stroke: #1f77b4"/>
    <path d="M 322.576552 333.36 
L 322.576552 325.206 
" clip-path="url(#pd17d708f0f)" style="fill: none; stroke: #1f77b4"/>
    <path d="M 322.576552 333.36 
L 322.576552 325.206 
" clip-path="url(#pd17d708f0f)" style="fill: none; stroke: #1f77b4"/>
    <path d="M 322.576552 333.36 
L 322.576552 325.206 
" clip-path="url(#pd17d708f0f)" style="fill: none; stroke: #1f77b4"/>
    <path d="M 387.437737 333.36 
L 387.437737 325.206 
" clip-path="url(#pd17d708f0f)" style="fill: none; stroke: #1f77b4"/>
    <path d="M 387.437737 333.36 
L 387.437737 325.206 
" clip-path="url(#pd17d708f0f)" style="fill: none; stroke: #1f77b4"/>
    <path d="M 387.437737 333.36 
L 387.437737 325.206 
" clip-path="url(#pd17d708f0f)" style="fill: none; stroke: #1f77b4"/>
    <path d="M 387.437737 333.36 
L 387.437737 325.206 
" clip-path="url(#pd17d708f0f)" style="fill: none; stroke: #1f77b4"/>
    <path d="M 387.437737 333.36 
L 387.437737 325.206 
" clip-path="url(#pd17d708f0f)" style="fill: none; stroke: #1f77b4"/>
    <path d="M 387.437737 333.36 
L 387.437737 325.206 
" clip-path="url(#pd17d708f0f)" style="fill: none; stroke: #1f77b4"/>
    <path d="M 387.437737 333.36 
L 387.437737 325.206 
" clip-path="url(#pd17d708f0f)" style="fill: none; stroke: #1f77b4"/>
    <path d="M 387.437737 333.36 
L 387.437737 325.206 
" clip-path="url(#pd17d708f0f)" style="fill: none; stroke: #1f77b4"/>
    <path d="M 387.437737 333.36 
L 387.437737 325.206 
" clip-path="url(#pd17d708f0f)" style="fill: none; stroke: #1f77b4"/>
    <path d="M 387.437737 333.36 
L 387.437737 325.206 
" clip-path="url(#pd17d708f0f)" style="fill: none; stroke: #1f77b4"/>
    <path d="M 387.437737 333.36 
L 387.437737 325.206 
" clip-path="url(#pd17d708f0f)" style="fill: none; stroke: #1f77b4"/>
    <path d="M 387.437737 333.36 
L 387.437737 325.206 
" clip-path="url(#pd17d708f0f)" style="fill: none; stroke: #1f77b4"/>
    <path d="M 387.437737 333.36 
L 387.437737 325.206 
" clip-path="url(#pd17d708f0f)" style="fill: none; stroke: #1f77b4"/>
    <path d="M 387.437737 333.36 
L 387.437737 325.206 
" clip-path="url(#pd17d708f0f)" style="fill: none; stroke: #1f77b4"/>
    <path d="M 387.437737 333.36 
L 387.437737 325.206 
" clip-path="url(#pd17d708f0f)" style="fill: none; stroke: #1f77b4"/>
    <path d="M 186.676925 333.36 
L 186.676925 325.206 
" clip-path="url(#pd17d708f0f)" style="fill: none; stroke: #1f77b4"/>
    <path d="M 186.676925 333.36 
L 186.676925 325.206 
" clip-path="url(#pd17d708f0f)" style="fill: none; stroke: #1f77b4"/>
    <path d="M 186.676925 333.36 
L 186.676925 325.206 
" clip-path="url(#pd17d708f0f)" style="fill: none; stroke: #1f77b4"/>
    <path d="M 186.676925 333.36 
L 186.676925 325.206 
" clip-path="url(#pd17d708f0f)" style="fill: none; stroke: #1f77b4"/>
    <path d="M 186.676925 333.36 
L 186.676925 325.206 
" clip-path="url(#pd17d708f0f)" style="fill: none; stroke: #1f77b4"/>
    <path d="M 186.676925 333.36 
L 186.676925 325.206 
" clip-path="url(#pd17d708f0f)" style="fill: none; stroke: #1f77b4"/>
    <path d="M 186.676925 333.36 
L 186.676925 325.206 
" clip-path="url(#pd17d708f0f)" style="fill: none; stroke: #1f77b4"/>
    <path d="M 186.676925 333.36 
L 186.676925 325.206 
" clip-path="url(#pd17d708f0f)" style="fill: none; stroke: #1f77b4"/>
    <path d="M 186.676925 333.36 
L 186.676925 325.206 
" clip-path="url(#pd17d708f0f)" style="fill: none; stroke: #1f77b4"/>
    <path d="M 186.676925 333.36 
L 186.676925 325.206 
" clip-path="url(#pd17d708f0f)" style="fill: none; stroke: #1f77b4"/>
    <path d="M 186.676925 333.36 
L 186.676925 325.206 
" clip-path="url(#pd17d708f0f)" style="fill: none; stroke: #1f77b4"/>
    <path d="M 186.676925 333.36 
L 186.676925 325.206 
" clip-path="url(#pd17d708f0f)" style="fill: none; stroke: #1f77b4"/>
    <path d="M 186.676925 333.36 
L 186.676925 325.206 
" clip-path="url(#pd17d708f0f)" style="fill: none; stroke: #1f77b4"/>
    <path d="M 186.676925 333.36 
L 186.676925 325.206 
" clip-path="url(#pd17d708f0f)" style="fill: none; stroke: #1f77b4"/>
    <path d="M 186.676925 333.36 
L 186.676925 325.206 
" clip-path="url(#pd17d708f0f)" style="fill: none; stroke: #1f77b4"/>
    <path d="M 186.676925 333.36 
L 186.676925 325.206 
" clip-path="url(#pd17d708f0f)" style="fill: none; stroke: #1f77b4"/>
    <path d="M 186.676925 333.36 
L 186.676925 325.206 
" clip-path="url(#pd17d708f0f)" style="fill: none; stroke: #1f77b4"/>
    <path d="M 186.676925 333.36 
L 186.676925 325.206 
" clip-path="url(#pd17d708f0f)" style="fill: none; stroke: #1f77b4"/>
    <path d="M 186.676925 333.36 
L 186.676925 325.206 
" clip-path="url(#pd17d708f0f)" style="fill: none; stroke: #1f77b4"/>
    <path d="M 186.676925 333.36 
L 186.676925 325.206 
" clip-path="url(#pd17d708f0f)" style="fill: none; stroke: #1f77b4"/>
    <path d="M 186.676925 333.36 
L 186.676925 325.206 
" clip-path="url(#pd17d708f0f)" style="fill: none; stroke: #1f77b4"/>
    <path d="M 186.676925 333.36 
L 186.676925 325.206 
" clip-path="url(#pd17d708f0f)" style="fill: none; stroke: #1f77b4"/>
    <path d="M 186.676925 333.36 
L 186.676925 325.206 
" clip-path="url(#pd17d708f0f)" style="fill: none; stroke: #1f77b4"/>
    <path d="M 186.676925 333.36 
L 186.676925 325.206 
" clip-path="url(#pd17d708f0f)" style="fill: none; stroke: #1f77b4"/>
    <path d="M 186.676925 333.36 
L 186.676925 325.206 
" clip-path="url(#pd17d708f0f)" style="fill: none; stroke: #1f77b4"/>
    <path d="M 186.676925 333.36 
L 186.676925 325.206 
" clip-path="url(#pd17d708f0f)" style="fill: none; stroke: #1f77b4"/>
    <path d="M 186.676925 333.36 
L 186.676925 325.206 
" clip-path="url(#pd17d708f0f)" style="fill: none; stroke: #1f77b4"/>
    <path d="M 186.676925 333.36 
L 186.676925 325.206 
" clip-path="url(#pd17d708f0f)" style="fill: none; stroke: #1f77b4"/>
    <path d="M 186.676925 333.36 
L 186.676925 325.206 
" clip-path="url(#pd17d708f0f)" style="fill: none; stroke: #1f77b4"/>
    <path d="M 186.676925 333.36 
L 186.676925 325.206 
" clip-path="url(#pd17d708f0f)" style="fill: none; stroke: #1f77b4"/>
    <path d="M 245.360855 333.36 
L 245.360855 325.206 
" clip-path="url(#pd17d708f0f)" style="fill: none; stroke: #1f77b4"/>
    <path d="M 245.360855 333.36 
L 245.360855 325.206 
" clip-path="url(#pd17d708f0f)" style="fill: none; stroke: #1f77b4"/>
    <path d="M 245.360855 333.36 
L 245.360855 325.206 
" clip-path="url(#pd17d708f0f)" style="fill: none; stroke: #1f77b4"/>
    <path d="M 245.360855 333.36 
L 245.360855 325.206 
" clip-path="url(#pd17d708f0f)" style="fill: none; stroke: #1f77b4"/>
    <path d="M 245.360855 333.36 
L 245.360855 325.206 
" clip-path="url(#pd17d708f0f)" style="fill: none; stroke: #1f77b4"/>
    <path d="M 245.360855 333.36 
L 245.360855 325.206 
" clip-path="url(#pd17d708f0f)" style="fill: none; stroke: #1f77b4"/>
    <path d="M 245.360855 333.36 
L 245.360855 325.206 
" clip-path="url(#pd17d708f0f)" style="fill: none; stroke: #1f77b4"/>
    <path d="M 282.424389 333.36 
L 282.424389 325.206 
" clip-path="url(#pd17d708f0f)" style="fill: none; stroke: #1f77b4"/>
    <path d="M 282.424389 333.36 
L 282.424389 325.206 
" clip-path="url(#pd17d708f0f)" style="fill: none; stroke: #1f77b4"/>
    <path d="M 282.424389 333.36 
L 282.424389 325.206 
" clip-path="url(#pd17d708f0f)" style="fill: none; stroke: #1f77b4"/>
    <path d="M 282.424389 333.36 
L 282.424389 325.206 
" clip-path="url(#pd17d708f0f)" style="fill: none; stroke: #1f77b4"/>
    <path d="M 282.424389 333.36 
L 282.424389 325.206 
" clip-path="url(#pd17d708f0f)" style="fill: none; stroke: #1f77b4"/>
    <path d="M 282.424389 333.36 
L 282.424389 325.206 
" clip-path="url(#pd17d708f0f)" style="fill: none; stroke: #1f77b4"/>
    <path d="M 282.424389 333.36 
L 282.424389 325.206 
" clip-path="url(#pd17d708f0f)" style="fill: none; stroke: #1f77b4"/>
    <path d="M 282.424389 333.36 
L 282.424389 325.206 
" clip-path="url(#pd17d708f0f)" style="fill: none; stroke: #1f77b4"/>
    <path d="M 202.120065 333.36 
L 202.120065 325.206 
" clip-path="url(#pd17d708f0f)" style="fill: none; stroke: #1f77b4"/>
    <path d="M 202.120065 333.36 
L 202.120065 325.206 
" clip-path="url(#pd17d708f0f)" style="fill: none; stroke: #1f77b4"/>
    <path d="M 202.120065 333.36 
L 202.120065 325.206 
" clip-path="url(#pd17d708f0f)" style="fill: none; stroke: #1f77b4"/>
    <path d="M 202.120065 333.36 
L 202.120065 325.206 
" clip-path="url(#pd17d708f0f)" style="fill: none; stroke: #1f77b4"/>
    <path d="M 202.120065 333.36 
L 202.120065 325.206 
" clip-path="url(#pd17d708f0f)" style="fill: none; stroke: #1f77b4"/>
    <path d="M 202.120065 333.36 
L 202.120065 325.206 
" clip-path="url(#pd17d708f0f)" style="fill: none; stroke: #1f77b4"/>
    <path d="M 214.474576 333.36 
L 214.474576 325.206 
" clip-path="url(#pd17d708f0f)" style="fill: none; stroke: #1f77b4"/>
    <path d="M 214.474576 333.36 
L 214.474576 325.206 
" clip-path="url(#pd17d708f0f)" style="fill: none; stroke: #1f77b4"/>
    <path d="M 177.411042 333.36 
L 177.411042 325.206 
" clip-path="url(#pd17d708f0f)" style="fill: none; stroke: #1f77b4"/>
    <path d="M 121.81574 333.36 
L 121.81574 325.206 
" clip-path="url(#pd17d708f0f)" style="fill: none; stroke: #1f77b4"/>
    <path d="M 121.81574 333.36 
L 121.81574 325.206 
" clip-path="url(#pd17d708f0f)" style="fill: none; stroke: #1f77b4"/>
    <path d="M 121.81574 333.36 
L 121.81574 325.206 
" clip-path="url(#pd17d708f0f)" style="fill: none; stroke: #1f77b4"/>
    <path d="M 257.715366 333.36 
L 257.715366 325.206 
" clip-path="url(#pd17d708f0f)" style="fill: none; stroke: #1f77b4"/>
    <path d="M 257.715366 333.36 
L 257.715366 325.206 
" clip-path="url(#pd17d708f0f)" style="fill: none; stroke: #1f77b4"/>
    <path d="M 186.676925 333.36 
L 186.676925 325.206 
" clip-path="url(#pd17d708f0f)" style="fill: none; stroke: #1f77b4"/>
    <path d="M 186.676925 333.36 
L 186.676925 325.206 
" clip-path="url(#pd17d708f0f)" style="fill: none; stroke: #1f77b4"/>
    <path d="M 186.676925 333.36 
L 186.676925 325.206 
" clip-path="url(#pd17d708f0f)" style="fill: none; stroke: #1f77b4"/>
    <path d="M 186.676925 333.36 
L 186.676925 325.206 
" clip-path="url(#pd17d708f0f)" style="fill: none; stroke: #1f77b4"/>
    <path d="M 307.133412 333.36 
L 307.133412 325.206 
" clip-path="url(#pd17d708f0f)" style="fill: none; stroke: #1f77b4"/>
    <path d="M 307.133412 333.36 
L 307.133412 325.206 
" clip-path="url(#pd17d708f0f)" style="fill: none; stroke: #1f77b4"/>
    <path d="M 307.133412 333.36 
L 307.133412 325.206 
" clip-path="url(#pd17d708f0f)" style="fill: none; stroke: #1f77b4"/>
    <path d="M 307.133412 333.36 
L 307.133412 325.206 
" clip-path="url(#pd17d708f0f)" style="fill: none; stroke: #1f77b4"/>
    <path d="M 307.133412 333.36 
L 307.133412 325.206 
" clip-path="url(#pd17d708f0f)" style="fill: none; stroke: #1f77b4"/>
    <path d="M 307.133412 333.36 
L 307.133412 325.206 
" clip-path="url(#pd17d708f0f)" style="fill: none; stroke: #1f77b4"/>
    <path d="M 307.133412 333.36 
L 307.133412 325.206 
" clip-path="url(#pd17d708f0f)" style="fill: none; stroke: #1f77b4"/>
    <path d="M 307.133412 333.36 
L 307.133412 325.206 
" clip-path="url(#pd17d708f0f)" style="fill: none; stroke: #1f77b4"/>
    <path d="M 307.133412 333.36 
L 307.133412 325.206 
" clip-path="url(#pd17d708f0f)" style="fill: none; stroke: #1f77b4"/>
    <path d="M 307.133412 333.36 
L 307.133412 325.206 
" clip-path="url(#pd17d708f0f)" style="fill: none; stroke: #1f77b4"/>
    <path d="M 307.133412 333.36 
L 307.133412 325.206 
" clip-path="url(#pd17d708f0f)" style="fill: none; stroke: #1f77b4"/>
    <path d="M 239.183599 333.36 
L 239.183599 325.206 
" clip-path="url(#pd17d708f0f)" style="fill: none; stroke: #1f77b4"/>
    <path d="M 239.183599 333.36 
L 239.183599 325.206 
" clip-path="url(#pd17d708f0f)" style="fill: none; stroke: #1f77b4"/>
    <path d="M 239.183599 333.36 
L 239.183599 325.206 
" clip-path="url(#pd17d708f0f)" style="fill: none; stroke: #1f77b4"/>
    <path d="M 239.183599 333.36 
L 239.183599 325.206 
" clip-path="url(#pd17d708f0f)" style="fill: none; stroke: #1f77b4"/>
    <path d="M 270.069878 333.36 
L 270.069878 325.206 
" clip-path="url(#pd17d708f0f)" style="fill: none; stroke: #1f77b4"/>
    <path d="M 270.069878 333.36 
L 270.069878 325.206 
" clip-path="url(#pd17d708f0f)" style="fill: none; stroke: #1f77b4"/>
    <path d="M 270.069878 333.36 
L 270.069878 325.206 
" clip-path="url(#pd17d708f0f)" style="fill: none; stroke: #1f77b4"/>
    <path d="M 270.069878 333.36 
L 270.069878 325.206 
" clip-path="url(#pd17d708f0f)" style="fill: none; stroke: #1f77b4"/>
    <path d="M 270.069878 333.36 
L 270.069878 325.206 
" clip-path="url(#pd17d708f0f)" style="fill: none; stroke: #1f77b4"/>
    <path d="M 270.069878 333.36 
L 270.069878 325.206 
" clip-path="url(#pd17d708f0f)" style="fill: none; stroke: #1f77b4"/>
    <path d="M 270.069878 333.36 
L 270.069878 325.206 
" clip-path="url(#pd17d708f0f)" style="fill: none; stroke: #1f77b4"/>
    <path d="M 270.069878 333.36 
L 270.069878 325.206 
" clip-path="url(#pd17d708f0f)" style="fill: none; stroke: #1f77b4"/>
    <path d="M 270.069878 333.36 
L 270.069878 325.206 
" clip-path="url(#pd17d708f0f)" style="fill: none; stroke: #1f77b4"/>
    <path d="M 270.069878 333.36 
L 270.069878 325.206 
" clip-path="url(#pd17d708f0f)" style="fill: none; stroke: #1f77b4"/>
    <path d="M 270.069878 333.36 
L 270.069878 325.206 
" clip-path="url(#pd17d708f0f)" style="fill: none; stroke: #1f77b4"/>
    <path d="M 270.069878 333.36 
L 270.069878 325.206 
" clip-path="url(#pd17d708f0f)" style="fill: none; stroke: #1f77b4"/>
    <path d="M 270.069878 333.36 
L 270.069878 325.206 
" clip-path="url(#pd17d708f0f)" style="fill: none; stroke: #1f77b4"/>
    <path d="M 270.069878 333.36 
L 270.069878 325.206 
" clip-path="url(#pd17d708f0f)" style="fill: none; stroke: #1f77b4"/>
    <path d="M 270.069878 333.36 
L 270.069878 325.206 
" clip-path="url(#pd17d708f0f)" style="fill: none; stroke: #1f77b4"/>
    <path d="M 270.069878 333.36 
L 270.069878 325.206 
" clip-path="url(#pd17d708f0f)" style="fill: none; stroke: #1f77b4"/>
    <path d="M 270.069878 333.36 
L 270.069878 325.206 
" clip-path="url(#pd17d708f0f)" style="fill: none; stroke: #1f77b4"/>
    <path d="M 270.069878 333.36 
L 270.069878 325.206 
" clip-path="url(#pd17d708f0f)" style="fill: none; stroke: #1f77b4"/>
    <path d="M 245.360855 333.36 
L 245.360855 325.206 
" clip-path="url(#pd17d708f0f)" style="fill: none; stroke: #1f77b4"/>
    <path d="M 245.360855 333.36 
L 245.360855 325.206 
" clip-path="url(#pd17d708f0f)" style="fill: none; stroke: #1f77b4"/>
    <path d="M 245.360855 333.36 
L 245.360855 325.206 
" clip-path="url(#pd17d708f0f)" style="fill: none; stroke: #1f77b4"/>
    <path d="M 245.360855 333.36 
L 245.360855 325.206 
" clip-path="url(#pd17d708f0f)" style="fill: none; stroke: #1f77b4"/>
    <path d="M 245.360855 333.36 
L 245.360855 325.206 
" clip-path="url(#pd17d708f0f)" style="fill: none; stroke: #1f77b4"/>
    <path d="M 245.360855 333.36 
L 245.360855 325.206 
" clip-path="url(#pd17d708f0f)" style="fill: none; stroke: #1f77b4"/>
    <path d="M 322.576552 333.36 
L 322.576552 325.206 
" clip-path="url(#pd17d708f0f)" style="fill: none; stroke: #1f77b4"/>
    <path d="M 322.576552 333.36 
L 322.576552 325.206 
" clip-path="url(#pd17d708f0f)" style="fill: none; stroke: #1f77b4"/>
    <path d="M 322.576552 333.36 
L 322.576552 325.206 
" clip-path="url(#pd17d708f0f)" style="fill: none; stroke: #1f77b4"/>
    <path d="M 322.576552 333.36 
L 322.576552 325.206 
" clip-path="url(#pd17d708f0f)" style="fill: none; stroke: #1f77b4"/>
    <path d="M 322.576552 333.36 
L 322.576552 325.206 
" clip-path="url(#pd17d708f0f)" style="fill: none; stroke: #1f77b4"/>
    <path d="M 322.576552 333.36 
L 322.576552 325.206 
" clip-path="url(#pd17d708f0f)" style="fill: none; stroke: #1f77b4"/>
    <path d="M 322.576552 333.36 
L 322.576552 325.206 
" clip-path="url(#pd17d708f0f)" style="fill: none; stroke: #1f77b4"/>
    <path d="M 322.576552 333.36 
L 322.576552 325.206 
" clip-path="url(#pd17d708f0f)" style="fill: none; stroke: #1f77b4"/>
    <path d="M 322.576552 333.36 
L 322.576552 325.206 
" clip-path="url(#pd17d708f0f)" style="fill: none; stroke: #1f77b4"/>
    <path d="M 322.576552 333.36 
L 322.576552 325.206 
" clip-path="url(#pd17d708f0f)" style="fill: none; stroke: #1f77b4"/>
    <path d="M 239.183599 333.36 
L 239.183599 325.206 
" clip-path="url(#pd17d708f0f)" style="fill: none; stroke: #1f77b4"/>
    <path d="M 239.183599 333.36 
L 239.183599 325.206 
" clip-path="url(#pd17d708f0f)" style="fill: none; stroke: #1f77b4"/>
    <path d="M 223.74046 333.36 
L 223.74046 325.206 
" clip-path="url(#pd17d708f0f)" style="fill: none; stroke: #1f77b4"/>
    <path d="M 134.170251 333.36 
L 134.170251 325.206 
" clip-path="url(#pd17d708f0f)" style="fill: none; stroke: #1f77b4"/>
    <path d="M 134.170251 333.36 
L 134.170251 325.206 
" clip-path="url(#pd17d708f0f)" style="fill: none; stroke: #1f77b4"/>
    <path d="M 134.170251 333.36 
L 134.170251 325.206 
" clip-path="url(#pd17d708f0f)" style="fill: none; stroke: #1f77b4"/>
    <path d="M 134.170251 333.36 
L 134.170251 325.206 
" clip-path="url(#pd17d708f0f)" style="fill: none; stroke: #1f77b4"/>
    <path d="M 134.170251 333.36 
L 134.170251 325.206 
" clip-path="url(#pd17d708f0f)" style="fill: none; stroke: #1f77b4"/>
    <path d="M 134.170251 333.36 
L 134.170251 325.206 
" clip-path="url(#pd17d708f0f)" style="fill: none; stroke: #1f77b4"/>
    <path d="M 134.170251 333.36 
L 134.170251 325.206 
" clip-path="url(#pd17d708f0f)" style="fill: none; stroke: #1f77b4"/>
    <path d="M 134.170251 333.36 
L 134.170251 325.206 
" clip-path="url(#pd17d708f0f)" style="fill: none; stroke: #1f77b4"/>
    <path d="M 134.170251 333.36 
L 134.170251 325.206 
" clip-path="url(#pd17d708f0f)" style="fill: none; stroke: #1f77b4"/>
    <path d="M 134.170251 333.36 
L 134.170251 325.206 
" clip-path="url(#pd17d708f0f)" style="fill: none; stroke: #1f77b4"/>
    <path d="M 134.170251 333.36 
L 134.170251 325.206 
" clip-path="url(#pd17d708f0f)" style="fill: none; stroke: #1f77b4"/>
    <path d="M 134.170251 333.36 
L 134.170251 325.206 
" clip-path="url(#pd17d708f0f)" style="fill: none; stroke: #1f77b4"/>
    <path d="M 307.133412 333.36 
L 307.133412 325.206 
" clip-path="url(#pd17d708f0f)" style="fill: none; stroke: #1f77b4"/>
    <path d="M 307.133412 333.36 
L 307.133412 325.206 
" clip-path="url(#pd17d708f0f)" style="fill: none; stroke: #1f77b4"/>
    <path d="M 307.133412 333.36 
L 307.133412 325.206 
" clip-path="url(#pd17d708f0f)" style="fill: none; stroke: #1f77b4"/>
    <path d="M 307.133412 333.36 
L 307.133412 325.206 
" clip-path="url(#pd17d708f0f)" style="fill: none; stroke: #1f77b4"/>
    <path d="M 307.133412 333.36 
L 307.133412 325.206 
" clip-path="url(#pd17d708f0f)" style="fill: none; stroke: #1f77b4"/>
    <path d="M 276.247134 333.36 
L 276.247134 325.206 
" clip-path="url(#pd17d708f0f)" style="fill: none; stroke: #1f77b4"/>
    <path d="M 276.247134 333.36 
L 276.247134 325.206 
" clip-path="url(#pd17d708f0f)" style="fill: none; stroke: #1f77b4"/>
    <path d="M 276.247134 333.36 
L 276.247134 325.206 
" clip-path="url(#pd17d708f0f)" style="fill: none; stroke: #1f77b4"/>
    <path d="M 276.247134 333.36 
L 276.247134 325.206 
" clip-path="url(#pd17d708f0f)" style="fill: none; stroke: #1f77b4"/>
    <path d="M 276.247134 333.36 
L 276.247134 325.206 
" clip-path="url(#pd17d708f0f)" style="fill: none; stroke: #1f77b4"/>
    <path d="M 192.854181 333.36 
L 192.854181 325.206 
" clip-path="url(#pd17d708f0f)" style="fill: none; stroke: #1f77b4"/>
    <path d="M 192.854181 333.36 
L 192.854181 325.206 
" clip-path="url(#pd17d708f0f)" style="fill: none; stroke: #1f77b4"/>
    <path d="M 192.854181 333.36 
L 192.854181 325.206 
" clip-path="url(#pd17d708f0f)" style="fill: none; stroke: #1f77b4"/>
    <path d="M 192.854181 333.36 
L 192.854181 325.206 
" clip-path="url(#pd17d708f0f)" style="fill: none; stroke: #1f77b4"/>
    <path d="M 152.702019 333.36 
L 152.702019 325.206 
" clip-path="url(#pd17d708f0f)" style="fill: none; stroke: #1f77b4"/>
    <path d="M 205.208692 333.36 
L 205.208692 325.206 
" clip-path="url(#pd17d708f0f)" style="fill: none; stroke: #1f77b4"/>
    <path d="M 205.208692 333.36 
L 205.208692 325.206 
" clip-path="url(#pd17d708f0f)" style="fill: none; stroke: #1f77b4"/>
    <path d="M 294.778901 333.36 
L 294.778901 325.206 
" clip-path="url(#pd17d708f0f)" style="fill: none; stroke: #1f77b4"/>
    <path d="M 245.360855 333.36 
L 245.360855 325.206 
" clip-path="url(#pd17d708f0f)" style="fill: none; stroke: #1f77b4"/>
    <path d="M 245.360855 333.36 
L 245.360855 325.206 
" clip-path="url(#pd17d708f0f)" style="fill: none; stroke: #1f77b4"/>
    <path d="M 245.360855 333.36 
L 245.360855 325.206 
" clip-path="url(#pd17d708f0f)" style="fill: none; stroke: #1f77b4"/>
    <path d="M 325.66518 333.36 
L 325.66518 325.206 
" clip-path="url(#pd17d708f0f)" style="fill: none; stroke: #1f77b4"/>
    <path d="M 325.66518 333.36 
L 325.66518 325.206 
" clip-path="url(#pd17d708f0f)" style="fill: none; stroke: #1f77b4"/>
    <path d="M 325.66518 333.36 
L 325.66518 325.206 
" clip-path="url(#pd17d708f0f)" style="fill: none; stroke: #1f77b4"/>
    <path d="M 226.829088 333.36 
L 226.829088 325.206 
" clip-path="url(#pd17d708f0f)" style="fill: none; stroke: #1f77b4"/>
    <path d="M 226.829088 333.36 
L 226.829088 325.206 
" clip-path="url(#pd17d708f0f)" style="fill: none; stroke: #1f77b4"/>
    <path d="M 226.829088 333.36 
L 226.829088 325.206 
" clip-path="url(#pd17d708f0f)" style="fill: none; stroke: #1f77b4"/>
    <path d="M 226.829088 333.36 
L 226.829088 325.206 
" clip-path="url(#pd17d708f0f)" style="fill: none; stroke: #1f77b4"/>
    <path d="M 226.829088 333.36 
L 226.829088 325.206 
" clip-path="url(#pd17d708f0f)" style="fill: none; stroke: #1f77b4"/>
    <path d="M 189.765553 333.36 
L 189.765553 325.206 
" clip-path="url(#pd17d708f0f)" style="fill: none; stroke: #1f77b4"/>
    <path d="M 189.765553 333.36 
L 189.765553 325.206 
" clip-path="url(#pd17d708f0f)" style="fill: none; stroke: #1f77b4"/>
    <path d="M 189.765553 333.36 
L 189.765553 325.206 
" clip-path="url(#pd17d708f0f)" style="fill: none; stroke: #1f77b4"/>
    <path d="M 229.917715 333.36 
L 229.917715 325.206 
" clip-path="url(#pd17d708f0f)" style="fill: none; stroke: #1f77b4"/>
    <path d="M 229.917715 333.36 
L 229.917715 325.206 
" clip-path="url(#pd17d708f0f)" style="fill: none; stroke: #1f77b4"/>
    <path d="M 229.917715 333.36 
L 229.917715 325.206 
" clip-path="url(#pd17d708f0f)" style="fill: none; stroke: #1f77b4"/>
    <path d="M 300.956157 333.36 
L 300.956157 325.206 
" clip-path="url(#pd17d708f0f)" style="fill: none; stroke: #1f77b4"/>
    <path d="M 300.956157 333.36 
L 300.956157 325.206 
" clip-path="url(#pd17d708f0f)" style="fill: none; stroke: #1f77b4"/>
    <path d="M 300.956157 333.36 
L 300.956157 325.206 
" clip-path="url(#pd17d708f0f)" style="fill: none; stroke: #1f77b4"/>
    <path d="M 300.956157 333.36 
L 300.956157 325.206 
" clip-path="url(#pd17d708f0f)" style="fill: none; stroke: #1f77b4"/>
    <path d="M 300.956157 333.36 
L 300.956157 325.206 
" clip-path="url(#pd17d708f0f)" style="fill: none; stroke: #1f77b4"/>
    <path d="M 300.956157 333.36 
L 300.956157 325.206 
" clip-path="url(#pd17d708f0f)" style="fill: none; stroke: #1f77b4"/>
    <path d="M 300.956157 333.36 
L 300.956157 325.206 
" clip-path="url(#pd17d708f0f)" style="fill: none; stroke: #1f77b4"/>
    <path d="M 300.956157 333.36 
L 300.956157 325.206 
" clip-path="url(#pd17d708f0f)" style="fill: none; stroke: #1f77b4"/>
    <path d="M 300.956157 333.36 
L 300.956157 325.206 
" clip-path="url(#pd17d708f0f)" style="fill: none; stroke: #1f77b4"/>
    <path d="M 300.956157 333.36 
L 300.956157 325.206 
" clip-path="url(#pd17d708f0f)" style="fill: none; stroke: #1f77b4"/>
    <path d="M 300.956157 333.36 
L 300.956157 325.206 
" clip-path="url(#pd17d708f0f)" style="fill: none; stroke: #1f77b4"/>
    <path d="M 300.956157 333.36 
L 300.956157 325.206 
" clip-path="url(#pd17d708f0f)" style="fill: none; stroke: #1f77b4"/>
    <path d="M 300.956157 333.36 
L 300.956157 325.206 
" clip-path="url(#pd17d708f0f)" style="fill: none; stroke: #1f77b4"/>
    <path d="M 300.956157 333.36 
L 300.956157 325.206 
" clip-path="url(#pd17d708f0f)" style="fill: none; stroke: #1f77b4"/>
    <path d="M 300.956157 333.36 
L 300.956157 325.206 
" clip-path="url(#pd17d708f0f)" style="fill: none; stroke: #1f77b4"/>
    <path d="M 300.956157 333.36 
L 300.956157 325.206 
" clip-path="url(#pd17d708f0f)" style="fill: none; stroke: #1f77b4"/>
    <path d="M 338.019691 333.36 
L 338.019691 325.206 
" clip-path="url(#pd17d708f0f)" style="fill: none; stroke: #1f77b4"/>
    <path d="M 338.019691 333.36 
L 338.019691 325.206 
" clip-path="url(#pd17d708f0f)" style="fill: none; stroke: #1f77b4"/>
    <path d="M 338.019691 333.36 
L 338.019691 325.206 
" clip-path="url(#pd17d708f0f)" style="fill: none; stroke: #1f77b4"/>
    <path d="M 338.019691 333.36 
L 338.019691 325.206 
" clip-path="url(#pd17d708f0f)" style="fill: none; stroke: #1f77b4"/>
    <path d="M 338.019691 333.36 
L 338.019691 325.206 
" clip-path="url(#pd17d708f0f)" style="fill: none; stroke: #1f77b4"/>
    <path d="M 338.019691 333.36 
L 338.019691 325.206 
" clip-path="url(#pd17d708f0f)" style="fill: none; stroke: #1f77b4"/>
    <path d="M 338.019691 333.36 
L 338.019691 325.206 
" clip-path="url(#pd17d708f0f)" style="fill: none; stroke: #1f77b4"/>
    <path d="M 338.019691 333.36 
L 338.019691 325.206 
" clip-path="url(#pd17d708f0f)" style="fill: none; stroke: #1f77b4"/>
    <path d="M 254.626738 333.36 
L 254.626738 325.206 
" clip-path="url(#pd17d708f0f)" style="fill: none; stroke: #1f77b4"/>
    <path d="M 254.626738 333.36 
L 254.626738 325.206 
" clip-path="url(#pd17d708f0f)" style="fill: none; stroke: #1f77b4"/>
    <path d="M 254.626738 333.36 
L 254.626738 325.206 
" clip-path="url(#pd17d708f0f)" style="fill: none; stroke: #1f77b4"/>
    <path d="M 254.626738 333.36 
L 254.626738 325.206 
" clip-path="url(#pd17d708f0f)" style="fill: none; stroke: #1f77b4"/>
    <path d="M 254.626738 333.36 
L 254.626738 325.206 
" clip-path="url(#pd17d708f0f)" style="fill: none; stroke: #1f77b4"/>
    <path d="M 356.551458 333.36 
L 356.551458 325.206 
" clip-path="url(#pd17d708f0f)" style="fill: none; stroke: #1f77b4"/>
    <path d="M 356.551458 333.36 
L 356.551458 325.206 
" clip-path="url(#pd17d708f0f)" style="fill: none; stroke: #1f77b4"/>
    <path d="M 356.551458 333.36 
L 356.551458 325.206 
" clip-path="url(#pd17d708f0f)" style="fill: none; stroke: #1f77b4"/>
    <path d="M 356.551458 333.36 
L 356.551458 325.206 
" clip-path="url(#pd17d708f0f)" style="fill: none; stroke: #1f77b4"/>
    <path d="M 356.551458 333.36 
L 356.551458 325.206 
" clip-path="url(#pd17d708f0f)" style="fill: none; stroke: #1f77b4"/>
    <path d="M 356.551458 333.36 
L 356.551458 325.206 
" clip-path="url(#pd17d708f0f)" style="fill: none; stroke: #1f77b4"/>
    <path d="M 356.551458 333.36 
L 356.551458 325.206 
" clip-path="url(#pd17d708f0f)" style="fill: none; stroke: #1f77b4"/>
    <path d="M 356.551458 333.36 
L 356.551458 325.206 
" clip-path="url(#pd17d708f0f)" style="fill: none; stroke: #1f77b4"/>
    <path d="M 211.385948 333.36 
L 211.385948 325.206 
" clip-path="url(#pd17d708f0f)" style="fill: none; stroke: #1f77b4"/>
    <path d="M 223.74046 333.36 
L 223.74046 325.206 
" clip-path="url(#pd17d708f0f)" style="fill: none; stroke: #1f77b4"/>
    <path d="M 276.247134 333.36 
L 276.247134 325.206 
" clip-path="url(#pd17d708f0f)" style="fill: none; stroke: #1f77b4"/>
    <path d="M 276.247134 333.36 
L 276.247134 325.206 
" clip-path="url(#pd17d708f0f)" style="fill: none; stroke: #1f77b4"/>
    <path d="M 313.310668 333.36 
L 313.310668 325.206 
" clip-path="url(#pd17d708f0f)" style="fill: none; stroke: #1f77b4"/>
    <path d="M 313.310668 333.36 
L 313.310668 325.206 
" clip-path="url(#pd17d708f0f)" style="fill: none; stroke: #1f77b4"/>
    <path d="M 285.513017 333.36 
L 285.513017 325.206 
" clip-path="url(#pd17d708f0f)" style="fill: none; stroke: #1f77b4"/>
    <path d="M 257.715366 333.36 
L 257.715366 325.206 
" clip-path="url(#pd17d708f0f)" style="fill: none; stroke: #1f77b4"/>
    <path d="M 341.108319 333.36 
L 341.108319 325.206 
" clip-path="url(#pd17d708f0f)" style="fill: none; stroke: #1f77b4"/>
    <path d="M 341.108319 333.36 
L 341.108319 325.206 
" clip-path="url(#pd17d708f0f)" style="fill: none; stroke: #1f77b4"/>
    <path d="M 297.867529 333.36 
L 297.867529 325.206 
" clip-path="url(#pd17d708f0f)" style="fill: none; stroke: #1f77b4"/>
    <path d="M 297.867529 333.36 
L 297.867529 325.206 
" clip-path="url(#pd17d708f0f)" style="fill: none; stroke: #1f77b4"/>
    <path d="M 257.715366 333.36 
L 257.715366 325.206 
" clip-path="url(#pd17d708f0f)" style="fill: none; stroke: #1f77b4"/>
    <path d="M 412.14676 333.36 
L 412.14676 325.206 
" clip-path="url(#pd17d708f0f)" style="fill: none; stroke: #1f77b4"/>
    <path d="M 412.14676 333.36 
L 412.14676 325.206 
" clip-path="url(#pd17d708f0f)" style="fill: none; stroke: #1f77b4"/>
    <path d="M 356.551458 333.36 
L 356.551458 325.206 
" clip-path="url(#pd17d708f0f)" style="fill: none; stroke: #1f77b4"/>
    <path d="M 356.551458 333.36 
L 356.551458 325.206 
" clip-path="url(#pd17d708f0f)" style="fill: none; stroke: #1f77b4"/>
    <path d="M 356.551458 333.36 
L 356.551458 325.206 
" clip-path="url(#pd17d708f0f)" style="fill: none; stroke: #1f77b4"/>
    <path d="M 356.551458 333.36 
L 356.551458 325.206 
" clip-path="url(#pd17d708f0f)" style="fill: none; stroke: #1f77b4"/>
    <path d="M 356.551458 333.36 
L 356.551458 325.206 
" clip-path="url(#pd17d708f0f)" style="fill: none; stroke: #1f77b4"/>
    <path d="M 356.551458 333.36 
L 356.551458 325.206 
" clip-path="url(#pd17d708f0f)" style="fill: none; stroke: #1f77b4"/>
    <path d="M 356.551458 333.36 
L 356.551458 325.206 
" clip-path="url(#pd17d708f0f)" style="fill: none; stroke: #1f77b4"/>
    <path d="M 356.551458 333.36 
L 356.551458 325.206 
" clip-path="url(#pd17d708f0f)" style="fill: none; stroke: #1f77b4"/>
    <path d="M 356.551458 333.36 
L 356.551458 325.206 
" clip-path="url(#pd17d708f0f)" style="fill: none; stroke: #1f77b4"/>
    <path d="M 356.551458 333.36 
L 356.551458 325.206 
" clip-path="url(#pd17d708f0f)" style="fill: none; stroke: #1f77b4"/>
    <path d="M 356.551458 333.36 
L 356.551458 325.206 
" clip-path="url(#pd17d708f0f)" style="fill: none; stroke: #1f77b4"/>
    <path d="M 356.551458 333.36 
L 356.551458 325.206 
" clip-path="url(#pd17d708f0f)" style="fill: none; stroke: #1f77b4"/>
    <path d="M 356.551458 333.36 
L 356.551458 325.206 
" clip-path="url(#pd17d708f0f)" style="fill: none; stroke: #1f77b4"/>
    <path d="M 356.551458 333.36 
L 356.551458 325.206 
" clip-path="url(#pd17d708f0f)" style="fill: none; stroke: #1f77b4"/>
    <path d="M 356.551458 333.36 
L 356.551458 325.206 
" clip-path="url(#pd17d708f0f)" style="fill: none; stroke: #1f77b4"/>
    <path d="M 356.551458 333.36 
L 356.551458 325.206 
" clip-path="url(#pd17d708f0f)" style="fill: none; stroke: #1f77b4"/>
    <path d="M 356.551458 333.36 
L 356.551458 325.206 
" clip-path="url(#pd17d708f0f)" style="fill: none; stroke: #1f77b4"/>
    <path d="M 356.551458 333.36 
L 356.551458 325.206 
" clip-path="url(#pd17d708f0f)" style="fill: none; stroke: #1f77b4"/>
    <path d="M 356.551458 333.36 
L 356.551458 325.206 
" clip-path="url(#pd17d708f0f)" style="fill: none; stroke: #1f77b4"/>
    <path d="M 356.551458 333.36 
L 356.551458 325.206 
" clip-path="url(#pd17d708f0f)" style="fill: none; stroke: #1f77b4"/>
    <path d="M 356.551458 333.36 
L 356.551458 325.206 
" clip-path="url(#pd17d708f0f)" style="fill: none; stroke: #1f77b4"/>
    <path d="M 356.551458 333.36 
L 356.551458 325.206 
" clip-path="url(#pd17d708f0f)" style="fill: none; stroke: #1f77b4"/>
    <path d="M 356.551458 333.36 
L 356.551458 325.206 
" clip-path="url(#pd17d708f0f)" style="fill: none; stroke: #1f77b4"/>
    <path d="M 356.551458 333.36 
L 356.551458 325.206 
" clip-path="url(#pd17d708f0f)" style="fill: none; stroke: #1f77b4"/>
    <path d="M 356.551458 333.36 
L 356.551458 325.206 
" clip-path="url(#pd17d708f0f)" style="fill: none; stroke: #1f77b4"/>
    <path d="M 356.551458 333.36 
L 356.551458 325.206 
" clip-path="url(#pd17d708f0f)" style="fill: none; stroke: #1f77b4"/>
    <path d="M 356.551458 333.36 
L 356.551458 325.206 
" clip-path="url(#pd17d708f0f)" style="fill: none; stroke: #1f77b4"/>
    <path d="M 356.551458 333.36 
L 356.551458 325.206 
" clip-path="url(#pd17d708f0f)" style="fill: none; stroke: #1f77b4"/>
    <path d="M 356.551458 333.36 
L 356.551458 325.206 
" clip-path="url(#pd17d708f0f)" style="fill: none; stroke: #1f77b4"/>
    <path d="M 356.551458 333.36 
L 356.551458 325.206 
" clip-path="url(#pd17d708f0f)" style="fill: none; stroke: #1f77b4"/>
    <path d="M 356.551458 333.36 
L 356.551458 325.206 
" clip-path="url(#pd17d708f0f)" style="fill: none; stroke: #1f77b4"/>
    <path d="M 356.551458 333.36 
L 356.551458 325.206 
" clip-path="url(#pd17d708f0f)" style="fill: none; stroke: #1f77b4"/>
    <path d="M 356.551458 333.36 
L 356.551458 325.206 
" clip-path="url(#pd17d708f0f)" style="fill: none; stroke: #1f77b4"/>
    <path d="M 356.551458 333.36 
L 356.551458 325.206 
" clip-path="url(#pd17d708f0f)" style="fill: none; stroke: #1f77b4"/>
    <path d="M 356.551458 333.36 
L 356.551458 325.206 
" clip-path="url(#pd17d708f0f)" style="fill: none; stroke: #1f77b4"/>
    <path d="M 356.551458 333.36 
L 356.551458 325.206 
" clip-path="url(#pd17d708f0f)" style="fill: none; stroke: #1f77b4"/>
    <path d="M 356.551458 333.36 
L 356.551458 325.206 
" clip-path="url(#pd17d708f0f)" style="fill: none; stroke: #1f77b4"/>
    <path d="M 356.551458 333.36 
L 356.551458 325.206 
" clip-path="url(#pd17d708f0f)" style="fill: none; stroke: #1f77b4"/>
    <path d="M 356.551458 333.36 
L 356.551458 325.206 
" clip-path="url(#pd17d708f0f)" style="fill: none; stroke: #1f77b4"/>
    <path d="M 356.551458 333.36 
L 356.551458 325.206 
" clip-path="url(#pd17d708f0f)" style="fill: none; stroke: #1f77b4"/>
    <path d="M 356.551458 333.36 
L 356.551458 325.206 
" clip-path="url(#pd17d708f0f)" style="fill: none; stroke: #1f77b4"/>
    <path d="M 356.551458 333.36 
L 356.551458 325.206 
" clip-path="url(#pd17d708f0f)" style="fill: none; stroke: #1f77b4"/>
    <path d="M 356.551458 333.36 
L 356.551458 325.206 
" clip-path="url(#pd17d708f0f)" style="fill: none; stroke: #1f77b4"/>
    <path d="M 356.551458 333.36 
L 356.551458 325.206 
" clip-path="url(#pd17d708f0f)" style="fill: none; stroke: #1f77b4"/>
    <path d="M 356.551458 333.36 
L 356.551458 325.206 
" clip-path="url(#pd17d708f0f)" style="fill: none; stroke: #1f77b4"/>
    <path d="M 356.551458 333.36 
L 356.551458 325.206 
" clip-path="url(#pd17d708f0f)" style="fill: none; stroke: #1f77b4"/>
    <path d="M 356.551458 333.36 
L 356.551458 325.206 
" clip-path="url(#pd17d708f0f)" style="fill: none; stroke: #1f77b4"/>
    <path d="M 356.551458 333.36 
L 356.551458 325.206 
" clip-path="url(#pd17d708f0f)" style="fill: none; stroke: #1f77b4"/>
    <path d="M 356.551458 333.36 
L 356.551458 325.206 
" clip-path="url(#pd17d708f0f)" style="fill: none; stroke: #1f77b4"/>
    <path d="M 356.551458 333.36 
L 356.551458 325.206 
" clip-path="url(#pd17d708f0f)" style="fill: none; stroke: #1f77b4"/>
    <path d="M 356.551458 333.36 
L 356.551458 325.206 
" clip-path="url(#pd17d708f0f)" style="fill: none; stroke: #1f77b4"/>
    <path d="M 356.551458 333.36 
L 356.551458 325.206 
" clip-path="url(#pd17d708f0f)" style="fill: none; stroke: #1f77b4"/>
    <path d="M 356.551458 333.36 
L 356.551458 325.206 
" clip-path="url(#pd17d708f0f)" style="fill: none; stroke: #1f77b4"/>
    <path d="M 356.551458 333.36 
L 356.551458 325.206 
" clip-path="url(#pd17d708f0f)" style="fill: none; stroke: #1f77b4"/>
    <path d="M 356.551458 333.36 
L 356.551458 325.206 
" clip-path="url(#pd17d708f0f)" style="fill: none; stroke: #1f77b4"/>
    <path d="M 356.551458 333.36 
L 356.551458 325.206 
" clip-path="url(#pd17d708f0f)" style="fill: none; stroke: #1f77b4"/>
    <path d="M 356.551458 333.36 
L 356.551458 325.206 
" clip-path="url(#pd17d708f0f)" style="fill: none; stroke: #1f77b4"/>
    <path d="M 356.551458 333.36 
L 356.551458 325.206 
" clip-path="url(#pd17d708f0f)" style="fill: none; stroke: #1f77b4"/>
    <path d="M 356.551458 333.36 
L 356.551458 325.206 
" clip-path="url(#pd17d708f0f)" style="fill: none; stroke: #1f77b4"/>
    <path d="M 356.551458 333.36 
L 356.551458 325.206 
" clip-path="url(#pd17d708f0f)" style="fill: none; stroke: #1f77b4"/>
    <path d="M 356.551458 333.36 
L 356.551458 325.206 
" clip-path="url(#pd17d708f0f)" style="fill: none; stroke: #1f77b4"/>
    <path d="M 356.551458 333.36 
L 356.551458 325.206 
" clip-path="url(#pd17d708f0f)" style="fill: none; stroke: #1f77b4"/>
    <path d="M 356.551458 333.36 
L 356.551458 325.206 
" clip-path="url(#pd17d708f0f)" style="fill: none; stroke: #1f77b4"/>
    <path d="M 356.551458 333.36 
L 356.551458 325.206 
" clip-path="url(#pd17d708f0f)" style="fill: none; stroke: #1f77b4"/>
    <path d="M 356.551458 333.36 
L 356.551458 325.206 
" clip-path="url(#pd17d708f0f)" style="fill: none; stroke: #1f77b4"/>
    <path d="M 356.551458 333.36 
L 356.551458 325.206 
" clip-path="url(#pd17d708f0f)" style="fill: none; stroke: #1f77b4"/>
    <path d="M 356.551458 333.36 
L 356.551458 325.206 
" clip-path="url(#pd17d708f0f)" style="fill: none; stroke: #1f77b4"/>
    <path d="M 356.551458 333.36 
L 356.551458 325.206 
" clip-path="url(#pd17d708f0f)" style="fill: none; stroke: #1f77b4"/>
    <path d="M 356.551458 333.36 
L 356.551458 325.206 
" clip-path="url(#pd17d708f0f)" style="fill: none; stroke: #1f77b4"/>
    <path d="M 356.551458 333.36 
L 356.551458 325.206 
" clip-path="url(#pd17d708f0f)" style="fill: none; stroke: #1f77b4"/>
    <path d="M 356.551458 333.36 
L 356.551458 325.206 
" clip-path="url(#pd17d708f0f)" style="fill: none; stroke: #1f77b4"/>
    <path d="M 356.551458 333.36 
L 356.551458 325.206 
" clip-path="url(#pd17d708f0f)" style="fill: none; stroke: #1f77b4"/>
    <path d="M 356.551458 333.36 
L 356.551458 325.206 
" clip-path="url(#pd17d708f0f)" style="fill: none; stroke: #1f77b4"/>
    <path d="M 356.551458 333.36 
L 356.551458 325.206 
" clip-path="url(#pd17d708f0f)" style="fill: none; stroke: #1f77b4"/>
    <path d="M 356.551458 333.36 
L 356.551458 325.206 
" clip-path="url(#pd17d708f0f)" style="fill: none; stroke: #1f77b4"/>
    <path d="M 356.551458 333.36 
L 356.551458 325.206 
" clip-path="url(#pd17d708f0f)" style="fill: none; stroke: #1f77b4"/>
    <path d="M 356.551458 333.36 
L 356.551458 325.206 
" clip-path="url(#pd17d708f0f)" style="fill: none; stroke: #1f77b4"/>
    <path d="M 356.551458 333.36 
L 356.551458 325.206 
" clip-path="url(#pd17d708f0f)" style="fill: none; stroke: #1f77b4"/>
    <path d="M 356.551458 333.36 
L 356.551458 325.206 
" clip-path="url(#pd17d708f0f)" style="fill: none; stroke: #1f77b4"/>
    <path d="M 356.551458 333.36 
L 356.551458 325.206 
" clip-path="url(#pd17d708f0f)" style="fill: none; stroke: #1f77b4"/>
    <path d="M 356.551458 333.36 
L 356.551458 325.206 
" clip-path="url(#pd17d708f0f)" style="fill: none; stroke: #1f77b4"/>
    <path d="M 356.551458 333.36 
L 356.551458 325.206 
" clip-path="url(#pd17d708f0f)" style="fill: none; stroke: #1f77b4"/>
    <path d="M 356.551458 333.36 
L 356.551458 325.206 
" clip-path="url(#pd17d708f0f)" style="fill: none; stroke: #1f77b4"/>
    <path d="M 356.551458 333.36 
L 356.551458 325.206 
" clip-path="url(#pd17d708f0f)" style="fill: none; stroke: #1f77b4"/>
    <path d="M 356.551458 333.36 
L 356.551458 325.206 
" clip-path="url(#pd17d708f0f)" style="fill: none; stroke: #1f77b4"/>
    <path d="M 356.551458 333.36 
L 356.551458 325.206 
" clip-path="url(#pd17d708f0f)" style="fill: none; stroke: #1f77b4"/>
    <path d="M 356.551458 333.36 
L 356.551458 325.206 
" clip-path="url(#pd17d708f0f)" style="fill: none; stroke: #1f77b4"/>
    <path d="M 356.551458 333.36 
L 356.551458 325.206 
" clip-path="url(#pd17d708f0f)" style="fill: none; stroke: #1f77b4"/>
    <path d="M 356.551458 333.36 
L 356.551458 325.206 
" clip-path="url(#pd17d708f0f)" style="fill: none; stroke: #1f77b4"/>
    <path d="M 356.551458 333.36 
L 356.551458 325.206 
" clip-path="url(#pd17d708f0f)" style="fill: none; stroke: #1f77b4"/>
    <path d="M 356.551458 333.36 
L 356.551458 325.206 
" clip-path="url(#pd17d708f0f)" style="fill: none; stroke: #1f77b4"/>
    <path d="M 356.551458 333.36 
L 356.551458 325.206 
" clip-path="url(#pd17d708f0f)" style="fill: none; stroke: #1f77b4"/>
    <path d="M 356.551458 333.36 
L 356.551458 325.206 
" clip-path="url(#pd17d708f0f)" style="fill: none; stroke: #1f77b4"/>
    <path d="M 356.551458 333.36 
L 356.551458 325.206 
" clip-path="url(#pd17d708f0f)" style="fill: none; stroke: #1f77b4"/>
    <path d="M 356.551458 333.36 
L 356.551458 325.206 
" clip-path="url(#pd17d708f0f)" style="fill: none; stroke: #1f77b4"/>
    <path d="M 356.551458 333.36 
L 356.551458 325.206 
" clip-path="url(#pd17d708f0f)" style="fill: none; stroke: #1f77b4"/>
    <path d="M 356.551458 333.36 
L 356.551458 325.206 
" clip-path="url(#pd17d708f0f)" style="fill: none; stroke: #1f77b4"/>
    <path d="M 356.551458 333.36 
L 356.551458 325.206 
" clip-path="url(#pd17d708f0f)" style="fill: none; stroke: #1f77b4"/>
    <path d="M 356.551458 333.36 
L 356.551458 325.206 
" clip-path="url(#pd17d708f0f)" style="fill: none; stroke: #1f77b4"/>
    <path d="M 356.551458 333.36 
L 356.551458 325.206 
" clip-path="url(#pd17d708f0f)" style="fill: none; stroke: #1f77b4"/>
    <path d="M 356.551458 333.36 
L 356.551458 325.206 
" clip-path="url(#pd17d708f0f)" style="fill: none; stroke: #1f77b4"/>
    <path d="M 356.551458 333.36 
L 356.551458 325.206 
" clip-path="url(#pd17d708f0f)" style="fill: none; stroke: #1f77b4"/>
    <path d="M 356.551458 333.36 
L 356.551458 325.206 
" clip-path="url(#pd17d708f0f)" style="fill: none; stroke: #1f77b4"/>
    <path d="M 356.551458 333.36 
L 356.551458 325.206 
" clip-path="url(#pd17d708f0f)" style="fill: none; stroke: #1f77b4"/>
    <path d="M 356.551458 333.36 
L 356.551458 325.206 
" clip-path="url(#pd17d708f0f)" style="fill: none; stroke: #1f77b4"/>
    <path d="M 356.551458 333.36 
L 356.551458 325.206 
" clip-path="url(#pd17d708f0f)" style="fill: none; stroke: #1f77b4"/>
    <path d="M 356.551458 333.36 
L 356.551458 325.206 
" clip-path="url(#pd17d708f0f)" style="fill: none; stroke: #1f77b4"/>
    <path d="M 356.551458 333.36 
L 356.551458 325.206 
" clip-path="url(#pd17d708f0f)" style="fill: none; stroke: #1f77b4"/>
    <path d="M 356.551458 333.36 
L 356.551458 325.206 
" clip-path="url(#pd17d708f0f)" style="fill: none; stroke: #1f77b4"/>
    <path d="M 356.551458 333.36 
L 356.551458 325.206 
" clip-path="url(#pd17d708f0f)" style="fill: none; stroke: #1f77b4"/>
    <path d="M 356.551458 333.36 
L 356.551458 325.206 
" clip-path="url(#pd17d708f0f)" style="fill: none; stroke: #1f77b4"/>
    <path d="M 356.551458 333.36 
L 356.551458 325.206 
" clip-path="url(#pd17d708f0f)" style="fill: none; stroke: #1f77b4"/>
    <path d="M 356.551458 333.36 
L 356.551458 325.206 
" clip-path="url(#pd17d708f0f)" style="fill: none; stroke: #1f77b4"/>
    <path d="M 356.551458 333.36 
L 356.551458 325.206 
" clip-path="url(#pd17d708f0f)" style="fill: none; stroke: #1f77b4"/>
    <path d="M 356.551458 333.36 
L 356.551458 325.206 
" clip-path="url(#pd17d708f0f)" style="fill: none; stroke: #1f77b4"/>
    <path d="M 356.551458 333.36 
L 356.551458 325.206 
" clip-path="url(#pd17d708f0f)" style="fill: none; stroke: #1f77b4"/>
    <path d="M 356.551458 333.36 
L 356.551458 325.206 
" clip-path="url(#pd17d708f0f)" style="fill: none; stroke: #1f77b4"/>
    <path d="M 356.551458 333.36 
L 356.551458 325.206 
" clip-path="url(#pd17d708f0f)" style="fill: none; stroke: #1f77b4"/>
    <path d="M 356.551458 333.36 
L 356.551458 325.206 
" clip-path="url(#pd17d708f0f)" style="fill: none; stroke: #1f77b4"/>
    <path d="M 356.551458 333.36 
L 356.551458 325.206 
" clip-path="url(#pd17d708f0f)" style="fill: none; stroke: #1f77b4"/>
    <path d="M 356.551458 333.36 
L 356.551458 325.206 
" clip-path="url(#pd17d708f0f)" style="fill: none; stroke: #1f77b4"/>
    <path d="M 356.551458 333.36 
L 356.551458 325.206 
" clip-path="url(#pd17d708f0f)" style="fill: none; stroke: #1f77b4"/>
    <path d="M 356.551458 333.36 
L 356.551458 325.206 
" clip-path="url(#pd17d708f0f)" style="fill: none; stroke: #1f77b4"/>
    <path d="M 356.551458 333.36 
L 356.551458 325.206 
" clip-path="url(#pd17d708f0f)" style="fill: none; stroke: #1f77b4"/>
    <path d="M 356.551458 333.36 
L 356.551458 325.206 
" clip-path="url(#pd17d708f0f)" style="fill: none; stroke: #1f77b4"/>
    <path d="M 356.551458 333.36 
L 356.551458 325.206 
" clip-path="url(#pd17d708f0f)" style="fill: none; stroke: #1f77b4"/>
    <path d="M 356.551458 333.36 
L 356.551458 325.206 
" clip-path="url(#pd17d708f0f)" style="fill: none; stroke: #1f77b4"/>
    <path d="M 356.551458 333.36 
L 356.551458 325.206 
" clip-path="url(#pd17d708f0f)" style="fill: none; stroke: #1f77b4"/>
    <path d="M 356.551458 333.36 
L 356.551458 325.206 
" clip-path="url(#pd17d708f0f)" style="fill: none; stroke: #1f77b4"/>
    <path d="M 356.551458 333.36 
L 356.551458 325.206 
" clip-path="url(#pd17d708f0f)" style="fill: none; stroke: #1f77b4"/>
    <path d="M 356.551458 333.36 
L 356.551458 325.206 
" clip-path="url(#pd17d708f0f)" style="fill: none; stroke: #1f77b4"/>
    <path d="M 356.551458 333.36 
L 356.551458 325.206 
" clip-path="url(#pd17d708f0f)" style="fill: none; stroke: #1f77b4"/>
    <path d="M 353.462831 333.36 
L 353.462831 325.206 
" clip-path="url(#pd17d708f0f)" style="fill: none; stroke: #1f77b4"/>
    <path d="M 353.462831 333.36 
L 353.462831 325.206 
" clip-path="url(#pd17d708f0f)" style="fill: none; stroke: #1f77b4"/>
    <path d="M 353.462831 333.36 
L 353.462831 325.206 
" clip-path="url(#pd17d708f0f)" style="fill: none; stroke: #1f77b4"/>
    <path d="M 353.462831 333.36 
L 353.462831 325.206 
" clip-path="url(#pd17d708f0f)" style="fill: none; stroke: #1f77b4"/>
    <path d="M 353.462831 333.36 
L 353.462831 325.206 
" clip-path="url(#pd17d708f0f)" style="fill: none; stroke: #1f77b4"/>
    <path d="M 325.66518 333.36 
L 325.66518 325.206 
" clip-path="url(#pd17d708f0f)" style="fill: none; stroke: #1f77b4"/>
    <path d="M 325.66518 333.36 
L 325.66518 325.206 
" clip-path="url(#pd17d708f0f)" style="fill: none; stroke: #1f77b4"/>
    <path d="M 325.66518 333.36 
L 325.66518 325.206 
" clip-path="url(#pd17d708f0f)" style="fill: none; stroke: #1f77b4"/>
    <path d="M 325.66518 333.36 
L 325.66518 325.206 
" clip-path="url(#pd17d708f0f)" style="fill: none; stroke: #1f77b4"/>
    <path d="M 325.66518 333.36 
L 325.66518 325.206 
" clip-path="url(#pd17d708f0f)" style="fill: none; stroke: #1f77b4"/>
    <path d="M 325.66518 333.36 
L 325.66518 325.206 
" clip-path="url(#pd17d708f0f)" style="fill: none; stroke: #1f77b4"/>
    <path d="M 325.66518 333.36 
L 325.66518 325.206 
" clip-path="url(#pd17d708f0f)" style="fill: none; stroke: #1f77b4"/>
    <path d="M 325.66518 333.36 
L 325.66518 325.206 
" clip-path="url(#pd17d708f0f)" style="fill: none; stroke: #1f77b4"/>
    <path d="M 381.260481 333.36 
L 381.260481 325.206 
" clip-path="url(#pd17d708f0f)" style="fill: none; stroke: #1f77b4"/>
    <path d="M 381.260481 333.36 
L 381.260481 325.206 
" clip-path="url(#pd17d708f0f)" style="fill: none; stroke: #1f77b4"/>
    <path d="M 381.260481 333.36 
L 381.260481 325.206 
" clip-path="url(#pd17d708f0f)" style="fill: none; stroke: #1f77b4"/>
    <path d="M 381.260481 333.36 
L 381.260481 325.206 
" clip-path="url(#pd17d708f0f)" style="fill: none; stroke: #1f77b4"/>
    <path d="M 381.260481 333.36 
L 381.260481 325.206 
" clip-path="url(#pd17d708f0f)" style="fill: none; stroke: #1f77b4"/>
   </g>
   <g id="patch_17">
    <path d="M 43.78125 333.36 
L 43.78125 7.2 
" style="fill: none; stroke: #000000; stroke-width: 0.8; stroke-linejoin: miter; stroke-linecap: square"/>
   </g>
   <g id="patch_18">
    <path d="M 490.18125 333.36 
L 490.18125 7.2 
" style="fill: none; stroke: #000000; stroke-width: 0.8; stroke-linejoin: miter; stroke-linecap: square"/>
   </g>
   <g id="patch_19">
    <path d="M 43.78125 333.36 
L 490.18125 333.36 
" style="fill: none; stroke: #000000; stroke-width: 0.8; stroke-linejoin: miter; stroke-linecap: square"/>
   </g>
   <g id="patch_20">
    <path d="M 43.78125 7.2 
L 490.18125 7.2 
" style="fill: none; stroke: #000000; stroke-width: 0.8; stroke-linejoin: miter; stroke-linecap: square"/>
   </g>
  </g>
 </g>
 <defs>
  <clipPath id="pd17d708f0f">
   <rect x="43.78125" y="7.2" width="446.4" height="326.16"/>
  </clipPath>
 </defs>
</svg>
