<?xml version="1.0" encoding="utf-8" standalone="no"?>
<!DOCTYPE svg PUBLIC "-//W3C//DTD SVG 1.1//EN"
  "http://www.w3.org/Graphics/SVG/1.1/DTD/svg11.dtd">
<svg xmlns:xlink="http://www.w3.org/1999/xlink" width="503.74375pt" height="370.91625pt" viewBox="0 0 503.74375 370.91625" xmlns="http://www.w3.org/2000/svg" version="1.1">
 <metadata>
  <rdf:RDF xmlns:dc="http://purl.org/dc/elements/1.1/" xmlns:cc="http://creativecommons.org/ns#" xmlns:rdf="http://www.w3.org/1999/02/22-rdf-syntax-ns#">
   <cc:Work>
    <dc:type rdf:resource="http://purl.org/dc/dcmitype/StillImage"/>
    <dc:date>2022-02-06T14:46:53.455936</dc:date>
    <dc:format>image/svg+xml</dc:format>
    <dc:creator>
     <cc:Agent>
      <dc:title>Matplotlib v3.5.0, https://matplotlib.org/</dc:title>
     </cc:Agent>
    </dc:creator>
   </cc:Work>
  </rdf:RDF>
 </metadata>
 <defs>
  <style type="text/css">*{stroke-linejoin: round; stroke-linecap: butt}</style>
 </defs>
 <g id="figure_1">
  <g id="patch_1">
   <path d="M 0 370.91625 
L 503.74375 370.91625 
L 503.74375 0 
L 0 0 
L 0 370.91625 
z
" style="fill: none"/>
  </g>
  <g id="axes_1">
   <g id="patch_2">
    <path d="M 50.14375 333.36 
L 496.54375 333.36 
L 496.54375 7.2 
L 50.14375 7.2 
z
" style="fill: #ffffff"/>
   </g>
   <g id="patch_3">
    <path d="M 150.654445 333.36 
L 199.730167 333.36 
L 199.730167 36.850909 
L 150.654445 36.850909 
z
" clip-path="url(#p0f3e218a20)" style="fill: #1f77b4; opacity: 0.4"/>
   </g>
   <g id="patch_4">
    <path d="M 199.730167 333.36 
L 248.805889 333.36 
L 248.805889 268.649547 
L 199.730167 268.649547 
z
" clip-path="url(#p0f3e218a20)" style="fill: #1f77b4; opacity: 0.4"/>
   </g>
   <g id="patch_5">
    <path d="M 248.805889 333.36 
L 297.881611 333.36 
L 297.881611 333.36 
L 248.805889 333.36 
z
" clip-path="url(#p0f3e218a20)" style="fill: #1f77b4; opacity: 0.4"/>
   </g>
   <g id="patch_6">
    <path d="M 297.881611 333.36 
L 346.957333 333.36 
L 346.957333 333.36 
L 297.881611 333.36 
z
" clip-path="url(#p0f3e218a20)" style="fill: #1f77b4; opacity: 0.4"/>
   </g>
   <g id="patch_7">
    <path d="M 346.957333 333.36 
L 396.033055 333.36 
L 396.033055 205.870749 
L 346.957333 205.870749 
z
" clip-path="url(#p0f3e218a20)" style="fill: #1f77b4; opacity: 0.4"/>
   </g>
   <g id="matplotlib.axis_1">
    <g id="xtick_1">
     <g id="line2d_1">
      <defs>
       <path id="m708e505a7b" d="M 0 0 
L 0 3.5 
" style="stroke: #000000; stroke-width: 0.8"/>
      </defs>
      <g>
       <use xlink:href="#m708e505a7b" x="86.642634" y="333.36" style="stroke: #000000; stroke-width: 0.8"/>
      </g>
     </g>
     <g id="text_1">
      <!-- −5 -->
      <g transform="translate(79.27154 347.958438)scale(0.1 -0.1)">
       <defs>
        <path id="DejaVuSans-2212" d="M 678 2272 
L 4684 2272 
L 4684 1741 
L 678 1741 
L 678 2272 
z
" transform="scale(0.015625)"/>
        <path id="DejaVuSans-35" d="M 691 4666 
L 3169 4666 
L 3169 4134 
L 1269 4134 
L 1269 2991 
Q 1406 3038 1543 3061 
Q 1681 3084 1819 3084 
Q 2600 3084 3056 2656 
Q 3513 2228 3513 1497 
Q 3513 744 3044 326 
Q 2575 -91 1722 -91 
Q 1428 -91 1123 -41 
Q 819 9 494 109 
L 494 744 
Q 775 591 1075 516 
Q 1375 441 1709 441 
Q 2250 441 2565 725 
Q 2881 1009 2881 1497 
Q 2881 1984 2565 2268 
Q 2250 2553 1709 2553 
Q 1456 2553 1204 2497 
Q 953 2441 691 2322 
L 691 4666 
z
" transform="scale(0.015625)"/>
       </defs>
       <use xlink:href="#DejaVuSans-2212"/>
       <use xlink:href="#DejaVuSans-35" x="83.789062"/>
      </g>
     </g>
    </g>
    <g id="xtick_2">
     <g id="line2d_2">
      <g>
       <use xlink:href="#m708e505a7b" x="139.98581" y="333.36" style="stroke: #000000; stroke-width: 0.8"/>
      </g>
     </g>
     <g id="text_2">
      <!-- 0 -->
      <g transform="translate(136.80456 347.958438)scale(0.1 -0.1)">
       <defs>
        <path id="DejaVuSans-30" d="M 2034 4250 
Q 1547 4250 1301 3770 
Q 1056 3291 1056 2328 
Q 1056 1369 1301 889 
Q 1547 409 2034 409 
Q 2525 409 2770 889 
Q 3016 1369 3016 2328 
Q 3016 3291 2770 3770 
Q 2525 4250 2034 4250 
z
M 2034 4750 
Q 2819 4750 3233 4129 
Q 3647 3509 3647 2328 
Q 3647 1150 3233 529 
Q 2819 -91 2034 -91 
Q 1250 -91 836 529 
Q 422 1150 422 2328 
Q 422 3509 836 4129 
Q 1250 4750 2034 4750 
z
" transform="scale(0.015625)"/>
       </defs>
       <use xlink:href="#DejaVuSans-30"/>
      </g>
     </g>
    </g>
    <g id="xtick_3">
     <g id="line2d_3">
      <g>
       <use xlink:href="#m708e505a7b" x="193.328986" y="333.36" style="stroke: #000000; stroke-width: 0.8"/>
      </g>
     </g>
     <g id="text_3">
      <!-- 5 -->
      <g transform="translate(190.147736 347.958438)scale(0.1 -0.1)">
       <use xlink:href="#DejaVuSans-35"/>
      </g>
     </g>
    </g>
    <g id="xtick_4">
     <g id="line2d_4">
      <g>
       <use xlink:href="#m708e505a7b" x="246.672162" y="333.36" style="stroke: #000000; stroke-width: 0.8"/>
      </g>
     </g>
     <g id="text_4">
      <!-- 10 -->
      <g transform="translate(240.309662 347.958438)scale(0.1 -0.1)">
       <defs>
        <path id="DejaVuSans-31" d="M 794 531 
L 1825 531 
L 1825 4091 
L 703 3866 
L 703 4441 
L 1819 4666 
L 2450 4666 
L 2450 531 
L 3481 531 
L 3481 0 
L 794 0 
L 794 531 
z
" transform="scale(0.015625)"/>
       </defs>
       <use xlink:href="#DejaVuSans-31"/>
       <use xlink:href="#DejaVuSans-30" x="63.623047"/>
      </g>
     </g>
    </g>
    <g id="xtick_5">
     <g id="line2d_5">
      <g>
       <use xlink:href="#m708e505a7b" x="300.015338" y="333.36" style="stroke: #000000; stroke-width: 0.8"/>
      </g>
     </g>
     <g id="text_5">
      <!-- 15 -->
      <g transform="translate(293.652838 347.958438)scale(0.1 -0.1)">
       <use xlink:href="#DejaVuSans-31"/>
       <use xlink:href="#DejaVuSans-35" x="63.623047"/>
      </g>
     </g>
    </g>
    <g id="xtick_6">
     <g id="line2d_6">
      <g>
       <use xlink:href="#m708e505a7b" x="353.358514" y="333.36" style="stroke: #000000; stroke-width: 0.8"/>
      </g>
     </g>
     <g id="text_6">
      <!-- 20 -->
      <g transform="translate(346.996014 347.958438)scale(0.1 -0.1)">
       <defs>
        <path id="DejaVuSans-32" d="M 1228 531 
L 3431 531 
L 3431 0 
L 469 0 
L 469 531 
Q 828 903 1448 1529 
Q 2069 2156 2228 2338 
Q 2531 2678 2651 2914 
Q 2772 3150 2772 3378 
Q 2772 3750 2511 3984 
Q 2250 4219 1831 4219 
Q 1534 4219 1204 4116 
Q 875 4013 500 3803 
L 500 4441 
Q 881 4594 1212 4672 
Q 1544 4750 1819 4750 
Q 2544 4750 2975 4387 
Q 3406 4025 3406 3419 
Q 3406 3131 3298 2873 
Q 3191 2616 2906 2266 
Q 2828 2175 2409 1742 
Q 1991 1309 1228 531 
z
" transform="scale(0.015625)"/>
       </defs>
       <use xlink:href="#DejaVuSans-32"/>
       <use xlink:href="#DejaVuSans-30" x="63.623047"/>
      </g>
     </g>
    </g>
    <g id="xtick_7">
     <g id="line2d_7">
      <g>
       <use xlink:href="#m708e505a7b" x="406.70169" y="333.36" style="stroke: #000000; stroke-width: 0.8"/>
      </g>
     </g>
     <g id="text_7">
      <!-- 25 -->
      <g transform="translate(400.33919 347.958438)scale(0.1 -0.1)">
       <use xlink:href="#DejaVuSans-32"/>
       <use xlink:href="#DejaVuSans-35" x="63.623047"/>
      </g>
     </g>
    </g>
    <g id="xtick_8">
     <g id="line2d_8">
      <g>
       <use xlink:href="#m708e505a7b" x="460.044866" y="333.36" style="stroke: #000000; stroke-width: 0.8"/>
      </g>
     </g>
     <g id="text_8">
      <!-- 30 -->
      <g transform="translate(453.682366 347.958438)scale(0.1 -0.1)">
       <defs>
        <path id="DejaVuSans-33" d="M 2597 2516 
Q 3050 2419 3304 2112 
Q 3559 1806 3559 1356 
Q 3559 666 3084 287 
Q 2609 -91 1734 -91 
Q 1441 -91 1130 -33 
Q 819 25 488 141 
L 488 750 
Q 750 597 1062 519 
Q 1375 441 1716 441 
Q 2309 441 2620 675 
Q 2931 909 2931 1356 
Q 2931 1769 2642 2001 
Q 2353 2234 1838 2234 
L 1294 2234 
L 1294 2753 
L 1863 2753 
Q 2328 2753 2575 2939 
Q 2822 3125 2822 3475 
Q 2822 3834 2567 4026 
Q 2313 4219 1838 4219 
Q 1578 4219 1281 4162 
Q 984 4106 628 3988 
L 628 4550 
Q 988 4650 1302 4700 
Q 1616 4750 1894 4750 
Q 2613 4750 3031 4423 
Q 3450 4097 3450 3541 
Q 3450 3153 3228 2886 
Q 3006 2619 2597 2516 
z
" transform="scale(0.015625)"/>
       </defs>
       <use xlink:href="#DejaVuSans-33"/>
       <use xlink:href="#DejaVuSans-30" x="63.623047"/>
      </g>
     </g>
    </g>
    <g id="text_9">
     <!-- RAD -->
     <g transform="translate(262.799219 361.636562)scale(0.1 -0.1)">
      <defs>
       <path id="DejaVuSans-52" d="M 2841 2188 
Q 3044 2119 3236 1894 
Q 3428 1669 3622 1275 
L 4263 0 
L 3584 0 
L 2988 1197 
Q 2756 1666 2539 1819 
Q 2322 1972 1947 1972 
L 1259 1972 
L 1259 0 
L 628 0 
L 628 4666 
L 2053 4666 
Q 2853 4666 3247 4331 
Q 3641 3997 3641 3322 
Q 3641 2881 3436 2590 
Q 3231 2300 2841 2188 
z
M 1259 4147 
L 1259 2491 
L 2053 2491 
Q 2509 2491 2742 2702 
Q 2975 2913 2975 3322 
Q 2975 3731 2742 3939 
Q 2509 4147 2053 4147 
L 1259 4147 
z
" transform="scale(0.015625)"/>
       <path id="DejaVuSans-41" d="M 2188 4044 
L 1331 1722 
L 3047 1722 
L 2188 4044 
z
M 1831 4666 
L 2547 4666 
L 4325 0 
L 3669 0 
L 3244 1197 
L 1141 1197 
L 716 0 
L 50 0 
L 1831 4666 
z
" transform="scale(0.015625)"/>
       <path id="DejaVuSans-44" d="M 1259 4147 
L 1259 519 
L 2022 519 
Q 2988 519 3436 956 
Q 3884 1394 3884 2338 
Q 3884 3275 3436 3711 
Q 2988 4147 2022 4147 
L 1259 4147 
z
M 628 4666 
L 1925 4666 
Q 3281 4666 3915 4102 
Q 4550 3538 4550 2338 
Q 4550 1131 3912 565 
Q 3275 0 1925 0 
L 628 0 
L 628 4666 
z
" transform="scale(0.015625)"/>
      </defs>
      <use xlink:href="#DejaVuSans-52"/>
      <use xlink:href="#DejaVuSans-41" x="65.482422"/>
      <use xlink:href="#DejaVuSans-44" x="133.890625"/>
     </g>
    </g>
   </g>
   <g id="matplotlib.axis_2">
    <g id="ytick_1">
     <g id="line2d_9">
      <defs>
       <path id="mc64a82efc1" d="M 0 0 
L -3.5 0 
" style="stroke: #000000; stroke-width: 0.8"/>
      </defs>
      <g>
       <use xlink:href="#mc64a82efc1" x="50.14375" y="333.36" style="stroke: #000000; stroke-width: 0.8"/>
      </g>
     </g>
     <g id="text_10">
      <!-- 0.00 -->
      <g transform="translate(20.878125 337.159219)scale(0.1 -0.1)">
       <defs>
        <path id="DejaVuSans-2e" d="M 684 794 
L 1344 794 
L 1344 0 
L 684 0 
L 684 794 
z
" transform="scale(0.015625)"/>
       </defs>
       <use xlink:href="#DejaVuSans-30"/>
       <use xlink:href="#DejaVuSans-2e" x="63.623047"/>
       <use xlink:href="#DejaVuSans-30" x="95.410156"/>
       <use xlink:href="#DejaVuSans-30" x="159.033203"/>
      </g>
     </g>
    </g>
    <g id="ytick_2">
     <g id="line2d_10">
      <g>
       <use xlink:href="#mc64a82efc1" x="50.14375" y="288.398791" style="stroke: #000000; stroke-width: 0.8"/>
      </g>
     </g>
     <g id="text_11">
      <!-- 0.02 -->
      <g transform="translate(20.878125 292.19801)scale(0.1 -0.1)">
       <use xlink:href="#DejaVuSans-30"/>
       <use xlink:href="#DejaVuSans-2e" x="63.623047"/>
       <use xlink:href="#DejaVuSans-30" x="95.410156"/>
       <use xlink:href="#DejaVuSans-32" x="159.033203"/>
      </g>
     </g>
    </g>
    <g id="ytick_3">
     <g id="line2d_11">
      <g>
       <use xlink:href="#mc64a82efc1" x="50.14375" y="243.437582" style="stroke: #000000; stroke-width: 0.8"/>
      </g>
     </g>
     <g id="text_12">
      <!-- 0.04 -->
      <g transform="translate(20.878125 247.236801)scale(0.1 -0.1)">
       <defs>
        <path id="DejaVuSans-34" d="M 2419 4116 
L 825 1625 
L 2419 1625 
L 2419 4116 
z
M 2253 4666 
L 3047 4666 
L 3047 1625 
L 3713 1625 
L 3713 1100 
L 3047 1100 
L 3047 0 
L 2419 0 
L 2419 1100 
L 313 1100 
L 313 1709 
L 2253 4666 
z
" transform="scale(0.015625)"/>
       </defs>
       <use xlink:href="#DejaVuSans-30"/>
       <use xlink:href="#DejaVuSans-2e" x="63.623047"/>
       <use xlink:href="#DejaVuSans-30" x="95.410156"/>
       <use xlink:href="#DejaVuSans-34" x="159.033203"/>
      </g>
     </g>
    </g>
    <g id="ytick_4">
     <g id="line2d_12">
      <g>
       <use xlink:href="#mc64a82efc1" x="50.14375" y="198.476373" style="stroke: #000000; stroke-width: 0.8"/>
      </g>
     </g>
     <g id="text_13">
      <!-- 0.06 -->
      <g transform="translate(20.878125 202.275591)scale(0.1 -0.1)">
       <defs>
        <path id="DejaVuSans-36" d="M 2113 2584 
Q 1688 2584 1439 2293 
Q 1191 2003 1191 1497 
Q 1191 994 1439 701 
Q 1688 409 2113 409 
Q 2538 409 2786 701 
Q 3034 994 3034 1497 
Q 3034 2003 2786 2293 
Q 2538 2584 2113 2584 
z
M 3366 4563 
L 3366 3988 
Q 3128 4100 2886 4159 
Q 2644 4219 2406 4219 
Q 1781 4219 1451 3797 
Q 1122 3375 1075 2522 
Q 1259 2794 1537 2939 
Q 1816 3084 2150 3084 
Q 2853 3084 3261 2657 
Q 3669 2231 3669 1497 
Q 3669 778 3244 343 
Q 2819 -91 2113 -91 
Q 1303 -91 875 529 
Q 447 1150 447 2328 
Q 447 3434 972 4092 
Q 1497 4750 2381 4750 
Q 2619 4750 2861 4703 
Q 3103 4656 3366 4563 
z
" transform="scale(0.015625)"/>
       </defs>
       <use xlink:href="#DejaVuSans-30"/>
       <use xlink:href="#DejaVuSans-2e" x="63.623047"/>
       <use xlink:href="#DejaVuSans-30" x="95.410156"/>
       <use xlink:href="#DejaVuSans-36" x="159.033203"/>
      </g>
     </g>
    </g>
    <g id="ytick_5">
     <g id="line2d_13">
      <g>
       <use xlink:href="#mc64a82efc1" x="50.14375" y="153.515164" style="stroke: #000000; stroke-width: 0.8"/>
      </g>
     </g>
     <g id="text_14">
      <!-- 0.08 -->
      <g transform="translate(20.878125 157.314382)scale(0.1 -0.1)">
       <defs>
        <path id="DejaVuSans-38" d="M 2034 2216 
Q 1584 2216 1326 1975 
Q 1069 1734 1069 1313 
Q 1069 891 1326 650 
Q 1584 409 2034 409 
Q 2484 409 2743 651 
Q 3003 894 3003 1313 
Q 3003 1734 2745 1975 
Q 2488 2216 2034 2216 
z
M 1403 2484 
Q 997 2584 770 2862 
Q 544 3141 544 3541 
Q 544 4100 942 4425 
Q 1341 4750 2034 4750 
Q 2731 4750 3128 4425 
Q 3525 4100 3525 3541 
Q 3525 3141 3298 2862 
Q 3072 2584 2669 2484 
Q 3125 2378 3379 2068 
Q 3634 1759 3634 1313 
Q 3634 634 3220 271 
Q 2806 -91 2034 -91 
Q 1263 -91 848 271 
Q 434 634 434 1313 
Q 434 1759 690 2068 
Q 947 2378 1403 2484 
z
M 1172 3481 
Q 1172 3119 1398 2916 
Q 1625 2713 2034 2713 
Q 2441 2713 2670 2916 
Q 2900 3119 2900 3481 
Q 2900 3844 2670 4047 
Q 2441 4250 2034 4250 
Q 1625 4250 1398 4047 
Q 1172 3844 1172 3481 
z
" transform="scale(0.015625)"/>
       </defs>
       <use xlink:href="#DejaVuSans-30"/>
       <use xlink:href="#DejaVuSans-2e" x="63.623047"/>
       <use xlink:href="#DejaVuSans-30" x="95.410156"/>
       <use xlink:href="#DejaVuSans-38" x="159.033203"/>
      </g>
     </g>
    </g>
    <g id="ytick_6">
     <g id="line2d_14">
      <g>
       <use xlink:href="#mc64a82efc1" x="50.14375" y="108.553954" style="stroke: #000000; stroke-width: 0.8"/>
      </g>
     </g>
     <g id="text_15">
      <!-- 0.10 -->
      <g transform="translate(20.878125 112.353173)scale(0.1 -0.1)">
       <use xlink:href="#DejaVuSans-30"/>
       <use xlink:href="#DejaVuSans-2e" x="63.623047"/>
       <use xlink:href="#DejaVuSans-31" x="95.410156"/>
       <use xlink:href="#DejaVuSans-30" x="159.033203"/>
      </g>
     </g>
    </g>
    <g id="ytick_7">
     <g id="line2d_15">
      <g>
       <use xlink:href="#mc64a82efc1" x="50.14375" y="63.592745" style="stroke: #000000; stroke-width: 0.8"/>
      </g>
     </g>
     <g id="text_16">
      <!-- 0.12 -->
      <g transform="translate(20.878125 67.391964)scale(0.1 -0.1)">
       <use xlink:href="#DejaVuSans-30"/>
       <use xlink:href="#DejaVuSans-2e" x="63.623047"/>
       <use xlink:href="#DejaVuSans-31" x="95.410156"/>
       <use xlink:href="#DejaVuSans-32" x="159.033203"/>
      </g>
     </g>
    </g>
    <g id="ytick_8">
     <g id="line2d_16">
      <g>
       <use xlink:href="#mc64a82efc1" x="50.14375" y="18.631536" style="stroke: #000000; stroke-width: 0.8"/>
      </g>
     </g>
     <g id="text_17">
      <!-- 0.14 -->
      <g transform="translate(20.878125 22.430755)scale(0.1 -0.1)">
       <use xlink:href="#DejaVuSans-30"/>
       <use xlink:href="#DejaVuSans-2e" x="63.623047"/>
       <use xlink:href="#DejaVuSans-31" x="95.410156"/>
       <use xlink:href="#DejaVuSans-34" x="159.033203"/>
      </g>
     </g>
    </g>
    <g id="text_18">
     <!-- Density -->
     <g transform="translate(14.798437 189.288594)rotate(-90)scale(0.1 -0.1)">
      <defs>
       <path id="DejaVuSans-65" d="M 3597 1894 
L 3597 1613 
L 953 1613 
Q 991 1019 1311 708 
Q 1631 397 2203 397 
Q 2534 397 2845 478 
Q 3156 559 3463 722 
L 3463 178 
Q 3153 47 2828 -22 
Q 2503 -91 2169 -91 
Q 1331 -91 842 396 
Q 353 884 353 1716 
Q 353 2575 817 3079 
Q 1281 3584 2069 3584 
Q 2775 3584 3186 3129 
Q 3597 2675 3597 1894 
z
M 3022 2063 
Q 3016 2534 2758 2815 
Q 2500 3097 2075 3097 
Q 1594 3097 1305 2825 
Q 1016 2553 972 2059 
L 3022 2063 
z
" transform="scale(0.015625)"/>
       <path id="DejaVuSans-6e" d="M 3513 2113 
L 3513 0 
L 2938 0 
L 2938 2094 
Q 2938 2591 2744 2837 
Q 2550 3084 2163 3084 
Q 1697 3084 1428 2787 
Q 1159 2491 1159 1978 
L 1159 0 
L 581 0 
L 581 3500 
L 1159 3500 
L 1159 2956 
Q 1366 3272 1645 3428 
Q 1925 3584 2291 3584 
Q 2894 3584 3203 3211 
Q 3513 2838 3513 2113 
z
" transform="scale(0.015625)"/>
       <path id="DejaVuSans-73" d="M 2834 3397 
L 2834 2853 
Q 2591 2978 2328 3040 
Q 2066 3103 1784 3103 
Q 1356 3103 1142 2972 
Q 928 2841 928 2578 
Q 928 2378 1081 2264 
Q 1234 2150 1697 2047 
L 1894 2003 
Q 2506 1872 2764 1633 
Q 3022 1394 3022 966 
Q 3022 478 2636 193 
Q 2250 -91 1575 -91 
Q 1294 -91 989 -36 
Q 684 19 347 128 
L 347 722 
Q 666 556 975 473 
Q 1284 391 1588 391 
Q 1994 391 2212 530 
Q 2431 669 2431 922 
Q 2431 1156 2273 1281 
Q 2116 1406 1581 1522 
L 1381 1569 
Q 847 1681 609 1914 
Q 372 2147 372 2553 
Q 372 3047 722 3315 
Q 1072 3584 1716 3584 
Q 2034 3584 2315 3537 
Q 2597 3491 2834 3397 
z
" transform="scale(0.015625)"/>
       <path id="DejaVuSans-69" d="M 603 3500 
L 1178 3500 
L 1178 0 
L 603 0 
L 603 3500 
z
M 603 4863 
L 1178 4863 
L 1178 4134 
L 603 4134 
L 603 4863 
z
" transform="scale(0.015625)"/>
       <path id="DejaVuSans-74" d="M 1172 4494 
L 1172 3500 
L 2356 3500 
L 2356 3053 
L 1172 3053 
L 1172 1153 
Q 1172 725 1289 603 
Q 1406 481 1766 481 
L 2356 481 
L 2356 0 
L 1766 0 
Q 1100 0 847 248 
Q 594 497 594 1153 
L 594 3053 
L 172 3053 
L 172 3500 
L 594 3500 
L 594 4494 
L 1172 4494 
z
" transform="scale(0.015625)"/>
       <path id="DejaVuSans-79" d="M 2059 -325 
Q 1816 -950 1584 -1140 
Q 1353 -1331 966 -1331 
L 506 -1331 
L 506 -850 
L 844 -850 
Q 1081 -850 1212 -737 
Q 1344 -625 1503 -206 
L 1606 56 
L 191 3500 
L 800 3500 
L 1894 763 
L 2988 3500 
L 3597 3500 
L 2059 -325 
z
" transform="scale(0.015625)"/>
      </defs>
      <use xlink:href="#DejaVuSans-44"/>
      <use xlink:href="#DejaVuSans-65" x="77.001953"/>
      <use xlink:href="#DejaVuSans-6e" x="138.525391"/>
      <use xlink:href="#DejaVuSans-73" x="201.904297"/>
      <use xlink:href="#DejaVuSans-69" x="254.003906"/>
      <use xlink:href="#DejaVuSans-74" x="281.787109"/>
      <use xlink:href="#DejaVuSans-79" x="320.996094"/>
     </g>
    </g>
   </g>
   <g id="line2d_17">
    <path d="M 70.434659 333.116637 
L 76.552521 332.862655 
L 82.670383 332.38797 
L 86.748958 331.876945 
L 90.827533 331.139874 
L 94.906107 330.097925 
L 98.984682 328.653878 
L 101.023969 327.745426 
L 103.063257 326.69128 
L 105.102544 325.473951 
L 107.141831 324.0749 
L 109.181119 322.474653 
L 111.220406 320.652964 
L 113.259693 318.589009 
L 115.298981 316.261635 
L 117.338268 313.649648 
L 119.377555 310.732154 
L 121.416843 307.488942 
L 123.45613 303.900926 
L 125.495417 299.950621 
L 127.534705 295.622664 
L 129.573992 290.904371 
L 131.613279 285.786323 
L 133.652567 280.26296 
L 135.691854 274.333191 
L 137.731142 268.000984 
L 141.809716 254.173746 
L 145.888291 238.934207 
L 149.966866 222.545487 
L 156.084728 196.666644 
L 162.20259 170.810055 
L 166.281164 154.630212 
L 168.320452 147.111523 
L 170.359739 140.086534 
L 172.399026 133.636792 
L 174.438314 127.839399 
L 176.477601 122.765401 
L 178.516888 118.478264 
L 180.556176 115.032465 
L 182.595463 112.472264 
L 184.63475 110.83069 
L 186.674038 110.128767 
L 188.713325 110.375032 
L 190.752612 111.565331 
L 192.7919 113.682924 
L 194.831187 116.698893 
L 196.870475 120.572821 
L 198.909762 125.253747 
L 200.949049 130.681332 
L 202.988337 136.787231 
L 205.027624 143.496589 
L 207.066911 150.729647 
L 211.145486 166.433114 
L 215.224061 183.223223 
L 225.420497 225.831767 
L 229.499072 241.765334 
L 233.577647 256.502249 
L 237.656221 269.821331 
L 239.695509 275.908629 
L 241.734796 281.604483 
L 243.774083 286.907814 
L 245.813371 291.821961 
L 247.852658 296.354099 
L 249.891946 300.514664 
L 251.931233 304.316795 
L 253.97052 307.77581 
L 256.009808 310.908709 
L 258.049095 313.733729 
L 260.088382 316.269935 
L 262.12767 318.536857 
L 264.166957 320.554169 
L 266.206244 322.341417 
L 268.245532 323.917784 
L 270.284819 325.301887 
L 272.324106 326.511623 
L 274.363394 327.564033 
L 276.402681 328.475205 
L 280.481256 329.932981 
L 284.55983 330.992224 
L 288.638405 331.74213 
L 292.71698 332.253756 
L 296.795554 332.580371 
L 302.913417 332.797366 
L 309.031279 332.724132 
L 313.109853 332.498329 
L 317.188428 332.093014 
L 321.267003 331.453644 
L 325.345577 330.50559 
L 329.424152 329.155037 
L 331.463439 328.294954 
L 333.502727 327.292048 
L 335.542014 326.131057 
L 337.581301 324.796674 
L 339.620589 323.273943 
L 341.659876 321.548716 
L 343.699163 319.608162 
L 345.738451 317.441325 
L 347.777738 315.039711 
L 349.817025 312.397891 
L 351.856313 309.514106 
L 353.8956 306.390834 
L 355.934888 303.035321 
L 360.013462 295.682943 
L 364.092037 287.624364 
L 378.367048 258.316786 
L 380.406336 254.66808 
L 382.445623 251.320515 
L 384.48491 248.326552 
L 386.524198 245.734457 
L 388.563485 243.587001 
L 390.602772 241.920295 
L 392.64206 240.762774 
L 394.681347 240.134396 
L 396.720634 240.046063 
L 398.759922 240.499313 
L 400.799209 241.486271 
L 402.838496 242.989878 
L 404.877784 244.984381 
L 406.917071 247.436068 
L 408.956358 250.304214 
L 410.995646 253.542207 
L 413.034933 257.098805 
L 417.113508 264.94779 
L 423.23137 277.71397 
L 429.349232 290.406217 
L 433.427807 298.251149 
L 437.506381 305.323222 
L 439.545669 308.523239 
L 441.584956 311.485614 
L 443.624243 314.206379 
L 445.663531 316.685994 
L 447.702818 318.928778 
L 449.742105 320.942324 
L 451.781393 322.736891 
L 453.82068 324.324816 
L 455.859967 325.719946 
L 457.899255 326.937118 
L 459.938542 327.991691 
L 461.977829 328.899134 
L 466.056404 330.333053 
L 470.134979 331.353281 
L 474.213554 332.060235 
L 476.252841 332.323033 
L 476.252841 332.323033 
" clip-path="url(#p0f3e218a20)" style="fill: none; stroke: #1f77b4; stroke-width: 1.5; stroke-linecap: square"/>
   </g>
   <g id="LineCollection_1">
    <path d="M 150.654445 333.36 
L 150.654445 325.206 
" clip-path="url(#p0f3e218a20)" style="fill: none; stroke: #1f77b4"/>
    <path d="M 161.32308 333.36 
L 161.32308 325.206 
" clip-path="url(#p0f3e218a20)" style="fill: none; stroke: #1f77b4"/>
    <path d="M 161.32308 333.36 
L 161.32308 325.206 
" clip-path="url(#p0f3e218a20)" style="fill: none; stroke: #1f77b4"/>
    <path d="M 171.991716 333.36 
L 171.991716 325.206 
" clip-path="url(#p0f3e218a20)" style="fill: none; stroke: #1f77b4"/>
    <path d="M 171.991716 333.36 
L 171.991716 325.206 
" clip-path="url(#p0f3e218a20)" style="fill: none; stroke: #1f77b4"/>
    <path d="M 171.991716 333.36 
L 171.991716 325.206 
" clip-path="url(#p0f3e218a20)" style="fill: none; stroke: #1f77b4"/>
    <path d="M 193.328986 333.36 
L 193.328986 325.206 
" clip-path="url(#p0f3e218a20)" style="fill: none; stroke: #1f77b4"/>
    <path d="M 193.328986 333.36 
L 193.328986 325.206 
" clip-path="url(#p0f3e218a20)" style="fill: none; stroke: #1f77b4"/>
    <path d="M 193.328986 333.36 
L 193.328986 325.206 
" clip-path="url(#p0f3e218a20)" style="fill: none; stroke: #1f77b4"/>
    <path d="M 193.328986 333.36 
L 193.328986 325.206 
" clip-path="url(#p0f3e218a20)" style="fill: none; stroke: #1f77b4"/>
    <path d="M 193.328986 333.36 
L 193.328986 325.206 
" clip-path="url(#p0f3e218a20)" style="fill: none; stroke: #1f77b4"/>
    <path d="M 193.328986 333.36 
L 193.328986 325.206 
" clip-path="url(#p0f3e218a20)" style="fill: none; stroke: #1f77b4"/>
    <path d="M 193.328986 333.36 
L 193.328986 325.206 
" clip-path="url(#p0f3e218a20)" style="fill: none; stroke: #1f77b4"/>
    <path d="M 182.660351 333.36 
L 182.660351 325.206 
" clip-path="url(#p0f3e218a20)" style="fill: none; stroke: #1f77b4"/>
    <path d="M 182.660351 333.36 
L 182.660351 325.206 
" clip-path="url(#p0f3e218a20)" style="fill: none; stroke: #1f77b4"/>
    <path d="M 182.660351 333.36 
L 182.660351 325.206 
" clip-path="url(#p0f3e218a20)" style="fill: none; stroke: #1f77b4"/>
    <path d="M 182.660351 333.36 
L 182.660351 325.206 
" clip-path="url(#p0f3e218a20)" style="fill: none; stroke: #1f77b4"/>
    <path d="M 182.660351 333.36 
L 182.660351 325.206 
" clip-path="url(#p0f3e218a20)" style="fill: none; stroke: #1f77b4"/>
    <path d="M 182.660351 333.36 
L 182.660351 325.206 
" clip-path="url(#p0f3e218a20)" style="fill: none; stroke: #1f77b4"/>
    <path d="M 182.660351 333.36 
L 182.660351 325.206 
" clip-path="url(#p0f3e218a20)" style="fill: none; stroke: #1f77b4"/>
    <path d="M 182.660351 333.36 
L 182.660351 325.206 
" clip-path="url(#p0f3e218a20)" style="fill: none; stroke: #1f77b4"/>
    <path d="M 182.660351 333.36 
L 182.660351 325.206 
" clip-path="url(#p0f3e218a20)" style="fill: none; stroke: #1f77b4"/>
    <path d="M 182.660351 333.36 
L 182.660351 325.206 
" clip-path="url(#p0f3e218a20)" style="fill: none; stroke: #1f77b4"/>
    <path d="M 182.660351 333.36 
L 182.660351 325.206 
" clip-path="url(#p0f3e218a20)" style="fill: none; stroke: #1f77b4"/>
    <path d="M 182.660351 333.36 
L 182.660351 325.206 
" clip-path="url(#p0f3e218a20)" style="fill: none; stroke: #1f77b4"/>
    <path d="M 182.660351 333.36 
L 182.660351 325.206 
" clip-path="url(#p0f3e218a20)" style="fill: none; stroke: #1f77b4"/>
    <path d="M 182.660351 333.36 
L 182.660351 325.206 
" clip-path="url(#p0f3e218a20)" style="fill: none; stroke: #1f77b4"/>
    <path d="M 182.660351 333.36 
L 182.660351 325.206 
" clip-path="url(#p0f3e218a20)" style="fill: none; stroke: #1f77b4"/>
    <path d="M 182.660351 333.36 
L 182.660351 325.206 
" clip-path="url(#p0f3e218a20)" style="fill: none; stroke: #1f77b4"/>
    <path d="M 182.660351 333.36 
L 182.660351 325.206 
" clip-path="url(#p0f3e218a20)" style="fill: none; stroke: #1f77b4"/>
    <path d="M 182.660351 333.36 
L 182.660351 325.206 
" clip-path="url(#p0f3e218a20)" style="fill: none; stroke: #1f77b4"/>
    <path d="M 182.660351 333.36 
L 182.660351 325.206 
" clip-path="url(#p0f3e218a20)" style="fill: none; stroke: #1f77b4"/>
    <path d="M 182.660351 333.36 
L 182.660351 325.206 
" clip-path="url(#p0f3e218a20)" style="fill: none; stroke: #1f77b4"/>
    <path d="M 182.660351 333.36 
L 182.660351 325.206 
" clip-path="url(#p0f3e218a20)" style="fill: none; stroke: #1f77b4"/>
    <path d="M 182.660351 333.36 
L 182.660351 325.206 
" clip-path="url(#p0f3e218a20)" style="fill: none; stroke: #1f77b4"/>
    <path d="M 193.328986 333.36 
L 193.328986 325.206 
" clip-path="url(#p0f3e218a20)" style="fill: none; stroke: #1f77b4"/>
    <path d="M 193.328986 333.36 
L 193.328986 325.206 
" clip-path="url(#p0f3e218a20)" style="fill: none; stroke: #1f77b4"/>
    <path d="M 193.328986 333.36 
L 193.328986 325.206 
" clip-path="url(#p0f3e218a20)" style="fill: none; stroke: #1f77b4"/>
    <path d="M 193.328986 333.36 
L 193.328986 325.206 
" clip-path="url(#p0f3e218a20)" style="fill: none; stroke: #1f77b4"/>
    <path d="M 171.991716 333.36 
L 171.991716 325.206 
" clip-path="url(#p0f3e218a20)" style="fill: none; stroke: #1f77b4"/>
    <path d="M 171.991716 333.36 
L 171.991716 325.206 
" clip-path="url(#p0f3e218a20)" style="fill: none; stroke: #1f77b4"/>
    <path d="M 171.991716 333.36 
L 171.991716 325.206 
" clip-path="url(#p0f3e218a20)" style="fill: none; stroke: #1f77b4"/>
    <path d="M 171.991716 333.36 
L 171.991716 325.206 
" clip-path="url(#p0f3e218a20)" style="fill: none; stroke: #1f77b4"/>
    <path d="M 171.991716 333.36 
L 171.991716 325.206 
" clip-path="url(#p0f3e218a20)" style="fill: none; stroke: #1f77b4"/>
    <path d="M 171.991716 333.36 
L 171.991716 325.206 
" clip-path="url(#p0f3e218a20)" style="fill: none; stroke: #1f77b4"/>
    <path d="M 171.991716 333.36 
L 171.991716 325.206 
" clip-path="url(#p0f3e218a20)" style="fill: none; stroke: #1f77b4"/>
    <path d="M 171.991716 333.36 
L 171.991716 325.206 
" clip-path="url(#p0f3e218a20)" style="fill: none; stroke: #1f77b4"/>
    <path d="M 171.991716 333.36 
L 171.991716 325.206 
" clip-path="url(#p0f3e218a20)" style="fill: none; stroke: #1f77b4"/>
    <path d="M 171.991716 333.36 
L 171.991716 325.206 
" clip-path="url(#p0f3e218a20)" style="fill: none; stroke: #1f77b4"/>
    <path d="M 171.991716 333.36 
L 171.991716 325.206 
" clip-path="url(#p0f3e218a20)" style="fill: none; stroke: #1f77b4"/>
    <path d="M 182.660351 333.36 
L 182.660351 325.206 
" clip-path="url(#p0f3e218a20)" style="fill: none; stroke: #1f77b4"/>
    <path d="M 182.660351 333.36 
L 182.660351 325.206 
" clip-path="url(#p0f3e218a20)" style="fill: none; stroke: #1f77b4"/>
    <path d="M 182.660351 333.36 
L 182.660351 325.206 
" clip-path="url(#p0f3e218a20)" style="fill: none; stroke: #1f77b4"/>
    <path d="M 182.660351 333.36 
L 182.660351 325.206 
" clip-path="url(#p0f3e218a20)" style="fill: none; stroke: #1f77b4"/>
    <path d="M 171.991716 333.36 
L 171.991716 325.206 
" clip-path="url(#p0f3e218a20)" style="fill: none; stroke: #1f77b4"/>
    <path d="M 193.328986 333.36 
L 193.328986 325.206 
" clip-path="url(#p0f3e218a20)" style="fill: none; stroke: #1f77b4"/>
    <path d="M 161.32308 333.36 
L 161.32308 325.206 
" clip-path="url(#p0f3e218a20)" style="fill: none; stroke: #1f77b4"/>
    <path d="M 193.328986 333.36 
L 193.328986 325.206 
" clip-path="url(#p0f3e218a20)" style="fill: none; stroke: #1f77b4"/>
    <path d="M 225.334892 333.36 
L 225.334892 325.206 
" clip-path="url(#p0f3e218a20)" style="fill: none; stroke: #1f77b4"/>
    <path d="M 225.334892 333.36 
L 225.334892 325.206 
" clip-path="url(#p0f3e218a20)" style="fill: none; stroke: #1f77b4"/>
    <path d="M 225.334892 333.36 
L 225.334892 325.206 
" clip-path="url(#p0f3e218a20)" style="fill: none; stroke: #1f77b4"/>
    <path d="M 225.334892 333.36 
L 225.334892 325.206 
" clip-path="url(#p0f3e218a20)" style="fill: none; stroke: #1f77b4"/>
    <path d="M 225.334892 333.36 
L 225.334892 325.206 
" clip-path="url(#p0f3e218a20)" style="fill: none; stroke: #1f77b4"/>
    <path d="M 225.334892 333.36 
L 225.334892 325.206 
" clip-path="url(#p0f3e218a20)" style="fill: none; stroke: #1f77b4"/>
    <path d="M 171.991716 333.36 
L 171.991716 325.206 
" clip-path="url(#p0f3e218a20)" style="fill: none; stroke: #1f77b4"/>
    <path d="M 182.660351 333.36 
L 182.660351 325.206 
" clip-path="url(#p0f3e218a20)" style="fill: none; stroke: #1f77b4"/>
    <path d="M 182.660351 333.36 
L 182.660351 325.206 
" clip-path="url(#p0f3e218a20)" style="fill: none; stroke: #1f77b4"/>
    <path d="M 182.660351 333.36 
L 182.660351 325.206 
" clip-path="url(#p0f3e218a20)" style="fill: none; stroke: #1f77b4"/>
    <path d="M 182.660351 333.36 
L 182.660351 325.206 
" clip-path="url(#p0f3e218a20)" style="fill: none; stroke: #1f77b4"/>
    <path d="M 182.660351 333.36 
L 182.660351 325.206 
" clip-path="url(#p0f3e218a20)" style="fill: none; stroke: #1f77b4"/>
    <path d="M 182.660351 333.36 
L 182.660351 325.206 
" clip-path="url(#p0f3e218a20)" style="fill: none; stroke: #1f77b4"/>
    <path d="M 182.660351 333.36 
L 182.660351 325.206 
" clip-path="url(#p0f3e218a20)" style="fill: none; stroke: #1f77b4"/>
    <path d="M 182.660351 333.36 
L 182.660351 325.206 
" clip-path="url(#p0f3e218a20)" style="fill: none; stroke: #1f77b4"/>
    <path d="M 182.660351 333.36 
L 182.660351 325.206 
" clip-path="url(#p0f3e218a20)" style="fill: none; stroke: #1f77b4"/>
    <path d="M 193.328986 333.36 
L 193.328986 325.206 
" clip-path="url(#p0f3e218a20)" style="fill: none; stroke: #1f77b4"/>
    <path d="M 193.328986 333.36 
L 193.328986 325.206 
" clip-path="url(#p0f3e218a20)" style="fill: none; stroke: #1f77b4"/>
    <path d="M 193.328986 333.36 
L 193.328986 325.206 
" clip-path="url(#p0f3e218a20)" style="fill: none; stroke: #1f77b4"/>
    <path d="M 193.328986 333.36 
L 193.328986 325.206 
" clip-path="url(#p0f3e218a20)" style="fill: none; stroke: #1f77b4"/>
    <path d="M 193.328986 333.36 
L 193.328986 325.206 
" clip-path="url(#p0f3e218a20)" style="fill: none; stroke: #1f77b4"/>
    <path d="M 193.328986 333.36 
L 193.328986 325.206 
" clip-path="url(#p0f3e218a20)" style="fill: none; stroke: #1f77b4"/>
    <path d="M 182.660351 333.36 
L 182.660351 325.206 
" clip-path="url(#p0f3e218a20)" style="fill: none; stroke: #1f77b4"/>
    <path d="M 182.660351 333.36 
L 182.660351 325.206 
" clip-path="url(#p0f3e218a20)" style="fill: none; stroke: #1f77b4"/>
    <path d="M 182.660351 333.36 
L 182.660351 325.206 
" clip-path="url(#p0f3e218a20)" style="fill: none; stroke: #1f77b4"/>
    <path d="M 182.660351 333.36 
L 182.660351 325.206 
" clip-path="url(#p0f3e218a20)" style="fill: none; stroke: #1f77b4"/>
    <path d="M 171.991716 333.36 
L 171.991716 325.206 
" clip-path="url(#p0f3e218a20)" style="fill: none; stroke: #1f77b4"/>
    <path d="M 171.991716 333.36 
L 171.991716 325.206 
" clip-path="url(#p0f3e218a20)" style="fill: none; stroke: #1f77b4"/>
    <path d="M 171.991716 333.36 
L 171.991716 325.206 
" clip-path="url(#p0f3e218a20)" style="fill: none; stroke: #1f77b4"/>
    <path d="M 171.991716 333.36 
L 171.991716 325.206 
" clip-path="url(#p0f3e218a20)" style="fill: none; stroke: #1f77b4"/>
    <path d="M 161.32308 333.36 
L 161.32308 325.206 
" clip-path="url(#p0f3e218a20)" style="fill: none; stroke: #1f77b4"/>
    <path d="M 161.32308 333.36 
L 161.32308 325.206 
" clip-path="url(#p0f3e218a20)" style="fill: none; stroke: #1f77b4"/>
    <path d="M 161.32308 333.36 
L 161.32308 325.206 
" clip-path="url(#p0f3e218a20)" style="fill: none; stroke: #1f77b4"/>
    <path d="M 161.32308 333.36 
L 161.32308 325.206 
" clip-path="url(#p0f3e218a20)" style="fill: none; stroke: #1f77b4"/>
    <path d="M 182.660351 333.36 
L 182.660351 325.206 
" clip-path="url(#p0f3e218a20)" style="fill: none; stroke: #1f77b4"/>
    <path d="M 182.660351 333.36 
L 182.660351 325.206 
" clip-path="url(#p0f3e218a20)" style="fill: none; stroke: #1f77b4"/>
    <path d="M 182.660351 333.36 
L 182.660351 325.206 
" clip-path="url(#p0f3e218a20)" style="fill: none; stroke: #1f77b4"/>
    <path d="M 161.32308 333.36 
L 161.32308 325.206 
" clip-path="url(#p0f3e218a20)" style="fill: none; stroke: #1f77b4"/>
    <path d="M 161.32308 333.36 
L 161.32308 325.206 
" clip-path="url(#p0f3e218a20)" style="fill: none; stroke: #1f77b4"/>
    <path d="M 161.32308 333.36 
L 161.32308 325.206 
" clip-path="url(#p0f3e218a20)" style="fill: none; stroke: #1f77b4"/>
    <path d="M 161.32308 333.36 
L 161.32308 325.206 
" clip-path="url(#p0f3e218a20)" style="fill: none; stroke: #1f77b4"/>
    <path d="M 161.32308 333.36 
L 161.32308 325.206 
" clip-path="url(#p0f3e218a20)" style="fill: none; stroke: #1f77b4"/>
    <path d="M 193.328986 333.36 
L 193.328986 325.206 
" clip-path="url(#p0f3e218a20)" style="fill: none; stroke: #1f77b4"/>
    <path d="M 193.328986 333.36 
L 193.328986 325.206 
" clip-path="url(#p0f3e218a20)" style="fill: none; stroke: #1f77b4"/>
    <path d="M 193.328986 333.36 
L 193.328986 325.206 
" clip-path="url(#p0f3e218a20)" style="fill: none; stroke: #1f77b4"/>
    <path d="M 193.328986 333.36 
L 193.328986 325.206 
" clip-path="url(#p0f3e218a20)" style="fill: none; stroke: #1f77b4"/>
    <path d="M 193.328986 333.36 
L 193.328986 325.206 
" clip-path="url(#p0f3e218a20)" style="fill: none; stroke: #1f77b4"/>
    <path d="M 193.328986 333.36 
L 193.328986 325.206 
" clip-path="url(#p0f3e218a20)" style="fill: none; stroke: #1f77b4"/>
    <path d="M 193.328986 333.36 
L 193.328986 325.206 
" clip-path="url(#p0f3e218a20)" style="fill: none; stroke: #1f77b4"/>
    <path d="M 193.328986 333.36 
L 193.328986 325.206 
" clip-path="url(#p0f3e218a20)" style="fill: none; stroke: #1f77b4"/>
    <path d="M 193.328986 333.36 
L 193.328986 325.206 
" clip-path="url(#p0f3e218a20)" style="fill: none; stroke: #1f77b4"/>
    <path d="M 193.328986 333.36 
L 193.328986 325.206 
" clip-path="url(#p0f3e218a20)" style="fill: none; stroke: #1f77b4"/>
    <path d="M 193.328986 333.36 
L 193.328986 325.206 
" clip-path="url(#p0f3e218a20)" style="fill: none; stroke: #1f77b4"/>
    <path d="M 203.997621 333.36 
L 203.997621 325.206 
" clip-path="url(#p0f3e218a20)" style="fill: none; stroke: #1f77b4"/>
    <path d="M 203.997621 333.36 
L 203.997621 325.206 
" clip-path="url(#p0f3e218a20)" style="fill: none; stroke: #1f77b4"/>
    <path d="M 203.997621 333.36 
L 203.997621 325.206 
" clip-path="url(#p0f3e218a20)" style="fill: none; stroke: #1f77b4"/>
    <path d="M 203.997621 333.36 
L 203.997621 325.206 
" clip-path="url(#p0f3e218a20)" style="fill: none; stroke: #1f77b4"/>
    <path d="M 203.997621 333.36 
L 203.997621 325.206 
" clip-path="url(#p0f3e218a20)" style="fill: none; stroke: #1f77b4"/>
    <path d="M 203.997621 333.36 
L 203.997621 325.206 
" clip-path="url(#p0f3e218a20)" style="fill: none; stroke: #1f77b4"/>
    <path d="M 203.997621 333.36 
L 203.997621 325.206 
" clip-path="url(#p0f3e218a20)" style="fill: none; stroke: #1f77b4"/>
    <path d="M 203.997621 333.36 
L 203.997621 325.206 
" clip-path="url(#p0f3e218a20)" style="fill: none; stroke: #1f77b4"/>
    <path d="M 203.997621 333.36 
L 203.997621 325.206 
" clip-path="url(#p0f3e218a20)" style="fill: none; stroke: #1f77b4"/>
    <path d="M 161.32308 333.36 
L 161.32308 325.206 
" clip-path="url(#p0f3e218a20)" style="fill: none; stroke: #1f77b4"/>
    <path d="M 161.32308 333.36 
L 161.32308 325.206 
" clip-path="url(#p0f3e218a20)" style="fill: none; stroke: #1f77b4"/>
    <path d="M 161.32308 333.36 
L 161.32308 325.206 
" clip-path="url(#p0f3e218a20)" style="fill: none; stroke: #1f77b4"/>
    <path d="M 161.32308 333.36 
L 161.32308 325.206 
" clip-path="url(#p0f3e218a20)" style="fill: none; stroke: #1f77b4"/>
    <path d="M 161.32308 333.36 
L 161.32308 325.206 
" clip-path="url(#p0f3e218a20)" style="fill: none; stroke: #1f77b4"/>
    <path d="M 161.32308 333.36 
L 161.32308 325.206 
" clip-path="url(#p0f3e218a20)" style="fill: none; stroke: #1f77b4"/>
    <path d="M 161.32308 333.36 
L 161.32308 325.206 
" clip-path="url(#p0f3e218a20)" style="fill: none; stroke: #1f77b4"/>
    <path d="M 182.660351 333.36 
L 182.660351 325.206 
" clip-path="url(#p0f3e218a20)" style="fill: none; stroke: #1f77b4"/>
    <path d="M 182.660351 333.36 
L 182.660351 325.206 
" clip-path="url(#p0f3e218a20)" style="fill: none; stroke: #1f77b4"/>
    <path d="M 182.660351 333.36 
L 182.660351 325.206 
" clip-path="url(#p0f3e218a20)" style="fill: none; stroke: #1f77b4"/>
    <path d="M 182.660351 333.36 
L 182.660351 325.206 
" clip-path="url(#p0f3e218a20)" style="fill: none; stroke: #1f77b4"/>
    <path d="M 182.660351 333.36 
L 182.660351 325.206 
" clip-path="url(#p0f3e218a20)" style="fill: none; stroke: #1f77b4"/>
    <path d="M 182.660351 333.36 
L 182.660351 325.206 
" clip-path="url(#p0f3e218a20)" style="fill: none; stroke: #1f77b4"/>
    <path d="M 182.660351 333.36 
L 182.660351 325.206 
" clip-path="url(#p0f3e218a20)" style="fill: none; stroke: #1f77b4"/>
    <path d="M 182.660351 333.36 
L 182.660351 325.206 
" clip-path="url(#p0f3e218a20)" style="fill: none; stroke: #1f77b4"/>
    <path d="M 182.660351 333.36 
L 182.660351 325.206 
" clip-path="url(#p0f3e218a20)" style="fill: none; stroke: #1f77b4"/>
    <path d="M 182.660351 333.36 
L 182.660351 325.206 
" clip-path="url(#p0f3e218a20)" style="fill: none; stroke: #1f77b4"/>
    <path d="M 182.660351 333.36 
L 182.660351 325.206 
" clip-path="url(#p0f3e218a20)" style="fill: none; stroke: #1f77b4"/>
    <path d="M 182.660351 333.36 
L 182.660351 325.206 
" clip-path="url(#p0f3e218a20)" style="fill: none; stroke: #1f77b4"/>
    <path d="M 182.660351 333.36 
L 182.660351 325.206 
" clip-path="url(#p0f3e218a20)" style="fill: none; stroke: #1f77b4"/>
    <path d="M 182.660351 333.36 
L 182.660351 325.206 
" clip-path="url(#p0f3e218a20)" style="fill: none; stroke: #1f77b4"/>
    <path d="M 182.660351 333.36 
L 182.660351 325.206 
" clip-path="url(#p0f3e218a20)" style="fill: none; stroke: #1f77b4"/>
    <path d="M 193.328986 333.36 
L 193.328986 325.206 
" clip-path="url(#p0f3e218a20)" style="fill: none; stroke: #1f77b4"/>
    <path d="M 193.328986 333.36 
L 193.328986 325.206 
" clip-path="url(#p0f3e218a20)" style="fill: none; stroke: #1f77b4"/>
    <path d="M 193.328986 333.36 
L 193.328986 325.206 
" clip-path="url(#p0f3e218a20)" style="fill: none; stroke: #1f77b4"/>
    <path d="M 193.328986 333.36 
L 193.328986 325.206 
" clip-path="url(#p0f3e218a20)" style="fill: none; stroke: #1f77b4"/>
    <path d="M 193.328986 333.36 
L 193.328986 325.206 
" clip-path="url(#p0f3e218a20)" style="fill: none; stroke: #1f77b4"/>
    <path d="M 193.328986 333.36 
L 193.328986 325.206 
" clip-path="url(#p0f3e218a20)" style="fill: none; stroke: #1f77b4"/>
    <path d="M 193.328986 333.36 
L 193.328986 325.206 
" clip-path="url(#p0f3e218a20)" style="fill: none; stroke: #1f77b4"/>
    <path d="M 193.328986 333.36 
L 193.328986 325.206 
" clip-path="url(#p0f3e218a20)" style="fill: none; stroke: #1f77b4"/>
    <path d="M 193.328986 333.36 
L 193.328986 325.206 
" clip-path="url(#p0f3e218a20)" style="fill: none; stroke: #1f77b4"/>
    <path d="M 193.328986 333.36 
L 193.328986 325.206 
" clip-path="url(#p0f3e218a20)" style="fill: none; stroke: #1f77b4"/>
    <path d="M 193.328986 333.36 
L 193.328986 325.206 
" clip-path="url(#p0f3e218a20)" style="fill: none; stroke: #1f77b4"/>
    <path d="M 193.328986 333.36 
L 193.328986 325.206 
" clip-path="url(#p0f3e218a20)" style="fill: none; stroke: #1f77b4"/>
    <path d="M 193.328986 333.36 
L 193.328986 325.206 
" clip-path="url(#p0f3e218a20)" style="fill: none; stroke: #1f77b4"/>
    <path d="M 193.328986 333.36 
L 193.328986 325.206 
" clip-path="url(#p0f3e218a20)" style="fill: none; stroke: #1f77b4"/>
    <path d="M 193.328986 333.36 
L 193.328986 325.206 
" clip-path="url(#p0f3e218a20)" style="fill: none; stroke: #1f77b4"/>
    <path d="M 193.328986 333.36 
L 193.328986 325.206 
" clip-path="url(#p0f3e218a20)" style="fill: none; stroke: #1f77b4"/>
    <path d="M 193.328986 333.36 
L 193.328986 325.206 
" clip-path="url(#p0f3e218a20)" style="fill: none; stroke: #1f77b4"/>
    <path d="M 193.328986 333.36 
L 193.328986 325.206 
" clip-path="url(#p0f3e218a20)" style="fill: none; stroke: #1f77b4"/>
    <path d="M 193.328986 333.36 
L 193.328986 325.206 
" clip-path="url(#p0f3e218a20)" style="fill: none; stroke: #1f77b4"/>
    <path d="M 193.328986 333.36 
L 193.328986 325.206 
" clip-path="url(#p0f3e218a20)" style="fill: none; stroke: #1f77b4"/>
    <path d="M 193.328986 333.36 
L 193.328986 325.206 
" clip-path="url(#p0f3e218a20)" style="fill: none; stroke: #1f77b4"/>
    <path d="M 193.328986 333.36 
L 193.328986 325.206 
" clip-path="url(#p0f3e218a20)" style="fill: none; stroke: #1f77b4"/>
    <path d="M 193.328986 333.36 
L 193.328986 325.206 
" clip-path="url(#p0f3e218a20)" style="fill: none; stroke: #1f77b4"/>
    <path d="M 193.328986 333.36 
L 193.328986 325.206 
" clip-path="url(#p0f3e218a20)" style="fill: none; stroke: #1f77b4"/>
    <path d="M 193.328986 333.36 
L 193.328986 325.206 
" clip-path="url(#p0f3e218a20)" style="fill: none; stroke: #1f77b4"/>
    <path d="M 193.328986 333.36 
L 193.328986 325.206 
" clip-path="url(#p0f3e218a20)" style="fill: none; stroke: #1f77b4"/>
    <path d="M 193.328986 333.36 
L 193.328986 325.206 
" clip-path="url(#p0f3e218a20)" style="fill: none; stroke: #1f77b4"/>
    <path d="M 193.328986 333.36 
L 193.328986 325.206 
" clip-path="url(#p0f3e218a20)" style="fill: none; stroke: #1f77b4"/>
    <path d="M 193.328986 333.36 
L 193.328986 325.206 
" clip-path="url(#p0f3e218a20)" style="fill: none; stroke: #1f77b4"/>
    <path d="M 193.328986 333.36 
L 193.328986 325.206 
" clip-path="url(#p0f3e218a20)" style="fill: none; stroke: #1f77b4"/>
    <path d="M 193.328986 333.36 
L 193.328986 325.206 
" clip-path="url(#p0f3e218a20)" style="fill: none; stroke: #1f77b4"/>
    <path d="M 193.328986 333.36 
L 193.328986 325.206 
" clip-path="url(#p0f3e218a20)" style="fill: none; stroke: #1f77b4"/>
    <path d="M 193.328986 333.36 
L 193.328986 325.206 
" clip-path="url(#p0f3e218a20)" style="fill: none; stroke: #1f77b4"/>
    <path d="M 193.328986 333.36 
L 193.328986 325.206 
" clip-path="url(#p0f3e218a20)" style="fill: none; stroke: #1f77b4"/>
    <path d="M 193.328986 333.36 
L 193.328986 325.206 
" clip-path="url(#p0f3e218a20)" style="fill: none; stroke: #1f77b4"/>
    <path d="M 193.328986 333.36 
L 193.328986 325.206 
" clip-path="url(#p0f3e218a20)" style="fill: none; stroke: #1f77b4"/>
    <path d="M 193.328986 333.36 
L 193.328986 325.206 
" clip-path="url(#p0f3e218a20)" style="fill: none; stroke: #1f77b4"/>
    <path d="M 171.991716 333.36 
L 171.991716 325.206 
" clip-path="url(#p0f3e218a20)" style="fill: none; stroke: #1f77b4"/>
    <path d="M 171.991716 333.36 
L 171.991716 325.206 
" clip-path="url(#p0f3e218a20)" style="fill: none; stroke: #1f77b4"/>
    <path d="M 171.991716 333.36 
L 171.991716 325.206 
" clip-path="url(#p0f3e218a20)" style="fill: none; stroke: #1f77b4"/>
    <path d="M 171.991716 333.36 
L 171.991716 325.206 
" clip-path="url(#p0f3e218a20)" style="fill: none; stroke: #1f77b4"/>
    <path d="M 171.991716 333.36 
L 171.991716 325.206 
" clip-path="url(#p0f3e218a20)" style="fill: none; stroke: #1f77b4"/>
    <path d="M 171.991716 333.36 
L 171.991716 325.206 
" clip-path="url(#p0f3e218a20)" style="fill: none; stroke: #1f77b4"/>
    <path d="M 171.991716 333.36 
L 171.991716 325.206 
" clip-path="url(#p0f3e218a20)" style="fill: none; stroke: #1f77b4"/>
    <path d="M 171.991716 333.36 
L 171.991716 325.206 
" clip-path="url(#p0f3e218a20)" style="fill: none; stroke: #1f77b4"/>
    <path d="M 193.328986 333.36 
L 193.328986 325.206 
" clip-path="url(#p0f3e218a20)" style="fill: none; stroke: #1f77b4"/>
    <path d="M 193.328986 333.36 
L 193.328986 325.206 
" clip-path="url(#p0f3e218a20)" style="fill: none; stroke: #1f77b4"/>
    <path d="M 193.328986 333.36 
L 193.328986 325.206 
" clip-path="url(#p0f3e218a20)" style="fill: none; stroke: #1f77b4"/>
    <path d="M 193.328986 333.36 
L 193.328986 325.206 
" clip-path="url(#p0f3e218a20)" style="fill: none; stroke: #1f77b4"/>
    <path d="M 193.328986 333.36 
L 193.328986 325.206 
" clip-path="url(#p0f3e218a20)" style="fill: none; stroke: #1f77b4"/>
    <path d="M 193.328986 333.36 
L 193.328986 325.206 
" clip-path="url(#p0f3e218a20)" style="fill: none; stroke: #1f77b4"/>
    <path d="M 150.654445 333.36 
L 150.654445 325.206 
" clip-path="url(#p0f3e218a20)" style="fill: none; stroke: #1f77b4"/>
    <path d="M 150.654445 333.36 
L 150.654445 325.206 
" clip-path="url(#p0f3e218a20)" style="fill: none; stroke: #1f77b4"/>
    <path d="M 182.660351 333.36 
L 182.660351 325.206 
" clip-path="url(#p0f3e218a20)" style="fill: none; stroke: #1f77b4"/>
    <path d="M 161.32308 333.36 
L 161.32308 325.206 
" clip-path="url(#p0f3e218a20)" style="fill: none; stroke: #1f77b4"/>
    <path d="M 161.32308 333.36 
L 161.32308 325.206 
" clip-path="url(#p0f3e218a20)" style="fill: none; stroke: #1f77b4"/>
    <path d="M 161.32308 333.36 
L 161.32308 325.206 
" clip-path="url(#p0f3e218a20)" style="fill: none; stroke: #1f77b4"/>
    <path d="M 171.991716 333.36 
L 171.991716 325.206 
" clip-path="url(#p0f3e218a20)" style="fill: none; stroke: #1f77b4"/>
    <path d="M 171.991716 333.36 
L 171.991716 325.206 
" clip-path="url(#p0f3e218a20)" style="fill: none; stroke: #1f77b4"/>
    <path d="M 161.32308 333.36 
L 161.32308 325.206 
" clip-path="url(#p0f3e218a20)" style="fill: none; stroke: #1f77b4"/>
    <path d="M 161.32308 333.36 
L 161.32308 325.206 
" clip-path="url(#p0f3e218a20)" style="fill: none; stroke: #1f77b4"/>
    <path d="M 182.660351 333.36 
L 182.660351 325.206 
" clip-path="url(#p0f3e218a20)" style="fill: none; stroke: #1f77b4"/>
    <path d="M 182.660351 333.36 
L 182.660351 325.206 
" clip-path="url(#p0f3e218a20)" style="fill: none; stroke: #1f77b4"/>
    <path d="M 182.660351 333.36 
L 182.660351 325.206 
" clip-path="url(#p0f3e218a20)" style="fill: none; stroke: #1f77b4"/>
    <path d="M 182.660351 333.36 
L 182.660351 325.206 
" clip-path="url(#p0f3e218a20)" style="fill: none; stroke: #1f77b4"/>
    <path d="M 182.660351 333.36 
L 182.660351 325.206 
" clip-path="url(#p0f3e218a20)" style="fill: none; stroke: #1f77b4"/>
    <path d="M 182.660351 333.36 
L 182.660351 325.206 
" clip-path="url(#p0f3e218a20)" style="fill: none; stroke: #1f77b4"/>
    <path d="M 182.660351 333.36 
L 182.660351 325.206 
" clip-path="url(#p0f3e218a20)" style="fill: none; stroke: #1f77b4"/>
    <path d="M 182.660351 333.36 
L 182.660351 325.206 
" clip-path="url(#p0f3e218a20)" style="fill: none; stroke: #1f77b4"/>
    <path d="M 182.660351 333.36 
L 182.660351 325.206 
" clip-path="url(#p0f3e218a20)" style="fill: none; stroke: #1f77b4"/>
    <path d="M 182.660351 333.36 
L 182.660351 325.206 
" clip-path="url(#p0f3e218a20)" style="fill: none; stroke: #1f77b4"/>
    <path d="M 182.660351 333.36 
L 182.660351 325.206 
" clip-path="url(#p0f3e218a20)" style="fill: none; stroke: #1f77b4"/>
    <path d="M 182.660351 333.36 
L 182.660351 325.206 
" clip-path="url(#p0f3e218a20)" style="fill: none; stroke: #1f77b4"/>
    <path d="M 182.660351 333.36 
L 182.660351 325.206 
" clip-path="url(#p0f3e218a20)" style="fill: none; stroke: #1f77b4"/>
    <path d="M 193.328986 333.36 
L 193.328986 325.206 
" clip-path="url(#p0f3e218a20)" style="fill: none; stroke: #1f77b4"/>
    <path d="M 193.328986 333.36 
L 193.328986 325.206 
" clip-path="url(#p0f3e218a20)" style="fill: none; stroke: #1f77b4"/>
    <path d="M 193.328986 333.36 
L 193.328986 325.206 
" clip-path="url(#p0f3e218a20)" style="fill: none; stroke: #1f77b4"/>
    <path d="M 193.328986 333.36 
L 193.328986 325.206 
" clip-path="url(#p0f3e218a20)" style="fill: none; stroke: #1f77b4"/>
    <path d="M 225.334892 333.36 
L 225.334892 325.206 
" clip-path="url(#p0f3e218a20)" style="fill: none; stroke: #1f77b4"/>
    <path d="M 225.334892 333.36 
L 225.334892 325.206 
" clip-path="url(#p0f3e218a20)" style="fill: none; stroke: #1f77b4"/>
    <path d="M 225.334892 333.36 
L 225.334892 325.206 
" clip-path="url(#p0f3e218a20)" style="fill: none; stroke: #1f77b4"/>
    <path d="M 225.334892 333.36 
L 225.334892 325.206 
" clip-path="url(#p0f3e218a20)" style="fill: none; stroke: #1f77b4"/>
    <path d="M 225.334892 333.36 
L 225.334892 325.206 
" clip-path="url(#p0f3e218a20)" style="fill: none; stroke: #1f77b4"/>
    <path d="M 225.334892 333.36 
L 225.334892 325.206 
" clip-path="url(#p0f3e218a20)" style="fill: none; stroke: #1f77b4"/>
    <path d="M 225.334892 333.36 
L 225.334892 325.206 
" clip-path="url(#p0f3e218a20)" style="fill: none; stroke: #1f77b4"/>
    <path d="M 225.334892 333.36 
L 225.334892 325.206 
" clip-path="url(#p0f3e218a20)" style="fill: none; stroke: #1f77b4"/>
    <path d="M 225.334892 333.36 
L 225.334892 325.206 
" clip-path="url(#p0f3e218a20)" style="fill: none; stroke: #1f77b4"/>
    <path d="M 225.334892 333.36 
L 225.334892 325.206 
" clip-path="url(#p0f3e218a20)" style="fill: none; stroke: #1f77b4"/>
    <path d="M 225.334892 333.36 
L 225.334892 325.206 
" clip-path="url(#p0f3e218a20)" style="fill: none; stroke: #1f77b4"/>
    <path d="M 225.334892 333.36 
L 225.334892 325.206 
" clip-path="url(#p0f3e218a20)" style="fill: none; stroke: #1f77b4"/>
    <path d="M 225.334892 333.36 
L 225.334892 325.206 
" clip-path="url(#p0f3e218a20)" style="fill: none; stroke: #1f77b4"/>
    <path d="M 225.334892 333.36 
L 225.334892 325.206 
" clip-path="url(#p0f3e218a20)" style="fill: none; stroke: #1f77b4"/>
    <path d="M 225.334892 333.36 
L 225.334892 325.206 
" clip-path="url(#p0f3e218a20)" style="fill: none; stroke: #1f77b4"/>
    <path d="M 225.334892 333.36 
L 225.334892 325.206 
" clip-path="url(#p0f3e218a20)" style="fill: none; stroke: #1f77b4"/>
    <path d="M 225.334892 333.36 
L 225.334892 325.206 
" clip-path="url(#p0f3e218a20)" style="fill: none; stroke: #1f77b4"/>
    <path d="M 225.334892 333.36 
L 225.334892 325.206 
" clip-path="url(#p0f3e218a20)" style="fill: none; stroke: #1f77b4"/>
    <path d="M 203.997621 333.36 
L 203.997621 325.206 
" clip-path="url(#p0f3e218a20)" style="fill: none; stroke: #1f77b4"/>
    <path d="M 203.997621 333.36 
L 203.997621 325.206 
" clip-path="url(#p0f3e218a20)" style="fill: none; stroke: #1f77b4"/>
    <path d="M 203.997621 333.36 
L 203.997621 325.206 
" clip-path="url(#p0f3e218a20)" style="fill: none; stroke: #1f77b4"/>
    <path d="M 203.997621 333.36 
L 203.997621 325.206 
" clip-path="url(#p0f3e218a20)" style="fill: none; stroke: #1f77b4"/>
    <path d="M 203.997621 333.36 
L 203.997621 325.206 
" clip-path="url(#p0f3e218a20)" style="fill: none; stroke: #1f77b4"/>
    <path d="M 203.997621 333.36 
L 203.997621 325.206 
" clip-path="url(#p0f3e218a20)" style="fill: none; stroke: #1f77b4"/>
    <path d="M 214.666256 333.36 
L 214.666256 325.206 
" clip-path="url(#p0f3e218a20)" style="fill: none; stroke: #1f77b4"/>
    <path d="M 214.666256 333.36 
L 214.666256 325.206 
" clip-path="url(#p0f3e218a20)" style="fill: none; stroke: #1f77b4"/>
    <path d="M 214.666256 333.36 
L 214.666256 325.206 
" clip-path="url(#p0f3e218a20)" style="fill: none; stroke: #1f77b4"/>
    <path d="M 214.666256 333.36 
L 214.666256 325.206 
" clip-path="url(#p0f3e218a20)" style="fill: none; stroke: #1f77b4"/>
    <path d="M 214.666256 333.36 
L 214.666256 325.206 
" clip-path="url(#p0f3e218a20)" style="fill: none; stroke: #1f77b4"/>
    <path d="M 214.666256 333.36 
L 214.666256 325.206 
" clip-path="url(#p0f3e218a20)" style="fill: none; stroke: #1f77b4"/>
    <path d="M 214.666256 333.36 
L 214.666256 325.206 
" clip-path="url(#p0f3e218a20)" style="fill: none; stroke: #1f77b4"/>
    <path d="M 214.666256 333.36 
L 214.666256 325.206 
" clip-path="url(#p0f3e218a20)" style="fill: none; stroke: #1f77b4"/>
    <path d="M 214.666256 333.36 
L 214.666256 325.206 
" clip-path="url(#p0f3e218a20)" style="fill: none; stroke: #1f77b4"/>
    <path d="M 214.666256 333.36 
L 214.666256 325.206 
" clip-path="url(#p0f3e218a20)" style="fill: none; stroke: #1f77b4"/>
    <path d="M 150.654445 333.36 
L 150.654445 325.206 
" clip-path="url(#p0f3e218a20)" style="fill: none; stroke: #1f77b4"/>
    <path d="M 150.654445 333.36 
L 150.654445 325.206 
" clip-path="url(#p0f3e218a20)" style="fill: none; stroke: #1f77b4"/>
    <path d="M 171.991716 333.36 
L 171.991716 325.206 
" clip-path="url(#p0f3e218a20)" style="fill: none; stroke: #1f77b4"/>
    <path d="M 193.328986 333.36 
L 193.328986 325.206 
" clip-path="url(#p0f3e218a20)" style="fill: none; stroke: #1f77b4"/>
    <path d="M 193.328986 333.36 
L 193.328986 325.206 
" clip-path="url(#p0f3e218a20)" style="fill: none; stroke: #1f77b4"/>
    <path d="M 193.328986 333.36 
L 193.328986 325.206 
" clip-path="url(#p0f3e218a20)" style="fill: none; stroke: #1f77b4"/>
    <path d="M 193.328986 333.36 
L 193.328986 325.206 
" clip-path="url(#p0f3e218a20)" style="fill: none; stroke: #1f77b4"/>
    <path d="M 193.328986 333.36 
L 193.328986 325.206 
" clip-path="url(#p0f3e218a20)" style="fill: none; stroke: #1f77b4"/>
    <path d="M 193.328986 333.36 
L 193.328986 325.206 
" clip-path="url(#p0f3e218a20)" style="fill: none; stroke: #1f77b4"/>
    <path d="M 193.328986 333.36 
L 193.328986 325.206 
" clip-path="url(#p0f3e218a20)" style="fill: none; stroke: #1f77b4"/>
    <path d="M 193.328986 333.36 
L 193.328986 325.206 
" clip-path="url(#p0f3e218a20)" style="fill: none; stroke: #1f77b4"/>
    <path d="M 193.328986 333.36 
L 193.328986 325.206 
" clip-path="url(#p0f3e218a20)" style="fill: none; stroke: #1f77b4"/>
    <path d="M 193.328986 333.36 
L 193.328986 325.206 
" clip-path="url(#p0f3e218a20)" style="fill: none; stroke: #1f77b4"/>
    <path d="M 193.328986 333.36 
L 193.328986 325.206 
" clip-path="url(#p0f3e218a20)" style="fill: none; stroke: #1f77b4"/>
    <path d="M 193.328986 333.36 
L 193.328986 325.206 
" clip-path="url(#p0f3e218a20)" style="fill: none; stroke: #1f77b4"/>
    <path d="M 171.991716 333.36 
L 171.991716 325.206 
" clip-path="url(#p0f3e218a20)" style="fill: none; stroke: #1f77b4"/>
    <path d="M 171.991716 333.36 
L 171.991716 325.206 
" clip-path="url(#p0f3e218a20)" style="fill: none; stroke: #1f77b4"/>
    <path d="M 171.991716 333.36 
L 171.991716 325.206 
" clip-path="url(#p0f3e218a20)" style="fill: none; stroke: #1f77b4"/>
    <path d="M 171.991716 333.36 
L 171.991716 325.206 
" clip-path="url(#p0f3e218a20)" style="fill: none; stroke: #1f77b4"/>
    <path d="M 171.991716 333.36 
L 171.991716 325.206 
" clip-path="url(#p0f3e218a20)" style="fill: none; stroke: #1f77b4"/>
    <path d="M 182.660351 333.36 
L 182.660351 325.206 
" clip-path="url(#p0f3e218a20)" style="fill: none; stroke: #1f77b4"/>
    <path d="M 182.660351 333.36 
L 182.660351 325.206 
" clip-path="url(#p0f3e218a20)" style="fill: none; stroke: #1f77b4"/>
    <path d="M 182.660351 333.36 
L 182.660351 325.206 
" clip-path="url(#p0f3e218a20)" style="fill: none; stroke: #1f77b4"/>
    <path d="M 182.660351 333.36 
L 182.660351 325.206 
" clip-path="url(#p0f3e218a20)" style="fill: none; stroke: #1f77b4"/>
    <path d="M 182.660351 333.36 
L 182.660351 325.206 
" clip-path="url(#p0f3e218a20)" style="fill: none; stroke: #1f77b4"/>
    <path d="M 193.328986 333.36 
L 193.328986 325.206 
" clip-path="url(#p0f3e218a20)" style="fill: none; stroke: #1f77b4"/>
    <path d="M 193.328986 333.36 
L 193.328986 325.206 
" clip-path="url(#p0f3e218a20)" style="fill: none; stroke: #1f77b4"/>
    <path d="M 193.328986 333.36 
L 193.328986 325.206 
" clip-path="url(#p0f3e218a20)" style="fill: none; stroke: #1f77b4"/>
    <path d="M 193.328986 333.36 
L 193.328986 325.206 
" clip-path="url(#p0f3e218a20)" style="fill: none; stroke: #1f77b4"/>
    <path d="M 150.654445 333.36 
L 150.654445 325.206 
" clip-path="url(#p0f3e218a20)" style="fill: none; stroke: #1f77b4"/>
    <path d="M 150.654445 333.36 
L 150.654445 325.206 
" clip-path="url(#p0f3e218a20)" style="fill: none; stroke: #1f77b4"/>
    <path d="M 150.654445 333.36 
L 150.654445 325.206 
" clip-path="url(#p0f3e218a20)" style="fill: none; stroke: #1f77b4"/>
    <path d="M 150.654445 333.36 
L 150.654445 325.206 
" clip-path="url(#p0f3e218a20)" style="fill: none; stroke: #1f77b4"/>
    <path d="M 203.997621 333.36 
L 203.997621 325.206 
" clip-path="url(#p0f3e218a20)" style="fill: none; stroke: #1f77b4"/>
    <path d="M 203.997621 333.36 
L 203.997621 325.206 
" clip-path="url(#p0f3e218a20)" style="fill: none; stroke: #1f77b4"/>
    <path d="M 203.997621 333.36 
L 203.997621 325.206 
" clip-path="url(#p0f3e218a20)" style="fill: none; stroke: #1f77b4"/>
    <path d="M 182.660351 333.36 
L 182.660351 325.206 
" clip-path="url(#p0f3e218a20)" style="fill: none; stroke: #1f77b4"/>
    <path d="M 182.660351 333.36 
L 182.660351 325.206 
" clip-path="url(#p0f3e218a20)" style="fill: none; stroke: #1f77b4"/>
    <path d="M 182.660351 333.36 
L 182.660351 325.206 
" clip-path="url(#p0f3e218a20)" style="fill: none; stroke: #1f77b4"/>
    <path d="M 182.660351 333.36 
L 182.660351 325.206 
" clip-path="url(#p0f3e218a20)" style="fill: none; stroke: #1f77b4"/>
    <path d="M 182.660351 333.36 
L 182.660351 325.206 
" clip-path="url(#p0f3e218a20)" style="fill: none; stroke: #1f77b4"/>
    <path d="M 182.660351 333.36 
L 182.660351 325.206 
" clip-path="url(#p0f3e218a20)" style="fill: none; stroke: #1f77b4"/>
    <path d="M 182.660351 333.36 
L 182.660351 325.206 
" clip-path="url(#p0f3e218a20)" style="fill: none; stroke: #1f77b4"/>
    <path d="M 182.660351 333.36 
L 182.660351 325.206 
" clip-path="url(#p0f3e218a20)" style="fill: none; stroke: #1f77b4"/>
    <path d="M 193.328986 333.36 
L 193.328986 325.206 
" clip-path="url(#p0f3e218a20)" style="fill: none; stroke: #1f77b4"/>
    <path d="M 193.328986 333.36 
L 193.328986 325.206 
" clip-path="url(#p0f3e218a20)" style="fill: none; stroke: #1f77b4"/>
    <path d="M 193.328986 333.36 
L 193.328986 325.206 
" clip-path="url(#p0f3e218a20)" style="fill: none; stroke: #1f77b4"/>
    <path d="M 214.666256 333.36 
L 214.666256 325.206 
" clip-path="url(#p0f3e218a20)" style="fill: none; stroke: #1f77b4"/>
    <path d="M 214.666256 333.36 
L 214.666256 325.206 
" clip-path="url(#p0f3e218a20)" style="fill: none; stroke: #1f77b4"/>
    <path d="M 214.666256 333.36 
L 214.666256 325.206 
" clip-path="url(#p0f3e218a20)" style="fill: none; stroke: #1f77b4"/>
    <path d="M 214.666256 333.36 
L 214.666256 325.206 
" clip-path="url(#p0f3e218a20)" style="fill: none; stroke: #1f77b4"/>
    <path d="M 214.666256 333.36 
L 214.666256 325.206 
" clip-path="url(#p0f3e218a20)" style="fill: none; stroke: #1f77b4"/>
    <path d="M 214.666256 333.36 
L 214.666256 325.206 
" clip-path="url(#p0f3e218a20)" style="fill: none; stroke: #1f77b4"/>
    <path d="M 214.666256 333.36 
L 214.666256 325.206 
" clip-path="url(#p0f3e218a20)" style="fill: none; stroke: #1f77b4"/>
    <path d="M 182.660351 333.36 
L 182.660351 325.206 
" clip-path="url(#p0f3e218a20)" style="fill: none; stroke: #1f77b4"/>
    <path d="M 182.660351 333.36 
L 182.660351 325.206 
" clip-path="url(#p0f3e218a20)" style="fill: none; stroke: #1f77b4"/>
    <path d="M 182.660351 333.36 
L 182.660351 325.206 
" clip-path="url(#p0f3e218a20)" style="fill: none; stroke: #1f77b4"/>
    <path d="M 182.660351 333.36 
L 182.660351 325.206 
" clip-path="url(#p0f3e218a20)" style="fill: none; stroke: #1f77b4"/>
    <path d="M 182.660351 333.36 
L 182.660351 325.206 
" clip-path="url(#p0f3e218a20)" style="fill: none; stroke: #1f77b4"/>
    <path d="M 182.660351 333.36 
L 182.660351 325.206 
" clip-path="url(#p0f3e218a20)" style="fill: none; stroke: #1f77b4"/>
    <path d="M 182.660351 333.36 
L 182.660351 325.206 
" clip-path="url(#p0f3e218a20)" style="fill: none; stroke: #1f77b4"/>
    <path d="M 182.660351 333.36 
L 182.660351 325.206 
" clip-path="url(#p0f3e218a20)" style="fill: none; stroke: #1f77b4"/>
    <path d="M 182.660351 333.36 
L 182.660351 325.206 
" clip-path="url(#p0f3e218a20)" style="fill: none; stroke: #1f77b4"/>
    <path d="M 182.660351 333.36 
L 182.660351 325.206 
" clip-path="url(#p0f3e218a20)" style="fill: none; stroke: #1f77b4"/>
    <path d="M 182.660351 333.36 
L 182.660351 325.206 
" clip-path="url(#p0f3e218a20)" style="fill: none; stroke: #1f77b4"/>
    <path d="M 182.660351 333.36 
L 182.660351 325.206 
" clip-path="url(#p0f3e218a20)" style="fill: none; stroke: #1f77b4"/>
    <path d="M 193.328986 333.36 
L 193.328986 325.206 
" clip-path="url(#p0f3e218a20)" style="fill: none; stroke: #1f77b4"/>
    <path d="M 193.328986 333.36 
L 193.328986 325.206 
" clip-path="url(#p0f3e218a20)" style="fill: none; stroke: #1f77b4"/>
    <path d="M 193.328986 333.36 
L 193.328986 325.206 
" clip-path="url(#p0f3e218a20)" style="fill: none; stroke: #1f77b4"/>
    <path d="M 193.328986 333.36 
L 193.328986 325.206 
" clip-path="url(#p0f3e218a20)" style="fill: none; stroke: #1f77b4"/>
    <path d="M 193.328986 333.36 
L 193.328986 325.206 
" clip-path="url(#p0f3e218a20)" style="fill: none; stroke: #1f77b4"/>
    <path d="M 193.328986 333.36 
L 193.328986 325.206 
" clip-path="url(#p0f3e218a20)" style="fill: none; stroke: #1f77b4"/>
    <path d="M 193.328986 333.36 
L 193.328986 325.206 
" clip-path="url(#p0f3e218a20)" style="fill: none; stroke: #1f77b4"/>
    <path d="M 193.328986 333.36 
L 193.328986 325.206 
" clip-path="url(#p0f3e218a20)" style="fill: none; stroke: #1f77b4"/>
    <path d="M 182.660351 333.36 
L 182.660351 325.206 
" clip-path="url(#p0f3e218a20)" style="fill: none; stroke: #1f77b4"/>
    <path d="M 182.660351 333.36 
L 182.660351 325.206 
" clip-path="url(#p0f3e218a20)" style="fill: none; stroke: #1f77b4"/>
    <path d="M 182.660351 333.36 
L 182.660351 325.206 
" clip-path="url(#p0f3e218a20)" style="fill: none; stroke: #1f77b4"/>
    <path d="M 150.654445 333.36 
L 150.654445 325.206 
" clip-path="url(#p0f3e218a20)" style="fill: none; stroke: #1f77b4"/>
    <path d="M 150.654445 333.36 
L 150.654445 325.206 
" clip-path="url(#p0f3e218a20)" style="fill: none; stroke: #1f77b4"/>
    <path d="M 193.328986 333.36 
L 193.328986 325.206 
" clip-path="url(#p0f3e218a20)" style="fill: none; stroke: #1f77b4"/>
    <path d="M 193.328986 333.36 
L 193.328986 325.206 
" clip-path="url(#p0f3e218a20)" style="fill: none; stroke: #1f77b4"/>
    <path d="M 193.328986 333.36 
L 193.328986 325.206 
" clip-path="url(#p0f3e218a20)" style="fill: none; stroke: #1f77b4"/>
    <path d="M 193.328986 333.36 
L 193.328986 325.206 
" clip-path="url(#p0f3e218a20)" style="fill: none; stroke: #1f77b4"/>
    <path d="M 193.328986 333.36 
L 193.328986 325.206 
" clip-path="url(#p0f3e218a20)" style="fill: none; stroke: #1f77b4"/>
    <path d="M 193.328986 333.36 
L 193.328986 325.206 
" clip-path="url(#p0f3e218a20)" style="fill: none; stroke: #1f77b4"/>
    <path d="M 193.328986 333.36 
L 193.328986 325.206 
" clip-path="url(#p0f3e218a20)" style="fill: none; stroke: #1f77b4"/>
    <path d="M 193.328986 333.36 
L 193.328986 325.206 
" clip-path="url(#p0f3e218a20)" style="fill: none; stroke: #1f77b4"/>
    <path d="M 150.654445 333.36 
L 150.654445 325.206 
" clip-path="url(#p0f3e218a20)" style="fill: none; stroke: #1f77b4"/>
    <path d="M 150.654445 333.36 
L 150.654445 325.206 
" clip-path="url(#p0f3e218a20)" style="fill: none; stroke: #1f77b4"/>
    <path d="M 193.328986 333.36 
L 193.328986 325.206 
" clip-path="url(#p0f3e218a20)" style="fill: none; stroke: #1f77b4"/>
    <path d="M 193.328986 333.36 
L 193.328986 325.206 
" clip-path="url(#p0f3e218a20)" style="fill: none; stroke: #1f77b4"/>
    <path d="M 171.991716 333.36 
L 171.991716 325.206 
" clip-path="url(#p0f3e218a20)" style="fill: none; stroke: #1f77b4"/>
    <path d="M 171.991716 333.36 
L 171.991716 325.206 
" clip-path="url(#p0f3e218a20)" style="fill: none; stroke: #1f77b4"/>
    <path d="M 182.660351 333.36 
L 182.660351 325.206 
" clip-path="url(#p0f3e218a20)" style="fill: none; stroke: #1f77b4"/>
    <path d="M 182.660351 333.36 
L 182.660351 325.206 
" clip-path="url(#p0f3e218a20)" style="fill: none; stroke: #1f77b4"/>
    <path d="M 150.654445 333.36 
L 150.654445 325.206 
" clip-path="url(#p0f3e218a20)" style="fill: none; stroke: #1f77b4"/>
    <path d="M 150.654445 333.36 
L 150.654445 325.206 
" clip-path="url(#p0f3e218a20)" style="fill: none; stroke: #1f77b4"/>
    <path d="M 182.660351 333.36 
L 182.660351 325.206 
" clip-path="url(#p0f3e218a20)" style="fill: none; stroke: #1f77b4"/>
    <path d="M 182.660351 333.36 
L 182.660351 325.206 
" clip-path="url(#p0f3e218a20)" style="fill: none; stroke: #1f77b4"/>
    <path d="M 193.328986 333.36 
L 193.328986 325.206 
" clip-path="url(#p0f3e218a20)" style="fill: none; stroke: #1f77b4"/>
    <path d="M 182.660351 333.36 
L 182.660351 325.206 
" clip-path="url(#p0f3e218a20)" style="fill: none; stroke: #1f77b4"/>
    <path d="M 182.660351 333.36 
L 182.660351 325.206 
" clip-path="url(#p0f3e218a20)" style="fill: none; stroke: #1f77b4"/>
    <path d="M 396.033055 333.36 
L 396.033055 325.206 
" clip-path="url(#p0f3e218a20)" style="fill: none; stroke: #1f77b4"/>
    <path d="M 396.033055 333.36 
L 396.033055 325.206 
" clip-path="url(#p0f3e218a20)" style="fill: none; stroke: #1f77b4"/>
    <path d="M 396.033055 333.36 
L 396.033055 325.206 
" clip-path="url(#p0f3e218a20)" style="fill: none; stroke: #1f77b4"/>
    <path d="M 396.033055 333.36 
L 396.033055 325.206 
" clip-path="url(#p0f3e218a20)" style="fill: none; stroke: #1f77b4"/>
    <path d="M 396.033055 333.36 
L 396.033055 325.206 
" clip-path="url(#p0f3e218a20)" style="fill: none; stroke: #1f77b4"/>
    <path d="M 396.033055 333.36 
L 396.033055 325.206 
" clip-path="url(#p0f3e218a20)" style="fill: none; stroke: #1f77b4"/>
    <path d="M 396.033055 333.36 
L 396.033055 325.206 
" clip-path="url(#p0f3e218a20)" style="fill: none; stroke: #1f77b4"/>
    <path d="M 396.033055 333.36 
L 396.033055 325.206 
" clip-path="url(#p0f3e218a20)" style="fill: none; stroke: #1f77b4"/>
    <path d="M 396.033055 333.36 
L 396.033055 325.206 
" clip-path="url(#p0f3e218a20)" style="fill: none; stroke: #1f77b4"/>
    <path d="M 396.033055 333.36 
L 396.033055 325.206 
" clip-path="url(#p0f3e218a20)" style="fill: none; stroke: #1f77b4"/>
    <path d="M 396.033055 333.36 
L 396.033055 325.206 
" clip-path="url(#p0f3e218a20)" style="fill: none; stroke: #1f77b4"/>
    <path d="M 396.033055 333.36 
L 396.033055 325.206 
" clip-path="url(#p0f3e218a20)" style="fill: none; stroke: #1f77b4"/>
    <path d="M 396.033055 333.36 
L 396.033055 325.206 
" clip-path="url(#p0f3e218a20)" style="fill: none; stroke: #1f77b4"/>
    <path d="M 396.033055 333.36 
L 396.033055 325.206 
" clip-path="url(#p0f3e218a20)" style="fill: none; stroke: #1f77b4"/>
    <path d="M 396.033055 333.36 
L 396.033055 325.206 
" clip-path="url(#p0f3e218a20)" style="fill: none; stroke: #1f77b4"/>
    <path d="M 396.033055 333.36 
L 396.033055 325.206 
" clip-path="url(#p0f3e218a20)" style="fill: none; stroke: #1f77b4"/>
    <path d="M 396.033055 333.36 
L 396.033055 325.206 
" clip-path="url(#p0f3e218a20)" style="fill: none; stroke: #1f77b4"/>
    <path d="M 396.033055 333.36 
L 396.033055 325.206 
" clip-path="url(#p0f3e218a20)" style="fill: none; stroke: #1f77b4"/>
    <path d="M 396.033055 333.36 
L 396.033055 325.206 
" clip-path="url(#p0f3e218a20)" style="fill: none; stroke: #1f77b4"/>
    <path d="M 396.033055 333.36 
L 396.033055 325.206 
" clip-path="url(#p0f3e218a20)" style="fill: none; stroke: #1f77b4"/>
    <path d="M 396.033055 333.36 
L 396.033055 325.206 
" clip-path="url(#p0f3e218a20)" style="fill: none; stroke: #1f77b4"/>
    <path d="M 396.033055 333.36 
L 396.033055 325.206 
" clip-path="url(#p0f3e218a20)" style="fill: none; stroke: #1f77b4"/>
    <path d="M 396.033055 333.36 
L 396.033055 325.206 
" clip-path="url(#p0f3e218a20)" style="fill: none; stroke: #1f77b4"/>
    <path d="M 396.033055 333.36 
L 396.033055 325.206 
" clip-path="url(#p0f3e218a20)" style="fill: none; stroke: #1f77b4"/>
    <path d="M 396.033055 333.36 
L 396.033055 325.206 
" clip-path="url(#p0f3e218a20)" style="fill: none; stroke: #1f77b4"/>
    <path d="M 396.033055 333.36 
L 396.033055 325.206 
" clip-path="url(#p0f3e218a20)" style="fill: none; stroke: #1f77b4"/>
    <path d="M 396.033055 333.36 
L 396.033055 325.206 
" clip-path="url(#p0f3e218a20)" style="fill: none; stroke: #1f77b4"/>
    <path d="M 396.033055 333.36 
L 396.033055 325.206 
" clip-path="url(#p0f3e218a20)" style="fill: none; stroke: #1f77b4"/>
    <path d="M 396.033055 333.36 
L 396.033055 325.206 
" clip-path="url(#p0f3e218a20)" style="fill: none; stroke: #1f77b4"/>
    <path d="M 396.033055 333.36 
L 396.033055 325.206 
" clip-path="url(#p0f3e218a20)" style="fill: none; stroke: #1f77b4"/>
    <path d="M 396.033055 333.36 
L 396.033055 325.206 
" clip-path="url(#p0f3e218a20)" style="fill: none; stroke: #1f77b4"/>
    <path d="M 396.033055 333.36 
L 396.033055 325.206 
" clip-path="url(#p0f3e218a20)" style="fill: none; stroke: #1f77b4"/>
    <path d="M 396.033055 333.36 
L 396.033055 325.206 
" clip-path="url(#p0f3e218a20)" style="fill: none; stroke: #1f77b4"/>
    <path d="M 396.033055 333.36 
L 396.033055 325.206 
" clip-path="url(#p0f3e218a20)" style="fill: none; stroke: #1f77b4"/>
    <path d="M 396.033055 333.36 
L 396.033055 325.206 
" clip-path="url(#p0f3e218a20)" style="fill: none; stroke: #1f77b4"/>
    <path d="M 396.033055 333.36 
L 396.033055 325.206 
" clip-path="url(#p0f3e218a20)" style="fill: none; stroke: #1f77b4"/>
    <path d="M 396.033055 333.36 
L 396.033055 325.206 
" clip-path="url(#p0f3e218a20)" style="fill: none; stroke: #1f77b4"/>
    <path d="M 396.033055 333.36 
L 396.033055 325.206 
" clip-path="url(#p0f3e218a20)" style="fill: none; stroke: #1f77b4"/>
    <path d="M 396.033055 333.36 
L 396.033055 325.206 
" clip-path="url(#p0f3e218a20)" style="fill: none; stroke: #1f77b4"/>
    <path d="M 396.033055 333.36 
L 396.033055 325.206 
" clip-path="url(#p0f3e218a20)" style="fill: none; stroke: #1f77b4"/>
    <path d="M 396.033055 333.36 
L 396.033055 325.206 
" clip-path="url(#p0f3e218a20)" style="fill: none; stroke: #1f77b4"/>
    <path d="M 396.033055 333.36 
L 396.033055 325.206 
" clip-path="url(#p0f3e218a20)" style="fill: none; stroke: #1f77b4"/>
    <path d="M 396.033055 333.36 
L 396.033055 325.206 
" clip-path="url(#p0f3e218a20)" style="fill: none; stroke: #1f77b4"/>
    <path d="M 396.033055 333.36 
L 396.033055 325.206 
" clip-path="url(#p0f3e218a20)" style="fill: none; stroke: #1f77b4"/>
    <path d="M 396.033055 333.36 
L 396.033055 325.206 
" clip-path="url(#p0f3e218a20)" style="fill: none; stroke: #1f77b4"/>
    <path d="M 396.033055 333.36 
L 396.033055 325.206 
" clip-path="url(#p0f3e218a20)" style="fill: none; stroke: #1f77b4"/>
    <path d="M 396.033055 333.36 
L 396.033055 325.206 
" clip-path="url(#p0f3e218a20)" style="fill: none; stroke: #1f77b4"/>
    <path d="M 396.033055 333.36 
L 396.033055 325.206 
" clip-path="url(#p0f3e218a20)" style="fill: none; stroke: #1f77b4"/>
    <path d="M 396.033055 333.36 
L 396.033055 325.206 
" clip-path="url(#p0f3e218a20)" style="fill: none; stroke: #1f77b4"/>
    <path d="M 396.033055 333.36 
L 396.033055 325.206 
" clip-path="url(#p0f3e218a20)" style="fill: none; stroke: #1f77b4"/>
    <path d="M 396.033055 333.36 
L 396.033055 325.206 
" clip-path="url(#p0f3e218a20)" style="fill: none; stroke: #1f77b4"/>
    <path d="M 396.033055 333.36 
L 396.033055 325.206 
" clip-path="url(#p0f3e218a20)" style="fill: none; stroke: #1f77b4"/>
    <path d="M 396.033055 333.36 
L 396.033055 325.206 
" clip-path="url(#p0f3e218a20)" style="fill: none; stroke: #1f77b4"/>
    <path d="M 396.033055 333.36 
L 396.033055 325.206 
" clip-path="url(#p0f3e218a20)" style="fill: none; stroke: #1f77b4"/>
    <path d="M 396.033055 333.36 
L 396.033055 325.206 
" clip-path="url(#p0f3e218a20)" style="fill: none; stroke: #1f77b4"/>
    <path d="M 396.033055 333.36 
L 396.033055 325.206 
" clip-path="url(#p0f3e218a20)" style="fill: none; stroke: #1f77b4"/>
    <path d="M 396.033055 333.36 
L 396.033055 325.206 
" clip-path="url(#p0f3e218a20)" style="fill: none; stroke: #1f77b4"/>
    <path d="M 396.033055 333.36 
L 396.033055 325.206 
" clip-path="url(#p0f3e218a20)" style="fill: none; stroke: #1f77b4"/>
    <path d="M 396.033055 333.36 
L 396.033055 325.206 
" clip-path="url(#p0f3e218a20)" style="fill: none; stroke: #1f77b4"/>
    <path d="M 396.033055 333.36 
L 396.033055 325.206 
" clip-path="url(#p0f3e218a20)" style="fill: none; stroke: #1f77b4"/>
    <path d="M 396.033055 333.36 
L 396.033055 325.206 
" clip-path="url(#p0f3e218a20)" style="fill: none; stroke: #1f77b4"/>
    <path d="M 396.033055 333.36 
L 396.033055 325.206 
" clip-path="url(#p0f3e218a20)" style="fill: none; stroke: #1f77b4"/>
    <path d="M 396.033055 333.36 
L 396.033055 325.206 
" clip-path="url(#p0f3e218a20)" style="fill: none; stroke: #1f77b4"/>
    <path d="M 396.033055 333.36 
L 396.033055 325.206 
" clip-path="url(#p0f3e218a20)" style="fill: none; stroke: #1f77b4"/>
    <path d="M 396.033055 333.36 
L 396.033055 325.206 
" clip-path="url(#p0f3e218a20)" style="fill: none; stroke: #1f77b4"/>
    <path d="M 396.033055 333.36 
L 396.033055 325.206 
" clip-path="url(#p0f3e218a20)" style="fill: none; stroke: #1f77b4"/>
    <path d="M 396.033055 333.36 
L 396.033055 325.206 
" clip-path="url(#p0f3e218a20)" style="fill: none; stroke: #1f77b4"/>
    <path d="M 396.033055 333.36 
L 396.033055 325.206 
" clip-path="url(#p0f3e218a20)" style="fill: none; stroke: #1f77b4"/>
    <path d="M 396.033055 333.36 
L 396.033055 325.206 
" clip-path="url(#p0f3e218a20)" style="fill: none; stroke: #1f77b4"/>
    <path d="M 396.033055 333.36 
L 396.033055 325.206 
" clip-path="url(#p0f3e218a20)" style="fill: none; stroke: #1f77b4"/>
    <path d="M 396.033055 333.36 
L 396.033055 325.206 
" clip-path="url(#p0f3e218a20)" style="fill: none; stroke: #1f77b4"/>
    <path d="M 396.033055 333.36 
L 396.033055 325.206 
" clip-path="url(#p0f3e218a20)" style="fill: none; stroke: #1f77b4"/>
    <path d="M 396.033055 333.36 
L 396.033055 325.206 
" clip-path="url(#p0f3e218a20)" style="fill: none; stroke: #1f77b4"/>
    <path d="M 396.033055 333.36 
L 396.033055 325.206 
" clip-path="url(#p0f3e218a20)" style="fill: none; stroke: #1f77b4"/>
    <path d="M 396.033055 333.36 
L 396.033055 325.206 
" clip-path="url(#p0f3e218a20)" style="fill: none; stroke: #1f77b4"/>
    <path d="M 396.033055 333.36 
L 396.033055 325.206 
" clip-path="url(#p0f3e218a20)" style="fill: none; stroke: #1f77b4"/>
    <path d="M 396.033055 333.36 
L 396.033055 325.206 
" clip-path="url(#p0f3e218a20)" style="fill: none; stroke: #1f77b4"/>
    <path d="M 396.033055 333.36 
L 396.033055 325.206 
" clip-path="url(#p0f3e218a20)" style="fill: none; stroke: #1f77b4"/>
    <path d="M 396.033055 333.36 
L 396.033055 325.206 
" clip-path="url(#p0f3e218a20)" style="fill: none; stroke: #1f77b4"/>
    <path d="M 396.033055 333.36 
L 396.033055 325.206 
" clip-path="url(#p0f3e218a20)" style="fill: none; stroke: #1f77b4"/>
    <path d="M 396.033055 333.36 
L 396.033055 325.206 
" clip-path="url(#p0f3e218a20)" style="fill: none; stroke: #1f77b4"/>
    <path d="M 396.033055 333.36 
L 396.033055 325.206 
" clip-path="url(#p0f3e218a20)" style="fill: none; stroke: #1f77b4"/>
    <path d="M 396.033055 333.36 
L 396.033055 325.206 
" clip-path="url(#p0f3e218a20)" style="fill: none; stroke: #1f77b4"/>
    <path d="M 396.033055 333.36 
L 396.033055 325.206 
" clip-path="url(#p0f3e218a20)" style="fill: none; stroke: #1f77b4"/>
    <path d="M 396.033055 333.36 
L 396.033055 325.206 
" clip-path="url(#p0f3e218a20)" style="fill: none; stroke: #1f77b4"/>
    <path d="M 396.033055 333.36 
L 396.033055 325.206 
" clip-path="url(#p0f3e218a20)" style="fill: none; stroke: #1f77b4"/>
    <path d="M 396.033055 333.36 
L 396.033055 325.206 
" clip-path="url(#p0f3e218a20)" style="fill: none; stroke: #1f77b4"/>
    <path d="M 396.033055 333.36 
L 396.033055 325.206 
" clip-path="url(#p0f3e218a20)" style="fill: none; stroke: #1f77b4"/>
    <path d="M 396.033055 333.36 
L 396.033055 325.206 
" clip-path="url(#p0f3e218a20)" style="fill: none; stroke: #1f77b4"/>
    <path d="M 396.033055 333.36 
L 396.033055 325.206 
" clip-path="url(#p0f3e218a20)" style="fill: none; stroke: #1f77b4"/>
    <path d="M 396.033055 333.36 
L 396.033055 325.206 
" clip-path="url(#p0f3e218a20)" style="fill: none; stroke: #1f77b4"/>
    <path d="M 396.033055 333.36 
L 396.033055 325.206 
" clip-path="url(#p0f3e218a20)" style="fill: none; stroke: #1f77b4"/>
    <path d="M 396.033055 333.36 
L 396.033055 325.206 
" clip-path="url(#p0f3e218a20)" style="fill: none; stroke: #1f77b4"/>
    <path d="M 396.033055 333.36 
L 396.033055 325.206 
" clip-path="url(#p0f3e218a20)" style="fill: none; stroke: #1f77b4"/>
    <path d="M 396.033055 333.36 
L 396.033055 325.206 
" clip-path="url(#p0f3e218a20)" style="fill: none; stroke: #1f77b4"/>
    <path d="M 396.033055 333.36 
L 396.033055 325.206 
" clip-path="url(#p0f3e218a20)" style="fill: none; stroke: #1f77b4"/>
    <path d="M 396.033055 333.36 
L 396.033055 325.206 
" clip-path="url(#p0f3e218a20)" style="fill: none; stroke: #1f77b4"/>
    <path d="M 396.033055 333.36 
L 396.033055 325.206 
" clip-path="url(#p0f3e218a20)" style="fill: none; stroke: #1f77b4"/>
    <path d="M 396.033055 333.36 
L 396.033055 325.206 
" clip-path="url(#p0f3e218a20)" style="fill: none; stroke: #1f77b4"/>
    <path d="M 396.033055 333.36 
L 396.033055 325.206 
" clip-path="url(#p0f3e218a20)" style="fill: none; stroke: #1f77b4"/>
    <path d="M 396.033055 333.36 
L 396.033055 325.206 
" clip-path="url(#p0f3e218a20)" style="fill: none; stroke: #1f77b4"/>
    <path d="M 396.033055 333.36 
L 396.033055 325.206 
" clip-path="url(#p0f3e218a20)" style="fill: none; stroke: #1f77b4"/>
    <path d="M 396.033055 333.36 
L 396.033055 325.206 
" clip-path="url(#p0f3e218a20)" style="fill: none; stroke: #1f77b4"/>
    <path d="M 396.033055 333.36 
L 396.033055 325.206 
" clip-path="url(#p0f3e218a20)" style="fill: none; stroke: #1f77b4"/>
    <path d="M 396.033055 333.36 
L 396.033055 325.206 
" clip-path="url(#p0f3e218a20)" style="fill: none; stroke: #1f77b4"/>
    <path d="M 396.033055 333.36 
L 396.033055 325.206 
" clip-path="url(#p0f3e218a20)" style="fill: none; stroke: #1f77b4"/>
    <path d="M 396.033055 333.36 
L 396.033055 325.206 
" clip-path="url(#p0f3e218a20)" style="fill: none; stroke: #1f77b4"/>
    <path d="M 396.033055 333.36 
L 396.033055 325.206 
" clip-path="url(#p0f3e218a20)" style="fill: none; stroke: #1f77b4"/>
    <path d="M 396.033055 333.36 
L 396.033055 325.206 
" clip-path="url(#p0f3e218a20)" style="fill: none; stroke: #1f77b4"/>
    <path d="M 396.033055 333.36 
L 396.033055 325.206 
" clip-path="url(#p0f3e218a20)" style="fill: none; stroke: #1f77b4"/>
    <path d="M 396.033055 333.36 
L 396.033055 325.206 
" clip-path="url(#p0f3e218a20)" style="fill: none; stroke: #1f77b4"/>
    <path d="M 396.033055 333.36 
L 396.033055 325.206 
" clip-path="url(#p0f3e218a20)" style="fill: none; stroke: #1f77b4"/>
    <path d="M 396.033055 333.36 
L 396.033055 325.206 
" clip-path="url(#p0f3e218a20)" style="fill: none; stroke: #1f77b4"/>
    <path d="M 396.033055 333.36 
L 396.033055 325.206 
" clip-path="url(#p0f3e218a20)" style="fill: none; stroke: #1f77b4"/>
    <path d="M 396.033055 333.36 
L 396.033055 325.206 
" clip-path="url(#p0f3e218a20)" style="fill: none; stroke: #1f77b4"/>
    <path d="M 396.033055 333.36 
L 396.033055 325.206 
" clip-path="url(#p0f3e218a20)" style="fill: none; stroke: #1f77b4"/>
    <path d="M 396.033055 333.36 
L 396.033055 325.206 
" clip-path="url(#p0f3e218a20)" style="fill: none; stroke: #1f77b4"/>
    <path d="M 396.033055 333.36 
L 396.033055 325.206 
" clip-path="url(#p0f3e218a20)" style="fill: none; stroke: #1f77b4"/>
    <path d="M 396.033055 333.36 
L 396.033055 325.206 
" clip-path="url(#p0f3e218a20)" style="fill: none; stroke: #1f77b4"/>
    <path d="M 396.033055 333.36 
L 396.033055 325.206 
" clip-path="url(#p0f3e218a20)" style="fill: none; stroke: #1f77b4"/>
    <path d="M 396.033055 333.36 
L 396.033055 325.206 
" clip-path="url(#p0f3e218a20)" style="fill: none; stroke: #1f77b4"/>
    <path d="M 396.033055 333.36 
L 396.033055 325.206 
" clip-path="url(#p0f3e218a20)" style="fill: none; stroke: #1f77b4"/>
    <path d="M 396.033055 333.36 
L 396.033055 325.206 
" clip-path="url(#p0f3e218a20)" style="fill: none; stroke: #1f77b4"/>
    <path d="M 396.033055 333.36 
L 396.033055 325.206 
" clip-path="url(#p0f3e218a20)" style="fill: none; stroke: #1f77b4"/>
    <path d="M 396.033055 333.36 
L 396.033055 325.206 
" clip-path="url(#p0f3e218a20)" style="fill: none; stroke: #1f77b4"/>
    <path d="M 396.033055 333.36 
L 396.033055 325.206 
" clip-path="url(#p0f3e218a20)" style="fill: none; stroke: #1f77b4"/>
    <path d="M 396.033055 333.36 
L 396.033055 325.206 
" clip-path="url(#p0f3e218a20)" style="fill: none; stroke: #1f77b4"/>
    <path d="M 396.033055 333.36 
L 396.033055 325.206 
" clip-path="url(#p0f3e218a20)" style="fill: none; stroke: #1f77b4"/>
    <path d="M 396.033055 333.36 
L 396.033055 325.206 
" clip-path="url(#p0f3e218a20)" style="fill: none; stroke: #1f77b4"/>
    <path d="M 396.033055 333.36 
L 396.033055 325.206 
" clip-path="url(#p0f3e218a20)" style="fill: none; stroke: #1f77b4"/>
    <path d="M 396.033055 333.36 
L 396.033055 325.206 
" clip-path="url(#p0f3e218a20)" style="fill: none; stroke: #1f77b4"/>
    <path d="M 396.033055 333.36 
L 396.033055 325.206 
" clip-path="url(#p0f3e218a20)" style="fill: none; stroke: #1f77b4"/>
    <path d="M 182.660351 333.36 
L 182.660351 325.206 
" clip-path="url(#p0f3e218a20)" style="fill: none; stroke: #1f77b4"/>
    <path d="M 182.660351 333.36 
L 182.660351 325.206 
" clip-path="url(#p0f3e218a20)" style="fill: none; stroke: #1f77b4"/>
    <path d="M 182.660351 333.36 
L 182.660351 325.206 
" clip-path="url(#p0f3e218a20)" style="fill: none; stroke: #1f77b4"/>
    <path d="M 182.660351 333.36 
L 182.660351 325.206 
" clip-path="url(#p0f3e218a20)" style="fill: none; stroke: #1f77b4"/>
    <path d="M 182.660351 333.36 
L 182.660351 325.206 
" clip-path="url(#p0f3e218a20)" style="fill: none; stroke: #1f77b4"/>
    <path d="M 203.997621 333.36 
L 203.997621 325.206 
" clip-path="url(#p0f3e218a20)" style="fill: none; stroke: #1f77b4"/>
    <path d="M 203.997621 333.36 
L 203.997621 325.206 
" clip-path="url(#p0f3e218a20)" style="fill: none; stroke: #1f77b4"/>
    <path d="M 203.997621 333.36 
L 203.997621 325.206 
" clip-path="url(#p0f3e218a20)" style="fill: none; stroke: #1f77b4"/>
    <path d="M 203.997621 333.36 
L 203.997621 325.206 
" clip-path="url(#p0f3e218a20)" style="fill: none; stroke: #1f77b4"/>
    <path d="M 203.997621 333.36 
L 203.997621 325.206 
" clip-path="url(#p0f3e218a20)" style="fill: none; stroke: #1f77b4"/>
    <path d="M 203.997621 333.36 
L 203.997621 325.206 
" clip-path="url(#p0f3e218a20)" style="fill: none; stroke: #1f77b4"/>
    <path d="M 203.997621 333.36 
L 203.997621 325.206 
" clip-path="url(#p0f3e218a20)" style="fill: none; stroke: #1f77b4"/>
    <path d="M 203.997621 333.36 
L 203.997621 325.206 
" clip-path="url(#p0f3e218a20)" style="fill: none; stroke: #1f77b4"/>
    <path d="M 150.654445 333.36 
L 150.654445 325.206 
" clip-path="url(#p0f3e218a20)" style="fill: none; stroke: #1f77b4"/>
    <path d="M 150.654445 333.36 
L 150.654445 325.206 
" clip-path="url(#p0f3e218a20)" style="fill: none; stroke: #1f77b4"/>
    <path d="M 150.654445 333.36 
L 150.654445 325.206 
" clip-path="url(#p0f3e218a20)" style="fill: none; stroke: #1f77b4"/>
    <path d="M 150.654445 333.36 
L 150.654445 325.206 
" clip-path="url(#p0f3e218a20)" style="fill: none; stroke: #1f77b4"/>
    <path d="M 150.654445 333.36 
L 150.654445 325.206 
" clip-path="url(#p0f3e218a20)" style="fill: none; stroke: #1f77b4"/>
   </g>
   <g id="patch_8">
    <path d="M 50.14375 333.36 
L 50.14375 7.2 
" style="fill: none; stroke: #000000; stroke-width: 0.8; stroke-linejoin: miter; stroke-linecap: square"/>
   </g>
   <g id="patch_9">
    <path d="M 496.54375 333.36 
L 496.54375 7.2 
" style="fill: none; stroke: #000000; stroke-width: 0.8; stroke-linejoin: miter; stroke-linecap: square"/>
   </g>
   <g id="patch_10">
    <path d="M 50.14375 333.36 
L 496.54375 333.36 
" style="fill: none; stroke: #000000; stroke-width: 0.8; stroke-linejoin: miter; stroke-linecap: square"/>
   </g>
   <g id="patch_11">
    <path d="M 50.14375 7.2 
L 496.54375 7.2 
" style="fill: none; stroke: #000000; stroke-width: 0.8; stroke-linejoin: miter; stroke-linecap: square"/>
   </g>
  </g>
 </g>
 <defs>
  <clipPath id="p0f3e218a20">
   <rect x="50.14375" y="7.2" width="446.4" height="326.16"/>
  </clipPath>
 </defs>
</svg>
