<?xml version="1.0" encoding="utf-8" standalone="no"?>
<!DOCTYPE svg PUBLIC "-//W3C//DTD SVG 1.1//EN"
  "http://www.w3.org/Graphics/SVG/1.1/DTD/svg11.dtd">
<svg xmlns:xlink="http://www.w3.org/1999/xlink" width="950.14375pt" height="479.63625pt" viewBox="0 0 950.14375 479.63625" xmlns="http://www.w3.org/2000/svg" version="1.1">
 <metadata>
  <rdf:RDF xmlns:dc="http://purl.org/dc/elements/1.1/" xmlns:cc="http://creativecommons.org/ns#" xmlns:rdf="http://www.w3.org/1999/02/22-rdf-syntax-ns#">
   <cc:Work>
    <dc:type rdf:resource="http://purl.org/dc/dcmitype/StillImage"/>
    <dc:date>2022-02-06T14:47:01.047659</dc:date>
    <dc:format>image/svg+xml</dc:format>
    <dc:creator>
     <cc:Agent>
      <dc:title>Matplotlib v3.5.0, https://matplotlib.org/</dc:title>
     </cc:Agent>
    </dc:creator>
   </cc:Work>
  </rdf:RDF>
 </metadata>
 <defs>
  <style type="text/css">*{stroke-linejoin: round; stroke-linecap: butt}</style>
 </defs>
 <g id="figure_1">
  <g id="patch_1">
   <path d="M 0 479.63625 
L 950.14375 479.63625 
L 950.14375 0 
L 0 0 
L 0 479.63625 
z
" style="fill: none"/>
  </g>
  <g id="axes_1">
   <g id="patch_2">
    <path d="M 50.14375 442.08 
L 942.94375 442.08 
L 942.94375 7.2 
L 50.14375 7.2 
z
" style="fill: #ffffff"/>
   </g>
   <g id="matplotlib.axis_1">
    <g id="xtick_1">
     <g id="line2d_1">
      <defs>
       <path id="mdea58dd8aa" d="M 0 0 
L 0 3.5 
" style="stroke: #000000; stroke-width: 0.8"/>
      </defs>
      <g>
       <use xlink:href="#mdea58dd8aa" x="90.725568" y="442.08" style="stroke: #000000; stroke-width: 0.8"/>
      </g>
     </g>
     <g id="text_1">
      <!-- 0 -->
      <g transform="translate(87.544318 456.678438)scale(0.1 -0.1)">
       <defs>
        <path id="DejaVuSans-30" d="M 2034 4250 
Q 1547 4250 1301 3770 
Q 1056 3291 1056 2328 
Q 1056 1369 1301 889 
Q 1547 409 2034 409 
Q 2525 409 2770 889 
Q 3016 1369 3016 2328 
Q 3016 3291 2770 3770 
Q 2525 4250 2034 4250 
z
M 2034 4750 
Q 2819 4750 3233 4129 
Q 3647 3509 3647 2328 
Q 3647 1150 3233 529 
Q 2819 -91 2034 -91 
Q 1250 -91 836 529 
Q 422 1150 422 2328 
Q 422 3509 836 4129 
Q 1250 4750 2034 4750 
z
" transform="scale(0.015625)"/>
       </defs>
       <use xlink:href="#DejaVuSans-30"/>
      </g>
     </g>
    </g>
    <g id="xtick_2">
     <g id="line2d_2">
      <g>
       <use xlink:href="#mdea58dd8aa" x="254.69251" y="442.08" style="stroke: #000000; stroke-width: 0.8"/>
      </g>
     </g>
     <g id="text_2">
      <!-- 20 -->
      <g transform="translate(248.33001 456.678438)scale(0.1 -0.1)">
       <defs>
        <path id="DejaVuSans-32" d="M 1228 531 
L 3431 531 
L 3431 0 
L 469 0 
L 469 531 
Q 828 903 1448 1529 
Q 2069 2156 2228 2338 
Q 2531 2678 2651 2914 
Q 2772 3150 2772 3378 
Q 2772 3750 2511 3984 
Q 2250 4219 1831 4219 
Q 1534 4219 1204 4116 
Q 875 4013 500 3803 
L 500 4441 
Q 881 4594 1212 4672 
Q 1544 4750 1819 4750 
Q 2544 4750 2975 4387 
Q 3406 4025 3406 3419 
Q 3406 3131 3298 2873 
Q 3191 2616 2906 2266 
Q 2828 2175 2409 1742 
Q 1991 1309 1228 531 
z
" transform="scale(0.015625)"/>
       </defs>
       <use xlink:href="#DejaVuSans-32"/>
       <use xlink:href="#DejaVuSans-30" x="63.623047"/>
      </g>
     </g>
    </g>
    <g id="xtick_3">
     <g id="line2d_3">
      <g>
       <use xlink:href="#mdea58dd8aa" x="418.659452" y="442.08" style="stroke: #000000; stroke-width: 0.8"/>
      </g>
     </g>
     <g id="text_3">
      <!-- 40 -->
      <g transform="translate(412.296952 456.678438)scale(0.1 -0.1)">
       <defs>
        <path id="DejaVuSans-34" d="M 2419 4116 
L 825 1625 
L 2419 1625 
L 2419 4116 
z
M 2253 4666 
L 3047 4666 
L 3047 1625 
L 3713 1625 
L 3713 1100 
L 3047 1100 
L 3047 0 
L 2419 0 
L 2419 1100 
L 313 1100 
L 313 1709 
L 2253 4666 
z
" transform="scale(0.015625)"/>
       </defs>
       <use xlink:href="#DejaVuSans-34"/>
       <use xlink:href="#DejaVuSans-30" x="63.623047"/>
      </g>
     </g>
    </g>
    <g id="xtick_4">
     <g id="line2d_4">
      <g>
       <use xlink:href="#mdea58dd8aa" x="582.626395" y="442.08" style="stroke: #000000; stroke-width: 0.8"/>
      </g>
     </g>
     <g id="text_4">
      <!-- 60 -->
      <g transform="translate(576.263895 456.678438)scale(0.1 -0.1)">
       <defs>
        <path id="DejaVuSans-36" d="M 2113 2584 
Q 1688 2584 1439 2293 
Q 1191 2003 1191 1497 
Q 1191 994 1439 701 
Q 1688 409 2113 409 
Q 2538 409 2786 701 
Q 3034 994 3034 1497 
Q 3034 2003 2786 2293 
Q 2538 2584 2113 2584 
z
M 3366 4563 
L 3366 3988 
Q 3128 4100 2886 4159 
Q 2644 4219 2406 4219 
Q 1781 4219 1451 3797 
Q 1122 3375 1075 2522 
Q 1259 2794 1537 2939 
Q 1816 3084 2150 3084 
Q 2853 3084 3261 2657 
Q 3669 2231 3669 1497 
Q 3669 778 3244 343 
Q 2819 -91 2113 -91 
Q 1303 -91 875 529 
Q 447 1150 447 2328 
Q 447 3434 972 4092 
Q 1497 4750 2381 4750 
Q 2619 4750 2861 4703 
Q 3103 4656 3366 4563 
z
" transform="scale(0.015625)"/>
       </defs>
       <use xlink:href="#DejaVuSans-36"/>
       <use xlink:href="#DejaVuSans-30" x="63.623047"/>
      </g>
     </g>
    </g>
    <g id="xtick_5">
     <g id="line2d_5">
      <g>
       <use xlink:href="#mdea58dd8aa" x="746.593337" y="442.08" style="stroke: #000000; stroke-width: 0.8"/>
      </g>
     </g>
     <g id="text_5">
      <!-- 80 -->
      <g transform="translate(740.230837 456.678438)scale(0.1 -0.1)">
       <defs>
        <path id="DejaVuSans-38" d="M 2034 2216 
Q 1584 2216 1326 1975 
Q 1069 1734 1069 1313 
Q 1069 891 1326 650 
Q 1584 409 2034 409 
Q 2484 409 2743 651 
Q 3003 894 3003 1313 
Q 3003 1734 2745 1975 
Q 2488 2216 2034 2216 
z
M 1403 2484 
Q 997 2584 770 2862 
Q 544 3141 544 3541 
Q 544 4100 942 4425 
Q 1341 4750 2034 4750 
Q 2731 4750 3128 4425 
Q 3525 4100 3525 3541 
Q 3525 3141 3298 2862 
Q 3072 2584 2669 2484 
Q 3125 2378 3379 2068 
Q 3634 1759 3634 1313 
Q 3634 634 3220 271 
Q 2806 -91 2034 -91 
Q 1263 -91 848 271 
Q 434 634 434 1313 
Q 434 1759 690 2068 
Q 947 2378 1403 2484 
z
M 1172 3481 
Q 1172 3119 1398 2916 
Q 1625 2713 2034 2713 
Q 2441 2713 2670 2916 
Q 2900 3119 2900 3481 
Q 2900 3844 2670 4047 
Q 2441 4250 2034 4250 
Q 1625 4250 1398 4047 
Q 1172 3844 1172 3481 
z
" transform="scale(0.015625)"/>
       </defs>
       <use xlink:href="#DejaVuSans-38"/>
       <use xlink:href="#DejaVuSans-30" x="63.623047"/>
      </g>
     </g>
    </g>
    <g id="xtick_6">
     <g id="line2d_6">
      <g>
       <use xlink:href="#mdea58dd8aa" x="910.560279" y="442.08" style="stroke: #000000; stroke-width: 0.8"/>
      </g>
     </g>
     <g id="text_6">
      <!-- 100 -->
      <g transform="translate(901.016529 456.678438)scale(0.1 -0.1)">
       <defs>
        <path id="DejaVuSans-31" d="M 794 531 
L 1825 531 
L 1825 4091 
L 703 3866 
L 703 4441 
L 1819 4666 
L 2450 4666 
L 2450 531 
L 3481 531 
L 3481 0 
L 794 0 
L 794 531 
z
" transform="scale(0.015625)"/>
       </defs>
       <use xlink:href="#DejaVuSans-31"/>
       <use xlink:href="#DejaVuSans-30" x="63.623047"/>
       <use xlink:href="#DejaVuSans-30" x="127.246094"/>
      </g>
     </g>
    </g>
    <g id="text_7">
     <!-- Random Decision Tree Regressor -->
     <g transform="translate(414.535156 470.356563)scale(0.1 -0.1)">
      <defs>
       <path id="DejaVuSans-52" d="M 2841 2188 
Q 3044 2119 3236 1894 
Q 3428 1669 3622 1275 
L 4263 0 
L 3584 0 
L 2988 1197 
Q 2756 1666 2539 1819 
Q 2322 1972 1947 1972 
L 1259 1972 
L 1259 0 
L 628 0 
L 628 4666 
L 2053 4666 
Q 2853 4666 3247 4331 
Q 3641 3997 3641 3322 
Q 3641 2881 3436 2590 
Q 3231 2300 2841 2188 
z
M 1259 4147 
L 1259 2491 
L 2053 2491 
Q 2509 2491 2742 2702 
Q 2975 2913 2975 3322 
Q 2975 3731 2742 3939 
Q 2509 4147 2053 4147 
L 1259 4147 
z
" transform="scale(0.015625)"/>
       <path id="DejaVuSans-61" d="M 2194 1759 
Q 1497 1759 1228 1600 
Q 959 1441 959 1056 
Q 959 750 1161 570 
Q 1363 391 1709 391 
Q 2188 391 2477 730 
Q 2766 1069 2766 1631 
L 2766 1759 
L 2194 1759 
z
M 3341 1997 
L 3341 0 
L 2766 0 
L 2766 531 
Q 2569 213 2275 61 
Q 1981 -91 1556 -91 
Q 1019 -91 701 211 
Q 384 513 384 1019 
Q 384 1609 779 1909 
Q 1175 2209 1959 2209 
L 2766 2209 
L 2766 2266 
Q 2766 2663 2505 2880 
Q 2244 3097 1772 3097 
Q 1472 3097 1187 3025 
Q 903 2953 641 2809 
L 641 3341 
Q 956 3463 1253 3523 
Q 1550 3584 1831 3584 
Q 2591 3584 2966 3190 
Q 3341 2797 3341 1997 
z
" transform="scale(0.015625)"/>
       <path id="DejaVuSans-6e" d="M 3513 2113 
L 3513 0 
L 2938 0 
L 2938 2094 
Q 2938 2591 2744 2837 
Q 2550 3084 2163 3084 
Q 1697 3084 1428 2787 
Q 1159 2491 1159 1978 
L 1159 0 
L 581 0 
L 581 3500 
L 1159 3500 
L 1159 2956 
Q 1366 3272 1645 3428 
Q 1925 3584 2291 3584 
Q 2894 3584 3203 3211 
Q 3513 2838 3513 2113 
z
" transform="scale(0.015625)"/>
       <path id="DejaVuSans-64" d="M 2906 2969 
L 2906 4863 
L 3481 4863 
L 3481 0 
L 2906 0 
L 2906 525 
Q 2725 213 2448 61 
Q 2172 -91 1784 -91 
Q 1150 -91 751 415 
Q 353 922 353 1747 
Q 353 2572 751 3078 
Q 1150 3584 1784 3584 
Q 2172 3584 2448 3432 
Q 2725 3281 2906 2969 
z
M 947 1747 
Q 947 1113 1208 752 
Q 1469 391 1925 391 
Q 2381 391 2643 752 
Q 2906 1113 2906 1747 
Q 2906 2381 2643 2742 
Q 2381 3103 1925 3103 
Q 1469 3103 1208 2742 
Q 947 2381 947 1747 
z
" transform="scale(0.015625)"/>
       <path id="DejaVuSans-6f" d="M 1959 3097 
Q 1497 3097 1228 2736 
Q 959 2375 959 1747 
Q 959 1119 1226 758 
Q 1494 397 1959 397 
Q 2419 397 2687 759 
Q 2956 1122 2956 1747 
Q 2956 2369 2687 2733 
Q 2419 3097 1959 3097 
z
M 1959 3584 
Q 2709 3584 3137 3096 
Q 3566 2609 3566 1747 
Q 3566 888 3137 398 
Q 2709 -91 1959 -91 
Q 1206 -91 779 398 
Q 353 888 353 1747 
Q 353 2609 779 3096 
Q 1206 3584 1959 3584 
z
" transform="scale(0.015625)"/>
       <path id="DejaVuSans-6d" d="M 3328 2828 
Q 3544 3216 3844 3400 
Q 4144 3584 4550 3584 
Q 5097 3584 5394 3201 
Q 5691 2819 5691 2113 
L 5691 0 
L 5113 0 
L 5113 2094 
Q 5113 2597 4934 2840 
Q 4756 3084 4391 3084 
Q 3944 3084 3684 2787 
Q 3425 2491 3425 1978 
L 3425 0 
L 2847 0 
L 2847 2094 
Q 2847 2600 2669 2842 
Q 2491 3084 2119 3084 
Q 1678 3084 1418 2786 
Q 1159 2488 1159 1978 
L 1159 0 
L 581 0 
L 581 3500 
L 1159 3500 
L 1159 2956 
Q 1356 3278 1631 3431 
Q 1906 3584 2284 3584 
Q 2666 3584 2933 3390 
Q 3200 3197 3328 2828 
z
" transform="scale(0.015625)"/>
       <path id="DejaVuSans-20" transform="scale(0.015625)"/>
       <path id="DejaVuSans-44" d="M 1259 4147 
L 1259 519 
L 2022 519 
Q 2988 519 3436 956 
Q 3884 1394 3884 2338 
Q 3884 3275 3436 3711 
Q 2988 4147 2022 4147 
L 1259 4147 
z
M 628 4666 
L 1925 4666 
Q 3281 4666 3915 4102 
Q 4550 3538 4550 2338 
Q 4550 1131 3912 565 
Q 3275 0 1925 0 
L 628 0 
L 628 4666 
z
" transform="scale(0.015625)"/>
       <path id="DejaVuSans-65" d="M 3597 1894 
L 3597 1613 
L 953 1613 
Q 991 1019 1311 708 
Q 1631 397 2203 397 
Q 2534 397 2845 478 
Q 3156 559 3463 722 
L 3463 178 
Q 3153 47 2828 -22 
Q 2503 -91 2169 -91 
Q 1331 -91 842 396 
Q 353 884 353 1716 
Q 353 2575 817 3079 
Q 1281 3584 2069 3584 
Q 2775 3584 3186 3129 
Q 3597 2675 3597 1894 
z
M 3022 2063 
Q 3016 2534 2758 2815 
Q 2500 3097 2075 3097 
Q 1594 3097 1305 2825 
Q 1016 2553 972 2059 
L 3022 2063 
z
" transform="scale(0.015625)"/>
       <path id="DejaVuSans-63" d="M 3122 3366 
L 3122 2828 
Q 2878 2963 2633 3030 
Q 2388 3097 2138 3097 
Q 1578 3097 1268 2742 
Q 959 2388 959 1747 
Q 959 1106 1268 751 
Q 1578 397 2138 397 
Q 2388 397 2633 464 
Q 2878 531 3122 666 
L 3122 134 
Q 2881 22 2623 -34 
Q 2366 -91 2075 -91 
Q 1284 -91 818 406 
Q 353 903 353 1747 
Q 353 2603 823 3093 
Q 1294 3584 2113 3584 
Q 2378 3584 2631 3529 
Q 2884 3475 3122 3366 
z
" transform="scale(0.015625)"/>
       <path id="DejaVuSans-69" d="M 603 3500 
L 1178 3500 
L 1178 0 
L 603 0 
L 603 3500 
z
M 603 4863 
L 1178 4863 
L 1178 4134 
L 603 4134 
L 603 4863 
z
" transform="scale(0.015625)"/>
       <path id="DejaVuSans-73" d="M 2834 3397 
L 2834 2853 
Q 2591 2978 2328 3040 
Q 2066 3103 1784 3103 
Q 1356 3103 1142 2972 
Q 928 2841 928 2578 
Q 928 2378 1081 2264 
Q 1234 2150 1697 2047 
L 1894 2003 
Q 2506 1872 2764 1633 
Q 3022 1394 3022 966 
Q 3022 478 2636 193 
Q 2250 -91 1575 -91 
Q 1294 -91 989 -36 
Q 684 19 347 128 
L 347 722 
Q 666 556 975 473 
Q 1284 391 1588 391 
Q 1994 391 2212 530 
Q 2431 669 2431 922 
Q 2431 1156 2273 1281 
Q 2116 1406 1581 1522 
L 1381 1569 
Q 847 1681 609 1914 
Q 372 2147 372 2553 
Q 372 3047 722 3315 
Q 1072 3584 1716 3584 
Q 2034 3584 2315 3537 
Q 2597 3491 2834 3397 
z
" transform="scale(0.015625)"/>
       <path id="DejaVuSans-54" d="M -19 4666 
L 3928 4666 
L 3928 4134 
L 2272 4134 
L 2272 0 
L 1638 0 
L 1638 4134 
L -19 4134 
L -19 4666 
z
" transform="scale(0.015625)"/>
       <path id="DejaVuSans-72" d="M 2631 2963 
Q 2534 3019 2420 3045 
Q 2306 3072 2169 3072 
Q 1681 3072 1420 2755 
Q 1159 2438 1159 1844 
L 1159 0 
L 581 0 
L 581 3500 
L 1159 3500 
L 1159 2956 
Q 1341 3275 1631 3429 
Q 1922 3584 2338 3584 
Q 2397 3584 2469 3576 
Q 2541 3569 2628 3553 
L 2631 2963 
z
" transform="scale(0.015625)"/>
       <path id="DejaVuSans-67" d="M 2906 1791 
Q 2906 2416 2648 2759 
Q 2391 3103 1925 3103 
Q 1463 3103 1205 2759 
Q 947 2416 947 1791 
Q 947 1169 1205 825 
Q 1463 481 1925 481 
Q 2391 481 2648 825 
Q 2906 1169 2906 1791 
z
M 3481 434 
Q 3481 -459 3084 -895 
Q 2688 -1331 1869 -1331 
Q 1566 -1331 1297 -1286 
Q 1028 -1241 775 -1147 
L 775 -588 
Q 1028 -725 1275 -790 
Q 1522 -856 1778 -856 
Q 2344 -856 2625 -561 
Q 2906 -266 2906 331 
L 2906 616 
Q 2728 306 2450 153 
Q 2172 0 1784 0 
Q 1141 0 747 490 
Q 353 981 353 1791 
Q 353 2603 747 3093 
Q 1141 3584 1784 3584 
Q 2172 3584 2450 3431 
Q 2728 3278 2906 2969 
L 2906 3500 
L 3481 3500 
L 3481 434 
z
" transform="scale(0.015625)"/>
      </defs>
      <use xlink:href="#DejaVuSans-52"/>
      <use xlink:href="#DejaVuSans-61" x="67.232422"/>
      <use xlink:href="#DejaVuSans-6e" x="128.511719"/>
      <use xlink:href="#DejaVuSans-64" x="191.890625"/>
      <use xlink:href="#DejaVuSans-6f" x="255.367188"/>
      <use xlink:href="#DejaVuSans-6d" x="316.548828"/>
      <use xlink:href="#DejaVuSans-20" x="413.960938"/>
      <use xlink:href="#DejaVuSans-44" x="445.748047"/>
      <use xlink:href="#DejaVuSans-65" x="522.75"/>
      <use xlink:href="#DejaVuSans-63" x="584.273438"/>
      <use xlink:href="#DejaVuSans-69" x="639.253906"/>
      <use xlink:href="#DejaVuSans-73" x="667.037109"/>
      <use xlink:href="#DejaVuSans-69" x="719.136719"/>
      <use xlink:href="#DejaVuSans-6f" x="746.919922"/>
      <use xlink:href="#DejaVuSans-6e" x="808.101562"/>
      <use xlink:href="#DejaVuSans-20" x="871.480469"/>
      <use xlink:href="#DejaVuSans-54" x="903.267578"/>
      <use xlink:href="#DejaVuSans-72" x="949.601562"/>
      <use xlink:href="#DejaVuSans-65" x="988.464844"/>
      <use xlink:href="#DejaVuSans-65" x="1049.988281"/>
      <use xlink:href="#DejaVuSans-20" x="1111.511719"/>
      <use xlink:href="#DejaVuSans-52" x="1143.298828"/>
      <use xlink:href="#DejaVuSans-65" x="1208.28125"/>
      <use xlink:href="#DejaVuSans-67" x="1269.804688"/>
      <use xlink:href="#DejaVuSans-72" x="1333.28125"/>
      <use xlink:href="#DejaVuSans-65" x="1372.144531"/>
      <use xlink:href="#DejaVuSans-73" x="1433.667969"/>
      <use xlink:href="#DejaVuSans-73" x="1485.767578"/>
      <use xlink:href="#DejaVuSans-6f" x="1537.867188"/>
      <use xlink:href="#DejaVuSans-72" x="1599.048828"/>
     </g>
    </g>
   </g>
   <g id="matplotlib.axis_2">
    <g id="ytick_1">
     <g id="line2d_7">
      <defs>
       <path id="m73dcecb9d6" d="M 0 0 
L -3.5 0 
" style="stroke: #000000; stroke-width: 0.8"/>
      </defs>
      <g>
       <use xlink:href="#m73dcecb9d6" x="50.14375" y="427.227875" style="stroke: #000000; stroke-width: 0.8"/>
      </g>
     </g>
     <g id="text_8">
      <!-- 0.66 -->
      <g transform="translate(20.878125 431.027094)scale(0.1 -0.1)">
       <defs>
        <path id="DejaVuSans-2e" d="M 684 794 
L 1344 794 
L 1344 0 
L 684 0 
L 684 794 
z
" transform="scale(0.015625)"/>
       </defs>
       <use xlink:href="#DejaVuSans-30"/>
       <use xlink:href="#DejaVuSans-2e" x="63.623047"/>
       <use xlink:href="#DejaVuSans-36" x="95.410156"/>
       <use xlink:href="#DejaVuSans-36" x="159.033203"/>
      </g>
     </g>
    </g>
    <g id="ytick_2">
     <g id="line2d_8">
      <g>
       <use xlink:href="#m73dcecb9d6" x="50.14375" y="373.71847" style="stroke: #000000; stroke-width: 0.8"/>
      </g>
     </g>
     <g id="text_9">
      <!-- 0.68 -->
      <g transform="translate(20.878125 377.517689)scale(0.1 -0.1)">
       <use xlink:href="#DejaVuSans-30"/>
       <use xlink:href="#DejaVuSans-2e" x="63.623047"/>
       <use xlink:href="#DejaVuSans-36" x="95.410156"/>
       <use xlink:href="#DejaVuSans-38" x="159.033203"/>
      </g>
     </g>
    </g>
    <g id="ytick_3">
     <g id="line2d_9">
      <g>
       <use xlink:href="#m73dcecb9d6" x="50.14375" y="320.209066" style="stroke: #000000; stroke-width: 0.8"/>
      </g>
     </g>
     <g id="text_10">
      <!-- 0.70 -->
      <g transform="translate(20.878125 324.008284)scale(0.1 -0.1)">
       <defs>
        <path id="DejaVuSans-37" d="M 525 4666 
L 3525 4666 
L 3525 4397 
L 1831 0 
L 1172 0 
L 2766 4134 
L 525 4134 
L 525 4666 
z
" transform="scale(0.015625)"/>
       </defs>
       <use xlink:href="#DejaVuSans-30"/>
       <use xlink:href="#DejaVuSans-2e" x="63.623047"/>
       <use xlink:href="#DejaVuSans-37" x="95.410156"/>
       <use xlink:href="#DejaVuSans-30" x="159.033203"/>
      </g>
     </g>
    </g>
    <g id="ytick_4">
     <g id="line2d_10">
      <g>
       <use xlink:href="#m73dcecb9d6" x="50.14375" y="266.699661" style="stroke: #000000; stroke-width: 0.8"/>
      </g>
     </g>
     <g id="text_11">
      <!-- 0.72 -->
      <g transform="translate(20.878125 270.49888)scale(0.1 -0.1)">
       <use xlink:href="#DejaVuSans-30"/>
       <use xlink:href="#DejaVuSans-2e" x="63.623047"/>
       <use xlink:href="#DejaVuSans-37" x="95.410156"/>
       <use xlink:href="#DejaVuSans-32" x="159.033203"/>
      </g>
     </g>
    </g>
    <g id="ytick_5">
     <g id="line2d_11">
      <g>
       <use xlink:href="#m73dcecb9d6" x="50.14375" y="213.190256" style="stroke: #000000; stroke-width: 0.8"/>
      </g>
     </g>
     <g id="text_12">
      <!-- 0.74 -->
      <g transform="translate(20.878125 216.989475)scale(0.1 -0.1)">
       <use xlink:href="#DejaVuSans-30"/>
       <use xlink:href="#DejaVuSans-2e" x="63.623047"/>
       <use xlink:href="#DejaVuSans-37" x="95.410156"/>
       <use xlink:href="#DejaVuSans-34" x="159.033203"/>
      </g>
     </g>
    </g>
    <g id="ytick_6">
     <g id="line2d_12">
      <g>
       <use xlink:href="#m73dcecb9d6" x="50.14375" y="159.680852" style="stroke: #000000; stroke-width: 0.8"/>
      </g>
     </g>
     <g id="text_13">
      <!-- 0.76 -->
      <g transform="translate(20.878125 163.480071)scale(0.1 -0.1)">
       <use xlink:href="#DejaVuSans-30"/>
       <use xlink:href="#DejaVuSans-2e" x="63.623047"/>
       <use xlink:href="#DejaVuSans-37" x="95.410156"/>
       <use xlink:href="#DejaVuSans-36" x="159.033203"/>
      </g>
     </g>
    </g>
    <g id="ytick_7">
     <g id="line2d_13">
      <g>
       <use xlink:href="#m73dcecb9d6" x="50.14375" y="106.171447" style="stroke: #000000; stroke-width: 0.8"/>
      </g>
     </g>
     <g id="text_14">
      <!-- 0.78 -->
      <g transform="translate(20.878125 109.970666)scale(0.1 -0.1)">
       <use xlink:href="#DejaVuSans-30"/>
       <use xlink:href="#DejaVuSans-2e" x="63.623047"/>
       <use xlink:href="#DejaVuSans-37" x="95.410156"/>
       <use xlink:href="#DejaVuSans-38" x="159.033203"/>
      </g>
     </g>
    </g>
    <g id="ytick_8">
     <g id="line2d_14">
      <g>
       <use xlink:href="#m73dcecb9d6" x="50.14375" y="52.662043" style="stroke: #000000; stroke-width: 0.8"/>
      </g>
     </g>
     <g id="text_15">
      <!-- 0.80 -->
      <g transform="translate(20.878125 56.461261)scale(0.1 -0.1)">
       <use xlink:href="#DejaVuSans-30"/>
       <use xlink:href="#DejaVuSans-2e" x="63.623047"/>
       <use xlink:href="#DejaVuSans-38" x="95.410156"/>
       <use xlink:href="#DejaVuSans-30" x="159.033203"/>
      </g>
     </g>
    </g>
    <g id="text_16">
     <!-- Scores -->
     <g transform="translate(14.798438 241.247031)rotate(-90)scale(0.1 -0.1)">
      <defs>
       <path id="DejaVuSans-53" d="M 3425 4513 
L 3425 3897 
Q 3066 4069 2747 4153 
Q 2428 4238 2131 4238 
Q 1616 4238 1336 4038 
Q 1056 3838 1056 3469 
Q 1056 3159 1242 3001 
Q 1428 2844 1947 2747 
L 2328 2669 
Q 3034 2534 3370 2195 
Q 3706 1856 3706 1288 
Q 3706 609 3251 259 
Q 2797 -91 1919 -91 
Q 1588 -91 1214 -16 
Q 841 59 441 206 
L 441 856 
Q 825 641 1194 531 
Q 1563 422 1919 422 
Q 2459 422 2753 634 
Q 3047 847 3047 1241 
Q 3047 1584 2836 1778 
Q 2625 1972 2144 2069 
L 1759 2144 
Q 1053 2284 737 2584 
Q 422 2884 422 3419 
Q 422 4038 858 4394 
Q 1294 4750 2059 4750 
Q 2388 4750 2728 4690 
Q 3069 4631 3425 4513 
z
" transform="scale(0.015625)"/>
      </defs>
      <use xlink:href="#DejaVuSans-53"/>
      <use xlink:href="#DejaVuSans-63" x="63.476562"/>
      <use xlink:href="#DejaVuSans-6f" x="118.457031"/>
      <use xlink:href="#DejaVuSans-72" x="179.638672"/>
      <use xlink:href="#DejaVuSans-65" x="218.501953"/>
      <use xlink:href="#DejaVuSans-73" x="280.025391"/>
     </g>
    </g>
   </g>
   <g id="line2d_15">
    <path d="M 90.725568 246.712169 
L 98.923915 222.492191 
L 107.122262 157.289609 
L 115.32061 114.45909 
L 123.518957 118.729003 
L 131.717304 126.266329 
L 139.915651 74.281915 
L 148.113998 51.412886 
L 156.312345 88.256957 
L 164.510692 114.99033 
L 172.709039 213.538224 
L 180.907386 388.861738 
L 189.105733 268.807188 
L 197.304081 153.479532 
L 205.502428 229.783889 
L 213.700775 355.433597 
L 221.899122 219.487542 
L 230.097469 226.827795 
L 238.295816 152.548434 
L 246.494163 320.71163 
L 254.69251 207.980196 
L 262.890857 291.187819 
L 271.089205 135.328828 
L 279.287552 155.733018 
L 287.485899 177.119716 
L 295.684246 224.708547 
L 303.882593 372.553238 
L 312.08094 262.757905 
L 320.279287 27.78127 
L 328.477634 259.033512 
L 336.675981 222.492191 
L 344.874329 365.827053 
L 353.072676 279.312032 
L 361.271023 151.634472 
L 369.46937 234.799253 
L 377.667717 42.236141 
L 385.866064 108.364109 
L 394.064411 317.284275 
L 402.262758 372.373302 
L 410.461105 323.019383 
L 418.659452 275.650474 
L 426.8578 281.448417 
L 435.056147 422.312727 
L 443.254494 195.667422 
L 451.452841 39.768445 
L 459.651188 58.370417 
L 467.849535 159.948665 
L 476.047882 185.659544 
L 484.246229 154.80192 
L 492.444576 266.762199 
L 500.642924 91.809982 
L 508.841271 82.07058 
L 517.039618 262.663653 
L 525.237965 271.663317 
L 533.436312 80.028448 
L 541.634659 117.335212 
L 549.833006 203.747412 
L 558.031353 127.011779 
L 566.2297 58.507512 
L 574.428048 219.033418 
L 582.626395 298.408114 
L 590.824742 295.075011 
L 599.023089 236.250167 
L 607.221436 49.076572 
L 615.419783 167.291774 
L 623.61813 313.805509 
L 631.816477 259.978891 
L 640.014824 35.784145 
L 648.213171 168.85979 
L 656.411519 343.32932 
L 664.609866 324.181828 
L 672.808213 110.112061 
L 681.00656 91.375851 
L 689.204907 156.421345 
L 697.403254 344.271843 
L 705.601601 100.306968 
L 713.799948 103.391588 
L 721.998295 110.934626 
L 730.196643 122.122085 
L 738.39499 168.374248 
L 746.593337 228.404379 
L 754.791684 158.674832 
L 762.990031 240.045963 
L 771.188378 248.785719 
L 779.386725 217.6739 
L 787.585072 143.745842 
L 795.783419 103.208795 
L 803.981767 236.452952 
L 812.180114 106.744684 
L 820.378461 384.548982 
L 828.576808 364.330441 
L 836.775155 26.967273 
L 844.973502 153.093954 
L 853.171849 347.33647 
L 861.370196 263.454801 
L 869.568543 193.531037 
L 877.76689 178.562062 
L 885.965238 313.085764 
L 894.163585 97.736451 
L 902.361932 96.57115 
" clip-path="url(#p71f7d2284e)" style="fill: none; stroke: #ff0000; stroke-width: 1.5; stroke-linecap: square"/>
    <defs>
     <path id="mba8449bf38" d="M 0 3 
C 0.795609 3 1.55874 2.683901 2.12132 2.12132 
C 2.683901 1.55874 3 0.795609 3 0 
C 3 -0.795609 2.683901 -1.55874 2.12132 -2.12132 
C 1.55874 -2.683901 0.795609 -3 0 -3 
C -0.795609 -3 -1.55874 -2.683901 -2.12132 -2.12132 
C -2.683901 -1.55874 -3 -0.795609 -3 0 
C -3 0.795609 -2.683901 1.55874 -2.12132 2.12132 
C -1.55874 2.683901 -0.795609 3 0 3 
z
" style="stroke: #ff0000"/>
    </defs>
    <g clip-path="url(#p71f7d2284e)">
     <use xlink:href="#mba8449bf38" x="90.725568" y="246.712169" style="fill: #ff0000; stroke: #ff0000"/>
     <use xlink:href="#mba8449bf38" x="98.923915" y="222.492191" style="fill: #ff0000; stroke: #ff0000"/>
     <use xlink:href="#mba8449bf38" x="107.122262" y="157.289609" style="fill: #ff0000; stroke: #ff0000"/>
     <use xlink:href="#mba8449bf38" x="115.32061" y="114.45909" style="fill: #ff0000; stroke: #ff0000"/>
     <use xlink:href="#mba8449bf38" x="123.518957" y="118.729003" style="fill: #ff0000; stroke: #ff0000"/>
     <use xlink:href="#mba8449bf38" x="131.717304" y="126.266329" style="fill: #ff0000; stroke: #ff0000"/>
     <use xlink:href="#mba8449bf38" x="139.915651" y="74.281915" style="fill: #ff0000; stroke: #ff0000"/>
     <use xlink:href="#mba8449bf38" x="148.113998" y="51.412886" style="fill: #ff0000; stroke: #ff0000"/>
     <use xlink:href="#mba8449bf38" x="156.312345" y="88.256957" style="fill: #ff0000; stroke: #ff0000"/>
     <use xlink:href="#mba8449bf38" x="164.510692" y="114.99033" style="fill: #ff0000; stroke: #ff0000"/>
     <use xlink:href="#mba8449bf38" x="172.709039" y="213.538224" style="fill: #ff0000; stroke: #ff0000"/>
     <use xlink:href="#mba8449bf38" x="180.907386" y="388.861738" style="fill: #ff0000; stroke: #ff0000"/>
     <use xlink:href="#mba8449bf38" x="189.105733" y="268.807188" style="fill: #ff0000; stroke: #ff0000"/>
     <use xlink:href="#mba8449bf38" x="197.304081" y="153.479532" style="fill: #ff0000; stroke: #ff0000"/>
     <use xlink:href="#mba8449bf38" x="205.502428" y="229.783889" style="fill: #ff0000; stroke: #ff0000"/>
     <use xlink:href="#mba8449bf38" x="213.700775" y="355.433597" style="fill: #ff0000; stroke: #ff0000"/>
     <use xlink:href="#mba8449bf38" x="221.899122" y="219.487542" style="fill: #ff0000; stroke: #ff0000"/>
     <use xlink:href="#mba8449bf38" x="230.097469" y="226.827795" style="fill: #ff0000; stroke: #ff0000"/>
     <use xlink:href="#mba8449bf38" x="238.295816" y="152.548434" style="fill: #ff0000; stroke: #ff0000"/>
     <use xlink:href="#mba8449bf38" x="246.494163" y="320.71163" style="fill: #ff0000; stroke: #ff0000"/>
     <use xlink:href="#mba8449bf38" x="254.69251" y="207.980196" style="fill: #ff0000; stroke: #ff0000"/>
     <use xlink:href="#mba8449bf38" x="262.890857" y="291.187819" style="fill: #ff0000; stroke: #ff0000"/>
     <use xlink:href="#mba8449bf38" x="271.089205" y="135.328828" style="fill: #ff0000; stroke: #ff0000"/>
     <use xlink:href="#mba8449bf38" x="279.287552" y="155.733018" style="fill: #ff0000; stroke: #ff0000"/>
     <use xlink:href="#mba8449bf38" x="287.485899" y="177.119716" style="fill: #ff0000; stroke: #ff0000"/>
     <use xlink:href="#mba8449bf38" x="295.684246" y="224.708547" style="fill: #ff0000; stroke: #ff0000"/>
     <use xlink:href="#mba8449bf38" x="303.882593" y="372.553238" style="fill: #ff0000; stroke: #ff0000"/>
     <use xlink:href="#mba8449bf38" x="312.08094" y="262.757905" style="fill: #ff0000; stroke: #ff0000"/>
     <use xlink:href="#mba8449bf38" x="320.279287" y="27.78127" style="fill: #ff0000; stroke: #ff0000"/>
     <use xlink:href="#mba8449bf38" x="328.477634" y="259.033512" style="fill: #ff0000; stroke: #ff0000"/>
     <use xlink:href="#mba8449bf38" x="336.675981" y="222.492191" style="fill: #ff0000; stroke: #ff0000"/>
     <use xlink:href="#mba8449bf38" x="344.874329" y="365.827053" style="fill: #ff0000; stroke: #ff0000"/>
     <use xlink:href="#mba8449bf38" x="353.072676" y="279.312032" style="fill: #ff0000; stroke: #ff0000"/>
     <use xlink:href="#mba8449bf38" x="361.271023" y="151.634472" style="fill: #ff0000; stroke: #ff0000"/>
     <use xlink:href="#mba8449bf38" x="369.46937" y="234.799253" style="fill: #ff0000; stroke: #ff0000"/>
     <use xlink:href="#mba8449bf38" x="377.667717" y="42.236141" style="fill: #ff0000; stroke: #ff0000"/>
     <use xlink:href="#mba8449bf38" x="385.866064" y="108.364109" style="fill: #ff0000; stroke: #ff0000"/>
     <use xlink:href="#mba8449bf38" x="394.064411" y="317.284275" style="fill: #ff0000; stroke: #ff0000"/>
     <use xlink:href="#mba8449bf38" x="402.262758" y="372.373302" style="fill: #ff0000; stroke: #ff0000"/>
     <use xlink:href="#mba8449bf38" x="410.461105" y="323.019383" style="fill: #ff0000; stroke: #ff0000"/>
     <use xlink:href="#mba8449bf38" x="418.659452" y="275.650474" style="fill: #ff0000; stroke: #ff0000"/>
     <use xlink:href="#mba8449bf38" x="426.8578" y="281.448417" style="fill: #ff0000; stroke: #ff0000"/>
     <use xlink:href="#mba8449bf38" x="435.056147" y="422.312727" style="fill: #ff0000; stroke: #ff0000"/>
     <use xlink:href="#mba8449bf38" x="443.254494" y="195.667422" style="fill: #ff0000; stroke: #ff0000"/>
     <use xlink:href="#mba8449bf38" x="451.452841" y="39.768445" style="fill: #ff0000; stroke: #ff0000"/>
     <use xlink:href="#mba8449bf38" x="459.651188" y="58.370417" style="fill: #ff0000; stroke: #ff0000"/>
     <use xlink:href="#mba8449bf38" x="467.849535" y="159.948665" style="fill: #ff0000; stroke: #ff0000"/>
     <use xlink:href="#mba8449bf38" x="476.047882" y="185.659544" style="fill: #ff0000; stroke: #ff0000"/>
     <use xlink:href="#mba8449bf38" x="484.246229" y="154.80192" style="fill: #ff0000; stroke: #ff0000"/>
     <use xlink:href="#mba8449bf38" x="492.444576" y="266.762199" style="fill: #ff0000; stroke: #ff0000"/>
     <use xlink:href="#mba8449bf38" x="500.642924" y="91.809982" style="fill: #ff0000; stroke: #ff0000"/>
     <use xlink:href="#mba8449bf38" x="508.841271" y="82.07058" style="fill: #ff0000; stroke: #ff0000"/>
     <use xlink:href="#mba8449bf38" x="517.039618" y="262.663653" style="fill: #ff0000; stroke: #ff0000"/>
     <use xlink:href="#mba8449bf38" x="525.237965" y="271.663317" style="fill: #ff0000; stroke: #ff0000"/>
     <use xlink:href="#mba8449bf38" x="533.436312" y="80.028448" style="fill: #ff0000; stroke: #ff0000"/>
     <use xlink:href="#mba8449bf38" x="541.634659" y="117.335212" style="fill: #ff0000; stroke: #ff0000"/>
     <use xlink:href="#mba8449bf38" x="549.833006" y="203.747412" style="fill: #ff0000; stroke: #ff0000"/>
     <use xlink:href="#mba8449bf38" x="558.031353" y="127.011779" style="fill: #ff0000; stroke: #ff0000"/>
     <use xlink:href="#mba8449bf38" x="566.2297" y="58.507512" style="fill: #ff0000; stroke: #ff0000"/>
     <use xlink:href="#mba8449bf38" x="574.428048" y="219.033418" style="fill: #ff0000; stroke: #ff0000"/>
     <use xlink:href="#mba8449bf38" x="582.626395" y="298.408114" style="fill: #ff0000; stroke: #ff0000"/>
     <use xlink:href="#mba8449bf38" x="590.824742" y="295.075011" style="fill: #ff0000; stroke: #ff0000"/>
     <use xlink:href="#mba8449bf38" x="599.023089" y="236.250167" style="fill: #ff0000; stroke: #ff0000"/>
     <use xlink:href="#mba8449bf38" x="607.221436" y="49.076572" style="fill: #ff0000; stroke: #ff0000"/>
     <use xlink:href="#mba8449bf38" x="615.419783" y="167.291774" style="fill: #ff0000; stroke: #ff0000"/>
     <use xlink:href="#mba8449bf38" x="623.61813" y="313.805509" style="fill: #ff0000; stroke: #ff0000"/>
     <use xlink:href="#mba8449bf38" x="631.816477" y="259.978891" style="fill: #ff0000; stroke: #ff0000"/>
     <use xlink:href="#mba8449bf38" x="640.014824" y="35.784145" style="fill: #ff0000; stroke: #ff0000"/>
     <use xlink:href="#mba8449bf38" x="648.213171" y="168.85979" style="fill: #ff0000; stroke: #ff0000"/>
     <use xlink:href="#mba8449bf38" x="656.411519" y="343.32932" style="fill: #ff0000; stroke: #ff0000"/>
     <use xlink:href="#mba8449bf38" x="664.609866" y="324.181828" style="fill: #ff0000; stroke: #ff0000"/>
     <use xlink:href="#mba8449bf38" x="672.808213" y="110.112061" style="fill: #ff0000; stroke: #ff0000"/>
     <use xlink:href="#mba8449bf38" x="681.00656" y="91.375851" style="fill: #ff0000; stroke: #ff0000"/>
     <use xlink:href="#mba8449bf38" x="689.204907" y="156.421345" style="fill: #ff0000; stroke: #ff0000"/>
     <use xlink:href="#mba8449bf38" x="697.403254" y="344.271843" style="fill: #ff0000; stroke: #ff0000"/>
     <use xlink:href="#mba8449bf38" x="705.601601" y="100.306968" style="fill: #ff0000; stroke: #ff0000"/>
     <use xlink:href="#mba8449bf38" x="713.799948" y="103.391588" style="fill: #ff0000; stroke: #ff0000"/>
     <use xlink:href="#mba8449bf38" x="721.998295" y="110.934626" style="fill: #ff0000; stroke: #ff0000"/>
     <use xlink:href="#mba8449bf38" x="730.196643" y="122.122085" style="fill: #ff0000; stroke: #ff0000"/>
     <use xlink:href="#mba8449bf38" x="738.39499" y="168.374248" style="fill: #ff0000; stroke: #ff0000"/>
     <use xlink:href="#mba8449bf38" x="746.593337" y="228.404379" style="fill: #ff0000; stroke: #ff0000"/>
     <use xlink:href="#mba8449bf38" x="754.791684" y="158.674832" style="fill: #ff0000; stroke: #ff0000"/>
     <use xlink:href="#mba8449bf38" x="762.990031" y="240.045963" style="fill: #ff0000; stroke: #ff0000"/>
     <use xlink:href="#mba8449bf38" x="771.188378" y="248.785719" style="fill: #ff0000; stroke: #ff0000"/>
     <use xlink:href="#mba8449bf38" x="779.386725" y="217.6739" style="fill: #ff0000; stroke: #ff0000"/>
     <use xlink:href="#mba8449bf38" x="787.585072" y="143.745842" style="fill: #ff0000; stroke: #ff0000"/>
     <use xlink:href="#mba8449bf38" x="795.783419" y="103.208795" style="fill: #ff0000; stroke: #ff0000"/>
     <use xlink:href="#mba8449bf38" x="803.981767" y="236.452952" style="fill: #ff0000; stroke: #ff0000"/>
     <use xlink:href="#mba8449bf38" x="812.180114" y="106.744684" style="fill: #ff0000; stroke: #ff0000"/>
     <use xlink:href="#mba8449bf38" x="820.378461" y="384.548982" style="fill: #ff0000; stroke: #ff0000"/>
     <use xlink:href="#mba8449bf38" x="828.576808" y="364.330441" style="fill: #ff0000; stroke: #ff0000"/>
     <use xlink:href="#mba8449bf38" x="836.775155" y="26.967273" style="fill: #ff0000; stroke: #ff0000"/>
     <use xlink:href="#mba8449bf38" x="844.973502" y="153.093954" style="fill: #ff0000; stroke: #ff0000"/>
     <use xlink:href="#mba8449bf38" x="853.171849" y="347.33647" style="fill: #ff0000; stroke: #ff0000"/>
     <use xlink:href="#mba8449bf38" x="861.370196" y="263.454801" style="fill: #ff0000; stroke: #ff0000"/>
     <use xlink:href="#mba8449bf38" x="869.568543" y="193.531037" style="fill: #ff0000; stroke: #ff0000"/>
     <use xlink:href="#mba8449bf38" x="877.76689" y="178.562062" style="fill: #ff0000; stroke: #ff0000"/>
     <use xlink:href="#mba8449bf38" x="885.965238" y="313.085764" style="fill: #ff0000; stroke: #ff0000"/>
     <use xlink:href="#mba8449bf38" x="894.163585" y="97.736451" style="fill: #ff0000; stroke: #ff0000"/>
     <use xlink:href="#mba8449bf38" x="902.361932" y="96.57115" style="fill: #ff0000; stroke: #ff0000"/>
    </g>
   </g>
   <g id="patch_3">
    <path d="M 50.14375 442.08 
L 50.14375 7.2 
" style="fill: none; stroke: #000000; stroke-width: 0.8; stroke-linejoin: miter; stroke-linecap: square"/>
   </g>
   <g id="patch_4">
    <path d="M 942.94375 442.08 
L 942.94375 7.2 
" style="fill: none; stroke: #000000; stroke-width: 0.8; stroke-linejoin: miter; stroke-linecap: square"/>
   </g>
   <g id="patch_5">
    <path d="M 50.14375 442.08 
L 942.94375 442.08 
" style="fill: none; stroke: #000000; stroke-width: 0.8; stroke-linejoin: miter; stroke-linecap: square"/>
   </g>
   <g id="patch_6">
    <path d="M 50.14375 7.2 
L 942.94375 7.2 
" style="fill: none; stroke: #000000; stroke-width: 0.8; stroke-linejoin: miter; stroke-linecap: square"/>
   </g>
  </g>
 </g>
 <defs>
  <clipPath id="p71f7d2284e">
   <rect x="50.14375" y="7.2" width="892.8" height="434.88"/>
  </clipPath>
 </defs>
</svg>
