<?xml version="1.0" encoding="utf-8" standalone="no"?>
<!DOCTYPE svg PUBLIC "-//W3C//DTD SVG 1.1//EN"
  "http://www.w3.org/Graphics/SVG/1.1/DTD/svg11.dtd">
<svg xmlns:xlink="http://www.w3.org/1999/xlink" width="389.28684pt" height="281.39625pt" viewBox="0 0 389.28684 281.39625" xmlns="http://www.w3.org/2000/svg" version="1.1">
 <metadata>
  <rdf:RDF xmlns:dc="http://purl.org/dc/elements/1.1/" xmlns:cc="http://creativecommons.org/ns#" xmlns:rdf="http://www.w3.org/1999/02/22-rdf-syntax-ns#">
   <cc:Work>
    <dc:type rdf:resource="http://purl.org/dc/dcmitype/StillImage"/>
    <dc:date>2022-02-06T15:10:37.920343</dc:date>
    <dc:format>image/svg+xml</dc:format>
    <dc:creator>
     <cc:Agent>
      <dc:title>Matplotlib v3.5.0, https://matplotlib.org/</dc:title>
     </cc:Agent>
    </dc:creator>
   </cc:Work>
  </rdf:RDF>
 </metadata>
 <defs>
  <style type="text/css">*{stroke-linejoin: round; stroke-linecap: butt}</style>
 </defs>
 <g id="figure_1">
  <g id="patch_1">
   <path d="M 0 281.39625 
L 389.28684 281.39625 
L 389.28684 0 
L 0 0 
L 0 281.39625 
z
" style="fill: none"/>
  </g>
  <g id="axes_1">
   <g id="patch_2">
    <path d="M 44.025 243.84 
L 378.825 243.84 
L 378.825 26.4 
L 44.025 26.4 
z
" style="fill: #ffffff"/>
   </g>
   <g id="PathCollection_1">
    <defs>
     <path id="mcee14c978b" d="M 0 3 
C 0.795609 3 1.55874 2.683901 2.12132 2.12132 
C 2.683901 1.55874 3 0.795609 3 0 
C 3 -0.795609 2.683901 -1.55874 2.12132 -2.12132 
C 1.55874 -2.683901 0.795609 -3 0 -3 
C -0.795609 -3 -1.55874 -2.683901 -2.12132 -2.12132 
C -2.683901 -1.55874 -3 -0.795609 -3 0 
C -3 0.795609 -2.683901 1.55874 -2.12132 2.12132 
C -1.55874 2.683901 -0.795609 3 0 3 
z
" style="stroke: #ffffff; stroke-opacity: 0.4; stroke-width: 0.48"/>
    </defs>
    <g clip-path="url(#p8f5707ce0f)">
     <use xlink:href="#mcee14c978b" x="185.407968" y="151.963676" style="fill: #1f77b4; fill-opacity: 0.4; stroke: #ffffff; stroke-opacity: 0.4; stroke-width: 0.48"/>
     <use xlink:href="#mcee14c978b" x="130.522722" y="175.901987" style="fill: #1f77b4; fill-opacity: 0.4; stroke: #ffffff; stroke-opacity: 0.4; stroke-width: 0.48"/>
     <use xlink:href="#mcee14c978b" x="247.421168" y="113.280138" style="fill: #1f77b4; fill-opacity: 0.4; stroke: #ffffff; stroke-opacity: 0.4; stroke-width: 0.48"/>
     <use xlink:href="#mcee14c978b" x="159.034538" y="162.385913" style="fill: #1f77b4; fill-opacity: 0.4; stroke: #ffffff; stroke-opacity: 0.4; stroke-width: 0.48"/>
     <use xlink:href="#mcee14c978b" x="218.196556" y="169.819876" style="fill: #1f77b4; fill-opacity: 0.4; stroke: #ffffff; stroke-opacity: 0.4; stroke-width: 0.48"/>
     <use xlink:href="#mcee14c978b" x="154.757766" y="159.198297" style="fill: #1f77b4; fill-opacity: 0.4; stroke: #ffffff; stroke-opacity: 0.4; stroke-width: 0.48"/>
     <use xlink:href="#mcee14c978b" x="155.470561" y="195.238587" style="fill: #1f77b4; fill-opacity: 0.4; stroke: #ffffff; stroke-opacity: 0.4; stroke-width: 0.48"/>
     <use xlink:href="#mcee14c978b" x="176.141628" y="140.528764" style="fill: #1f77b4; fill-opacity: 0.4; stroke: #ffffff; stroke-opacity: 0.4; stroke-width: 0.48"/>
     <use xlink:href="#mcee14c978b" x="231.739669" y="108.612674" style="fill: #1f77b4; fill-opacity: 0.4; stroke: #ffffff; stroke-opacity: 0.4; stroke-width: 0.48"/>
     <use xlink:href="#mcee14c978b" x="101.29811" y="200.307236" style="fill: #1f77b4; fill-opacity: 0.4; stroke: #ffffff; stroke-opacity: 0.4; stroke-width: 0.48"/>
     <use xlink:href="#mcee14c978b" x="166.162492" y="173.758141" style="fill: #1f77b4; fill-opacity: 0.4; stroke: #ffffff; stroke-opacity: 0.4; stroke-width: 0.48"/>
     <use xlink:href="#mcee14c978b" x="130.522722" y="198.205357" style="fill: #1f77b4; fill-opacity: 0.4; stroke: #ffffff; stroke-opacity: 0.4; stroke-width: 0.48"/>
     <use xlink:href="#mcee14c978b" x="167.588083" y="177.010881" style="fill: #1f77b4; fill-opacity: 0.4; stroke: #ffffff; stroke-opacity: 0.4; stroke-width: 0.48"/>
     <use xlink:href="#mcee14c978b" x="171.864855" y="153.661589" style="fill: #1f77b4; fill-opacity: 0.4; stroke: #ffffff; stroke-opacity: 0.4; stroke-width: 0.48"/>
     <use xlink:href="#mcee14c978b" x="218.909352" y="126.227045" style="fill: #1f77b4; fill-opacity: 0.4; stroke: #ffffff; stroke-opacity: 0.4; stroke-width: 0.48"/>
     <use xlink:href="#mcee14c978b" x="104.862088" y="212.06626" style="fill: #1f77b4; fill-opacity: 0.4; stroke: #ffffff; stroke-opacity: 0.4; stroke-width: 0.48"/>
     <use xlink:href="#mcee14c978b" x="197.52549" y="130.834838" style="fill: #1f77b4; fill-opacity: 0.4; stroke: #ffffff; stroke-opacity: 0.4; stroke-width: 0.48"/>
     <use xlink:href="#mcee14c978b" x="241.718805" y="124.792393" style="fill: #1f77b4; fill-opacity: 0.4; stroke: #ffffff; stroke-opacity: 0.4; stroke-width: 0.48"/>
     <use xlink:href="#mcee14c978b" x="230.314078" y="148.736379" style="fill: #1f77b4; fill-opacity: 0.4; stroke: #ffffff; stroke-opacity: 0.4; stroke-width: 0.48"/>
     <use xlink:href="#mcee14c978b" x="159.034538" y="170.599566" style="fill: #1f77b4; fill-opacity: 0.4; stroke: #ffffff; stroke-opacity: 0.4; stroke-width: 0.48"/>
     <use xlink:href="#mcee14c978b" x="193.961513" y="165.990923" style="fill: #1f77b4; fill-opacity: 0.4; stroke: #ffffff; stroke-opacity: 0.4; stroke-width: 0.48"/>
     <use xlink:href="#mcee14c978b" x="154.04497" y="178.85625" style="fill: #1f77b4; fill-opacity: 0.4; stroke: #ffffff; stroke-opacity: 0.4; stroke-width: 0.48"/>
     <use xlink:href="#mcee14c978b" x="171.864855" y="152.94625" style="fill: #1f77b4; fill-opacity: 0.4; stroke: #ffffff; stroke-opacity: 0.4; stroke-width: 0.48"/>
     <use xlink:href="#mcee14c978b" x="107.000474" y="201.906461" style="fill: #1f77b4; fill-opacity: 0.4; stroke: #ffffff; stroke-opacity: 0.4; stroke-width: 0.48"/>
     <use xlink:href="#mcee14c978b" x="161.88572" y="161.146519" style="fill: #1f77b4; fill-opacity: 0.4; stroke: #ffffff; stroke-opacity: 0.4; stroke-width: 0.48"/>
     <use xlink:href="#mcee14c978b" x="162.598515" y="159.786632" style="fill: #1f77b4; fill-opacity: 0.4; stroke: #ffffff; stroke-opacity: 0.4; stroke-width: 0.48"/>
     <use xlink:href="#mcee14c978b" x="233.878055" y="95.415464" style="fill: #1f77b4; fill-opacity: 0.4; stroke: #ffffff; stroke-opacity: 0.4; stroke-width: 0.48"/>
     <use xlink:href="#mcee14c978b" x="208.930216" y="129.733303" style="fill: #1f77b4; fill-opacity: 0.4; stroke: #ffffff; stroke-opacity: 0.4; stroke-width: 0.48"/>
     <use xlink:href="#mcee14c978b" x="197.52549" y="145.207563" style="fill: #1f77b4; fill-opacity: 0.4; stroke: #ffffff; stroke-opacity: 0.4; stroke-width: 0.48"/>
     <use xlink:href="#mcee14c978b" x="193.248717" y="140.968397" style="fill: #1f77b4; fill-opacity: 0.4; stroke: #ffffff; stroke-opacity: 0.4; stroke-width: 0.48"/>
     <use xlink:href="#mcee14c978b" x="285.199324" y="103.21264" style="fill: #1f77b4; fill-opacity: 0.4; stroke: #ffffff; stroke-opacity: 0.4; stroke-width: 0.48"/>
     <use xlink:href="#mcee14c978b" x="109.851655" y="209.781501" style="fill: #1f77b4; fill-opacity: 0.4; stroke: #ffffff; stroke-opacity: 0.4; stroke-width: 0.48"/>
     <use xlink:href="#mcee14c978b" x="141.927448" y="196.299337" style="fill: #1f77b4; fill-opacity: 0.4; stroke: #ffffff; stroke-opacity: 0.4; stroke-width: 0.48"/>
     <use xlink:href="#mcee14c978b" x="186.120763" y="149.773311" style="fill: #1f77b4; fill-opacity: 0.4; stroke: #ffffff; stroke-opacity: 0.4; stroke-width: 0.48"/>
     <use xlink:href="#mcee14c978b" x="143.353039" y="187.330658" style="fill: #1f77b4; fill-opacity: 0.4; stroke: #ffffff; stroke-opacity: 0.4; stroke-width: 0.48"/>
     <use xlink:href="#mcee14c978b" x="112.702837" y="198.933282" style="fill: #1f77b4; fill-opacity: 0.4; stroke: #ffffff; stroke-opacity: 0.4; stroke-width: 0.48"/>
     <use xlink:href="#mcee14c978b" x="196.099899" y="144.889614" style="fill: #1f77b4; fill-opacity: 0.4; stroke: #ffffff; stroke-opacity: 0.4; stroke-width: 0.48"/>
     <use xlink:href="#mcee14c978b" x="160.460129" y="157.717715" style="fill: #1f77b4; fill-opacity: 0.4; stroke: #ffffff; stroke-opacity: 0.4; stroke-width: 0.48"/>
     <use xlink:href="#mcee14c978b" x="162.598515" y="183.241877" style="fill: #1f77b4; fill-opacity: 0.4; stroke: #ffffff; stroke-opacity: 0.4; stroke-width: 0.48"/>
     <use xlink:href="#mcee14c978b" x="168.300878" y="176.576839" style="fill: #1f77b4; fill-opacity: 0.4; stroke: #ffffff; stroke-opacity: 0.4; stroke-width: 0.48"/>
     <use xlink:href="#mcee14c978b" x="109.13886" y="185.334651" style="fill: #1f77b4; fill-opacity: 0.4; stroke: #ffffff; stroke-opacity: 0.4; stroke-width: 0.48"/>
     <use xlink:href="#mcee14c978b" x="161.172924" y="170.362304" style="fill: #1f77b4; fill-opacity: 0.4; stroke: #ffffff; stroke-opacity: 0.4; stroke-width: 0.48"/>
     <use xlink:href="#mcee14c978b" x="176.141628" y="167.123894" style="fill: #1f77b4; fill-opacity: 0.4; stroke: #ffffff; stroke-opacity: 0.4; stroke-width: 0.48"/>
     <use xlink:href="#mcee14c978b" x="190.397536" y="122.132593" style="fill: #1f77b4; fill-opacity: 0.4; stroke: #ffffff; stroke-opacity: 0.4; stroke-width: 0.48"/>
     <use xlink:href="#mcee14c978b" x="149.055402" y="178.577108" style="fill: #1f77b4; fill-opacity: 0.4; stroke: #ffffff; stroke-opacity: 0.4; stroke-width: 0.48"/>
     <use xlink:href="#mcee14c978b" x="181.843991" y="119.507025" style="fill: #1f77b4; fill-opacity: 0.4; stroke: #ffffff; stroke-opacity: 0.4; stroke-width: 0.48"/>
     <use xlink:href="#mcee14c978b" x="127.67154" y="179.235007" style="fill: #1f77b4; fill-opacity: 0.4; stroke: #ffffff; stroke-opacity: 0.4; stroke-width: 0.48"/>
     <use xlink:href="#mcee14c978b" x="156.183356" y="169.811147" style="fill: #1f77b4; fill-opacity: 0.4; stroke: #ffffff; stroke-opacity: 0.4; stroke-width: 0.48"/>
     <use xlink:href="#mcee14c978b" x="134.799494" y="170.810118" style="fill: #1f77b4; fill-opacity: 0.4; stroke: #ffffff; stroke-opacity: 0.4; stroke-width: 0.48"/>
     <use xlink:href="#mcee14c978b" x="178.992809" y="158.609591" style="fill: #1f77b4; fill-opacity: 0.4; stroke: #ffffff; stroke-opacity: 0.4; stroke-width: 0.48"/>
     <use xlink:href="#mcee14c978b" x="164.024106" y="160.033567" style="fill: #1f77b4; fill-opacity: 0.4; stroke: #ffffff; stroke-opacity: 0.4; stroke-width: 0.48"/>
     <use xlink:href="#mcee14c978b" x="134.086699" y="160.382278" style="fill: #1f77b4; fill-opacity: 0.4; stroke: #ffffff; stroke-opacity: 0.4; stroke-width: 0.48"/>
     <use xlink:href="#mcee14c978b" x="295.17846" y="92.021708" style="fill: #1f77b4; fill-opacity: 0.4; stroke: #ffffff; stroke-opacity: 0.4; stroke-width: 0.48"/>
     <use xlink:href="#mcee14c978b" x="118.4052" y="199.945643" style="fill: #1f77b4; fill-opacity: 0.4; stroke: #ffffff; stroke-opacity: 0.4; stroke-width: 0.48"/>
     <use xlink:href="#mcee14c978b" x="171.864855" y="179.192718" style="fill: #1f77b4; fill-opacity: 0.4; stroke: #ffffff; stroke-opacity: 0.4; stroke-width: 0.48"/>
     <use xlink:href="#mcee14c978b" x="157.608947" y="163.68197" style="fill: #1f77b4; fill-opacity: 0.4; stroke: #ffffff; stroke-opacity: 0.4; stroke-width: 0.48"/>
     <use xlink:href="#mcee14c978b" x="160.460129" y="182.532467" style="fill: #1f77b4; fill-opacity: 0.4; stroke: #ffffff; stroke-opacity: 0.4; stroke-width: 0.48"/>
     <use xlink:href="#mcee14c978b" x="363.606818" y="80.719836" style="fill: #1f77b4; fill-opacity: 0.4; stroke: #ffffff; stroke-opacity: 0.4; stroke-width: 0.48"/>
     <use xlink:href="#mcee14c978b" x="166.162492" y="161.470792" style="fill: #1f77b4; fill-opacity: 0.4; stroke: #ffffff; stroke-opacity: 0.4; stroke-width: 0.48"/>
     <use xlink:href="#mcee14c978b" x="149.768198" y="174.186274" style="fill: #1f77b4; fill-opacity: 0.4; stroke: #ffffff; stroke-opacity: 0.4; stroke-width: 0.48"/>
     <use xlink:href="#mcee14c978b" x="199.663876" y="138.014794" style="fill: #1f77b4; fill-opacity: 0.4; stroke: #ffffff; stroke-opacity: 0.4; stroke-width: 0.48"/>
     <use xlink:href="#mcee14c978b" x="174.716037" y="174.00065" style="fill: #1f77b4; fill-opacity: 0.4; stroke: #ffffff; stroke-opacity: 0.4; stroke-width: 0.48"/>
     <use xlink:href="#mcee14c978b" x="196.099899" y="140.910021" style="fill: #1f77b4; fill-opacity: 0.4; stroke: #ffffff; stroke-opacity: 0.4; stroke-width: 0.48"/>
     <use xlink:href="#mcee14c978b" x="238.867623" y="118.633056" style="fill: #1f77b4; fill-opacity: 0.4; stroke: #ffffff; stroke-opacity: 0.4; stroke-width: 0.48"/>
     <use xlink:href="#mcee14c978b" x="94.170156" y="204.664711" style="fill: #1f77b4; fill-opacity: 0.4; stroke: #ffffff; stroke-opacity: 0.4; stroke-width: 0.48"/>
     <use xlink:href="#mcee14c978b" x="94.170156" y="228.899634" style="fill: #1f77b4; fill-opacity: 0.4; stroke: #ffffff; stroke-opacity: 0.4; stroke-width: 0.48"/>
     <use xlink:href="#mcee14c978b" x="276.645779" y="108.903071" style="fill: #1f77b4; fill-opacity: 0.4; stroke: #ffffff; stroke-opacity: 0.4; stroke-width: 0.48"/>
     <use xlink:href="#mcee14c978b" x="136.225085" y="177.290616" style="fill: #1f77b4; fill-opacity: 0.4; stroke: #ffffff; stroke-opacity: 0.4; stroke-width: 0.48"/>
     <use xlink:href="#mcee14c978b" x="127.67154" y="194.118447" style="fill: #1f77b4; fill-opacity: 0.4; stroke: #ffffff; stroke-opacity: 0.4; stroke-width: 0.48"/>
     <use xlink:href="#mcee14c978b" x="161.88572" y="173.931159" style="fill: #1f77b4; fill-opacity: 0.4; stroke: #ffffff; stroke-opacity: 0.4; stroke-width: 0.48"/>
     <use xlink:href="#mcee14c978b" x="279.496961" y="94.835565" style="fill: #1f77b4; fill-opacity: 0.4; stroke: #ffffff; stroke-opacity: 0.4; stroke-width: 0.48"/>
     <use xlink:href="#mcee14c978b" x="165.449697" y="172.533986" style="fill: #1f77b4; fill-opacity: 0.4; stroke: #ffffff; stroke-opacity: 0.4; stroke-width: 0.48"/>
     <use xlink:href="#mcee14c978b" x="177.567218" y="142.25869" style="fill: #1f77b4; fill-opacity: 0.4; stroke: #ffffff; stroke-opacity: 0.4; stroke-width: 0.48"/>
     <use xlink:href="#mcee14c978b" x="189.68474" y="138.786791" style="fill: #1f77b4; fill-opacity: 0.4; stroke: #ffffff; stroke-opacity: 0.4; stroke-width: 0.48"/>
     <use xlink:href="#mcee14c978b" x="152.619379" y="180.221113" style="fill: #1f77b4; fill-opacity: 0.4; stroke: #ffffff; stroke-opacity: 0.4; stroke-width: 0.48"/>
     <use xlink:href="#mcee14c978b" x="151.193789" y="143.807244" style="fill: #1f77b4; fill-opacity: 0.4; stroke: #ffffff; stroke-opacity: 0.4; stroke-width: 0.48"/>
     <use xlink:href="#mcee14c978b" x="130.522722" y="193.439768" style="fill: #1f77b4; fill-opacity: 0.4; stroke: #ffffff; stroke-opacity: 0.4; stroke-width: 0.48"/>
     <use xlink:href="#mcee14c978b" x="144.065835" y="187.555766" style="fill: #1f77b4; fill-opacity: 0.4; stroke: #ffffff; stroke-opacity: 0.4; stroke-width: 0.48"/>
     <use xlink:href="#mcee14c978b" x="169.726469" y="168.882545" style="fill: #1f77b4; fill-opacity: 0.4; stroke: #ffffff; stroke-opacity: 0.4; stroke-width: 0.48"/>
     <use xlink:href="#mcee14c978b" x="59.243182" y="204.472648" style="fill: #1f77b4; fill-opacity: 0.4; stroke: #ffffff; stroke-opacity: 0.4; stroke-width: 0.48"/>
     <use xlink:href="#mcee14c978b" x="122.681973" y="182.921936" style="fill: #1f77b4; fill-opacity: 0.4; stroke: #ffffff; stroke-opacity: 0.4; stroke-width: 0.48"/>
     <use xlink:href="#mcee14c978b" x="177.567218" y="174.329197" style="fill: #1f77b4; fill-opacity: 0.4; stroke: #ffffff; stroke-opacity: 0.4; stroke-width: 0.48"/>
     <use xlink:href="#mcee14c978b" x="194.674308" y="119.510569" style="fill: #1f77b4; fill-opacity: 0.4; stroke: #ffffff; stroke-opacity: 0.4; stroke-width: 0.48"/>
    </g>
   </g>
   <g id="PathCollection_2">
    <defs>
     <path id="ma7e1cb4ad2" d="M 0 2.236068 
C 0.593012 2.236068 1.161816 2.000462 1.581139 1.581139 
C 2.000462 1.161816 2.236068 0.593012 2.236068 0 
C 2.236068 -0.593012 2.000462 -1.161816 1.581139 -1.581139 
C 1.161816 -2.000462 0.593012 -2.236068 0 -2.236068 
C -0.593012 -2.236068 -1.161816 -2.000462 -1.581139 -1.581139 
C -2.000462 -1.161816 -2.236068 -0.593012 -2.236068 0 
C -2.236068 0.593012 -2.000462 1.161816 -1.581139 1.581139 
C -1.161816 2.000462 -0.593012 2.236068 0 2.236068 
z
" style="stroke: #1f77b4; stroke-opacity: 0.3"/>
    </defs>
    <g clip-path="url(#p8f5707ce0f)">
     <use xlink:href="#ma7e1cb4ad2" x="185.407968" y="151.963676" style="fill: #1f77b4; fill-opacity: 0.3; stroke: #1f77b4; stroke-opacity: 0.3"/>
     <use xlink:href="#ma7e1cb4ad2" x="130.522722" y="175.901987" style="fill: #1f77b4; fill-opacity: 0.3; stroke: #1f77b4; stroke-opacity: 0.3"/>
     <use xlink:href="#ma7e1cb4ad2" x="247.421168" y="113.280138" style="fill: #1f77b4; fill-opacity: 0.3; stroke: #1f77b4; stroke-opacity: 0.3"/>
     <use xlink:href="#ma7e1cb4ad2" x="159.034538" y="162.385913" style="fill: #1f77b4; fill-opacity: 0.3; stroke: #1f77b4; stroke-opacity: 0.3"/>
     <use xlink:href="#ma7e1cb4ad2" x="218.196556" y="169.819876" style="fill: #1f77b4; fill-opacity: 0.3; stroke: #1f77b4; stroke-opacity: 0.3"/>
     <use xlink:href="#ma7e1cb4ad2" x="154.757766" y="159.198297" style="fill: #1f77b4; fill-opacity: 0.3; stroke: #1f77b4; stroke-opacity: 0.3"/>
     <use xlink:href="#ma7e1cb4ad2" x="155.470561" y="195.238587" style="fill: #1f77b4; fill-opacity: 0.3; stroke: #1f77b4; stroke-opacity: 0.3"/>
     <use xlink:href="#ma7e1cb4ad2" x="176.141628" y="140.528764" style="fill: #1f77b4; fill-opacity: 0.3; stroke: #1f77b4; stroke-opacity: 0.3"/>
     <use xlink:href="#ma7e1cb4ad2" x="231.739669" y="108.612674" style="fill: #1f77b4; fill-opacity: 0.3; stroke: #1f77b4; stroke-opacity: 0.3"/>
     <use xlink:href="#ma7e1cb4ad2" x="101.29811" y="200.307236" style="fill: #1f77b4; fill-opacity: 0.3; stroke: #1f77b4; stroke-opacity: 0.3"/>
     <use xlink:href="#ma7e1cb4ad2" x="166.162492" y="173.758141" style="fill: #1f77b4; fill-opacity: 0.3; stroke: #1f77b4; stroke-opacity: 0.3"/>
     <use xlink:href="#ma7e1cb4ad2" x="130.522722" y="198.205357" style="fill: #1f77b4; fill-opacity: 0.3; stroke: #1f77b4; stroke-opacity: 0.3"/>
     <use xlink:href="#ma7e1cb4ad2" x="167.588083" y="177.010881" style="fill: #1f77b4; fill-opacity: 0.3; stroke: #1f77b4; stroke-opacity: 0.3"/>
     <use xlink:href="#ma7e1cb4ad2" x="171.864855" y="153.661589" style="fill: #1f77b4; fill-opacity: 0.3; stroke: #1f77b4; stroke-opacity: 0.3"/>
     <use xlink:href="#ma7e1cb4ad2" x="218.909352" y="126.227045" style="fill: #1f77b4; fill-opacity: 0.3; stroke: #1f77b4; stroke-opacity: 0.3"/>
     <use xlink:href="#ma7e1cb4ad2" x="104.862088" y="212.06626" style="fill: #1f77b4; fill-opacity: 0.3; stroke: #1f77b4; stroke-opacity: 0.3"/>
     <use xlink:href="#ma7e1cb4ad2" x="197.52549" y="130.834838" style="fill: #1f77b4; fill-opacity: 0.3; stroke: #1f77b4; stroke-opacity: 0.3"/>
     <use xlink:href="#ma7e1cb4ad2" x="241.718805" y="124.792393" style="fill: #1f77b4; fill-opacity: 0.3; stroke: #1f77b4; stroke-opacity: 0.3"/>
     <use xlink:href="#ma7e1cb4ad2" x="230.314078" y="148.736379" style="fill: #1f77b4; fill-opacity: 0.3; stroke: #1f77b4; stroke-opacity: 0.3"/>
     <use xlink:href="#ma7e1cb4ad2" x="159.034538" y="170.599566" style="fill: #1f77b4; fill-opacity: 0.3; stroke: #1f77b4; stroke-opacity: 0.3"/>
     <use xlink:href="#ma7e1cb4ad2" x="193.961513" y="165.990923" style="fill: #1f77b4; fill-opacity: 0.3; stroke: #1f77b4; stroke-opacity: 0.3"/>
     <use xlink:href="#ma7e1cb4ad2" x="154.04497" y="178.85625" style="fill: #1f77b4; fill-opacity: 0.3; stroke: #1f77b4; stroke-opacity: 0.3"/>
     <use xlink:href="#ma7e1cb4ad2" x="171.864855" y="152.94625" style="fill: #1f77b4; fill-opacity: 0.3; stroke: #1f77b4; stroke-opacity: 0.3"/>
     <use xlink:href="#ma7e1cb4ad2" x="107.000474" y="201.906461" style="fill: #1f77b4; fill-opacity: 0.3; stroke: #1f77b4; stroke-opacity: 0.3"/>
     <use xlink:href="#ma7e1cb4ad2" x="161.88572" y="161.146519" style="fill: #1f77b4; fill-opacity: 0.3; stroke: #1f77b4; stroke-opacity: 0.3"/>
     <use xlink:href="#ma7e1cb4ad2" x="162.598515" y="159.786632" style="fill: #1f77b4; fill-opacity: 0.3; stroke: #1f77b4; stroke-opacity: 0.3"/>
     <use xlink:href="#ma7e1cb4ad2" x="233.878055" y="95.415464" style="fill: #1f77b4; fill-opacity: 0.3; stroke: #1f77b4; stroke-opacity: 0.3"/>
     <use xlink:href="#ma7e1cb4ad2" x="208.930216" y="129.733303" style="fill: #1f77b4; fill-opacity: 0.3; stroke: #1f77b4; stroke-opacity: 0.3"/>
     <use xlink:href="#ma7e1cb4ad2" x="197.52549" y="145.207563" style="fill: #1f77b4; fill-opacity: 0.3; stroke: #1f77b4; stroke-opacity: 0.3"/>
     <use xlink:href="#ma7e1cb4ad2" x="193.248717" y="140.968397" style="fill: #1f77b4; fill-opacity: 0.3; stroke: #1f77b4; stroke-opacity: 0.3"/>
     <use xlink:href="#ma7e1cb4ad2" x="285.199324" y="103.21264" style="fill: #1f77b4; fill-opacity: 0.3; stroke: #1f77b4; stroke-opacity: 0.3"/>
     <use xlink:href="#ma7e1cb4ad2" x="109.851655" y="209.781501" style="fill: #1f77b4; fill-opacity: 0.3; stroke: #1f77b4; stroke-opacity: 0.3"/>
     <use xlink:href="#ma7e1cb4ad2" x="141.927448" y="196.299337" style="fill: #1f77b4; fill-opacity: 0.3; stroke: #1f77b4; stroke-opacity: 0.3"/>
     <use xlink:href="#ma7e1cb4ad2" x="186.120763" y="149.773311" style="fill: #1f77b4; fill-opacity: 0.3; stroke: #1f77b4; stroke-opacity: 0.3"/>
     <use xlink:href="#ma7e1cb4ad2" x="143.353039" y="187.330658" style="fill: #1f77b4; fill-opacity: 0.3; stroke: #1f77b4; stroke-opacity: 0.3"/>
     <use xlink:href="#ma7e1cb4ad2" x="112.702837" y="198.933282" style="fill: #1f77b4; fill-opacity: 0.3; stroke: #1f77b4; stroke-opacity: 0.3"/>
     <use xlink:href="#ma7e1cb4ad2" x="196.099899" y="144.889614" style="fill: #1f77b4; fill-opacity: 0.3; stroke: #1f77b4; stroke-opacity: 0.3"/>
     <use xlink:href="#ma7e1cb4ad2" x="160.460129" y="157.717715" style="fill: #1f77b4; fill-opacity: 0.3; stroke: #1f77b4; stroke-opacity: 0.3"/>
     <use xlink:href="#ma7e1cb4ad2" x="162.598515" y="183.241877" style="fill: #1f77b4; fill-opacity: 0.3; stroke: #1f77b4; stroke-opacity: 0.3"/>
     <use xlink:href="#ma7e1cb4ad2" x="168.300878" y="176.576839" style="fill: #1f77b4; fill-opacity: 0.3; stroke: #1f77b4; stroke-opacity: 0.3"/>
     <use xlink:href="#ma7e1cb4ad2" x="109.13886" y="185.334651" style="fill: #1f77b4; fill-opacity: 0.3; stroke: #1f77b4; stroke-opacity: 0.3"/>
     <use xlink:href="#ma7e1cb4ad2" x="161.172924" y="170.362304" style="fill: #1f77b4; fill-opacity: 0.3; stroke: #1f77b4; stroke-opacity: 0.3"/>
     <use xlink:href="#ma7e1cb4ad2" x="176.141628" y="167.123894" style="fill: #1f77b4; fill-opacity: 0.3; stroke: #1f77b4; stroke-opacity: 0.3"/>
     <use xlink:href="#ma7e1cb4ad2" x="190.397536" y="122.132593" style="fill: #1f77b4; fill-opacity: 0.3; stroke: #1f77b4; stroke-opacity: 0.3"/>
     <use xlink:href="#ma7e1cb4ad2" x="149.055402" y="178.577108" style="fill: #1f77b4; fill-opacity: 0.3; stroke: #1f77b4; stroke-opacity: 0.3"/>
     <use xlink:href="#ma7e1cb4ad2" x="181.843991" y="119.507025" style="fill: #1f77b4; fill-opacity: 0.3; stroke: #1f77b4; stroke-opacity: 0.3"/>
     <use xlink:href="#ma7e1cb4ad2" x="127.67154" y="179.235007" style="fill: #1f77b4; fill-opacity: 0.3; stroke: #1f77b4; stroke-opacity: 0.3"/>
     <use xlink:href="#ma7e1cb4ad2" x="156.183356" y="169.811147" style="fill: #1f77b4; fill-opacity: 0.3; stroke: #1f77b4; stroke-opacity: 0.3"/>
     <use xlink:href="#ma7e1cb4ad2" x="134.799494" y="170.810118" style="fill: #1f77b4; fill-opacity: 0.3; stroke: #1f77b4; stroke-opacity: 0.3"/>
     <use xlink:href="#ma7e1cb4ad2" x="178.992809" y="158.609591" style="fill: #1f77b4; fill-opacity: 0.3; stroke: #1f77b4; stroke-opacity: 0.3"/>
     <use xlink:href="#ma7e1cb4ad2" x="164.024106" y="160.033567" style="fill: #1f77b4; fill-opacity: 0.3; stroke: #1f77b4; stroke-opacity: 0.3"/>
     <use xlink:href="#ma7e1cb4ad2" x="134.086699" y="160.382278" style="fill: #1f77b4; fill-opacity: 0.3; stroke: #1f77b4; stroke-opacity: 0.3"/>
     <use xlink:href="#ma7e1cb4ad2" x="295.17846" y="92.021708" style="fill: #1f77b4; fill-opacity: 0.3; stroke: #1f77b4; stroke-opacity: 0.3"/>
     <use xlink:href="#ma7e1cb4ad2" x="118.4052" y="199.945643" style="fill: #1f77b4; fill-opacity: 0.3; stroke: #1f77b4; stroke-opacity: 0.3"/>
     <use xlink:href="#ma7e1cb4ad2" x="171.864855" y="179.192718" style="fill: #1f77b4; fill-opacity: 0.3; stroke: #1f77b4; stroke-opacity: 0.3"/>
     <use xlink:href="#ma7e1cb4ad2" x="157.608947" y="163.68197" style="fill: #1f77b4; fill-opacity: 0.3; stroke: #1f77b4; stroke-opacity: 0.3"/>
     <use xlink:href="#ma7e1cb4ad2" x="160.460129" y="182.532467" style="fill: #1f77b4; fill-opacity: 0.3; stroke: #1f77b4; stroke-opacity: 0.3"/>
     <use xlink:href="#ma7e1cb4ad2" x="363.606818" y="80.719836" style="fill: #1f77b4; fill-opacity: 0.3; stroke: #1f77b4; stroke-opacity: 0.3"/>
     <use xlink:href="#ma7e1cb4ad2" x="166.162492" y="161.470792" style="fill: #1f77b4; fill-opacity: 0.3; stroke: #1f77b4; stroke-opacity: 0.3"/>
     <use xlink:href="#ma7e1cb4ad2" x="149.768198" y="174.186274" style="fill: #1f77b4; fill-opacity: 0.3; stroke: #1f77b4; stroke-opacity: 0.3"/>
     <use xlink:href="#ma7e1cb4ad2" x="199.663876" y="138.014794" style="fill: #1f77b4; fill-opacity: 0.3; stroke: #1f77b4; stroke-opacity: 0.3"/>
     <use xlink:href="#ma7e1cb4ad2" x="174.716037" y="174.00065" style="fill: #1f77b4; fill-opacity: 0.3; stroke: #1f77b4; stroke-opacity: 0.3"/>
     <use xlink:href="#ma7e1cb4ad2" x="196.099899" y="140.910021" style="fill: #1f77b4; fill-opacity: 0.3; stroke: #1f77b4; stroke-opacity: 0.3"/>
     <use xlink:href="#ma7e1cb4ad2" x="238.867623" y="118.633056" style="fill: #1f77b4; fill-opacity: 0.3; stroke: #1f77b4; stroke-opacity: 0.3"/>
     <use xlink:href="#ma7e1cb4ad2" x="94.170156" y="204.664711" style="fill: #1f77b4; fill-opacity: 0.3; stroke: #1f77b4; stroke-opacity: 0.3"/>
     <use xlink:href="#ma7e1cb4ad2" x="94.170156" y="228.899634" style="fill: #1f77b4; fill-opacity: 0.3; stroke: #1f77b4; stroke-opacity: 0.3"/>
     <use xlink:href="#ma7e1cb4ad2" x="276.645779" y="108.903071" style="fill: #1f77b4; fill-opacity: 0.3; stroke: #1f77b4; stroke-opacity: 0.3"/>
     <use xlink:href="#ma7e1cb4ad2" x="136.225085" y="177.290616" style="fill: #1f77b4; fill-opacity: 0.3; stroke: #1f77b4; stroke-opacity: 0.3"/>
     <use xlink:href="#ma7e1cb4ad2" x="127.67154" y="194.118447" style="fill: #1f77b4; fill-opacity: 0.3; stroke: #1f77b4; stroke-opacity: 0.3"/>
     <use xlink:href="#ma7e1cb4ad2" x="161.88572" y="173.931159" style="fill: #1f77b4; fill-opacity: 0.3; stroke: #1f77b4; stroke-opacity: 0.3"/>
     <use xlink:href="#ma7e1cb4ad2" x="279.496961" y="94.835565" style="fill: #1f77b4; fill-opacity: 0.3; stroke: #1f77b4; stroke-opacity: 0.3"/>
     <use xlink:href="#ma7e1cb4ad2" x="165.449697" y="172.533986" style="fill: #1f77b4; fill-opacity: 0.3; stroke: #1f77b4; stroke-opacity: 0.3"/>
     <use xlink:href="#ma7e1cb4ad2" x="177.567218" y="142.25869" style="fill: #1f77b4; fill-opacity: 0.3; stroke: #1f77b4; stroke-opacity: 0.3"/>
     <use xlink:href="#ma7e1cb4ad2" x="189.68474" y="138.786791" style="fill: #1f77b4; fill-opacity: 0.3; stroke: #1f77b4; stroke-opacity: 0.3"/>
     <use xlink:href="#ma7e1cb4ad2" x="152.619379" y="180.221113" style="fill: #1f77b4; fill-opacity: 0.3; stroke: #1f77b4; stroke-opacity: 0.3"/>
     <use xlink:href="#ma7e1cb4ad2" x="151.193789" y="143.807244" style="fill: #1f77b4; fill-opacity: 0.3; stroke: #1f77b4; stroke-opacity: 0.3"/>
     <use xlink:href="#ma7e1cb4ad2" x="130.522722" y="193.439768" style="fill: #1f77b4; fill-opacity: 0.3; stroke: #1f77b4; stroke-opacity: 0.3"/>
     <use xlink:href="#ma7e1cb4ad2" x="144.065835" y="187.555766" style="fill: #1f77b4; fill-opacity: 0.3; stroke: #1f77b4; stroke-opacity: 0.3"/>
     <use xlink:href="#ma7e1cb4ad2" x="169.726469" y="168.882545" style="fill: #1f77b4; fill-opacity: 0.3; stroke: #1f77b4; stroke-opacity: 0.3"/>
     <use xlink:href="#ma7e1cb4ad2" x="59.243182" y="204.472648" style="fill: #1f77b4; fill-opacity: 0.3; stroke: #1f77b4; stroke-opacity: 0.3"/>
     <use xlink:href="#ma7e1cb4ad2" x="122.681973" y="182.921936" style="fill: #1f77b4; fill-opacity: 0.3; stroke: #1f77b4; stroke-opacity: 0.3"/>
     <use xlink:href="#ma7e1cb4ad2" x="177.567218" y="174.329197" style="fill: #1f77b4; fill-opacity: 0.3; stroke: #1f77b4; stroke-opacity: 0.3"/>
     <use xlink:href="#ma7e1cb4ad2" x="194.674308" y="119.510569" style="fill: #1f77b4; fill-opacity: 0.3; stroke: #1f77b4; stroke-opacity: 0.3"/>
    </g>
   </g>
   <g id="PolyCollection_1">
    <path d="M 59.243182 217.329669 
L 59.243182 233.956364 
L 62.317562 232.015052 
L 65.391942 230.046368 
L 68.466322 228.051911 
L 71.540702 226.056225 
L 74.615083 224.059579 
L 77.689463 222.065708 
L 80.763843 220.070299 
L 83.838223 218.084397 
L 86.912603 216.094658 
L 89.986983 214.08377 
L 93.061364 212.08826 
L 96.135744 210.092751 
L 99.210124 208.131828 
L 102.284504 206.19016 
L 105.358884 204.198383 
L 108.433264 202.206361 
L 111.507645 200.29316 
L 114.582025 198.343215 
L 117.656405 196.45307 
L 120.730785 194.401267 
L 123.805165 192.398048 
L 126.879545 190.45046 
L 129.953926 188.672286 
L 133.028306 186.583569 
L 136.102686 184.754158 
L 139.177066 182.85239 
L 142.251446 181.02808 
L 145.325826 179.102048 
L 148.400207 177.251815 
L 151.474587 175.380566 
L 154.548967 173.643132 
L 157.623347 171.873226 
L 160.697727 170.096956 
L 163.772107 168.280577 
L 166.846488 166.608015 
L 169.920868 164.901936 
L 172.995248 163.190425 
L 176.069628 161.548274 
L 179.144008 159.904667 
L 182.218388 158.216764 
L 185.292769 156.593271 
L 188.367149 154.985104 
L 191.441529 153.299956 
L 194.515909 151.711421 
L 197.590289 150.121682 
L 200.664669 148.478174 
L 203.73905 146.81305 
L 206.81343 145.166348 
L 209.88781 143.490809 
L 212.96219 141.873661 
L 216.03657 140.318073 
L 219.11095 138.752954 
L 222.185331 137.162909 
L 225.259711 135.573296 
L 228.334091 133.940573 
L 231.408471 132.31745 
L 234.482851 130.776834 
L 237.557231 129.211718 
L 240.631612 127.60857 
L 243.705992 126.057454 
L 246.780372 124.455588 
L 249.854752 122.925432 
L 252.929132 121.395277 
L 256.003512 119.835687 
L 259.077893 118.238915 
L 262.152273 116.641617 
L 265.226653 115.10375 
L 268.301033 113.537628 
L 271.375413 111.988576 
L 274.449793 110.410607 
L 277.524174 108.842946 
L 280.598554 107.315873 
L 283.672934 105.7888 
L 286.747314 104.231189 
L 289.821694 102.642505 
L 292.896074 101.072115 
L 295.970455 99.533743 
L 299.044835 97.944897 
L 302.119215 96.407403 
L 305.193595 94.850027 
L 308.267975 93.274887 
L 311.342355 91.72253 
L 314.416736 90.170947 
L 317.491116 88.605819 
L 320.565496 87.049721 
L 323.639876 85.485335 
L 326.714256 83.9443 
L 329.788636 82.403558 
L 332.863017 80.862446 
L 335.937397 79.322074 
L 339.011777 77.781333 
L 342.086157 76.240591 
L 345.160537 74.709399 
L 348.234917 73.185073 
L 351.309298 71.660747 
L 354.383678 70.13642 
L 357.458058 68.606564 
L 360.532438 67.072711 
L 363.606818 65.538859 
L 363.606818 36.283636 
L 363.606818 36.283636 
L 360.532438 38.252279 
L 357.458058 40.220922 
L 354.383678 42.19018 
L 351.309298 44.160203 
L 348.234917 46.130226 
L 345.160537 48.116861 
L 342.086157 50.10616 
L 339.011777 52.072967 
L 335.937397 54.039774 
L 332.863017 56.006581 
L 329.788636 57.973388 
L 326.714256 59.940195 
L 323.639876 61.907002 
L 320.565496 63.873808 
L 317.491116 65.840615 
L 314.416736 67.807422 
L 311.342355 69.774229 
L 308.267975 71.741036 
L 305.193595 73.707843 
L 302.119215 75.67465 
L 299.044835 77.641457 
L 295.970455 79.608264 
L 292.896074 81.582748 
L 289.821694 83.641428 
L 286.747314 85.658894 
L 283.672934 87.59723 
L 280.598554 89.535566 
L 277.524174 91.473903 
L 274.449793 93.412239 
L 271.375413 95.361523 
L 268.301033 97.330509 
L 265.226653 99.299696 
L 262.152273 101.245006 
L 259.077893 103.207969 
L 256.003512 105.175306 
L 252.929132 107.142642 
L 249.854752 109.130502 
L 246.780372 111.11482 
L 243.705992 113.084135 
L 240.631612 115.053743 
L 237.557231 117.023351 
L 234.482851 118.992751 
L 231.408471 120.961615 
L 228.334091 122.930479 
L 225.259711 124.899343 
L 222.185331 126.868936 
L 219.11095 128.83903 
L 216.03657 130.848427 
L 212.96219 132.85609 
L 209.88781 134.842805 
L 206.81343 136.756603 
L 203.73905 138.685131 
L 200.664669 140.618234 
L 197.590289 142.552272 
L 194.515909 144.510438 
L 191.441529 146.430946 
L 188.367149 148.298797 
L 185.292769 150.175567 
L 182.218388 152.045186 
L 179.144008 153.974503 
L 176.069628 155.806113 
L 172.995248 157.577292 
L 169.920868 159.338534 
L 166.846488 161.078324 
L 163.772107 162.8307 
L 160.697727 164.529183 
L 157.623347 166.227767 
L 154.548967 167.888885 
L 151.474587 169.586936 
L 148.400207 171.297898 
L 145.325826 173.027819 
L 142.251446 174.68584 
L 139.177066 176.281825 
L 136.102686 177.870822 
L 133.028306 179.549648 
L 129.953926 181.237757 
L 126.879545 182.861472 
L 123.805165 184.428472 
L 120.730785 185.965808 
L 117.656405 187.570811 
L 114.582025 189.14037 
L 111.507645 190.745966 
L 108.433264 192.335232 
L 105.358884 193.963229 
L 102.284504 195.569499 
L 99.210124 197.103505 
L 96.135744 198.658929 
L 93.061364 200.197372 
L 89.986983 201.764762 
L 86.912603 203.363308 
L 83.838223 204.915816 
L 80.763843 206.47292 
L 77.689463 208.018736 
L 74.615083 209.569727 
L 71.540702 211.121315 
L 68.466322 212.672268 
L 65.391942 214.223222 
L 62.317562 215.774444 
L 59.243182 217.329669 
z
" clip-path="url(#p8f5707ce0f)" style="fill: #008000; fill-opacity: 0.15"/>
   </g>
   <g id="matplotlib.axis_1">
    <g id="xtick_1">
     <g id="line2d_1">
      <defs>
       <path id="m04fbe58107" d="M 0 0 
L 0 3.5 
" style="stroke: #000000; stroke-width: 0.8"/>
      </defs>
      <g>
       <use xlink:href="#m04fbe58107" x="90.606179" y="243.84" style="stroke: #000000; stroke-width: 0.8"/>
      </g>
     </g>
     <g id="text_1">
      <!-- 10 -->
      <g transform="translate(84.243679 258.438437)scale(0.1 -0.1)">
       <defs>
        <path id="DejaVuSans-31" d="M 794 531 
L 1825 531 
L 1825 4091 
L 703 3866 
L 703 4441 
L 1819 4666 
L 2450 4666 
L 2450 531 
L 3481 531 
L 3481 0 
L 794 0 
L 794 531 
z
" transform="scale(0.015625)"/>
        <path id="DejaVuSans-30" d="M 2034 4250 
Q 1547 4250 1301 3770 
Q 1056 3291 1056 2328 
Q 1056 1369 1301 889 
Q 1547 409 2034 409 
Q 2525 409 2770 889 
Q 3016 1369 3016 2328 
Q 3016 3291 2770 3770 
Q 2525 4250 2034 4250 
z
M 2034 4750 
Q 2819 4750 3233 4129 
Q 3647 3509 3647 2328 
Q 3647 1150 3233 529 
Q 2819 -91 2034 -91 
Q 1250 -91 836 529 
Q 422 1150 422 2328 
Q 422 3509 836 4129 
Q 1250 4750 2034 4750 
z
" transform="scale(0.015625)"/>
       </defs>
       <use xlink:href="#DejaVuSans-31"/>
       <use xlink:href="#DejaVuSans-30" x="63.623047"/>
      </g>
     </g>
    </g>
    <g id="xtick_2">
     <g id="line2d_2">
      <g>
       <use xlink:href="#m04fbe58107" x="161.88572" y="243.84" style="stroke: #000000; stroke-width: 0.8"/>
      </g>
     </g>
     <g id="text_2">
      <!-- 20 -->
      <g transform="translate(155.52322 258.438437)scale(0.1 -0.1)">
       <defs>
        <path id="DejaVuSans-32" d="M 1228 531 
L 3431 531 
L 3431 0 
L 469 0 
L 469 531 
Q 828 903 1448 1529 
Q 2069 2156 2228 2338 
Q 2531 2678 2651 2914 
Q 2772 3150 2772 3378 
Q 2772 3750 2511 3984 
Q 2250 4219 1831 4219 
Q 1534 4219 1204 4116 
Q 875 4013 500 3803 
L 500 4441 
Q 881 4594 1212 4672 
Q 1544 4750 1819 4750 
Q 2544 4750 2975 4387 
Q 3406 4025 3406 3419 
Q 3406 3131 3298 2873 
Q 3191 2616 2906 2266 
Q 2828 2175 2409 1742 
Q 1991 1309 1228 531 
z
" transform="scale(0.015625)"/>
       </defs>
       <use xlink:href="#DejaVuSans-32"/>
       <use xlink:href="#DejaVuSans-30" x="63.623047"/>
      </g>
     </g>
    </g>
    <g id="xtick_3">
     <g id="line2d_3">
      <g>
       <use xlink:href="#m04fbe58107" x="233.16526" y="243.84" style="stroke: #000000; stroke-width: 0.8"/>
      </g>
     </g>
     <g id="text_3">
      <!-- 30 -->
      <g transform="translate(226.80276 258.438437)scale(0.1 -0.1)">
       <defs>
        <path id="DejaVuSans-33" d="M 2597 2516 
Q 3050 2419 3304 2112 
Q 3559 1806 3559 1356 
Q 3559 666 3084 287 
Q 2609 -91 1734 -91 
Q 1441 -91 1130 -33 
Q 819 25 488 141 
L 488 750 
Q 750 597 1062 519 
Q 1375 441 1716 441 
Q 2309 441 2620 675 
Q 2931 909 2931 1356 
Q 2931 1769 2642 2001 
Q 2353 2234 1838 2234 
L 1294 2234 
L 1294 2753 
L 1863 2753 
Q 2328 2753 2575 2939 
Q 2822 3125 2822 3475 
Q 2822 3834 2567 4026 
Q 2313 4219 1838 4219 
Q 1578 4219 1281 4162 
Q 984 4106 628 3988 
L 628 4550 
Q 988 4650 1302 4700 
Q 1616 4750 1894 4750 
Q 2613 4750 3031 4423 
Q 3450 4097 3450 3541 
Q 3450 3153 3228 2886 
Q 3006 2619 2597 2516 
z
" transform="scale(0.015625)"/>
       </defs>
       <use xlink:href="#DejaVuSans-33"/>
       <use xlink:href="#DejaVuSans-30" x="63.623047"/>
      </g>
     </g>
    </g>
    <g id="xtick_4">
     <g id="line2d_4">
      <g>
       <use xlink:href="#m04fbe58107" x="304.4448" y="243.84" style="stroke: #000000; stroke-width: 0.8"/>
      </g>
     </g>
     <g id="text_4">
      <!-- 40 -->
      <g transform="translate(298.0823 258.438437)scale(0.1 -0.1)">
       <defs>
        <path id="DejaVuSans-34" d="M 2419 4116 
L 825 1625 
L 2419 1625 
L 2419 4116 
z
M 2253 4666 
L 3047 4666 
L 3047 1625 
L 3713 1625 
L 3713 1100 
L 3047 1100 
L 3047 0 
L 2419 0 
L 2419 1100 
L 313 1100 
L 313 1709 
L 2253 4666 
z
" transform="scale(0.015625)"/>
       </defs>
       <use xlink:href="#DejaVuSans-34"/>
       <use xlink:href="#DejaVuSans-30" x="63.623047"/>
      </g>
     </g>
    </g>
    <g id="xtick_5">
     <g id="line2d_5">
      <g>
       <use xlink:href="#m04fbe58107" x="375.72434" y="243.84" style="stroke: #000000; stroke-width: 0.8"/>
      </g>
     </g>
     <g id="text_5">
      <!-- 50 -->
      <g transform="translate(369.36184 258.438437)scale(0.1 -0.1)">
       <defs>
        <path id="DejaVuSans-35" d="M 691 4666 
L 3169 4666 
L 3169 4134 
L 1269 4134 
L 1269 2991 
Q 1406 3038 1543 3061 
Q 1681 3084 1819 3084 
Q 2600 3084 3056 2656 
Q 3513 2228 3513 1497 
Q 3513 744 3044 326 
Q 2575 -91 1722 -91 
Q 1428 -91 1123 -41 
Q 819 9 494 109 
L 494 744 
Q 775 591 1075 516 
Q 1375 441 1709 441 
Q 2250 441 2565 725 
Q 2881 1009 2881 1497 
Q 2881 1984 2565 2268 
Q 2250 2553 1709 2553 
Q 1456 2553 1204 2497 
Q 953 2441 691 2322 
L 691 4666 
z
" transform="scale(0.015625)"/>
       </defs>
       <use xlink:href="#DejaVuSans-35"/>
       <use xlink:href="#DejaVuSans-30" x="63.623047"/>
      </g>
     </g>
    </g>
    <g id="text_6">
     <!-- Actual Prices: $Y_i$ -->
     <g transform="translate(171.725 272.116562)scale(0.1 -0.1)">
      <defs>
       <path id="DejaVuSans-41" d="M 2188 4044 
L 1331 1722 
L 3047 1722 
L 2188 4044 
z
M 1831 4666 
L 2547 4666 
L 4325 0 
L 3669 0 
L 3244 1197 
L 1141 1197 
L 716 0 
L 50 0 
L 1831 4666 
z
" transform="scale(0.015625)"/>
       <path id="DejaVuSans-63" d="M 3122 3366 
L 3122 2828 
Q 2878 2963 2633 3030 
Q 2388 3097 2138 3097 
Q 1578 3097 1268 2742 
Q 959 2388 959 1747 
Q 959 1106 1268 751 
Q 1578 397 2138 397 
Q 2388 397 2633 464 
Q 2878 531 3122 666 
L 3122 134 
Q 2881 22 2623 -34 
Q 2366 -91 2075 -91 
Q 1284 -91 818 406 
Q 353 903 353 1747 
Q 353 2603 823 3093 
Q 1294 3584 2113 3584 
Q 2378 3584 2631 3529 
Q 2884 3475 3122 3366 
z
" transform="scale(0.015625)"/>
       <path id="DejaVuSans-74" d="M 1172 4494 
L 1172 3500 
L 2356 3500 
L 2356 3053 
L 1172 3053 
L 1172 1153 
Q 1172 725 1289 603 
Q 1406 481 1766 481 
L 2356 481 
L 2356 0 
L 1766 0 
Q 1100 0 847 248 
Q 594 497 594 1153 
L 594 3053 
L 172 3053 
L 172 3500 
L 594 3500 
L 594 4494 
L 1172 4494 
z
" transform="scale(0.015625)"/>
       <path id="DejaVuSans-75" d="M 544 1381 
L 544 3500 
L 1119 3500 
L 1119 1403 
Q 1119 906 1312 657 
Q 1506 409 1894 409 
Q 2359 409 2629 706 
Q 2900 1003 2900 1516 
L 2900 3500 
L 3475 3500 
L 3475 0 
L 2900 0 
L 2900 538 
Q 2691 219 2414 64 
Q 2138 -91 1772 -91 
Q 1169 -91 856 284 
Q 544 659 544 1381 
z
M 1991 3584 
L 1991 3584 
z
" transform="scale(0.015625)"/>
       <path id="DejaVuSans-61" d="M 2194 1759 
Q 1497 1759 1228 1600 
Q 959 1441 959 1056 
Q 959 750 1161 570 
Q 1363 391 1709 391 
Q 2188 391 2477 730 
Q 2766 1069 2766 1631 
L 2766 1759 
L 2194 1759 
z
M 3341 1997 
L 3341 0 
L 2766 0 
L 2766 531 
Q 2569 213 2275 61 
Q 1981 -91 1556 -91 
Q 1019 -91 701 211 
Q 384 513 384 1019 
Q 384 1609 779 1909 
Q 1175 2209 1959 2209 
L 2766 2209 
L 2766 2266 
Q 2766 2663 2505 2880 
Q 2244 3097 1772 3097 
Q 1472 3097 1187 3025 
Q 903 2953 641 2809 
L 641 3341 
Q 956 3463 1253 3523 
Q 1550 3584 1831 3584 
Q 2591 3584 2966 3190 
Q 3341 2797 3341 1997 
z
" transform="scale(0.015625)"/>
       <path id="DejaVuSans-6c" d="M 603 4863 
L 1178 4863 
L 1178 0 
L 603 0 
L 603 4863 
z
" transform="scale(0.015625)"/>
       <path id="DejaVuSans-20" transform="scale(0.015625)"/>
       <path id="DejaVuSans-50" d="M 1259 4147 
L 1259 2394 
L 2053 2394 
Q 2494 2394 2734 2622 
Q 2975 2850 2975 3272 
Q 2975 3691 2734 3919 
Q 2494 4147 2053 4147 
L 1259 4147 
z
M 628 4666 
L 2053 4666 
Q 2838 4666 3239 4311 
Q 3641 3956 3641 3272 
Q 3641 2581 3239 2228 
Q 2838 1875 2053 1875 
L 1259 1875 
L 1259 0 
L 628 0 
L 628 4666 
z
" transform="scale(0.015625)"/>
       <path id="DejaVuSans-72" d="M 2631 2963 
Q 2534 3019 2420 3045 
Q 2306 3072 2169 3072 
Q 1681 3072 1420 2755 
Q 1159 2438 1159 1844 
L 1159 0 
L 581 0 
L 581 3500 
L 1159 3500 
L 1159 2956 
Q 1341 3275 1631 3429 
Q 1922 3584 2338 3584 
Q 2397 3584 2469 3576 
Q 2541 3569 2628 3553 
L 2631 2963 
z
" transform="scale(0.015625)"/>
       <path id="DejaVuSans-69" d="M 603 3500 
L 1178 3500 
L 1178 0 
L 603 0 
L 603 3500 
z
M 603 4863 
L 1178 4863 
L 1178 4134 
L 603 4134 
L 603 4863 
z
" transform="scale(0.015625)"/>
       <path id="DejaVuSans-65" d="M 3597 1894 
L 3597 1613 
L 953 1613 
Q 991 1019 1311 708 
Q 1631 397 2203 397 
Q 2534 397 2845 478 
Q 3156 559 3463 722 
L 3463 178 
Q 3153 47 2828 -22 
Q 2503 -91 2169 -91 
Q 1331 -91 842 396 
Q 353 884 353 1716 
Q 353 2575 817 3079 
Q 1281 3584 2069 3584 
Q 2775 3584 3186 3129 
Q 3597 2675 3597 1894 
z
M 3022 2063 
Q 3016 2534 2758 2815 
Q 2500 3097 2075 3097 
Q 1594 3097 1305 2825 
Q 1016 2553 972 2059 
L 3022 2063 
z
" transform="scale(0.015625)"/>
       <path id="DejaVuSans-73" d="M 2834 3397 
L 2834 2853 
Q 2591 2978 2328 3040 
Q 2066 3103 1784 3103 
Q 1356 3103 1142 2972 
Q 928 2841 928 2578 
Q 928 2378 1081 2264 
Q 1234 2150 1697 2047 
L 1894 2003 
Q 2506 1872 2764 1633 
Q 3022 1394 3022 966 
Q 3022 478 2636 193 
Q 2250 -91 1575 -91 
Q 1294 -91 989 -36 
Q 684 19 347 128 
L 347 722 
Q 666 556 975 473 
Q 1284 391 1588 391 
Q 1994 391 2212 530 
Q 2431 669 2431 922 
Q 2431 1156 2273 1281 
Q 2116 1406 1581 1522 
L 1381 1569 
Q 847 1681 609 1914 
Q 372 2147 372 2553 
Q 372 3047 722 3315 
Q 1072 3584 1716 3584 
Q 2034 3584 2315 3537 
Q 2597 3491 2834 3397 
z
" transform="scale(0.015625)"/>
       <path id="DejaVuSans-3a" d="M 750 794 
L 1409 794 
L 1409 0 
L 750 0 
L 750 794 
z
M 750 3309 
L 1409 3309 
L 1409 2516 
L 750 2516 
L 750 3309 
z
" transform="scale(0.015625)"/>
       <path id="DejaVuSans-Oblique-59" d="M 403 4666 
L 1081 4666 
L 1953 2747 
L 3616 4666 
L 4325 4666 
L 2209 2222 
L 1778 0 
L 1147 0 
L 1575 2222 
L 403 4666 
z
" transform="scale(0.015625)"/>
       <path id="DejaVuSans-Oblique-69" d="M 1172 4863 
L 1747 4863 
L 1606 4134 
L 1031 4134 
L 1172 4863 
z
M 909 3500 
L 1484 3500 
L 800 0 
L 225 0 
L 909 3500 
z
" transform="scale(0.015625)"/>
      </defs>
      <use xlink:href="#DejaVuSans-41" transform="translate(0 0.015625)"/>
      <use xlink:href="#DejaVuSans-63" transform="translate(68.408203 0.015625)"/>
      <use xlink:href="#DejaVuSans-74" transform="translate(123.388672 0.015625)"/>
      <use xlink:href="#DejaVuSans-75" transform="translate(162.597656 0.015625)"/>
      <use xlink:href="#DejaVuSans-61" transform="translate(225.976562 0.015625)"/>
      <use xlink:href="#DejaVuSans-6c" transform="translate(287.255859 0.015625)"/>
      <use xlink:href="#DejaVuSans-20" transform="translate(315.039062 0.015625)"/>
      <use xlink:href="#DejaVuSans-50" transform="translate(346.826172 0.015625)"/>
      <use xlink:href="#DejaVuSans-72" transform="translate(407.128906 0.015625)"/>
      <use xlink:href="#DejaVuSans-69" transform="translate(448.242188 0.015625)"/>
      <use xlink:href="#DejaVuSans-63" transform="translate(476.025391 0.015625)"/>
      <use xlink:href="#DejaVuSans-65" transform="translate(531.005859 0.015625)"/>
      <use xlink:href="#DejaVuSans-73" transform="translate(592.529297 0.015625)"/>
      <use xlink:href="#DejaVuSans-3a" transform="translate(644.628906 0.015625)"/>
      <use xlink:href="#DejaVuSans-20" transform="translate(678.320312 0.015625)"/>
      <use xlink:href="#DejaVuSans-Oblique-59" transform="translate(710.107422 0.015625)"/>
      <use xlink:href="#DejaVuSans-Oblique-69" transform="translate(771.191406 -16.390625)scale(0.7)"/>
     </g>
    </g>
   </g>
   <g id="matplotlib.axis_2">
    <g id="ytick_1">
     <g id="line2d_6">
      <defs>
       <path id="m846d97cd23" d="M 0 0 
L -3.5 0 
" style="stroke: #000000; stroke-width: 0.8"/>
      </defs>
      <g>
       <use xlink:href="#m846d97cd23" x="44.025" y="214.48084" style="stroke: #000000; stroke-width: 0.8"/>
      </g>
     </g>
     <g id="text_7">
      <!-- 10 -->
      <g transform="translate(24.3 218.280059)scale(0.1 -0.1)">
       <use xlink:href="#DejaVuSans-31"/>
       <use xlink:href="#DejaVuSans-30" x="63.623047"/>
      </g>
     </g>
    </g>
    <g id="ytick_2">
     <g id="line2d_7">
      <g>
       <use xlink:href="#m846d97cd23" x="44.025" y="168.149095" style="stroke: #000000; stroke-width: 0.8"/>
      </g>
     </g>
     <g id="text_8">
      <!-- 20 -->
      <g transform="translate(24.3 171.948313)scale(0.1 -0.1)">
       <use xlink:href="#DejaVuSans-32"/>
       <use xlink:href="#DejaVuSans-30" x="63.623047"/>
      </g>
     </g>
    </g>
    <g id="ytick_3">
     <g id="line2d_8">
      <g>
       <use xlink:href="#m846d97cd23" x="44.025" y="121.817349" style="stroke: #000000; stroke-width: 0.8"/>
      </g>
     </g>
     <g id="text_9">
      <!-- 30 -->
      <g transform="translate(24.3 125.616567)scale(0.1 -0.1)">
       <use xlink:href="#DejaVuSans-33"/>
       <use xlink:href="#DejaVuSans-30" x="63.623047"/>
      </g>
     </g>
    </g>
    <g id="ytick_4">
     <g id="line2d_9">
      <g>
       <use xlink:href="#m846d97cd23" x="44.025" y="75.485603" style="stroke: #000000; stroke-width: 0.8"/>
      </g>
     </g>
     <g id="text_10">
      <!-- 40 -->
      <g transform="translate(24.3 79.284821)scale(0.1 -0.1)">
       <use xlink:href="#DejaVuSans-34"/>
       <use xlink:href="#DejaVuSans-30" x="63.623047"/>
      </g>
     </g>
    </g>
    <g id="ytick_5">
     <g id="line2d_10">
      <g>
       <use xlink:href="#m846d97cd23" x="44.025" y="29.153857" style="stroke: #000000; stroke-width: 0.8"/>
      </g>
     </g>
     <g id="text_11">
      <!-- 50 -->
      <g transform="translate(24.3 32.953076)scale(0.1 -0.1)">
       <use xlink:href="#DejaVuSans-35"/>
       <use xlink:href="#DejaVuSans-30" x="63.623047"/>
      </g>
     </g>
    </g>
    <g id="text_12">
     <!-- Predicted prices: $\hat{Y}_i$ -->
     <g transform="translate(18.2 182.92)rotate(-90)scale(0.1 -0.1)">
      <defs>
       <path id="DejaVuSans-64" d="M 2906 2969 
L 2906 4863 
L 3481 4863 
L 3481 0 
L 2906 0 
L 2906 525 
Q 2725 213 2448 61 
Q 2172 -91 1784 -91 
Q 1150 -91 751 415 
Q 353 922 353 1747 
Q 353 2572 751 3078 
Q 1150 3584 1784 3584 
Q 2172 3584 2448 3432 
Q 2725 3281 2906 2969 
z
M 947 1747 
Q 947 1113 1208 752 
Q 1469 391 1925 391 
Q 2381 391 2643 752 
Q 2906 1113 2906 1747 
Q 2906 2381 2643 2742 
Q 2381 3103 1925 3103 
Q 1469 3103 1208 2742 
Q 947 2381 947 1747 
z
" transform="scale(0.015625)"/>
       <path id="DejaVuSans-70" d="M 1159 525 
L 1159 -1331 
L 581 -1331 
L 581 3500 
L 1159 3500 
L 1159 2969 
Q 1341 3281 1617 3432 
Q 1894 3584 2278 3584 
Q 2916 3584 3314 3078 
Q 3713 2572 3713 1747 
Q 3713 922 3314 415 
Q 2916 -91 2278 -91 
Q 1894 -91 1617 61 
Q 1341 213 1159 525 
z
M 3116 1747 
Q 3116 2381 2855 2742 
Q 2594 3103 2138 3103 
Q 1681 3103 1420 2742 
Q 1159 2381 1159 1747 
Q 1159 1113 1420 752 
Q 1681 391 2138 391 
Q 2594 391 2855 752 
Q 3116 1113 3116 1747 
z
" transform="scale(0.015625)"/>
       <path id="DejaVuSans-302" d="M -1831 5119 
L -1369 5119 
L -603 3944 
L -1038 3944 
L -1600 4709 
L -2163 3944 
L -2597 3944 
L -1831 5119 
z
M -1600 3584 
L -1600 3584 
z
" transform="scale(0.015625)"/>
      </defs>
      <use xlink:href="#DejaVuSans-50" transform="translate(0 0.609375)"/>
      <use xlink:href="#DejaVuSans-72" transform="translate(60.302734 0.609375)"/>
      <use xlink:href="#DejaVuSans-65" transform="translate(101.416016 0.609375)"/>
      <use xlink:href="#DejaVuSans-64" transform="translate(162.939453 0.609375)"/>
      <use xlink:href="#DejaVuSans-69" transform="translate(226.416016 0.609375)"/>
      <use xlink:href="#DejaVuSans-63" transform="translate(254.199219 0.609375)"/>
      <use xlink:href="#DejaVuSans-74" transform="translate(309.179688 0.609375)"/>
      <use xlink:href="#DejaVuSans-65" transform="translate(348.388672 0.609375)"/>
      <use xlink:href="#DejaVuSans-64" transform="translate(409.912109 0.609375)"/>
      <use xlink:href="#DejaVuSans-20" transform="translate(473.388672 0.609375)"/>
      <use xlink:href="#DejaVuSans-70" transform="translate(505.175781 0.609375)"/>
      <use xlink:href="#DejaVuSans-72" transform="translate(568.652344 0.609375)"/>
      <use xlink:href="#DejaVuSans-69" transform="translate(609.765625 0.609375)"/>
      <use xlink:href="#DejaVuSans-63" transform="translate(637.548828 0.609375)"/>
      <use xlink:href="#DejaVuSans-65" transform="translate(692.529297 0.609375)"/>
      <use xlink:href="#DejaVuSans-73" transform="translate(754.052734 0.609375)"/>
      <use xlink:href="#DejaVuSans-3a" transform="translate(806.152344 0.609375)"/>
      <use xlink:href="#DejaVuSans-20" transform="translate(839.84375 0.609375)"/>
      <use xlink:href="#DejaVuSans-302" transform="translate(934.47998 30.015625)"/>
      <use xlink:href="#DejaVuSans-Oblique-59" transform="translate(871.630859 0.609375)"/>
      <use xlink:href="#DejaVuSans-Oblique-69" transform="translate(933.671875 -15.796875)scale(0.7)"/>
     </g>
    </g>
   </g>
   <g id="line2d_11">
    <path d="M 59.243182 224.430499 
L 62.317562 222.70107 
L 65.391942 220.97164 
L 68.466322 219.242211 
L 71.540702 217.512782 
L 74.615083 215.783352 
L 77.689463 214.053923 
L 80.763843 212.324494 
L 83.838223 210.595064 
L 86.912603 208.865635 
L 89.986983 207.136206 
L 93.061364 205.406776 
L 96.135744 203.677347 
L 99.210124 201.947918 
L 102.284504 200.218489 
L 105.358884 198.489059 
L 108.433264 196.75963 
L 111.507645 195.030201 
L 114.582025 193.300771 
L 117.656405 191.571342 
L 120.730785 189.841913 
L 123.805165 188.112483 
L 126.879545 186.383054 
L 129.953926 184.653625 
L 133.028306 182.924195 
L 136.102686 181.194766 
L 139.177066 179.465337 
L 142.251446 177.735907 
L 145.325826 176.006478 
L 148.400207 174.277049 
L 151.474587 172.54762 
L 154.548967 170.81819 
L 157.623347 169.088761 
L 160.697727 167.359332 
L 163.772107 165.629902 
L 166.846488 163.900473 
L 169.920868 162.171044 
L 172.995248 160.441614 
L 176.069628 158.712185 
L 179.144008 156.982756 
L 182.218388 155.253326 
L 185.292769 153.523897 
L 188.367149 151.794468 
L 191.441529 150.065038 
L 194.515909 148.335609 
L 197.590289 146.60618 
L 200.664669 144.876751 
L 203.73905 143.147321 
L 206.81343 141.417892 
L 209.88781 139.688463 
L 212.96219 137.959033 
L 216.03657 136.229604 
L 219.11095 134.500175 
L 222.185331 132.770745 
L 225.259711 131.041316 
L 228.334091 129.311887 
L 231.408471 127.582457 
L 234.482851 125.853028 
L 237.557231 124.123599 
L 240.631612 122.394169 
L 243.705992 120.66474 
L 246.780372 118.935311 
L 249.854752 117.205881 
L 252.929132 115.476452 
L 256.003512 113.747023 
L 259.077893 112.017594 
L 262.152273 110.288164 
L 265.226653 108.558735 
L 268.301033 106.829306 
L 271.375413 105.099876 
L 274.449793 103.370447 
L 277.524174 101.641018 
L 280.598554 99.911588 
L 283.672934 98.182159 
L 286.747314 96.45273 
L 289.821694 94.7233 
L 292.896074 92.993871 
L 295.970455 91.264442 
L 299.044835 89.535012 
L 302.119215 87.805583 
L 305.193595 86.076154 
L 308.267975 84.346725 
L 311.342355 82.617295 
L 314.416736 80.887866 
L 317.491116 79.158437 
L 320.565496 77.429007 
L 323.639876 75.699578 
L 326.714256 73.970149 
L 329.788636 72.240719 
L 332.863017 70.51129 
L 335.937397 68.781861 
L 339.011777 67.052431 
L 342.086157 65.323002 
L 345.160537 63.593573 
L 348.234917 61.864143 
L 351.309298 60.134714 
L 354.383678 58.405285 
L 357.458058 56.675856 
L 360.532438 54.946426 
L 363.606818 53.216997 
" clip-path="url(#p8f5707ce0f)" style="fill: none; stroke: #008000; stroke-width: 2; stroke-linecap: square"/>
   </g>
   <g id="patch_3">
    <path d="M 44.025 243.84 
L 44.025 26.4 
" style="fill: none; stroke: #000000; stroke-width: 0.8; stroke-linejoin: miter; stroke-linecap: square"/>
   </g>
   <g id="patch_4">
    <path d="M 378.825 243.84 
L 378.825 26.4 
" style="fill: none; stroke: #000000; stroke-width: 0.8; stroke-linejoin: miter; stroke-linecap: square"/>
   </g>
   <g id="patch_5">
    <path d="M 44.025 243.84 
L 378.825 243.84 
" style="fill: none; stroke: #000000; stroke-width: 0.8; stroke-linejoin: miter; stroke-linecap: square"/>
   </g>
   <g id="patch_6">
    <path d="M 44.025 26.4 
L 378.825 26.4 
" style="fill: none; stroke: #000000; stroke-width: 0.8; stroke-linejoin: miter; stroke-linecap: square"/>
   </g>
   <g id="text_13">
    <!-- Actual Prices vs Predicted prices: $Y_i$ vs $\hat{Y}_i$ [Test Set] -->
    <g transform="translate(58.185 20.4)scale(0.12 -0.12)">
     <defs>
      <path id="DejaVuSans-76" d="M 191 3500 
L 800 3500 
L 1894 563 
L 2988 3500 
L 3597 3500 
L 2284 0 
L 1503 0 
L 191 3500 
z
" transform="scale(0.015625)"/>
      <path id="DejaVuSans-5b" d="M 550 4863 
L 1875 4863 
L 1875 4416 
L 1125 4416 
L 1125 -397 
L 1875 -397 
L 1875 -844 
L 550 -844 
L 550 4863 
z
" transform="scale(0.015625)"/>
      <path id="DejaVuSans-54" d="M -19 4666 
L 3928 4666 
L 3928 4134 
L 2272 4134 
L 2272 0 
L 1638 0 
L 1638 4134 
L -19 4134 
L -19 4666 
z
" transform="scale(0.015625)"/>
      <path id="DejaVuSans-53" d="M 3425 4513 
L 3425 3897 
Q 3066 4069 2747 4153 
Q 2428 4238 2131 4238 
Q 1616 4238 1336 4038 
Q 1056 3838 1056 3469 
Q 1056 3159 1242 3001 
Q 1428 2844 1947 2747 
L 2328 2669 
Q 3034 2534 3370 2195 
Q 3706 1856 3706 1288 
Q 3706 609 3251 259 
Q 2797 -91 1919 -91 
Q 1588 -91 1214 -16 
Q 841 59 441 206 
L 441 856 
Q 825 641 1194 531 
Q 1563 422 1919 422 
Q 2459 422 2753 634 
Q 3047 847 3047 1241 
Q 3047 1584 2836 1778 
Q 2625 1972 2144 2069 
L 1759 2144 
Q 1053 2284 737 2584 
Q 422 2884 422 3419 
Q 422 4038 858 4394 
Q 1294 4750 2059 4750 
Q 2388 4750 2728 4690 
Q 3069 4631 3425 4513 
z
" transform="scale(0.015625)"/>
      <path id="DejaVuSans-5d" d="M 1947 4863 
L 1947 -844 
L 622 -844 
L 622 -397 
L 1369 -397 
L 1369 4416 
L 622 4416 
L 622 4863 
L 1947 4863 
z
" transform="scale(0.015625)"/>
     </defs>
     <use xlink:href="#DejaVuSans-41" transform="translate(0 0.609375)"/>
     <use xlink:href="#DejaVuSans-63" transform="translate(68.408203 0.609375)"/>
     <use xlink:href="#DejaVuSans-74" transform="translate(123.388672 0.609375)"/>
     <use xlink:href="#DejaVuSans-75" transform="translate(162.597656 0.609375)"/>
     <use xlink:href="#DejaVuSans-61" transform="translate(225.976562 0.609375)"/>
     <use xlink:href="#DejaVuSans-6c" transform="translate(287.255859 0.609375)"/>
     <use xlink:href="#DejaVuSans-20" transform="translate(315.039062 0.609375)"/>
     <use xlink:href="#DejaVuSans-50" transform="translate(346.826172 0.609375)"/>
     <use xlink:href="#DejaVuSans-72" transform="translate(407.128906 0.609375)"/>
     <use xlink:href="#DejaVuSans-69" transform="translate(448.242188 0.609375)"/>
     <use xlink:href="#DejaVuSans-63" transform="translate(476.025391 0.609375)"/>
     <use xlink:href="#DejaVuSans-65" transform="translate(531.005859 0.609375)"/>
     <use xlink:href="#DejaVuSans-73" transform="translate(592.529297 0.609375)"/>
     <use xlink:href="#DejaVuSans-20" transform="translate(644.628906 0.609375)"/>
     <use xlink:href="#DejaVuSans-76" transform="translate(676.416016 0.609375)"/>
     <use xlink:href="#DejaVuSans-73" transform="translate(735.595703 0.609375)"/>
     <use xlink:href="#DejaVuSans-20" transform="translate(787.695312 0.609375)"/>
     <use xlink:href="#DejaVuSans-50" transform="translate(819.482422 0.609375)"/>
     <use xlink:href="#DejaVuSans-72" transform="translate(879.785156 0.609375)"/>
     <use xlink:href="#DejaVuSans-65" transform="translate(920.898438 0.609375)"/>
     <use xlink:href="#DejaVuSans-64" transform="translate(982.421875 0.609375)"/>
     <use xlink:href="#DejaVuSans-69" transform="translate(1045.898438 0.609375)"/>
     <use xlink:href="#DejaVuSans-63" transform="translate(1073.681641 0.609375)"/>
     <use xlink:href="#DejaVuSans-74" transform="translate(1128.662109 0.609375)"/>
     <use xlink:href="#DejaVuSans-65" transform="translate(1167.871094 0.609375)"/>
     <use xlink:href="#DejaVuSans-64" transform="translate(1229.394531 0.609375)"/>
     <use xlink:href="#DejaVuSans-20" transform="translate(1292.871094 0.609375)"/>
     <use xlink:href="#DejaVuSans-70" transform="translate(1324.658203 0.609375)"/>
     <use xlink:href="#DejaVuSans-72" transform="translate(1388.134766 0.609375)"/>
     <use xlink:href="#DejaVuSans-69" transform="translate(1429.248047 0.609375)"/>
     <use xlink:href="#DejaVuSans-63" transform="translate(1457.03125 0.609375)"/>
     <use xlink:href="#DejaVuSans-65" transform="translate(1512.011719 0.609375)"/>
     <use xlink:href="#DejaVuSans-73" transform="translate(1573.535156 0.609375)"/>
     <use xlink:href="#DejaVuSans-3a" transform="translate(1625.634766 0.609375)"/>
     <use xlink:href="#DejaVuSans-20" transform="translate(1659.326172 0.609375)"/>
     <use xlink:href="#DejaVuSans-Oblique-59" transform="translate(1691.113281 0.609375)"/>
     <use xlink:href="#DejaVuSans-Oblique-69" transform="translate(1752.197266 -15.796875)scale(0.7)"/>
     <use xlink:href="#DejaVuSans-20" transform="translate(1774.379883 0.609375)"/>
     <use xlink:href="#DejaVuSans-76" transform="translate(1806.166992 0.609375)"/>
     <use xlink:href="#DejaVuSans-73" transform="translate(1865.34668 0.609375)"/>
     <use xlink:href="#DejaVuSans-20" transform="translate(1917.446289 0.609375)"/>
     <use xlink:href="#DejaVuSans-302" transform="translate(2012.08252 30.015625)"/>
     <use xlink:href="#DejaVuSans-Oblique-59" transform="translate(1949.233398 0.609375)"/>
     <use xlink:href="#DejaVuSans-Oblique-69" transform="translate(2011.274414 -15.796875)scale(0.7)"/>
     <use xlink:href="#DejaVuSans-20" transform="translate(2033.457031 0.609375)"/>
     <use xlink:href="#DejaVuSans-5b" transform="translate(2065.244141 0.609375)"/>
     <use xlink:href="#DejaVuSans-54" transform="translate(2104.257812 0.609375)"/>
     <use xlink:href="#DejaVuSans-65" transform="translate(2165.341797 0.609375)"/>
     <use xlink:href="#DejaVuSans-73" transform="translate(2226.865234 0.609375)"/>
     <use xlink:href="#DejaVuSans-74" transform="translate(2278.964844 0.609375)"/>
     <use xlink:href="#DejaVuSans-20" transform="translate(2318.173828 0.609375)"/>
     <use xlink:href="#DejaVuSans-53" transform="translate(2349.960938 0.609375)"/>
     <use xlink:href="#DejaVuSans-65" transform="translate(2413.4375 0.609375)"/>
     <use xlink:href="#DejaVuSans-74" transform="translate(2474.960938 0.609375)"/>
     <use xlink:href="#DejaVuSans-5d" transform="translate(2514.169922 0.609375)"/>
    </g>
   </g>
  </g>
 </g>
 <defs>
  <clipPath id="p8f5707ce0f">
   <rect x="44.025" y="26.4" width="334.8" height="217.44"/>
  </clipPath>
 </defs>
</svg>
