<?xml version="1.0" encoding="utf-8" standalone="no"?>
<!DOCTYPE svg PUBLIC "-//W3C//DTD SVG 1.1//EN"
  "http://www.w3.org/Graphics/SVG/1.1/DTD/svg11.dtd">
<svg xmlns:xlink="http://www.w3.org/1999/xlink" width="389.28684pt" height="281.39625pt" viewBox="0 0 389.28684 281.39625" xmlns="http://www.w3.org/2000/svg" version="1.1">
 <metadata>
  <rdf:RDF xmlns:dc="http://purl.org/dc/elements/1.1/" xmlns:cc="http://creativecommons.org/ns#" xmlns:rdf="http://www.w3.org/1999/02/22-rdf-syntax-ns#">
   <cc:Work>
    <dc:type rdf:resource="http://purl.org/dc/dcmitype/StillImage"/>
    <dc:date>2022-02-06T15:16:34.963388</dc:date>
    <dc:format>image/svg+xml</dc:format>
    <dc:creator>
     <cc:Agent>
      <dc:title>Matplotlib v3.5.0, https://matplotlib.org/</dc:title>
     </cc:Agent>
    </dc:creator>
   </cc:Work>
  </rdf:RDF>
 </metadata>
 <defs>
  <style type="text/css">*{stroke-linejoin: round; stroke-linecap: butt}</style>
 </defs>
 <g id="figure_1">
  <g id="patch_1">
   <path d="M 0 281.39625 
L 389.28684 281.39625 
L 389.28684 0 
L 0 0 
L 0 281.39625 
z
" style="fill: none"/>
  </g>
  <g id="axes_1">
   <g id="patch_2">
    <path d="M 44.025 243.84 
L 378.825 243.84 
L 378.825 26.4 
L 44.025 26.4 
z
" style="fill: #ffffff"/>
   </g>
   <g id="PathCollection_1">
    <defs>
     <path id="ma9fed35a7b" d="M 0 3 
C 0.795609 3 1.55874 2.683901 2.12132 2.12132 
C 2.683901 1.55874 3 0.795609 3 0 
C 3 -0.795609 2.683901 -1.55874 2.12132 -2.12132 
C 1.55874 -2.683901 0.795609 -3 0 -3 
C -0.795609 -3 -1.55874 -2.683901 -2.12132 -2.12132 
C -2.683901 -1.55874 -3 -0.795609 -3 0 
C -3 0.795609 -2.683901 1.55874 -2.12132 2.12132 
C -1.55874 2.683901 -0.795609 3 0 3 
z
" style="stroke: #ffffff; stroke-opacity: 0.4; stroke-width: 0.48"/>
    </defs>
    <g clip-path="url(#p8ffa5c6c52)">
     <use xlink:href="#ma9fed35a7b" x="185.407968" y="173.083738" style="fill: #1f77b4; fill-opacity: 0.4; stroke: #ffffff; stroke-opacity: 0.4; stroke-width: 0.48"/>
     <use xlink:href="#ma9fed35a7b" x="130.522722" y="185.148878" style="fill: #1f77b4; fill-opacity: 0.4; stroke: #ffffff; stroke-opacity: 0.4; stroke-width: 0.48"/>
     <use xlink:href="#ma9fed35a7b" x="247.421168" y="129.074643" style="fill: #1f77b4; fill-opacity: 0.4; stroke: #ffffff; stroke-opacity: 0.4; stroke-width: 0.48"/>
     <use xlink:href="#ma9fed35a7b" x="159.034538" y="176.584919" style="fill: #1f77b4; fill-opacity: 0.4; stroke: #ffffff; stroke-opacity: 0.4; stroke-width: 0.48"/>
     <use xlink:href="#ma9fed35a7b" x="218.196556" y="144.878105" style="fill: #1f77b4; fill-opacity: 0.4; stroke: #ffffff; stroke-opacity: 0.4; stroke-width: 0.48"/>
     <use xlink:href="#ma9fed35a7b" x="154.757766" y="170.756632" style="fill: #1f77b4; fill-opacity: 0.4; stroke: #ffffff; stroke-opacity: 0.4; stroke-width: 0.48"/>
     <use xlink:href="#ma9fed35a7b" x="155.470561" y="210.142126" style="fill: #1f77b4; fill-opacity: 0.4; stroke: #ffffff; stroke-opacity: 0.4; stroke-width: 0.48"/>
     <use xlink:href="#ma9fed35a7b" x="176.141628" y="175.875943" style="fill: #1f77b4; fill-opacity: 0.4; stroke: #ffffff; stroke-opacity: 0.4; stroke-width: 0.48"/>
     <use xlink:href="#ma9fed35a7b" x="231.739669" y="131.257111" style="fill: #1f77b4; fill-opacity: 0.4; stroke: #ffffff; stroke-opacity: 0.4; stroke-width: 0.48"/>
     <use xlink:href="#ma9fed35a7b" x="101.29811" y="191.693339" style="fill: #1f77b4; fill-opacity: 0.4; stroke: #ffffff; stroke-opacity: 0.4; stroke-width: 0.48"/>
     <use xlink:href="#ma9fed35a7b" x="166.162492" y="166.349787" style="fill: #1f77b4; fill-opacity: 0.4; stroke: #ffffff; stroke-opacity: 0.4; stroke-width: 0.48"/>
     <use xlink:href="#ma9fed35a7b" x="130.522722" y="203.562434" style="fill: #1f77b4; fill-opacity: 0.4; stroke: #ffffff; stroke-opacity: 0.4; stroke-width: 0.48"/>
     <use xlink:href="#ma9fed35a7b" x="167.588083" y="161.393292" style="fill: #1f77b4; fill-opacity: 0.4; stroke: #ffffff; stroke-opacity: 0.4; stroke-width: 0.48"/>
     <use xlink:href="#ma9fed35a7b" x="171.864855" y="167.33328" style="fill: #1f77b4; fill-opacity: 0.4; stroke: #ffffff; stroke-opacity: 0.4; stroke-width: 0.48"/>
     <use xlink:href="#ma9fed35a7b" x="218.909352" y="140.559958" style="fill: #1f77b4; fill-opacity: 0.4; stroke: #ffffff; stroke-opacity: 0.4; stroke-width: 0.48"/>
     <use xlink:href="#ma9fed35a7b" x="104.862088" y="208.883834" style="fill: #1f77b4; fill-opacity: 0.4; stroke: #ffffff; stroke-opacity: 0.4; stroke-width: 0.48"/>
     <use xlink:href="#ma9fed35a7b" x="197.52549" y="150.28972" style="fill: #1f77b4; fill-opacity: 0.4; stroke: #ffffff; stroke-opacity: 0.4; stroke-width: 0.48"/>
     <use xlink:href="#ma9fed35a7b" x="241.718805" y="134.087399" style="fill: #1f77b4; fill-opacity: 0.4; stroke: #ffffff; stroke-opacity: 0.4; stroke-width: 0.48"/>
     <use xlink:href="#ma9fed35a7b" x="230.314078" y="148.042871" style="fill: #1f77b4; fill-opacity: 0.4; stroke: #ffffff; stroke-opacity: 0.4; stroke-width: 0.48"/>
     <use xlink:href="#ma9fed35a7b" x="159.034538" y="183.690264" style="fill: #1f77b4; fill-opacity: 0.4; stroke: #ffffff; stroke-opacity: 0.4; stroke-width: 0.48"/>
     <use xlink:href="#ma9fed35a7b" x="193.961513" y="173.410573" style="fill: #1f77b4; fill-opacity: 0.4; stroke: #ffffff; stroke-opacity: 0.4; stroke-width: 0.48"/>
     <use xlink:href="#ma9fed35a7b" x="154.04497" y="162.651171" style="fill: #1f77b4; fill-opacity: 0.4; stroke: #ffffff; stroke-opacity: 0.4; stroke-width: 0.48"/>
     <use xlink:href="#ma9fed35a7b" x="171.864855" y="154.905034" style="fill: #1f77b4; fill-opacity: 0.4; stroke: #ffffff; stroke-opacity: 0.4; stroke-width: 0.48"/>
     <use xlink:href="#ma9fed35a7b" x="107.000474" y="196.95519" style="fill: #1f77b4; fill-opacity: 0.4; stroke: #ffffff; stroke-opacity: 0.4; stroke-width: 0.48"/>
     <use xlink:href="#ma9fed35a7b" x="161.88572" y="161.673171" style="fill: #1f77b4; fill-opacity: 0.4; stroke: #ffffff; stroke-opacity: 0.4; stroke-width: 0.48"/>
     <use xlink:href="#ma9fed35a7b" x="162.598515" y="171.932651" style="fill: #1f77b4; fill-opacity: 0.4; stroke: #ffffff; stroke-opacity: 0.4; stroke-width: 0.48"/>
     <use xlink:href="#ma9fed35a7b" x="233.878055" y="119.691397" style="fill: #1f77b4; fill-opacity: 0.4; stroke: #ffffff; stroke-opacity: 0.4; stroke-width: 0.48"/>
     <use xlink:href="#ma9fed35a7b" x="208.930216" y="143.209746" style="fill: #1f77b4; fill-opacity: 0.4; stroke: #ffffff; stroke-opacity: 0.4; stroke-width: 0.48"/>
     <use xlink:href="#ma9fed35a7b" x="197.52549" y="157.283242" style="fill: #1f77b4; fill-opacity: 0.4; stroke: #ffffff; stroke-opacity: 0.4; stroke-width: 0.48"/>
     <use xlink:href="#ma9fed35a7b" x="193.248717" y="155.314158" style="fill: #1f77b4; fill-opacity: 0.4; stroke: #ffffff; stroke-opacity: 0.4; stroke-width: 0.48"/>
     <use xlink:href="#ma9fed35a7b" x="285.199324" y="119.590088" style="fill: #1f77b4; fill-opacity: 0.4; stroke: #ffffff; stroke-opacity: 0.4; stroke-width: 0.48"/>
     <use xlink:href="#ma9fed35a7b" x="109.851655" y="192.917073" style="fill: #1f77b4; fill-opacity: 0.4; stroke: #ffffff; stroke-opacity: 0.4; stroke-width: 0.48"/>
     <use xlink:href="#ma9fed35a7b" x="141.927448" y="175.23072" style="fill: #1f77b4; fill-opacity: 0.4; stroke: #ffffff; stroke-opacity: 0.4; stroke-width: 0.48"/>
     <use xlink:href="#ma9fed35a7b" x="186.120763" y="159.378141" style="fill: #1f77b4; fill-opacity: 0.4; stroke: #ffffff; stroke-opacity: 0.4; stroke-width: 0.48"/>
     <use xlink:href="#ma9fed35a7b" x="143.353039" y="183.995681" style="fill: #1f77b4; fill-opacity: 0.4; stroke: #ffffff; stroke-opacity: 0.4; stroke-width: 0.48"/>
     <use xlink:href="#ma9fed35a7b" x="112.702837" y="191.735139" style="fill: #1f77b4; fill-opacity: 0.4; stroke: #ffffff; stroke-opacity: 0.4; stroke-width: 0.48"/>
     <use xlink:href="#ma9fed35a7b" x="196.099899" y="159.959267" style="fill: #1f77b4; fill-opacity: 0.4; stroke: #ffffff; stroke-opacity: 0.4; stroke-width: 0.48"/>
     <use xlink:href="#ma9fed35a7b" x="160.460129" y="176.106242" style="fill: #1f77b4; fill-opacity: 0.4; stroke: #ffffff; stroke-opacity: 0.4; stroke-width: 0.48"/>
     <use xlink:href="#ma9fed35a7b" x="162.598515" y="182.520568" style="fill: #1f77b4; fill-opacity: 0.4; stroke: #ffffff; stroke-opacity: 0.4; stroke-width: 0.48"/>
     <use xlink:href="#ma9fed35a7b" x="168.300878" y="183.71285" style="fill: #1f77b4; fill-opacity: 0.4; stroke: #ffffff; stroke-opacity: 0.4; stroke-width: 0.48"/>
     <use xlink:href="#ma9fed35a7b" x="109.13886" y="195.630613" style="fill: #1f77b4; fill-opacity: 0.4; stroke: #ffffff; stroke-opacity: 0.4; stroke-width: 0.48"/>
     <use xlink:href="#ma9fed35a7b" x="161.172924" y="172.293654" style="fill: #1f77b4; fill-opacity: 0.4; stroke: #ffffff; stroke-opacity: 0.4; stroke-width: 0.48"/>
     <use xlink:href="#ma9fed35a7b" x="176.141628" y="172.953772" style="fill: #1f77b4; fill-opacity: 0.4; stroke: #ffffff; stroke-opacity: 0.4; stroke-width: 0.48"/>
     <use xlink:href="#ma9fed35a7b" x="190.397536" y="164.009714" style="fill: #1f77b4; fill-opacity: 0.4; stroke: #ffffff; stroke-opacity: 0.4; stroke-width: 0.48"/>
     <use xlink:href="#ma9fed35a7b" x="149.055402" y="179.67305" style="fill: #1f77b4; fill-opacity: 0.4; stroke: #ffffff; stroke-opacity: 0.4; stroke-width: 0.48"/>
     <use xlink:href="#ma9fed35a7b" x="181.843991" y="141.154894" style="fill: #1f77b4; fill-opacity: 0.4; stroke: #ffffff; stroke-opacity: 0.4; stroke-width: 0.48"/>
     <use xlink:href="#ma9fed35a7b" x="127.67154" y="184.634533" style="fill: #1f77b4; fill-opacity: 0.4; stroke: #ffffff; stroke-opacity: 0.4; stroke-width: 0.48"/>
     <use xlink:href="#ma9fed35a7b" x="156.183356" y="170.606943" style="fill: #1f77b4; fill-opacity: 0.4; stroke: #ffffff; stroke-opacity: 0.4; stroke-width: 0.48"/>
     <use xlink:href="#ma9fed35a7b" x="134.799494" y="173.181706" style="fill: #1f77b4; fill-opacity: 0.4; stroke: #ffffff; stroke-opacity: 0.4; stroke-width: 0.48"/>
     <use xlink:href="#ma9fed35a7b" x="178.992809" y="187.71441" style="fill: #1f77b4; fill-opacity: 0.4; stroke: #ffffff; stroke-opacity: 0.4; stroke-width: 0.48"/>
     <use xlink:href="#ma9fed35a7b" x="164.024106" y="160.419244" style="fill: #1f77b4; fill-opacity: 0.4; stroke: #ffffff; stroke-opacity: 0.4; stroke-width: 0.48"/>
     <use xlink:href="#ma9fed35a7b" x="134.086699" y="153.785562" style="fill: #1f77b4; fill-opacity: 0.4; stroke: #ffffff; stroke-opacity: 0.4; stroke-width: 0.48"/>
     <use xlink:href="#ma9fed35a7b" x="295.17846" y="78.2671" style="fill: #1f77b4; fill-opacity: 0.4; stroke: #ffffff; stroke-opacity: 0.4; stroke-width: 0.48"/>
     <use xlink:href="#ma9fed35a7b" x="118.4052" y="184.397828" style="fill: #1f77b4; fill-opacity: 0.4; stroke: #ffffff; stroke-opacity: 0.4; stroke-width: 0.48"/>
     <use xlink:href="#ma9fed35a7b" x="171.864855" y="183.952719" style="fill: #1f77b4; fill-opacity: 0.4; stroke: #ffffff; stroke-opacity: 0.4; stroke-width: 0.48"/>
     <use xlink:href="#ma9fed35a7b" x="157.608947" y="176.981167" style="fill: #1f77b4; fill-opacity: 0.4; stroke: #ffffff; stroke-opacity: 0.4; stroke-width: 0.48"/>
     <use xlink:href="#ma9fed35a7b" x="160.460129" y="174.589371" style="fill: #1f77b4; fill-opacity: 0.4; stroke: #ffffff; stroke-opacity: 0.4; stroke-width: 0.48"/>
     <use xlink:href="#ma9fed35a7b" x="363.606818" y="89.304979" style="fill: #1f77b4; fill-opacity: 0.4; stroke: #ffffff; stroke-opacity: 0.4; stroke-width: 0.48"/>
     <use xlink:href="#ma9fed35a7b" x="166.162492" y="199.263021" style="fill: #1f77b4; fill-opacity: 0.4; stroke: #ffffff; stroke-opacity: 0.4; stroke-width: 0.48"/>
     <use xlink:href="#ma9fed35a7b" x="149.768198" y="174.669134" style="fill: #1f77b4; fill-opacity: 0.4; stroke: #ffffff; stroke-opacity: 0.4; stroke-width: 0.48"/>
     <use xlink:href="#ma9fed35a7b" x="199.663876" y="159.41288" style="fill: #1f77b4; fill-opacity: 0.4; stroke: #ffffff; stroke-opacity: 0.4; stroke-width: 0.48"/>
     <use xlink:href="#ma9fed35a7b" x="174.716037" y="158.990349" style="fill: #1f77b4; fill-opacity: 0.4; stroke: #ffffff; stroke-opacity: 0.4; stroke-width: 0.48"/>
     <use xlink:href="#ma9fed35a7b" x="196.099899" y="155.105133" style="fill: #1f77b4; fill-opacity: 0.4; stroke: #ffffff; stroke-opacity: 0.4; stroke-width: 0.48"/>
     <use xlink:href="#ma9fed35a7b" x="238.867623" y="138.019504" style="fill: #1f77b4; fill-opacity: 0.4; stroke: #ffffff; stroke-opacity: 0.4; stroke-width: 0.48"/>
     <use xlink:href="#ma9fed35a7b" x="94.170156" y="229.015077" style="fill: #1f77b4; fill-opacity: 0.4; stroke: #ffffff; stroke-opacity: 0.4; stroke-width: 0.48"/>
     <use xlink:href="#ma9fed35a7b" x="94.170156" y="211.643258" style="fill: #1f77b4; fill-opacity: 0.4; stroke: #ffffff; stroke-opacity: 0.4; stroke-width: 0.48"/>
     <use xlink:href="#ma9fed35a7b" x="276.645779" y="131.425938" style="fill: #1f77b4; fill-opacity: 0.4; stroke: #ffffff; stroke-opacity: 0.4; stroke-width: 0.48"/>
     <use xlink:href="#ma9fed35a7b" x="136.225085" y="177.572024" style="fill: #1f77b4; fill-opacity: 0.4; stroke: #ffffff; stroke-opacity: 0.4; stroke-width: 0.48"/>
     <use xlink:href="#ma9fed35a7b" x="127.67154" y="187.920866" style="fill: #1f77b4; fill-opacity: 0.4; stroke: #ffffff; stroke-opacity: 0.4; stroke-width: 0.48"/>
     <use xlink:href="#ma9fed35a7b" x="161.88572" y="173.418197" style="fill: #1f77b4; fill-opacity: 0.4; stroke: #ffffff; stroke-opacity: 0.4; stroke-width: 0.48"/>
     <use xlink:href="#ma9fed35a7b" x="279.496961" y="111.32788" style="fill: #1f77b4; fill-opacity: 0.4; stroke: #ffffff; stroke-opacity: 0.4; stroke-width: 0.48"/>
     <use xlink:href="#ma9fed35a7b" x="165.449697" y="172.921774" style="fill: #1f77b4; fill-opacity: 0.4; stroke: #ffffff; stroke-opacity: 0.4; stroke-width: 0.48"/>
     <use xlink:href="#ma9fed35a7b" x="177.567218" y="153.281736" style="fill: #1f77b4; fill-opacity: 0.4; stroke: #ffffff; stroke-opacity: 0.4; stroke-width: 0.48"/>
     <use xlink:href="#ma9fed35a7b" x="189.68474" y="149.256524" style="fill: #1f77b4; fill-opacity: 0.4; stroke: #ffffff; stroke-opacity: 0.4; stroke-width: 0.48"/>
     <use xlink:href="#ma9fed35a7b" x="152.619379" y="180.644103" style="fill: #1f77b4; fill-opacity: 0.4; stroke: #ffffff; stroke-opacity: 0.4; stroke-width: 0.48"/>
     <use xlink:href="#ma9fed35a7b" x="151.193789" y="158.833233" style="fill: #1f77b4; fill-opacity: 0.4; stroke: #ffffff; stroke-opacity: 0.4; stroke-width: 0.48"/>
     <use xlink:href="#ma9fed35a7b" x="130.522722" y="180.130759" style="fill: #1f77b4; fill-opacity: 0.4; stroke: #ffffff; stroke-opacity: 0.4; stroke-width: 0.48"/>
     <use xlink:href="#ma9fed35a7b" x="144.065835" y="179.128268" style="fill: #1f77b4; fill-opacity: 0.4; stroke: #ffffff; stroke-opacity: 0.4; stroke-width: 0.48"/>
     <use xlink:href="#ma9fed35a7b" x="169.726469" y="172.295407" style="fill: #1f77b4; fill-opacity: 0.4; stroke: #ffffff; stroke-opacity: 0.4; stroke-width: 0.48"/>
     <use xlink:href="#ma9fed35a7b" x="59.243182" y="233.023583" style="fill: #1f77b4; fill-opacity: 0.4; stroke: #ffffff; stroke-opacity: 0.4; stroke-width: 0.48"/>
     <use xlink:href="#ma9fed35a7b" x="122.681973" y="181.763139" style="fill: #1f77b4; fill-opacity: 0.4; stroke: #ffffff; stroke-opacity: 0.4; stroke-width: 0.48"/>
     <use xlink:href="#ma9fed35a7b" x="177.567218" y="169.68105" style="fill: #1f77b4; fill-opacity: 0.4; stroke: #ffffff; stroke-opacity: 0.4; stroke-width: 0.48"/>
     <use xlink:href="#ma9fed35a7b" x="194.674308" y="145.96614" style="fill: #1f77b4; fill-opacity: 0.4; stroke: #ffffff; stroke-opacity: 0.4; stroke-width: 0.48"/>
    </g>
   </g>
   <g id="PathCollection_2">
    <defs>
     <path id="m68c499a8f4" d="M 0 2.236068 
C 0.593012 2.236068 1.161816 2.000462 1.581139 1.581139 
C 2.000462 1.161816 2.236068 0.593012 2.236068 0 
C 2.236068 -0.593012 2.000462 -1.161816 1.581139 -1.581139 
C 1.161816 -2.000462 0.593012 -2.236068 0 -2.236068 
C -0.593012 -2.236068 -1.161816 -2.000462 -1.581139 -1.581139 
C -2.000462 -1.161816 -2.236068 -0.593012 -2.236068 0 
C -2.236068 0.593012 -2.000462 1.161816 -1.581139 1.581139 
C -1.161816 2.000462 -0.593012 2.236068 0 2.236068 
z
" style="stroke: #1f77b4; stroke-opacity: 0.3"/>
    </defs>
    <g clip-path="url(#p8ffa5c6c52)">
     <use xlink:href="#m68c499a8f4" x="185.407968" y="173.083738" style="fill: #1f77b4; fill-opacity: 0.3; stroke: #1f77b4; stroke-opacity: 0.3"/>
     <use xlink:href="#m68c499a8f4" x="130.522722" y="185.148878" style="fill: #1f77b4; fill-opacity: 0.3; stroke: #1f77b4; stroke-opacity: 0.3"/>
     <use xlink:href="#m68c499a8f4" x="247.421168" y="129.074643" style="fill: #1f77b4; fill-opacity: 0.3; stroke: #1f77b4; stroke-opacity: 0.3"/>
     <use xlink:href="#m68c499a8f4" x="159.034538" y="176.584919" style="fill: #1f77b4; fill-opacity: 0.3; stroke: #1f77b4; stroke-opacity: 0.3"/>
     <use xlink:href="#m68c499a8f4" x="218.196556" y="144.878105" style="fill: #1f77b4; fill-opacity: 0.3; stroke: #1f77b4; stroke-opacity: 0.3"/>
     <use xlink:href="#m68c499a8f4" x="154.757766" y="170.756632" style="fill: #1f77b4; fill-opacity: 0.3; stroke: #1f77b4; stroke-opacity: 0.3"/>
     <use xlink:href="#m68c499a8f4" x="155.470561" y="210.142126" style="fill: #1f77b4; fill-opacity: 0.3; stroke: #1f77b4; stroke-opacity: 0.3"/>
     <use xlink:href="#m68c499a8f4" x="176.141628" y="175.875943" style="fill: #1f77b4; fill-opacity: 0.3; stroke: #1f77b4; stroke-opacity: 0.3"/>
     <use xlink:href="#m68c499a8f4" x="231.739669" y="131.257111" style="fill: #1f77b4; fill-opacity: 0.3; stroke: #1f77b4; stroke-opacity: 0.3"/>
     <use xlink:href="#m68c499a8f4" x="101.29811" y="191.693339" style="fill: #1f77b4; fill-opacity: 0.3; stroke: #1f77b4; stroke-opacity: 0.3"/>
     <use xlink:href="#m68c499a8f4" x="166.162492" y="166.349787" style="fill: #1f77b4; fill-opacity: 0.3; stroke: #1f77b4; stroke-opacity: 0.3"/>
     <use xlink:href="#m68c499a8f4" x="130.522722" y="203.562434" style="fill: #1f77b4; fill-opacity: 0.3; stroke: #1f77b4; stroke-opacity: 0.3"/>
     <use xlink:href="#m68c499a8f4" x="167.588083" y="161.393292" style="fill: #1f77b4; fill-opacity: 0.3; stroke: #1f77b4; stroke-opacity: 0.3"/>
     <use xlink:href="#m68c499a8f4" x="171.864855" y="167.33328" style="fill: #1f77b4; fill-opacity: 0.3; stroke: #1f77b4; stroke-opacity: 0.3"/>
     <use xlink:href="#m68c499a8f4" x="218.909352" y="140.559958" style="fill: #1f77b4; fill-opacity: 0.3; stroke: #1f77b4; stroke-opacity: 0.3"/>
     <use xlink:href="#m68c499a8f4" x="104.862088" y="208.883834" style="fill: #1f77b4; fill-opacity: 0.3; stroke: #1f77b4; stroke-opacity: 0.3"/>
     <use xlink:href="#m68c499a8f4" x="197.52549" y="150.28972" style="fill: #1f77b4; fill-opacity: 0.3; stroke: #1f77b4; stroke-opacity: 0.3"/>
     <use xlink:href="#m68c499a8f4" x="241.718805" y="134.087399" style="fill: #1f77b4; fill-opacity: 0.3; stroke: #1f77b4; stroke-opacity: 0.3"/>
     <use xlink:href="#m68c499a8f4" x="230.314078" y="148.042871" style="fill: #1f77b4; fill-opacity: 0.3; stroke: #1f77b4; stroke-opacity: 0.3"/>
     <use xlink:href="#m68c499a8f4" x="159.034538" y="183.690264" style="fill: #1f77b4; fill-opacity: 0.3; stroke: #1f77b4; stroke-opacity: 0.3"/>
     <use xlink:href="#m68c499a8f4" x="193.961513" y="173.410573" style="fill: #1f77b4; fill-opacity: 0.3; stroke: #1f77b4; stroke-opacity: 0.3"/>
     <use xlink:href="#m68c499a8f4" x="154.04497" y="162.651171" style="fill: #1f77b4; fill-opacity: 0.3; stroke: #1f77b4; stroke-opacity: 0.3"/>
     <use xlink:href="#m68c499a8f4" x="171.864855" y="154.905034" style="fill: #1f77b4; fill-opacity: 0.3; stroke: #1f77b4; stroke-opacity: 0.3"/>
     <use xlink:href="#m68c499a8f4" x="107.000474" y="196.95519" style="fill: #1f77b4; fill-opacity: 0.3; stroke: #1f77b4; stroke-opacity: 0.3"/>
     <use xlink:href="#m68c499a8f4" x="161.88572" y="161.673171" style="fill: #1f77b4; fill-opacity: 0.3; stroke: #1f77b4; stroke-opacity: 0.3"/>
     <use xlink:href="#m68c499a8f4" x="162.598515" y="171.932651" style="fill: #1f77b4; fill-opacity: 0.3; stroke: #1f77b4; stroke-opacity: 0.3"/>
     <use xlink:href="#m68c499a8f4" x="233.878055" y="119.691397" style="fill: #1f77b4; fill-opacity: 0.3; stroke: #1f77b4; stroke-opacity: 0.3"/>
     <use xlink:href="#m68c499a8f4" x="208.930216" y="143.209746" style="fill: #1f77b4; fill-opacity: 0.3; stroke: #1f77b4; stroke-opacity: 0.3"/>
     <use xlink:href="#m68c499a8f4" x="197.52549" y="157.283242" style="fill: #1f77b4; fill-opacity: 0.3; stroke: #1f77b4; stroke-opacity: 0.3"/>
     <use xlink:href="#m68c499a8f4" x="193.248717" y="155.314158" style="fill: #1f77b4; fill-opacity: 0.3; stroke: #1f77b4; stroke-opacity: 0.3"/>
     <use xlink:href="#m68c499a8f4" x="285.199324" y="119.590088" style="fill: #1f77b4; fill-opacity: 0.3; stroke: #1f77b4; stroke-opacity: 0.3"/>
     <use xlink:href="#m68c499a8f4" x="109.851655" y="192.917073" style="fill: #1f77b4; fill-opacity: 0.3; stroke: #1f77b4; stroke-opacity: 0.3"/>
     <use xlink:href="#m68c499a8f4" x="141.927448" y="175.23072" style="fill: #1f77b4; fill-opacity: 0.3; stroke: #1f77b4; stroke-opacity: 0.3"/>
     <use xlink:href="#m68c499a8f4" x="186.120763" y="159.378141" style="fill: #1f77b4; fill-opacity: 0.3; stroke: #1f77b4; stroke-opacity: 0.3"/>
     <use xlink:href="#m68c499a8f4" x="143.353039" y="183.995681" style="fill: #1f77b4; fill-opacity: 0.3; stroke: #1f77b4; stroke-opacity: 0.3"/>
     <use xlink:href="#m68c499a8f4" x="112.702837" y="191.735139" style="fill: #1f77b4; fill-opacity: 0.3; stroke: #1f77b4; stroke-opacity: 0.3"/>
     <use xlink:href="#m68c499a8f4" x="196.099899" y="159.959267" style="fill: #1f77b4; fill-opacity: 0.3; stroke: #1f77b4; stroke-opacity: 0.3"/>
     <use xlink:href="#m68c499a8f4" x="160.460129" y="176.106242" style="fill: #1f77b4; fill-opacity: 0.3; stroke: #1f77b4; stroke-opacity: 0.3"/>
     <use xlink:href="#m68c499a8f4" x="162.598515" y="182.520568" style="fill: #1f77b4; fill-opacity: 0.3; stroke: #1f77b4; stroke-opacity: 0.3"/>
     <use xlink:href="#m68c499a8f4" x="168.300878" y="183.71285" style="fill: #1f77b4; fill-opacity: 0.3; stroke: #1f77b4; stroke-opacity: 0.3"/>
     <use xlink:href="#m68c499a8f4" x="109.13886" y="195.630613" style="fill: #1f77b4; fill-opacity: 0.3; stroke: #1f77b4; stroke-opacity: 0.3"/>
     <use xlink:href="#m68c499a8f4" x="161.172924" y="172.293654" style="fill: #1f77b4; fill-opacity: 0.3; stroke: #1f77b4; stroke-opacity: 0.3"/>
     <use xlink:href="#m68c499a8f4" x="176.141628" y="172.953772" style="fill: #1f77b4; fill-opacity: 0.3; stroke: #1f77b4; stroke-opacity: 0.3"/>
     <use xlink:href="#m68c499a8f4" x="190.397536" y="164.009714" style="fill: #1f77b4; fill-opacity: 0.3; stroke: #1f77b4; stroke-opacity: 0.3"/>
     <use xlink:href="#m68c499a8f4" x="149.055402" y="179.67305" style="fill: #1f77b4; fill-opacity: 0.3; stroke: #1f77b4; stroke-opacity: 0.3"/>
     <use xlink:href="#m68c499a8f4" x="181.843991" y="141.154894" style="fill: #1f77b4; fill-opacity: 0.3; stroke: #1f77b4; stroke-opacity: 0.3"/>
     <use xlink:href="#m68c499a8f4" x="127.67154" y="184.634533" style="fill: #1f77b4; fill-opacity: 0.3; stroke: #1f77b4; stroke-opacity: 0.3"/>
     <use xlink:href="#m68c499a8f4" x="156.183356" y="170.606943" style="fill: #1f77b4; fill-opacity: 0.3; stroke: #1f77b4; stroke-opacity: 0.3"/>
     <use xlink:href="#m68c499a8f4" x="134.799494" y="173.181706" style="fill: #1f77b4; fill-opacity: 0.3; stroke: #1f77b4; stroke-opacity: 0.3"/>
     <use xlink:href="#m68c499a8f4" x="178.992809" y="187.71441" style="fill: #1f77b4; fill-opacity: 0.3; stroke: #1f77b4; stroke-opacity: 0.3"/>
     <use xlink:href="#m68c499a8f4" x="164.024106" y="160.419244" style="fill: #1f77b4; fill-opacity: 0.3; stroke: #1f77b4; stroke-opacity: 0.3"/>
     <use xlink:href="#m68c499a8f4" x="134.086699" y="153.785562" style="fill: #1f77b4; fill-opacity: 0.3; stroke: #1f77b4; stroke-opacity: 0.3"/>
     <use xlink:href="#m68c499a8f4" x="295.17846" y="78.2671" style="fill: #1f77b4; fill-opacity: 0.3; stroke: #1f77b4; stroke-opacity: 0.3"/>
     <use xlink:href="#m68c499a8f4" x="118.4052" y="184.397828" style="fill: #1f77b4; fill-opacity: 0.3; stroke: #1f77b4; stroke-opacity: 0.3"/>
     <use xlink:href="#m68c499a8f4" x="171.864855" y="183.952719" style="fill: #1f77b4; fill-opacity: 0.3; stroke: #1f77b4; stroke-opacity: 0.3"/>
     <use xlink:href="#m68c499a8f4" x="157.608947" y="176.981167" style="fill: #1f77b4; fill-opacity: 0.3; stroke: #1f77b4; stroke-opacity: 0.3"/>
     <use xlink:href="#m68c499a8f4" x="160.460129" y="174.589371" style="fill: #1f77b4; fill-opacity: 0.3; stroke: #1f77b4; stroke-opacity: 0.3"/>
     <use xlink:href="#m68c499a8f4" x="363.606818" y="89.304979" style="fill: #1f77b4; fill-opacity: 0.3; stroke: #1f77b4; stroke-opacity: 0.3"/>
     <use xlink:href="#m68c499a8f4" x="166.162492" y="199.263021" style="fill: #1f77b4; fill-opacity: 0.3; stroke: #1f77b4; stroke-opacity: 0.3"/>
     <use xlink:href="#m68c499a8f4" x="149.768198" y="174.669134" style="fill: #1f77b4; fill-opacity: 0.3; stroke: #1f77b4; stroke-opacity: 0.3"/>
     <use xlink:href="#m68c499a8f4" x="199.663876" y="159.41288" style="fill: #1f77b4; fill-opacity: 0.3; stroke: #1f77b4; stroke-opacity: 0.3"/>
     <use xlink:href="#m68c499a8f4" x="174.716037" y="158.990349" style="fill: #1f77b4; fill-opacity: 0.3; stroke: #1f77b4; stroke-opacity: 0.3"/>
     <use xlink:href="#m68c499a8f4" x="196.099899" y="155.105133" style="fill: #1f77b4; fill-opacity: 0.3; stroke: #1f77b4; stroke-opacity: 0.3"/>
     <use xlink:href="#m68c499a8f4" x="238.867623" y="138.019504" style="fill: #1f77b4; fill-opacity: 0.3; stroke: #1f77b4; stroke-opacity: 0.3"/>
     <use xlink:href="#m68c499a8f4" x="94.170156" y="229.015077" style="fill: #1f77b4; fill-opacity: 0.3; stroke: #1f77b4; stroke-opacity: 0.3"/>
     <use xlink:href="#m68c499a8f4" x="94.170156" y="211.643258" style="fill: #1f77b4; fill-opacity: 0.3; stroke: #1f77b4; stroke-opacity: 0.3"/>
     <use xlink:href="#m68c499a8f4" x="276.645779" y="131.425938" style="fill: #1f77b4; fill-opacity: 0.3; stroke: #1f77b4; stroke-opacity: 0.3"/>
     <use xlink:href="#m68c499a8f4" x="136.225085" y="177.572024" style="fill: #1f77b4; fill-opacity: 0.3; stroke: #1f77b4; stroke-opacity: 0.3"/>
     <use xlink:href="#m68c499a8f4" x="127.67154" y="187.920866" style="fill: #1f77b4; fill-opacity: 0.3; stroke: #1f77b4; stroke-opacity: 0.3"/>
     <use xlink:href="#m68c499a8f4" x="161.88572" y="173.418197" style="fill: #1f77b4; fill-opacity: 0.3; stroke: #1f77b4; stroke-opacity: 0.3"/>
     <use xlink:href="#m68c499a8f4" x="279.496961" y="111.32788" style="fill: #1f77b4; fill-opacity: 0.3; stroke: #1f77b4; stroke-opacity: 0.3"/>
     <use xlink:href="#m68c499a8f4" x="165.449697" y="172.921774" style="fill: #1f77b4; fill-opacity: 0.3; stroke: #1f77b4; stroke-opacity: 0.3"/>
     <use xlink:href="#m68c499a8f4" x="177.567218" y="153.281736" style="fill: #1f77b4; fill-opacity: 0.3; stroke: #1f77b4; stroke-opacity: 0.3"/>
     <use xlink:href="#m68c499a8f4" x="189.68474" y="149.256524" style="fill: #1f77b4; fill-opacity: 0.3; stroke: #1f77b4; stroke-opacity: 0.3"/>
     <use xlink:href="#m68c499a8f4" x="152.619379" y="180.644103" style="fill: #1f77b4; fill-opacity: 0.3; stroke: #1f77b4; stroke-opacity: 0.3"/>
     <use xlink:href="#m68c499a8f4" x="151.193789" y="158.833233" style="fill: #1f77b4; fill-opacity: 0.3; stroke: #1f77b4; stroke-opacity: 0.3"/>
     <use xlink:href="#m68c499a8f4" x="130.522722" y="180.130759" style="fill: #1f77b4; fill-opacity: 0.3; stroke: #1f77b4; stroke-opacity: 0.3"/>
     <use xlink:href="#m68c499a8f4" x="144.065835" y="179.128268" style="fill: #1f77b4; fill-opacity: 0.3; stroke: #1f77b4; stroke-opacity: 0.3"/>
     <use xlink:href="#m68c499a8f4" x="169.726469" y="172.295407" style="fill: #1f77b4; fill-opacity: 0.3; stroke: #1f77b4; stroke-opacity: 0.3"/>
     <use xlink:href="#m68c499a8f4" x="59.243182" y="233.023583" style="fill: #1f77b4; fill-opacity: 0.3; stroke: #1f77b4; stroke-opacity: 0.3"/>
     <use xlink:href="#m68c499a8f4" x="122.681973" y="181.763139" style="fill: #1f77b4; fill-opacity: 0.3; stroke: #1f77b4; stroke-opacity: 0.3"/>
     <use xlink:href="#m68c499a8f4" x="177.567218" y="169.68105" style="fill: #1f77b4; fill-opacity: 0.3; stroke: #1f77b4; stroke-opacity: 0.3"/>
     <use xlink:href="#m68c499a8f4" x="194.674308" y="145.96614" style="fill: #1f77b4; fill-opacity: 0.3; stroke: #1f77b4; stroke-opacity: 0.3"/>
    </g>
   </g>
   <g id="PolyCollection_1">
    <path d="M 59.243182 208.20452 
L 59.243182 233.956364 
L 62.317562 231.940591 
L 65.391942 229.93572 
L 68.466322 227.939792 
L 71.540702 225.960745 
L 74.615083 223.991719 
L 77.689463 222.046802 
L 80.763843 220.13256 
L 83.838223 218.182855 
L 86.912603 216.267896 
L 89.986983 214.439403 
L 93.061364 212.517998 
L 96.135744 210.63334 
L 99.210124 208.827396 
L 102.284504 206.996546 
L 105.358884 205.196273 
L 108.433264 203.457322 
L 111.507645 201.686424 
L 114.582025 199.942779 
L 117.656405 198.169144 
L 120.730785 196.405387 
L 123.805165 194.632517 
L 126.879545 192.90484 
L 129.953926 191.156209 
L 133.028306 189.469026 
L 136.102686 187.919014 
L 139.177066 186.42106 
L 142.251446 184.808123 
L 145.325826 183.20102 
L 148.400207 181.647966 
L 151.474587 180.133372 
L 154.548967 178.502275 
L 157.623347 176.941682 
L 160.697727 175.47589 
L 163.772107 174.06537 
L 166.846488 172.585678 
L 169.920868 171.047486 
L 172.995248 169.618926 
L 176.069628 168.10373 
L 179.144008 166.590349 
L 182.218388 165.024281 
L 185.292769 163.522354 
L 188.367149 161.968783 
L 191.441529 160.492394 
L 194.515909 159.018326 
L 197.590289 157.618241 
L 200.664669 156.120277 
L 203.73905 154.693389 
L 206.81343 153.298918 
L 209.88781 151.93699 
L 212.96219 150.536963 
L 216.03657 149.204704 
L 219.11095 147.787616 
L 222.185331 146.36072 
L 225.259711 145.065177 
L 228.334091 143.816645 
L 231.408471 142.451888 
L 234.482851 141.020186 
L 237.557231 139.860606 
L 240.631612 138.731408 
L 243.705992 137.490171 
L 246.780372 136.201742 
L 249.854752 134.940612 
L 252.929132 133.656527 
L 256.003512 132.377332 
L 259.077893 131.102382 
L 262.152273 129.936541 
L 265.226653 128.794248 
L 268.301033 127.620787 
L 271.375413 126.414919 
L 274.449793 125.313304 
L 277.524174 124.118309 
L 280.598554 122.948092 
L 283.672934 121.662988 
L 286.747314 120.699224 
L 289.821694 119.680278 
L 292.896074 118.435205 
L 295.970455 117.341772 
L 299.044835 116.288064 
L 302.119215 115.244087 
L 305.193595 114.292669 
L 308.267975 113.227451 
L 311.342355 112.376265 
L 314.416736 111.355707 
L 317.491116 110.189076 
L 320.565496 109.245164 
L 323.639876 108.377269 
L 326.714256 107.312993 
L 329.788636 106.412329 
L 332.863017 105.596674 
L 335.937397 104.86319 
L 339.011777 104.109707 
L 342.086157 103.368153 
L 345.160537 102.640658 
L 348.234917 101.927222 
L 351.309298 101.116195 
L 354.383678 100.194816 
L 357.458058 99.286274 
L 360.532438 98.549315 
L 363.606818 97.836064 
L 363.606818 36.283636 
L 363.606818 36.283636 
L 360.532438 38.936922 
L 357.458058 41.57386 
L 354.383678 44.290679 
L 351.309298 46.949247 
L 348.234917 49.428397 
L 345.160537 51.944762 
L 342.086157 54.494494 
L 339.011777 57.07158 
L 335.937397 59.579952 
L 332.863017 62.052808 
L 329.788636 64.53779 
L 326.714256 67.011232 
L 323.639876 69.468354 
L 320.565496 71.909154 
L 317.491116 74.333634 
L 314.416736 76.79318 
L 311.342355 79.242196 
L 308.267975 81.672924 
L 305.193595 84.086244 
L 302.119215 86.489712 
L 299.044835 88.843002 
L 295.970455 91.179179 
L 292.896074 93.504772 
L 289.821694 95.797234 
L 286.747314 97.997897 
L 283.672934 100.225799 
L 280.598554 102.40608 
L 277.524174 104.36218 
L 274.449793 106.428106 
L 271.375413 108.497783 
L 268.301033 110.561204 
L 265.226653 112.682565 
L 262.152273 114.660368 
L 259.077893 116.628996 
L 256.003512 118.579419 
L 252.929132 120.654548 
L 249.854752 122.677782 
L 246.780372 124.749027 
L 243.705992 126.577423 
L 240.631612 128.371318 
L 237.557231 130.092006 
L 234.482851 131.968168 
L 231.408471 133.743352 
L 228.334091 135.427449 
L 225.259711 137.203429 
L 222.185331 138.783527 
L 219.11095 140.400452 
L 216.03657 142.056234 
L 212.96219 143.599078 
L 209.88781 145.239859 
L 206.81343 146.827632 
L 203.73905 148.405624 
L 200.664669 149.976663 
L 197.590289 151.552038 
L 194.515909 153.17635 
L 191.441529 154.749703 
L 188.367149 156.270103 
L 185.292769 157.788008 
L 182.218388 159.365497 
L 179.144008 160.907623 
L 176.069628 162.371649 
L 172.995248 163.96763 
L 169.920868 165.452186 
L 166.846488 166.988121 
L 163.772107 168.514888 
L 160.697727 170.059868 
L 157.623347 171.547602 
L 154.548967 173.037121 
L 151.474587 174.499444 
L 148.400207 175.957282 
L 145.325826 177.407093 
L 142.251446 178.883069 
L 139.177066 180.244643 
L 136.102686 181.622466 
L 133.028306 183.062485 
L 129.953926 184.489681 
L 126.879545 185.76761 
L 123.805165 186.919451 
L 120.730785 188.117582 
L 117.656405 189.19347 
L 114.582025 190.463796 
L 111.507645 191.69127 
L 108.433264 192.759057 
L 105.358884 193.893995 
L 102.284504 194.899397 
L 99.210124 195.961953 
L 96.135744 196.946789 
L 93.061364 197.963221 
L 89.986983 198.984224 
L 86.912603 200.036987 
L 83.838223 201.029591 
L 80.763843 202.04304 
L 77.689463 203.047037 
L 74.615083 203.965406 
L 71.540702 204.809363 
L 68.466322 205.640704 
L 65.391942 206.493137 
L 62.317562 207.348165 
L 59.243182 208.20452 
z
" clip-path="url(#p8ffa5c6c52)" style="fill: #008000; fill-opacity: 0.15"/>
   </g>
   <g id="matplotlib.axis_1">
    <g id="xtick_1">
     <g id="line2d_1">
      <defs>
       <path id="md5f59eabf4" d="M 0 0 
L 0 3.5 
" style="stroke: #000000; stroke-width: 0.8"/>
      </defs>
      <g>
       <use xlink:href="#md5f59eabf4" x="90.606179" y="243.84" style="stroke: #000000; stroke-width: 0.8"/>
      </g>
     </g>
     <g id="text_1">
      <!-- 10 -->
      <g transform="translate(84.243679 258.438437)scale(0.1 -0.1)">
       <defs>
        <path id="DejaVuSans-31" d="M 794 531 
L 1825 531 
L 1825 4091 
L 703 3866 
L 703 4441 
L 1819 4666 
L 2450 4666 
L 2450 531 
L 3481 531 
L 3481 0 
L 794 0 
L 794 531 
z
" transform="scale(0.015625)"/>
        <path id="DejaVuSans-30" d="M 2034 4250 
Q 1547 4250 1301 3770 
Q 1056 3291 1056 2328 
Q 1056 1369 1301 889 
Q 1547 409 2034 409 
Q 2525 409 2770 889 
Q 3016 1369 3016 2328 
Q 3016 3291 2770 3770 
Q 2525 4250 2034 4250 
z
M 2034 4750 
Q 2819 4750 3233 4129 
Q 3647 3509 3647 2328 
Q 3647 1150 3233 529 
Q 2819 -91 2034 -91 
Q 1250 -91 836 529 
Q 422 1150 422 2328 
Q 422 3509 836 4129 
Q 1250 4750 2034 4750 
z
" transform="scale(0.015625)"/>
       </defs>
       <use xlink:href="#DejaVuSans-31"/>
       <use xlink:href="#DejaVuSans-30" x="63.623047"/>
      </g>
     </g>
    </g>
    <g id="xtick_2">
     <g id="line2d_2">
      <g>
       <use xlink:href="#md5f59eabf4" x="161.88572" y="243.84" style="stroke: #000000; stroke-width: 0.8"/>
      </g>
     </g>
     <g id="text_2">
      <!-- 20 -->
      <g transform="translate(155.52322 258.438437)scale(0.1 -0.1)">
       <defs>
        <path id="DejaVuSans-32" d="M 1228 531 
L 3431 531 
L 3431 0 
L 469 0 
L 469 531 
Q 828 903 1448 1529 
Q 2069 2156 2228 2338 
Q 2531 2678 2651 2914 
Q 2772 3150 2772 3378 
Q 2772 3750 2511 3984 
Q 2250 4219 1831 4219 
Q 1534 4219 1204 4116 
Q 875 4013 500 3803 
L 500 4441 
Q 881 4594 1212 4672 
Q 1544 4750 1819 4750 
Q 2544 4750 2975 4387 
Q 3406 4025 3406 3419 
Q 3406 3131 3298 2873 
Q 3191 2616 2906 2266 
Q 2828 2175 2409 1742 
Q 1991 1309 1228 531 
z
" transform="scale(0.015625)"/>
       </defs>
       <use xlink:href="#DejaVuSans-32"/>
       <use xlink:href="#DejaVuSans-30" x="63.623047"/>
      </g>
     </g>
    </g>
    <g id="xtick_3">
     <g id="line2d_3">
      <g>
       <use xlink:href="#md5f59eabf4" x="233.16526" y="243.84" style="stroke: #000000; stroke-width: 0.8"/>
      </g>
     </g>
     <g id="text_3">
      <!-- 30 -->
      <g transform="translate(226.80276 258.438437)scale(0.1 -0.1)">
       <defs>
        <path id="DejaVuSans-33" d="M 2597 2516 
Q 3050 2419 3304 2112 
Q 3559 1806 3559 1356 
Q 3559 666 3084 287 
Q 2609 -91 1734 -91 
Q 1441 -91 1130 -33 
Q 819 25 488 141 
L 488 750 
Q 750 597 1062 519 
Q 1375 441 1716 441 
Q 2309 441 2620 675 
Q 2931 909 2931 1356 
Q 2931 1769 2642 2001 
Q 2353 2234 1838 2234 
L 1294 2234 
L 1294 2753 
L 1863 2753 
Q 2328 2753 2575 2939 
Q 2822 3125 2822 3475 
Q 2822 3834 2567 4026 
Q 2313 4219 1838 4219 
Q 1578 4219 1281 4162 
Q 984 4106 628 3988 
L 628 4550 
Q 988 4650 1302 4700 
Q 1616 4750 1894 4750 
Q 2613 4750 3031 4423 
Q 3450 4097 3450 3541 
Q 3450 3153 3228 2886 
Q 3006 2619 2597 2516 
z
" transform="scale(0.015625)"/>
       </defs>
       <use xlink:href="#DejaVuSans-33"/>
       <use xlink:href="#DejaVuSans-30" x="63.623047"/>
      </g>
     </g>
    </g>
    <g id="xtick_4">
     <g id="line2d_4">
      <g>
       <use xlink:href="#md5f59eabf4" x="304.4448" y="243.84" style="stroke: #000000; stroke-width: 0.8"/>
      </g>
     </g>
     <g id="text_4">
      <!-- 40 -->
      <g transform="translate(298.0823 258.438437)scale(0.1 -0.1)">
       <defs>
        <path id="DejaVuSans-34" d="M 2419 4116 
L 825 1625 
L 2419 1625 
L 2419 4116 
z
M 2253 4666 
L 3047 4666 
L 3047 1625 
L 3713 1625 
L 3713 1100 
L 3047 1100 
L 3047 0 
L 2419 0 
L 2419 1100 
L 313 1100 
L 313 1709 
L 2253 4666 
z
" transform="scale(0.015625)"/>
       </defs>
       <use xlink:href="#DejaVuSans-34"/>
       <use xlink:href="#DejaVuSans-30" x="63.623047"/>
      </g>
     </g>
    </g>
    <g id="xtick_5">
     <g id="line2d_5">
      <g>
       <use xlink:href="#md5f59eabf4" x="375.72434" y="243.84" style="stroke: #000000; stroke-width: 0.8"/>
      </g>
     </g>
     <g id="text_5">
      <!-- 50 -->
      <g transform="translate(369.36184 258.438437)scale(0.1 -0.1)">
       <defs>
        <path id="DejaVuSans-35" d="M 691 4666 
L 3169 4666 
L 3169 4134 
L 1269 4134 
L 1269 2991 
Q 1406 3038 1543 3061 
Q 1681 3084 1819 3084 
Q 2600 3084 3056 2656 
Q 3513 2228 3513 1497 
Q 3513 744 3044 326 
Q 2575 -91 1722 -91 
Q 1428 -91 1123 -41 
Q 819 9 494 109 
L 494 744 
Q 775 591 1075 516 
Q 1375 441 1709 441 
Q 2250 441 2565 725 
Q 2881 1009 2881 1497 
Q 2881 1984 2565 2268 
Q 2250 2553 1709 2553 
Q 1456 2553 1204 2497 
Q 953 2441 691 2322 
L 691 4666 
z
" transform="scale(0.015625)"/>
       </defs>
       <use xlink:href="#DejaVuSans-35"/>
       <use xlink:href="#DejaVuSans-30" x="63.623047"/>
      </g>
     </g>
    </g>
    <g id="text_6">
     <!-- Actual Prices: $Y_i$ -->
     <g transform="translate(171.725 272.116562)scale(0.1 -0.1)">
      <defs>
       <path id="DejaVuSans-41" d="M 2188 4044 
L 1331 1722 
L 3047 1722 
L 2188 4044 
z
M 1831 4666 
L 2547 4666 
L 4325 0 
L 3669 0 
L 3244 1197 
L 1141 1197 
L 716 0 
L 50 0 
L 1831 4666 
z
" transform="scale(0.015625)"/>
       <path id="DejaVuSans-63" d="M 3122 3366 
L 3122 2828 
Q 2878 2963 2633 3030 
Q 2388 3097 2138 3097 
Q 1578 3097 1268 2742 
Q 959 2388 959 1747 
Q 959 1106 1268 751 
Q 1578 397 2138 397 
Q 2388 397 2633 464 
Q 2878 531 3122 666 
L 3122 134 
Q 2881 22 2623 -34 
Q 2366 -91 2075 -91 
Q 1284 -91 818 406 
Q 353 903 353 1747 
Q 353 2603 823 3093 
Q 1294 3584 2113 3584 
Q 2378 3584 2631 3529 
Q 2884 3475 3122 3366 
z
" transform="scale(0.015625)"/>
       <path id="DejaVuSans-74" d="M 1172 4494 
L 1172 3500 
L 2356 3500 
L 2356 3053 
L 1172 3053 
L 1172 1153 
Q 1172 725 1289 603 
Q 1406 481 1766 481 
L 2356 481 
L 2356 0 
L 1766 0 
Q 1100 0 847 248 
Q 594 497 594 1153 
L 594 3053 
L 172 3053 
L 172 3500 
L 594 3500 
L 594 4494 
L 1172 4494 
z
" transform="scale(0.015625)"/>
       <path id="DejaVuSans-75" d="M 544 1381 
L 544 3500 
L 1119 3500 
L 1119 1403 
Q 1119 906 1312 657 
Q 1506 409 1894 409 
Q 2359 409 2629 706 
Q 2900 1003 2900 1516 
L 2900 3500 
L 3475 3500 
L 3475 0 
L 2900 0 
L 2900 538 
Q 2691 219 2414 64 
Q 2138 -91 1772 -91 
Q 1169 -91 856 284 
Q 544 659 544 1381 
z
M 1991 3584 
L 1991 3584 
z
" transform="scale(0.015625)"/>
       <path id="DejaVuSans-61" d="M 2194 1759 
Q 1497 1759 1228 1600 
Q 959 1441 959 1056 
Q 959 750 1161 570 
Q 1363 391 1709 391 
Q 2188 391 2477 730 
Q 2766 1069 2766 1631 
L 2766 1759 
L 2194 1759 
z
M 3341 1997 
L 3341 0 
L 2766 0 
L 2766 531 
Q 2569 213 2275 61 
Q 1981 -91 1556 -91 
Q 1019 -91 701 211 
Q 384 513 384 1019 
Q 384 1609 779 1909 
Q 1175 2209 1959 2209 
L 2766 2209 
L 2766 2266 
Q 2766 2663 2505 2880 
Q 2244 3097 1772 3097 
Q 1472 3097 1187 3025 
Q 903 2953 641 2809 
L 641 3341 
Q 956 3463 1253 3523 
Q 1550 3584 1831 3584 
Q 2591 3584 2966 3190 
Q 3341 2797 3341 1997 
z
" transform="scale(0.015625)"/>
       <path id="DejaVuSans-6c" d="M 603 4863 
L 1178 4863 
L 1178 0 
L 603 0 
L 603 4863 
z
" transform="scale(0.015625)"/>
       <path id="DejaVuSans-20" transform="scale(0.015625)"/>
       <path id="DejaVuSans-50" d="M 1259 4147 
L 1259 2394 
L 2053 2394 
Q 2494 2394 2734 2622 
Q 2975 2850 2975 3272 
Q 2975 3691 2734 3919 
Q 2494 4147 2053 4147 
L 1259 4147 
z
M 628 4666 
L 2053 4666 
Q 2838 4666 3239 4311 
Q 3641 3956 3641 3272 
Q 3641 2581 3239 2228 
Q 2838 1875 2053 1875 
L 1259 1875 
L 1259 0 
L 628 0 
L 628 4666 
z
" transform="scale(0.015625)"/>
       <path id="DejaVuSans-72" d="M 2631 2963 
Q 2534 3019 2420 3045 
Q 2306 3072 2169 3072 
Q 1681 3072 1420 2755 
Q 1159 2438 1159 1844 
L 1159 0 
L 581 0 
L 581 3500 
L 1159 3500 
L 1159 2956 
Q 1341 3275 1631 3429 
Q 1922 3584 2338 3584 
Q 2397 3584 2469 3576 
Q 2541 3569 2628 3553 
L 2631 2963 
z
" transform="scale(0.015625)"/>
       <path id="DejaVuSans-69" d="M 603 3500 
L 1178 3500 
L 1178 0 
L 603 0 
L 603 3500 
z
M 603 4863 
L 1178 4863 
L 1178 4134 
L 603 4134 
L 603 4863 
z
" transform="scale(0.015625)"/>
       <path id="DejaVuSans-65" d="M 3597 1894 
L 3597 1613 
L 953 1613 
Q 991 1019 1311 708 
Q 1631 397 2203 397 
Q 2534 397 2845 478 
Q 3156 559 3463 722 
L 3463 178 
Q 3153 47 2828 -22 
Q 2503 -91 2169 -91 
Q 1331 -91 842 396 
Q 353 884 353 1716 
Q 353 2575 817 3079 
Q 1281 3584 2069 3584 
Q 2775 3584 3186 3129 
Q 3597 2675 3597 1894 
z
M 3022 2063 
Q 3016 2534 2758 2815 
Q 2500 3097 2075 3097 
Q 1594 3097 1305 2825 
Q 1016 2553 972 2059 
L 3022 2063 
z
" transform="scale(0.015625)"/>
       <path id="DejaVuSans-73" d="M 2834 3397 
L 2834 2853 
Q 2591 2978 2328 3040 
Q 2066 3103 1784 3103 
Q 1356 3103 1142 2972 
Q 928 2841 928 2578 
Q 928 2378 1081 2264 
Q 1234 2150 1697 2047 
L 1894 2003 
Q 2506 1872 2764 1633 
Q 3022 1394 3022 966 
Q 3022 478 2636 193 
Q 2250 -91 1575 -91 
Q 1294 -91 989 -36 
Q 684 19 347 128 
L 347 722 
Q 666 556 975 473 
Q 1284 391 1588 391 
Q 1994 391 2212 530 
Q 2431 669 2431 922 
Q 2431 1156 2273 1281 
Q 2116 1406 1581 1522 
L 1381 1569 
Q 847 1681 609 1914 
Q 372 2147 372 2553 
Q 372 3047 722 3315 
Q 1072 3584 1716 3584 
Q 2034 3584 2315 3537 
Q 2597 3491 2834 3397 
z
" transform="scale(0.015625)"/>
       <path id="DejaVuSans-3a" d="M 750 794 
L 1409 794 
L 1409 0 
L 750 0 
L 750 794 
z
M 750 3309 
L 1409 3309 
L 1409 2516 
L 750 2516 
L 750 3309 
z
" transform="scale(0.015625)"/>
       <path id="DejaVuSans-Oblique-59" d="M 403 4666 
L 1081 4666 
L 1953 2747 
L 3616 4666 
L 4325 4666 
L 2209 2222 
L 1778 0 
L 1147 0 
L 1575 2222 
L 403 4666 
z
" transform="scale(0.015625)"/>
       <path id="DejaVuSans-Oblique-69" d="M 1172 4863 
L 1747 4863 
L 1606 4134 
L 1031 4134 
L 1172 4863 
z
M 909 3500 
L 1484 3500 
L 800 0 
L 225 0 
L 909 3500 
z
" transform="scale(0.015625)"/>
      </defs>
      <use xlink:href="#DejaVuSans-41" transform="translate(0 0.015625)"/>
      <use xlink:href="#DejaVuSans-63" transform="translate(68.408203 0.015625)"/>
      <use xlink:href="#DejaVuSans-74" transform="translate(123.388672 0.015625)"/>
      <use xlink:href="#DejaVuSans-75" transform="translate(162.597656 0.015625)"/>
      <use xlink:href="#DejaVuSans-61" transform="translate(225.976562 0.015625)"/>
      <use xlink:href="#DejaVuSans-6c" transform="translate(287.255859 0.015625)"/>
      <use xlink:href="#DejaVuSans-20" transform="translate(315.039062 0.015625)"/>
      <use xlink:href="#DejaVuSans-50" transform="translate(346.826172 0.015625)"/>
      <use xlink:href="#DejaVuSans-72" transform="translate(407.128906 0.015625)"/>
      <use xlink:href="#DejaVuSans-69" transform="translate(448.242188 0.015625)"/>
      <use xlink:href="#DejaVuSans-63" transform="translate(476.025391 0.015625)"/>
      <use xlink:href="#DejaVuSans-65" transform="translate(531.005859 0.015625)"/>
      <use xlink:href="#DejaVuSans-73" transform="translate(592.529297 0.015625)"/>
      <use xlink:href="#DejaVuSans-3a" transform="translate(644.628906 0.015625)"/>
      <use xlink:href="#DejaVuSans-20" transform="translate(678.320312 0.015625)"/>
      <use xlink:href="#DejaVuSans-Oblique-59" transform="translate(710.107422 0.015625)"/>
      <use xlink:href="#DejaVuSans-Oblique-69" transform="translate(771.191406 -16.390625)scale(0.7)"/>
     </g>
    </g>
   </g>
   <g id="matplotlib.axis_2">
    <g id="ytick_1">
     <g id="line2d_6">
      <defs>
       <path id="m1cd247eb5b" d="M 0 0 
L -3.5 0 
" style="stroke: #000000; stroke-width: 0.8"/>
      </defs>
      <g>
       <use xlink:href="#m1cd247eb5b" x="44.025" y="210.261828" style="stroke: #000000; stroke-width: 0.8"/>
      </g>
     </g>
     <g id="text_7">
      <!-- 10 -->
      <g transform="translate(24.3 214.061047)scale(0.1 -0.1)">
       <use xlink:href="#DejaVuSans-31"/>
       <use xlink:href="#DejaVuSans-30" x="63.623047"/>
      </g>
     </g>
    </g>
    <g id="ytick_2">
     <g id="line2d_7">
      <g>
       <use xlink:href="#m1cd247eb5b" x="44.025" y="171.644109" style="stroke: #000000; stroke-width: 0.8"/>
      </g>
     </g>
     <g id="text_8">
      <!-- 20 -->
      <g transform="translate(24.3 175.443328)scale(0.1 -0.1)">
       <use xlink:href="#DejaVuSans-32"/>
       <use xlink:href="#DejaVuSans-30" x="63.623047"/>
      </g>
     </g>
    </g>
    <g id="ytick_3">
     <g id="line2d_8">
      <g>
       <use xlink:href="#m1cd247eb5b" x="44.025" y="133.026391" style="stroke: #000000; stroke-width: 0.8"/>
      </g>
     </g>
     <g id="text_9">
      <!-- 30 -->
      <g transform="translate(24.3 136.82561)scale(0.1 -0.1)">
       <use xlink:href="#DejaVuSans-33"/>
       <use xlink:href="#DejaVuSans-30" x="63.623047"/>
      </g>
     </g>
    </g>
    <g id="ytick_4">
     <g id="line2d_9">
      <g>
       <use xlink:href="#m1cd247eb5b" x="44.025" y="94.408673" style="stroke: #000000; stroke-width: 0.8"/>
      </g>
     </g>
     <g id="text_10">
      <!-- 40 -->
      <g transform="translate(24.3 98.207891)scale(0.1 -0.1)">
       <use xlink:href="#DejaVuSans-34"/>
       <use xlink:href="#DejaVuSans-30" x="63.623047"/>
      </g>
     </g>
    </g>
    <g id="ytick_5">
     <g id="line2d_10">
      <g>
       <use xlink:href="#m1cd247eb5b" x="44.025" y="55.790954" style="stroke: #000000; stroke-width: 0.8"/>
      </g>
     </g>
     <g id="text_11">
      <!-- 50 -->
      <g transform="translate(24.3 59.590173)scale(0.1 -0.1)">
       <use xlink:href="#DejaVuSans-35"/>
       <use xlink:href="#DejaVuSans-30" x="63.623047"/>
      </g>
     </g>
    </g>
    <g id="text_12">
     <!-- Predicted prices: $\hat{Y}_i$ -->
     <g transform="translate(18.2 182.92)rotate(-90)scale(0.1 -0.1)">
      <defs>
       <path id="DejaVuSans-64" d="M 2906 2969 
L 2906 4863 
L 3481 4863 
L 3481 0 
L 2906 0 
L 2906 525 
Q 2725 213 2448 61 
Q 2172 -91 1784 -91 
Q 1150 -91 751 415 
Q 353 922 353 1747 
Q 353 2572 751 3078 
Q 1150 3584 1784 3584 
Q 2172 3584 2448 3432 
Q 2725 3281 2906 2969 
z
M 947 1747 
Q 947 1113 1208 752 
Q 1469 391 1925 391 
Q 2381 391 2643 752 
Q 2906 1113 2906 1747 
Q 2906 2381 2643 2742 
Q 2381 3103 1925 3103 
Q 1469 3103 1208 2742 
Q 947 2381 947 1747 
z
" transform="scale(0.015625)"/>
       <path id="DejaVuSans-70" d="M 1159 525 
L 1159 -1331 
L 581 -1331 
L 581 3500 
L 1159 3500 
L 1159 2969 
Q 1341 3281 1617 3432 
Q 1894 3584 2278 3584 
Q 2916 3584 3314 3078 
Q 3713 2572 3713 1747 
Q 3713 922 3314 415 
Q 2916 -91 2278 -91 
Q 1894 -91 1617 61 
Q 1341 213 1159 525 
z
M 3116 1747 
Q 3116 2381 2855 2742 
Q 2594 3103 2138 3103 
Q 1681 3103 1420 2742 
Q 1159 2381 1159 1747 
Q 1159 1113 1420 752 
Q 1681 391 2138 391 
Q 2594 391 2855 752 
Q 3116 1113 3116 1747 
z
" transform="scale(0.015625)"/>
       <path id="DejaVuSans-302" d="M -1831 5119 
L -1369 5119 
L -603 3944 
L -1038 3944 
L -1600 4709 
L -2163 3944 
L -2597 3944 
L -1831 5119 
z
M -1600 3584 
L -1600 3584 
z
" transform="scale(0.015625)"/>
      </defs>
      <use xlink:href="#DejaVuSans-50" transform="translate(0 0.609375)"/>
      <use xlink:href="#DejaVuSans-72" transform="translate(60.302734 0.609375)"/>
      <use xlink:href="#DejaVuSans-65" transform="translate(101.416016 0.609375)"/>
      <use xlink:href="#DejaVuSans-64" transform="translate(162.939453 0.609375)"/>
      <use xlink:href="#DejaVuSans-69" transform="translate(226.416016 0.609375)"/>
      <use xlink:href="#DejaVuSans-63" transform="translate(254.199219 0.609375)"/>
      <use xlink:href="#DejaVuSans-74" transform="translate(309.179688 0.609375)"/>
      <use xlink:href="#DejaVuSans-65" transform="translate(348.388672 0.609375)"/>
      <use xlink:href="#DejaVuSans-64" transform="translate(409.912109 0.609375)"/>
      <use xlink:href="#DejaVuSans-20" transform="translate(473.388672 0.609375)"/>
      <use xlink:href="#DejaVuSans-70" transform="translate(505.175781 0.609375)"/>
      <use xlink:href="#DejaVuSans-72" transform="translate(568.652344 0.609375)"/>
      <use xlink:href="#DejaVuSans-69" transform="translate(609.765625 0.609375)"/>
      <use xlink:href="#DejaVuSans-63" transform="translate(637.548828 0.609375)"/>
      <use xlink:href="#DejaVuSans-65" transform="translate(692.529297 0.609375)"/>
      <use xlink:href="#DejaVuSans-73" transform="translate(754.052734 0.609375)"/>
      <use xlink:href="#DejaVuSans-3a" transform="translate(806.152344 0.609375)"/>
      <use xlink:href="#DejaVuSans-20" transform="translate(839.84375 0.609375)"/>
      <use xlink:href="#DejaVuSans-302" transform="translate(934.47998 30.015625)"/>
      <use xlink:href="#DejaVuSans-Oblique-59" transform="translate(871.630859 0.609375)"/>
      <use xlink:href="#DejaVuSans-Oblique-69" transform="translate(933.671875 -15.796875)scale(0.7)"/>
     </g>
    </g>
   </g>
   <g id="line2d_11">
    <path d="M 59.243182 225.568174 
L 62.317562 223.890187 
L 65.391942 222.216542 
L 68.466322 220.547237 
L 71.540702 218.882274 
L 74.615083 217.221651 
L 77.689463 215.565369 
L 80.763843 213.913429 
L 83.838223 212.265829 
L 86.912603 210.62257 
L 89.986983 208.983651 
L 93.061364 207.349074 
L 96.135744 205.718838 
L 99.210124 204.092942 
L 102.284504 202.471388 
L 105.358884 200.854174 
L 108.433264 199.241301 
L 111.507645 197.632769 
L 114.582025 196.028578 
L 117.656405 194.428728 
L 120.730785 192.833219 
L 123.805165 191.24205 
L 126.879545 189.655223 
L 129.953926 188.072736 
L 133.028306 186.49459 
L 136.102686 184.920786 
L 139.177066 183.351322 
L 142.251446 181.786199 
L 145.325826 180.225417 
L 148.400207 178.668975 
L 151.474587 177.116875 
L 154.548967 175.569116 
L 157.623347 174.025697 
L 160.697727 172.48662 
L 163.772107 170.951883 
L 166.846488 169.421487 
L 169.920868 167.895432 
L 172.995248 166.373718 
L 176.069628 164.856345 
L 179.144008 163.343313 
L 182.218388 161.834621 
L 185.292769 160.330271 
L 188.367149 158.830261 
L 191.441529 157.334592 
L 194.515909 155.843265 
L 197.590289 154.356278 
L 200.664669 152.873632 
L 203.73905 151.395327 
L 206.81343 149.921362 
L 209.88781 148.451739 
L 212.96219 146.986457 
L 216.03657 145.525515 
L 219.11095 144.068914 
L 222.185331 142.616655 
L 225.259711 141.168736 
L 228.334091 139.725158 
L 231.408471 138.285921 
L 234.482851 136.851024 
L 237.557231 135.420469 
L 240.631612 133.994255 
L 243.705992 132.572381 
L 246.780372 131.154849 
L 249.854752 129.741657 
L 252.929132 128.332806 
L 256.003512 126.928296 
L 259.077893 125.528127 
L 262.152273 124.132299 
L 265.226653 122.740812 
L 268.301033 121.353665 
L 271.375413 119.97086 
L 274.449793 118.592395 
L 277.524174 117.218272 
L 280.598554 115.848489 
L 283.672934 114.483047 
L 286.747314 113.121946 
L 289.821694 111.765186 
L 292.896074 110.412767 
L 295.970455 109.064688 
L 299.044835 107.720951 
L 302.119215 106.381554 
L 305.193595 105.046499 
L 308.267975 103.715784 
L 311.342355 102.38941 
L 314.416736 101.067377 
L 317.491116 99.749685 
L 320.565496 98.436334 
L 323.639876 97.127324 
L 326.714256 95.822655 
L 329.788636 94.522326 
L 332.863017 93.226338 
L 335.937397 91.934692 
L 339.011777 90.647386 
L 342.086157 89.364421 
L 345.160537 88.085797 
L 348.234917 86.811514 
L 351.309298 85.541572 
L 354.383678 84.27597 
L 357.458058 83.01471 
L 360.532438 81.75779 
L 363.606818 80.505212 
" clip-path="url(#p8ffa5c6c52)" style="fill: none; stroke: #008000; stroke-width: 2; stroke-linecap: square"/>
   </g>
   <g id="patch_3">
    <path d="M 44.025 243.84 
L 44.025 26.4 
" style="fill: none; stroke: #000000; stroke-width: 0.8; stroke-linejoin: miter; stroke-linecap: square"/>
   </g>
   <g id="patch_4">
    <path d="M 378.825 243.84 
L 378.825 26.4 
" style="fill: none; stroke: #000000; stroke-width: 0.8; stroke-linejoin: miter; stroke-linecap: square"/>
   </g>
   <g id="patch_5">
    <path d="M 44.025 243.84 
L 378.825 243.84 
" style="fill: none; stroke: #000000; stroke-width: 0.8; stroke-linejoin: miter; stroke-linecap: square"/>
   </g>
   <g id="patch_6">
    <path d="M 44.025 26.4 
L 378.825 26.4 
" style="fill: none; stroke: #000000; stroke-width: 0.8; stroke-linejoin: miter; stroke-linecap: square"/>
   </g>
   <g id="text_13">
    <!-- Actual Prices vs Predicted prices: $Y_i$ vs $\hat{Y}_i$ [Test Set] -->
    <g transform="translate(58.185 20.4)scale(0.12 -0.12)">
     <defs>
      <path id="DejaVuSans-76" d="M 191 3500 
L 800 3500 
L 1894 563 
L 2988 3500 
L 3597 3500 
L 2284 0 
L 1503 0 
L 191 3500 
z
" transform="scale(0.015625)"/>
      <path id="DejaVuSans-5b" d="M 550 4863 
L 1875 4863 
L 1875 4416 
L 1125 4416 
L 1125 -397 
L 1875 -397 
L 1875 -844 
L 550 -844 
L 550 4863 
z
" transform="scale(0.015625)"/>
      <path id="DejaVuSans-54" d="M -19 4666 
L 3928 4666 
L 3928 4134 
L 2272 4134 
L 2272 0 
L 1638 0 
L 1638 4134 
L -19 4134 
L -19 4666 
z
" transform="scale(0.015625)"/>
      <path id="DejaVuSans-53" d="M 3425 4513 
L 3425 3897 
Q 3066 4069 2747 4153 
Q 2428 4238 2131 4238 
Q 1616 4238 1336 4038 
Q 1056 3838 1056 3469 
Q 1056 3159 1242 3001 
Q 1428 2844 1947 2747 
L 2328 2669 
Q 3034 2534 3370 2195 
Q 3706 1856 3706 1288 
Q 3706 609 3251 259 
Q 2797 -91 1919 -91 
Q 1588 -91 1214 -16 
Q 841 59 441 206 
L 441 856 
Q 825 641 1194 531 
Q 1563 422 1919 422 
Q 2459 422 2753 634 
Q 3047 847 3047 1241 
Q 3047 1584 2836 1778 
Q 2625 1972 2144 2069 
L 1759 2144 
Q 1053 2284 737 2584 
Q 422 2884 422 3419 
Q 422 4038 858 4394 
Q 1294 4750 2059 4750 
Q 2388 4750 2728 4690 
Q 3069 4631 3425 4513 
z
" transform="scale(0.015625)"/>
      <path id="DejaVuSans-5d" d="M 1947 4863 
L 1947 -844 
L 622 -844 
L 622 -397 
L 1369 -397 
L 1369 4416 
L 622 4416 
L 622 4863 
L 1947 4863 
z
" transform="scale(0.015625)"/>
     </defs>
     <use xlink:href="#DejaVuSans-41" transform="translate(0 0.609375)"/>
     <use xlink:href="#DejaVuSans-63" transform="translate(68.408203 0.609375)"/>
     <use xlink:href="#DejaVuSans-74" transform="translate(123.388672 0.609375)"/>
     <use xlink:href="#DejaVuSans-75" transform="translate(162.597656 0.609375)"/>
     <use xlink:href="#DejaVuSans-61" transform="translate(225.976562 0.609375)"/>
     <use xlink:href="#DejaVuSans-6c" transform="translate(287.255859 0.609375)"/>
     <use xlink:href="#DejaVuSans-20" transform="translate(315.039062 0.609375)"/>
     <use xlink:href="#DejaVuSans-50" transform="translate(346.826172 0.609375)"/>
     <use xlink:href="#DejaVuSans-72" transform="translate(407.128906 0.609375)"/>
     <use xlink:href="#DejaVuSans-69" transform="translate(448.242188 0.609375)"/>
     <use xlink:href="#DejaVuSans-63" transform="translate(476.025391 0.609375)"/>
     <use xlink:href="#DejaVuSans-65" transform="translate(531.005859 0.609375)"/>
     <use xlink:href="#DejaVuSans-73" transform="translate(592.529297 0.609375)"/>
     <use xlink:href="#DejaVuSans-20" transform="translate(644.628906 0.609375)"/>
     <use xlink:href="#DejaVuSans-76" transform="translate(676.416016 0.609375)"/>
     <use xlink:href="#DejaVuSans-73" transform="translate(735.595703 0.609375)"/>
     <use xlink:href="#DejaVuSans-20" transform="translate(787.695312 0.609375)"/>
     <use xlink:href="#DejaVuSans-50" transform="translate(819.482422 0.609375)"/>
     <use xlink:href="#DejaVuSans-72" transform="translate(879.785156 0.609375)"/>
     <use xlink:href="#DejaVuSans-65" transform="translate(920.898438 0.609375)"/>
     <use xlink:href="#DejaVuSans-64" transform="translate(982.421875 0.609375)"/>
     <use xlink:href="#DejaVuSans-69" transform="translate(1045.898438 0.609375)"/>
     <use xlink:href="#DejaVuSans-63" transform="translate(1073.681641 0.609375)"/>
     <use xlink:href="#DejaVuSans-74" transform="translate(1128.662109 0.609375)"/>
     <use xlink:href="#DejaVuSans-65" transform="translate(1167.871094 0.609375)"/>
     <use xlink:href="#DejaVuSans-64" transform="translate(1229.394531 0.609375)"/>
     <use xlink:href="#DejaVuSans-20" transform="translate(1292.871094 0.609375)"/>
     <use xlink:href="#DejaVuSans-70" transform="translate(1324.658203 0.609375)"/>
     <use xlink:href="#DejaVuSans-72" transform="translate(1388.134766 0.609375)"/>
     <use xlink:href="#DejaVuSans-69" transform="translate(1429.248047 0.609375)"/>
     <use xlink:href="#DejaVuSans-63" transform="translate(1457.03125 0.609375)"/>
     <use xlink:href="#DejaVuSans-65" transform="translate(1512.011719 0.609375)"/>
     <use xlink:href="#DejaVuSans-73" transform="translate(1573.535156 0.609375)"/>
     <use xlink:href="#DejaVuSans-3a" transform="translate(1625.634766 0.609375)"/>
     <use xlink:href="#DejaVuSans-20" transform="translate(1659.326172 0.609375)"/>
     <use xlink:href="#DejaVuSans-Oblique-59" transform="translate(1691.113281 0.609375)"/>
     <use xlink:href="#DejaVuSans-Oblique-69" transform="translate(1752.197266 -15.796875)scale(0.7)"/>
     <use xlink:href="#DejaVuSans-20" transform="translate(1774.379883 0.609375)"/>
     <use xlink:href="#DejaVuSans-76" transform="translate(1806.166992 0.609375)"/>
     <use xlink:href="#DejaVuSans-73" transform="translate(1865.34668 0.609375)"/>
     <use xlink:href="#DejaVuSans-20" transform="translate(1917.446289 0.609375)"/>
     <use xlink:href="#DejaVuSans-302" transform="translate(2012.08252 30.015625)"/>
     <use xlink:href="#DejaVuSans-Oblique-59" transform="translate(1949.233398 0.609375)"/>
     <use xlink:href="#DejaVuSans-Oblique-69" transform="translate(2011.274414 -15.796875)scale(0.7)"/>
     <use xlink:href="#DejaVuSans-20" transform="translate(2033.457031 0.609375)"/>
     <use xlink:href="#DejaVuSans-5b" transform="translate(2065.244141 0.609375)"/>
     <use xlink:href="#DejaVuSans-54" transform="translate(2104.257812 0.609375)"/>
     <use xlink:href="#DejaVuSans-65" transform="translate(2165.341797 0.609375)"/>
     <use xlink:href="#DejaVuSans-73" transform="translate(2226.865234 0.609375)"/>
     <use xlink:href="#DejaVuSans-74" transform="translate(2278.964844 0.609375)"/>
     <use xlink:href="#DejaVuSans-20" transform="translate(2318.173828 0.609375)"/>
     <use xlink:href="#DejaVuSans-53" transform="translate(2349.960938 0.609375)"/>
     <use xlink:href="#DejaVuSans-65" transform="translate(2413.4375 0.609375)"/>
     <use xlink:href="#DejaVuSans-74" transform="translate(2474.960938 0.609375)"/>
     <use xlink:href="#DejaVuSans-5d" transform="translate(2514.169922 0.609375)"/>
    </g>
   </g>
  </g>
 </g>
 <defs>
  <clipPath id="p8ffa5c6c52">
   <rect x="44.025" y="26.4" width="334.8" height="217.44"/>
  </clipPath>
 </defs>
</svg>
